<?xml version="1.0" encoding="utf-8"?>
<svg viewBox="0 0 814.6 1920.51" xmlns="http://www.w3.org/2000/svg">
  <defs>
    <style>.cls-1{fill:#e5e5e5;}.cls-2,.cls-24,.cls-26,.cls-3,.cls-30,.cls-31,.cls-4,.cls-5,.cls-6,.cls-7,.cls-8{fill:none;}.cls-2{stroke:#83dfd3;}.cls-2,.cls-24,.cls-3,.cls-30,.cls-4,.cls-5,.cls-6,.cls-7,.cls-8{stroke-width:1.33px;}.cls-3{stroke:#2e2e47;}.cls-4{stroke:#c5f736;}.cls-5{stroke:#02bf6d;}.cls-6{stroke:#83e084;}.cls-7{stroke:#f67f47;}.cls-8{stroke:#765085;}.cls-9{fill:#83dfd3;}.cls-10,.cls-20,.cls-23{fill:#2e2e47;}.cls-11{fill:#c5f736;}.cls-12{fill:#02bf6d;}.cls-13{fill:#83e084;}.cls-14{fill:#f67f47;}.cls-15{fill:#765085;}.cls-16,.cls-17,.cls-18,.cls-19,.cls-20{isolation:isolate;}.cls-17{font-size:19.36px;}.cls-17,.cls-18,.cls-19,.cls-20,.cls-21{font-family:OpenSans, Open Sans;}.cls-18,.cls-19,.cls-20{font-size:18.1px;}.cls-18,.cls-19,.cls-28{fill:#fff;}.cls-18,.cls-20{letter-spacing:0.04em;}.cls-19,.cls-29{letter-spacing:0.04em;}.cls-21{font-size:21.11px;}.cls-22,.cls-23{font-size:30.34px;font-family:OpenSans-Bold, Open Sans;font-weight:700;text-decoration:underline;}.cls-22{fill:#030321;}.cls-24{stroke:#6e92f3;}.cls-25{fill:#6e92f3;}.cls-26,.cls-30{stroke:#3a5cdb;}.cls-26{stroke-width:1.21px;}.cls-27{fill:#3a5cdb;}.cls-31{stroke:#030321;stroke-miterlimit:10;stroke-width:0.54px;}</style>
  </defs>
  <rect id="backgorund" class="cls-1" x="-27.08" width="841.68" height="2392.82"/>
  <g id="Rastreamento_de_contatos" data-name="Rastreamento de contatos">
    <path id="p_954.375550318999" data-name="p 954.375550318999" class="cls-2" d="M474.47,1544.7a119,119,0,1,1,119-119A119,119,0,0,1,474.47,1544.7Z"/>
  </g>
  <g id="Monitoramento_do_fluxo_de_pessoas" data-name="Monitoramento do fluxo de pessoas">
    <path id="p_707.8901068134201" data-name="p 707.8901068134201" class="cls-3" d="M200.5,1475.34A168.64,168.64,0,1,1,369.14,1306.7,168.64,168.64,0,0,1,200.5,1475.34Z"/>
  </g>
  <g id="Armazenamento">
    <path id="p_920.3208717681134" data-name="p 920.3208717681134" class="cls-4" d="M309.29,1638a85.33,85.33,0,1,1,85.32-85.32A85.32,85.32,0,0,1,309.29,1638Z"/>
  </g>
  <g id="Digitalização_de_serviços_públicos" data-name="Digitalização de serviços públicos">
    <path id="p_508.8027635166066" data-name="p 508.8027635166066" class="cls-5" d="M92.17,1141.1a85.33,85.33,0,1,1,85.33-85.33A85.33,85.33,0,0,1,92.17,1141.1Z"/>
  </g>
  <g id="Fornecimento_de_informações" data-name="Fornecimento de informações">
    <path id="p_878.3378582850332" data-name="p 878.3378582850332" class="cls-6" d="M157.79,1750.71a85.33,85.33,0,1,1,85.33-85.33A85.33,85.33,0,0,1,157.79,1750.71Z"/>
  </g>
  <g id="Monitoramento_de_temperatura" data-name="Monitoramento de temperatura">
    <path id="p_406.0458946830842" data-name="p 406.0458946830842" class="cls-7" d="M269.2,1106.19a88.34,88.34,0,1,1,88.34-88.34A88.34,88.34,0,0,1,269.2,1106.19Z"/>
  </g>
  <g id="Mapeamento_da_evolução_da_COVID-19" data-name="Mapeamento da evolução da COVID-19">
    <path id="p_1027.1212995989183" data-name="p 1027.1212995989183" class="cls-8" d="M681.85,1490.86a85.33,85.33,0,1,1,85.32-85.33A85.33,85.33,0,0,1,681.85,1490.86Z"/>
  </g>
  <g id="Ministério_da_Saúde" data-name="Ministério da Saúde">
    <path id="p_952.4677533184234" data-name="p 952.4677533184234" class="cls-9" d="M474.47,1540.68a115,115,0,1,1,115-115A115,115,0,0,1,474.47,1540.68Z"/>
  </g>
  <g id="UFAL">
    <path id="p_627.0333282762738" data-name="p 627.0333282762738" class="cls-10" d="M117.19,1388a81.3,81.3,0,1,1,81.29-81.3A81.29,81.29,0,0,1,117.19,1388Z"/>
  </g>
  <g id="ViaSoluTI">
    <path id="p_705.9823098128446" data-name="p 705.9823098128446" class="cls-10" d="M283.81,1388a81.3,81.3,0,1,1,81.3-81.3A81.3,81.3,0,0,1,283.81,1388Z"/>
  </g>
  <g id="Embratel">
    <path id="p_918.4130747675379" data-name="p 918.4130747675379" class="cls-11" d="M309.29,1634a81.3,81.3,0,1,1,81.3-81.3A81.3,81.3,0,0,1,309.29,1634Z"/>
  </g>
  <g id="Ministério_da_Infraestrutura" data-name="Ministério da Infraestrutura">
    <path id="p_506.89496651603105" data-name="p 506.89496651603105" class="cls-12" d="M92.17,1136.65a80.88,80.88,0,1,1,80.89-80.88A80.88,80.88,0,0,1,92.17,1136.65Z"/>
  </g>
  <g id="Mito_Games" data-name="Mito Games">
    <path id="p_876.4300612844578" data-name="p 876.4300612844578" class="cls-13" d="M157.79,1746.68a81.3,81.3,0,1,1,81.3-81.3A81.3,81.3,0,0,1,157.79,1746.68Z"/>
  </g>
  <g id="Petrobras">
    <path id="p_404.13809768250866" data-name="p 404.13809768250866" class="cls-14" d="M269.2,1099.15a81.3,81.3,0,1,1,81.3-81.3A81.3,81.3,0,0,1,269.2,1099.15Z"/>
  </g>
  <g id="UFOB">
    <path id="p_1025.2135025983428" data-name="p 1025.2135025983428" class="cls-15" d="M681.85,1486.83a81.3,81.3,0,1,1,81.3-81.3A81.3,81.3,0,0,1,681.85,1486.83Z"/>
  </g>
  <g class="cls-16">
    <text class="cls-17" transform="translate(418.24 1433.79)" style="white-space: pre;">MINISTÉRIO <tspan x="9.6" y="23.24">DA SAÚDE</tspan></text>
  </g>
  <g class="cls-16">
    <text class="cls-18" transform="translate(88.24 1312.87)" style="white-space: pre;">UFAL</text>
  </g>
  <g class="cls-16">
    <text class="cls-19" transform="translate(236.24 1312.87)" style="white-space: pre;">VIASOLUTI</text>
  </g>
  <g class="cls-16">
    <text class="cls-17" transform="translate(258.61 1557.51)" style="white-space: pre;">EMBRATEL</text>
  </g>
  <g class="cls-16">
    <g class="cls-16">
      <path d="M33.63,1052.94l-4.52-11.79H29c.09.93.13,2,.13,3.33v8.46H27.74v-13.31h2.33l4.21,11h.08l4.25-11h2.31v13.31H39.37v-8.57c0-1,0-2,.13-3.21h-.08l-4.55,11.78Z"/>
      <path d="M44.19,1052.94v-13.31h1.55v13.31Z"/>
      <path d="M59.41,1052.94H57.65l-7.28-11.17H50.3c.1,1.31.15,2.52.15,3.61v7.56H49v-13.31h1.75L58,1050.76h.07c0-.17,0-.69-.08-1.58s-.06-1.53,0-1.91v-7.64h1.45Z"/>
      <path d="M62.7,1052.94v-13.31h1.54v13.31Z"/>
      <path d="M75,1049.4a3.27,3.27,0,0,1-1.27,2.74,5.51,5.51,0,0,1-3.46,1,8.6,8.6,0,0,1-3.64-.61V1051a10,10,0,0,0,1.78.55,9.61,9.61,0,0,0,1.91.2,3.86,3.86,0,0,0,2.33-.59,1.93,1.93,0,0,0,.78-1.63,2.16,2.16,0,0,0-.27-1.14,2.71,2.71,0,0,0-.93-.81,13.37,13.37,0,0,0-2-.85,6.32,6.32,0,0,1-2.65-1.57,3.49,3.49,0,0,1-.8-2.38,3,3,0,0,1,1.16-2.45,4.83,4.83,0,0,1,3.05-.91,9.08,9.08,0,0,1,3.65.73l-.48,1.35a8.28,8.28,0,0,0-3.2-.69,3.11,3.11,0,0,0-1.92.52,1.77,1.77,0,0,0-.69,1.47,2.23,2.23,0,0,0,.25,1.13,2.33,2.33,0,0,0,.86.81,10.4,10.4,0,0,0,1.85.82,7.3,7.3,0,0,1,2.88,1.6A3.13,3.13,0,0,1,75,1049.4Z"/>
      <path d="M81.47,1052.94H79.93V1041H75.71v-1.38h10V1041H81.47Z"/>
      <path d="M94.73,1052.94H87.32v-13.31h7.41V1041H88.86v4.29h5.52v1.36H88.86v4.9h5.87Zm-5.09-14.6c.29-.37.6-.83.94-1.36s.6-1,.8-1.4h1.84v.2a13.62,13.62,0,0,1-1.2,1.45,13.76,13.76,0,0,1-1.37,1.34h-1Z"/>
      <path d="M98.86,1047.41v5.53H97.31v-13.31H101a5.79,5.79,0,0,1,3.62.94,3.41,3.41,0,0,1,1.17,2.82,3.53,3.53,0,0,1-2.68,3.57l3.61,6h-1.82l-3.23-5.53Zm0-1.33H101a3.68,3.68,0,0,0,2.4-.65,2.44,2.44,0,0,0,.77-2,2.24,2.24,0,0,0-.78-1.91,4.28,4.28,0,0,0-2.5-.58h-2Z"/>
      <path d="M108.46,1052.94v-13.31H110v13.31Z"/>
      <path d="M124.83,1046.27a7.3,7.3,0,0,1-1.61,5,5.69,5.69,0,0,1-4.49,1.83,5.77,5.77,0,0,1-4.54-1.79,8.8,8.8,0,0,1,0-10.12,5.8,5.8,0,0,1,4.55-1.78,5.63,5.63,0,0,1,4.48,1.82A7.26,7.26,0,0,1,124.83,1046.27Zm-10.6,0a6.3,6.3,0,0,0,1.15,4.1,4.7,4.7,0,0,0,6.69,0,7.95,7.95,0,0,0,0-8.17,4,4,0,0,0-3.33-1.39,4.09,4.09,0,0,0-3.36,1.4A6.22,6.22,0,0,0,114.23,1046.27Z"/>
      <path d="M142.52,1046.16a6.72,6.72,0,0,1-1.79,5,7.09,7.09,0,0,1-5.15,1.74H131.9v-13.31H136a6,6,0,0,1,6.55,6.53Zm-1.64.06a5.37,5.37,0,0,0-1.31-3.93,5.22,5.22,0,0,0-3.88-1.32h-2.25v10.63h1.89a5.73,5.73,0,0,0,4.16-1.36A5.36,5.36,0,0,0,140.88,1046.22Z"/>
      <path d="M153.48,1052.94l-1.66-4.23h-5.33l-1.64,4.23h-1.57l5.26-13.36h1.3l5.24,13.36Zm-2.14-5.62-1.55-4.13c-.2-.52-.41-1.16-.62-1.92a15.42,15.42,0,0,1-.57,1.92l-1.57,4.13Z"/>
      <path d="M19.29,1075.31V1062h1.55v13.31Z"/>
      <path d="M34.51,1075.31H32.74l-7.27-11.17H25.4c.09,1.31.14,2.51.14,3.6v7.57H24.11V1062h1.75l7.25,11.12h.08c0-.16,0-.69-.09-1.58s-.05-1.52,0-1.9V1062h1.45Z"/>
      <path d="M39.34,1075.31H37.79V1062h7.42v1.38H39.34v4.87h5.51v1.37H39.34Z"/>
      <path d="M48.59,1069.77v5.54H47V1062h3.65a5.72,5.72,0,0,1,3.62.94,3.38,3.38,0,0,1,1.17,2.82,3.54,3.54,0,0,1-2.68,3.57l3.61,6H54.58l-3.22-5.54Zm0-1.32h2.12a3.62,3.62,0,0,0,2.4-.66,2.41,2.41,0,0,0,.76-2,2.24,2.24,0,0,0-.77-1.9,4.23,4.23,0,0,0-2.5-.58h-2Z"/>
      <path d="M66.55,1075.31l-1.65-4.23H59.56l-1.64,4.23H56.36L61.62,1062h1.3l5.23,13.36Zm-2.14-5.63-1.54-4.12c-.2-.52-.41-1.16-.62-1.92a19,19,0,0,1-.58,1.92l-1.56,4.12Z"/>
      <path d="M77,1075.31H69.61V1062H77v1.38H71.16v4.28h5.51V1069H71.16v4.89H77Z"/>
      <path d="M87.11,1071.77a3.27,3.27,0,0,1-1.27,2.74,5.56,5.56,0,0,1-3.46,1,8.6,8.6,0,0,1-3.64-.61v-1.49a9.49,9.49,0,0,0,1.78.54,9,9,0,0,0,1.91.2,3.85,3.85,0,0,0,2.33-.58,1.92,1.92,0,0,0,.79-1.64,2.12,2.12,0,0,0-.28-1.13,2.53,2.53,0,0,0-.93-.81,12,12,0,0,0-2-.85,6.22,6.22,0,0,1-2.65-1.58,3.45,3.45,0,0,1-.8-2.37,3,3,0,0,1,1.16-2.45,4.79,4.79,0,0,1,3.06-.91,9,9,0,0,1,3.65.73l-.49,1.35a8.23,8.23,0,0,0-3.2-.7,3.11,3.11,0,0,0-1.92.53,1.74,1.74,0,0,0-.69,1.47,2.23,2.23,0,0,0,.25,1.13,2.42,2.42,0,0,0,.86.81,10.56,10.56,0,0,0,1.86.82,7.32,7.32,0,0,1,2.88,1.6A3.17,3.17,0,0,1,87.11,1071.77Z"/>
      <path d="M93.56,1075.31H92v-11.93H87.8V1062h10v1.38H93.56Z"/>
      <path d="M101,1069.77v5.54H99.4V1062h3.65a5.72,5.72,0,0,1,3.62.94,3.38,3.38,0,0,1,1.17,2.82,3.54,3.54,0,0,1-2.68,3.57l3.61,6h-1.83l-3.22-5.54Zm0-1.32h2.12a3.62,3.62,0,0,0,2.4-.66,2.41,2.41,0,0,0,.77-2,2.22,2.22,0,0,0-.78-1.9,4.21,4.21,0,0,0-2.5-.58h-2Z"/>
      <path d="M120.6,1062v8.61a4.69,4.69,0,0,1-1.38,3.58,5.23,5.23,0,0,1-3.77,1.3,5,5,0,0,1-3.72-1.31,4.85,4.85,0,0,1-1.32-3.6V1062H112v8.68a3.41,3.41,0,0,0,.91,2.56,3.66,3.66,0,0,0,2.68.89,3.53,3.53,0,0,0,2.59-.89,3.45,3.45,0,0,0,.91-2.57V1062Z"/>
      <path d="M127.84,1075.31h-1.55v-11.93h-4.21V1062h10v1.38h-4.22Z"/>
      <path d="M143.73,1062v8.61a4.68,4.68,0,0,1-1.37,3.58,5.28,5.28,0,0,1-3.78,1.3,5.07,5.07,0,0,1-3.72-1.31,4.88,4.88,0,0,1-1.31-3.6V1062h1.55v8.68a3.41,3.41,0,0,0,.91,2.56,3.64,3.64,0,0,0,2.67.89,3.55,3.55,0,0,0,2.6-.89,3.49,3.49,0,0,0,.91-2.57V1062Z"/>
      <path d="M148.43,1069.77v5.54h-1.55V1062h3.65a5.72,5.72,0,0,1,3.62.94,3.38,3.38,0,0,1,1.17,2.82,3.53,3.53,0,0,1-2.68,3.57l3.62,6h-1.83l-3.22-5.54Zm0-1.32h2.12a3.62,3.62,0,0,0,2.4-.66,2.41,2.41,0,0,0,.77-2,2.22,2.22,0,0,0-.78-1.9,4.21,4.21,0,0,0-2.5-.58h-2Z"/>
      <path d="M166.4,1075.31l-1.66-4.23h-5.33l-1.64,4.23H156.2l5.26-13.36h1.3l5.24,13.36Zm-2.14-5.63-1.55-4.12c-.2-.52-.41-1.16-.62-1.92a16.49,16.49,0,0,1-.57,1.92l-1.57,4.12Z"/>
    </g>
  </g>
  <g class="cls-16">
    <text class="cls-17" transform="translate(94.95 1674.37)" style="white-space: pre;">MITO GAMES</text>
  </g>
  <g class="cls-16">
    <text class="cls-20" transform="translate(215.79 1016.27)" style="white-space: pre;">PETROBRAS</text>
  </g>
  <g class="cls-16">
    <text class="cls-18" transform="translate(656.12 1411.7)" style="white-space: pre;">UFOB</text>
  </g>
  <text class="cls-21" transform="matrix(1, 0, 0, 1, 324.76001, 1746.459961)" style="white-space: pre;">ARMAZENAMENTO</text>
  <text class="cls-21" transform="matrix(1, 0, 0, 1, 52.880001, 858.070007)" style="white-space: pre;">DIGITALIZAÇÃO DE <tspan x="0" y="25.33">SERVIÇOS PÚBLICOS</tspan></text>
  <text class="cls-21" transform="matrix(1, 0, 0, 1, 613.150024, 1697.300049)" style="white-space: pre;">DIGITALIZAÇÃO <tspan x="0" y="25.33">DE SERVIÇOS </tspan><tspan x="0" y="50.65">PÚBLICOS</tspan></text>
  <text class="cls-21" transform="matrix(1, 0, 0, 1, 70.660004, 1807.329956)" style="white-space: pre;">FORNECIMENTO DE<tspan x="0" y="25.33">INFORMAÇÕES</tspan></text>
  <path d="M504.79,1581.49v6.26H503v-15.06h4.14a6.48,6.48,0,0,1,4.09,1.06,3.86,3.86,0,0,1,1.33,3.19,4,4,0,0,1-3,4l4.09,6.77h-2.07l-3.65-6.26Zm0-1.51h2.41a4.17,4.17,0,0,0,2.72-.73,2.76,2.76,0,0,0,.86-2.21,2.52,2.52,0,0,0-.88-2.16,4.78,4.78,0,0,0-2.83-.66h-2.28Z"/>
  <path d="M525.56,1587.75l-1.88-4.79h-6l-1.86,4.79H514l6-15.12h1.48l5.92,15.12Zm-2.42-6.36-1.75-4.67c-.23-.59-.46-1.32-.7-2.18a22.11,22.11,0,0,1-.65,2.18l-1.78,4.67Z"/>
  <path d="M538,1583.75a3.68,3.68,0,0,1-1.45,3.1,6.24,6.24,0,0,1-3.91,1.11,9.79,9.79,0,0,1-4.12-.69v-1.69a10.93,10.93,0,0,0,4.18.84,4.39,4.39,0,0,0,2.64-.66,2.17,2.17,0,0,0,.88-1.85,2.36,2.36,0,0,0-.31-1.28,3,3,0,0,0-1.05-.93,14.33,14.33,0,0,0-2.24-1,7.24,7.24,0,0,1-3-1.79,3.92,3.92,0,0,1-.9-2.69,3.35,3.35,0,0,1,1.31-2.77,5.42,5.42,0,0,1,3.46-1,10.24,10.24,0,0,1,4.14.83l-.55,1.52a9.35,9.35,0,0,0-3.63-.78,3.48,3.48,0,0,0-2.17.6,2,2,0,0,0-.79,1.65,2.59,2.59,0,0,0,.29,1.29,2.64,2.64,0,0,0,1,.91,11.82,11.82,0,0,0,2.09.93,8.43,8.43,0,0,1,3.27,1.81A3.59,3.59,0,0,1,538,1583.75Z"/>
  <path d="M545.67,1587.75h-1.76v-13.51h-4.77v-1.55h11.3v1.55h-4.77Z"/>
  <path d="M554.46,1581.49v6.26H552.7v-15.06h4.14a6.48,6.48,0,0,1,4.09,1.06,3.83,3.83,0,0,1,1.33,3.19,4,4,0,0,1-3,4l4.09,6.77h-2.07l-3.65-6.26Zm0-1.51h2.4a4.17,4.17,0,0,0,2.72-.73,2.73,2.73,0,0,0,.86-2.21,2.52,2.52,0,0,0-.88-2.16,4.76,4.76,0,0,0-2.83-.66h-2.27Z"/>
  <path d="M574.15,1587.75h-8.4v-15.06h8.4v1.55H567.5v4.86h6.25v1.54H567.5v5.55h6.65Z"/>
  <path d="M587,1587.75l-1.88-4.79h-6l-1.85,4.79h-1.77l6-15.12h1.48l5.92,15.12Zm-2.42-6.36-1.75-4.67c-.23-.59-.46-1.32-.71-2.18a19.49,19.49,0,0,1-.64,2.18l-1.78,4.67Z"/>
  <path d="M597.51,1587.75l-5.11-13.35h-.08c.09,1.06.14,2.31.14,3.77v9.58h-1.62v-15.06h2.64l4.77,12.43h.09l4.81-12.43h2.62v15.06H604v-9.7q0-1.68.15-3.63h-.08l-5.16,13.33Z"/>
  <path d="M618.3,1587.75h-8.4v-15.06h8.4v1.55h-6.65v4.86h6.25v1.54h-6.25v5.55h6.65Z"/>
  <path d="M633.41,1587.75h-2l-8.24-12.64h-.08c.11,1.48.17,2.84.17,4.08v8.56h-1.62v-15.06h2l8.21,12.59h.08c0-.18,0-.78-.09-1.79s-.07-1.72-.05-2.16v-8.64h1.64Z"/>
  <path d="M642.19,1587.75h-1.76v-13.51h-4.77v-1.55H647v1.55h-4.77Z"/>
  <path d="M662.3,1580.2a8.3,8.3,0,0,1-1.83,5.69,6.42,6.42,0,0,1-5.08,2.07,6.54,6.54,0,0,1-5.14-2,8.37,8.37,0,0,1-1.81-5.75,8.25,8.25,0,0,1,1.82-5.7,6.54,6.54,0,0,1,5.15-2,6.44,6.44,0,0,1,5.07,2.06A8.33,8.33,0,0,1,662.3,1580.2Zm-12,0a7.13,7.13,0,0,0,1.3,4.64,5.34,5.34,0,0,0,7.57,0,9,9,0,0,0,0-9.26,4.57,4.57,0,0,0-3.77-1.57,4.64,4.64,0,0,0-3.81,1.58A7.07,7.07,0,0,0,650.3,1580.2Z"/>
  <path d="M515.07,1605.4a7.63,7.63,0,0,1-2,5.71,8,8,0,0,1-5.82,2H503V1598h4.62a6.77,6.77,0,0,1,7.41,7.39Zm-1.86.07a6.11,6.11,0,0,0-1.47-4.45,6,6,0,0,0-4.4-1.49h-2.55v12h2.14a6.51,6.51,0,0,0,4.71-1.54A6.11,6.11,0,0,0,513.21,1605.47Z"/>
  <path d="M526.83,1613.08h-8.4V1598h8.4v1.56h-6.65v4.85h6.25V1606h-6.25v5.54h6.65Z"/>
  <path d="M542.1,1599.36a4.93,4.93,0,0,0-3.92,1.66,6.66,6.66,0,0,0-1.44,4.53,6.78,6.78,0,0,0,1.39,4.57,4.93,4.93,0,0,0,4,1.61,13.47,13.47,0,0,0,3.6-.57v1.54a11.17,11.17,0,0,1-3.87.59,6.57,6.57,0,0,1-5.14-2,8.35,8.35,0,0,1-1.8-5.74,9,9,0,0,1,.87-4.08,6.25,6.25,0,0,1,2.51-2.7,7.55,7.55,0,0,1,3.87-1,9.42,9.42,0,0,1,4.14.86l-.74,1.51A7.93,7.93,0,0,0,542.1,1599.36Z"/>
  <path d="M562,1605.53a8.31,8.31,0,0,1-1.83,5.69,6.42,6.42,0,0,1-5.08,2.07,6.5,6.5,0,0,1-5.14-2,10,10,0,0,1,0-11.45,6.57,6.57,0,0,1,5.16-2,6.41,6.41,0,0,1,5.07,2.06A8.31,8.31,0,0,1,562,1605.53Zm-12,0a7.13,7.13,0,0,0,1.31,4.64,4.64,4.64,0,0,0,3.79,1.58,4.55,4.55,0,0,0,3.78-1.58,7.25,7.25,0,0,0,1.28-4.64,7.16,7.16,0,0,0-1.28-4.61,4.55,4.55,0,0,0-3.76-1.58,4.64,4.64,0,0,0-3.81,1.59A7,7,0,0,0,550,1605.53Z"/>
  <path d="M577.17,1613.08h-2l-8.23-12.64h-.09c.11,1.48.17,2.84.17,4.08v8.56H565.4V1598h2l8.21,12.6h.09c0-.19,0-.78-.1-1.79s-.06-1.73-.05-2.16V1598h1.64Z"/>
  <path d="M586,1613.08H584.2v-13.51h-4.77V1598h11.29v1.56H586Z"/>
  <path d="M602.46,1613.08l-1.88-4.79h-6l-1.85,4.79h-1.77l6-15.13h1.48l5.92,15.13Zm-2.42-6.37-1.76-4.67c-.22-.59-.45-1.31-.7-2.17a19.37,19.37,0,0,1-.64,2.17l-1.78,4.67Z"/>
  <path d="M611,1613.08h-1.75v-13.51h-4.77V1598h11.29v1.56H611Z"/>
  <path d="M631.1,1605.53a8.31,8.31,0,0,1-1.83,5.69,7.38,7.38,0,0,1-10.22,0,10,10,0,0,1,0-11.45,6.56,6.56,0,0,1,5.15-2,6.38,6.38,0,0,1,5.07,2.06A8.26,8.26,0,0,1,631.1,1605.53Zm-12,0a7.13,7.13,0,0,0,1.31,4.64,4.62,4.62,0,0,0,3.78,1.58,4.55,4.55,0,0,0,3.78-1.58,9,9,0,0,0,0-9.25,4.56,4.56,0,0,0-3.77-1.58,4.61,4.61,0,0,0-3.8,1.59A7,7,0,0,0,619.09,1605.53Z"/>
  <path d="M643,1609.07a3.69,3.69,0,0,1-1.44,3.1,6.23,6.23,0,0,1-3.92,1.12,9.79,9.79,0,0,1-4.12-.69v-1.69a10.84,10.84,0,0,0,2,.61,10,10,0,0,0,2.16.23,4.39,4.39,0,0,0,2.64-.66,2.2,2.2,0,0,0,.89-1.85,2.42,2.42,0,0,0-.32-1.29,2.94,2.94,0,0,0-1-.92,15.2,15.2,0,0,0-2.24-1,7.09,7.09,0,0,1-3-1.78,3.9,3.9,0,0,1-.91-2.69,3.35,3.35,0,0,1,1.31-2.77,5.45,5.45,0,0,1,3.47-1,10.22,10.22,0,0,1,4.13.82l-.55,1.53a9.37,9.37,0,0,0-3.63-.79,3.5,3.5,0,0,0-2.17.6,2,2,0,0,0-.78,1.66,2.45,2.45,0,0,0,.29,1.28,2.62,2.62,0,0,0,1,.92,11.69,11.69,0,0,0,2.1.92,8.37,8.37,0,0,1,3.26,1.82A3.57,3.57,0,0,1,643,1609.07Z"/>
  <line class="cls-6" x1="58.56" y1="1785.77" x2="101.09" y2="1716.52"/>
  <line class="cls-4" x1="309.29" y1="1638.01" x2="309.29" y2="1718.19"/>
  <line class="cls-2" x1="473.89" y1="1544.79" x2="473.89" y2="1624.97"/>
  <line class="cls-8" x1="681.85" y1="1483.63" x2="681.85" y2="1668.66"/>
  <text class="cls-22" transform="matrix(1, 0, 0, 1, 55.119999, 912.76001)" style="white-space: pre;">1</text>
  <text class="cls-21" transform="matrix(1, 0, 0, 1, 372.359985, 907.650024)" style="white-space: pre;">TEMPERATURA</text>
  <text class="cls-22" transform="matrix(1, 0, 0, 1, 377.470001, 932.390015)" style="white-space: pre;">1</text>
  <rect class="cls-14" x="350.5" y="882.1" width="16.22" height="60.07"/>
  <text class="cls-21" transform="matrix(1, 0, 0, 1, 49.810001, 1495.969971)" style="white-space: pre;">FLUXO DE <tspan x="0" y="25.33">PESSOAS</tspan></text>
  <text class="cls-23" transform="matrix(1, 0, 0, 1, 51.32, 1547.140015)" style="white-space: pre;">2</text>
  <rect class="cls-10" x="24.35" y="1475.11" width="16.22" height="81.81"/>
  <rect class="cls-12" x="26.01" y="840.48" width="16.22" height="76.96"/>
  <text class="cls-22" transform="matrix(1, 0, 0, 1, 615.400024, 1777.150024)" style="white-space: pre;">1</text>
  <text class="cls-22" transform="matrix(1, 0, 0, 1, 503.220001, 1647.609985)" style="white-space: pre;">2</text>
  <text class="cls-22" transform="matrix(1, 0, 0, 1, 332.410004, 1777.150024)" style="white-space: pre;">1</text>
  <text class="cls-22" transform="matrix(1, 0, 0, 1, 68.309998, 1863.72998)" style="white-space: pre;">1</text>
  <rect class="cls-15" x="586.29" y="1679.71" width="16.22" height="103.85"/>
  <rect class="cls-9" x="465.78" y="1572.38" width="16.22" height="76.96"/>
  <rect class="cls-11" x="300.89" y="1718.19" width="16.22" height="76.96"/>
  <rect class="cls-13" x="42.35" y="1785.77" width="16.22" height="76.96"/>
  <g id="Identificação_de_pessoas" data-name="Identificação de pessoas">
    <path id="p_911.289146648868" data-name="p 911.289146648868" class="cls-24" d="M509,1296.34A168.64,168.64,0,1,1,677.63,1127.7,168.64,168.64,0,0,1,509,1296.34Z"/>
  </g>
  <g id="INSS">
    <path id="p_830.4323681117216" data-name="p 830.4323681117216" class="cls-25" d="M425.68,1209a81.3,81.3,0,1,1,81.3-81.3A81.29,81.29,0,0,1,425.68,1209Z"/>
  </g>
  <g id="Serpro">
    <path id="p_909.3813496482926" data-name="p 909.3813496482926" class="cls-25" d="M592.31,1209a81.3,81.3,0,1,1,81.3-81.3A81.29,81.29,0,0,1,592.31,1209Z"/>
  </g>
  <g class="cls-16">
    <text class="cls-17" transform="translate(405.06 1134.23)" style="white-space: pre;">INSS</text>
  </g>
  <g class="cls-16">
    <text class="cls-17" transform="translate(556.27 1134.23)" style="white-space: pre;">SERPRO</text>
  </g>
  <line class="cls-24" x1="591.17" y1="898.14" x2="532.86" y2="961.07"/>
  <text class="cls-22" transform="matrix(1, 0, 0, 1, 616.400024, 938.340027)" style="white-space: pre;">2</text>
  <rect class="cls-25" x="587.29" y="866.06" width="16.22" height="76.96"/>
  <text class="cls-21" transform="matrix(1, 0, 0, 1, 614.23999, 883.880005)" style="white-space: pre;">IDENTIFICAÇÃO<tspan x="0" y="25.33">DE PESSOAS</tspan></text>
  <line class="cls-3" x1="40.57" y1="1475.11" x2="53.49" y2="1387.05"/>
  <line class="cls-5" x1="30.91" y1="916.8" x2="56.74" y2="975.75"/>
  <line class="cls-7" x1="316.52" y1="943.14" x2="357.54" y2="902.12"/>
  <g id="Telemedicina">
    <path id="p_749.5755895745752" data-name="p 749.5755895745752" class="cls-26" d="M382.38,841.82C189,841.86,32.22,685.14,32.18,491.77s156.67-350.17,350-350.21h.16c193.37,0,350.17,156.68,350.21,350.05s-156.68,350.16-350,350.21Z"/>
  </g>
  <g id="A2_Tecnologia" data-name="A2 Tecnologia">
    <path id="p_511.94284407689906" data-name="p 511.94284407689906" class="cls-27" d="M304.67,519.81a81.3,81.3,0,1,1,81.3-81.3A81.3,81.3,0,0,1,304.67,519.81Z"/>
  </g>
  <g id="Instituto_Laura_Fressatto" data-name="Instituto Laura Fressatto">
    <path id="p_590.89182561347" data-name="p 590.89182561347" class="cls-27" d="M471.29,519.81a81.3,81.3,0,1,1,81.3-81.3A81.3,81.3,0,0,1,471.29,519.81Z"/>
  </g>
  <g id="Ayga_Tecnologia" data-name="Ayga Tecnologia">
    <path id="p_619.7891584587635" data-name="p 619.7891584587635" class="cls-27" d="M388,664.12a81.3,81.3,0,1,1,81.3-81.3A81.3,81.3,0,0,1,388,664.12Z"/>
  </g>
  <g id="Chama_Inbox_Brasil" data-name="Chama Inbox Brasil">
    <path id="p_483.04551123160553" data-name="p 483.04551123160553" class="cls-27" d="M388,375.51a81.3,81.3,0,1,1,81.3-81.3A81.3,81.3,0,0,1,388,375.51Z"/>
  </g>
  <g id="Hospital_das_Clínicas_USP" data-name="Hospital das Clínicas USP">
    <path id="p_404.0965296950347" data-name="p 404.0965296950347" class="cls-27" d="M221.35,375.51a81.3,81.3,0,1,1,81.3-81.3A81.29,81.29,0,0,1,221.35,375.51Z"/>
  </g>
  <g id="Instituto_Butantan_Fundação_Oswaldo_Cruz_Intel" data-name="Instituto Butantan; Fundação Oswaldo Cruz; Intel">
    <path id="p_561.9944927681765" data-name="p 561.9944927681765" class="cls-27" d="M554.61,375.51a81.3,81.3,0,1,1,81.3-81.3A81.3,81.3,0,0,1,554.61,375.51Z"/>
  </g>
  <g id="Radtec">
    <path id="p_698.7381399953344" data-name="p 698.7381399953344" class="cls-27" d="M554.61,664.12a81.3,81.3,0,1,1,81.3-81.3A81.3,81.3,0,0,1,554.61,664.12Z"/>
  </g>
  <g id="Requisito_Tecnologia" data-name="Requisito Tecnologia">
    <path id="p_540.8401769221927" data-name="p 540.8401769221927" class="cls-27" d="M221.35,664.12a81.3,81.3,0,1,1,81.3-81.3A81.29,81.29,0,0,1,221.35,664.12Z"/>
  </g>
  <g id="Simex_Sistemas_de_Inspeção_Móveis" data-name="Simex Sistemas de Inspeção Móveis">
    <path id="p_432.9938625403282" data-name="p 432.9938625403282" class="cls-27" d="M138,519.81a81.3,81.3,0,1,1,81.3-81.3A81.3,81.3,0,0,1,138,519.81Z"/>
  </g>
  <g id="Talktelecom">
    <path id="p_669.8408071500409" data-name="p 669.8408071500409" class="cls-27" d="M637.92,519.81a81.3,81.3,0,1,1,81.3-81.3A81.3,81.3,0,0,1,637.92,519.81Z"/>
  </g>
  <g id="True_Work" data-name="True Work">
    <path id="p_777.6871215319052" data-name="p 777.6871215319052" class="cls-27" d="M382.48,832.49a81.3,81.3,0,1,1,81.3-81.29A81.29,81.29,0,0,1,382.48,832.49Z"/>
  </g>
  <g class="cls-16">
    <g class="cls-16">
      <path class="cls-28" d="M300.57,428.47,299,424.36h-5.21l-1.59,4.11h-1.53l5.13-13H297l5.1,13ZM298.49,423,297,419c-.2-.51-.4-1.13-.61-1.87a15.2,15.2,0,0,1-.56,1.87l-1.52,4Z"/>
      <path class="cls-28" d="M312.28,428.47h-8.53V427.2l3.42-3.42a28.63,28.63,0,0,0,2.06-2.24,5.67,5.67,0,0,0,.74-1.31,3.66,3.66,0,0,0,.25-1.37,2.16,2.16,0,0,0-.63-1.64,2.39,2.39,0,0,0-1.75-.61,4.32,4.32,0,0,0-1.53.27,6.06,6.06,0,0,0-1.61,1l-.78-1a6,6,0,0,1,3.9-1.48,4.15,4.15,0,0,1,2.87.93,3.21,3.21,0,0,1,1,2.51,4.83,4.83,0,0,1-.69,2.43,15.76,15.76,0,0,1-2.59,3L305.6,427v.07h6.68Z"/>
      <path class="cls-28" d="M250.72,450.19h-1.51V438.6H245.1v-1.33h9.73v1.33h-4.11Z"/>
      <path class="cls-28" d="M264.75,450.19h-7.24V437.27h7.24v1.33H259v4.16h5.38v1.33H259v4.75h5.73Z"/>
      <path class="cls-28" d="M273.91,438.42a4.26,4.26,0,0,0-3.38,1.42,5.7,5.7,0,0,0-1.24,3.89,5.87,5.87,0,0,0,1.19,3.92,4.28,4.28,0,0,0,3.41,1.38,11.5,11.5,0,0,0,3.1-.49v1.32a9.5,9.5,0,0,1-3.33.5,5.64,5.64,0,0,1-4.43-1.73,7.08,7.08,0,0,1-1.55-4.92,7.74,7.74,0,0,1,.75-3.5,5.39,5.39,0,0,1,2.16-2.32,6.62,6.62,0,0,1,3.33-.81,8.1,8.1,0,0,1,3.57.74l-.64,1.29A6.87,6.87,0,0,0,273.91,438.42Z"/>
      <path class="cls-28" d="M290.68,450.19H289l-7.09-10.85h-.07c.09,1.28.14,2.44.14,3.5v7.35h-1.39V437.27h1.7l7.08,10.8h.07c0-.16,0-.67-.08-1.54s-.06-1.48-.05-1.85v-7.41h1.41Z"/>
      <path class="cls-28" d="M306.24,443.71a7.1,7.1,0,0,1-1.57,4.88,5.56,5.56,0,0,1-4.38,1.77,5.65,5.65,0,0,1-4.43-1.74,7.16,7.16,0,0,1-1.56-4.93,7.08,7.08,0,0,1,1.57-4.89,5.65,5.65,0,0,1,4.44-1.74,5.52,5.52,0,0,1,4.36,1.77A7.07,7.07,0,0,1,306.24,443.71Zm-10.34,0a6.09,6.09,0,0,0,1.13,4,4,4,0,0,0,3.26,1.36,3.94,3.94,0,0,0,3.26-1.36,7.71,7.71,0,0,0,0-7.94,3.92,3.92,0,0,0-3.24-1.34,4,4,0,0,0-3.28,1.35A6.06,6.06,0,0,0,295.9,443.71Z"/>
      <path class="cls-28" d="M309.87,450.19V437.27h1.5v11.56h5.73v1.36Z"/>
      <path class="cls-28" d="M331.29,443.71a7.1,7.1,0,0,1-1.57,4.88,5.56,5.56,0,0,1-4.38,1.77,5.65,5.65,0,0,1-4.43-1.74,7.16,7.16,0,0,1-1.56-4.93,7,7,0,0,1,1.57-4.89,5.65,5.65,0,0,1,4.43-1.74,5.54,5.54,0,0,1,4.37,1.77A7.07,7.07,0,0,1,331.29,443.71Zm-10.34,0a6.09,6.09,0,0,0,1.13,4,4,4,0,0,0,3.26,1.36,3.94,3.94,0,0,0,3.26-1.36,7.71,7.71,0,0,0,0-7.94,3.93,3.93,0,0,0-3.25-1.34,4,4,0,0,0-3.27,1.35A6.06,6.06,0,0,0,321,443.71Z"/>
      <path class="cls-28" d="M340.62,443.42H345v6.28a14.79,14.79,0,0,1-2.09.5,16.33,16.33,0,0,1-2.47.16,6,6,0,0,1-4.59-1.74,6.9,6.9,0,0,1-1.64-4.89,7.36,7.36,0,0,1,.81-3.53,5.41,5.41,0,0,1,2.34-2.32,7.65,7.65,0,0,1,3.58-.8,9.79,9.79,0,0,1,3.87.76l-.59,1.33a8.6,8.6,0,0,0-3.38-.75,4.85,4.85,0,0,0-3.7,1.41,5.43,5.43,0,0,0-1.33,3.9,5.52,5.52,0,0,0,1.28,4,4.93,4.93,0,0,0,3.77,1.36,11.62,11.62,0,0,0,2.64-.31v-4h-2.91Z"/>
      <path class="cls-28" d="M348.88,450.19V437.27h1.51v12.92Z"/>
      <path class="cls-28" d="M362.83,450.19l-1.61-4.11H356l-1.59,4.11h-1.53l5.13-13h1.27l5.1,13Zm-2.09-5.47-1.5-4c-.2-.51-.4-1.13-.61-1.86a15.62,15.62,0,0,1-.56,1.86l-1.52,4Z"/>
    </g>
  </g>
  <g class="cls-16">
    <g class="cls-16">
      <path class="cls-28" d="M423.76,417.62V404.7h1.51v12.92Z"/>
      <path class="cls-28" d="M439.7,417.62H438l-7.1-10.85h-.07c.1,1.27.14,2.44.14,3.5v7.35h-1.39V404.7h1.7l7.08,10.8h.07c0-.16,0-.67-.08-1.54s-.06-1.48,0-1.85V404.7h1.41Z"/>
      <path class="cls-28" d="M451.32,414.18a3.17,3.17,0,0,1-1.25,2.66,5.38,5.38,0,0,1-3.37,1,8.4,8.4,0,0,1-3.55-.59v-1.45a8.85,8.85,0,0,0,1.74.53,9.2,9.2,0,0,0,1.86.2,3.79,3.79,0,0,0,2.28-.57,1.89,1.89,0,0,0,.76-1.59,2,2,0,0,0-.27-1.1,2.42,2.42,0,0,0-.91-.79,11.87,11.87,0,0,0-1.93-.82,6.12,6.12,0,0,1-2.58-1.53,3.37,3.37,0,0,1-.78-2.31,2.86,2.86,0,0,1,1.13-2.38,4.68,4.68,0,0,1,3-.88,8.67,8.67,0,0,1,3.56.71l-.47,1.3a8.21,8.21,0,0,0-3.13-.67,3,3,0,0,0-1.87.52,1.67,1.67,0,0,0-.67,1.42,2.24,2.24,0,0,0,.24,1.1,2.48,2.48,0,0,0,.84.79,11.67,11.67,0,0,0,1.81.79,7.17,7.17,0,0,1,2.81,1.55A3.07,3.07,0,0,1,451.32,414.18Z"/>
      <path class="cls-28" d="M458.69,417.62h-1.51V406h-4.11V404.7h9.73V406h-4.11Z"/>
      <path class="cls-28" d="M465.48,417.62V404.7H467v12.92Z"/>
      <path class="cls-28" d="M475.27,417.62h-1.51V406h-4.11V404.7h9.73V406h-4.11Z"/>
      <path class="cls-28" d="M491.86,404.7v8.36a4.51,4.51,0,0,1-1.34,3.47,5.15,5.15,0,0,1-3.68,1.26,4.94,4.94,0,0,1-3.63-1.27,4.72,4.72,0,0,1-1.28-3.5V404.7h1.51v8.43a3.31,3.31,0,0,0,.89,2.48,3.58,3.58,0,0,0,2.61.87,3.49,3.49,0,0,0,2.53-.87,3.36,3.36,0,0,0,.88-2.5V404.7Z"/>
      <path class="cls-28" d="M500,417.62h-1.51V406H494.4V404.7h9.73V406H500Z"/>
      <path class="cls-28" d="M518.08,411.14A7.11,7.11,0,0,1,516.5,416a5.56,5.56,0,0,1-4.38,1.77,5.65,5.65,0,0,1-4.43-1.74,7.21,7.21,0,0,1-1.55-4.93,7.07,7.07,0,0,1,1.56-4.89,5.65,5.65,0,0,1,4.44-1.74,5.52,5.52,0,0,1,4.36,1.77A7.07,7.07,0,0,1,518.08,411.14Zm-10.35,0a6.09,6.09,0,0,0,1.13,4,4,4,0,0,0,3.26,1.36,3.94,3.94,0,0,0,3.26-1.36,7.71,7.71,0,0,0,0-7.94,3.92,3.92,0,0,0-3.24-1.34,4,4,0,0,0-3.28,1.35A6.06,6.06,0,0,0,507.73,411.14Z"/>
      <path class="cls-28" d="M442.45,439.34V426.42H444V438h5.73v1.36Z"/>
      <path class="cls-28" d="M460.77,439.34l-1.61-4.11H454l-1.6,4.11h-1.53l5.13-13h1.27l5.11,13Zm-2.08-5.46-1.51-4a17.92,17.92,0,0,1-.6-1.86,17.05,17.05,0,0,1-.56,1.86l-1.53,4Z"/>
      <path class="cls-28" d="M474.65,426.42v8.36a4.55,4.55,0,0,1-1.34,3.47,5.18,5.18,0,0,1-3.69,1.27,4.9,4.9,0,0,1-3.62-1.28,4.69,4.69,0,0,1-1.29-3.5v-8.32h1.51v8.43a3.31,3.31,0,0,0,.89,2.48,3.58,3.58,0,0,0,2.61.87,3.45,3.45,0,0,0,2.53-.87,3.35,3.35,0,0,0,.89-2.5v-8.41Z"/>
      <path class="cls-28" d="M480.32,434v5.38h-1.51V426.42h3.56a5.61,5.61,0,0,1,3.53.91,3.29,3.29,0,0,1,1.14,2.74,3.43,3.43,0,0,1-2.61,3.46l3.52,5.81h-1.78L483,434Zm0-1.29h2.07a3.6,3.6,0,0,0,2.34-.63,2.33,2.33,0,0,0,.75-1.89,2.17,2.17,0,0,0-.76-1.85,4.12,4.12,0,0,0-2.44-.57h-2Z"/>
      <path class="cls-28" d="M498.93,439.34l-1.61-4.11h-5.2l-1.6,4.11H489l5.13-13h1.27l5.11,13Zm-2.08-5.46-1.51-4c-.2-.5-.4-1.13-.61-1.86a16.85,16.85,0,0,1-.55,1.86l-1.53,4Z"/>
      <path class="cls-28" d="M425.46,461.06H424V448.14h7.24v1.33h-5.73v4.73h5.38v1.34h-5.38Z"/>
      <path class="cls-28" d="M435.57,455.69v5.37h-1.51V448.14h3.56a5.61,5.61,0,0,1,3.53.91,3.3,3.3,0,0,1,1.14,2.74,3.43,3.43,0,0,1-2.61,3.46l3.52,5.81h-1.78l-3.14-5.37Zm0-1.29h2.07a3.54,3.54,0,0,0,2.34-.64,2.33,2.33,0,0,0,.75-1.89A2.17,2.17,0,0,0,440,450a4.13,4.13,0,0,0-2.44-.56h-2Z"/>
      <path class="cls-28" d="M453.26,461.06H446V448.14h7.23v1.33h-5.73v4.17h5.38V455h-5.38v4.76h5.73Z"/>
      <path class="cls-28" d="M464.19,457.62a3.15,3.15,0,0,1-1.25,2.66,5.36,5.36,0,0,1-3.37,1,8.38,8.38,0,0,1-3.55-.6V459.2a9.58,9.58,0,0,0,1.74.53,9.18,9.18,0,0,0,1.86.19,3.79,3.79,0,0,0,2.28-.57,1.87,1.87,0,0,0,.76-1.59,2.06,2.06,0,0,0-.27-1.1,2.51,2.51,0,0,0-.91-.79,12.84,12.84,0,0,0-1.93-.82,6.12,6.12,0,0,1-2.58-1.53,3.37,3.37,0,0,1-.78-2.31,2.87,2.87,0,0,1,1.13-2.37,4.68,4.68,0,0,1,3-.89,8.84,8.84,0,0,1,3.56.71l-.47,1.31a8,8,0,0,0-3.13-.67,3.05,3.05,0,0,0-1.87.51,1.67,1.67,0,0,0-.67,1.42,2.21,2.21,0,0,0,.24,1.1,2.39,2.39,0,0,0,.84.79,10.78,10.78,0,0,0,1.81.79,7,7,0,0,1,2.81,1.56A3,3,0,0,1,464.19,457.62Z"/>
      <path class="cls-28" d="M474.89,457.62a3.15,3.15,0,0,1-1.24,2.66,5.38,5.38,0,0,1-3.37,1,8.35,8.35,0,0,1-3.55-.6V459.2a9.58,9.58,0,0,0,1.74.53,9,9,0,0,0,1.86.19,3.76,3.76,0,0,0,2.27-.57,1.87,1.87,0,0,0,.77-1.59,2,2,0,0,0-.28-1.1,2.55,2.55,0,0,0-.9-.79,13.31,13.31,0,0,0-1.93-.82,6.17,6.17,0,0,1-2.59-1.53,3.37,3.37,0,0,1-.78-2.31,2.87,2.87,0,0,1,1.13-2.37,4.7,4.7,0,0,1,3-.89,8.84,8.84,0,0,1,3.56.71l-.47,1.31a8,8,0,0,0-3.12-.67,3,3,0,0,0-1.87.51,1.68,1.68,0,0,0-.68,1.42,2.11,2.11,0,0,0,.25,1.1,2.3,2.3,0,0,0,.84.79,10.25,10.25,0,0,0,1.8.79,7,7,0,0,1,2.81,1.56A3,3,0,0,1,474.89,457.62Z"/>
      <path class="cls-28" d="M486.43,461.06,484.82,457h-5.21L478,461.06h-1.53l5.13-13h1.27l5.1,13Zm-2.08-5.46-1.51-4a19.42,19.42,0,0,1-.61-1.86,15.09,15.09,0,0,1-.56,1.86l-1.52,4Z"/>
      <path class="cls-28" d="M494.5,461.06H493V449.47h-4.11v-1.33h9.73v1.33H494.5Z"/>
      <path class="cls-28" d="M505.28,461.06h-1.5V449.47h-4.11v-1.33h9.72v1.33h-4.11Z"/>
      <path class="cls-28" d="M523.34,454.58a7.09,7.09,0,0,1-1.58,4.88,6.37,6.37,0,0,1-8.8,0,8.51,8.51,0,0,1,0-9.82,5.65,5.65,0,0,1,4.44-1.74,5.55,5.55,0,0,1,4.37,1.77A7.09,7.09,0,0,1,523.34,454.58Zm-10.34,0a6.09,6.09,0,0,0,1.12,4,4.6,4.6,0,0,0,6.52,0,6.22,6.22,0,0,0,1.1-4,6.14,6.14,0,0,0-1.09-3.95,4.61,4.61,0,0,0-6.53,0A6,6,0,0,0,513,454.58Z"/>
    </g>
  </g>
  <g class="cls-16">
    <g class="cls-16">
      <path class="cls-28" d="M368.88,575.3l-1.61-4.11h-5.2l-1.6,4.11h-1.53l5.13-13h1.27l5.11,13Zm-2.08-5.47-1.51-4c-.2-.51-.4-1.13-.61-1.86a17.51,17.51,0,0,1-.55,1.86l-1.53,4Z"/>
      <path class="cls-28" d="M376.26,568.84l3.46-6.47h1.63L377,570.28v5H375.5v-4.94l-4.33-8h1.65Z"/>
      <path class="cls-28" d="M389.57,568.53H394v6.28a13.9,13.9,0,0,1-2.1.49,15,15,0,0,1-2.47.17,6,6,0,0,1-4.59-1.74,6.9,6.9,0,0,1-1.64-4.89,7.4,7.4,0,0,1,.81-3.54,5.55,5.55,0,0,1,2.34-2.31,7.65,7.65,0,0,1,3.58-.8,9.72,9.72,0,0,1,3.87.76l-.59,1.32a8.72,8.72,0,0,0-3.38-.74,4.85,4.85,0,0,0-3.7,1.41,5.41,5.41,0,0,0-1.33,3.9,5.56,5.56,0,0,0,1.28,4,4.93,4.93,0,0,0,3.77,1.36,11.62,11.62,0,0,0,2.64-.31v-4h-2.91Z"/>
      <path class="cls-28" d="M406,575.3l-1.62-4.11h-5.2l-1.6,4.11H396l5.14-13h1.26l5.11,13Zm-2.09-5.47-1.51-4c-.19-.51-.4-1.13-.6-1.86a17.74,17.74,0,0,1-.56,1.86l-1.53,4Z"/>
      <path class="cls-28" d="M332,597h-1.51V585.43H326.4V584.1h9.73v1.33H332Z"/>
      <path class="cls-28" d="M346.05,597h-7.24V584.1h7.24v1.33h-5.73v4.16h5.38v1.33h-5.38v4.75h5.73Z"/>
      <path class="cls-28" d="M355.21,585.25a4.28,4.28,0,0,0-3.38,1.42,5.75,5.75,0,0,0-1.24,3.89,5.82,5.82,0,0,0,1.2,3.92,4.25,4.25,0,0,0,3.4,1.38,11.44,11.44,0,0,0,3.1-.49v1.32a9.5,9.5,0,0,1-3.33.5,5.64,5.64,0,0,1-4.43-1.73,7.13,7.13,0,0,1-1.55-4.92,7.74,7.74,0,0,1,.75-3.5,5.45,5.45,0,0,1,2.16-2.32,6.64,6.64,0,0,1,3.34-.81,8.08,8.08,0,0,1,3.56.74l-.63,1.29A6.94,6.94,0,0,0,355.21,585.25Z"/>
      <path class="cls-28" d="M372,597h-1.73l-7.09-10.85h-.07c.09,1.28.14,2.44.14,3.5V597h-1.39V584.1h1.7l7.08,10.8h.07c0-.16,0-.67-.08-1.54s-.06-1.48-.05-1.85V584.1H372Z"/>
      <path class="cls-28" d="M387.55,590.54a7.11,7.11,0,0,1-1.58,4.88,5.56,5.56,0,0,1-4.38,1.77,5.65,5.65,0,0,1-4.43-1.74,7.19,7.19,0,0,1-1.55-4.93,7.07,7.07,0,0,1,1.56-4.89,5.65,5.65,0,0,1,4.44-1.74,5.52,5.52,0,0,1,4.36,1.77A7.09,7.09,0,0,1,387.55,590.54Zm-10.35,0a6.09,6.09,0,0,0,1.13,4,4.6,4.6,0,0,0,6.52,0,6.24,6.24,0,0,0,1.1-4,6.17,6.17,0,0,0-1.1-4,4,4,0,0,0-3.24-1.34,4,4,0,0,0-3.28,1.35A6.06,6.06,0,0,0,377.2,590.54Z"/>
      <path class="cls-28" d="M391.17,597V584.1h1.51v11.56h5.72V597Z"/>
      <path class="cls-28" d="M412.6,590.54a7.11,7.11,0,0,1-1.58,4.88,5.56,5.56,0,0,1-4.38,1.77,5.65,5.65,0,0,1-4.43-1.74,7.19,7.19,0,0,1-1.55-4.93,7.07,7.07,0,0,1,1.56-4.89,5.65,5.65,0,0,1,4.44-1.74,5.52,5.52,0,0,1,4.36,1.77A7.09,7.09,0,0,1,412.6,590.54Zm-10.35,0a6.09,6.09,0,0,0,1.13,4,4.6,4.6,0,0,0,6.52,0,6.24,6.24,0,0,0,1.1-4,6.17,6.17,0,0,0-1.1-4,4,4,0,0,0-3.24-1.34,4,4,0,0,0-3.28,1.35A6.06,6.06,0,0,0,402.25,590.54Z"/>
      <path class="cls-28" d="M421.92,590.25h4.42v6.28a15.26,15.26,0,0,1-2.1.5,16.33,16.33,0,0,1-2.47.16,6,6,0,0,1-4.59-1.74,6.88,6.88,0,0,1-1.64-4.89,7.36,7.36,0,0,1,.81-3.53,5.57,5.57,0,0,1,2.34-2.32,7.65,7.65,0,0,1,3.58-.8,9.72,9.72,0,0,1,3.87.76l-.59,1.33a8.56,8.56,0,0,0-3.38-.75,4.85,4.85,0,0,0-3.7,1.41,5.44,5.44,0,0,0-1.33,3.9,5.61,5.61,0,0,0,1.28,4,5,5,0,0,0,3.77,1.35,11.62,11.62,0,0,0,2.64-.31v-4h-2.91Z"/>
      <path class="cls-28" d="M430.18,597V584.1h1.51V597Z"/>
      <path class="cls-28" d="M444.13,597l-1.61-4.11h-5.21L435.72,597h-1.53l5.13-13h1.27l5.1,13Zm-2.08-5.46-1.51-4c-.2-.5-.4-1.13-.61-1.86a15.62,15.62,0,0,1-.56,1.86l-1.52,4Z"/>
    </g>
  </g>
  <g class="cls-16">
    <g class="cls-16">
      <path class="cls-28" d="M359,279.55a4.25,4.25,0,0,0-3.38,1.42,5.72,5.72,0,0,0-1.24,3.88,5.8,5.8,0,0,0,1.2,3.92,4.25,4.25,0,0,0,3.4,1.38,11.79,11.79,0,0,0,3.1-.48V291a9.48,9.48,0,0,1-3.33.51,5.64,5.64,0,0,1-4.42-1.73,7.13,7.13,0,0,1-1.56-4.93,7.74,7.74,0,0,1,.75-3.5,5.36,5.36,0,0,1,2.16-2.31,6.54,6.54,0,0,1,3.34-.82,8,8,0,0,1,3.57.75l-.64,1.29A6.94,6.94,0,0,0,359,279.55Z"/>
      <path class="cls-28" d="M375.48,291.31H374v-6.08h-6.83v6.08h-1.51V278.39h1.51v5.5H374v-5.5h1.51Z"/>
      <path class="cls-28" d="M387.93,291.31l-1.62-4.11h-5.2l-1.6,4.11H378l5.13-13h1.27l5.1,13Zm-2.09-5.46-1.51-4q-.29-.75-.6-1.86a16.42,16.42,0,0,1-.56,1.86l-1.53,4Z"/>
      <path class="cls-28" d="M397.74,291.31l-4.4-11.45h-.07c.08.9.12,2,.12,3.23v8.22H392V278.39h2.27l4.11,10.66h.07l4.15-10.66h2.25v12.92h-1.5V283q0-1.44.12-3.12h-.07L399,291.31Z"/>
      <path class="cls-28" d="M417.3,291.31l-1.62-4.11h-5.2l-1.6,4.11h-1.52l5.13-13h1.27l5.1,13Zm-2.09-5.46-1.51-4q-.29-.75-.6-1.86a16.42,16.42,0,0,1-.56,1.86l-1.53,4Z"/>
      <path class="cls-28" d="M326.3,313V300.11h1.51V313Z"/>
      <path class="cls-28" d="M342.23,313h-1.72l-7.09-10.84h-.07c.09,1.27.14,2.44.14,3.5V313h-1.4V300.11h1.71l7.07,10.8h.07c0-.16,0-.67-.07-1.53s-.06-1.48-.05-1.85v-7.42h1.41Z"/>
      <path class="cls-28" d="M346.53,300.11h3.66a7,7,0,0,1,3.74.77,2.71,2.71,0,0,1,1.16,2.43,2.81,2.81,0,0,1-.65,1.9,3.09,3.09,0,0,1-1.88,1v.09q3,.51,3,3.1a3.3,3.3,0,0,1-1.18,2.7,5,5,0,0,1-3.28,1h-4.53Zm1.51,5.53h2.48a4,4,0,0,0,2.3-.5,1.91,1.91,0,0,0,.7-1.68,1.71,1.71,0,0,0-.78-1.57,4.9,4.9,0,0,0-2.48-.48H348Zm0,1.28v4.83h2.7a3.91,3.91,0,0,0,2.37-.6,2.24,2.24,0,0,0,.79-1.9,2,2,0,0,0-.81-1.77,4.4,4.4,0,0,0-2.47-.56Z"/>
      <path class="cls-28" d="M370.3,306.55a7.09,7.09,0,0,1-1.58,4.88,5.53,5.53,0,0,1-4.38,1.78,5.6,5.6,0,0,1-4.42-1.75,8.51,8.51,0,0,1,0-9.82,5.68,5.68,0,0,1,4.44-1.73,5.55,5.55,0,0,1,4.37,1.77A7,7,0,0,1,370.3,306.55Zm-10.34,0a6.14,6.14,0,0,0,1.12,4,4,4,0,0,0,3.26,1.35,4,4,0,0,0,3.26-1.35,6.22,6.22,0,0,0,1.1-4,6.16,6.16,0,0,0-1.09-3.95,4.61,4.61,0,0,0-6.53,0A6,6,0,0,0,360,306.55Z"/>
      <path class="cls-28" d="M382.56,313h-1.72l-3.48-5.68L373.81,313h-1.6l4.31-6.75-4-6.17h1.67l3.22,5.12,3.25-5.12h1.61l-4,6.12Z"/>
      <path class="cls-28" d="M390.59,300.11h3.67a6.94,6.94,0,0,1,3.73.77,2.71,2.71,0,0,1,1.16,2.43,2.81,2.81,0,0,1-.65,1.9,3.09,3.09,0,0,1-1.87,1v.09q3,.51,2.95,3.1a3.32,3.32,0,0,1-1.17,2.7,5,5,0,0,1-3.29,1h-4.53Zm1.51,5.53h2.48a4,4,0,0,0,2.3-.5,1.91,1.91,0,0,0,.7-1.68,1.71,1.71,0,0,0-.78-1.57,4.9,4.9,0,0,0-2.48-.48H392.1Zm0,1.28v4.83h2.71a3.89,3.89,0,0,0,2.36-.6,2.25,2.25,0,0,0,.8-1.9,2,2,0,0,0-.82-1.77,4.4,4.4,0,0,0-2.47-.56Z"/>
      <path class="cls-28" d="M404.61,307.66V313H403.1V300.11h3.56a5.57,5.57,0,0,1,3.52.91,3.28,3.28,0,0,1,1.15,2.74,3.45,3.45,0,0,1-2.61,3.47l3.52,5.8h-1.78l-3.15-5.37Zm0-1.29h2.06a3.61,3.61,0,0,0,2.35-.63,2.38,2.38,0,0,0,.74-1.9A2.16,2.16,0,0,0,409,302a4.14,4.14,0,0,0-2.43-.56h-2Z"/>
      <path class="cls-28" d="M423.22,313l-1.62-4.11h-5.2L414.8,313h-1.52l5.13-13h1.27l5.1,13Zm-2.09-5.46-1.51-4c-.19-.51-.39-1.13-.6-1.87a17.17,17.17,0,0,1-.56,1.87l-1.53,4Z"/>
      <path class="cls-28" d="M434.62,309.59a3.19,3.19,0,0,1-1.25,2.67,5.42,5.42,0,0,1-3.37.95,8.56,8.56,0,0,1-3.55-.59v-1.45a9.58,9.58,0,0,0,1.74.53,9.18,9.18,0,0,0,1.86.19,3.79,3.79,0,0,0,2.28-.57,1.86,1.86,0,0,0,.76-1.58,2,2,0,0,0-.27-1.1,2.52,2.52,0,0,0-.91-.8A12.84,12.84,0,0,0,430,307a6.12,6.12,0,0,1-2.58-1.53,3.34,3.34,0,0,1-.78-2.3,2.84,2.84,0,0,1,1.13-2.38,4.68,4.68,0,0,1,3-.88,8.84,8.84,0,0,1,3.56.7l-.47,1.31a8,8,0,0,0-3.13-.67,3,3,0,0,0-1.87.51,1.68,1.68,0,0,0-.67,1.42,2.21,2.21,0,0,0,.24,1.1,2.39,2.39,0,0,0,.84.79,10.78,10.78,0,0,0,1.81.79,7.16,7.16,0,0,1,2.81,1.56A3,3,0,0,1,434.62,309.59Z"/>
      <path class="cls-28" d="M438,313V300.11h1.51V313Z"/>
      <path class="cls-28" d="M443.79,313V300.11h1.51v11.56H451V313Z"/>
    </g>
  </g>
  <g class="cls-16">
    <g class="cls-16">
      <path class="cls-28" d="M186.15,283.24h-1.51v-6.08h-6.83v6.08H176.3V270.32h1.51v5.5h6.83v-5.5h1.51Z"/>
      <path class="cls-28" d="M201.71,276.76a7.09,7.09,0,0,1-1.58,4.88,5.53,5.53,0,0,1-4.38,1.78,5.62,5.62,0,0,1-4.43-1.75,7.18,7.18,0,0,1-1.55-4.93,7.07,7.07,0,0,1,1.56-4.89,5.68,5.68,0,0,1,4.44-1.73,5.54,5.54,0,0,1,4.36,1.76A7.09,7.09,0,0,1,201.71,276.76Zm-10.35,0a6.09,6.09,0,0,0,1.13,4,4.6,4.6,0,0,0,6.52,0,6.22,6.22,0,0,0,1.1-4,6.14,6.14,0,0,0-1.1-3.95,3.93,3.93,0,0,0-3.24-1.35,4,4,0,0,0-3.28,1.36A6,6,0,0,0,191.36,276.76Z"/>
      <path class="cls-28" d="M212.65,279.8a3.15,3.15,0,0,1-1.24,2.66,5.41,5.41,0,0,1-3.38,1,8.59,8.59,0,0,1-3.55-.59v-1.45a10.1,10.1,0,0,0,1.74.53,9.2,9.2,0,0,0,1.87.19,3.78,3.78,0,0,0,2.27-.57,1.87,1.87,0,0,0,.76-1.59,2.06,2.06,0,0,0-.27-1.1,2.55,2.55,0,0,0-.9-.79,13.83,13.83,0,0,0-1.93-.82,6.17,6.17,0,0,1-2.59-1.53,3.36,3.36,0,0,1-.78-2.3,2.87,2.87,0,0,1,1.13-2.38,4.7,4.7,0,0,1,3-.89,8.84,8.84,0,0,1,3.56.71l-.47,1.31a8,8,0,0,0-3.12-.67,3.07,3.07,0,0,0-1.88.51,1.68,1.68,0,0,0-.67,1.42,2.11,2.11,0,0,0,.25,1.1,2.23,2.23,0,0,0,.84.79,10.25,10.25,0,0,0,1.8.79,7,7,0,0,1,2.81,1.56A3,3,0,0,1,212.65,279.8Z"/>
      <path class="cls-28" d="M224.26,274.08a3.62,3.62,0,0,1-1.34,3,6.09,6.09,0,0,1-3.85,1.06h-1.53v5.08H216V270.32h3.37Q224.26,270.32,224.26,274.08Zm-6.72,2.79h1.36a5.05,5.05,0,0,0,2.9-.65,2.36,2.36,0,0,0,.9-2.06,2.19,2.19,0,0,0-.85-1.91,4.38,4.38,0,0,0-2.62-.63h-1.69Z"/>
      <path class="cls-28" d="M227.7,283.24V270.32h1.51v12.92Z"/>
      <path class="cls-28" d="M237.49,283.24H236V271.65h-4.11v-1.33h9.72v1.33h-4.11Z"/>
      <path class="cls-28" d="M252.44,283.24l-1.61-4.11h-5.21L244,283.24H242.5l5.13-13h1.27l5.1,13Zm-2.08-5.46-1.51-4c-.2-.51-.4-1.13-.61-1.87a15.2,15.2,0,0,1-.56,1.87l-1.52,4Z"/>
      <path class="cls-28" d="M256.52,283.24V270.32H258v11.56h5.72v1.36Z"/>
      <path class="cls-28" d="M168.91,298.38a6.48,6.48,0,0,1-1.75,4.89,6.9,6.9,0,0,1-5,1.69h-3.59V292h4a6.39,6.39,0,0,1,4.7,1.67A6.3,6.3,0,0,1,168.91,298.38Zm-1.6.05a4.5,4.5,0,0,0-5.06-5.09h-2.19v10.32h1.83a5.6,5.6,0,0,0,4.06-1.32A5.19,5.19,0,0,0,167.31,298.43Z"/>
      <path class="cls-28" d="M180.69,305l-1.62-4.11h-5.2l-1.6,4.11h-1.53l5.14-13h1.26l5.11,13Zm-2.09-5.46-1.51-4c-.19-.51-.4-1.13-.6-1.87a17.17,17.17,0,0,1-.56,1.87l-1.53,4Z"/>
      <path class="cls-28" d="M192.08,301.53a3.17,3.17,0,0,1-1.24,2.66,5.44,5.44,0,0,1-3.37.95,8.56,8.56,0,0,1-3.55-.59V303.1a9.58,9.58,0,0,0,1.74.53,9.1,9.1,0,0,0,1.86.19,3.76,3.76,0,0,0,2.27-.57,1.87,1.87,0,0,0,.77-1.58,2,2,0,0,0-.27-1.1,2.61,2.61,0,0,0-.91-.8,13.31,13.31,0,0,0-1.93-.82,6.17,6.17,0,0,1-2.59-1.53,3.33,3.33,0,0,1-.77-2.3,2.86,2.86,0,0,1,1.12-2.38,4.71,4.71,0,0,1,3-.88,8.87,8.87,0,0,1,3.56.7l-.48,1.31a8,8,0,0,0-3.12-.67,3,3,0,0,0-1.87.51,1.69,1.69,0,0,0-.68,1.42,2.28,2.28,0,0,0,.25,1.11,2.46,2.46,0,0,0,.84.78,10.41,10.41,0,0,0,1.81.79,7.24,7.24,0,0,1,2.81,1.56A3,3,0,0,1,192.08,301.53Z"/>
      <path class="cls-28" d="M206.47,293.2a4.26,4.26,0,0,0-3.38,1.42,5.72,5.72,0,0,0-1.23,3.88,5.8,5.8,0,0,0,1.19,3.92,4.27,4.27,0,0,0,3.4,1.39,11.84,11.84,0,0,0,3.1-.49v1.32a9.73,9.73,0,0,1-3.33.5,5.65,5.65,0,0,1-4.42-1.73,7.13,7.13,0,0,1-1.56-4.93A7.77,7.77,0,0,1,201,295a5.33,5.33,0,0,1,2.17-2.31,6.57,6.57,0,0,1,3.33-.81,8,8,0,0,1,3.57.74l-.64,1.29A6.91,6.91,0,0,0,206.47,293.2Z"/>
      <path class="cls-28" d="M213.11,305V292h1.51V303.6h5.73V305Z"/>
      <path class="cls-28" d="M223.08,290.79c.28-.37.59-.81.92-1.33a13.11,13.11,0,0,0,.77-1.35h1.8v.18a12,12,0,0,1-1.17,1.42,12.93,12.93,0,0,1-1.34,1.3h-1Zm.19,14.17V292h1.51V305Z"/>
      <path class="cls-28" d="M239.21,305h-1.72l-7.1-10.84h-.07c.1,1.27.14,2.44.14,3.5V305h-1.39V292h1.7l7.08,10.8h.07c0-.16,0-.67-.08-1.53s-.06-1.48,0-1.85V292h1.41Z"/>
      <path class="cls-28" d="M243.5,305V292H245V305Z"/>
      <path class="cls-28" d="M254.86,293.2a4.23,4.23,0,0,0-3.38,1.42,5.67,5.67,0,0,0-1.24,3.88,5.85,5.85,0,0,0,1.19,3.92,4.29,4.29,0,0,0,3.41,1.39,11.91,11.91,0,0,0,3.1-.49v1.32a9.73,9.73,0,0,1-3.33.5,5.67,5.67,0,0,1-4.43-1.73,7.13,7.13,0,0,1-1.56-4.93,7.77,7.77,0,0,1,.75-3.5,5.39,5.39,0,0,1,2.17-2.31,6.6,6.6,0,0,1,3.33-.81,8,8,0,0,1,3.57.74l-.64,1.29A6.87,6.87,0,0,0,254.86,293.2Z"/>
      <path class="cls-28" d="M269.65,305,268,300.85h-5.2l-1.6,4.11h-1.53l5.13-13h1.27l5.11,13Zm-2.08-5.46-1.51-4c-.2-.51-.4-1.13-.61-1.87a15.2,15.2,0,0,1-.56,1.87l-1.52,4Z"/>
      <path class="cls-28" d="M281.05,301.53a3.17,3.17,0,0,1-1.24,2.66,5.47,5.47,0,0,1-3.38.95,8.59,8.59,0,0,1-3.55-.59V303.1a10.1,10.1,0,0,0,1.74.53,9.2,9.2,0,0,0,1.87.19,3.78,3.78,0,0,0,2.27-.57,1.86,1.86,0,0,0,.76-1.58,2,2,0,0,0-.27-1.1,2.57,2.57,0,0,0-.9-.8,13.83,13.83,0,0,0-1.93-.82,6.17,6.17,0,0,1-2.59-1.53,3.34,3.34,0,0,1-.78-2.3,2.87,2.87,0,0,1,1.13-2.38,4.7,4.7,0,0,1,3-.88,8.84,8.84,0,0,1,3.56.7l-.47,1.31a8,8,0,0,0-3.12-.67,3.07,3.07,0,0,0-1.88.51,1.68,1.68,0,0,0-.67,1.42,2.17,2.17,0,0,0,.25,1.11,2.29,2.29,0,0,0,.84.78,10.25,10.25,0,0,0,1.8.79,7.16,7.16,0,0,1,2.81,1.56A3.05,3.05,0,0,1,281.05,301.53Z"/>
      <path class="cls-28" d="M213.12,313.76v8.36a4.56,4.56,0,0,1-1.34,3.48,5.15,5.15,0,0,1-3.68,1.26,4.92,4.92,0,0,1-3.63-1.27,4.7,4.7,0,0,1-1.28-3.5v-8.33h1.51v8.43a3.33,3.33,0,0,0,.88,2.49,3.61,3.61,0,0,0,2.61.86,3.45,3.45,0,0,0,2.53-.87,3.3,3.3,0,0,0,.89-2.49v-8.42Z"/>
      <path class="cls-28" d="M224.61,323.25a3.18,3.18,0,0,1-1.25,2.66,5.44,5.44,0,0,1-3.37.95,8.56,8.56,0,0,1-3.55-.59v-1.45a9.58,9.58,0,0,0,1.74.53,9.18,9.18,0,0,0,1.86.19,3.79,3.79,0,0,0,2.28-.57,1.87,1.87,0,0,0,.76-1.58,2,2,0,0,0-.27-1.1,2.42,2.42,0,0,0-.91-.79,12.67,12.67,0,0,0-1.93-.83,6.27,6.27,0,0,1-2.59-1.52,3.41,3.41,0,0,1-.77-2.31,2.84,2.84,0,0,1,1.13-2.38,4.68,4.68,0,0,1,3-.88,8.87,8.87,0,0,1,3.56.7l-.47,1.31a8.06,8.06,0,0,0-3.13-.67,3,3,0,0,0-1.87.51,1.71,1.71,0,0,0-.68,1.43,2.26,2.26,0,0,0,.25,1.1,2.46,2.46,0,0,0,.84.78,10,10,0,0,0,1.81.79,7.29,7.29,0,0,1,2.81,1.56A3.05,3.05,0,0,1,224.61,323.25Z"/>
      <path class="cls-28" d="M236.22,317.53a3.62,3.62,0,0,1-1.35,3A6.15,6.15,0,0,1,231,321.6H229.5v5.08H228V313.76h3.36Q236.23,313.76,236.22,317.53Zm-6.72,2.78h1.35a5.1,5.1,0,0,0,2.91-.64,2.37,2.37,0,0,0,.89-2.07,2.23,2.23,0,0,0-.84-1.91,4.41,4.41,0,0,0-2.63-.63H229.5Z"/>
    </g>
  </g>
  <g class="cls-16">
    <text class="cls-18" transform="translate(530.62 256.53)" style="white-space: pre;">INST. <tspan x="-29.7" y="21.72">BUTANTAN; </tspan><tspan x="-55.07" y="43.44">FUND. OSWALDO </tspan><tspan class="cls-29"><tspan x="-3.74" y="65.17">CRUZ; </tspan></tspan><tspan x="0.36" y="86.89">INTEL</tspan></text>
  </g>
  <g class="cls-16">
    <text class="cls-18" transform="translate(520.63 592.17)" style="white-space: pre;">RADTEC</text>
  </g>
  <g class="cls-16">
    <g class="cls-16">
      <path class="cls-28" d="M170.47,570.47v5.37H169V562.92h3.56a5.57,5.57,0,0,1,3.52.91,3.3,3.3,0,0,1,1.14,2.74,3.43,3.43,0,0,1-2.6,3.46l3.52,5.81h-1.79l-3.14-5.37Zm0-1.29h2.06a3.61,3.61,0,0,0,2.35-.63,2.39,2.39,0,0,0,.74-1.9,2.16,2.16,0,0,0-.76-1.85,4.14,4.14,0,0,0-2.43-.56h-2Z"/>
      <path class="cls-28" d="M188.16,575.84h-7.24V562.92h7.24v1.33h-5.73v4.17h5.38v1.32h-5.38v4.76h5.73Z"/>
      <path class="cls-28" d="M203,569.36a7.8,7.8,0,0,1-1,4.13,5,5,0,0,1-2.83,2.23l3.09,3.2h-2.19L197.56,576l-.49,0a5.62,5.62,0,0,1-4.43-1.75,8.48,8.48,0,0,1,0-9.82,5.68,5.68,0,0,1,4.44-1.73,5.54,5.54,0,0,1,4.36,1.76A7.09,7.09,0,0,1,203,569.36Zm-10.34,0a6.09,6.09,0,0,0,1.13,4,4.6,4.6,0,0,0,6.52,0,6.22,6.22,0,0,0,1.1-4,6.16,6.16,0,0,0-1.1-4,3.93,3.93,0,0,0-3.24-1.35,4,4,0,0,0-3.28,1.36A6,6,0,0,0,192.68,569.36Z"/>
      <path class="cls-28" d="M216.45,562.92v8.36a4.56,4.56,0,0,1-1.35,3.48,5.15,5.15,0,0,1-3.68,1.26,5,5,0,0,1-3.63-1.27,4.74,4.74,0,0,1-1.28-3.5v-8.33H208v8.43a3.34,3.34,0,0,0,.89,2.49,3.62,3.62,0,0,0,2.61.86,3.47,3.47,0,0,0,2.53-.87,3.35,3.35,0,0,0,.89-2.5v-8.41Z"/>
      <path class="cls-28" d="M220.61,575.84V562.92h1.51v12.92Z"/>
      <path class="cls-28" d="M233.73,572.4a3.15,3.15,0,0,1-1.25,2.66,5.36,5.36,0,0,1-3.37,1,8.56,8.56,0,0,1-3.55-.59V574a9.58,9.58,0,0,0,1.74.53,9.18,9.18,0,0,0,1.86.19,3.79,3.79,0,0,0,2.28-.57,1.86,1.86,0,0,0,.76-1.58,2,2,0,0,0-.27-1.1,2.52,2.52,0,0,0-.91-.8,12.84,12.84,0,0,0-1.93-.82,6.12,6.12,0,0,1-2.58-1.53,3.36,3.36,0,0,1-.78-2.3,2.84,2.84,0,0,1,1.13-2.38,4.68,4.68,0,0,1,3-.89,8.84,8.84,0,0,1,3.56.71l-.47,1.31a8,8,0,0,0-3.13-.67,3,3,0,0,0-1.87.51,1.68,1.68,0,0,0-.67,1.42,2.21,2.21,0,0,0,.24,1.1,2.39,2.39,0,0,0,.84.79,10.78,10.78,0,0,0,1.81.79,7.16,7.16,0,0,1,2.81,1.56A3,3,0,0,1,233.73,572.4Z"/>
      <path class="cls-28" d="M237.11,575.84V562.92h1.51v12.92Z"/>
      <path class="cls-28" d="M246.9,575.84h-1.51V564.25h-4.11v-1.33H251v1.33H246.9Z"/>
      <path class="cls-28" d="M265,569.36a7.09,7.09,0,0,1-1.57,4.88A5.53,5.53,0,0,1,259,576a5.62,5.62,0,0,1-4.43-1.75,7.12,7.12,0,0,1-1.56-4.92,7,7,0,0,1,1.57-4.9,5.67,5.67,0,0,1,4.43-1.73,5.56,5.56,0,0,1,4.37,1.76A7.09,7.09,0,0,1,265,569.36Zm-10.34,0a6.09,6.09,0,0,0,1.13,4,4.6,4.6,0,0,0,6.52,0,6.22,6.22,0,0,0,1.1-4,6.16,6.16,0,0,0-1.1-4,3.93,3.93,0,0,0-3.25-1.35,4,4,0,0,0-3.27,1.36A6,6,0,0,0,254.61,569.36Z"/>
      <path class="cls-28" d="M165.4,597.56h-1.51V586h-4.11v-1.34h9.73V586H165.4Z"/>
      <path class="cls-28" d="M179.42,597.56h-7.23V584.64h7.23V586H173.7v4.16h5.38v1.33H173.7v4.75h5.72Z"/>
      <path class="cls-28" d="M188.58,585.8a4.26,4.26,0,0,0-3.38,1.42A5.72,5.72,0,0,0,184,591.1a5.8,5.8,0,0,0,1.19,3.92,4.22,4.22,0,0,0,3.4,1.39,11.84,11.84,0,0,0,3.1-.49v1.32a9.73,9.73,0,0,1-3.33.5,5.65,5.65,0,0,1-4.42-1.73,7.12,7.12,0,0,1-1.56-4.92,7.79,7.79,0,0,1,.75-3.51,5.33,5.33,0,0,1,2.17-2.31,6.57,6.57,0,0,1,3.33-.81,8,8,0,0,1,3.57.74l-.64,1.29A6.91,6.91,0,0,0,188.58,585.8Z"/>
      <path class="cls-28" d="M205.36,597.56h-1.72l-7.1-10.84h-.07c.1,1.27.14,2.44.14,3.5v7.34h-1.39V584.64h1.71l7.07,10.8h.07c0-.16,0-.67-.08-1.53s-.06-1.48,0-1.85v-7.42h1.41Z"/>
      <path class="cls-28" d="M220.92,591.09a7.08,7.08,0,0,1-1.58,4.87,5.53,5.53,0,0,1-4.38,1.78,5.6,5.6,0,0,1-4.42-1.75,7.12,7.12,0,0,1-1.56-4.92,7,7,0,0,1,1.56-4.89,5.65,5.65,0,0,1,4.44-1.74,5.55,5.55,0,0,1,4.37,1.77A7.1,7.1,0,0,1,220.92,591.09Zm-10.34,0a6.11,6.11,0,0,0,1.12,4,4,4,0,0,0,3.26,1.35,4,4,0,0,0,3.26-1.35,6.21,6.21,0,0,0,1.1-4,6.11,6.11,0,0,0-1.1-4,3.93,3.93,0,0,0-3.24-1.35,4,4,0,0,0-3.28,1.36A6,6,0,0,0,210.58,591.09Z"/>
      <path class="cls-28" d="M224.54,597.56V584.64h1.51V596.2h5.72v1.36Z"/>
      <path class="cls-28" d="M246,591.09a7.08,7.08,0,0,1-1.58,4.87,6.37,6.37,0,0,1-8.8,0,7.12,7.12,0,0,1-1.56-4.92,7,7,0,0,1,1.56-4.89,5.65,5.65,0,0,1,4.44-1.74,5.55,5.55,0,0,1,4.37,1.77A7.1,7.1,0,0,1,246,591.09Zm-10.34,0a6.11,6.11,0,0,0,1.12,4,4,4,0,0,0,3.26,1.35,4,4,0,0,0,3.26-1.35,7.71,7.71,0,0,0,0-7.94,3.93,3.93,0,0,0-3.24-1.35,4,4,0,0,0-3.28,1.36A6,6,0,0,0,235.63,591.09Z"/>
      <path class="cls-28" d="M255.3,590.79h4.41v6.29a13.9,13.9,0,0,1-2.1.49,16.18,16.18,0,0,1-2.46.17,6,6,0,0,1-4.59-1.75,6.83,6.83,0,0,1-1.65-4.89,7.27,7.27,0,0,1,.82-3.53,5.44,5.44,0,0,1,2.34-2.31,7.49,7.49,0,0,1,3.57-.8,9.72,9.72,0,0,1,3.87.76l-.58,1.32a8.76,8.76,0,0,0-3.38-.74,4.9,4.9,0,0,0-3.71,1.4,5.49,5.49,0,0,0-1.33,3.9,5.57,5.57,0,0,0,1.28,4,5,5,0,0,0,3.77,1.35,11.09,11.09,0,0,0,2.64-.31v-4h-2.9Z"/>
      <path class="cls-28" d="M263.55,597.56V584.64h1.51v12.92Z"/>
      <path class="cls-28" d="M277.5,597.56l-1.61-4.11h-5.2l-1.6,4.11h-1.53l5.13-13H274l5.11,13Zm-2.08-5.46-1.51-4a18.18,18.18,0,0,1-.6-1.87,17.17,17.17,0,0,1-.56,1.87l-1.53,4Z"/>
    </g>
  </g>
  <g class="cls-16">
    <text class="cls-18" transform="translate(577.86 445.21)" style="white-space: pre;">TALKTELECOM</text>
  </g>
  <g class="cls-16">
    <text class="cls-18" transform="translate(330.5 759.69)" style="white-space: pre;">TRUE WORK</text>
  </g>
  <text class="cls-21" transform="matrix(1, 0, 0, 1, 125.040001, 110.099998)" style="white-space: pre;">TELEMEDICINA</text>
  <path class="cls-28" d="M115.79,406.31a3.15,3.15,0,0,1-1.24,2.66,5.38,5.38,0,0,1-3.37,1,8.53,8.53,0,0,1-3.55-.59v-1.45a9.58,9.58,0,0,0,1.74.53,9,9,0,0,0,1.86.19,3.76,3.76,0,0,0,2.27-.57,1.87,1.87,0,0,0,.77-1.59,2,2,0,0,0-.28-1.1,2.55,2.55,0,0,0-.9-.79,13.31,13.31,0,0,0-1.93-.82,6.17,6.17,0,0,1-2.59-1.53,3.36,3.36,0,0,1-.78-2.3,2.87,2.87,0,0,1,1.13-2.38,4.7,4.7,0,0,1,3-.89,8.84,8.84,0,0,1,3.56.71l-.47,1.31a8,8,0,0,0-3.12-.67,3,3,0,0,0-1.87.51,1.69,1.69,0,0,0-.68,1.42,2.11,2.11,0,0,0,.25,1.1,2.3,2.3,0,0,0,.84.79,10.25,10.25,0,0,0,1.8.79,7,7,0,0,1,2.81,1.56A3,3,0,0,1,115.79,406.31Z"/>
  <path class="cls-28" d="M119.17,409.75V396.83h1.51v12.92Z"/>
  <path class="cls-28" d="M130.71,409.75l-4.4-11.45h-.07c.08.9.12,2,.12,3.23v8.22H125V396.83h2.27l4.11,10.66h.07l4.15-10.66h2.25v12.92h-1.51v-8.32c0-1,.05-2,.13-3.12h-.07l-4.44,11.44Z"/>
  <path class="cls-28" d="M149.35,409.75h-7.24V396.83h7.24v1.33h-5.73v4.17H149v1.32h-5.38v4.76h5.73Z"/>
  <path class="cls-28" d="M161.59,409.75h-1.72l-3.49-5.68-3.55,5.68h-1.6l4.32-6.75-4-6.17h1.67l3.22,5.12,3.25-5.12h1.6l-4,6.12Z"/>
  <path class="cls-28" d="M99.19,428A3.2,3.2,0,0,1,98,430.7a5.47,5.47,0,0,1-3.38.95,8.56,8.56,0,0,1-3.55-.59v-1.45a10.1,10.1,0,0,0,1.74.53,9.2,9.2,0,0,0,1.87.19,3.78,3.78,0,0,0,2.27-.57,1.86,1.86,0,0,0,.76-1.58,2,2,0,0,0-.27-1.1,2.57,2.57,0,0,0-.9-.8,13.83,13.83,0,0,0-1.93-.82A6.17,6.17,0,0,1,92,423.93a3.34,3.34,0,0,1-.78-2.3,2.87,2.87,0,0,1,1.13-2.38,4.68,4.68,0,0,1,3-.88,8.84,8.84,0,0,1,3.56.7l-.47,1.31a8,8,0,0,0-3.12-.67,3.07,3.07,0,0,0-1.88.51,1.68,1.68,0,0,0-.67,1.42,2.17,2.17,0,0,0,.25,1.11,2.29,2.29,0,0,0,.84.78,10.25,10.25,0,0,0,1.8.79,7.16,7.16,0,0,1,2.81,1.56A3.05,3.05,0,0,1,99.19,428Z"/>
  <path class="cls-28" d="M102.57,431.47V418.55h1.51v12.92Z"/>
  <path class="cls-28" d="M115.69,428a3.17,3.17,0,0,1-1.24,2.66,5.47,5.47,0,0,1-3.38.95,8.59,8.59,0,0,1-3.55-.59v-1.45a10.1,10.1,0,0,0,1.74.53,9.2,9.2,0,0,0,1.87.19,3.78,3.78,0,0,0,2.27-.57,1.86,1.86,0,0,0,.76-1.58,2,2,0,0,0-.27-1.1,2.57,2.57,0,0,0-.9-.8,13.83,13.83,0,0,0-1.93-.82,6.17,6.17,0,0,1-2.59-1.53,3.34,3.34,0,0,1-.78-2.3,2.87,2.87,0,0,1,1.13-2.38,4.7,4.7,0,0,1,3-.88,8.84,8.84,0,0,1,3.56.7l-.47,1.31a8,8,0,0,0-3.12-.67,3.07,3.07,0,0,0-1.88.51,1.68,1.68,0,0,0-.67,1.42,2.17,2.17,0,0,0,.25,1.11,2.29,2.29,0,0,0,.84.78,10.25,10.25,0,0,0,1.8.79,7.16,7.16,0,0,1,2.81,1.56A3.05,3.05,0,0,1,115.69,428Z"/>
  <path class="cls-28" d="M123.07,431.47h-1.51V419.89h-4.11v-1.34h9.73v1.34h-4.11Z"/>
  <path class="cls-28" d="M137.09,431.47h-7.23V418.55h7.23v1.34h-5.72v4.16h5.37v1.32h-5.37v4.76h5.72Z"/>
  <path class="cls-28" d="M146.44,431.47,142,420H142c.09.91.13,2,.13,3.23v8.22h-1.4V418.55H143l4.11,10.66h.07l4.14-10.66h2.26v12.92H152v-8.32c0-1,0-2,.12-3.11h-.07l-4.44,11.43Z"/>
  <path class="cls-28" d="M166,431.47l-1.61-4.11h-5.2l-1.6,4.11h-1.53l5.13-13h1.27l5.11,13ZM163.91,426l-1.51-4c-.2-.51-.4-1.13-.61-1.87a15.2,15.2,0,0,1-.56,1.87l-1.52,4Z"/>
  <path class="cls-28" d="M177.39,428a3.17,3.17,0,0,1-1.24,2.66,5.47,5.47,0,0,1-3.38.95,8.59,8.59,0,0,1-3.55-.59v-1.45a10.1,10.1,0,0,0,1.74.53,9.2,9.2,0,0,0,1.87.19,3.78,3.78,0,0,0,2.27-.57,1.86,1.86,0,0,0,.76-1.58,2,2,0,0,0-.27-1.1,2.57,2.57,0,0,0-.9-.8,13.83,13.83,0,0,0-1.93-.82,6.17,6.17,0,0,1-2.59-1.53,3.34,3.34,0,0,1-.78-2.3,2.87,2.87,0,0,1,1.13-2.38,4.68,4.68,0,0,1,3-.88,8.84,8.84,0,0,1,3.56.7l-.47,1.31a8,8,0,0,0-3.12-.67,3.07,3.07,0,0,0-1.88.51,1.68,1.68,0,0,0-.67,1.42,2.17,2.17,0,0,0,.25,1.11,2.29,2.29,0,0,0,.84.78,10.25,10.25,0,0,0,1.8.79,7.16,7.16,0,0,1,2.81,1.56A3.05,3.05,0,0,1,177.39,428Z"/>
  <path class="cls-28" d="M85.16,446.61a6.52,6.52,0,0,1-1.74,4.89,6.92,6.92,0,0,1-5,1.7H74.81V440.27h4a6.4,6.4,0,0,1,4.71,1.67A6.3,6.3,0,0,1,85.16,446.61Zm-1.59.05a5.21,5.21,0,0,0-1.28-3.81,5.13,5.13,0,0,0-3.78-1.28h-2.2V451.9h1.84a5.58,5.58,0,0,0,4.06-1.33A5.23,5.23,0,0,0,83.57,446.66Z"/>
  <path class="cls-28" d="M96,453.2H88.79V440.27H96v1.34H90.29v4.16h5.38v1.33H90.29v4.75H96Z"/>
  <path class="cls-28" d="M105.07,453.2V440.27h1.51V453.2Z"/>
  <path class="cls-28" d="M121,453.2h-1.73l-7.09-10.85h-.07c.1,1.27.14,2.44.14,3.5v7.35h-1.39V440.27h1.7l7.08,10.8h.07c0-.16,0-.67-.08-1.53s-.06-1.48,0-1.85v-7.42H121Z"/>
  <path class="cls-28" d="M132.63,449.76a3.18,3.18,0,0,1-1.25,2.66,5.44,5.44,0,0,1-3.37.95,8.56,8.56,0,0,1-3.55-.59v-1.45a9.58,9.58,0,0,0,1.74.53,9.18,9.18,0,0,0,1.86.19,3.72,3.72,0,0,0,2.28-.57,1.87,1.87,0,0,0,.76-1.58,2,2,0,0,0-.27-1.1,2.42,2.42,0,0,0-.91-.79,12.67,12.67,0,0,0-1.93-.83,6.27,6.27,0,0,1-2.59-1.52,3.41,3.41,0,0,1-.77-2.31,2.84,2.84,0,0,1,1.13-2.38,4.68,4.68,0,0,1,3-.88,8.87,8.87,0,0,1,3.56.7l-.47,1.31a8.24,8.24,0,0,0-3.13-.67,3,3,0,0,0-1.87.51,1.71,1.71,0,0,0-.68,1.43,2.26,2.26,0,0,0,.25,1.1,2.46,2.46,0,0,0,.84.78,10,10,0,0,0,1.81.79,7.29,7.29,0,0,1,2.81,1.56A3.05,3.05,0,0,1,132.63,449.76Z"/>
  <path class="cls-28" d="M144.24,444a3.62,3.62,0,0,1-1.35,3,6.15,6.15,0,0,1-3.85,1.05h-1.52v5.09H136V440.27h3.36Q144.25,440.27,144.24,444Zm-6.72,2.78h1.35a5.1,5.1,0,0,0,2.91-.64,2.37,2.37,0,0,0,.89-2.07,2.23,2.23,0,0,0-.84-1.91,4.41,4.41,0,0,0-2.63-.63h-1.68Z"/>
  <path class="cls-28" d="M154.91,453.2h-7.23V440.27h7.23v1.34h-5.72v4.16h5.38v1.33h-5.38v4.75h5.72Z"/>
  <path class="cls-28" d="M164.08,441.43a4.23,4.23,0,0,0-3.38,1.42,5.69,5.69,0,0,0-1.24,3.88,5.83,5.83,0,0,0,1.19,3.92,4.24,4.24,0,0,0,3.41,1.39,11.5,11.5,0,0,0,3.1-.49v1.32a9.73,9.73,0,0,1-3.33.5,5.66,5.66,0,0,1-4.43-1.73,7.12,7.12,0,0,1-1.56-4.92,7.74,7.74,0,0,1,.75-3.5,5.36,5.36,0,0,1,2.17-2.32,6.57,6.57,0,0,1,3.33-.81,8,8,0,0,1,3.57.74l-.64,1.29A6.87,6.87,0,0,0,164.08,441.43Zm1.09,14.32a1.54,1.54,0,0,1-.68,1.33,3.6,3.6,0,0,1-2,.46,4,4,0,0,1-.86-.08v-.93a6.3,6.3,0,0,0,.93.07,2.44,2.44,0,0,0,1.06-.18.66.66,0,0,0,.36-.65.72.72,0,0,0-.35-.62,3.83,3.83,0,0,0-1.32-.38l.78-1.57h1l-.49,1C164.63,454.44,165.17,455,165.17,455.75Z"/>
  <path class="cls-28" d="M178.87,453.2l-1.61-4.11h-5.21l-1.59,4.11h-1.53l5.13-13h1.27l5.1,13Zm-2.91-14a1.84,1.84,0,0,1-.75-.16c-.24-.11-.48-.23-.71-.36s-.46-.26-.67-.37a1.4,1.4,0,0,0-.63-.16.84.84,0,0,0-.67.26,1.91,1.91,0,0,0-.35.81h-.87a3.12,3.12,0,0,1,.62-1.68,1.67,1.67,0,0,1,1.32-.6,1.92,1.92,0,0,1,.79.16,7.08,7.08,0,0,1,.73.36c.23.14.45.26.67.37a1.29,1.29,0,0,0,.6.16.8.8,0,0,0,.65-.26,1.93,1.93,0,0,0,.34-.81h.88a3.12,3.12,0,0,1-.61,1.68A1.66,1.66,0,0,1,176,439.22Zm.83,8.51-1.51-4c-.2-.51-.4-1.13-.61-1.87a15.2,15.2,0,0,1-.56,1.87l-1.52,4Z"/>
  <path class="cls-28" d="M194.21,446.72a7.08,7.08,0,0,1-1.58,4.88,5.56,5.56,0,0,1-4.38,1.77,5.62,5.62,0,0,1-4.42-1.74,7.16,7.16,0,0,1-1.56-4.93,7,7,0,0,1,1.56-4.89,5.65,5.65,0,0,1,4.44-1.74,5.54,5.54,0,0,1,4.37,1.77A7.07,7.07,0,0,1,194.21,446.72Zm-10.34,0a6.11,6.11,0,0,0,1.12,4,4,4,0,0,0,3.26,1.35,4,4,0,0,0,3.26-1.35,7.74,7.74,0,0,0,0-7.94,4,4,0,0,0-3.25-1.35,4,4,0,0,0-3.28,1.36A6,6,0,0,0,183.87,446.72Z"/>
  <path class="cls-28" d="M106.61,474.92l-4.41-11.46h-.07c.08.91.13,2,.13,3.24v8.22h-1.4V462h2.27l4.11,10.66h.08L111.46,462h2.26v12.93h-1.51v-8.33c0-.95,0-2,.12-3.11h-.07l-4.44,11.44Z"/>
  <path class="cls-28" d="M129.27,468.44a7.11,7.11,0,0,1-1.58,4.88,6.39,6.39,0,0,1-8.8,0,7.16,7.16,0,0,1-1.56-4.93,7.07,7.07,0,0,1,1.56-4.89,5.65,5.65,0,0,1,4.44-1.74,5.55,5.55,0,0,1,4.37,1.77A7.12,7.12,0,0,1,129.27,468.44Zm-10.34,0a6.09,6.09,0,0,0,1.12,4,4,4,0,0,0,3.26,1.36,3.94,3.94,0,0,0,3.26-1.36,7.71,7.71,0,0,0,0-7.94,3.92,3.92,0,0,0-3.24-1.34,4,4,0,0,0-3.28,1.35A6.06,6.06,0,0,0,118.93,468.44Zm3.14-7.7c.28-.37.59-.81.92-1.33a14,14,0,0,0,.77-1.35h1.8v.19a17.15,17.15,0,0,1-2.51,2.71h-1Z"/>
  <path class="cls-28" d="M140.3,462h1.63l-4.68,12.93h-1.49L131.1,462h1.6l3,8.37a21.86,21.86,0,0,1,.82,2.8,21.62,21.62,0,0,1,.84-2.86Z"/>
  <path class="cls-28" d="M151.67,474.92h-7.23V462h7.23v1.34H146v4.16h5.38v1.33H146v4.75h5.72Z"/>
  <path class="cls-28" d="M155.27,474.92V462h1.51v12.93Z"/>
  <path class="cls-28" d="M168.39,471.48a3.16,3.16,0,0,1-1.24,2.66,5.38,5.38,0,0,1-3.37.95,8.4,8.4,0,0,1-3.55-.59v-1.45a8.85,8.85,0,0,0,1.74.53,9.12,9.12,0,0,0,1.86.2,3.76,3.76,0,0,0,2.27-.57,1.87,1.87,0,0,0,.77-1.59,2,2,0,0,0-.27-1.1,2.5,2.5,0,0,0-.91-.79,12.27,12.27,0,0,0-1.93-.82,6.17,6.17,0,0,1-2.59-1.53,3.36,3.36,0,0,1-.77-2.31,2.86,2.86,0,0,1,1.12-2.38,4.71,4.71,0,0,1,3-.88,8.71,8.71,0,0,1,3.56.71l-.48,1.3a8.2,8.2,0,0,0-3.12-.67,3,3,0,0,0-1.87.52,1.68,1.68,0,0,0-.68,1.42,2.24,2.24,0,0,0,.25,1.1,2.48,2.48,0,0,0,.84.79,11.25,11.25,0,0,0,1.81.79,7.25,7.25,0,0,1,2.81,1.55A3.06,3.06,0,0,1,168.39,471.48Z"/>
  <text class="cls-22" transform="matrix(1, 0, 0, 1, 131.240005, 137.419998)" style="white-space: pre;">11</text>
  <rect class="cls-27" x="96.52" y="87.66" width="16.22" height="60.07"/>
  <line class="cls-30" x1="122.89" y1="256.92" x2="101.05" y2="146.22"/>
</svg>