<?xml version="1.0" encoding="utf-8"?>
<svg viewBox="329.28 77.16 624.646 939.69" xmlns="http://www.w3.org/2000/svg">
  <defs>
    <style>.cls-1{fill:#03051f;}.cls-10,.cls-12,.cls-15,.cls-16,.cls-18,.cls-2,.cls-20,.cls-22,.cls-24,.cls-26,.cls-28,.cls-3,.cls-30,.cls-31,.cls-33,.cls-36,.cls-38,.cls-40,.cls-42,.cls-44,.cls-46,.cls-48,.cls-49,.cls-53,.cls-55,.cls-6,.cls-8{font-size:14px;}.cls-14,.cls-2,.cls-3,.cls-34,.cls-4,.cls-51,.cls-55{fill:#fff;}.cls-10,.cls-12,.cls-15,.cls-16,.cls-18,.cls-2,.cls-20,.cls-22,.cls-24,.cls-26,.cls-28,.cls-3,.cls-30,.cls-31,.cls-33,.cls-34,.cls-36,.cls-38,.cls-4,.cls-40,.cls-42,.cls-44,.cls-46,.cls-48,.cls-49,.cls-53,.cls-6,.cls-8{font-family:OpenSans, Open Sans;}.cls-10,.cls-12,.cls-16,.cls-18,.cls-2,.cls-20,.cls-22,.cls-24,.cls-28,.cls-30,.cls-31,.cls-36,.cls-38,.cls-40,.cls-48,.cls-55,.cls-6,.cls-8{letter-spacing:0.04em;}.cls-15,.cls-26,.cls-3,.cls-33,.cls-42,.cls-44,.cls-46,.cls-49,.cls-53{letter-spacing:0.04em;}.cls-4{font-size:13.11px;letter-spacing:0.04em;}.cls-43,.cls-5{fill:none;stroke:#fff;stroke-width:0.25px;}.cls-35,.cls-47,.cls-5,.cls-50,.cls-51,.cls-52{opacity:0.29;}.cls-33,.cls-6,.cls-7{fill:#d071a5;}.cls-8,.cls-9{fill:#878ab2;}.cls-10,.cls-11,.cls-15,.cls-52{fill:#dedab4;}.cls-12,.cls-13{fill:#f73848;}.cls-16,.cls-17{fill:#b7a1ff;}.cls-18,.cls-19{fill:#008eff;}.cls-20,.cls-21,.cls-46,.cls-47{fill:#87e089;}.cls-22,.cls-23{fill:#f57c85;}.cls-24,.cls-25{fill:#fcd88d;}.cls-26,.cls-27,.cls-30,.cls-35{fill:#f5a034;}.cls-28,.cls-29,.cls-42{fill:#1bffff;}.cls-31,.cls-32,.cls-49,.cls-50{fill:#f5ff34;}.cls-34{font-size:11.9px;letter-spacing:0.04em;}.cls-36,.cls-37{fill:#275bea;}.cls-38,.cls-39{fill:#f590ea;}.cls-40,.cls-41{fill:#c7f64a;}.cls-43{opacity:0.58;}.cls-44,.cls-45,.cls-48{fill:#75c1a6;}.cls-53,.cls-54{fill:#f5474e;}.cls-55{font-family:OpenSans-Bold, Open Sans;font-weight:700;}.cls-56{fill:#494a5e;}</style>
  </defs>
  <g id="Layer_1" data-name="Layer 1" style="" transform="matrix(1, 0, 0, 1.023138, 0, -25.012003)">
    <rect class="cls-1" x="0.03" y="1.28" width="1919.93" height="1079.72"/>
  </g>
  <g id="Layer_2" data-name="Layer 2">
    <text class="cls-2" transform="translate(514.5 548.72)" style="white-space: pre;">MINHA SAÚDE</text>
    <text class="cls-3" transform="translate(471.33 564.26)" style="white-space: pre;">ALÔ SAÚDE FLORIPA</text>
    <text class="cls-2" transform="translate(465.08 579.79)" style="white-space: pre;">MONITORA COVID-19</text>
    <text class="cls-3" transform="translate(331.71 595.32)" style="white-space: pre;">                   DYNAMIC CONTACT TRACING</text>
    <text class="cls-2" transform="translate(538.02 610.86)" style="white-space: pre;">CEARÁ APP</text>
    <text class="cls-2" transform="translate(495.55 626.39)" style="white-space: pre;">PRONTO MOBILE</text>
    <text class="cls-2" transform="translate(533.02 641.92)" style="white-space: pre;">E-SAÚDE SP</text>
    <text class="cls-2" transform="translate(567.8 657.46)" style="white-space: pre;">COLAB</text>
    <text class="cls-2" transform="translate(569.87 672.99)" style="white-space: pre;">SIMOT</text>
    <text class="cls-2" transform="translate(461.75 688.52)" style="white-space: pre;">SAÚDE SANTO ANDRÉ</text>
    <text class="cls-3" transform="translate(502.8 704.05)" style="white-space: pre;">DADOS DO BEM</text>
    <text class="cls-2" transform="translate(458.13 719.59)" style="white-space: pre;">MAIS SAÚDE CIDADÃO</text>
    <text class="cls-4" transform="translate(587.18 735.12)" style="white-space: pre;">SASI</text>
    <text class="cls-3" transform="translate(583.9 750.65)" style="white-space: pre;">ISUS</text>
    <text class="cls-3" transform="translate(360.35 766.19)" style="white-space: pre;">DISTANCIAMENTO CONTROLADO RS</text>
    <text class="cls-2" transform="translate(449.27 781.72)" style="white-space: pre;">TELEMEDICINA PARANÁ</text>
    <text class="cls-2" transform="translate(486.73 797.25)" style="white-space: pre;">SAÚDE ONLINE PR</text>
    <text class="cls-2" transform="translate(329.28 812.79)" style="white-space: pre;">     STA ISABEL CONTRA O CORONAVÍRUS</text>
    <text class="cls-2" transform="translate(398.31 828.32)" style="white-space: pre;">SAÚDE DIGITAL MG - COVID-19</text>
    <text class="cls-2" transform="translate(552.29 843.85)" style="white-space: pre;">COVIDPR</text>
    <text class="cls-2" transform="translate(562.22 859.39)" style="white-space: pre;">KEYAPP</text>
    <text class="cls-2" transform="translate(470.79 874.92)" style="white-space: pre;">CORONAVÍRUS - SUS</text>
    <text class="cls-3" transform="translate(492.5 890.45)" style="white-space: pre;">ATENDE EM CASA</text>
    <text class="cls-2" transform="translate(484.02 905.99)" style="white-space: pre;">SAÚDE APARECIDA</text>
    <text class="cls-2" transform="translate(492.17 921.52)" style="white-space: pre;">MEU INFO SÁUDE</text>
    <text class="cls-3" transform="translate(498.15 937.05)" style="white-space: pre;">AGLOMERAÇÕES</text>
    <text class="cls-2" transform="translate(496.83 952.59)" style="white-space: pre;">COVID MONITOR</text>
    <text class="cls-2" transform="translate(437.39 968.12)" style="white-space: pre;">COMBATE CORONAVÍRUS</text>
    <line class="cls-5" x1="1427.83" y1="545.08" x2="619.08" y2="545.08"/>
    <line class="cls-5" x1="1427.83" y1="561.2" x2="619.08" y2="561.2"/>
    <line class="cls-5" x1="1427.83" y1="577.32" x2="619.08" y2="577.32"/>
    <line class="cls-5" x1="1427.83" y1="593.43" x2="619.08" y2="593.43"/>
    <line class="cls-5" x1="1427.83" y1="609.55" x2="619.08" y2="609.55"/>
    <line class="cls-5" x1="1427.83" y1="625.67" x2="619.08" y2="625.67"/>
    <line class="cls-5" x1="1427.83" y1="641.79" x2="619.08" y2="641.79"/>
    <line class="cls-5" x1="1427.83" y1="657.91" x2="619.08" y2="657.91"/>
    <line class="cls-5" x1="1427.83" y1="674.03" x2="619.08" y2="674.03"/>
    <line class="cls-5" x1="1427.83" y1="690.15" x2="619.08" y2="690.15"/>
    <line class="cls-5" x1="1427.83" y1="706.27" x2="619.08" y2="706.27"/>
    <line class="cls-5" x1="1427.83" y1="722.39" x2="619.08" y2="722.39"/>
    <line class="cls-5" x1="1427.83" y1="738.51" x2="619.08" y2="738.51"/>
    <line class="cls-5" x1="1427.83" y1="754.63" x2="619.08" y2="754.63"/>
    <line class="cls-5" x1="1427.83" y1="770.74" x2="619.08" y2="770.74"/>
    <line class="cls-5" x1="1427.83" y1="786.86" x2="619.08" y2="786.86"/>
    <line class="cls-5" x1="1427.83" y1="802.98" x2="619.08" y2="802.98"/>
    <line class="cls-5" x1="1427.83" y1="819.1" x2="619.08" y2="819.1"/>
    <line class="cls-5" x1="1427.83" y1="835.22" x2="619.08" y2="835.22"/>
    <line class="cls-5" x1="1427.83" y1="851.34" x2="619.08" y2="851.34"/>
    <line class="cls-5" x1="1427.83" y1="867.46" x2="619.08" y2="867.46"/>
    <line class="cls-5" x1="1427.83" y1="883.58" x2="619.08" y2="883.58"/>
    <line class="cls-5" x1="1427.83" y1="899.7" x2="619.08" y2="899.7"/>
    <line class="cls-5" x1="1427.83" y1="915.82" x2="619.08" y2="915.82"/>
    <line class="cls-5" x1="1427.83" y1="931.93" x2="619.08" y2="931.93"/>
    <line class="cls-5" x1="1427.83" y1="948.05" x2="619.08" y2="948.05"/>
    <line class="cls-5" x1="1427.83" y1="964.17" x2="619.08" y2="964.17"/>
    <line class="cls-5" x1="1427.83" y1="980.29" x2="619.08" y2="980.29"/>
    <line class="cls-5" x1="1427.83" y1="996.41" x2="619.08" y2="996.41"/>
    <text class="cls-3" transform="translate(573.79 983.65)" style="white-space: pre;">AVISU</text>
    <text class="cls-3" transform="translate(475.87 999.18)" style="white-space: pre;">APPS GOOGLE PLAY</text>
    <line class="cls-5" x1="1366.77" y1="1016.85" x2="1366.61" y2="517.06"/>
    <rect class="cls-7" x="1360.09" y="539" width="13.2" height="13.2"/>
    <line class="cls-5" x1="1384.98" y1="1016.85" x2="1384.82" y2="517.06"/>
    <rect class="cls-9" x="1378.3" y="539" width="13.2" height="13.2"/>
    <line class="cls-5" x1="1403.19" y1="1016.85" x2="1403.03" y2="517.06"/>
    <rect class="cls-11" x="1396.51" y="539" width="13.2" height="13.2"/>
    <line class="cls-5" x1="1348.56" y1="1016.85" x2="1348.4" y2="517.06"/>
    <rect class="cls-13" x="1341.88" y="554.99" width="13.2" height="13.2"/>
    <line class="cls-5" x1="1202.89" y1="1016.85" x2="1202.73" y2="517.06"/>
    <rect class="cls-14" x="1196.21" y="587.29" width="13.2" height="13.2"/>
    <line class="cls-5" x1="1221.1" y1="1016.85" x2="1220.94" y2="517.06"/>
    <rect class="cls-11" x="1214.42" y="587.29" width="13.2" height="13.2"/>
    <line class="cls-5" x1="1239.31" y1="1016.85" x2="1239.15" y2="517.06"/>
    <rect class="cls-17" x="1232.63" y="587.29" width="13.2" height="13.2"/>
    <line class="cls-5" x1="1257.52" y1="1016.85" x2="1257.36" y2="517.06"/>
    <rect class="cls-19" x="1250.84" y="603.44" width="13.2" height="13.2"/>
    <line class="cls-5" x1="1002.59" y1="1016.85" x2="1002.43" y2="517.06"/>
    <rect class="cls-9" x="995.91" y="554.99" width="13.2" height="13.2"/>
    <rect class="cls-9" x="995.91" y="587.29" width="13.2" height="13.2"/>
    <rect class="cls-9" x="995.91" y="603.44" width="13.2" height="13.2"/>
    <line class="cls-5" x1="1075.43" y1="1016.85" x2="1075.27" y2="517.06"/>
    <rect class="cls-21" x="1068.75" y="539" width="13.2" height="13.2"/>
    <rect class="cls-21" x="1068.75" y="635.58" width="13.2" height="13.2"/>
    <line class="cls-5" x1="1057.22" y1="1016.85" x2="1057.06" y2="517.06"/>
    <rect class="cls-23" x="1050.54" y="539" width="13.2" height="13.2"/>
    <rect class="cls-23" x="1050.54" y="635.58" width="13.2" height="13.2"/>
    <line class="cls-5" x1="1275.73" y1="1016.85" x2="1275.57" y2="517.06"/>
    <rect class="cls-14" x="1269.05" y="651.73" width="13.2" height="13.2"/>
    <line class="cls-5" x1="1148.26" y1="1016.85" x2="1148.1" y2="517.06"/>
    <rect class="cls-25" x="1141.58" y="619.59" width="13.2" height="13.2"/>
    <rect class="cls-25" x="1141.58" y="651.73" width="13.2" height="13.2"/>
    <line class="cls-5" x1="1111.85" y1="1016.85" x2="1111.69" y2="517.06"/>
    <rect class="cls-25" x="1105.17" y="554.99" width="13.2" height="13.2"/>
    <rect class="cls-25" x="1105.17" y="684.03" width="13.2" height="13.2"/>
    <line class="cls-5" x1="984.38" y1="1016.85" x2="984.22" y2="517.06"/>
    <rect class="cls-27" x="977.7" y="587.29" width="13.2" height="13.2"/>
    <rect class="cls-27" x="977.7" y="619.59" width="13.2" height="13.2"/>
    <rect class="cls-27" x="977.7" y="700.18" width="13.2" height="13.2"/>
    <line class="cls-5" x1="1184.68" y1="1016.85" x2="1184.52" y2="517.06"/>
    <rect class="cls-29" x="1178" y="587.29" width="13.2" height="13.2"/>
    <rect class="cls-29" x="1178" y="700.18" width="13.2" height="13.2"/>
    <line class="cls-5" x1="1039.01" y1="1016.85" x2="1038.85" y2="517.06"/>
    <rect class="cls-13" x="1032.33" y="603.44" width="13.2" height="13.2"/>
    <rect class="cls-13" x="1032.33" y="748.47" width="13.2" height="13.2"/>
    <rect class="cls-13" x="1032.33" y="764.62" width="13.2" height="13.2"/>
    <line class="cls-5" x1="1093.64" y1="1016.85" x2="1093.48" y2="517.06"/>
    <rect class="cls-27" x="1086.96" y="554.99" width="13.2" height="13.2"/>
    <rect class="cls-27" x="1086.96" y="780.77" width="13.2" height="13.2"/>
    <line class="cls-5" x1="1020.8" y1="1016.85" x2="1020.64" y2="517.06"/>
    <rect class="cls-7" x="1014.12" y="554.99" width="13.2" height="13.2"/>
    <rect class="cls-7" x="1014.12" y="651.73" width="13.2" height="13.2"/>
    <rect class="cls-7" x="1014.12" y="780.77" width="13.2" height="13.2"/>
    <line class="cls-5" x1="1293.94" y1="1016.85" x2="1293.78" y2="517.06"/>
    <rect class="cls-32" x="1287.26" y="780.77" width="13.2" height="13.2"/>
    <line class="cls-5" x1="1166.47" y1="1016.85" x2="1166.31" y2="517.06"/>
    <rect class="cls-7" x="1159.79" y="619.59" width="13.2" height="13.2"/>
    <rect class="cls-7" x="1159.79" y="812.91" width="13.2" height="13.2"/>
    <text class="cls-26" transform="translate(914.86 523.91) rotate(-90)" style="white-space: pre;">ALTER AR SUAS CONFIGURAÇÕES DE ÁUDIO</text>
    <line class="cls-5" x1="911.55" y1="1016.85" x2="911.39" y2="517.06"/>
    <rect class="cls-27" x="904.87" y="539" width="13.2" height="13.2"/>
    <rect class="cls-27" x="904.87" y="554.99" width="13.2" height="13.2"/>
    <rect class="cls-27" x="904.87" y="571.14" width="13.2" height="13.2"/>
    <rect class="cls-27" x="904.87" y="635.58" width="13.2" height="13.2"/>
    <rect class="cls-27" x="904.87" y="684.03" width="13.2" height="13.2"/>
    <rect class="cls-27" x="904.87" y="796.76" width="13.2" height="13.2"/>
    <rect class="cls-27" x="904.87" y="829.06" width="13.2" height="13.2"/>
    <text class="cls-34" transform="translate(896.65 523.91) rotate(-90)" style="white-space: pre;">GRAVAR ÁUDIO</text>
    <line class="cls-5" x1="893.34" y1="1016.85" x2="893.18" y2="517.06"/>
    <rect class="cls-14" x="886.66" y="554.99" width="13.2" height="13.2"/>
    <rect class="cls-14" x="886.66" y="571.14" width="13.2" height="13.2"/>
    <rect class="cls-14" x="886.66" y="635.58" width="13.2" height="13.2"/>
    <rect class="cls-14" x="886.66" y="667.88" width="13.2" height="13.2"/>
    <rect class="cls-14" x="886.66" y="684.03" width="13.2" height="13.2"/>
    <rect class="cls-14" x="886.66" y="732.32" width="13.2" height="13.2"/>
    <rect class="cls-14" x="886.66" y="796.76" width="13.2" height="13.2"/>
    <rect class="cls-14" x="886.66" y="829.06" width="13.2" height="13.2"/>
    <line class="cls-5" x1="1130.05" y1="1016.85" x2="1129.89" y2="517.06"/>
    <rect class="cls-21" x="1123.38" y="732.32" width="13.2" height="13.2"/>
    <rect class="cls-21" x="1123.38" y="861.36" width="13.2" height="13.2"/>
    <line class="cls-5" x1="1312.15" y1="1016.85" x2="1311.99" y2="517.06"/>
    <rect class="cls-29" x="1305.47" y="861.36" width="13.2" height="13.2"/>
    <text class="cls-30" transform="translate(787.4 523.91) rotate(-90)" style="white-space: pre;">TIRAR FOTOS E GRAVAR VÍDEOS</text>
    <line class="cls-35" x1="784.08" y1="1016.85" x2="783.92" y2="517.06"/>
    <rect class="cls-27" x="777.4" y="539" width="13.2" height="13.2"/>
    <rect class="cls-27" x="777.4" y="554.99" width="13.2" height="13.2"/>
    <rect class="cls-27" x="777.4" y="571.14" width="13.2" height="13.2"/>
    <rect class="cls-27" x="777.4" y="603.44" width="13.2" height="13.2"/>
    <rect class="cls-27" x="777.4" y="635.58" width="13.2" height="13.2"/>
    <rect class="cls-27" x="777.4" y="651.73" width="13.2" height="13.2"/>
    <rect class="cls-27" x="777.4" y="667.88" width="13.2" height="13.2"/>
    <rect class="cls-27" x="777.4" y="684.03" width="13.2" height="13.2"/>
    <rect class="cls-27" x="777.4" y="700.18" width="13.2" height="13.2"/>
    <rect class="cls-27" x="777.4" y="732.32" width="13.2" height="13.2"/>
    <rect class="cls-27" x="777.4" y="796.76" width="13.2" height="13.2"/>
    <rect class="cls-27" x="777.4" y="829.06" width="13.2" height="13.2"/>
    <rect class="cls-27" x="777.4" y="845.21" width="13.2" height="13.2"/>
    <rect class="cls-27" x="777.4" y="861.36" width="13.2" height="13.2"/>
    <text class="cls-36" transform="translate(842.03 523.91) rotate(-90)" style="white-space: pre;">CONTROLAR VIBRAÇÃO</text>
    <line class="cls-5" x1="838.71" y1="1016.85" x2="838.55" y2="517.06"/>
    <rect class="cls-37" x="832.03" y="571.14" width="13.2" height="13.2"/>
    <rect class="cls-37" x="832.03" y="603.44" width="13.2" height="13.2"/>
    <rect class="cls-37" x="832.03" y="619.59" width="13.2" height="13.2"/>
    <rect class="cls-37" x="832.03" y="635.58" width="13.2" height="13.2"/>
    <rect class="cls-37" x="832.03" y="651.73" width="13.2" height="13.2"/>
    <rect class="cls-37" x="832.03" y="667.88" width="13.2" height="13.2"/>
    <rect class="cls-37" x="832.03" y="716.17" width="13.2" height="13.2"/>
    <rect class="cls-37" x="832.03" y="732.32" width="13.2" height="13.2"/>
    <rect class="cls-37" x="832.03" y="748.47" width="13.2" height="13.2"/>
    <rect class="cls-37" x="832.03" y="812.91" width="13.2" height="13.2"/>
    <rect class="cls-37" x="832.03" y="845.21" width="13.2" height="13.2"/>
    <rect class="cls-37" x="832.03" y="861.36" width="13.2" height="13.2"/>
    <rect class="cls-37" x="832.03" y="877.35" width="13.2" height="13.2"/>
    <text class="cls-12" transform="translate(933.07 523.91) rotate(-90)" style="white-space: pre;">PAREAR COM DISPOSITIVOS BLUETOOTH</text>
    <line class="cls-5" x1="929.75" y1="1016.85" x2="929.59" y2="517.06"/>
    <rect class="cls-13" x="923.08" y="554.99" width="13.2" height="13.2"/>
    <rect class="cls-13" x="923.08" y="571.14" width="13.2" height="13.2"/>
    <rect class="cls-13" x="923.08" y="587.29" width="13.2" height="13.2"/>
    <rect class="cls-13" x="923.08" y="796.76" width="13.2" height="13.2"/>
    <rect class="cls-13" x="923.08" y="829.06" width="13.2" height="13.2"/>
    <rect class="cls-13" x="923.08" y="877.35" width="13.2" height="13.2"/>
    <line class="cls-5" x1="947.96" y1="1016.85" x2="947.8" y2="517.06"/>
    <text class="cls-38" transform="translate(951.28 523.91) rotate(-90)" style="white-space: pre;">EXECUTAR SERVIÇO EM PRIMEIRO PLANO</text>
    <rect class="cls-39" x="941.28" y="587.29" width="13.2" height="13.2"/>
    <rect class="cls-39" x="941.28" y="619.59" width="13.2" height="13.2"/>
    <rect class="cls-39" x="941.28" y="700.18" width="13.2" height="13.2"/>
    <rect class="cls-39" x="941.28" y="877.35" width="13.2" height="13.2"/>
    <text class="cls-40" transform="translate(878.45 523.91) rotate(-90)" style="white-space: pre;">LER NOTIF. DE DISTINTIVO</text>
    <line class="cls-5" x1="875.13" y1="1016.85" x2="874.97" y2="517.06"/>
    <rect class="cls-41" x="868.45" y="571.14" width="13.2" height="13.2"/>
    <rect class="cls-41" x="868.45" y="603.44" width="13.2" height="13.2"/>
    <rect class="cls-41" x="868.45" y="619.59" width="13.2" height="13.2"/>
    <rect class="cls-41" x="868.45" y="635.58" width="13.2" height="13.2"/>
    <rect class="cls-41" x="868.45" y="651.73" width="13.2" height="13.2"/>
    <rect class="cls-41" x="868.45" y="716.17" width="13.2" height="13.2"/>
    <rect class="cls-41" x="868.45" y="748.47" width="13.2" height="13.2"/>
    <rect class="cls-41" x="868.45" y="764.62" width="13.2" height="13.2"/>
    <rect class="cls-41" x="868.45" y="877.35" width="13.2" height="13.2"/>
    <text class="cls-42" transform="translate(860.24 523.91) rotate(-90)" style="white-space: pre;">API DE REFERÊNCIA DE INSTALAÇÃO DO GOOGLE PLAY</text>
    <line class="cls-43" x1="856.92" y1="1010.45" x2="856.76" y2="510.66"/>
    <rect class="cls-29" x="850.24" y="532.6" width="13.2" height="13.2"/>
    <rect class="cls-29" x="850.24" y="564.74" width="13.2" height="13.2"/>
    <rect class="cls-29" x="850.24" y="580.89" width="13.2" height="13.2"/>
    <rect class="cls-29" x="850.24" y="597.04" width="13.2" height="13.2"/>
    <rect class="cls-29" x="850.24" y="645.33" width="13.2" height="13.2"/>
    <rect class="cls-29" x="850.24" y="661.48" width="13.2" height="13.2"/>
    <rect class="cls-29" x="850.24" y="693.78" width="13.2" height="13.2"/>
    <rect class="cls-29" x="850.24" y="742.07" width="13.2" height="13.2"/>
    <rect class="cls-29" x="850.24" y="758.22" width="13.2" height="13.2"/>
    <rect class="cls-29" x="850.24" y="790.36" width="13.2" height="13.2"/>
    <rect class="cls-29" x="850.24" y="822.66" width="13.2" height="13.2"/>
    <rect class="cls-29" x="850.24" y="887.1" width="13.2" height="13.2"/>
    <line class="cls-5" x1="1330.35" y1="1016.85" x2="1330.19" y2="517.06"/>
    <rect class="cls-45" x="1323.68" y="909.65" width="13.2" height="13.2"/>
    <text class="cls-46" transform="translate(714.56 523.91) rotate(-90)" style="white-space: pre;">ALTERAR OU EXCLUIR CONTEÚDO DE ARMAZ. COMPARTILHADO</text>
    <line class="cls-47" x1="711.25" y1="1016.85" x2="711.09" y2="517.06"/>
    <rect class="cls-21" x="704.57" y="539" width="13.2" height="13.2"/>
    <rect class="cls-21" x="704.57" y="554.99" width="13.2" height="13.2"/>
    <rect class="cls-21" x="704.57" y="571.14" width="13.2" height="13.2"/>
    <rect class="cls-21" x="704.57" y="603.44" width="13.2" height="13.2"/>
    <rect class="cls-21" x="704.57" y="619.59" width="13.2" height="13.2"/>
    <rect class="cls-21" x="704.57" y="635.58" width="13.2" height="13.2"/>
    <rect class="cls-21" x="704.57" y="651.73" width="13.2" height="13.2"/>
    <rect class="cls-21" x="704.57" y="667.88" width="13.2" height="13.2"/>
    <rect class="cls-21" x="704.57" y="684.03" width="13.2" height="13.2"/>
    <rect class="cls-21" x="704.57" y="716.17" width="13.2" height="13.2"/>
    <rect class="cls-21" x="704.57" y="732.32" width="13.2" height="13.2"/>
    <rect class="cls-21" x="704.57" y="748.47" width="13.2" height="13.2"/>
    <rect class="cls-21" x="704.57" y="764.62" width="13.2" height="13.2"/>
    <rect class="cls-21" x="704.57" y="780.77" width="13.2" height="13.2"/>
    <rect class="cls-21" x="704.57" y="796.76" width="13.2" height="13.2"/>
    <rect class="cls-21" x="704.57" y="812.91" width="13.2" height="13.2"/>
    <rect class="cls-21" x="704.57" y="829.06" width="13.2" height="13.2"/>
    <rect class="cls-21" x="704.57" y="861.36" width="13.2" height="13.2"/>
    <rect class="cls-21" x="704.57" y="893.5" width="13.2" height="13.2"/>
    <rect class="cls-21" x="704.57" y="909.65" width="13.2" height="13.2"/>
    <text class="cls-24" transform="translate(769.19 523.91) rotate(-90)" style="white-space: pre;">LER CONTEÚDO DE ARMAZ. COMPARTILHADO</text>
    <line class="cls-5" x1="765.87" y1="1016.85" x2="765.71" y2="517.06"/>
    <rect class="cls-25" x="759.19" y="539" width="13.2" height="13.2"/>
    <rect class="cls-25" x="759.19" y="554.99" width="13.2" height="13.2"/>
    <rect class="cls-25" x="759.19" y="571.14" width="13.2" height="13.2"/>
    <rect class="cls-25" x="759.19" y="603.44" width="13.2" height="13.2"/>
    <rect class="cls-25" x="759.19" y="619.59" width="13.2" height="13.2"/>
    <rect class="cls-25" x="759.19" y="635.58" width="13.2" height="13.2"/>
    <rect class="cls-25" x="759.19" y="651.73" width="13.2" height="13.2"/>
    <rect class="cls-25" x="759.19" y="667.88" width="13.2" height="13.2"/>
    <rect class="cls-25" x="759.19" y="684.03" width="13.2" height="13.2"/>
    <rect class="cls-25" x="759.19" y="716.17" width="13.2" height="13.2"/>
    <rect class="cls-25" x="759.19" y="732.32" width="13.2" height="13.2"/>
    <rect class="cls-25" x="759.19" y="748.47" width="13.2" height="13.2"/>
    <rect class="cls-25" x="759.19" y="764.62" width="13.2" height="13.2"/>
    <rect class="cls-25" x="759.19" y="780.77" width="13.2" height="13.2"/>
    <rect class="cls-25" x="759.19" y="796.76" width="13.2" height="13.2"/>
    <rect class="cls-25" x="759.19" y="812.91" width="13.2" height="13.2"/>
    <rect class="cls-25" x="759.19" y="829.06" width="13.2" height="13.2"/>
    <rect class="cls-25" x="759.19" y="861.36" width="13.2" height="13.2"/>
    <rect class="cls-25" x="759.19" y="893.5" width="13.2" height="13.2"/>
    <rect class="cls-25" x="759.19" y="909.65" width="13.2" height="13.2"/>
    <line class="cls-5" x1="966.17" y1="1016.85" x2="966.01" y2="517.06"/>
    <rect class="cls-14" x="959.49" y="539" width="13.2" height="13.2"/>
    <rect class="cls-14" x="959.49" y="667.88" width="13.2" height="13.2"/>
    <rect class="cls-14" x="959.49" y="845.21" width="13.2" height="13.2"/>
    <rect class="cls-14" x="959.49" y="925.8" width="13.2" height="13.2"/>
    <text class="cls-48" transform="translate(805.61 523.91) rotate(-90)" style="white-space: pre;">EXECUTAR NA INICIALIZAÇÃO</text>
    <line class="cls-5" x1="802.29" y1="1016.85" x2="802.13" y2="517.06"/>
    <rect class="cls-45" x="795.61" y="539" width="13.2" height="13.2"/>
    <rect class="cls-45" x="795.61" y="554.99" width="13.2" height="13.2"/>
    <rect class="cls-45" x="795.61" y="571.14" width="13.2" height="13.2"/>
    <rect class="cls-45" x="795.61" y="587.29" width="13.2" height="13.2"/>
    <rect class="cls-45" x="795.61" y="603.44" width="13.2" height="13.2"/>
    <rect class="cls-45" x="795.61" y="619.59" width="13.2" height="13.2"/>
    <rect class="cls-45" x="795.61" y="700.18" width="13.2" height="13.2"/>
    <rect class="cls-45" x="795.61" y="716.17" width="13.2" height="13.2"/>
    <rect class="cls-45" x="795.61" y="748.47" width="13.2" height="13.2"/>
    <rect class="cls-45" x="795.61" y="764.62" width="13.2" height="13.2"/>
    <rect class="cls-45" x="795.61" y="812.91" width="13.2" height="13.2"/>
    <rect class="cls-45" x="795.61" y="845.21" width="13.2" height="13.2"/>
    <rect class="cls-45" x="795.61" y="877.35" width="13.2" height="13.2"/>
    <rect class="cls-45" x="795.61" y="925.8" width="13.2" height="13.2"/>
    <text class="cls-31" transform="translate(823.82 523.91) rotate(-90)" style="white-space: pre;">VER CONEXÕES DE WI-FI</text>
    <line class="cls-5" x1="820.5" y1="1016.85" x2="820.34" y2="517.06"/>
    <rect class="cls-32" x="813.82" y="539" width="13.2" height="13.2"/>
    <rect class="cls-32" x="813.82" y="571.14" width="13.2" height="13.2"/>
    <rect class="cls-32" x="813.82" y="587.29" width="13.2" height="13.2"/>
    <rect class="cls-32" x="813.82" y="603.44" width="13.2" height="13.2"/>
    <rect class="cls-32" x="813.82" y="619.59" width="13.2" height="13.2"/>
    <rect class="cls-32" x="813.82" y="635.58" width="13.2" height="13.2"/>
    <rect class="cls-32" x="813.82" y="651.73" width="13.2" height="13.2"/>
    <rect class="cls-32" x="813.82" y="684.03" width="13.2" height="13.2"/>
    <rect class="cls-32" x="813.82" y="700.18" width="13.2" height="13.2"/>
    <rect class="cls-32" x="813.82" y="716.17" width="13.2" height="13.2"/>
    <rect class="cls-32" x="813.82" y="748.47" width="13.2" height="13.2"/>
    <rect class="cls-32" x="813.82" y="764.62" width="13.2" height="13.2"/>
    <rect class="cls-32" x="813.82" y="941.95" width="13.2" height="13.2"/>
    <text class="cls-49" transform="translate(678.14 523.91) rotate(-90)" style="white-space: pre;">IMPEDIR MODO DE INATIVIDADE DO TELEFONE</text>
    <line class="cls-50" x1="674.83" y1="1016.85" x2="674.67" y2="517.06"/>
    <rect class="cls-32" x="668.15" y="539" width="13.2" height="13.2"/>
    <rect class="cls-32" x="668.15" y="554.99" width="13.2" height="13.2"/>
    <rect class="cls-32" x="668.15" y="571.14" width="13.2" height="13.2"/>
    <rect class="cls-32" x="668.15" y="587.29" width="13.2" height="13.2"/>
    <rect class="cls-32" x="668.15" y="603.44" width="13.2" height="13.2"/>
    <rect class="cls-32" x="668.15" y="619.59" width="13.2" height="13.2"/>
    <rect class="cls-32" x="668.15" y="635.58" width="13.2" height="13.2"/>
    <rect class="cls-32" x="668.15" y="651.73" width="13.2" height="13.2"/>
    <rect class="cls-32" x="668.15" y="667.88" width="13.2" height="13.2"/>
    <rect class="cls-32" x="668.15" y="684.03" width="13.2" height="13.2"/>
    <rect class="cls-32" x="668.15" y="700.18" width="13.2" height="13.2"/>
    <rect class="cls-32" x="668.15" y="716.17" width="13.2" height="13.2"/>
    <rect class="cls-32" x="668.15" y="732.32" width="13.2" height="13.2"/>
    <rect class="cls-32" x="668.15" y="748.47" width="13.2" height="13.2"/>
    <rect class="cls-32" x="668.15" y="764.62" width="13.2" height="13.2"/>
    <rect class="cls-32" x="668.15" y="780.77" width="13.2" height="13.2"/>
    <rect class="cls-32" x="668.15" y="796.76" width="13.2" height="13.2"/>
    <rect class="cls-32" x="668.15" y="812.91" width="13.2" height="13.2"/>
    <rect class="cls-32" x="668.15" y="829.06" width="13.2" height="13.2"/>
    <rect class="cls-32" x="668.15" y="845.21" width="13.2" height="13.2"/>
    <rect class="cls-32" x="668.15" y="861.36" width="13.2" height="13.2"/>
    <rect class="cls-32" x="668.15" y="877.35" width="13.2" height="13.2"/>
    <rect class="cls-32" x="668.15" y="893.5" width="13.2" height="13.2"/>
    <rect class="cls-32" x="668.15" y="909.65" width="13.2" height="13.2"/>
    <rect class="cls-32" x="668.15" y="925.8" width="13.2" height="13.2"/>
    <rect class="cls-32" x="668.15" y="957.94" width="13.2" height="13.2"/>
    <text class="cls-16" transform="translate(696.35 523.91) rotate(-90)" style="white-space: pre;">RECEBER DADOS DA INTERNET</text>
    <line class="cls-5" x1="693.04" y1="1016.85" x2="692.88" y2="517.06"/>
    <rect class="cls-17" x="686.36" y="539" width="13.2" height="13.2"/>
    <rect class="cls-17" x="686.36" y="554.99" width="13.2" height="13.2"/>
    <rect class="cls-17" x="686.36" y="571.14" width="13.2" height="13.2"/>
    <rect class="cls-17" x="686.36" y="587.29" width="13.2" height="13.2"/>
    <rect class="cls-17" x="686.36" y="603.44" width="13.2" height="13.2"/>
    <rect class="cls-17" x="686.36" y="619.59" width="13.2" height="13.2"/>
    <rect class="cls-17" x="686.36" y="635.58" width="13.2" height="13.2"/>
    <rect class="cls-17" x="686.36" y="651.73" width="13.2" height="13.2"/>
    <rect class="cls-17" x="686.36" y="667.88" width="13.2" height="13.2"/>
    <rect class="cls-17" x="686.36" y="684.03" width="13.2" height="13.2"/>
    <rect class="cls-17" x="686.36" y="700.18" width="13.2" height="13.2"/>
    <rect class="cls-17" x="686.36" y="716.17" width="13.2" height="13.2"/>
    <rect class="cls-17" x="686.36" y="732.32" width="13.2" height="13.2"/>
    <rect class="cls-17" x="686.36" y="748.47" width="13.2" height="13.2"/>
    <rect class="cls-17" x="686.36" y="764.62" width="13.2" height="13.2"/>
    <rect class="cls-17" x="686.36" y="780.77" width="13.2" height="13.2"/>
    <rect class="cls-17" x="686.36" y="796.76" width="13.2" height="13.2"/>
    <rect class="cls-17" x="686.36" y="812.91" width="13.2" height="13.2"/>
    <rect class="cls-17" x="686.36" y="829.06" width="13.2" height="13.2"/>
    <rect class="cls-17" x="686.36" y="845.21" width="13.2" height="13.2"/>
    <rect class="cls-17" x="686.36" y="877.35" width="13.2" height="13.2"/>
    <rect class="cls-17" x="686.36" y="893.5" width="13.2" height="13.2"/>
    <rect class="cls-17" x="686.36" y="909.65" width="13.2" height="13.2"/>
    <rect class="cls-17" x="686.36" y="925.8" width="13.2" height="13.2"/>
    <rect class="cls-17" x="686.36" y="957.94" width="13.2" height="13.2"/>
    <text class="cls-2" transform="translate(659.93 523.91) rotate(-90)" style="white-space: pre;">VER CONEXÕES DE REDE</text>
    <line class="cls-51" x1="656.62" y1="1016.85" x2="656.46" y2="517.06"/>
    <rect class="cls-14" x="649.94" y="539" width="13.2" height="13.2"/>
    <rect class="cls-14" x="649.94" y="554.99" width="13.2" height="13.2"/>
    <rect class="cls-14" x="649.94" y="571.14" width="13.2" height="13.2"/>
    <rect class="cls-14" x="649.94" y="587.29" width="13.2" height="13.2"/>
    <rect class="cls-14" x="649.94" y="603.44" width="13.2" height="13.2"/>
    <rect class="cls-14" x="649.94" y="619.59" width="13.2" height="13.2"/>
    <rect class="cls-14" x="649.94" y="635.58" width="13.2" height="13.2"/>
    <rect class="cls-14" x="649.94" y="651.73" width="13.2" height="13.2"/>
    <rect class="cls-14" x="649.94" y="667.88" width="13.2" height="13.2"/>
    <rect class="cls-14" x="649.94" y="684.03" width="13.2" height="13.2"/>
    <rect class="cls-14" x="649.94" y="700.18" width="13.2" height="13.2"/>
    <rect class="cls-14" x="649.94" y="716.17" width="13.2" height="13.2"/>
    <rect class="cls-14" x="649.94" y="732.32" width="13.2" height="13.2"/>
    <rect class="cls-14" x="649.94" y="748.47" width="13.2" height="13.2"/>
    <rect class="cls-14" x="649.94" y="764.62" width="13.2" height="13.2"/>
    <rect class="cls-14" x="649.94" y="780.77" width="13.2" height="13.2"/>
    <rect class="cls-14" x="649.94" y="796.76" width="13.2" height="13.2"/>
    <rect class="cls-14" x="649.94" y="812.91" width="13.2" height="13.2"/>
    <rect class="cls-14" x="649.94" y="829.06" width="13.2" height="13.2"/>
    <rect class="cls-14" x="649.94" y="845.21" width="13.2" height="13.2"/>
    <rect class="cls-14" x="649.94" y="861.36" width="13.2" height="13.2"/>
    <rect class="cls-14" x="649.94" y="877.35" width="13.2" height="13.2"/>
    <rect class="cls-14" x="649.94" y="893.5" width="13.2" height="13.2"/>
    <rect class="cls-14" x="649.94" y="909.65" width="13.2" height="13.2"/>
    <rect class="cls-14" x="649.94" y="925.8" width="13.2" height="13.2"/>
    <rect class="cls-14" x="649.94" y="941.95" width="13.2" height="13.2"/>
    <rect class="cls-14" x="649.94" y="957.94" width="13.2" height="13.2"/>
    <text class="cls-15" transform="translate(750.98 523.91) rotate(-90)" style="white-space: pre;">ACESSAR LOCAL APROXIMADO APENAS EM PRIMEIRO PLANO</text>
    <line class="cls-52" x1="747.25" y1="1016.85" x2="747.09" y2="517.06"/>
    <rect class="cls-11" x="740.98" y="539" width="13.2" height="13.2"/>
    <rect class="cls-11" x="740.98" y="554.99" width="13.2" height="13.2"/>
    <rect class="cls-11" x="740.98" y="571.14" width="13.2" height="13.2"/>
    <rect class="cls-11" x="740.98" y="587.29" width="13.2" height="13.2"/>
    <rect class="cls-11" x="740.98" y="603.44" width="13.2" height="13.2"/>
    <rect class="cls-11" x="740.98" y="619.59" width="13.2" height="13.2"/>
    <rect class="cls-11" x="740.98" y="635.58" width="13.2" height="13.2"/>
    <rect class="cls-11" x="740.98" y="651.73" width="13.2" height="13.2"/>
    <rect class="cls-11" x="740.98" y="667.88" width="13.2" height="13.2"/>
    <rect class="cls-11" x="740.98" y="684.03" width="13.2" height="13.2"/>
    <rect class="cls-11" x="740.98" y="700.18" width="13.2" height="13.2"/>
    <rect class="cls-11" x="740.98" y="716.17" width="13.2" height="13.2"/>
    <rect class="cls-11" x="740.98" y="732.32" width="13.2" height="13.2"/>
    <rect class="cls-11" x="740.98" y="780.77" width="13.2" height="13.2"/>
    <rect class="cls-11" x="740.98" y="812.91" width="13.2" height="13.2"/>
    <rect class="cls-11" x="740.98" y="893.5" width="13.2" height="13.2"/>
    <rect class="cls-11" x="740.98" y="941.95" width="13.2" height="13.2"/>
    <rect class="cls-11" x="740.98" y="974.09" width="13.2" height="13.2"/>
    <text class="cls-53" transform="translate(732.77 523.91) rotate(-90)" style="white-space: pre;">ACESSAR LOCALIZAÇÃO PRECISA APENAS EM PRIMEIRO PLANO</text>
    <line class="cls-5" x1="729.45" y1="1016.85" x2="729.29" y2="517.06"/>
    <rect class="cls-54" x="722.78" y="539" width="13.2" height="13.2"/>
    <rect class="cls-54" x="722.78" y="554.99" width="13.2" height="13.2"/>
    <rect class="cls-54" x="722.78" y="571.14" width="13.2" height="13.2"/>
    <rect class="cls-54" x="722.78" y="587.29" width="13.2" height="13.2"/>
    <rect class="cls-54" x="722.78" y="603.44" width="13.2" height="13.2"/>
    <rect class="cls-54" x="722.78" y="619.59" width="13.2" height="13.2"/>
    <rect class="cls-54" x="722.78" y="635.58" width="13.2" height="13.2"/>
    <rect class="cls-54" x="722.78" y="651.73" width="13.2" height="13.2"/>
    <rect class="cls-54" x="722.78" y="667.88" width="13.2" height="13.2"/>
    <rect class="cls-54" x="722.78" y="684.03" width="13.2" height="13.2"/>
    <rect class="cls-54" x="722.78" y="700.18" width="13.2" height="13.2"/>
    <rect class="cls-54" x="722.78" y="716.17" width="13.2" height="13.2"/>
    <rect class="cls-54" x="722.78" y="732.32" width="13.2" height="13.2"/>
    <rect class="cls-54" x="722.78" y="764.62" width="13.2" height="13.2"/>
    <rect class="cls-54" x="722.78" y="780.77" width="13.2" height="13.2"/>
    <rect class="cls-54" x="722.78" y="812.91" width="13.2" height="13.2"/>
    <rect class="cls-54" x="722.78" y="845.21" width="13.2" height="13.2"/>
    <rect class="cls-54" x="722.78" y="893.5" width="13.2" height="13.2"/>
    <rect class="cls-54" x="722.78" y="941.95" width="13.2" height="13.2"/>
    <rect class="cls-54" x="722.78" y="974.09" width="13.2" height="13.2"/>
    <text class="cls-36" transform="translate(641.73 523.91) rotate(-90)" style="white-space: pre;">TER ACESSO TOTAL À REDE</text>
    <line class="cls-5" x1="638.41" y1="1016.85" x2="638.25" y2="517.06"/>
    <rect class="cls-37" x="631.73" y="539" width="13.2" height="13.2"/>
    <rect class="cls-37" x="631.73" y="554.99" width="13.2" height="13.2"/>
    <rect class="cls-37" x="631.73" y="571.14" width="13.2" height="13.2"/>
    <rect class="cls-37" x="631.73" y="587.29" width="13.2" height="13.2"/>
    <rect class="cls-37" x="631.73" y="603.44" width="13.2" height="13.2"/>
    <rect class="cls-37" x="631.73" y="619.59" width="13.2" height="13.2"/>
    <rect class="cls-37" x="631.73" y="635.58" width="13.2" height="13.2"/>
    <rect class="cls-37" x="631.73" y="651.73" width="13.2" height="13.2"/>
    <rect class="cls-37" x="631.73" y="667.88" width="13.2" height="13.2"/>
    <rect class="cls-37" x="631.73" y="684.03" width="13.2" height="13.2"/>
    <rect class="cls-37" x="631.73" y="700.18" width="13.2" height="13.2"/>
    <rect class="cls-37" x="631.73" y="716.17" width="13.2" height="13.2"/>
    <rect class="cls-37" x="631.73" y="732.32" width="13.2" height="13.2"/>
    <rect class="cls-37" x="631.73" y="748.47" width="13.2" height="13.2"/>
    <rect class="cls-37" x="631.73" y="764.62" width="13.2" height="13.2"/>
    <rect class="cls-37" x="631.73" y="780.77" width="13.2" height="13.2"/>
    <rect class="cls-37" x="631.73" y="796.76" width="13.2" height="13.2"/>
    <rect class="cls-37" x="631.73" y="812.91" width="13.2" height="13.2"/>
    <rect class="cls-37" x="631.73" y="829.06" width="13.2" height="13.2"/>
    <rect class="cls-37" x="631.73" y="845.21" width="13.2" height="13.2"/>
    <rect class="cls-37" x="631.73" y="861.36" width="13.2" height="13.2"/>
    <rect class="cls-37" x="631.73" y="877.35" width="13.2" height="13.2"/>
    <rect class="cls-37" x="631.73" y="893.5" width="13.2" height="13.2"/>
    <rect class="cls-37" x="631.73" y="909.65" width="13.2" height="13.2"/>
    <rect class="cls-37" x="631.73" y="925.8" width="13.2" height="13.2"/>
    <rect class="cls-37" x="631.73" y="941.95" width="13.2" height="13.2"/>
    <rect class="cls-37" x="631.73" y="957.94" width="13.2" height="13.2"/>
    <rect class="cls-37" x="631.73" y="974.09" width="13.2" height="13.2"/>
    <rect class="cls-37" x="631.73" y="990.24" width="13.2" height="13.2"/>
    <text class="cls-55" style="white-space: pre;" transform="translate(1440.6 457.13)">INFORMAÇÕES<tspan x="0" y="18.17">ACESSADAS</tspan></text>
    <path class="cls-56" d="M1446.5,497.56h4.56l-4.56-4.76h7.8v-3.42h-7.8l4.56-4.75h-4.56l-5.9,6.46Z"/>
    <text class="cls-55" transform="translate(573.07 440.23)" style="white-space: pre;">APPS<tspan x="-24.48" y="18.17">GOOGLE</tspan><tspan x="-0.14" y="36.33">PLAY</tspan></text>
    <path class="cls-56" d="M604.53,498.24H600l4.57-4.76h-7.8v-3.42h7.8L600,485.31h4.57l5.89,6.47Z"/>
  </g>
</svg>