<svg id="Layer_1" data-name="Layer 1" xmlns="http://www.w3.org/2000/svg" viewBox="0 0 768 1045.83"><defs><style>.cls-1{fill:#030420;}.cls-2,.cls-8{fill:none;stroke:#fff;stroke-miterlimit:10;}.cls-2{stroke-width:0.68px;}.cls-3,.cls-6{font-size:33px;font-family:OpenSans-Bold, Open Sans;font-weight:700;text-decoration:underline;}.cls-3,.cls-4{fill:#1a5dff;}.cls-5,.cls-6{fill:#83e084;}.cls-7{font-size:20px;}.cls-10,.cls-7,.cls-9{fill:#fff;}.cls-7,.cls-9{font-family:OpenSans, Open Sans;}.cls-8{stroke-width:0.54px;}.cls-9{font-size:24px;letter-spacing:0.04em;}</style></defs><rect class="cls-1" x="-8.54" y="-278.39" width="776.54" height="1477.12"/><line class="cls-2" x1="57.29" y1="871.44" x2="710.71" y2="871.44"/><text class="cls-3" transform="translate(573.25 837.69)">4</text><rect class="cls-4" x="577.25" y="854.41" width="70.09" height="17.03"/><rect class="cls-4" x="376.8" y="701.17" width="70.09" height="170.27"/><rect class="cls-5" x="376.8" y="633.07" width="70.09" height="68.11"/><rect class="cls-4" x="161.91" y="411.72" width="70.09" height="459.72"/><rect class="cls-5" x="161.91" y="292.53" width="70.09" height="119.19"/><text class="cls-3" transform="translate(118.66 430.33)">65</text><text class="cls-6" transform="translate(116.66 308.53)">20</text><text class="cls-3" transform="translate(350.97 724.42)">2</text><text class="cls-6" transform="translate(350.86 654.05)">5</text><text class="cls-7" transform="translate(133.23 899.62)">RESPONDIDO</text><text class="cls-7" transform="translate(363.46 899.62)">RESPOSTA<tspan x="-30.27" y="24" xml:space="preserve"> INSATISFATÓRIA</tspan></text><text class="cls-7" transform="translate(550.76 900.44)">INDICAÇÃO DE <tspan x="-1.02" y="24">OUTRO ÓRGÃO</tspan></text><line class="cls-2" x1="57.29" y1="871.44" x2="710.71" y2="871.44"/><line class="cls-8" x1="-8.54" y1="1032.95" x2="768" y2="1032.95"/><text class="cls-9" transform="translate(120.98 153)">ATRASADO</text><rect class="cls-5" x="92.31" y="102.1" width="107.52" height="12.19"/><path class="cls-10" d="M332.12,148v7.12h-2V137.94h4.72a7.43,7.43,0,0,1,4.68,1.21,4.35,4.35,0,0,1,1.51,3.63,4.54,4.54,0,0,1-3.46,4.59l4.68,7.7h-2.37L335.71,148Zm0-1.71h2.75a4.73,4.73,0,0,0,3.1-.84,3.11,3.11,0,0,0,1-2.51,2.85,2.85,0,0,0-1-2.45,5.47,5.47,0,0,0-3.23-.75h-2.61Z"/><path class="cls-10" d="M355.58,155.07H346V137.94h9.59v1.77H348v5.52h7.13V147H348v6.3h7.59Z"/><path class="cls-10" d="M370.07,150.52a4.18,4.18,0,0,1-1.65,3.52,7.13,7.13,0,0,1-4.47,1.27,11.15,11.15,0,0,1-4.71-.79V152.6a12,12,0,0,0,2.31.7,11.59,11.59,0,0,0,2.47.26,5,5,0,0,0,3-.75,2.48,2.48,0,0,0,1-2.11,2.7,2.7,0,0,0-.36-1.46,3.43,3.43,0,0,0-1.2-1.05,16.17,16.17,0,0,0-2.56-1.08,8.32,8.32,0,0,1-3.43-2,4.49,4.49,0,0,1-1-3.06,3.79,3.79,0,0,1,1.5-3.15,6.21,6.21,0,0,1,4-1.18,11.77,11.77,0,0,1,4.72.94l-.62,1.74a10.58,10.58,0,0,0-4.14-.89,4,4,0,0,0-2.49.68,2.24,2.24,0,0,0-.89,1.88,2.87,2.87,0,0,0,.33,1.46,3,3,0,0,0,1.11,1,13.38,13.38,0,0,0,2.39,1.05,9.41,9.41,0,0,1,3.73,2.07A4,4,0,0,1,370.07,150.52Z"/><path class="cls-10" d="M385.46,142.93a4.8,4.8,0,0,1-1.78,4,8.13,8.13,0,0,1-5.1,1.4h-2v6.73h-2V137.94H379C383.31,137.94,385.46,139.61,385.46,142.93Zm-8.91,3.69h1.8a6.73,6.73,0,0,0,3.85-.85,3.16,3.16,0,0,0,1.19-2.74,2.92,2.92,0,0,0-1.12-2.53,5.79,5.79,0,0,0-3.48-.84h-2.24Z"/><path class="cls-10" d="M405,146.48a9.36,9.36,0,0,1-2.09,6.47,8.44,8.44,0,0,1-11.67,0,11.27,11.27,0,0,1,0-13,7.54,7.54,0,0,1,5.89-2.3,7.33,7.33,0,0,1,5.79,2.35A9.36,9.36,0,0,1,405,146.48Zm-13.71,0a8.13,8.13,0,0,0,1.49,5.28,6.1,6.1,0,0,0,8.64,0,10.25,10.25,0,0,0,0-10.53,5.22,5.22,0,0,0-4.3-1.79,5.31,5.31,0,0,0-4.35,1.8A8,8,0,0,0,391.25,146.48Z"/><path class="cls-10" d="M419.47,150.52a4.2,4.2,0,0,1-1.64,3.52,7.14,7.14,0,0,1-4.48,1.27,11.15,11.15,0,0,1-4.71-.79V152.6a12.22,12.22,0,0,0,2.31.7,11.65,11.65,0,0,0,2.47.26,5.06,5.06,0,0,0,3-.75,2.5,2.5,0,0,0,1-2.11,2.7,2.7,0,0,0-.36-1.46,3.43,3.43,0,0,0-1.2-1.05,16.59,16.59,0,0,0-2.56-1.08,8.25,8.25,0,0,1-3.43-2,4.44,4.44,0,0,1-1-3.06,3.81,3.81,0,0,1,1.49-3.15,6.26,6.26,0,0,1,4-1.18,11.8,11.8,0,0,1,4.72.94l-.63,1.74a10.58,10.58,0,0,0-4.14-.89,4,4,0,0,0-2.48.68,2.22,2.22,0,0,0-.9,1.88,2.87,2.87,0,0,0,.33,1.46,3,3,0,0,0,1.11,1,13.54,13.54,0,0,0,2.4,1.05,9.41,9.41,0,0,1,3.73,2.07A4.06,4.06,0,0,1,419.47,150.52Z"/><path class="cls-10" d="M429.25,155.07h-2V139.71H421.8v-1.77h12.9v1.77h-5.45Z"/><path class="cls-10" d="M449.07,155.07l-2.14-5.45H440l-2.12,5.45h-2l6.8-17.2h1.69l6.76,17.2Zm-2.76-7.24-2-5.31c-.25-.67-.52-1.49-.8-2.47a22,22,0,0,1-.74,2.47l-2,5.31Z"/><path class="cls-10" d="M343.56,183.87h-2.28l-9.4-14.38h-.1c.13,1.69.19,3.24.19,4.65v9.73h-1.85V166.74h2.26l9.38,14.32h.1c0-.21-.05-.89-.11-2s-.07-2-.06-2.46v-9.83h1.87Z"/><path class="cls-10" d="M364.2,175.28a9.41,9.41,0,0,1-2.09,6.47,8.46,8.46,0,0,1-11.68,0,11.29,11.29,0,0,1,0-13,7.51,7.51,0,0,1,5.88-2.3,7.33,7.33,0,0,1,5.79,2.35A9.36,9.36,0,0,1,364.2,175.28Zm-13.72,0a8.13,8.13,0,0,0,1.49,5.28,6.11,6.11,0,0,0,8.65,0,8.26,8.26,0,0,0,1.46-5.29,8.14,8.14,0,0,0-1.46-5.24,5.22,5.22,0,0,0-4.3-1.79,5.31,5.31,0,0,0-4.35,1.8A8,8,0,0,0,350.48,175.28Z"/><path class="cls-10" d="M387.13,171.73a4.77,4.77,0,0,1-1.78,4,8.06,8.06,0,0,1-5.1,1.41h-2v6.73h-2V166.74h4.46Q387.13,166.74,387.13,171.73Zm-8.91,3.69H380a6.71,6.71,0,0,0,3.85-.85,3.16,3.16,0,0,0,1.19-2.74,2.92,2.92,0,0,0-1.12-2.53,5.79,5.79,0,0,0-3.48-.84h-2.24Z"/><path class="cls-10" d="M393.7,176.75v7.12h-2V166.74h4.72A7.43,7.43,0,0,1,401.1,168a4.37,4.37,0,0,1,1.51,3.63,4.55,4.55,0,0,1-3.46,4.59l4.67,7.7h-2.37l-4.16-7.12Zm0-1.71h2.74a4.76,4.76,0,0,0,3.11-.84,3.11,3.11,0,0,0,1-2.51,2.85,2.85,0,0,0-1-2.45,5.47,5.47,0,0,0-3.23-.75h-2.6Z"/><path class="cls-10" d="M418.38,183.87l-2.14-5.45h-6.9l-2.12,5.45h-2l6.8-17.2h1.68l6.77,17.2Zm-2.77-7.24-2-5.31c-.26-.67-.52-1.49-.8-2.47a22,22,0,0,1-.74,2.47l-2,5.31Z"/><path class="cls-10" d="M434.21,183.87H422.38v-1.55l9.13-13.79h-8.85v-1.79H434v1.56l-9.13,13.77h9.39Z"/><path class="cls-10" d="M453.44,175.28a9.41,9.41,0,0,1-2.09,6.47,7.36,7.36,0,0,1-5.81,2.36,7.45,7.45,0,0,1-5.87-2.32,9.51,9.51,0,0,1-2.06-6.53,9.38,9.38,0,0,1,2.07-6.49,7.51,7.51,0,0,1,5.88-2.3,7.31,7.31,0,0,1,5.79,2.35A9.36,9.36,0,0,1,453.44,175.28Zm-13.71,0a8.13,8.13,0,0,0,1.48,5.28,5.31,5.31,0,0,0,4.33,1.8,5.25,5.25,0,0,0,4.32-1.79,10.25,10.25,0,0,0,0-10.53,5.24,5.24,0,0,0-4.31-1.79,5.34,5.34,0,0,0-4.35,1.8A8,8,0,0,0,439.73,175.28Z"/><rect class="cls-4" x="299.09" y="102.1" width="107.52" height="12.19"/></svg>