<svg id="Layer_1" data-name="Layer 1" xmlns="http://www.w3.org/2000/svg" viewBox="0 0 768 1137.07"><defs><style>.cls-1{fill:#030321;}.cls-2,.cls-3,.cls-4{font-size:20px;}.cls-10,.cls-17,.cls-2,.cls-3,.cls-4,.cls-5,.cls-7,.cls-89{fill:#fff;}.cls-2,.cls-4,.cls-5{font-family:OpenSans, Open Sans;}.cls-2{letter-spacing:0.04em;}.cls-3,.cls-6,.cls-7,.cls-89{font-family:OpenSans-Bold, Open Sans;font-weight:700;}.cls-3,.cls-6,.cls-7{text-decoration:underline;}.cls-4{letter-spacing:0.04em;}.cls-5{isolation:isolate;font-size:19px;}.cls-7,.cls-89{font-size:18px;}.cls-10,.cls-8{opacity:0.45;}.cls-9{fill:#bc1d46;}.cls-11{fill:#df4c46;}.cls-12{fill:#f6a020;}.cls-13{fill:#edd38c;}.cls-14{fill:#3a5cdb;}.cls-15{fill:#83e084;}.cls-16{fill:#c5f736;}.cls-18{fill:#7578ff;}.cls-19{fill:#fbc275;}.cls-20{fill:#e7f53e;}.cls-21{fill:#f48eb0;}.cls-22{fill:#ff6c1f;}.cls-23{fill:#d8b64c;}.cls-24{fill:#248ba4;}.cls-25{fill:#ff2e47;}.cls-26{fill:#f2f6e5;}.cls-27{fill:#afb240;}.cls-28{fill:#005efb;}.cls-29{fill:#f4804f;}.cls-30{fill:#fbefa6;}.cls-31{fill:#7dc7a4;}.cls-32{fill:#fce497;}.cls-33{fill:#9b00dd;}.cls-34{fill:#5e4fa0;}.cls-35,.cls-36,.cls-37,.cls-38,.cls-39,.cls-40,.cls-41,.cls-42,.cls-43,.cls-44,.cls-45,.cls-46,.cls-47,.cls-48,.cls-49,.cls-50,.cls-51,.cls-52,.cls-53,.cls-54,.cls-55,.cls-56,.cls-57,.cls-58,.cls-59,.cls-60,.cls-61,.cls-62,.cls-63,.cls-64,.cls-65,.cls-66,.cls-67,.cls-68,.cls-69,.cls-70,.cls-71,.cls-72,.cls-73,.cls-74,.cls-75,.cls-76,.cls-77,.cls-78,.cls-79,.cls-80,.cls-81,.cls-82,.cls-83,.cls-84,.cls-85,.cls-86,.cls-87,.cls-88,.cls-91{fill:none;}.cls-35{stroke:#7dc7a4;}.cls-35,.cls-36,.cls-37,.cls-38,.cls-41,.cls-42,.cls-43,.cls-44,.cls-45,.cls-46,.cls-47,.cls-48,.cls-49,.cls-50,.cls-54,.cls-63,.cls-65,.cls-66,.cls-68,.cls-73{stroke-width:1.16px;}.cls-36{stroke:#9b00dd;}.cls-37{stroke:#ff2e47;}.cls-38,.cls-67,.cls-88,.cls-91{stroke:#fff;}.cls-39,.cls-40,.cls-69,.cls-70{stroke:#edd38c;}.cls-39{stroke-width:5.12px;}.cls-40,.cls-81{stroke-width:0.77px;}.cls-41{stroke:#ff6c1f;}.cls-42{stroke:#5e4fa0;}.cls-43{stroke:#fbc275;}.cls-44{stroke:#d8b64c;}.cls-45{stroke:#7578ff;}.cls-46{stroke:#248ba4;}.cls-47{stroke:#f2f6e5;}.cls-48{stroke:#e7f53e;}.cls-49{stroke:#afb240;}.cls-50{stroke:#005efb;}.cls-51,.cls-71,.cls-72,.cls-73,.cls-74{stroke:#3a5cdb;}.cls-51,.cls-64,.cls-79{stroke-width:4.27px;}.cls-52,.cls-53,.cls-75,.cls-76,.cls-77,.cls-78{stroke:#df4c46;}.cls-52,.cls-56,.cls-82{stroke-width:3.41px;}.cls-53{stroke-width:17.92px;}.cls-54,.cls-62,.cls-83,.cls-84{stroke:#83e084;}.cls-55,.cls-56,.cls-57,.cls-58,.cls-59{stroke:#f6a020;}.cls-55,.cls-67,.cls-74,.cls-77{stroke-width:1.71px;}.cls-57,.cls-76,.cls-83{stroke-width:2.56px;}.cls-58{stroke-width:13.65px;}.cls-59{stroke-width:10.24px;}.cls-60,.cls-61,.cls-79,.cls-80,.cls-81,.cls-82{stroke:#bc1d46;}.cls-60,.cls-86{stroke-width:6.83px;}.cls-61{stroke-width:38.39px;}.cls-62,.cls-78,.cls-87{stroke-width:0.95px;}.cls-63{stroke:#f48eb0;}.cls-64,.cls-85,.cls-86,.cls-87{stroke:#c5f736;}.cls-65{stroke:#fce497;}.cls-66{stroke:#fbefa6;}.cls-68{stroke:#f4804f;}.cls-69,.cls-75{stroke-width:11.09px;}.cls-70,.cls-72{stroke-width:5.97px;}.cls-71,.cls-84,.cls-85{stroke-width:7.68px;}.cls-80{stroke-width:25.59px;}.cls-88{stroke-width:8.53px;}.cls-89{letter-spacing:0.04em;}.cls-90{opacity:0.28;}.cls-91{stroke-miterlimit:10;stroke-width:0.54px;}</style></defs><rect id="backgorund" class="cls-1" x="-2.71" y="-478.53" width="778.41" height="1774.87"/><text class="cls-2" transform="translate(206 358.53) rotate(-90)">RESPONDIDO</text><text class="cls-3" transform="translate(206 221.57) rotate(-90)">171</text><text class="cls-4" transform="translate(374.15 358.52) rotate(-90)">SEM RESPOSTA</text><text class="cls-3" transform="translate(374.46 210.01) rotate(-90)">160</text><text class="cls-5" transform="translate(111.09 1090.19) rotate(-90)">SP <tspan class="cls-6" x="26.8" y="0">106</tspan></text><text class="cls-4" transform="translate(493.09 358.53) rotate(-90)">SITE COM PROBLEMA</text><text class="cls-3" transform="translate(491.6 149.36) rotate(-90)">61</text><text class="cls-5" transform="translate(192.89 1088.46) rotate(-90)">MG <tspan class="cls-6" x="35.92" y="0">48</tspan></text><text class="cls-5" transform="translate(241.9 1074.3) rotate(-90)">RJ <tspan class="cls-6" x="21.76" y="0">44</tspan></text><text class="cls-5" transform="translate(288.57 1080.94) rotate(-90)">PA <tspan class="cls-6" x="28.4" y="0">28</tspan></text><text class="cls-5" transform="translate(323.27 1081.81) rotate(-90)">BA <tspan class="cls-6" x="29.27" y="0">27</tspan></text><text class="cls-5" transform="translate(354.6 1080.66) rotate(-90)">PR <tspan class="cls-6" x="28.12" y="0">23</tspan></text><text class="cls-5" transform="translate(384.95 1079.65) rotate(-90)">RS <tspan class="cls-6" x="27.11" y="0">23</tspan></text><text class="cls-5" transform="translate(414.48 1086.11) rotate(-90)">GO <tspan class="cls-6" x="33.57" y="0">23</tspan></text><text class="cls-5" transform="translate(433.17 1080.03) rotate(-90)">CE <tspan class="cls-6" x="27.49" y="0">21</tspan></text><text class="cls-5" transform="translate(451.86 1086.65) rotate(-90)">MA <tspan class="cls-6" x="34.11" y="0">17</tspan></text><text class="cls-5" transform="translate(470.55 1078.47) rotate(-90)">ES <tspan class="cls-6" x="25.93" y="0">17</tspan></text><text class="cls-5" transform="translate(489.24 1079.48) rotate(-90)">PE <tspan class="cls-6" x="26.94" y="0">16</tspan></text><text class="cls-5" transform="translate(507.93 1079.89) rotate(-90)">SC <tspan class="cls-6" x="27.35" y="0">16</tspan></text><text class="cls-5" transform="translate(526.62 1080.94) rotate(-90)">AP <tspan class="cls-6" x="28.4" y="0">11</tspan></text><text class="cls-5" transform="translate(545.31 1074.21) rotate(-90)">PI <tspan class="cls-6" x="21.67" y="0">10</tspan></text><text class="cls-5" transform="translate(564 1072.7) rotate(-90)">RN <tspan class="cls-6" x="31" y="0">9</tspan></text><text class="cls-5" transform="translate(582.69 1075.81) rotate(-90)">AM <tspan class="cls-6" x="34.11" y="0">8</tspan></text><text class="cls-5" transform="translate(601.38 1070.38) rotate(-90)">PB <tspan class="cls-6" x="28.69" y="0">8</tspan></text><text class="cls-5" transform="translate(620.07 1068.52) rotate(-90)">AL <tspan class="cls-6" x="26.82" y="0">8</tspan></text><text class="cls-5" transform="translate(638.76 1067.63) rotate(-90)">SE <tspan class="cls-6" x="25.93" y="0">7</tspan></text><text class="cls-5" transform="translate(657.45 1070.29) rotate(-90)">DF <tspan class="cls-6" x="28.59" y="0">7</tspan></text><text class="cls-5" transform="translate(676.14 1074.3) rotate(-90)">MT <tspan class="cls-6" x="32.6" y="0">6</tspan></text><text class="cls-5" transform="translate(694.83 1068.24) rotate(-90)">RO<tspan class="cls-6" x="26.54" y="0">5</tspan></text><text class="cls-5" transform="translate(713.52 1074.21) rotate(-90)">MS <tspan class="cls-6" x="32.52" y="0">5</tspan></text><text class="cls-5" transform="translate(732.21 1070.64) rotate(-90)">AC <tspan class="cls-6" x="28.95" y="0">4</tspan></text><text class="cls-5" transform="translate(750.9 1071.94) rotate(-90)">TO <tspan class="cls-6" x="30.24" y="0">4</tspan></text><text class="cls-5" transform="translate(769.59 1073.17) rotate(-90)">RO <tspan class="cls-6" x="31.48" y="0">2</tspan></text><text class="cls-4" transform="translate(552.04 358.52) rotate(-90)">INDICAÇÃO DE OUTRO ÓRGÃO</text><text class="cls-7" transform="translate(551.35 60.41) rotate(-90)">37</text><text class="cls-2" transform="translate(597.21 358.53) rotate(-90)">RESPOSTA INSATISFATÓRIA</text><text class="cls-7" transform="translate(596.05 96.44) rotate(-90)">30</text><text class="cls-2" transform="translate(629.93 358.53) rotate(-90)">PEDIDO EM DUPLICIDADE</text><text class="cls-7" transform="translate(628.65 107.96) rotate(-90)">27</text><text class="cls-4" transform="translate(653.55 358.52) rotate(-90)">SEM E-SIC</text><text class="cls-3" transform="translate(653.55 256.36) rotate(-90)">13</text><text class="cls-4" transform="translate(680.83 358.53) rotate(-90)">INDEFERIDO</text><text class="cls-3" transform="translate(679.55 234.03) rotate(-90)">4</text><rect class="cls-8" x="278.42" y="369.34" width="168.08" height="4.14"/><rect class="cls-9" x="48.03" y="1014.74" width="111.35" height="4.14"/><rect class="cls-10" x="459.83" y="369.34" width="64.08" height="4.14"/><rect class="cls-11" x="162.95" y="1014.74" width="48.06" height="4.14"/><rect class="cls-12" x="218.31" y="1014.74" width="44.75" height="4.14"/><rect class="cls-10" x="528.7" y="369.34" width="38.87" height="4.14"/><rect class="cls-10" x="573.52" y="369.34" width="31.51" height="4.14"/><rect class="cls-13" x="269.56" y="1014.74" width="29" height="4.14"/><rect class="cls-10" x="610.98" y="369.34" width="28.36" height="4.14"/><rect class="cls-14" x="305.46" y="1014.74" width="27.49" height="4.14"/><rect class="cls-15" x="339.52" y="1014.74" width="23.52" height="4.14"/><rect class="cls-16" x="369.28" y="1014.74" width="23.54" height="4.14"/><rect class="cls-17" x="399" y="1014.74" width="24.16" height="4.14"/><rect class="cls-18" x="430.93" y="1014.74" width="20.03" height="4.14"/><rect class="cls-19" x="457.76" y="1014.74" width="16.92" height="4.14"/><rect class="cls-15" x="482.52" y="1014.74" width="15.89" height="4.14"/><rect class="cls-20" x="506.15" y="1014.74" width="14.41" height="4.14"/><rect class="cls-21" x="530.53" y="1014.74" width="11.13" height="4.14"/><rect class="cls-10" x="645.2" y="369.34" width="13.66" height="4.14"/><rect class="cls-22" x="551.02" y="1014.74" width="9.12" height="4.14"/><rect class="cls-23" x="567.42" y="1014.74" width="9.61" height="4.14"/><rect class="cls-24" x="583.26" y="1014.74" width="9.68" height="4.14"/><rect class="cls-25" x="598.55" y="1014.74" width="8.09" height="4.14"/><rect class="cls-26" x="614.56" y="1014.74" width="6.36" height="4.14"/><rect class="cls-27" x="629.19" y="1014.74" width="6.44" height="4.14"/><rect class="cls-28" x="643.57" y="1014.74" width="5.34" height="4.14"/><rect class="cls-29" x="655.64" y="1014.74" width="5.5" height="4.14"/><rect class="cls-30" x="668.96" y="1014.74" width="5.38" height="4.14"/><rect class="cls-31" x="682.9" y="1014.74" width="5.25" height="4.14"/><rect class="cls-32" x="700.01" y="1014.74" width="5.25" height="4.14"/><rect class="cls-33" x="716.4" y="1014.74" width="4.2" height="4.14"/><rect class="cls-34" x="732.92" y="1014.74" width="4.2" height="4.14"/><rect class="cls-10" x="665.19" y="369.34" width="4.2" height="4.14"/><rect class="cls-17" x="751.54" y="1014.74" width="2.1" height="4.14"/><path class="cls-35" d="M684.25,1014.74c0-320.63-414.69-320.63-414.69-641.27"/><path class="cls-36" d="M720.08,1014.74c0-320.63-115.57-320.63-115.57-641.27"/><path class="cls-36" d="M718.5,1014.74c0-320.63-266.59-320.63-266.59-641.27"/><path class="cls-37" d="M606.06,1014.74c0-320.63-42.61-320.63-42.61-641.27"/><path class="cls-37" d="M601.86,1014.74c0-320.63-161.5-320.63-161.5-641.27"/><path class="cls-38" d="M752.07,1014.74c0-320.63-473.58-320.63-473.58-641.27"/><path class="cls-39" d="M272.37,1014.74c0-320.63-87.9-320.63-87.9-641.27"/><path class="cls-40" d="M297.05,1014.74c0-320.63,248-320.63,248-641.27"/><path class="cls-41" d="M555.88,1014.74c0-320.63-127.08-320.63-127.08-641.27"/><path class="cls-41" d="M551.68,1014.74c0-320.63-308.38-320.63-308.38-641.27"/><path class="cls-41" d="M559.56,1014.74c0-320.63-2.94-320.63-2.94-641.27"/><path class="cls-42" d="M736.15,1014.74c0-320.63-97.4-320.63-97.4-641.27"/><path class="cls-42" d="M734.05,1014.74c0-320.63-457.66-320.63-457.66-641.27"/><path class="cls-43" d="M470.94,1014.74c0-320.63,82.53-320.63,82.53-641.27"/><path class="cls-43" d="M472.52,1014.74c0-320.63,124.11-320.63,124.11-641.27"/><path class="cls-43" d="M458.34,1014.74c0-320.63-237.63-320.63-237.63-641.27"/><path class="cls-43" d="M474.09,1014.74c0-320.63,155.2-320.63,155.2-641.27"/><path class="cls-44" d="M571.73,1014.74c0-320.63-138.2-320.63-138.2-641.27"/><path class="cls-44" d="M576.46,1014.74c0-320.63-17.21-320.63-17.21-641.27"/><path class="cls-45" d="M444.06,1014.74c0-320.63,106.26-320.63,106.26-641.27"/><path class="cls-45" d="M431.46,1014.74c0-320.63-214.95-320.63-214.95-641.27"/><path class="cls-45" d="M448.79,1014.74c0-320.63,178.93-320.63,178.93-641.27"/><path class="cls-46" d="M583.9,1014.74C583.9,694.11,248,694.11,248,373.47"/><path class="cls-46" d="M592.31,1014.74c0-320.63,76-320.63,76-641.27"/><path class="cls-46" d="M590.73,1014.74c0-320.63-29.38-320.63-29.38-641.27"/><path class="cls-47" d="M615.08,1014.74c0-320.63-363.38-320.63-363.38-641.27"/><path class="cls-47" d="M620.33,1014.74c0-320.63-54.78-320.63-54.78-641.27"/><path class="cls-48" d="M513.15,1014.74c0-320.63-91.18-320.63-91.18-641.27"/><path class="cls-49" d="M629.88,1014.74c0-320.63-373.45-320.63-373.45-641.27"/><path class="cls-49" d="M633.56,1014.74c0-320.63-189-320.63-189-641.27"/><path class="cls-49" d="M635.13,1014.74c0-320.63-1.64-320.63-1.64-641.27"/><path class="cls-50" d="M644.16,1014.74c0-320.63-382.48-320.63-382.48-641.27"/><path class="cls-51" d="M326,1014.74c0-320.63,263.78-320.63,263.78-641.27"/><path class="cls-52" d="M201.8,1014.74c0-320.63,337.49-320.63,337.49-641.27"/><path class="cls-53" d="M171.86,1014.74c0-320.63-14.18-320.63-14.18-641.27"/><path class="cls-54" d="M483.12,1014.74c0-320.63-258.21-320.63-258.21-641.27"/><path class="cls-54" d="M496.77,1014.74c0-320.63,57.75-320.63,57.75-641.27"/><path class="cls-55" d="M258.09,1014.74c0-320.63,359.12-320.63,359.12-641.27"/><path class="cls-56" d="M254.94,1014.74c0-320.63,330.14-320.63,330.14-641.27"/><path class="cls-57" d="M251.26,1014.74C251.26,694.11,543,694.11,543,373.47"/><path class="cls-58" d="M238.13,1014.74c0-320.63,100.33-320.63,100.33-641.27"/><path class="cls-59" d="M223.43,1014.74c0-320.63-48.41-320.63-48.41-641.27"/><path class="cls-60" d="M135,1014.74c0-320.63,398-320.63,398-641.27"/><path class="cls-61" d="M67.24,1014.74C67.24,694.11,123,694.11,123,373.47"/><path class="cls-62" d="M361.32,1014.74c0-320.63,184.8-320.63,184.8-641.27"/><path class="cls-63" d="M531.1,1014.74C531.1,694.11,237,694.11,237,373.47"/><path class="cls-64" d="M371.39,1014.74c0-320.63-162.23-320.63-162.23-641.27"/><path class="cls-65" d="M701.33,1014.74c0-320.63-428.62-320.63-428.62-641.27"/><path class="cls-66" d="M669.55,1014.74c0-320.63-221.32-320.63-221.32-641.27"/><path class="cls-67" d="M399.85,1014.74c0-320.63-187-320.63-187-641.27"/><path class="cls-38" d="M419.28,1014.74C419.28,694.11,624,694.11,624,373.47"/><path class="cls-68" d="M656.33,1014.74c0-320.63-390.45-320.63-390.45-641.27"/><path class="cls-68" d="M660.53,1014.74c0-320.63-23.88-320.63-23.88-641.27"/><path class="cls-68" d="M658.43,1014.74c0-320.63-91.3-320.63-91.3-641.27"/><path class="cls-35" d="M686.88,1014.74c0-320.63-236.54-320.63-236.54-641.27"/><path class="cls-36" d="M716.92,1014.74c0-320.63-442.63-320.63-442.63-641.27"/><path class="cls-37" d="M599.23,1014.74c0-320.63-350.16-320.63-350.16-641.27"/><path class="cls-37" d="M604.48,1014.74c0-320.63-89.45-320.63-89.45-641.27"/><path class="cls-38" d="M753.12,1014.74c0-320.63-230.73-320.63-230.73-641.27"/><path class="cls-69" d="M282.35,1014.74c0-320.63,71.34-320.63,71.34-641.27"/><path class="cls-70" d="M292.85,1014.74c0-320.63,184.37-320.63,184.37-641.27"/><path class="cls-40" d="M298.1,1014.74c0-320.63,358.07-320.63,358.07-641.27"/><path class="cls-43" d="M468.32,1014.74c0-320.63,34.63-320.63,34.63-641.27"/><path class="cls-43" d="M463.06,1014.74c0-320.63-57.37-320.63-57.37-641.27"/><path class="cls-44" d="M574.88,1014.74c0-320.63-64.05-320.63-64.05-641.27"/><path class="cls-44" d="M568.05,1014.74c0-320.63-321.6-320.63-321.6-641.27"/><path class="cls-45" d="M440.39,1014.74c0-320.63,59.41-320.63,59.41-641.27"/><path class="cls-45" d="M450.36,1014.74c0-320.63,207.91-320.63,207.91-641.27"/><path class="cls-45" d="M436.71,1014.74c0-320.63-36.8-320.63-36.8-641.27"/><path class="cls-45" d="M447.21,1014.74c0-320.63,147.85-320.63,147.85-641.27"/><path class="cls-46" d="M588.11,1014.74c0-320.63-75.18-320.63-75.18-641.27"/><path class="cls-46" d="M585.48,1014.74c0-320.63-148.28-320.63-148.28-641.27"/><path class="cls-47" d="M618.76,1014.74c0-320.63-102.68-320.63-102.68-641.27"/><path class="cls-47" d="M617.71,1014.74C617.71,694.11,443,694.11,443,373.47"/><path class="cls-48" d="M506.85,1014.74c0-320.63-276.68-320.63-276.68-641.27"/><path class="cls-48" d="M517.88,1014.74c0-320.63-10.72-320.63-10.72-641.27"/><path class="cls-48" d="M520,1014.74c0-320.63,111.94-320.63,111.94-641.27"/><path class="cls-50" d="M648.36,1014.74c0-320.63-13.82-320.63-13.82-641.27"/><path class="cls-50" d="M647.31,1014.74c0-320.63-201.18-320.63-201.18-641.27"/><path class="cls-71" d="M309.23,1014.74c0-320.63-116.88-320.63-116.88-641.27"/><path class="cls-72" d="M317.63,1014.74c0-320.63,46.57-320.63,46.57-641.27"/><path class="cls-73" d="M330.24,1014.74c0-320.63,289.6-320.63,289.6-641.27"/><path class="cls-74" d="M322.36,1014.74c0-320.63,159.58-320.63,159.58-641.27"/><path class="cls-73" d="M332.34,1014.74c0-320.63,324.88-320.63,324.88-641.27"/><path class="cls-75" d="M189.72,1014.74c0-320.63,133.51-320.63,133.51-641.27"/><path class="cls-52" d="M206,1014.74c0-320.63,374.88-320.63,374.88-641.27"/><path class="cls-76" d="M198.12,1014.74c0-320.63,270.69-320.63,270.69-641.27"/><path class="cls-77" d="M210.2,1014.74c0-320.63,440.19-320.63,440.19-641.27"/><path class="cls-78" d="M208.62,1014.74c0-320.63,407-320.63,407-641.27"/><path class="cls-54" d="M490.47,1014.74c0-320.63-76.9-320.63-76.9-641.27"/><path class="cls-54" d="M495.72,1014.74c0-320.63,9.86-320.63,9.86-641.27"/><path class="cls-54" d="M497.82,1014.74c0-320.63,132.52-320.63,132.52-641.27"/><path class="cls-56" d="M261.24,1014.74c0-320.63,392.31-320.63,392.31-641.27"/><path class="cls-57" d="M248.11,1014.74C248.11,694.11,472,694.11,472,373.47"/><path class="cls-79" d="M141.83,1014.74c0-320.63,434.32-320.63,434.32-641.27"/><path class="cls-80" d="M106.63,1014.74c0-320.63,194-320.63,194-641.27"/><path class="cls-81" d="M153.91,1014.74c0-320.63,511.81-320.63,511.81-641.27"/><path class="cls-82" d="M146.55,1014.74C146.55,694.11,613,694.11,613,373.47"/><path class="cls-82" d="M150.75,1014.74c0-320.63,496.49-320.63,496.49-641.27"/><path class="cls-60" d="M126.59,1014.74C126.59,694.11,463,694.11,463,373.47"/><path class="cls-83" d="M359.22,1014.74c0-320.63,125.35-320.63,125.35-641.27"/><path class="cls-84" d="M352.91,1014.74c0-320.63,19.69-320.63,19.69-641.27"/><path class="cls-84" d="M343.46,1014.74c0-320.63-141.66-320.63-141.66-641.27"/><path class="cls-62" d="M362.37,1014.74C362.37,694.11,593,694.11,593,373.47"/><path class="cls-63" d="M541.08,1014.74c0-320.63,59.23-320.63,59.23-641.27"/><path class="cls-63" d="M537.4,1014.74c0-320.63-28.14-320.63-28.14-641.27"/><path class="cls-63" d="M535.83,1014.74c0-320.63-109.66-320.63-109.66-641.27"/><path class="cls-85" d="M378.75,1014.74c0-320.63,3.3-320.63,3.3-641.27"/><path class="cls-86" d="M387.67,1014.74c0-320.63,102.68-320.63,102.68-641.27"/><path class="cls-87" d="M392.4,1014.74c0-320.63,154.77-320.63,154.77-641.27"/><path class="cls-65" d="M704,1014.74c0-320.63-183.66-320.63-183.66-641.27"/><path class="cls-66" d="M672.18,1014.74c0-320.63-154.52-320.63-154.52-641.27"/><path class="cls-66" d="M673.76,1014.74c0-320.63-70.3-320.63-70.3-641.27"/><path class="cls-88" d="M406.15,1014.74c0-320.63-14.12-320.63-14.12-641.27"/><path class="cls-38" d="M413.5,1014.74c0-320.63,83.15-320.63,83.15-641.27"/><path class="cls-38" d="M416.13,1014.74C416.13,694.11,594,694.11,594,373.47"/><path class="cls-38" d="M422.43,1014.74c0-320.63,244.87-320.63,244.87-641.27"/><text class="cls-89" transform="translate(35.57 1096.04) rotate(-90)">ESTADO</text><g class="cls-90"><path class="cls-17" d="M45.38,1026.31h-3l3,3.09H40.32v2.23h5.06l-3,3.09h3l3.83-4.21Z"/></g><text class="cls-89" transform="translate(78.31 358.53) rotate(-90)">TIPO DE <tspan x="0" y="21.6">RESPOSTA</tspan></text><g class="cls-90"><path class="cls-17" d="M114.84,348h-3l3,3.09h-5.06v2.22h5.06l-3,3.09h3l3.83-4.2Z"/></g><rect class="cls-10" x="189.52" y="281.42" width="4.14" height="179.96" transform="translate(-179.81 563) rotate(-90)"/><rect class="cls-10" x="367.74" y="288.85" width="4.14" height="165.11" transform="translate(-1.6 741.21) rotate(-90)"/><line class="cls-91" x1="-4.27" y1="1118.72" x2="772.27" y2="1118.72"/></svg>