<svg width="22" height="22" fill="none" xmlns="http://www.w3.org/2000/svg"><g clip-path="url(#clip0)" fill="#fff"><path d="M16.4 3.8c-.7 0-1.3.6-1.3 1.3 0 .7.6 1.3 1.3 1.3.7 0 1.3-.6 1.3-1.3 0-.7-.6-1.3-1.3-1.3zM10.8 5.5c-2.9 0-5.3 2.4-5.3 5.3s2.4 5.3 5.3 5.3 5.3-2.4 5.3-5.3c0-3-2.3-5.3-5.3-5.3zm0 8.6c-1.9 0-3.4-1.5-3.4-3.4s1.5-3.4 3.4-3.4 3.4 1.5 3.4 3.4-1.5 3.4-3.4 3.4z"/><path d="M15 21.5H6.5C2.9 21.5 0 18.6 0 15V6.5C0 2.9 2.9 0 6.5 0H15c3.6 0 6.5 2.9 6.5 6.5V15c0 3.6-2.9 6.5-6.5 6.5zM6.5 2C4 2 2 4 2 6.5V15c0 2.4 2 4.4 4.4 4.4H15c2.4 0 4.4-2 4.4-4.4V6.5C19.5 4 17.5 2 15 2H6.5z"/></g><defs><clipPath id="clip0"><path fill="#fff" d="M0 0h21.5v21.5H0z"/></clipPath></defs></svg>