<svg width="27" height="22" fill="none" xmlns="http://www.w3.org/2000/svg"><g clip-path="url(#clip0)"><path d="M26 2.6c-.8.4-1.7.6-2.6.8.4-.1 1-.8 1.3-1.2.4-.5.7-1 .9-1.6V.5h-.1c-1 .5-2 .9-3.1 1.2-.1 0-.2 0-.2-.1l-.3-.3c-.5-.4-1-.7-1.5-.9-.9-.3-1.7-.4-2.5-.4s-1.5.3-2.2.6c-.7.4-1.3.9-1.8 1.5s-.9 1.4-1.1 2.1c-.2.7-.2 1.5-.1 2.2 0 .1 0 .1-.1.1C8.4 6 4.9 4.4 2 1.1c-.2-.1-.2-.1-.3 0C.4 3 1 6.1 2.6 7.6c.2.2.4.4.7.6-.1 0-1.1-.1-2.1-.6-.2-.1-.2-.1-.2.1v.6c.2 1.9 1.6 3.7 3.4 4.4.2.1.5.2.7.2-.4.1-.8.2-2 .1-.1 0-.2 0-.1.2.9 2.4 2.8 3.2 4.3 3.6.2 0 .4 0 .6.1-.5.7-2.1 1.3-2.9 1.5-1.4.5-2.9.7-4.4.6H.2c-.1 0 0 .1.1.2.3.2.6.4.9.5.8.5 1.8.9 2.8 1.2 5.3 1.5 11.3.4 15.3-3.6 3.1-3.1 4.2-7.4 4.2-11.7 0-.2.2-.3.3-.4.9-.6 1.6-1.4 2.2-2.2.1-.2.1-.3.1-.4 0-.1 0-.1-.1 0z" fill="#fff"/></g><defs><clipPath id="clip0"><path fill="#fff" d="M0 0h26.1v21.5H0z"/></clipPath></defs></svg>