<?xml version="1.0" encoding="utf-8"?>
<svg viewBox="335.994 48.82 1248.295 1155.503" xmlns="http://www.w3.org/2000/svg">
  <defs>
    <style>.cls-1{fill:#e5e5e5;}.cls-10,.cls-2,.cls-3,.cls-4,.cls-5,.cls-6,.cls-7,.cls-8,.cls-9{fill:none;stroke-width:1.25px;}.cls-2{stroke:#3d60d9;}.cls-3{stroke:#7095f1;}.cls-4{stroke:#87e0d4;}.cls-5{stroke:#2e2f46;}.cls-6{stroke:#c7f64a;}.cls-7{stroke:#1ebf70;}.cls-8{stroke:#87e089;}.cls-9{stroke:#f57f4e;}.cls-10{stroke:#755285;}.cls-11{fill:#7095f1;}.cls-12{fill:#87e0d4;}.cls-13,.cls-24,.cls-27{fill:#2e2f46;}.cls-14{fill:#c7f64a;}.cls-15{fill:#1ebf70;}.cls-16{fill:#87e089;}.cls-17{fill:#f57f4e;}.cls-18{fill:#755285;}.cls-19{fill:#3d60d9;}.cls-20,.cls-22,.cls-23,.cls-24{isolation:isolate;}.cls-21,.cls-22{fill:#fff;}.cls-22,.cls-24{font-size:16.99px;letter-spacing:0.04em;}.cls-22,.cls-23,.cls-24,.cls-25{font-family:OpenSans, Open Sans;}.cls-23{font-size:18.17px;}.cls-25{font-size:19.81px;}.cls-26,.cls-27{font-size:28.47px;font-family:OpenSans-Bold, Open Sans;font-weight:700;text-decoration:underline;}.cls-26{fill:#030420;}</style>
  </defs>
  <g id="Layer_1" data-name="Layer 1">
    <rect id="backgorund" class="cls-1" x="-22.38" y="-17.43" width="1964.75" height="1336.75"/>
  </g>
  <g id="Layer_2" data-name="Layer 2">
    <g id="Telemedicina">
      <path id="p_749.5755895745752" data-name="p 749.5755895745752" class="cls-2" d="M717.33,996.46c-199.94,0-362.06-162-362.11-361.93s162-362.06,361.94-362.11h.17c199.93,0,362.05,162,362.1,361.94s-162,362.06-361.94,362.1Z"/>
    </g>
    <g id="Identificação_de_pessoas" data-name="Identificação de pessoas">
      <path id="p_911.289146648868" data-name="p 911.289146648868" class="cls-3" d="M1241.4,792.72a158.28,158.28,0,1,1,158.28-158.28A158.28,158.28,0,0,1,1241.4,792.72Z"/>
    </g>
    <g id="Rastreamento_de_contatos" data-name="Rastreamento de contatos">
      <path id="p_954.375550318999" data-name="p 954.375550318999" class="cls-4" d="M1125.39,994.09a111.7,111.7,0,1,1,111.69-111.7A111.7,111.7,0,0,1,1125.39,994.09Z"/>
    </g>
    <g id="Monitoramento_do_fluxo_de_pessoas" data-name="Monitoramento do fluxo de pessoas">
      <path id="p_707.8901068134201" data-name="p 707.8901068134201" class="cls-5" d="M1143.5,487.71a158.28,158.28,0,1,1,158.28-158.28A158.28,158.28,0,0,1,1143.5,487.71Z"/>
    </g>
    <g id="Armazenamento">
      <path id="p_920.3208717681134" data-name="p 920.3208717681134" class="cls-6" d="M970.35,1081.66a80.08,80.08,0,1,1,80.09-80.08A80.08,80.08,0,0,1,970.35,1081.66Z"/>
    </g>
    <g id="Digitalização_de_serviços_públicos" data-name="Digitalização de serviços públicos">
      <path id="p_508.8027635166066" data-name="p 508.8027635166066" class="cls-7" d="M919.65,317.19a80.09,80.09,0,1,1,80.09-80.08A80.08,80.08,0,0,1,919.65,317.19Z"/>
    </g>
    <g id="Fornecimento_de_informações" data-name="Fornecimento de informações">
      <path id="p_878.3378582850332" data-name="p 878.3378582850332" class="cls-8" d="M820.56,1148.3a80.09,80.09,0,1,1,80.08-80.09A80.09,80.09,0,0,1,820.56,1148.3Z"/>
    </g>
    <g id="Monitoramento_de_temperatura" data-name="Monitoramento de temperatura">
      <path id="p_406.0458946830842" data-name="p 406.0458946830842" class="cls-9" d="M761.12,268.76A82.92,82.92,0,1,1,844,185.84,82.92,82.92,0,0,1,761.12,268.76Z"/>
    </g>
    <g id="Mapeamento_da_evolução_da_COVID-19" data-name="Mapeamento da evolução da COVID-19">
      <path id="p_1027.1212995989183" data-name="p 1027.1212995989183" class="cls-10" d="M1320,943.55a80.09,80.09,0,1,1,80.08-80.08A80.08,80.08,0,0,1,1320,943.55Z"/>
    </g>
    <g id="INSS">
      <path id="p_830.4323681117216" data-name="p 830.4323681117216" class="cls-11" d="M1163.21,710.75a76.31,76.31,0,1,1,76.3-76.31A76.31,76.31,0,0,1,1163.21,710.75Z"/>
    </g>
    <g id="Serpro">
      <path id="p_909.3813496482926" data-name="p 909.3813496482926" class="cls-11" d="M1319.6,710.75a76.31,76.31,0,1,1,76.3-76.31A76.31,76.31,0,0,1,1319.6,710.75Z"/>
    </g>
    <g id="Ministério_da_Saúde" data-name="Ministério da Saúde">
      <path id="p_952.4677533184234" data-name="p 952.4677533184234" class="cls-12" d="M1125.39,990.31A107.92,107.92,0,1,1,1233.3,882.39,107.91,107.91,0,0,1,1125.39,990.31Z"/>
    </g>
    <g id="UFAL">
      <path id="p_627.0333282762738" data-name="p 627.0333282762738" class="cls-13" d="M1065.31,405.74a76.31,76.31,0,1,1,76.3-76.31A76.3,76.3,0,0,1,1065.31,405.74Z"/>
    </g>
    <g id="ViaSoluTI">
      <path id="p_705.9823098128446" data-name="p 705.9823098128446" class="cls-13" d="M1221.7,405.74a76.31,76.31,0,1,1,76.3-76.31A76.3,76.3,0,0,1,1221.7,405.74Z"/>
    </g>
    <g id="Embratel">
      <path id="p_918.4130747675379" data-name="p 918.4130747675379" class="cls-14" d="M970.35,1077.88a76.31,76.31,0,1,1,76.31-76.3A76.3,76.3,0,0,1,970.35,1077.88Z"/>
    </g>
    <g id="Ministério_da_Infraestrutura" data-name="Ministério da Infraestrutura">
      <path id="p_506.89496651603105" data-name="p 506.89496651603105" class="cls-15" d="M919.65,313a75.91,75.91,0,1,1,75.91-75.91A75.92,75.92,0,0,1,919.65,313Z"/>
    </g>
    <g id="Mito_Games" data-name="Mito Games">
      <path id="p_876.4300612844578" data-name="p 876.4300612844578" class="cls-16" d="M820.56,1144.52a76.31,76.31,0,1,1,76.3-76.31A76.31,76.31,0,0,1,820.56,1144.52Z"/>
    </g>
    <g id="Petrobras">
      <path id="p_404.13809768250866" data-name="p 404.13809768250866" class="cls-17" d="M761.12,262.15a76.31,76.31,0,1,1,76.3-76.31A76.32,76.32,0,0,1,761.12,262.15Z"/>
    </g>
    <g id="UFOB">
      <path id="p_1025.2135025983428" data-name="p 1025.2135025983428" class="cls-18" d="M1320,939.77a76.31,76.31,0,1,1,76.3-76.3A76.3,76.3,0,0,1,1320,939.77Z"/>
    </g>
    <g id="A2_Tecnologia" data-name="A2 Tecnologia">
      <path id="p_511.94284407689906" data-name="p 511.94284407689906" class="cls-19" d="M644.38,660.84a76.31,76.31,0,1,1,76.31-76.3A76.3,76.3,0,0,1,644.38,660.84Z"/>
    </g>
    <g id="Instituto_Laura_Fressatto" data-name="Instituto Laura Fressatto">
      <path id="p_590.89182561347" data-name="p 590.89182561347" class="cls-19" d="M800.77,660.84a76.31,76.31,0,1,1,76.31-76.3A76.3,76.3,0,0,1,800.77,660.84Z"/>
    </g>
    <g id="Ayga_Tecnologia" data-name="Ayga Tecnologia">
      <path id="p_619.7891584587635" data-name="p 619.7891584587635" class="cls-19" d="M722.58,796.28A76.31,76.31,0,1,1,798.88,720,76.31,76.31,0,0,1,722.58,796.28Z"/>
    </g>
    <g id="Chama_Inbox_Brasil" data-name="Chama Inbox Brasil">
      <path id="p_483.04551123160553" data-name="p 483.04551123160553" class="cls-19" d="M722.58,525.4a76.31,76.31,0,1,1,76.3-76.3A76.31,76.31,0,0,1,722.58,525.4Z"/>
    </g>
    <g id="Hospital_das_Clínicas_USP" data-name="Hospital das Clínicas USP">
      <path id="p_404.0965296950347" data-name="p 404.0965296950347" class="cls-19" d="M566.19,525.4a76.31,76.31,0,1,1,76.3-76.3A76.31,76.31,0,0,1,566.19,525.4Z"/>
    </g>
    <g id="Instituto_Butantan_Fundação_Oswaldo_Cruz_Intel" data-name="Instituto Butantan; Fundação Oswaldo Cruz; Intel">
      <path id="p_561.9944927681765" data-name="p 561.9944927681765" class="cls-19" d="M879,525.4a76.31,76.31,0,1,1,76.3-76.3A76.31,76.31,0,0,1,879,525.4Z"/>
    </g>
    <g id="Radtec">
      <path id="p_698.7381399953344" data-name="p 698.7381399953344" class="cls-19" d="M879,796.28A76.31,76.31,0,1,1,955.27,720,76.31,76.31,0,0,1,879,796.28Z"/>
    </g>
    <g id="Requisito_Tecnologia" data-name="Requisito Tecnologia">
      <path id="p_540.8401769221927" data-name="p 540.8401769221927" class="cls-19" d="M566.19,796.28A76.31,76.31,0,1,1,642.49,720,76.31,76.31,0,0,1,566.19,796.28Z"/>
    </g>
    <g id="Simex_Sistemas_de_Inspeção_Móveis" data-name="Simex Sistemas de Inspeção Móveis">
      <path id="p_432.9938625403282" data-name="p 432.9938625403282" class="cls-19" d="M488,660.84a76.31,76.31,0,1,1,76.31-76.3A76.3,76.3,0,0,1,488,660.84Z"/>
    </g>
    <g id="Talktelecom">
      <path id="p_669.8408071500409" data-name="p 669.8408071500409" class="cls-19" d="M957.16,660.84a76.31,76.31,0,1,1,76.31-76.3A76.3,76.3,0,0,1,957.16,660.84Z"/>
    </g>
    <g id="True_Work" data-name="True Work">
      <path id="p_777.6871215319052" data-name="p 777.6871215319052" class="cls-19" d="M717.42,954.31a76.31,76.31,0,1,1,76.3-76.3A76.31,76.31,0,0,1,717.42,954.31Z"/>
    </g>
    <g class="cls-20">
      <g class="cls-20">
        <path class="cls-21" d="M640.54,574.17,639,570.31h-4.88l-1.5,3.86h-1.43L636,562h1.19l4.8,12.18Zm-2-5.13-1.41-3.76a16.46,16.46,0,0,1-.57-1.75,14.58,14.58,0,0,1-.53,1.75L634.64,569Z"/>
        <path class="cls-21" d="M651.53,574.17h-8V573l3.21-3.21a22.23,22.23,0,0,0,1.93-2.11,5.33,5.33,0,0,0,.7-1.22,3.44,3.44,0,0,0,.24-1.29,2,2,0,0,0-.6-1.54,2.26,2.26,0,0,0-1.64-.57,4.36,4.36,0,0,0-1.44.25,5.91,5.91,0,0,0-1.51.91l-.73-.94a5.62,5.62,0,0,1,3.67-1.4,3.91,3.91,0,0,1,2.69.88,3,3,0,0,1,1,2.35,4.55,4.55,0,0,1-.65,2.28,14.35,14.35,0,0,1-2.43,2.86l-2.67,2.59v.07h6.27Z"/>
        <path class="cls-21" d="M593.75,595.26h-1.41V584.38h-3.86v-1.25h9.13v1.25h-3.86Z"/>
        <path class="cls-21" d="M606.92,595.26h-6.8V583.13h6.8v1.25h-5.38v3.91h5.05v1.24h-5.05V594h5.38Z"/>
        <path class="cls-21" d="M615.51,584.21a4,4,0,0,0-3.17,1.34,5.35,5.35,0,0,0-1.16,3.64,5.43,5.43,0,0,0,1.12,3.68,4,4,0,0,0,3.2,1.3,10.69,10.69,0,0,0,2.9-.46V595a9.07,9.07,0,0,1-3.12.47,5.28,5.28,0,0,1-4.15-1.62,6.67,6.67,0,0,1-1.47-4.62,7.28,7.28,0,0,1,.71-3.29,5,5,0,0,1,2-2.17,6.18,6.18,0,0,1,3.13-.77,7.65,7.65,0,0,1,3.35.7l-.6,1.21A6.52,6.52,0,0,0,615.51,584.21Z"/>
        <path class="cls-21" d="M631.26,595.26h-1.62L623,585.08h-.07c.09,1.19.13,2.29.13,3.28v6.9h-1.31V583.13h1.6L630,593.27h.07c0-.15,0-.63-.07-1.44s-.06-1.39-.05-1.74v-7h1.33Z"/>
        <path class="cls-21" d="M645.86,589.18a6.61,6.61,0,0,1-1.48,4.57,5.17,5.17,0,0,1-4.11,1.67,5.24,5.24,0,0,1-4.15-1.64,6.72,6.72,0,0,1-1.46-4.62,6.64,6.64,0,0,1,1.46-4.59,5.32,5.32,0,0,1,4.17-1.63,5.18,5.18,0,0,1,4.1,1.66A6.65,6.65,0,0,1,645.86,589.18Zm-9.7,0a5.74,5.74,0,0,0,1.05,3.73,4.31,4.31,0,0,0,6.12,0,5.83,5.83,0,0,0,1-3.74,5.77,5.77,0,0,0-1-3.72,3.69,3.69,0,0,0-3-1.26,3.76,3.76,0,0,0-3.08,1.27A5.7,5.7,0,0,0,636.16,589.18Z"/>
        <path class="cls-21" d="M649.26,595.26V583.13h1.42V594h5.37v1.28Z"/>
        <path class="cls-21" d="M669.37,589.18a6.61,6.61,0,0,1-1.48,4.57,5.17,5.17,0,0,1-4.11,1.67,5.24,5.24,0,0,1-4.15-1.64,6.72,6.72,0,0,1-1.46-4.62,6.64,6.64,0,0,1,1.46-4.59,5.32,5.32,0,0,1,4.17-1.63,5.18,5.18,0,0,1,4.1,1.66A6.65,6.65,0,0,1,669.37,589.18Zm-9.7,0a5.74,5.74,0,0,0,1.05,3.73,4.31,4.31,0,0,0,6.12,0,5.83,5.83,0,0,0,1-3.74,5.77,5.77,0,0,0-1-3.72,3.69,3.69,0,0,0-3-1.26,3.76,3.76,0,0,0-3.08,1.27A5.7,5.7,0,0,0,659.67,589.18Z"/>
        <path class="cls-21" d="M678.13,588.9h4.14v5.9a13.11,13.11,0,0,1-2,.46,14.26,14.26,0,0,1-2.31.16,5.6,5.6,0,0,1-4.31-1.64,6.42,6.42,0,0,1-1.54-4.59,6.88,6.88,0,0,1,.76-3.31,5.14,5.14,0,0,1,2.2-2.18,7.1,7.1,0,0,1,3.35-.75,9.2,9.2,0,0,1,3.64.72l-.55,1.24a8.25,8.25,0,0,0-3.18-.7,4.54,4.54,0,0,0-3.47,1.32,5.12,5.12,0,0,0-1.25,3.66,5.24,5.24,0,0,0,1.2,3.73,4.68,4.68,0,0,0,3.54,1.27,10.7,10.7,0,0,0,2.47-.29v-3.74h-2.72Z"/>
        <path class="cls-21" d="M685.88,595.26V583.13h1.41v12.13Z"/>
        <path class="cls-21" d="M699,595.26l-1.51-3.86h-4.89l-1.5,3.86h-1.43l4.82-12.18h1.19l4.79,12.18Zm-2-5.13-1.41-3.76c-.18-.47-.37-1.06-.57-1.75a14.41,14.41,0,0,1-.52,1.75l-1.44,3.76Z"/>
      </g>
    </g>
    <g class="cls-20">
      <g class="cls-20">
        <path class="cls-21" d="M756.16,564V551.86h1.42V564Z"/>
        <path class="cls-21" d="M771.12,564H769.5l-6.66-10.17h-.06c.09,1.19.13,2.28.13,3.28V564H761.6V551.86h1.6L769.84,562h.07c0-.15,0-.63-.08-1.44s-.05-1.39,0-1.73v-7h1.33Z"/>
        <path class="cls-21" d="M782,560.76a3,3,0,0,1-1.16,2.49,5.08,5.08,0,0,1-3.17.9,8,8,0,0,1-3.33-.56v-1.36a8.63,8.63,0,0,0,1.63.5,8.74,8.74,0,0,0,1.75.18,3.5,3.5,0,0,0,2.13-.53,1.75,1.75,0,0,0,.72-1.49,2,2,0,0,0-.25-1,2.45,2.45,0,0,0-.85-.75,13.36,13.36,0,0,0-1.82-.77,5.72,5.72,0,0,1-2.42-1.43,3.15,3.15,0,0,1-.73-2.17,2.7,2.7,0,0,1,1.05-2.23,4.44,4.44,0,0,1,2.8-.83,8.14,8.14,0,0,1,3.34.67l-.44,1.22a7.55,7.55,0,0,0-2.93-.63,2.85,2.85,0,0,0-1.76.48,1.59,1.59,0,0,0-.63,1.34,2.09,2.09,0,0,0,.23,1,2.19,2.19,0,0,0,.79.74,9.84,9.84,0,0,0,1.7.74,6.82,6.82,0,0,1,2.63,1.46A2.88,2.88,0,0,1,782,560.76Z"/>
        <path class="cls-21" d="M789,564h-1.42V553.11h-3.86v-1.25h9.13v1.25H789Z"/>
        <path class="cls-21" d="M795.32,564V551.86h1.41V564Z"/>
        <path class="cls-21" d="M804.51,564h-1.42V553.11h-3.86v-1.25h9.14v1.25h-3.86Z"/>
        <path class="cls-21" d="M820.08,551.86v7.84a4.25,4.25,0,0,1-1.26,3.26,4.85,4.85,0,0,1-3.46,1.19A4.65,4.65,0,0,1,812,563a4.45,4.45,0,0,1-1.2-3.29v-7.81h1.41v7.91a3.13,3.13,0,0,0,.83,2.33,3.41,3.41,0,0,0,2.46.81,3.28,3.28,0,0,0,2.37-.81,3.18,3.18,0,0,0,.83-2.35v-7.89Z"/>
        <path class="cls-21" d="M827.73,564h-1.41V553.11h-3.86v-1.25h9.13v1.25h-3.86Z"/>
        <path class="cls-21" d="M844.68,557.9a6.64,6.64,0,0,1-1.48,4.58,6,6,0,0,1-8.26,0,6.67,6.67,0,0,1-1.47-4.62,6.59,6.59,0,0,1,1.47-4.59,5.32,5.32,0,0,1,4.17-1.63,5.23,5.23,0,0,1,4.1,1.65A6.69,6.69,0,0,1,844.68,557.9Zm-9.71,0a5.75,5.75,0,0,0,1.06,3.74,4.32,4.32,0,0,0,6.12,0,7.25,7.25,0,0,0,0-7.45,3.7,3.7,0,0,0-3-1.26A3.76,3.76,0,0,0,836,554.2,5.69,5.69,0,0,0,835,557.9Z"/>
        <path class="cls-21" d="M773.7,585.07V573h1.42V583.8h5.37v1.27Z"/>
        <path class="cls-21" d="M790.9,585.07l-1.52-3.85H784.5l-1.5,3.85h-1.43l4.81-12.17h1.19l4.8,12.17Zm-2-5.12-1.42-3.76c-.18-.48-.37-1.06-.56-1.75a15.15,15.15,0,0,1-.53,1.75L785,580Z"/>
        <path class="cls-21" d="M803.92,573v7.84a4.25,4.25,0,0,1-1.26,3.26,4.84,4.84,0,0,1-3.45,1.19,4.62,4.62,0,0,1-3.41-1.2,4.41,4.41,0,0,1-1.2-3.28V573H796v7.91a3.09,3.09,0,0,0,.84,2.33,3.37,3.37,0,0,0,2.45.81,3.26,3.26,0,0,0,2.37-.81,3.14,3.14,0,0,0,.83-2.35V573Z"/>
        <path class="cls-21" d="M809.24,580v5h-1.41V573h3.34a5.27,5.27,0,0,1,3.31.85,3.11,3.11,0,0,1,1.07,2.57,3.22,3.22,0,0,1-2.45,3.25l3.31,5.45h-1.68l-3-5Zm0-1.21h1.94a3.38,3.38,0,0,0,2.2-.59,2.2,2.2,0,0,0,.7-1.78,2,2,0,0,0-.71-1.74,3.9,3.9,0,0,0-2.29-.53h-1.84Z"/>
        <path class="cls-21" d="M826.71,585.07l-1.51-3.85h-4.88l-1.5,3.85h-1.44l4.82-12.17h1.19l4.79,12.17Zm-2-5.12-1.42-3.76c-.18-.48-.37-1.06-.57-1.75a15,15,0,0,1-.52,1.75L820.82,580Z"/>
        <path class="cls-21" d="M757.75,606.16h-1.41V594h6.79v1.26h-5.38v4.44h5V601h-5Z"/>
        <path class="cls-21" d="M767.24,601.12v5h-1.41V594h3.34a5.28,5.28,0,0,1,3.31.86,3.11,3.11,0,0,1,1.07,2.57,3.22,3.22,0,0,1-2.45,3.25l3.31,5.45h-1.68l-3-5Zm0-1.21h1.94a3.38,3.38,0,0,0,2.2-.59,2.2,2.2,0,0,0,.7-1.78,2,2,0,0,0-.71-1.74,3.9,3.9,0,0,0-2.29-.53h-1.84Z"/>
        <path class="cls-21" d="M783.85,606.16h-6.79V594h6.79v1.26h-5.38v3.91h5v1.24h-5v4.46h5.38Z"/>
        <path class="cls-21" d="M794.1,602.94a3,3,0,0,1-1.16,2.49,5.08,5.08,0,0,1-3.17.9,7.94,7.94,0,0,1-3.33-.56v-1.36a8.63,8.63,0,0,0,1.63.5,8.74,8.74,0,0,0,1.75.18,3.6,3.6,0,0,0,2.13-.53,1.75,1.75,0,0,0,.72-1.49,2,2,0,0,0-.25-1,2.41,2.41,0,0,0-.86-.75,12.6,12.6,0,0,0-1.81-.77,5.83,5.83,0,0,1-2.43-1.43,3.22,3.22,0,0,1-.73-2.17,2.7,2.7,0,0,1,1.06-2.23,4.44,4.44,0,0,1,2.8-.83,8.3,8.3,0,0,1,3.34.66l-.44,1.23a7.55,7.55,0,0,0-2.93-.63,2.85,2.85,0,0,0-1.76.48,1.59,1.59,0,0,0-.63,1.34,2.09,2.09,0,0,0,.23,1,2.19,2.19,0,0,0,.79.74,10,10,0,0,0,1.69.74,6.8,6.8,0,0,1,2.64,1.46A2.88,2.88,0,0,1,794.1,602.94Z"/>
        <path class="cls-21" d="M804.15,602.94a3,3,0,0,1-1.17,2.49,5,5,0,0,1-3.16.9,8,8,0,0,1-3.34-.56v-1.36a9,9,0,0,0,3.39.68,3.6,3.6,0,0,0,2.13-.53,1.75,1.75,0,0,0,.72-1.49,1.87,1.87,0,0,0-.26-1,2.36,2.36,0,0,0-.85-.75,13.12,13.12,0,0,0-1.81-.77,5.83,5.83,0,0,1-2.43-1.43,3.17,3.17,0,0,1-.73-2.17,2.7,2.7,0,0,1,1.06-2.23,4.44,4.44,0,0,1,2.8-.83,8.33,8.33,0,0,1,3.34.66l-.44,1.23a7.59,7.59,0,0,0-2.93-.63,2.85,2.85,0,0,0-1.76.48,1.59,1.59,0,0,0-.63,1.34,2,2,0,0,0,.23,1,2.11,2.11,0,0,0,.79.74,9.68,9.68,0,0,0,1.69.74,6.8,6.8,0,0,1,2.64,1.46A2.88,2.88,0,0,1,804.15,602.94Z"/>
        <path class="cls-21" d="M815,606.16l-1.52-3.85h-4.88l-1.5,3.85h-1.43L810.46,594h1.19l4.8,12.17ZM813,601l-1.42-3.76c-.18-.48-.37-1.06-.56-1.75a15.15,15.15,0,0,1-.53,1.75L809.08,601Z"/>
        <path class="cls-21" d="M822.55,606.16h-1.41V595.29h-3.86V594h9.13v1.26h-3.86Z"/>
        <path class="cls-21" d="M832.67,606.16h-1.41V595.29H827.4V594h9.13v1.26h-3.86Z"/>
        <path class="cls-21" d="M849.62,600.08a6.64,6.64,0,0,1-1.48,4.58,6,6,0,0,1-8.26,0,8,8,0,0,1,0-9.22,5.35,5.35,0,0,1,4.17-1.63,5.21,5.21,0,0,1,4.09,1.66A6.64,6.64,0,0,1,849.62,600.08Zm-9.71,0a5.69,5.69,0,0,0,1.06,3.74,4.32,4.32,0,0,0,6.12,0,7.25,7.25,0,0,0,0-7.45,3.7,3.7,0,0,0-3-1.26,3.76,3.76,0,0,0-3.08,1.27A5.63,5.63,0,0,0,839.91,600.08Z"/>
      </g>
    </g>
    <g class="cls-20">
      <g class="cls-20">
        <path class="cls-21" d="M704.65,712l-1.51-3.86h-4.89l-1.5,3.86h-1.43l4.82-12.18h1.19L706.12,712Zm-2-5.13-1.41-3.76c-.19-.47-.37-1.06-.57-1.75a14.41,14.41,0,0,1-.52,1.75l-1.44,3.76Z"/>
        <path class="cls-21" d="M711.58,705.91l3.25-6.06h1.53l-4.07,7.42V712h-1.43v-4.64l-4.06-7.49h1.55Z"/>
        <path class="cls-21" d="M724.07,705.62h4.14v5.9a13.31,13.31,0,0,1-2,.47,15.85,15.85,0,0,1-2.32.15,5.65,5.65,0,0,1-4.31-1.63,6.46,6.46,0,0,1-1.54-4.6,7,7,0,0,1,.76-3.31,5.12,5.12,0,0,1,2.2-2.17,7.12,7.12,0,0,1,3.36-.75,9.11,9.11,0,0,1,3.63.71l-.55,1.24a8.23,8.23,0,0,0-3.18-.69,4.54,4.54,0,0,0-3.47,1.32,5.08,5.08,0,0,0-1.25,3.65,5.2,5.2,0,0,0,1.21,3.73,4.66,4.66,0,0,0,3.53,1.27,10.78,10.78,0,0,0,2.48-.29v-3.74h-2.73Z"/>
        <path class="cls-21" d="M739.48,712,738,708.12h-4.88l-1.5,3.86h-1.43L735,699.8h1.19L740.94,712Zm-2-5.13-1.42-3.76c-.18-.47-.37-1.06-.56-1.75a16.67,16.67,0,0,1-.53,1.75l-1.43,3.76Z"/>
        <path class="cls-21" d="M670.06,733.07h-1.42V722.19h-3.86v-1.25h9.14v1.25h-3.86Z"/>
        <path class="cls-21" d="M683.22,733.07h-6.79V720.94h6.79v1.25h-5.37v3.91h5v1.24h-5v4.47h5.37Z"/>
        <path class="cls-21" d="M691.82,722a4,4,0,0,0-3.17,1.33,5.3,5.3,0,0,0-1.16,3.64,5.43,5.43,0,0,0,1.12,3.68,4,4,0,0,0,3.19,1.3,10.76,10.76,0,0,0,2.91-.46v1.24a8.93,8.93,0,0,1-3.13.47,5.31,5.31,0,0,1-4.15-1.62A6.72,6.72,0,0,1,686,727a7.28,7.28,0,0,1,.7-3.29,5,5,0,0,1,2-2.17,6.12,6.12,0,0,1,3.12-.77,7.62,7.62,0,0,1,3.35.7l-.6,1.21A6.46,6.46,0,0,0,691.82,722Z"/>
        <path class="cls-21" d="M707.56,733.07H706l-6.66-10.18h-.07c.09,1.19.14,2.29.14,3.28v6.9h-1.31V720.94h1.6l6.64,10.14h.07c0-.15,0-.63-.08-1.44s0-1.39,0-1.74v-7h1.32Z"/>
        <path class="cls-21" d="M722.17,727a6.66,6.66,0,0,1-1.48,4.58,6,6,0,0,1-8.26,0,7.95,7.95,0,0,1,0-9.21,5.32,5.32,0,0,1,4.17-1.63,5.18,5.18,0,0,1,4.09,1.66A6.61,6.61,0,0,1,722.17,727Zm-9.71,0a5.68,5.68,0,0,0,1.06,3.73,4.31,4.31,0,0,0,6.12,0,7.27,7.27,0,0,0,0-7.46,3.7,3.7,0,0,0-3-1.26,3.76,3.76,0,0,0-3.08,1.27A5.66,5.66,0,0,0,712.46,727Z"/>
        <path class="cls-21" d="M725.57,733.07V720.94H727v10.85h5.38v1.28Z"/>
        <path class="cls-21" d="M745.68,727a6.66,6.66,0,0,1-1.48,4.58,6,6,0,0,1-8.26,0,7.95,7.95,0,0,1,0-9.21,5.32,5.32,0,0,1,4.17-1.63,5.18,5.18,0,0,1,4.09,1.66A6.61,6.61,0,0,1,745.68,727ZM736,727a5.68,5.68,0,0,0,1.06,3.73,4.31,4.31,0,0,0,6.12,0,5.89,5.89,0,0,0,1-3.74,5.79,5.79,0,0,0-1-3.72,3.7,3.7,0,0,0-3-1.26,3.76,3.76,0,0,0-3.08,1.27A5.66,5.66,0,0,0,736,727Z"/>
        <path class="cls-21" d="M754.44,726.71h4.14v5.9a13.44,13.44,0,0,1-2,.47,15.85,15.85,0,0,1-2.32.15,5.58,5.58,0,0,1-4.3-1.64,6.42,6.42,0,0,1-1.55-4.59,6.89,6.89,0,0,1,.77-3.31,5.1,5.1,0,0,1,2.19-2.17,7.06,7.06,0,0,1,3.36-.76,9.12,9.12,0,0,1,3.63.72l-.55,1.24a8.22,8.22,0,0,0-3.17-.69,4.61,4.61,0,0,0-3.48,1.31,5.12,5.12,0,0,0-1.25,3.66,5.25,5.25,0,0,0,1.21,3.73,4.67,4.67,0,0,0,3.54,1.27,10.76,10.76,0,0,0,2.47-.29V728h-2.72Z"/>
        <path class="cls-21" d="M762.18,733.07V720.94h1.42v12.13Z"/>
        <path class="cls-21" d="M775.28,733.07l-1.52-3.86h-4.88l-1.5,3.86H766l4.81-12.18H772l4.8,12.18Zm-2-5.13-1.42-3.76c-.18-.47-.37-1.06-.56-1.75a14.58,14.58,0,0,1-.53,1.75l-1.43,3.76Z"/>
      </g>
    </g>
    <g class="cls-20">
      <g class="cls-20">
        <path class="cls-21" d="M695.37,434.4a4,4,0,0,0-3.17,1.33,5.33,5.33,0,0,0-1.16,3.65,5.42,5.42,0,0,0,1.12,3.67,4,4,0,0,0,3.19,1.3,11.12,11.12,0,0,0,2.91-.45v1.23a8.92,8.92,0,0,1-3.13.48A5.32,5.32,0,0,1,691,444a6.69,6.69,0,0,1-1.46-4.62,7.28,7.28,0,0,1,.7-3.29,5,5,0,0,1,2-2.17,6.11,6.11,0,0,1,3.12-.76,7.62,7.62,0,0,1,3.35.69l-.6,1.21A6.46,6.46,0,0,0,695.37,434.4Z"/>
        <path class="cls-21" d="M710.85,445.44h-1.42v-5.71H703v5.71H701.6V433.31H703v5.16h6.41v-5.16h1.42Z"/>
        <path class="cls-21" d="M722.53,445.44,721,441.58h-4.88l-1.5,3.86H713.2L718,433.26h1.19L724,445.44Zm-2-5.13-1.42-3.76c-.18-.47-.37-1.05-.56-1.75a16,16,0,0,1-.53,1.75l-1.43,3.76Z"/>
        <path class="cls-21" d="M731.74,445.44l-4.13-10.75h-.07q.12,1.28.12,3v7.72h-1.31V433.31h2.13l3.86,10h.07l3.89-10h2.11v12.13H737v-7.82c0-.89,0-1.86.12-2.92h-.07l-4.17,10.74Z"/>
        <path class="cls-21" d="M750.09,445.44l-1.51-3.86H743.7l-1.5,3.86h-1.44l4.82-12.18h1.19l4.79,12.18Zm-2-5.13-1.42-3.76c-.18-.47-.37-1.05-.57-1.75a13.9,13.9,0,0,1-.52,1.75l-1.43,3.76Z"/>
        <path class="cls-21" d="M664.69,466.53V454.4h1.41v12.13Z"/>
        <path class="cls-21" d="M679.64,466.53H678l-6.65-10.18h-.07c.09,1.19.13,2.29.13,3.28v6.9h-1.31V454.4h1.6l6.64,10.14h.07c0-.15,0-.63-.07-1.44s-.06-1.39-.05-1.74v-7h1.33Z"/>
        <path class="cls-21" d="M683.67,454.4h3.44a6.52,6.52,0,0,1,3.51.72,2.54,2.54,0,0,1,1.08,2.28,2.63,2.63,0,0,1-.6,1.78,2.9,2.9,0,0,1-1.76.91v.08c1.85.32,2.77,1.29,2.77,2.91a3.14,3.14,0,0,1-1.1,2.54,4.78,4.78,0,0,1-3.09.91h-4.25Zm1.42,5.19h2.33a3.76,3.76,0,0,0,2.16-.47,1.79,1.79,0,0,0,.66-1.58,1.59,1.59,0,0,0-.74-1.47,4.6,4.6,0,0,0-2.33-.45h-2.08Zm0,1.2v4.54h2.54a3.63,3.63,0,0,0,2.22-.57,2.09,2.09,0,0,0,.75-1.78,1.88,1.88,0,0,0-.77-1.66,4.12,4.12,0,0,0-2.32-.53Z"/>
        <path class="cls-21" d="M706,460.45A6.64,6.64,0,0,1,704.5,465a5.19,5.19,0,0,1-4.11,1.66,5.27,5.27,0,0,1-4.15-1.63,8,8,0,0,1,0-9.22,5.32,5.32,0,0,1,4.17-1.63,5.18,5.18,0,0,1,4.1,1.66A6.65,6.65,0,0,1,706,460.45Zm-9.7,0a5.72,5.72,0,0,0,1.05,3.73,4.31,4.31,0,0,0,6.12,0,5.81,5.81,0,0,0,1-3.74,5.74,5.74,0,0,0-1-3.71,3.67,3.67,0,0,0-3-1.27,3.76,3.76,0,0,0-3.08,1.27A5.72,5.72,0,0,0,696.28,460.45Z"/>
        <path class="cls-21" d="M717.49,466.53h-1.61l-3.27-5.34-3.34,5.34h-1.5l4.05-6.34-3.77-5.79h1.57l3,4.8,3.05-4.8h1.51l-3.78,5.74Z"/>
        <path class="cls-21" d="M725,454.4h3.44a6.57,6.57,0,0,1,3.51.72,2.54,2.54,0,0,1,1.08,2.28,2.63,2.63,0,0,1-.6,1.78,3,3,0,0,1-1.77.91v.08c1.85.32,2.78,1.29,2.78,2.91a3.12,3.12,0,0,1-1.11,2.54,4.73,4.73,0,0,1-3.08.91H725Zm1.41,5.19h2.34a3.7,3.7,0,0,0,2.15-.47,1.79,1.79,0,0,0,.66-1.58,1.59,1.59,0,0,0-.73-1.47,4.62,4.62,0,0,0-2.33-.45h-2.09Zm0,1.2v4.54H729a3.65,3.65,0,0,0,2.23-.57A2.11,2.11,0,0,0,732,463a1.88,1.88,0,0,0-.76-1.66,4.12,4.12,0,0,0-2.32-.53Z"/>
        <path class="cls-21" d="M738.18,461.48v5h-1.41V454.4h3.34a5.35,5.35,0,0,1,3.31.85,3.11,3.11,0,0,1,1.07,2.58,3.23,3.23,0,0,1-2.45,3.25l3.31,5.45h-1.68l-2.95-5Zm0-1.21h1.94a3.33,3.33,0,0,0,2.2-.59,2.19,2.19,0,0,0,.7-1.78,2,2,0,0,0-.71-1.73,3.85,3.85,0,0,0-2.29-.53h-1.84Z"/>
        <path class="cls-21" d="M755.65,466.53l-1.51-3.86h-4.89l-1.5,3.86h-1.43l4.82-12.18h1.19l4.79,12.18Zm-2-5.13-1.41-3.76c-.19-.47-.37-1.06-.57-1.75a14.41,14.41,0,0,1-.52,1.75l-1.44,3.76Z"/>
        <path class="cls-21" d="M766.35,463.3a3,3,0,0,1-1.17,2.5,5,5,0,0,1-3.16.89,8,8,0,0,1-3.34-.55v-1.36a9.55,9.55,0,0,0,1.64.5,8.74,8.74,0,0,0,1.75.18,3.52,3.52,0,0,0,2.13-.54,1.74,1.74,0,0,0,.72-1.49,1.89,1.89,0,0,0-.26-1,2.35,2.35,0,0,0-.85-.74,11.54,11.54,0,0,0-1.81-.77,5.84,5.84,0,0,1-2.43-1.44,3.12,3.12,0,0,1-.73-2.16,2.69,2.69,0,0,1,1.06-2.23,4.38,4.38,0,0,1,2.8-.83,8.33,8.33,0,0,1,3.34.66l-.44,1.23a7.59,7.59,0,0,0-2.93-.63,2.85,2.85,0,0,0-1.76.48,1.57,1.57,0,0,0-.63,1.33,2,2,0,0,0,.23,1,2.17,2.17,0,0,0,.79.73,9.18,9.18,0,0,0,1.69.75,6.67,6.67,0,0,1,2.64,1.46A2.85,2.85,0,0,1,766.35,463.3Z"/>
        <path class="cls-21" d="M769.52,466.53V454.4h1.42v12.13Z"/>
        <path class="cls-21" d="M775,466.53V454.4h1.42v10.85h5.37v1.28Z"/>
      </g>
    </g>
    <g class="cls-20">
      <g class="cls-20">
        <path class="cls-21" d="M533.15,437.86h-1.42v-5.7h-6.41v5.7H523.9V425.74h1.42v5.16h6.41v-5.16h1.42Z"/>
        <path class="cls-21" d="M547.74,431.78a6.69,6.69,0,0,1-1.47,4.58,5.23,5.23,0,0,1-4.12,1.67,5.29,5.29,0,0,1-4.15-1.64,8,8,0,0,1,0-9.22,5.35,5.35,0,0,1,4.17-1.63,5.22,5.22,0,0,1,4.1,1.66A6.69,6.69,0,0,1,547.74,431.78Zm-9.7,0a5.75,5.75,0,0,0,1.05,3.74,3.75,3.75,0,0,0,3.06,1.27,3.71,3.71,0,0,0,3.06-1.27,7.22,7.22,0,0,0,0-7.45,3.72,3.72,0,0,0-3.05-1.26,3.76,3.76,0,0,0-3.08,1.27A5.69,5.69,0,0,0,538,431.78Z"/>
        <path class="cls-21" d="M558,434.64a3,3,0,0,1-1.17,2.49,5.06,5.06,0,0,1-3.17.9,8,8,0,0,1-3.33-.56v-1.36a8.74,8.74,0,0,0,1.64.5,8.64,8.64,0,0,0,1.74.18,3.61,3.61,0,0,0,2.14-.53,1.77,1.77,0,0,0,.71-1.49,1.87,1.87,0,0,0-.25-1,2.36,2.36,0,0,0-.85-.75,13.12,13.12,0,0,0-1.81-.77,5.83,5.83,0,0,1-2.43-1.43,3.17,3.17,0,0,1-.73-2.17,2.68,2.68,0,0,1,1.06-2.23,4.42,4.42,0,0,1,2.8-.83,8.33,8.33,0,0,1,3.34.66l-.44,1.23a7.63,7.63,0,0,0-2.94-.63,2.82,2.82,0,0,0-1.75.48,1.58,1.58,0,0,0-.64,1.34,2,2,0,0,0,.24,1,2.07,2.07,0,0,0,.78.74,10.21,10.21,0,0,0,1.7.74,6.8,6.8,0,0,1,2.64,1.46A2.88,2.88,0,0,1,558,434.64Z"/>
        <path class="cls-21" d="M568.91,429.27a3.38,3.38,0,0,1-1.26,2.83,5.73,5.73,0,0,1-3.61,1h-1.43v4.77h-1.42V425.74h3.16C567.39,425.74,568.91,426.91,568.91,429.27Zm-6.3,2.61h1.27a4.82,4.82,0,0,0,2.73-.6,2.24,2.24,0,0,0,.84-1.94,2.12,2.12,0,0,0-.79-1.8,4.18,4.18,0,0,0-2.47-.59h-1.58Z"/>
        <path class="cls-21" d="M572.15,437.86V425.74h1.41v12.12Z"/>
        <path class="cls-21" d="M581.33,437.86h-1.41V427h-3.86v-1.25h9.13V427h-3.86Z"/>
        <path class="cls-21" d="M595.36,437.86,593.85,434H589l-1.5,3.85H586l4.82-12.17H592l4.79,12.17Zm-2-5.12L592,429c-.18-.48-.37-1.06-.57-1.75a15,15,0,0,1-.52,1.75l-1.43,3.76Z"/>
        <path class="cls-21" d="M599.19,437.86V425.74h1.41v10.85H606v1.27Z"/>
        <path class="cls-21" d="M517,452.77a6.1,6.1,0,0,1-1.63,4.59,6.53,6.53,0,0,1-4.72,1.59h-3.37V446.82H511a6,6,0,0,1,4.42,1.57A5.92,5.92,0,0,1,517,452.77Zm-1.5.05a4.88,4.88,0,0,0-1.19-3.57,4.82,4.82,0,0,0-3.56-1.21h-2v9.69h1.72a5.25,5.25,0,0,0,3.81-1.24A4.88,4.88,0,0,0,515.46,452.82Z"/>
        <path class="cls-21" d="M528,459l-1.52-3.85h-4.88l-1.5,3.85h-1.43l4.81-12.18h1.19L529.48,459Zm-2-5.12-1.42-3.76c-.18-.48-.37-1.06-.56-1.75a17.42,17.42,0,0,1-.53,1.75l-1.43,3.76Z"/>
        <path class="cls-21" d="M538.71,455.73a3,3,0,0,1-1.16,2.49,5.08,5.08,0,0,1-3.17.9,8,8,0,0,1-3.33-.56V457.2a8.63,8.63,0,0,0,1.63.5,8.74,8.74,0,0,0,1.75.18,3.55,3.55,0,0,0,2.13-.53,1.76,1.76,0,0,0,.72-1.49,1.87,1.87,0,0,0-.25-1,2.45,2.45,0,0,0-.85-.75,13.12,13.12,0,0,0-1.81-.77,5.7,5.7,0,0,1-2.43-1.43,3.17,3.17,0,0,1-.73-2.17,2.68,2.68,0,0,1,1.06-2.23,4.4,4.4,0,0,1,2.8-.83,8.33,8.33,0,0,1,3.34.66l-.45,1.23a7.55,7.55,0,0,0-2.93-.63,2.87,2.87,0,0,0-1.76.48,1.59,1.59,0,0,0-.63,1.34,2.09,2.09,0,0,0,.23,1,2.19,2.19,0,0,0,.79.74,10.21,10.21,0,0,0,1.7.74A6.82,6.82,0,0,1,538,453.7,2.88,2.88,0,0,1,538.71,455.73Z"/>
        <path class="cls-21" d="M552.22,447.91a4,4,0,0,0-3.17,1.33,5.35,5.35,0,0,0-1.16,3.65,5.45,5.45,0,0,0,1.12,3.68,4,4,0,0,0,3.19,1.3,11.17,11.17,0,0,0,2.91-.46v1.24a9.15,9.15,0,0,1-3.12.47,5.29,5.29,0,0,1-4.16-1.63,6.69,6.69,0,0,1-1.46-4.62,7.23,7.23,0,0,1,.7-3.28,5.06,5.06,0,0,1,2-2.18,6.25,6.25,0,0,1,3.13-.76,7.47,7.47,0,0,1,3.34.7l-.6,1.21A6.48,6.48,0,0,0,552.22,447.91Z"/>
        <path class="cls-21" d="M558.45,459V446.82h1.42v10.86h5.37V459Z"/>
        <path class="cls-21" d="M567.81,445.65c.26-.35.55-.76.86-1.25a13.43,13.43,0,0,0,.73-1.27h1.68v.18a11.59,11.59,0,0,1-1.09,1.32,10.55,10.55,0,0,1-1.26,1.22h-.92ZM568,459V446.82h1.42V459Z"/>
        <path class="cls-21" d="M582.94,459h-1.61l-6.66-10.18h-.07c.09,1.2.14,2.29.14,3.29V459h-1.31V446.82H575L581.67,457h.07c0-.15,0-.63-.08-1.44s0-1.39,0-1.74v-7h1.32Z"/>
        <path class="cls-21" d="M587,459V446.82h1.41V459Z"/>
        <path class="cls-21" d="M597.63,447.91a4,4,0,0,0-3.17,1.33,6.46,6.46,0,0,0,0,7.33,4,4,0,0,0,3.19,1.3,11.17,11.17,0,0,0,2.91-.46v1.24a9.07,9.07,0,0,1-3.12.47,5.29,5.29,0,0,1-4.16-1.63,6.69,6.69,0,0,1-1.46-4.62,7.24,7.24,0,0,1,.71-3.28,5,5,0,0,1,2-2.18,6.25,6.25,0,0,1,3.13-.76,7.54,7.54,0,0,1,3.35.7l-.6,1.21A6.55,6.55,0,0,0,597.63,447.91Z"/>
        <path class="cls-21" d="M611.52,459,610,455.1h-4.88l-1.5,3.85h-1.43L607,446.77h1.19L613,459Zm-2-5.12-1.42-3.76c-.18-.48-.37-1.06-.56-1.75a15.15,15.15,0,0,1-.53,1.75l-1.43,3.76Z"/>
        <path class="cls-21" d="M622.21,455.73a3,3,0,0,1-1.16,2.49,5.06,5.06,0,0,1-3.17.9,8,8,0,0,1-3.33-.56V457.2a8.63,8.63,0,0,0,1.63.5,8.81,8.81,0,0,0,1.75.18,3.61,3.61,0,0,0,2.14-.53,1.78,1.78,0,0,0,.71-1.49,1.87,1.87,0,0,0-.25-1,2.36,2.36,0,0,0-.85-.75,13.12,13.12,0,0,0-1.81-.77,5.7,5.7,0,0,1-2.43-1.43,3.17,3.17,0,0,1-.73-2.17,2.68,2.68,0,0,1,1.06-2.23,4.42,4.42,0,0,1,2.8-.83,8.33,8.33,0,0,1,3.34.66l-.45,1.23a7.55,7.55,0,0,0-2.93-.63,2.87,2.87,0,0,0-1.76.48,1.59,1.59,0,0,0-.63,1.34,2,2,0,0,0,.24,1,2.07,2.07,0,0,0,.78.74,10.21,10.21,0,0,0,1.7.74,6.82,6.82,0,0,1,2.63,1.46A2.88,2.88,0,0,1,622.21,455.73Z"/>
        <path class="cls-21" d="M558.46,467.91v7.85A4.26,4.26,0,0,1,557.2,479a4.85,4.85,0,0,1-3.46,1.19,4.61,4.61,0,0,1-3.4-1.2,4.42,4.42,0,0,1-1.21-3.28v-7.82h1.42v7.92a3.13,3.13,0,0,0,.83,2.33,3.4,3.4,0,0,0,2.45.81,3.28,3.28,0,0,0,2.38-.81,3.18,3.18,0,0,0,.83-2.35v-7.9Z"/>
        <path class="cls-21" d="M569.24,476.82a3,3,0,0,1-1.17,2.49,5,5,0,0,1-3.16.9,8,8,0,0,1-3.34-.56v-1.36A9,9,0,0,0,565,479a3.6,3.6,0,0,0,2.13-.53,1.76,1.76,0,0,0,.71-1.49,1.87,1.87,0,0,0-.25-1,2.36,2.36,0,0,0-.85-.75,13.12,13.12,0,0,0-1.81-.77,5.83,5.83,0,0,1-2.43-1.43,3.17,3.17,0,0,1-.73-2.17,2.68,2.68,0,0,1,1.06-2.23,4.42,4.42,0,0,1,2.8-.83,8.33,8.33,0,0,1,3.34.66l-.44,1.23a7.63,7.63,0,0,0-2.94-.63,2.84,2.84,0,0,0-1.75.48,1.6,1.6,0,0,0-.64,1.34,2,2,0,0,0,.24,1,2.24,2.24,0,0,0,.78.74,10.21,10.21,0,0,0,1.7.74,6.67,6.67,0,0,1,2.64,1.46A2.88,2.88,0,0,1,569.24,476.82Z"/>
        <path class="cls-21" d="M580.14,471.45a3.39,3.39,0,0,1-1.27,2.83,5.73,5.73,0,0,1-3.61,1h-1.43V480h-1.42V467.91h3.16C578.61,467.91,580.14,469.09,580.14,471.45Zm-6.31,2.61h1.27a4.8,4.8,0,0,0,2.73-.6,2.24,2.24,0,0,0,.84-1.95,2.09,2.09,0,0,0-.79-1.79,4.18,4.18,0,0,0-2.47-.59h-1.58Z"/>
      </g>
    </g>
    <g class="cls-20">
      <text class="cls-22" transform="translate(856.45 412.79)" style="white-space: pre;">INST. <tspan x="-27.87" y="21.09">BUTANTAN; </tspan><tspan x="-51.69" y="42.18">FUND. OSWALDO </tspan><tspan x="-3.51" y="63.27">CRUZ; </tspan><tspan x="0.34" y="84.36">INTEL</tspan></text>
    </g>
    <g class="cls-20">
      <text class="cls-22" transform="translate(847.08 727.81)" style="white-space: pre;">RADTEC</text>
    </g>
    <g class="cls-20">
      <g class="cls-20">
        <path class="cls-21" d="M518.42,707.45v5H517V700.36h3.34a5.26,5.26,0,0,1,3.31.86,3.09,3.09,0,0,1,1.07,2.57,3.22,3.22,0,0,1-2.45,3.25l3.31,5.45h-1.68l-2.95-5Zm0-1.21h2a3.29,3.29,0,0,0,2.19-.6,2.19,2.19,0,0,0,.7-1.78,2,2,0,0,0-.71-1.73,3.87,3.87,0,0,0-2.28-.53h-1.85Z"/>
        <path class="cls-21" d="M535,712.49h-6.79V700.36H535v1.25h-5.38v3.91h5.05v1.25h-5.05v4.46H535Z"/>
        <path class="cls-21" d="M549,706.41a7.28,7.28,0,0,1-.94,3.87,4.66,4.66,0,0,1-2.66,2.09l2.9,3h-2.06l-2.37-2.74-.46,0a5.28,5.28,0,0,1-4.15-1.64,8,8,0,0,1,0-9.22,5.32,5.32,0,0,1,4.17-1.63,5.18,5.18,0,0,1,4.1,1.66A6.67,6.67,0,0,1,549,706.41Zm-9.7,0a5.77,5.77,0,0,0,1.05,3.74,4.32,4.32,0,0,0,6.12,0,5.81,5.81,0,0,0,1-3.74,5.74,5.74,0,0,0-1-3.71,3.67,3.67,0,0,0-3-1.27,3.77,3.77,0,0,0-3.08,1.28A5.67,5.67,0,0,0,539.28,706.41Z"/>
        <path class="cls-21" d="M561.58,700.36v7.85a4.26,4.26,0,0,1-1.26,3.26,4.85,4.85,0,0,1-3.46,1.19,4.61,4.61,0,0,1-3.4-1.2,4.41,4.41,0,0,1-1.2-3.28v-7.82h1.41v7.92a3.09,3.09,0,0,0,.84,2.33,3.37,3.37,0,0,0,2.45.81,3.24,3.24,0,0,0,2.37-.82,3.1,3.1,0,0,0,.83-2.34v-7.9Z"/>
        <path class="cls-21" d="M565.49,712.49V700.36h1.41v12.13Z"/>
        <path class="cls-21" d="M577.8,709.26a3,3,0,0,1-1.17,2.5,5,5,0,0,1-3.16.9,8,8,0,0,1-3.34-.56v-1.36a9,9,0,0,0,3.39.68,3.6,3.6,0,0,0,2.13-.53,1.76,1.76,0,0,0,.72-1.49,1.93,1.93,0,0,0-.26-1,2.45,2.45,0,0,0-.85-.74,11.54,11.54,0,0,0-1.81-.77,5.73,5.73,0,0,1-2.43-1.44,3.17,3.17,0,0,1-.73-2.16,2.69,2.69,0,0,1,1.06-2.23,4.38,4.38,0,0,1,2.8-.83,8.33,8.33,0,0,1,3.34.66l-.44,1.23a7.59,7.59,0,0,0-2.93-.63,2.85,2.85,0,0,0-1.76.48,1.59,1.59,0,0,0-.63,1.34,2,2,0,0,0,.23,1,2.19,2.19,0,0,0,.79.74,10,10,0,0,0,1.69.74,6.67,6.67,0,0,1,2.64,1.46A2.85,2.85,0,0,1,577.8,709.26Z"/>
        <path class="cls-21" d="M581,712.49V700.36h1.42v12.13Z"/>
        <path class="cls-21" d="M590.16,712.49h-1.41V701.61h-3.86v-1.25H594v1.25h-3.86Z"/>
        <path class="cls-21" d="M607.11,706.41a6.69,6.69,0,0,1-1.48,4.58,5.23,5.23,0,0,1-4.11,1.67,5.3,5.3,0,0,1-4.16-1.64,6.75,6.75,0,0,1-1.46-4.63,6.63,6.63,0,0,1,1.47-4.59,5.29,5.29,0,0,1,4.16-1.63,5.18,5.18,0,0,1,4.1,1.66A6.62,6.62,0,0,1,607.11,706.41Zm-9.71,0a5.71,5.71,0,0,0,1.06,3.74,4.32,4.32,0,0,0,6.12,0,5.87,5.87,0,0,0,1-3.74,5.8,5.8,0,0,0-1-3.71,3.69,3.69,0,0,0-3.05-1.27,3.75,3.75,0,0,0-3.07,1.28A5.61,5.61,0,0,0,597.4,706.41Z"/>
        <path class="cls-21" d="M513.67,733.58h-1.42V722.7h-3.86v-1.25h9.13v1.25h-3.85Z"/>
        <path class="cls-21" d="M526.83,733.58H520V721.45h6.79v1.25h-5.37v3.91h5v1.25h-5v4.46h5.37Z"/>
        <path class="cls-21" d="M535.43,722.54a4,4,0,0,0-3.17,1.33,5.34,5.34,0,0,0-1.17,3.65,5.47,5.47,0,0,0,1.13,3.68,4,4,0,0,0,3.19,1.29,11.12,11.12,0,0,0,2.91-.45v1.23a8.92,8.92,0,0,1-3.13.48,5.32,5.32,0,0,1-4.15-1.63,6.69,6.69,0,0,1-1.46-4.62,7.28,7.28,0,0,1,.7-3.29,5,5,0,0,1,2-2.17,6.11,6.11,0,0,1,3.12-.76,7.62,7.62,0,0,1,3.35.69l-.6,1.22A6.33,6.33,0,0,0,535.43,722.54Z"/>
        <path class="cls-21" d="M551.17,733.58h-1.61L542.9,723.4h-.07c.09,1.2.14,2.29.14,3.29v6.89h-1.31V721.45h1.6l6.64,10.14H550c0-.15,0-.63-.08-1.44s0-1.39,0-1.74v-7h1.32Z"/>
        <path class="cls-21" d="M565.78,727.5a6.64,6.64,0,0,1-1.48,4.58,6,6,0,0,1-8.26,0,6.7,6.7,0,0,1-1.47-4.63,6.63,6.63,0,0,1,1.47-4.59,5.32,5.32,0,0,1,4.17-1.63,5.18,5.18,0,0,1,4.09,1.66A6.62,6.62,0,0,1,565.78,727.5Zm-9.71,0a5.71,5.71,0,0,0,1.06,3.74,4.32,4.32,0,0,0,6.12,0,5.87,5.87,0,0,0,1-3.74,5.74,5.74,0,0,0-1-3.71,3.68,3.68,0,0,0-3-1.27,3.77,3.77,0,0,0-3.08,1.28A5.61,5.61,0,0,0,556.07,727.5Z"/>
        <path class="cls-21" d="M569.18,733.58V721.45h1.41V732.3H576v1.28Z"/>
        <path class="cls-21" d="M589.29,727.5a6.69,6.69,0,0,1-1.48,4.58,5.23,5.23,0,0,1-4.11,1.67,5.3,5.3,0,0,1-4.16-1.64,6.75,6.75,0,0,1-1.46-4.63,6.63,6.63,0,0,1,1.47-4.59,5.31,5.31,0,0,1,4.16-1.63,5.18,5.18,0,0,1,4.1,1.66A6.62,6.62,0,0,1,589.29,727.5Zm-9.71,0a5.71,5.71,0,0,0,1.06,3.74,4.32,4.32,0,0,0,6.12,0,5.87,5.87,0,0,0,1-3.74,5.74,5.74,0,0,0-1-3.71,3.69,3.69,0,0,0-3-1.27,3.76,3.76,0,0,0-3.07,1.28A5.61,5.61,0,0,0,579.58,727.5Z"/>
        <path class="cls-21" d="M598,727.23h4.15v5.89a13.44,13.44,0,0,1-2,.47,15.74,15.74,0,0,1-2.32.16,5.61,5.61,0,0,1-4.3-1.64,6.44,6.44,0,0,1-1.55-4.59,6.9,6.9,0,0,1,.77-3.32A5.1,5.1,0,0,1,595,722a7.17,7.17,0,0,1,3.36-.75A9.29,9.29,0,0,1,602,722l-.55,1.25a8.06,8.06,0,0,0-3.17-.7,4.57,4.57,0,0,0-3.48,1.32,5.12,5.12,0,0,0-1.25,3.66,5.24,5.24,0,0,0,1.21,3.72,4.62,4.62,0,0,0,3.53,1.27,10.78,10.78,0,0,0,2.48-.29v-3.73H598Z"/>
        <path class="cls-21" d="M605.79,733.58V721.45h1.42v12.13Z"/>
        <path class="cls-21" d="M618.89,733.58l-1.52-3.86h-4.88l-1.5,3.86h-1.43l4.81-12.18h1.19l4.79,12.18Zm-2-5.13-1.42-3.75c-.18-.48-.37-1.06-.56-1.75a15.15,15.15,0,0,1-.53,1.75L613,728.45Z"/>
      </g>
    </g>
    <g class="cls-20">
      <text class="cls-22" transform="translate(900.79 589.88)" style="white-space: pre;">TALKTELECOM</text>
    </g>
    <g class="cls-20">
      <text class="cls-22" transform="translate(668.63 885.04)" style="white-space: pre;">TRUE WORK</text>
    </g>
    <g class="cls-20">
      <text class="cls-23" transform="translate(1143.85 639.63)" style="white-space: pre;">INSS</text>
    </g>
    <g class="cls-20">
      <text class="cls-23" transform="translate(1285.78 639.63)" style="white-space: pre;">SERPRO</text>
    </g>
    <g class="cls-20">
      <text class="cls-23" transform="translate(1072.61 889.05)" style="white-space: pre;">MINISTÉRIO <tspan x="9.01" y="21.81">DA SAÚDE</tspan></text>
    </g>
    <g class="cls-20">
      <text class="cls-22" transform="translate(1038.14 334.28)" style="white-space: pre;">UFAL</text>
    </g>
    <g class="cls-20">
      <text class="cls-22" transform="translate(1177.05 334.28)" style="white-space: pre;">VIASOLUTI</text>
    </g>
    <g class="cls-20">
      <text class="cls-23" transform="translate(922.79 1005.17)" style="white-space: pre;">EMBRATEL</text>
    </g>
    <g class="cls-20">
      <g class="cls-20">
        <path d="M864.7,233.51l-4.24-11.07h-.06c.08.88.12,1.92.12,3.13v7.94h-1.35V221h2.19l4,10.31h.06l4-10.31h2.17v12.49h-1.45v-8c0-.93,0-1.93.12-3h-.07l-4.27,11Z"/>
        <path d="M874.62,233.51V221h1.45v12.49Z"/>
        <path d="M888.9,233.51h-1.66L880.42,223h-.07c.09,1.23.14,2.36.14,3.38v7.1h-1.34V221h1.64l6.8,10.44h.07c0-.15,0-.65-.07-1.48s-.06-1.43-.05-1.79V221h1.36Z"/>
        <path d="M892,233.51V221h1.45v12.49Z"/>
        <path d="M903.56,230.19a3.07,3.07,0,0,1-1.19,2.57,5.17,5.17,0,0,1-3.25.92,8.19,8.19,0,0,1-3.42-.57v-1.4a8.25,8.25,0,0,0,1.68.51,8.45,8.45,0,0,0,1.79.19,3.61,3.61,0,0,0,2.19-.55,1.81,1.81,0,0,0,.73-1.53,2,2,0,0,0-.26-1.07,2.38,2.38,0,0,0-.87-.76,12.07,12.07,0,0,0-1.86-.8,5.89,5.89,0,0,1-2.49-1.47,3.27,3.27,0,0,1-.75-2.23,2.78,2.78,0,0,1,1.09-2.3,4.5,4.5,0,0,1,2.87-.86,8.44,8.44,0,0,1,3.43.69l-.46,1.26a7.77,7.77,0,0,0-3-.65,3,3,0,0,0-1.81.5,1.64,1.64,0,0,0-.65,1.37,2.12,2.12,0,0,0,.24,1.07,2.3,2.3,0,0,0,.81.76,10.29,10.29,0,0,0,1.74.76,6.82,6.82,0,0,1,2.7,1.51A3,3,0,0,1,903.56,230.19Z"/>
        <path d="M909.61,233.51h-1.45v-11.2h-4V221h9.36v1.29h-3.95Z"/>
        <path d="M922.05,233.51h-7V221h7v1.29h-5.51v4h5.18v1.28h-5.18v4.59h5.51Zm-4.78-13.7c.27-.35.57-.78.89-1.28s.56-.94.74-1.31h1.73v.18a13.17,13.17,0,0,1-1.12,1.37,12.94,12.94,0,0,1-1.29,1.25h-1Z"/>
        <path d="M925.92,228.32v5.19h-1.45V221h3.43a5.41,5.41,0,0,1,3.39.88,3.17,3.17,0,0,1,1.1,2.65,3.32,3.32,0,0,1-2.51,3.35l3.39,5.61h-1.72l-3-5.19Zm0-1.25h2a3.42,3.42,0,0,0,2.25-.61,2.27,2.27,0,0,0,.72-1.83,2.11,2.11,0,0,0-.73-1.79,4,4,0,0,0-2.35-.54h-1.89Z"/>
        <path d="M934.94,233.51V221h1.45v12.49Z"/>
        <path d="M950.3,227.25a6.9,6.9,0,0,1-1.51,4.72,5.35,5.35,0,0,1-4.22,1.71,5.41,5.41,0,0,1-4.26-1.68,7,7,0,0,1-1.49-4.77,6.82,6.82,0,0,1,1.5-4.72,5.44,5.44,0,0,1,4.27-1.68,5.31,5.31,0,0,1,4.2,1.71A6.85,6.85,0,0,1,950.3,227.25Zm-9.95,0a5.93,5.93,0,0,0,1.08,3.85,3.85,3.85,0,0,0,3.14,1.31,3.81,3.81,0,0,0,3.14-1.31,6,6,0,0,0,1.06-3.85,5.92,5.92,0,0,0-1.06-3.82,3.76,3.76,0,0,0-3.12-1.3,3.85,3.85,0,0,0-3.16,1.31A5.85,5.85,0,0,0,940.35,227.25Z"/>
        <path d="M966.9,227.15a6.31,6.31,0,0,1-1.68,4.73,6.63,6.63,0,0,1-4.83,1.63h-3.46V221h3.83a5.61,5.61,0,0,1,6.14,6.13Zm-1.53,0a5,5,0,0,0-1.23-3.68,4.89,4.89,0,0,0-3.64-1.24h-2.11v10h1.76a5.4,5.4,0,0,0,3.91-1.28A5.06,5.06,0,0,0,965.37,227.2Z"/>
        <path d="M977.19,233.51l-1.56-4h-5l-1.54,4h-1.47L972.56,221h1.22l4.91,12.54Zm-2-5.28-1.45-3.87c-.19-.49-.38-1.09-.58-1.8a17.53,17.53,0,0,1-.54,1.8l-1.47,3.87Z"/>
        <path d="M851.24,254.51V242h1.46v12.49Z"/>
        <path d="M865.53,254.51h-1.66L857,244H857c.09,1.23.13,2.36.13,3.39v7.1h-1.34V242h1.64l6.81,10.44h.07c0-.16,0-.65-.08-1.49s-.05-1.43,0-1.79V242h1.36Z"/>
        <path d="M870.06,254.51h-1.45V242h7v1.29h-5.51v4.57h5.18v1.29h-5.18Z"/>
        <path d="M878.74,249.31v5.2h-1.45V242h3.42a5.36,5.36,0,0,1,3.4.88,3.19,3.19,0,0,1,1.1,2.65,3.31,3.31,0,0,1-2.51,3.34l3.39,5.62h-1.72l-3-5.2Zm0-1.25h2a3.43,3.43,0,0,0,2.26-.61,2.27,2.27,0,0,0,.71-1.83,2.07,2.07,0,0,0-.73-1.78,3.88,3.88,0,0,0-2.34-.55h-1.89Z"/>
        <path d="M895.6,254.51l-1.55-4h-5l-1.54,4H886L891,242h1.23l4.91,12.54Zm-2-5.28-1.46-3.87c-.18-.49-.38-1.09-.58-1.81a14.21,14.21,0,0,1-.54,1.81l-1.46,3.87Z"/>
        <path d="M905.44,254.51h-7V242h7v1.29h-5.51v4h5.17v1.28h-5.17v4.6h5.51Z"/>
        <path d="M914.9,251.18a3.07,3.07,0,0,1-1.19,2.57,5.17,5.17,0,0,1-3.25.93,8,8,0,0,1-3.42-.58v-1.4a8.94,8.94,0,0,0,1.68.52,9.13,9.13,0,0,0,1.79.18,3.61,3.61,0,0,0,2.19-.55,1.79,1.79,0,0,0,.73-1.53,2,2,0,0,0-.26-1.06,2.31,2.31,0,0,0-.87-.77,12.22,12.22,0,0,0-1.86-.79,6,6,0,0,1-2.49-1.48,3.25,3.25,0,0,1-.75-2.23,2.79,2.79,0,0,1,1.09-2.3,4.5,4.5,0,0,1,2.87-.85,8.52,8.52,0,0,1,3.42.68l-.45,1.27a7.6,7.6,0,0,0-3-.65,2.94,2.94,0,0,0-1.8.49,1.64,1.64,0,0,0-.65,1.38,2.11,2.11,0,0,0,.24,1.06,2.22,2.22,0,0,0,.81.76,9.54,9.54,0,0,0,1.74.76,6.82,6.82,0,0,1,2.7,1.51A3,3,0,0,1,914.9,251.18Z"/>
        <path d="M921,254.51H919.5v-11.2h-4V242h9.36v1.29H921Z"/>
        <path d="M927.89,249.31v5.2h-1.46V242h3.43a5.35,5.35,0,0,1,3.39.88,3.16,3.16,0,0,1,1.1,2.65,3.31,3.31,0,0,1-2.51,3.34l3.39,5.62h-1.72l-3-5.2Zm0-1.25h2a3.42,3.42,0,0,0,2.25-.61,2.25,2.25,0,0,0,.72-1.83,2.07,2.07,0,0,0-.73-1.78,3.93,3.93,0,0,0-2.35-.55h-1.88Z"/>
        <path d="M946.33,242v8.08a4.38,4.38,0,0,1-1.29,3.35,4.93,4.93,0,0,1-3.55,1.23,4.75,4.75,0,0,1-3.49-1.23,4.58,4.58,0,0,1-1.23-3.39v-8h1.45v8.15a3.22,3.22,0,0,0,.86,2.4,3.47,3.47,0,0,0,2.51.83,3.32,3.32,0,0,0,2.43-.84,3.22,3.22,0,0,0,.86-2.41V242Z"/>
        <path d="M953.13,254.51h-1.45v-11.2h-4V242h9.36v1.29h-4Z"/>
        <path d="M968,242v8.08a4.38,4.38,0,0,1-1.29,3.35,4.92,4.92,0,0,1-3.54,1.23,4.73,4.73,0,0,1-3.49-1.23,4.59,4.59,0,0,1-1.24-3.39v-8h1.46v8.15a3.21,3.21,0,0,0,.85,2.4,3.48,3.48,0,0,0,2.51.83,3.33,3.33,0,0,0,2.44-.84,3.22,3.22,0,0,0,.85-2.41V242Z"/>
        <path d="M972.45,249.31v5.2H971V242h3.42a5.36,5.36,0,0,1,3.4.88,3.19,3.19,0,0,1,1.1,2.65,3.31,3.31,0,0,1-2.51,3.34l3.39,5.62h-1.72l-3-5.2Zm0-1.25h2a3.43,3.43,0,0,0,2.26-.61,2.27,2.27,0,0,0,.71-1.83,2.07,2.07,0,0,0-.73-1.78,3.9,3.9,0,0,0-2.34-.55h-1.89Z"/>
        <path d="M989.31,254.51l-1.55-4h-5l-1.54,4h-1.46L984.68,242h1.23l4.91,12.54Zm-2-5.28-1.46-3.87c-.18-.49-.38-1.09-.58-1.81a14.21,14.21,0,0,1-.54,1.81l-1.46,3.87Z"/>
      </g>
    </g>
    <g class="cls-20">
      <text class="cls-23" transform="translate(761.57 1075.72)" style="white-space: pre;">MITO GAMES</text>
    </g>
    <g class="cls-20">
      <text class="cls-24" transform="translate(710.99 183.42)" style="white-space: pre;">PETROBRAS</text>
    </g>
    <g class="cls-20">
      <text class="cls-22" transform="translate(1295.87 868.32)" style="white-space: pre;">UFOB</text>
    </g>
    <text class="cls-25" transform="translate(984.88 1182.51)" style="white-space: pre;">ARMAZENAMENTO</text>
    <text class="cls-25" transform="translate(1017.27 88.99)" style="white-space: pre;">DIGITALIZAÇÃO DE <tspan x="0" y="23.77">SERVIÇOS PÚBLICOS</tspan></text>
    <text class="cls-25" transform="translate(1384.12 980.46)" style="white-space: pre;">DIGITALIZAÇÃO DE <tspan x="0" y="23.77">SERVIÇOS PÚBLICOS</tspan></text>
    <text class="cls-25" transform="translate(539.66 1092.94)" style="white-space: pre;">FORNECIMENTO DE<tspan x="0" y="23.77">INFORMAÇÕES</tspan></text>
    <path d="M1153.85,1027.67v5.88h-1.64v-14.14h3.87a6.14,6.14,0,0,1,3.85,1,3.6,3.6,0,0,1,1.24,3,3.76,3.76,0,0,1-2.84,3.79l3.84,6.35h-2l-3.42-5.88Zm0-1.41h2.25a3.92,3.92,0,0,0,2.56-.69,2.57,2.57,0,0,0,.81-2.07,2.39,2.39,0,0,0-.83-2,4.48,4.48,0,0,0-2.65-.61h-2.14Z"/>
    <path d="M1173.34,1033.55l-1.76-4.49h-5.67l-1.74,4.49h-1.66l5.59-14.19h1.38l5.56,14.19Zm-2.27-6-1.65-4.38q-.32-.84-.66-2a19.88,19.88,0,0,1-.6,2l-1.67,4.38Z"/>
    <path d="M1185,1029.79a3.46,3.46,0,0,1-1.36,2.91,5.84,5.84,0,0,1-3.67,1,9.22,9.22,0,0,1-3.87-.65v-1.59a9.71,9.71,0,0,0,1.89.58,9.48,9.48,0,0,0,2,.22,4.06,4.06,0,0,0,2.48-.63,2,2,0,0,0,.83-1.73,2.33,2.33,0,0,0-.29-1.21,2.77,2.77,0,0,0-1-.86,12.72,12.72,0,0,0-2.1-.9,6.6,6.6,0,0,1-2.82-1.68,3.64,3.64,0,0,1-.85-2.52,3.13,3.13,0,0,1,1.23-2.6,5.07,5.07,0,0,1,3.25-1,9.7,9.7,0,0,1,3.88.77l-.51,1.44a8.82,8.82,0,0,0-3.41-.74,3.32,3.32,0,0,0-2,.56,1.85,1.85,0,0,0-.73,1.56,2.27,2.27,0,0,0,.27,1.2,2.45,2.45,0,0,0,.91.86,10.8,10.8,0,0,0,2,.87,7.92,7.92,0,0,1,3.06,1.7A3.34,3.34,0,0,1,1185,1029.79Z"/>
    <path d="M1192.21,1033.55h-1.64v-12.68h-4.48v-1.46h10.6v1.46h-4.48Z"/>
    <path d="M1200.46,1027.67v5.88h-1.64v-14.14h3.88a6.12,6.12,0,0,1,3.84,1,3.6,3.6,0,0,1,1.24,3,3.75,3.75,0,0,1-2.84,3.79l3.84,6.35h-1.94l-3.43-5.88Zm0-1.41h2.25a3.9,3.9,0,0,0,2.56-.69,2.57,2.57,0,0,0,.81-2.07,2.36,2.36,0,0,0-.83-2,4.48,4.48,0,0,0-2.65-.61h-2.14Z"/>
    <path d="M1219,1033.55h-7.89v-14.14H1219v1.46h-6.24v4.56h5.86v1.45h-5.86v5.2H1219Z"/>
    <path d="M1231,1033.55l-1.76-4.49h-5.67l-1.74,4.49h-1.67l5.6-14.19h1.38l5.56,14.19Zm-2.28-6-1.64-4.38q-.32-.84-.66-2a17.85,17.85,0,0,1-.61,2l-1.66,4.38Z"/>
    <path d="M1240.87,1033.55l-4.8-12.53H1236c.09,1,.13,2.17.13,3.54v9h-1.52v-14.14h2.48l4.48,11.67h.08l4.51-11.67h2.46v14.14H1247v-9.11c0-1,0-2.18.13-3.4H1247l-4.83,12.51Z"/>
    <path d="M1260.38,1033.55h-7.88v-14.14h7.88v1.46h-6.24v4.56H1260v1.45h-5.86v5.2h6.24Z"/>
    <path d="M1274.56,1033.55h-1.88l-7.72-11.86h-.08c.1,1.39.15,2.67.15,3.83v8h-1.51v-14.14h1.85l7.71,11.82h.08c0-.17,0-.73-.09-1.67s-.06-1.62,0-2v-8.12h1.54Z"/>
    <path d="M1282.8,1033.55h-1.64v-12.68h-4.48v-1.46h10.6v1.46h-4.48Z"/>
    <path d="M1301.68,1026.47a7.78,7.78,0,0,1-1.71,5.33,6,6,0,0,1-4.78,2,6.12,6.12,0,0,1-4.82-1.91,7.86,7.86,0,0,1-1.7-5.39,7.74,7.74,0,0,1,1.71-5.36,6.12,6.12,0,0,1,4.83-1.9,6,6,0,0,1,4.76,1.94A7.79,7.79,0,0,1,1301.68,1026.47Zm-11.27,0a6.67,6.67,0,0,0,1.23,4.35,5,5,0,0,0,7.1,0,8.5,8.5,0,0,0,0-8.69,4.28,4.28,0,0,0-3.54-1.48,4.35,4.35,0,0,0-3.57,1.49A6.62,6.62,0,0,0,1290.41,1026.47Z"/>
    <path d="M1163.49,1050.12a7.12,7.12,0,0,1-1.9,5.35,7.49,7.49,0,0,1-5.47,1.86h-3.91v-14.15h4.33a6.34,6.34,0,0,1,7,6.94Zm-1.74.06a5.66,5.66,0,0,0-1.39-4.17,5.53,5.53,0,0,0-4.12-1.4h-2.39v11.29h2a6.09,6.09,0,0,0,4.42-1.44A5.72,5.72,0,0,0,1161.75,1050.18Z"/>
    <path d="M1174.53,1057.33h-7.88v-14.15h7.88v1.46h-6.24v4.56h5.86v1.45h-5.86v5.21h6.24Z"/>
    <path d="M1188.86,1044.45a4.64,4.64,0,0,0-3.68,1.55,7.52,7.52,0,0,0,0,8.54,4.6,4.6,0,0,0,3.7,1.52,12.83,12.83,0,0,0,3.38-.53V1057a10.35,10.35,0,0,1-3.63.55,6.12,6.12,0,0,1-4.82-1.9,7.8,7.8,0,0,1-1.7-5.38,8.54,8.54,0,0,1,.82-3.83,5.86,5.86,0,0,1,2.36-2.54,7.18,7.18,0,0,1,3.63-.89,8.78,8.78,0,0,1,3.89.81l-.69,1.42A7.47,7.47,0,0,0,1188.86,1044.45Z"/>
    <path d="M1207.58,1050.24a7.73,7.73,0,0,1-1.72,5.33,6,6,0,0,1-4.77,2,6.12,6.12,0,0,1-4.82-1.91,9.35,9.35,0,0,1,0-10.75,6.19,6.19,0,0,1,4.84-1.9,6,6,0,0,1,4.76,1.94A7.79,7.79,0,0,1,1207.58,1050.24Zm-11.27,0a6.67,6.67,0,0,0,1.23,4.35,5,5,0,0,0,7.1,0,6.8,6.8,0,0,0,1.2-4.36,6.71,6.71,0,0,0-1.2-4.33,4.25,4.25,0,0,0-3.53-1.48,4.35,4.35,0,0,0-3.57,1.49A6.62,6.62,0,0,0,1196.31,1050.24Z"/>
    <path d="M1221.78,1057.33h-1.88l-7.73-11.87h-.07c.1,1.39.15,2.67.15,3.83v8h-1.52v-14.15h1.86l7.71,11.82h.08c0-.17-.05-.73-.09-1.67s-.06-1.62,0-2v-8.12h1.54Z"/>
    <path d="M1230,1057.33h-1.64v-12.69h-4.48v-1.46h10.6v1.46H1230Z"/>
    <path d="M1245.51,1057.33l-1.76-4.5h-5.66l-1.74,4.5h-1.67l5.59-14.2h1.39l5.56,14.2Zm-2.27-6-1.64-4.38c-.22-.56-.43-1.24-.66-2a20.13,20.13,0,0,1-.61,2l-1.66,4.38Z"/>
    <path d="M1253.51,1057.33h-1.64v-12.69h-4.48v-1.46H1258v1.46h-4.48Z"/>
    <path d="M1272.39,1050.24a7.78,7.78,0,0,1-1.71,5.33,6,6,0,0,1-4.78,2,6.12,6.12,0,0,1-4.82-1.91,7.85,7.85,0,0,1-1.7-5.39,7.74,7.74,0,0,1,1.71-5.36,6.16,6.16,0,0,1,4.83-1.9,6,6,0,0,1,4.76,1.94A7.79,7.79,0,0,1,1272.39,1050.24Zm-11.26,0a6.67,6.67,0,0,0,1.22,4.35,5,5,0,0,0,7.1,0,8.5,8.5,0,0,0,0-8.69,4.28,4.28,0,0,0-3.54-1.48,4.37,4.37,0,0,0-3.57,1.49A6.62,6.62,0,0,0,1261.13,1050.24Z"/>
    <path d="M1283.53,1053.56a3.44,3.44,0,0,1-1.36,2.91,5.84,5.84,0,0,1-3.67,1,9.22,9.22,0,0,1-3.87-.65v-1.59a9.71,9.71,0,0,0,1.89.58,9.5,9.5,0,0,0,2,.22,4.05,4.05,0,0,0,2.47-.63,2,2,0,0,0,.83-1.73,2.24,2.24,0,0,0-.29-1.21,2.77,2.77,0,0,0-1-.86,12.72,12.72,0,0,0-2.1-.9,6.6,6.6,0,0,1-2.82-1.68,3.64,3.64,0,0,1-.85-2.52,3.13,3.13,0,0,1,1.23-2.6,5.07,5.07,0,0,1,3.25-1,9.5,9.5,0,0,1,3.88.78l-.51,1.43a8.82,8.82,0,0,0-3.41-.74,3.32,3.32,0,0,0-2,.56,1.86,1.86,0,0,0-.73,1.56,2.37,2.37,0,0,0,.27,1.2,2.45,2.45,0,0,0,.91.86,11.13,11.13,0,0,0,2,.87,7.92,7.92,0,0,1,3.06,1.7A3.36,3.36,0,0,1,1283.53,1053.56Z"/>
    <text class="cls-25" transform="translate(385.97 248.59)" style="white-space: pre;">TELEMEDICINA</text>
    <path class="cls-21" d="M467.11,553.38a3,3,0,0,1-1.16,2.49,5.08,5.08,0,0,1-3.17.9,7.9,7.9,0,0,1-3.33-.56v-1.36a8.63,8.63,0,0,0,1.63.5,8.74,8.74,0,0,0,1.75.18A3.6,3.6,0,0,0,465,555a1.75,1.75,0,0,0,.72-1.49,1.87,1.87,0,0,0-.26-1,2.36,2.36,0,0,0-.85-.75,12.6,12.6,0,0,0-1.81-.77,5.83,5.83,0,0,1-2.43-1.43,3.22,3.22,0,0,1-.73-2.17,2.7,2.7,0,0,1,1.06-2.23,4.44,4.44,0,0,1,2.8-.83,8.3,8.3,0,0,1,3.34.66l-.44,1.23a7.55,7.55,0,0,0-2.93-.63,2.85,2.85,0,0,0-1.76.48,1.59,1.59,0,0,0-.63,1.34,2.09,2.09,0,0,0,.23,1,2.19,2.19,0,0,0,.79.74,10,10,0,0,0,1.69.74,6.8,6.8,0,0,1,2.64,1.46A2.88,2.88,0,0,1,467.11,553.38Z"/>
    <path class="cls-21" d="M470.29,556.6V544.47h1.41V556.6Z"/>
    <path class="cls-21" d="M481.12,556.6,477,545.85h-.06c.07.85.11,1.87.11,3v7.71h-1.31V544.47h2.14l3.85,10h.07l3.89-10h2.12V556.6h-1.42v-7.81c0-.9,0-1.87.12-2.92h-.07l-4.16,10.73Z"/>
    <path class="cls-21" d="M498.6,556.6h-6.79V544.47h6.79v1.26h-5.37v3.9h5v1.25h-5v4.46h5.37Z"/>
    <path class="cls-21" d="M510.09,556.6h-1.61l-3.27-5.33-3.33,5.33h-1.5l4.05-6.33-3.78-5.8h1.57l3,4.81,3.05-4.81h1.51L506,550.22Z"/>
    <path class="cls-21" d="M451.53,574.47a3,3,0,0,1-1.17,2.49,5,5,0,0,1-3.16.9,8,8,0,0,1-3.34-.56v-1.36a9,9,0,0,0,3.39.68,3.6,3.6,0,0,0,2.13-.53,1.76,1.76,0,0,0,.71-1.49,1.87,1.87,0,0,0-.25-1,2.36,2.36,0,0,0-.85-.75,13.12,13.12,0,0,0-1.81-.77,5.83,5.83,0,0,1-2.43-1.43,3.17,3.17,0,0,1-.73-2.17,2.68,2.68,0,0,1,1.06-2.23,4.42,4.42,0,0,1,2.8-.83,8.33,8.33,0,0,1,3.34.66l-.44,1.23a7.63,7.63,0,0,0-2.94-.63,2.84,2.84,0,0,0-1.75.48,1.6,1.6,0,0,0-.64,1.34,2,2,0,0,0,.24,1,2.24,2.24,0,0,0,.78.74,10.21,10.21,0,0,0,1.7.74,6.67,6.67,0,0,1,2.64,1.46A2.88,2.88,0,0,1,451.53,574.47Z"/>
    <path class="cls-21" d="M454.7,577.69V565.56h1.42v12.13Z"/>
    <path class="cls-21" d="M467,574.47a3,3,0,0,1-1.16,2.49,5.08,5.08,0,0,1-3.17.9,8,8,0,0,1-3.33-.56v-1.36a8.63,8.63,0,0,0,1.63.5,8.74,8.74,0,0,0,1.75.18,3.55,3.55,0,0,0,2.13-.53,1.76,1.76,0,0,0,.72-1.49,1.87,1.87,0,0,0-.25-1,2.45,2.45,0,0,0-.85-.75,13.12,13.12,0,0,0-1.81-.77,5.7,5.7,0,0,1-2.43-1.43,3.17,3.17,0,0,1-.73-2.17,2.68,2.68,0,0,1,1.06-2.23,4.4,4.4,0,0,1,2.8-.83,8.33,8.33,0,0,1,3.34.66l-.45,1.23a7.55,7.55,0,0,0-2.93-.63,2.87,2.87,0,0,0-1.76.48,1.59,1.59,0,0,0-.63,1.34,2.09,2.09,0,0,0,.23,1,2.28,2.28,0,0,0,.79.74,10.21,10.21,0,0,0,1.7.74,6.69,6.69,0,0,1,2.63,1.46A2.88,2.88,0,0,1,467,574.47Z"/>
    <path class="cls-21" d="M473.94,577.69h-1.42V566.82h-3.86v-1.26h9.13v1.26h-3.85Z"/>
    <path class="cls-21" d="M487.1,577.69h-6.79V565.56h6.79v1.26h-5.37v3.9h5V572h-5v4.46h5.37Z"/>
    <path class="cls-21" d="M495.87,577.69l-4.13-10.75h-.07c.08.85.12,1.87.12,3v7.71h-1.31V565.56h2.13l3.86,10h.07l3.89-10h2.11v12.13h-1.41v-7.81c0-.9,0-1.87.12-2.92h-.07L497,577.69Z"/>
    <path class="cls-21" d="M514.22,577.69l-1.51-3.85h-4.88l-1.5,3.85h-1.44l4.82-12.18h1.19l4.79,12.18Zm-2-5.12-1.42-3.76c-.18-.48-.37-1.06-.57-1.75a15,15,0,0,1-.52,1.75l-1.43,3.76Z"/>
    <path class="cls-21" d="M524.92,574.47a3,3,0,0,1-1.16,2.49,5.08,5.08,0,0,1-3.17.9,8,8,0,0,1-3.33-.56v-1.36a8.63,8.63,0,0,0,1.63.5,8.74,8.74,0,0,0,1.75.18,3.6,3.6,0,0,0,2.13-.53,1.76,1.76,0,0,0,.72-1.49,2,2,0,0,0-.25-1,2.41,2.41,0,0,0-.86-.75,12.6,12.6,0,0,0-1.81-.77,5.83,5.83,0,0,1-2.43-1.43,3.21,3.21,0,0,1-.72-2.17,2.7,2.7,0,0,1,1.05-2.23,4.44,4.44,0,0,1,2.8-.83,8.3,8.3,0,0,1,3.34.66l-.44,1.23a7.55,7.55,0,0,0-2.93-.63,2.85,2.85,0,0,0-1.76.48,1.59,1.59,0,0,0-.63,1.34,2.09,2.09,0,0,0,.23,1,2.28,2.28,0,0,0,.79.74,10,10,0,0,0,1.69.74,6.67,6.67,0,0,1,2.64,1.46A2.88,2.88,0,0,1,524.92,574.47Z"/>
    <path class="cls-21" d="M438.37,592.6a6.12,6.12,0,0,1-1.64,4.59,6.48,6.48,0,0,1-4.71,1.59h-3.38V586.65h3.74a6,6,0,0,1,4.41,1.57A5.92,5.92,0,0,1,438.37,592.6Zm-1.5,0a4.84,4.84,0,0,0-1.2-3.57,4.77,4.77,0,0,0-3.55-1.21h-2.06v9.69h1.72a5.25,5.25,0,0,0,3.81-1.24A4.89,4.89,0,0,0,436.87,592.65Z"/>
    <path class="cls-21" d="M448.55,598.78h-6.79V586.65h6.79v1.26h-5.37v3.9h5.05v1.25h-5.05v4.46h5.37Z"/>
    <path class="cls-21" d="M457.05,598.78V586.65h1.42v12.13Z"/>
    <path class="cls-21" d="M472,598.78h-1.62l-6.66-10.18h-.06c.08,1.2.13,2.29.13,3.29v6.89h-1.31V586.65h1.6l6.64,10.14h.07c0-.15,0-.63-.08-1.44s-.05-1.39,0-1.74v-7H472Z"/>
    <path class="cls-21" d="M482.91,595.55a3,3,0,0,1-1.16,2.5,5.08,5.08,0,0,1-3.17.9,7.9,7.9,0,0,1-3.33-.56V597a8.63,8.63,0,0,0,1.63.5,8.74,8.74,0,0,0,1.75.18,3.6,3.6,0,0,0,2.13-.53,1.76,1.76,0,0,0,.72-1.49,1.87,1.87,0,0,0-.26-1,2.36,2.36,0,0,0-.85-.75,12.6,12.6,0,0,0-1.81-.77,5.83,5.83,0,0,1-2.43-1.43,3.22,3.22,0,0,1-.73-2.17,2.7,2.7,0,0,1,1.06-2.23,4.44,4.44,0,0,1,2.8-.83,8.3,8.3,0,0,1,3.34.66l-.44,1.23a7.55,7.55,0,0,0-2.93-.63,2.85,2.85,0,0,0-1.76.48,1.59,1.59,0,0,0-.63,1.34,2.09,2.09,0,0,0,.23,1,2.28,2.28,0,0,0,.79.74,10,10,0,0,0,1.69.74,6.67,6.67,0,0,1,2.64,1.46A2.87,2.87,0,0,1,482.91,595.55Z"/>
    <path class="cls-21" d="M493.81,590.19a3.36,3.36,0,0,1-1.27,2.83,5.73,5.73,0,0,1-3.61,1H487.5v4.77h-1.42V586.65h3.16Q493.82,586.65,493.81,590.19Zm-6.31,2.61h1.28a4.78,4.78,0,0,0,2.72-.6,2.25,2.25,0,0,0,.84-2,2.08,2.08,0,0,0-.79-1.79,4.18,4.18,0,0,0-2.47-.59H487.5Z"/>
    <path class="cls-21" d="M503.83,598.78H497V586.65h6.79v1.26h-5.37v3.9h5v1.25h-5v4.46h5.37Z"/>
    <path class="cls-21" d="M512.43,587.74a4,4,0,0,0-3.17,1.33,5.35,5.35,0,0,0-1.17,3.65,5.5,5.5,0,0,0,1.12,3.68,4,4,0,0,0,3.2,1.3,11.17,11.17,0,0,0,2.91-.46v1.23a8.92,8.92,0,0,1-3.13.48,5.27,5.27,0,0,1-4.15-1.63,6.69,6.69,0,0,1-1.46-4.62,7.23,7.23,0,0,1,.7-3.28,5.1,5.1,0,0,1,2-2.18,6.18,6.18,0,0,1,3.13-.76,7.48,7.48,0,0,1,3.35.7l-.6,1.21A6.48,6.48,0,0,0,512.43,587.74Zm1,13.44a1.4,1.4,0,0,1-.64,1.24,3.24,3.24,0,0,1-1.88.44,4,4,0,0,1-.8-.07v-.88a5.44,5.44,0,0,0,.86.07,2.37,2.37,0,0,0,1-.17.63.63,0,0,0,.34-.61.67.67,0,0,0-.33-.58,3.23,3.23,0,0,0-1.24-.36l.73-1.48h.92l-.46,1Q513.45,600.06,513.45,601.18Z"/>
    <path class="cls-21" d="M526.31,598.78l-1.51-3.86h-4.88l-1.5,3.86H517l4.82-12.18H523l4.79,12.18Zm-2.73-13.11a1.59,1.59,0,0,1-.7-.16,6,6,0,0,1-.67-.34l-.63-.34a1.32,1.32,0,0,0-.59-.15.77.77,0,0,0-.63.25,1.81,1.81,0,0,0-.33.75h-.81a2.83,2.83,0,0,1,.58-1.57,1.56,1.56,0,0,1,1.24-.57,1.73,1.73,0,0,1,.74.16,5.52,5.52,0,0,1,.69.34l.62.34a1.28,1.28,0,0,0,.57.15.76.76,0,0,0,.61-.24,2,2,0,0,0,.32-.76h.83a3,3,0,0,1-.58,1.57A1.57,1.57,0,0,1,523.58,585.67Zm.78,8-1.42-3.76c-.18-.48-.37-1.06-.57-1.75a15,15,0,0,1-.52,1.75l-1.43,3.76Z"/>
    <path class="cls-21" d="M540.71,592.7a6.64,6.64,0,0,1-1.48,4.58,5.2,5.2,0,0,1-4.11,1.67,5.28,5.28,0,0,1-4.15-1.64,8,8,0,0,1,0-9.22,5.35,5.35,0,0,1,4.17-1.63,5.23,5.23,0,0,1,4.1,1.66A6.67,6.67,0,0,1,540.71,592.7Zm-9.71,0a5.77,5.77,0,0,0,1.06,3.74,4.32,4.32,0,0,0,6.12,0,7.25,7.25,0,0,0,0-7.45,3.69,3.69,0,0,0-3-1.27,3.77,3.77,0,0,0-3.08,1.28A5.69,5.69,0,0,0,531,592.7Z"/>
    <path class="cls-21" d="M458.49,619.87l-4.13-10.75h-.07c.08.85.12,1.86.12,3v7.71H453.1V607.74h2.13l3.86,10h.06l3.89-10h2.12v12.13h-1.41v-7.81c0-.9,0-1.87.11-2.92h-.07l-4.16,10.73Z"/>
    <path class="cls-21" d="M479.76,613.79a6.69,6.69,0,0,1-1.48,4.58,5.23,5.23,0,0,1-4.11,1.67A5.3,5.3,0,0,1,470,618.4a6.73,6.73,0,0,1-1.46-4.63,6.63,6.63,0,0,1,1.47-4.59,5.33,5.33,0,0,1,4.16-1.63,5.22,5.22,0,0,1,4.1,1.66A6.62,6.62,0,0,1,479.76,613.79Zm-9.71,0a5.71,5.71,0,0,0,1.06,3.74,4.32,4.32,0,0,0,6.12,0,5.85,5.85,0,0,0,1-3.74,5.74,5.74,0,0,0-1-3.71,4.31,4.31,0,0,0-6.12,0A5.63,5.63,0,0,0,470.05,613.79Zm2.95-7.22a14,14,0,0,0,.86-1.25,12.54,12.54,0,0,0,.73-1.27h1.69v.18a11.85,11.85,0,0,1-1.1,1.32,11.41,11.41,0,0,1-1.25,1.22H473Z"/>
    <path class="cls-21" d="M490.11,607.74h1.53l-4.39,12.13h-1.4l-4.37-12.13H483l2.8,7.85a22.62,22.62,0,0,1,.77,2.63,22,22,0,0,1,.78-2.68Z"/>
    <path class="cls-21" d="M500.79,619.87H494V607.74h6.79V609h-5.38v3.9h5v1.25h-5v4.46h5.38Z"/>
    <path class="cls-21" d="M504.17,619.87V607.74h1.41v12.13Z"/>
    <path class="cls-21" d="M516.48,616.64a3,3,0,0,1-1.17,2.5,5,5,0,0,1-3.16.9,7.9,7.9,0,0,1-3.33-.56v-1.36a8.63,8.63,0,0,0,1.63.5,8.74,8.74,0,0,0,1.75.18,3.6,3.6,0,0,0,2.13-.53,1.76,1.76,0,0,0,.72-1.49,1.93,1.93,0,0,0-.26-1,2.45,2.45,0,0,0-.85-.74,12.6,12.6,0,0,0-1.81-.77,5.83,5.83,0,0,1-2.43-1.43,3.22,3.22,0,0,1-.73-2.17A2.7,2.7,0,0,1,510,608.4a4.44,4.44,0,0,1,2.8-.83,8.3,8.3,0,0,1,3.34.66l-.44,1.23a7.55,7.55,0,0,0-2.93-.63,2.85,2.85,0,0,0-1.76.48,1.59,1.59,0,0,0-.63,1.34,2,2,0,0,0,.23,1,2.28,2.28,0,0,0,.79.74,10,10,0,0,0,1.69.74,6.67,6.67,0,0,1,2.64,1.46A2.87,2.87,0,0,1,516.48,616.64Z"/>
    <line class="cls-8" x1="669.21" y1="1068.21" x2="749.21" y2="1031.79"/>
    <line class="cls-6" x1="970.35" y1="1081.66" x2="970.35" y2="1156.92"/>
    <line class="cls-4" x1="1124.84" y1="994.17" x2="1124.84" y2="1069.42"/>
    <line class="cls-10" x1="1314.19" y1="943.03" x2="1367.4" y2="996.24"/>
    <line class="cls-3" x1="1397.22" y1="461.11" x2="1344.01" y2="514.32"/>
    <text class="cls-26" transform="translate(391.79 274.23)" style="white-space: pre;">11</text>
    <text class="cls-26" transform="translate(1019.38 140.32)" style="white-space: pre;">1</text>
    <rect class="cls-19" x="359.21" y="228.47" width="15.22" height="56.38"/>
    <text class="cls-25" transform="translate(513.93 120.43)" style="white-space: pre;">TEMPERATURA</text>
    <text class="cls-26" transform="translate(518.73 143.65)" style="white-space: pre;">1</text>
    <rect class="cls-17" x="493.42" y="97.39" width="15.22" height="56.38"/>
    <text class="cls-25" transform="translate(1366.01 317.86)" style="white-space: pre;">FLUXO DE PESSOAS</text>
    <text class="cls-27" transform="translate(1370.46 341.08)" style="white-space: pre;">2</text>
    <rect class="cls-13" x="1345.15" y="294.82" width="15.22" height="56.38"/>
    <rect class="cls-15" x="992.06" y="73.42" width="15.22" height="72.24"/>
    <text class="cls-26" transform="translate(1386.23 1031.79)" style="white-space: pre;">1</text>
    <text class="cls-26" transform="translate(1152.37 1089.74)" style="white-space: pre;">2</text>
    <text class="cls-26" transform="translate(992.06 1211.31)" style="white-space: pre;">1</text>
    <text class="cls-26" transform="translate(537.45 1145.88)" style="white-space: pre;">1</text>
    <rect class="cls-18" x="1358.91" y="964.89" width="15.22" height="72.24"/>
    <rect class="cls-12" x="1117.23" y="1020.06" width="15.22" height="72.24"/>
    <rect class="cls-14" x="962.47" y="1156.92" width="15.22" height="72.24"/>
    <rect class="cls-16" x="513.09" y="1073.64" width="15.22" height="72.24"/>
    <text class="cls-26" transform="translate(1424.54 506.95)" style="white-space: pre;">2</text>
    <rect class="cls-11" x="1397.22" y="440.05" width="15.22" height="72.24"/>
    <text class="cls-25" transform="translate(1422.51 455.83)" style="white-space: pre;">IDENTIFICAÇÃO<tspan x="0" y="23.77">DE PESSOAS</tspan></text>
    <line class="cls-5" x1="1352.76" y1="303" x2="1299.55" y2="356.21"/>
    <line class="cls-7" x1="996.96" y1="107.32" x2="943.75" y2="160.53"/>
    <line class="cls-9" x1="678.2" y1="183.63" x2="624.99" y2="130.42"/>
    <line class="cls-2" x1="459.48" y1="379.47" x2="363.45" y2="283.43"/>
  </g>
</svg>