<?xml version="1.0" encoding="utf-8"?>
<svg viewBox="391.295 0 1383.5 1292.072" xmlns="http://www.w3.org/2000/svg">
  <defs>
    <style>.cls-1{fill:#e5e5e5;}.cls-2{font-size:19.81px;}.cls-2,.cls-29,.cls-31,.cls-32,.cls-33,.cls-34{font-family:OpenSans, Open Sans;}.cls-17,.cls-18,.cls-19,.cls-20,.cls-21,.cls-22,.cls-23,.cls-24,.cls-25,.cls-26,.cls-3,.cls-4,.cls-5{fill:none;}.cls-24,.cls-3{stroke:#87e089;}.cls-17,.cls-18,.cls-19,.cls-3,.cls-4,.cls-5{stroke-width:1.25px;}.cls-20,.cls-4{stroke:#87e0d4;}.cls-5{stroke:#7095f1;}.cls-6,.cls-9{font-size:28.47px;font-family:OpenSans-Bold, Open Sans;font-weight:700;text-decoration:underline;}.cls-6{fill:#030420;}.cls-7{fill:#3d60d9;}.cls-8{fill:#f57f4e;}.cls-10,.cls-9{fill:#2e2f46;}.cls-11{fill:#1ebf70;}.cls-12{fill:#87e0d4;}.cls-13{fill:#c7f64a;}.cls-14{fill:#87e089;}.cls-15{fill:#755285;}.cls-16{fill:#7095f1;}.cls-17,.cls-21{stroke:#2e2f46;}.cls-18,.cls-23{stroke:#1ebf70;}.cls-19{stroke:#3d60d9;}.cls-20,.cls-21,.cls-22,.cls-23,.cls-24,.cls-25,.cls-26{stroke-miterlimit:10;}.cls-22{stroke:#c7f64a;}.cls-25{stroke:#f57f4e;}.cls-26{stroke:#755285;}.cls-27,.cls-34{isolation:isolate;}.cls-28,.cls-29{fill:#fff;}.cls-29,.cls-31,.cls-33{font-size:16.99px;}.cls-29,.cls-31{letter-spacing:0.04em;}.cls-30,.cls-31,.cls-33{fill:#1d1d1b;}.cls-32,.cls-34{font-size:18.17px;}.cls-33{letter-spacing:0.04em;}</style>
  </defs>
  <g id="Layer_1" data-name="Layer 1">
    <rect id="backgorund" class="cls-1" x="-22.38" y="-17.43" width="1964.75" height="1336.75"/>
  </g>
  <g id="Layer_2" data-name="Layer 2">
    <text class="cls-2" transform="translate(1232.66 158.11)" style="white-space: pre;">ARMAZENAMENTO</text>
    <text class="cls-2" transform="translate(1118.66 1178.58)" style="white-space: pre;">DIGITALIZAÇÃO DE <tspan x="0" y="23.77">SERVIÇOS PÚBLICOS</tspan></text>
    <text class="cls-2" transform="translate(1033.33 97.46)" style="white-space: pre;">FORNECIMENTO DE<tspan x="0" y="23.77">INFORMAÇÕES</tspan></text>
    <path d="M1493.84,1029.3v5.89h-1.65V1021h3.88a6.14,6.14,0,0,1,3.85,1,3.6,3.6,0,0,1,1.24,3,3.76,3.76,0,0,1-2.84,3.79l3.84,6.36h-2l-3.42-5.89Zm0-1.41h2.25a3.94,3.94,0,0,0,2.56-.69,2.57,2.57,0,0,0,.81-2.07,2.39,2.39,0,0,0-.83-2,4.5,4.5,0,0,0-2.65-.61h-2.14Z"/>
    <path d="M1513.33,1035.19l-1.76-4.5h-5.67l-1.74,4.5h-1.67l5.6-14.2h1.38l5.56,14.2Zm-2.28-6-1.64-4.38q-.32-.84-.66-2a17.27,17.27,0,0,1-.61,2l-1.66,4.38Z"/>
    <path d="M1525,1031.42a3.45,3.45,0,0,1-1.35,2.91,5.85,5.85,0,0,1-3.68,1.05,9.2,9.2,0,0,1-3.86-.65v-1.59a10.45,10.45,0,0,0,1.89.59,10.07,10.07,0,0,0,2,.21,4.08,4.08,0,0,0,2.48-.63,2,2,0,0,0,.83-1.73,2.24,2.24,0,0,0-.3-1.21,2.64,2.64,0,0,0-1-.86,12.72,12.72,0,0,0-2.1-.9,6.7,6.7,0,0,1-2.82-1.67,3.69,3.69,0,0,1-.85-2.53,3.13,3.13,0,0,1,1.23-2.6,5.07,5.07,0,0,1,3.25-1,9.7,9.7,0,0,1,3.88.77l-.52,1.44a8.74,8.74,0,0,0-3.4-.74,3.32,3.32,0,0,0-2,.56,1.87,1.87,0,0,0-.74,1.56,2.37,2.37,0,0,0,.27,1.2,2.59,2.59,0,0,0,.92.87,11.67,11.67,0,0,0,2,.86,7.92,7.92,0,0,1,3.06,1.7A3.4,3.4,0,0,1,1525,1031.42Z"/>
    <path d="M1532.2,1035.19h-1.65v-12.68h-4.47V1021h10.6v1.47h-4.48Z"/>
    <path d="M1540.45,1029.3v5.89h-1.64V1021h3.87a6.14,6.14,0,0,1,3.85,1,3.6,3.6,0,0,1,1.24,3,3.76,3.76,0,0,1-2.84,3.79l3.84,6.36h-2l-3.42-5.89Zm0-1.41h2.25a3.94,3.94,0,0,0,2.56-.69,2.57,2.57,0,0,0,.81-2.07,2.39,2.39,0,0,0-.83-2,4.48,4.48,0,0,0-2.65-.61h-2.14Z"/>
    <path d="M1558.93,1035.19h-7.88V1021h7.88v1.47h-6.23v4.55h5.86v1.45h-5.86v5.21h6.23Z"/>
    <path d="M1571,1035.19l-1.76-4.5h-5.67l-1.74,4.5h-1.67l5.59-14.2h1.39l5.56,14.2Zm-2.28-6-1.64-4.38q-.32-.84-.66-2a17.27,17.27,0,0,1-.61,2l-1.66,4.38Z"/>
    <path d="M1580.86,1035.19l-4.8-12.54H1576c.09,1,.13,2.17.13,3.54v9h-1.52V1021h2.48l4.48,11.67h.07l4.52-11.67h2.46v14.15H1587v-9.12c0-1,0-2.18.14-3.4H1587l-4.83,12.52Z"/>
    <path d="M1600.37,1035.19h-7.88V1021h7.88v1.47h-6.24v4.55H1600v1.45h-5.86v5.21h6.24Z"/>
    <path d="M1614.55,1035.19h-1.88l-7.72-11.87h-.08c.1,1.39.15,2.67.15,3.83v8h-1.52V1021h1.86l7.71,11.82h.08c0-.17,0-.73-.09-1.67s-.06-1.62,0-2V1021h1.54Z"/>
    <path d="M1622.79,1035.19h-1.64v-12.68h-4.48V1021h10.6v1.47h-4.48Z"/>
    <path d="M1641.67,1028.1a7.77,7.77,0,0,1-1.72,5.34,6,6,0,0,1-4.77,1.94,6.12,6.12,0,0,1-4.82-1.91,7.86,7.86,0,0,1-1.7-5.39,7.78,7.78,0,0,1,1.7-5.36,6.19,6.19,0,0,1,4.84-1.9,6,6,0,0,1,4.76,1.94A7.79,7.79,0,0,1,1641.67,1028.1Zm-11.27,0a6.67,6.67,0,0,0,1.23,4.35,5,5,0,0,0,7.1,0,8.5,8.5,0,0,0,0-8.69,4.28,4.28,0,0,0-3.54-1.48,4.35,4.35,0,0,0-3.57,1.49A6.62,6.62,0,0,0,1630.4,1028.1Z"/>
    <path d="M1503.48,1051.75a7.12,7.12,0,0,1-1.9,5.35,7.51,7.51,0,0,1-5.47,1.86h-3.92v-14.15h4.34a6.35,6.35,0,0,1,7,6.94Zm-1.74.06a5.66,5.66,0,0,0-1.39-4.17,5.53,5.53,0,0,0-4.12-1.4h-2.39v11.29h2a6.11,6.11,0,0,0,4.42-1.44A5.72,5.72,0,0,0,1501.74,1051.81Z"/>
    <path d="M1514.52,1059h-7.89v-14.15h7.89v1.46h-6.24v4.56h5.86v1.45h-5.86v5.21h6.24Z"/>
    <path d="M1528.85,1046.08a4.64,4.64,0,0,0-3.68,1.55,6.29,6.29,0,0,0-1.35,4.26,6.43,6.43,0,0,0,1.3,4.29,4.63,4.63,0,0,0,3.71,1.51,12.83,12.83,0,0,0,3.38-.53v1.44a10.35,10.35,0,0,1-3.63.55,6.12,6.12,0,0,1-4.82-1.9,7.8,7.8,0,0,1-1.7-5.38,8.41,8.41,0,0,1,.82-3.83,5.86,5.86,0,0,1,2.36-2.54,7.18,7.18,0,0,1,3.63-.89,8.81,8.81,0,0,1,3.89.81l-.7,1.42A7.4,7.4,0,0,0,1528.85,1046.08Z"/>
    <path d="M1547.57,1051.87a7.77,7.77,0,0,1-1.72,5.34,6.93,6.93,0,0,1-9.59,0,9.35,9.35,0,0,1,0-10.75,6.19,6.19,0,0,1,4.84-1.9,6,6,0,0,1,4.76,1.94A7.79,7.79,0,0,1,1547.57,1051.87Zm-11.27,0a6.73,6.73,0,0,0,1.22,4.35,5,5,0,0,0,7.11,0,6.8,6.8,0,0,0,1.2-4.36,6.71,6.71,0,0,0-1.2-4.33,4.25,4.25,0,0,0-3.53-1.48,4.38,4.38,0,0,0-3.58,1.49A6.68,6.68,0,0,0,1536.3,1051.87Z"/>
    <path d="M1561.77,1059h-1.88l-7.73-11.87h-.08c.11,1.39.16,2.67.16,3.83v8h-1.52v-14.15h1.86l7.71,11.82h.07c0-.17,0-.73-.08-1.67s-.06-1.62,0-2v-8.12h1.54Z"/>
    <path d="M1570,1059h-1.65v-12.69h-4.48v-1.46h10.61v1.46H1570Z"/>
    <path d="M1585.5,1059l-1.76-4.5h-5.67l-1.74,4.5h-1.66l5.59-14.2h1.38l5.56,14.2Zm-2.27-6-1.64-4.38a20.62,20.62,0,0,1-.66-2,19.4,19.4,0,0,1-.61,2l-1.66,4.38Z"/>
    <path d="M1593.5,1059h-1.64v-12.69h-4.48v-1.46H1598v1.46h-4.48Z"/>
    <path d="M1612.38,1051.87a7.82,7.82,0,0,1-1.71,5.34,6.95,6.95,0,0,1-9.6,0,9.35,9.35,0,0,1,0-10.75,6.19,6.19,0,0,1,4.84-1.9,6,6,0,0,1,4.76,1.94A7.79,7.79,0,0,1,1612.38,1051.87Zm-11.27,0a6.67,6.67,0,0,0,1.23,4.35,5,5,0,0,0,7.1,0,8.5,8.5,0,0,0,0-8.69,4.28,4.28,0,0,0-3.54-1.48,4.35,4.35,0,0,0-3.57,1.49A6.62,6.62,0,0,0,1601.11,1051.87Z"/>
    <path d="M1623.52,1055.19a3.46,3.46,0,0,1-1.36,2.91,5.84,5.84,0,0,1-3.67,1.05,9.22,9.22,0,0,1-3.87-.65v-1.58a11.31,11.31,0,0,0,1.89.58,10.14,10.14,0,0,0,2,.21,4.06,4.06,0,0,0,2.48-.63,2,2,0,0,0,.83-1.73,2.33,2.33,0,0,0-.29-1.21,2.77,2.77,0,0,0-1-.86,12.72,12.72,0,0,0-2.1-.9,6.7,6.7,0,0,1-2.82-1.67,3.69,3.69,0,0,1-.85-2.53,3.13,3.13,0,0,1,1.23-2.6,5.13,5.13,0,0,1,3.25-1,9.54,9.54,0,0,1,3.88.78l-.51,1.43a8.82,8.82,0,0,0-3.41-.74,3.32,3.32,0,0,0-2,.56,1.87,1.87,0,0,0-.74,1.56,2.27,2.27,0,0,0,.28,1.2,2.55,2.55,0,0,0,.91.87,10.91,10.91,0,0,0,2,.86,7.92,7.92,0,0,1,3.06,1.7A3.36,3.36,0,0,1,1623.52,1055.19Z"/>
    <text class="cls-2" transform="translate(490.39 303.87)" style="white-space: pre;">TELEMEDICINA</text>
    <line class="cls-3" x1="958.13" y1="148.28" x2="1008.62" y2="104.86"/>
    <line class="cls-4" x1="1422.62" y1="992.95" x2="1464.83" y2="1071.05"/>
    <line class="cls-5" x1="1556.66" y1="533.37" x2="1503.45" y2="586.58"/>
    <text class="cls-6" transform="translate(496.22 339.51)" style="white-space: pre;">11</text>
    <text class="cls-6" transform="translate(1120.77 1229.92)" style="white-space: pre;">1</text>
    <rect class="cls-7" x="463.63" y="283.75" width="15.22" height="56.38"/>
    <text class="cls-2" transform="translate(642.41 1153.66)" style="white-space: pre;">TEMPERATURA</text>
    <text class="cls-6" transform="translate(647.21 1186.88)" style="white-space: pre;">1</text>
    <rect class="cls-8" x="621.9" y="1130.61" width="15.22" height="56.38"/>
    <text class="cls-2" transform="translate(1503.58 274.34)" style="white-space: pre;">FLUXO DE PESSOAS</text>
    <text class="cls-9" transform="translate(1508.03 297.56)" style="white-space: pre;">2</text>
    <rect class="cls-10" x="1482.72" y="251.3" width="15.22" height="56.38"/>
    <rect class="cls-11" x="1093.45" y="1163.01" width="15.22" height="72.24"/>
    <text class="cls-6" transform="translate(1492.36 1091.37)" style="white-space: pre;">2</text>
    <text class="cls-6" transform="translate(1239.84 186.91)" style="white-space: pre;">1</text>
    <text class="cls-6" transform="translate(1031.11 150.4)" style="white-space: pre;">1</text>
    <text class="cls-6" transform="translate(467.87 146.41)" style="white-space: pre;">1</text>
    <rect class="cls-12" x="1457.22" y="1021.69" width="15.22" height="72.24"/>
    <rect class="cls-13" x="1210.25" y="132.51" width="15.22" height="72.24"/>
    <rect class="cls-14" x="1006.75" y="78.16" width="15.22" height="72.24"/>
    <rect class="cls-15" x="437.93" y="78.16" width="15.22" height="72.24"/>
    <text class="cls-6" transform="translate(1583.98 579.21)" style="white-space: pre;">2</text>
    <rect class="cls-16" x="1556.66" y="512.31" width="15.22" height="72.24"/>
    <text class="cls-2" transform="translate(1581.95 528.09)" style="white-space: pre;">IDENTIFICAÇÃO<tspan x="0" y="23.77">DE PESSOAS</tspan></text>
    <line class="cls-17" x1="1490.33" y1="259.48" x2="1437.12" y2="312.7"/>
    <line class="cls-18" x1="1098.35" y1="1196.91" x2="1060.7" y2="1150.3"/>
    <line class="cls-19" x1="563.91" y1="434.75" x2="467.87" y2="338.71"/>
    <g id="nodes">
      <g id="Telemedicina">
        <path id="p_1009.0428502768416" data-name="p 1009.0428502768416" class="cls-19" d="M849.46,1026.57c-200.9,0-363.76-162.86-363.76-363.76S648.56,299.06,849.46,299.06s363.75,162.86,363.75,363.75S1050.35,1026.57,849.46,1026.57Z"/>
      </g>
      <g id="Rastreamento_de_contatos" data-name="Rastreamento de contatos">
        <path id="p_1357.4126277817732" data-name="p 1357.4126277817732" class="cls-20" d="M1263.85,1151.72A158.77,158.77,0,1,1,1422.62,993,158.77,158.77,0,0,1,1263.85,1151.72Z"/>
      </g>
      <g id="Monitoramento_do_fluxo_de_pessoas" data-name="Monitoramento do fluxo de pessoas">
        <path id="p_990.3425551283526" data-name="p 990.3425551283526" class="cls-21" d="M1298.85,549.45a158.77,158.77,0,1,1,158.77-158.77A158.78,158.78,0,0,1,1298.85,549.45Z"/>
      </g>
      <g id="Armazenamento">
        <path id="p_718.3798627363803" data-name="p 718.3798627363803" class="cls-22" d="M1083,362.09a80.1,80.1,0,1,1,0-160.19h0a80.1,80.1,0,1,1,0,160.19Z"/>
      </g>
      <g id="Digitalização_de_serviços_públicos" data-name="Digitalização de serviços públicos">
        <path id="p_1232.0398959118984" data-name="p 1232.0398959118984" class="cls-23" d="M1033.48,1153.14a80.1,80.1,0,1,1,0-160.19h0a80.1,80.1,0,0,1,0,160.19Z"/>
      </g>
      <g id="Fornecimento_de_informações" data-name="Fornecimento de informações">
        <path id="p_576.3217079802926" data-name="p 576.3217079802926" class="cls-24" d="M930.74,303.67a80.1,80.1,0,0,1,0-160.19h0a80.1,80.1,0,1,1,0,160.19Z"/>
      </g>
      <g id="Monitoramento_de_temperatura" data-name="Monitoramento de temperatura">
        <path id="p_1168.788446324224" data-name="p 1168.788446324224" class="cls-25" d="M870.89,1190.6a80.1,80.1,0,1,1,0-160.19h0a80.1,80.1,0,0,1,0,160.19Z"/>
      </g>
      <g id="Mapeamento_da_evolução_da_COVID-19" data-name="Mapeamento da evolução da COVID-19">
        <path id="p_466.4241810300336" data-name="p 466.4241810300336" class="cls-26" d="M767.7,303.76a80.1,80.1,0,0,1,0-160.19h0a80.1,80.1,0,1,1,0,160.19Z"/>
      </g>
      <g id="A2_Tecnologia" data-name="A2 Tecnologia">
        <path id="p_690.2796702008411" data-name="p 690.2796702008411" class="cls-7" d="M731.45,671.93a77.25,77.25,0,0,1,0-154.5h0a77.25,77.25,0,0,1,0,154.5Z"/>
      </g>
      <g id="Instituto_Laura_Fressatto" data-name="Instituto Laura Fressatto">
        <path id="p_796.3966993661811" data-name="p 796.3966993661811" class="cls-7" d="M888.79,671.93a77.25,77.25,0,1,1,0-154.5h0a77.25,77.25,0,1,1,0,154.5Z"/>
      </g>
      <g id="Ayga_Tecnologia" data-name="Ayga Tecnologia">
        <path id="p_835.2382278148295" data-name="p 835.2382278148295" class="cls-7" d="M810.12,808.2a77.25,77.25,0,0,1,0-154.5h0a77.25,77.25,0,0,1,0,154.5Z"/>
      </g>
      <g id="Chama_Inbox_Brasil" data-name="Chama Inbox Brasil">
        <path id="p_651.4381417521925" data-name="p 651.4381417521925" class="cls-7" d="M810.12,535.67a77.25,77.25,0,0,1,0-154.5h0a77.25,77.25,0,0,1,0,154.5Z"/>
      </g>
      <g id="Huawei_Siemens_Energy_Brasil_Hospital_das_Clínicas_USP" data-name="Huawei; Siemens Energy Brasil; Hospital das Clínicas USP">
        <path id="p_545.3211125868525" data-name="p 545.3211125868525" class="cls-7" d="M652.78,535.67a77.25,77.25,0,1,1,0-154.5h0a77.25,77.25,0,1,1,0,154.5Z"/>
      </g>
      <g id="Intel">
        <path id="p_757.5551709175325" data-name="p 757.5551709175325" class="cls-7" d="M967.47,535.67a77.25,77.25,0,1,1,0-154.5h0a77.25,77.25,0,1,1,0,154.5Z"/>
      </g>
      <g id="Radtec">
        <path id="p_941.3552569801695" data-name="p 941.3552569801695" class="cls-7" d="M967.47,808.2a77.25,77.25,0,1,1,0-154.5h0a77.25,77.25,0,1,1,0,154.5Z"/>
      </g>
      <g id="Requisito_Tecnologia" data-name="Requisito Tecnologia">
        <path id="p_729.1211986494897" data-name="p 729.1211986494897" class="cls-7" d="M652.78,808.2a77.25,77.25,0,1,1,0-154.5h0a77.25,77.25,0,1,1,0,154.5Z"/>
      </g>
      <g id="Simex_Sistemas_de_Inspeção_Móveis" data-name="Simex Sistemas de Inspeção Móveis">
        <path id="p_584.1626410355011" data-name="p 584.1626410355011" class="cls-7" d="M574.1,671.93a77.25,77.25,0,1,1,0-154.5h0a77.25,77.25,0,1,1,0,154.5Z"/>
      </g>
      <g id="Não_Localizada" data-name="Não Localizada">
        <path id="p_902.513728531521" data-name="p 902.513728531521" class="cls-7" d="M1046.14,671.93a77.25,77.25,0,0,1,0-154.5h0a77.25,77.25,0,0,1,0,154.5Z"/>
      </g>
      <g id="True_Work" data-name="True Work">
        <path id="p_1047.4722861455095" data-name="p 1047.4722861455095" class="cls-7" d="M1124.81,808.2a77.25,77.25,0,1,1,0-154.5h0a77.25,77.25,0,0,1,0,154.5Z"/>
      </g>
      <g id="Ministério_da_Saúde" data-name="Ministério da Saúde">
        <path id="p_1249.3754068578676" data-name="p 1249.3754068578676" class="cls-12" d="M1185.18,1070.2a77.25,77.25,0,0,1,0-154.5h0a77.25,77.25,0,0,1,0,154.5Z"/>
      </g>
      <g id="Google_Apple" data-name="Google; Apple">
        <path id="p_1355.4924360232073" data-name="p 1355.4924360232073" class="cls-12" d="M1342.52,1070.2a77.25,77.25,0,1,1,0-154.5h0a77.25,77.25,0,1,1,0,154.5Z"/>
      </g>
      <g id="UFAL">
        <path id="p_882.3053342044469" data-name="p 882.3053342044469" class="cls-10" d="M1220.18,467.93a77.25,77.25,0,0,1,0-154.5h0a77.25,77.25,0,0,1,0,154.5Z"/>
      </g>
      <g id="ViaSoluTI">
        <path id="p_988.4223633697869" data-name="p 988.4223633697869" class="cls-10" d="M1377.52,467.93a77.25,77.25,0,1,1,0-154.5h0a77.25,77.25,0,1,1,0,154.5Z"/>
      </g>
      <g id="Embratel">
        <path id="p_716.4596709778145" data-name="p 716.4596709778145" class="cls-13" d="M1083,359.25a77.25,77.25,0,0,1,0-154.5h0a77.25,77.25,0,0,1,0,154.5Z"/>
      </g>
      <g id="Serpro">
        <path id="p_1230.1197041533326" data-name="p 1230.1197041533326" class="cls-11" d="M1033.48,1150.3a77.25,77.25,0,1,1,0-154.5h0a77.25,77.25,0,1,1,0,154.5Z"/>
      </g>
      <g id="Mito_Games" data-name="Mito Games">
        <path id="p_574.4015162217268" data-name="p 574.4015162217268" class="cls-14" d="M930.74,300.82a77.25,77.25,0,0,1,0-154.5h0a77.25,77.25,0,0,1,0,154.5Z"/>
      </g>
      <g id="Petrobras">
        <path id="p_1166.8682545656582" data-name="p 1166.8682545656582" class="cls-8" d="M870.89,1187.75a77.25,77.25,0,1,1,0-154.49h0a77.25,77.25,0,1,1,0,154.49Z"/>
      </g>
      <g id="Não_Localizada-2" data-name="Não Localizada">
        <path id="p_464.50398927146784" data-name="p 464.50398927146784" class="cls-15" d="M767.7,300.91a77.25,77.25,0,0,1,0-154.5h0a77.25,77.25,0,0,1,0,154.5Z"/>
      </g>
    </g>
    <g id="labels">
      <g class="cls-27">
        <path class="cls-28" d="M728,586.58l-1.51-3.86h-4.88l-1.5,3.86h-1.44l4.82-12.18h1.19l4.79,12.18Zm-2-5.13-1.42-3.75c-.18-.48-.37-1.06-.57-1.75a15,15,0,0,1-.52,1.75l-1.43,3.75Z"/>
        <path class="cls-28" d="M739,586.58h-8V585.4l3.2-3.21a24.19,24.19,0,0,0,1.94-2.11,5.55,5.55,0,0,0,.7-1.23,3.65,3.65,0,0,0,.23-1.29,2.06,2.06,0,0,0-.59-1.54,2.31,2.31,0,0,0-1.64-.56,4,4,0,0,0-1.44.25,5.42,5.42,0,0,0-1.51.9l-.74-.94a5.65,5.65,0,0,1,3.67-1.39,3.9,3.9,0,0,1,2.69.87,3,3,0,0,1,1,2.36,4.57,4.57,0,0,1-.65,2.28,14.84,14.84,0,0,1-2.44,2.85l-2.66,2.6v.06H739Z"/>
        <path class="cls-28" d="M681.23,607.67h-1.42V596.8H676v-1.26h9.13v1.26h-3.85Z"/>
        <path class="cls-28" d="M694.39,607.67H687.6V595.54h6.79v1.26H689v3.9h5.05V602H689v4.46h5.37Z"/>
        <path class="cls-28" d="M703,596.63a4,4,0,0,0-3.17,1.33,5.33,5.33,0,0,0-1.16,3.65,5.47,5.47,0,0,0,1.12,3.68,4,4,0,0,0,3.19,1.29,11.12,11.12,0,0,0,2.91-.45v1.23a8.92,8.92,0,0,1-3.13.48,5.29,5.29,0,0,1-4.15-1.63,6.69,6.69,0,0,1-1.46-4.62,7.23,7.23,0,0,1,.7-3.28,5.06,5.06,0,0,1,2-2.18,6.11,6.11,0,0,1,3.12-.76,7.48,7.48,0,0,1,3.35.7l-.6,1.21A6.48,6.48,0,0,0,703,596.63Z"/>
        <path class="cls-28" d="M718.73,607.67h-1.61l-6.66-10.18h-.07c.09,1.2.14,2.29.14,3.29v6.89h-1.31V595.54h1.6l6.64,10.14h.07c0-.15,0-.63-.08-1.44s-.05-1.39,0-1.74v-7h1.32Z"/>
        <path class="cls-28" d="M733.34,601.59a6.64,6.64,0,0,1-1.48,4.58,5.23,5.23,0,0,1-4.11,1.67,5.3,5.3,0,0,1-4.16-1.64,6.75,6.75,0,0,1-1.46-4.63A6.63,6.63,0,0,1,723.6,597a5.34,5.34,0,0,1,4.16-1.63,5.22,5.22,0,0,1,4.1,1.66A6.62,6.62,0,0,1,733.34,601.59Zm-9.71,0a5.71,5.71,0,0,0,1.06,3.74,4.32,4.32,0,0,0,6.12,0,5.85,5.85,0,0,0,1-3.74,5.74,5.74,0,0,0-1-3.71,3.69,3.69,0,0,0-3-1.27,3.75,3.75,0,0,0-3.07,1.28A5.63,5.63,0,0,0,723.63,601.59Z"/>
        <path class="cls-28" d="M736.74,607.67V595.54h1.41v10.85h5.38v1.28Z"/>
        <path class="cls-28" d="M756.85,601.59a6.64,6.64,0,0,1-1.48,4.58,5.23,5.23,0,0,1-4.11,1.67,5.3,5.3,0,0,1-4.16-1.64,6.75,6.75,0,0,1-1.46-4.63,6.63,6.63,0,0,1,1.47-4.59,5.34,5.34,0,0,1,4.16-1.63,5.22,5.22,0,0,1,4.1,1.66A6.62,6.62,0,0,1,756.85,601.59Zm-9.71,0a5.71,5.71,0,0,0,1.06,3.74,4.32,4.32,0,0,0,6.12,0,5.85,5.85,0,0,0,1-3.74,5.74,5.74,0,0,0-1-3.71,3.69,3.69,0,0,0-3.05-1.27,3.76,3.76,0,0,0-3.07,1.28A5.63,5.63,0,0,0,747.14,601.59Z"/>
        <path class="cls-28" d="M765.6,601.32h4.15v5.9a14.81,14.81,0,0,1-2,.46,15.74,15.74,0,0,1-2.32.16,5.61,5.61,0,0,1-4.3-1.64,6.42,6.42,0,0,1-1.55-4.59,6.93,6.93,0,0,1,.77-3.32,5.15,5.15,0,0,1,2.19-2.17,7.17,7.17,0,0,1,3.36-.75,9.29,9.29,0,0,1,3.63.71l-.55,1.25a8.06,8.06,0,0,0-3.17-.7,4.57,4.57,0,0,0-3.48,1.32,6.15,6.15,0,0,0,0,7.38,4.62,4.62,0,0,0,3.53,1.27,10.78,10.78,0,0,0,2.48-.29v-3.73H765.6Z"/>
        <path class="cls-28" d="M773.35,607.67V595.54h1.42v12.13Z"/>
        <path class="cls-28" d="M786.45,607.67l-1.52-3.86h-4.88l-1.5,3.86h-1.43l4.81-12.18h1.19l4.8,12.18Zm-2-5.13-1.42-3.75c-.18-.48-.37-1.06-.56-1.75a15.15,15.15,0,0,1-.53,1.75l-1.43,3.75Z"/>
      </g>
      <g class="cls-27">
        <path class="cls-28" d="M840.88,579.21V567.09h1.42v12.12Z"/>
        <path class="cls-28" d="M855.84,579.21h-1.62L847.57,569h-.07c.09,1.2.13,2.29.13,3.29v6.89h-1.31V567.09h1.6l6.64,10.13h.07c0-.15,0-.63-.07-1.44s-.06-1.39,0-1.73v-7h1.33Z"/>
        <path class="cls-28" d="M866.74,576a3,3,0,0,1-1.16,2.49,5.08,5.08,0,0,1-3.17.9,8,8,0,0,1-3.33-.56v-1.36a8.63,8.63,0,0,0,1.63.5,8.74,8.74,0,0,0,1.75.18,3.48,3.48,0,0,0,2.13-.53,1.75,1.75,0,0,0,.72-1.49,1.87,1.87,0,0,0-.25-1,2.45,2.45,0,0,0-.85-.75,12.82,12.82,0,0,0-1.82-.77,5.72,5.72,0,0,1-2.42-1.43,3.17,3.17,0,0,1-.73-2.17,2.68,2.68,0,0,1,1.06-2.23,4.39,4.39,0,0,1,2.79-.83,8.35,8.35,0,0,1,3.35.66L866,568.8a7.55,7.55,0,0,0-2.93-.63,2.87,2.87,0,0,0-1.76.48,1.59,1.59,0,0,0-.63,1.34,2.09,2.09,0,0,0,.23,1,2.19,2.19,0,0,0,.79.74,10.21,10.21,0,0,0,1.7.74A6.82,6.82,0,0,1,866,574,2.88,2.88,0,0,1,866.74,576Z"/>
        <path class="cls-28" d="M873.67,579.21h-1.42V568.34h-3.86v-1.25h9.13v1.25h-3.85Z"/>
        <path class="cls-28" d="M880,579.21V567.09h1.42v12.12Z"/>
        <path class="cls-28" d="M889.23,579.21h-1.42V568.34H884v-1.25h9.14v1.25h-3.86Z"/>
        <path class="cls-28" d="M904.8,567.09v7.84a4.25,4.25,0,0,1-1.26,3.26,4.85,4.85,0,0,1-3.46,1.19,4.65,4.65,0,0,1-3.4-1.19,4.45,4.45,0,0,1-1.2-3.29v-7.81h1.41V575a3.09,3.09,0,0,0,.84,2.33,3.37,3.37,0,0,0,2.45.81,3.28,3.28,0,0,0,2.37-.81,3.14,3.14,0,0,0,.83-2.35v-7.89Z"/>
        <path class="cls-28" d="M912.46,579.21H911V568.34h-3.86v-1.25h9.13v1.25h-3.85Z"/>
        <path class="cls-28" d="M929.4,573.13a6.64,6.64,0,0,1-1.48,4.58,5.2,5.2,0,0,1-4.11,1.67,5.28,5.28,0,0,1-4.15-1.64,8,8,0,0,1,0-9.22,5.35,5.35,0,0,1,4.17-1.63,5.23,5.23,0,0,1,4.1,1.66A6.69,6.69,0,0,1,929.4,573.13Zm-9.7,0a5.77,5.77,0,0,0,1,3.74,4.32,4.32,0,0,0,6.12,0,7.25,7.25,0,0,0,0-7.45,3.69,3.69,0,0,0-3-1.26,3.76,3.76,0,0,0-3.08,1.27A5.69,5.69,0,0,0,919.7,573.13Z"/>
        <path class="cls-28" d="M858.43,600.3V588.18h1.41V599h5.38v1.27Z"/>
        <path class="cls-28" d="M875.62,600.3l-1.52-3.85h-4.88l-1.5,3.85h-1.43l4.81-12.17h1.2l4.79,12.17Zm-2-5.12-1.41-3.76a17.26,17.26,0,0,1-.57-1.75,17.18,17.18,0,0,1-.52,1.75l-1.44,3.76Z"/>
        <path class="cls-28" d="M888.64,588.18V596a4.25,4.25,0,0,1-1.26,3.26,4.82,4.82,0,0,1-3.45,1.19,4.63,4.63,0,0,1-3.41-1.2,4.41,4.41,0,0,1-1.2-3.28v-7.81h1.42v7.91a3.09,3.09,0,0,0,.83,2.33,3.37,3.37,0,0,0,2.45.81,3.24,3.24,0,0,0,2.37-.81,3.14,3.14,0,0,0,.84-2.35v-7.89Z"/>
        <path class="cls-28" d="M894,595.26v5h-1.42V588.18h3.34a5.27,5.27,0,0,1,3.31.85,3.08,3.08,0,0,1,1.07,2.57,3.21,3.21,0,0,1-2.45,3.25l3.31,5.45h-1.67l-3-5Zm0-1.21h1.94a3.4,3.4,0,0,0,2.2-.59,2.23,2.23,0,0,0,.7-1.78,2,2,0,0,0-.72-1.74,3.87,3.87,0,0,0-2.28-.53H894Z"/>
        <path class="cls-28" d="M911.44,600.3l-1.52-3.85H905l-1.5,3.85H902.1l4.82-12.17h1.19l4.79,12.17Zm-2-5.12-1.42-3.76c-.18-.48-.37-1.06-.56-1.75a17.42,17.42,0,0,1-.53,1.75l-1.43,3.76Z"/>
        <path class="cls-28" d="M842.47,621.39h-1.41V609.26h6.79v1.26h-5.38V615h5v1.26h-5Z"/>
        <path class="cls-28" d="M852,616.35v5h-1.41V609.26h3.34a5.26,5.26,0,0,1,3.31.86,3.11,3.11,0,0,1,1.07,2.57,3.22,3.22,0,0,1-2.45,3.25l3.31,5.45h-1.68l-2.94-5Zm0-1.21h1.95a3.29,3.29,0,0,0,2.19-.6,2.17,2.17,0,0,0,.7-1.78,2,2,0,0,0-.71-1.73,3.9,3.9,0,0,0-2.29-.53H852Z"/>
        <path class="cls-28" d="M868.57,621.39h-6.79V609.26h6.79v1.26h-5.38v3.9h5v1.25h-5v4.46h5.38Z"/>
        <path class="cls-28" d="M878.82,618.17a3,3,0,0,1-1.16,2.49,5.08,5.08,0,0,1-3.17.9,8,8,0,0,1-3.33-.56v-1.36a8.63,8.63,0,0,0,1.63.5,8.74,8.74,0,0,0,1.75.18,3.55,3.55,0,0,0,2.13-.53,1.76,1.76,0,0,0,.72-1.49,1.87,1.87,0,0,0-.25-1,2.45,2.45,0,0,0-.85-.75,12.82,12.82,0,0,0-1.82-.77,5.72,5.72,0,0,1-2.42-1.43,3.17,3.17,0,0,1-.73-2.17,2.68,2.68,0,0,1,1.06-2.23,4.39,4.39,0,0,1,2.79-.83,8.35,8.35,0,0,1,3.35.66l-.45,1.23a7.55,7.55,0,0,0-2.93-.63,2.87,2.87,0,0,0-1.76.48,1.59,1.59,0,0,0-.63,1.34,2.09,2.09,0,0,0,.23,1,2.28,2.28,0,0,0,.79.74,10.21,10.21,0,0,0,1.7.74,6.69,6.69,0,0,1,2.63,1.46A2.88,2.88,0,0,1,878.82,618.17Z"/>
        <path class="cls-28" d="M888.87,618.17a3,3,0,0,1-1.17,2.49,5,5,0,0,1-3.16.9,7.9,7.9,0,0,1-3.33-.56v-1.36a8.63,8.63,0,0,0,1.63.5,8.74,8.74,0,0,0,1.75.18,3.6,3.6,0,0,0,2.13-.53,1.76,1.76,0,0,0,.72-1.49,1.87,1.87,0,0,0-.26-1,2.36,2.36,0,0,0-.85-.75,12.6,12.6,0,0,0-1.81-.77,5.83,5.83,0,0,1-2.43-1.43,3.22,3.22,0,0,1-.73-2.17,2.7,2.7,0,0,1,1.06-2.23,4.44,4.44,0,0,1,2.8-.83,8.3,8.3,0,0,1,3.34.66l-.44,1.23a7.55,7.55,0,0,0-2.93-.63,2.85,2.85,0,0,0-1.76.48,1.59,1.59,0,0,0-.63,1.34,2,2,0,0,0,.23,1,2.28,2.28,0,0,0,.79.74,10,10,0,0,0,1.69.74,6.67,6.67,0,0,1,2.64,1.46A2.88,2.88,0,0,1,888.87,618.17Z"/>
        <path class="cls-28" d="M899.7,621.39l-1.52-3.86H893.3l-1.5,3.86h-1.43l4.82-12.18h1.19l4.79,12.18Zm-2-5.12-1.41-3.76a17.26,17.26,0,0,1-.57-1.75,17.18,17.18,0,0,1-.52,1.75l-1.44,3.76Z"/>
        <path class="cls-28" d="M907.27,621.39h-1.41V610.52H902v-1.26h9.13v1.26h-3.86Z"/>
        <path class="cls-28" d="M917.4,621.39H916V610.52h-3.86v-1.26h9.13v1.26H917.4Z"/>
        <path class="cls-28" d="M934.34,615.31a6.64,6.64,0,0,1-1.48,4.58,5.2,5.2,0,0,1-4.11,1.67,5.28,5.28,0,0,1-4.15-1.64,8,8,0,0,1,0-9.22,5.35,5.35,0,0,1,4.17-1.63,5.23,5.23,0,0,1,4.1,1.66A6.67,6.67,0,0,1,934.34,615.31Zm-9.7,0a5.77,5.77,0,0,0,1.05,3.74,4.32,4.32,0,0,0,6.12,0,7.25,7.25,0,0,0,0-7.45,3.69,3.69,0,0,0-3-1.27,3.77,3.77,0,0,0-3.08,1.28A5.69,5.69,0,0,0,924.64,615.31Z"/>
      </g>
      <g class="cls-27">
        <path class="cls-28" d="M794.5,725.22,793,721.36H788.1l-1.5,3.86h-1.44L790,713h1.19L796,725.22Zm-2-5.13-1.42-3.76c-.18-.47-.37-1.06-.57-1.75a14.41,14.41,0,0,1-.52,1.75l-1.43,3.76Z"/>
        <path class="cls-28" d="M801.42,719.15l3.25-6.06h1.53l-4.07,7.42v4.71H800.7v-4.64l-4.06-7.49h1.55Z"/>
        <path class="cls-28" d="M813.91,718.86h4.15v5.9a13.4,13.4,0,0,1-2,.46,14.48,14.48,0,0,1-2.32.16,5.58,5.58,0,0,1-4.3-1.64,6.42,6.42,0,0,1-1.55-4.59,6.89,6.89,0,0,1,.77-3.31,5.23,5.23,0,0,1,2.19-2.18,7.17,7.17,0,0,1,3.36-.75,9.12,9.12,0,0,1,3.63.72l-.55,1.24a8.22,8.22,0,0,0-3.17-.69,4.58,4.58,0,0,0-3.48,1.31,5.12,5.12,0,0,0-1.25,3.66,5.25,5.25,0,0,0,1.21,3.73,4.66,4.66,0,0,0,3.53,1.27,10.78,10.78,0,0,0,2.48-.29v-3.74h-2.73Z"/>
        <path class="cls-28" d="M829.32,725.22l-1.52-3.86h-4.88l-1.5,3.86H820L824.8,713H826l4.8,12.18Zm-2-5.13-1.42-3.76c-.18-.47-.37-1.06-.56-1.75a14.58,14.58,0,0,1-.53,1.75l-1.43,3.76Z"/>
        <path class="cls-28" d="M759.9,746.31h-1.42V735.43h-3.85v-1.25h9.13v1.25H759.9Z"/>
        <path class="cls-28" d="M773.06,746.31h-6.79V734.18h6.79v1.25h-5.37v3.91h5v1.24h-5v4.47h5.37Z"/>
        <path class="cls-28" d="M781.66,735.27a4,4,0,0,0-3.17,1.33,5.35,5.35,0,0,0-1.16,3.64,5.43,5.43,0,0,0,1.12,3.68,4,4,0,0,0,3.19,1.3,10.76,10.76,0,0,0,2.91-.46V746a9.07,9.07,0,0,1-3.12.47,5.32,5.32,0,0,1-4.16-1.62,6.72,6.72,0,0,1-1.46-4.62,7.28,7.28,0,0,1,.71-3.29,5,5,0,0,1,2-2.17,6.15,6.15,0,0,1,3.13-.77,7.68,7.68,0,0,1,3.35.7l-.6,1.21A6.51,6.51,0,0,0,781.66,735.27Z"/>
        <path class="cls-28" d="M797.41,746.31h-1.62l-6.66-10.18h-.06c.09,1.19.13,2.29.13,3.28v6.9h-1.31V734.18h1.6l6.64,10.13h.07c0-.14,0-.62-.08-1.43s0-1.39,0-1.74v-7h1.33Z"/>
        <path class="cls-28" d="M812,740.23a6.61,6.61,0,0,1-1.48,4.57,5.17,5.17,0,0,1-4.11,1.67,5.24,5.24,0,0,1-4.15-1.64,6.67,6.67,0,0,1-1.46-4.62,6.59,6.59,0,0,1,1.46-4.59,5.32,5.32,0,0,1,4.17-1.63,5.2,5.2,0,0,1,4.1,1.66A6.65,6.65,0,0,1,812,740.23Zm-9.71,0a5.74,5.74,0,0,0,1.06,3.73,4.31,4.31,0,0,0,6.12,0,5.83,5.83,0,0,0,1-3.74,5.77,5.77,0,0,0-1-3.72,3.69,3.69,0,0,0-3-1.26,3.76,3.76,0,0,0-3.08,1.27A5.7,5.7,0,0,0,802.3,740.23Z"/>
        <path class="cls-28" d="M815.41,746.31V734.18h1.42V745h5.37v1.28Z"/>
        <path class="cls-28" d="M835.52,740.23A6.61,6.61,0,0,1,834,744.8a5.17,5.17,0,0,1-4.11,1.67,5.24,5.24,0,0,1-4.15-1.64,6.67,6.67,0,0,1-1.46-4.62,6.59,6.59,0,0,1,1.46-4.59A5.32,5.32,0,0,1,830,734a5.2,5.2,0,0,1,4.1,1.66A6.65,6.65,0,0,1,835.52,740.23Zm-9.7,0a5.74,5.74,0,0,0,1,3.73,4.31,4.31,0,0,0,6.12,0,5.83,5.83,0,0,0,1-3.74,5.77,5.77,0,0,0-1-3.72,3.69,3.69,0,0,0-3-1.26,3.76,3.76,0,0,0-3.08,1.27A5.7,5.7,0,0,0,825.82,740.23Z"/>
        <path class="cls-28" d="M844.28,740h4.14v5.9a13.4,13.4,0,0,1-2,.46,14.35,14.35,0,0,1-2.31.16,5.6,5.6,0,0,1-4.31-1.64,6.42,6.42,0,0,1-1.54-4.59,6.88,6.88,0,0,1,.76-3.31,5.23,5.23,0,0,1,2.19-2.18,7.17,7.17,0,0,1,3.36-.75,9.12,9.12,0,0,1,3.63.72l-.55,1.24a8.14,8.14,0,0,0-3.17-.69,4.54,4.54,0,0,0-3.47,1.31,5.08,5.08,0,0,0-1.25,3.66A5.24,5.24,0,0,0,841,744a4.67,4.67,0,0,0,3.54,1.27A10.7,10.7,0,0,0,847,745v-3.74h-2.72Z"/>
        <path class="cls-28" d="M852,746.31V734.18h1.41v12.13Z"/>
        <path class="cls-28" d="M865.12,746.31l-1.51-3.86h-4.89l-1.5,3.86h-1.43l4.82-12.18h1.19l4.79,12.18Zm-2-5.13-1.41-3.76c-.19-.47-.37-1.06-.57-1.75a16.46,16.46,0,0,1-.52,1.75l-1.44,3.76Z"/>
      </g>
      <g class="cls-27">
        <path class="cls-28" d="M781.5,438.3a4,4,0,0,0-3.17,1.33,5.37,5.37,0,0,0-1.16,3.64,5.43,5.43,0,0,0,1.12,3.68,4,4,0,0,0,3.2,1.3,11,11,0,0,0,2.9-.45V449a8.84,8.84,0,0,1-3.12.47,5.28,5.28,0,0,1-4.15-1.62,6.67,6.67,0,0,1-1.47-4.62,7.28,7.28,0,0,1,.71-3.29,5,5,0,0,1,2-2.17,6.18,6.18,0,0,1,3.13-.76,7.65,7.65,0,0,1,3.35.69l-.6,1.21A6.51,6.51,0,0,0,781.5,438.3Z"/>
        <path class="cls-28" d="M797,449.34h-1.41v-5.71h-6.42v5.71h-1.42V437.21h1.42v5.16h6.42v-5.16H797Z"/>
        <path class="cls-28" d="M808.66,449.34l-1.51-3.86h-4.89l-1.5,3.86h-1.43l4.82-12.18h1.19l4.79,12.18Zm-2-5.13-1.41-3.76a18.16,18.16,0,0,1-.57-1.75,16.46,16.46,0,0,1-.52,1.75l-1.44,3.76Z"/>
        <path class="cls-28" d="M817.88,449.34l-4.14-10.75h-.06c.07.85.11,1.86.11,3v7.72h-1.3V437.21h2.13l3.86,10h.06l3.89-10h2.12v12.13h-1.42v-7.82c0-.89,0-1.87.12-2.92h-.07L819,449.34Z"/>
        <path class="cls-28" d="M836.23,449.34l-1.52-3.86h-4.88l-1.5,3.86H826.9l4.81-12.18h1.2l4.79,12.18Zm-2-5.13-1.41-3.76a15.74,15.74,0,0,1-.57-1.75,14.58,14.58,0,0,1-.53,1.75l-1.43,3.76Z"/>
        <path class="cls-28" d="M750.82,470.43V458.3h1.42v12.13Z"/>
        <path class="cls-28" d="M765.77,470.43h-1.61l-6.66-10.18h-.07c.09,1.19.14,2.29.14,3.28v6.9h-1.31V458.3h1.6l6.64,10.14h.07c0-.15,0-.63-.08-1.44s0-1.39,0-1.74v-7h1.32Z"/>
        <path class="cls-28" d="M769.81,458.3h3.44a6.51,6.51,0,0,1,3.5.72,2.53,2.53,0,0,1,1.09,2.28,2.6,2.6,0,0,1-.61,1.78,2.9,2.9,0,0,1-1.76.91v.08c1.85.32,2.78,1.29,2.78,2.91a3.12,3.12,0,0,1-1.11,2.54,4.74,4.74,0,0,1-3.09.91h-4.24Zm1.41,5.19h2.33a3.76,3.76,0,0,0,2.16-.47,1.79,1.79,0,0,0,.66-1.58,1.59,1.59,0,0,0-.73-1.47,4.64,4.64,0,0,0-2.34-.45h-2.08Zm0,1.2v4.54h2.54a3.59,3.59,0,0,0,2.22-.57,2.09,2.09,0,0,0,.75-1.78,1.9,1.9,0,0,0-.76-1.66,4.06,4.06,0,0,0-2.32-.53Z"/>
        <path class="cls-28" d="M792.12,464.35a6.71,6.71,0,0,1-1.48,4.58,5.22,5.22,0,0,1-4.11,1.66,5.29,5.29,0,0,1-4.16-1.63,6.76,6.76,0,0,1-1.46-4.63,6.63,6.63,0,0,1,1.47-4.59,5.28,5.28,0,0,1,4.16-1.63,5.18,5.18,0,0,1,4.1,1.66A6.65,6.65,0,0,1,792.12,464.35Zm-9.71,0a5.72,5.72,0,0,0,1.05,3.73,3.77,3.77,0,0,0,3.07,1.28,3.69,3.69,0,0,0,3.05-1.27,7.22,7.22,0,0,0,0-7.45,3.69,3.69,0,0,0-3.05-1.27,3.77,3.77,0,0,0-3.08,1.27A5.72,5.72,0,0,0,782.41,464.35Z"/>
        <path class="cls-28" d="M803.62,470.43H802l-3.27-5.34-3.33,5.34h-1.5l4.05-6.34-3.78-5.79h1.57l3,4.8,3.05-4.8h1.51L799.56,464Z"/>
        <path class="cls-28" d="M811.16,458.3h3.44a6.52,6.52,0,0,1,3.51.72,2.54,2.54,0,0,1,1.08,2.28,2.64,2.64,0,0,1-.6,1.78,2.93,2.93,0,0,1-1.76.91v.08c1.85.32,2.77,1.29,2.77,2.91a3.14,3.14,0,0,1-1.1,2.54,4.78,4.78,0,0,1-3.09.91h-4.25Zm1.42,5.19h2.33a3.76,3.76,0,0,0,2.16-.47,1.79,1.79,0,0,0,.66-1.58A1.59,1.59,0,0,0,817,460a4.6,4.6,0,0,0-2.33-.45h-2.08Zm0,1.2v4.54h2.54a3.63,3.63,0,0,0,2.22-.57,2.08,2.08,0,0,0,.74-1.78,1.88,1.88,0,0,0-.76-1.66,4,4,0,0,0-2.32-.53Z"/>
        <path class="cls-28" d="M824.32,465.38v5.05H822.9V458.3h3.34a5.27,5.27,0,0,1,3.31.85,3.08,3.08,0,0,1,1.07,2.58,3.22,3.22,0,0,1-2.45,3.25l3.31,5.45h-1.67l-2.95-5.05Zm0-1.21h1.94a3.34,3.34,0,0,0,2.2-.59,2.22,2.22,0,0,0,.7-1.78,2,2,0,0,0-.72-1.73,3.79,3.79,0,0,0-2.28-.53h-1.84Z"/>
        <path class="cls-28" d="M841.79,470.43l-1.52-3.86h-4.88l-1.5,3.86h-1.44l4.82-12.18h1.19l4.79,12.18Zm-2-5.13-1.42-3.76c-.18-.47-.37-1.06-.57-1.75a14.41,14.41,0,0,1-.52,1.75l-1.43,3.76Z"/>
        <path class="cls-28" d="M852.48,467.2a3,3,0,0,1-1.16,2.5,5.08,5.08,0,0,1-3.17.89,8,8,0,0,1-3.33-.55v-1.36a9.43,9.43,0,0,0,1.63.5,8.74,8.74,0,0,0,1.75.18,3.5,3.5,0,0,0,2.13-.54,1.74,1.74,0,0,0,.72-1.49,1.89,1.89,0,0,0-.25-1,2.44,2.44,0,0,0-.85-.74,11.21,11.21,0,0,0-1.82-.77,5.83,5.83,0,0,1-2.42-1.44,3.12,3.12,0,0,1-.73-2.16,2.68,2.68,0,0,1,1-2.23,4.38,4.38,0,0,1,2.8-.83,8.3,8.3,0,0,1,3.34.66l-.44,1.23a7.55,7.55,0,0,0-2.93-.63,2.85,2.85,0,0,0-1.76.48,1.57,1.57,0,0,0-.63,1.33,2.13,2.13,0,0,0,.23,1,2.26,2.26,0,0,0,.79.73,9,9,0,0,0,1.7.75,6.69,6.69,0,0,1,2.63,1.46A2.85,2.85,0,0,1,852.48,467.2Z"/>
        <path class="cls-28" d="M855.66,470.43V458.3h1.41v12.13Z"/>
        <path class="cls-28" d="M861.1,470.43V458.3h1.41v10.85h5.38v1.28Z"/>
      </g>
      <g class="cls-27">
        <path class="cls-28" d="M624.49,420.75h-1.42V415h-6.41v5.71h-1.42V408.62h1.42v5.16h6.41v-5.16h1.42Z"/>
        <path class="cls-28" d="M637.71,408.62v7.85a4.26,4.26,0,0,1-1.26,3.26,4.84,4.84,0,0,1-3.46,1.18,4.6,4.6,0,0,1-3.4-1.19,4.43,4.43,0,0,1-1.2-3.28v-7.82h1.41v7.91a3.15,3.15,0,0,0,.83,2.34,3.4,3.4,0,0,0,2.45.81,3.25,3.25,0,0,0,2.38-.82,3.14,3.14,0,0,0,.83-2.34v-7.9Z"/>
        <path class="cls-28" d="M649.27,420.75l-1.51-3.86h-4.89l-1.5,3.86h-1.43l4.82-12.18H646l4.79,12.18Zm-2-5.13-1.41-3.76a18.16,18.16,0,0,1-.57-1.75,16.46,16.46,0,0,1-.52,1.75l-1.44,3.76Z"/>
        <path class="cls-28" d="M663.73,420.75h-1.4l-2.46-8.12c-.12-.36-.25-.82-.39-1.36a8.29,8.29,0,0,1-.23-1,18,18,0,0,1-.58,2.4l-2.38,8.07h-1.4l-3.24-12.13h1.5l1.92,7.49a25.92,25.92,0,0,1,.58,2.86,20.66,20.66,0,0,1,.67-3l2.18-7.38H660l2.29,7.44A23.23,23.23,0,0,1,663,419a22.63,22.63,0,0,1,.6-2.88l1.91-7.47H667Z"/>
        <path class="cls-28" d="M676.36,420.75h-6.79V408.62h6.79v1.25H671v3.91h5V415h-5v4.47h5.37Z"/>
        <path class="cls-28" d="M679.75,420.75V408.62h1.41v12.13Z"/>
        <path class="cls-28" d="M686.43,418.77l.12.2a19.73,19.73,0,0,1-.62,1.92c-.27.74-.56,1.42-.85,2.05h-1c.15-.58.31-1.29.49-2.13s.31-1.53.38-2Zm-1.69-6.23c0-.74.33-1.12,1-1.12s1,.38,1,1.12a1.17,1.17,0,0,1-.27.83,1,1,0,0,1-.75.29.92.92,0,0,1-.74-.29A1.21,1.21,0,0,1,684.74,412.54Z"/>
        <path class="cls-28" d="M621.94,438.61a3,3,0,0,1-1.16,2.5,5.08,5.08,0,0,1-3.17.89,8,8,0,0,1-3.33-.55v-1.36a9.43,9.43,0,0,0,1.63.5,8.74,8.74,0,0,0,1.75.18,3.52,3.52,0,0,0,2.13-.54,1.74,1.74,0,0,0,.72-1.49,1.89,1.89,0,0,0-.26-1,2.31,2.31,0,0,0-.84-.74,11.21,11.21,0,0,0-1.82-.77,5.94,5.94,0,0,1-2.43-1.44,3.17,3.17,0,0,1-.72-2.16,2.68,2.68,0,0,1,1-2.23,4.38,4.38,0,0,1,2.8-.83,8.3,8.3,0,0,1,3.34.66l-.44,1.23a7.55,7.55,0,0,0-2.93-.63,2.85,2.85,0,0,0-1.76.48,1.57,1.57,0,0,0-.63,1.33,2.13,2.13,0,0,0,.23,1,2.26,2.26,0,0,0,.79.73,9.18,9.18,0,0,0,1.69.75,6.67,6.67,0,0,1,2.64,1.46A2.85,2.85,0,0,1,621.94,438.61Z"/>
        <path class="cls-28" d="M625.12,441.84V429.71h1.41v12.13Z"/>
        <path class="cls-28" d="M637.35,441.84h-6.79V429.71h6.79V431H632v3.91h5v1.24h-5v4.47h5.38Z"/>
        <path class="cls-28" d="M646.12,441.84,642,431.09h-.07q.12,1.28.12,3v7.72h-1.31V429.71h2.13l3.86,10h.06l3.9-10h2.11v12.13h-1.41V434c0-.89,0-1.87.11-2.92h-.06l-4.17,10.74Z"/>
        <path class="cls-28" d="M663.61,441.84h-6.79V429.71h6.79V431h-5.38v3.91h5v1.24h-5v4.47h5.38Z"/>
        <path class="cls-28" d="M676.5,441.84h-1.61l-6.66-10.18h-.07c.09,1.19.14,2.29.14,3.28v6.9H667V429.71h1.6l6.64,10.14h.06c0-.15,0-.63-.07-1.44s-.05-1.39,0-1.74v-7h1.32Z"/>
        <path class="cls-28" d="M687.41,438.61a3,3,0,0,1-1.17,2.5,5.06,5.06,0,0,1-3.17.89,8,8,0,0,1-3.33-.55v-1.36a9.55,9.55,0,0,0,1.64.5,8.64,8.64,0,0,0,1.74.18,3.53,3.53,0,0,0,2.14-.54,1.73,1.73,0,0,0,.71-1.49,1.89,1.89,0,0,0-.25-1,2.35,2.35,0,0,0-.85-.74,11,11,0,0,0-1.81-.77,5.94,5.94,0,0,1-2.43-1.44,3.12,3.12,0,0,1-.73-2.16,2.66,2.66,0,0,1,1.06-2.23,4.36,4.36,0,0,1,2.8-.83,8.33,8.33,0,0,1,3.34.66l-.44,1.23a7.63,7.63,0,0,0-2.94-.63,2.82,2.82,0,0,0-1.75.48,1.56,1.56,0,0,0-.64,1.33,2,2,0,0,0,.24,1,2.13,2.13,0,0,0,.78.73,9.33,9.33,0,0,0,1.7.75,6.67,6.67,0,0,1,2.64,1.46A2.85,2.85,0,0,1,687.41,438.61Z"/>
        <path class="cls-28" d="M590.48,462.93h-6.79V450.8h6.79v1.25H585.1V456h5v1.24h-5v4.47h5.38Z"/>
        <path class="cls-28" d="M603.37,462.93h-1.61l-6.66-10.18H595c.09,1.19.14,2.29.14,3.28v6.9h-1.31V450.8h1.6l6.64,10.14h.06c0-.15,0-.63-.07-1.44s-.05-1.39,0-1.74v-7h1.32Z"/>
        <path class="cls-28" d="M614.19,462.93H607.4V450.8h6.79v1.25h-5.37V456h5v1.24h-5v4.47h5.37Z"/>
        <path class="cls-28" d="M619,457.88v5.05h-1.41V450.8h3.34a5.27,5.27,0,0,1,3.31.85,3.11,3.11,0,0,1,1.07,2.58,3.23,3.23,0,0,1-2.45,3.25l3.31,5.45h-1.68l-3-5.05Zm0-1.21h1.94a3.33,3.33,0,0,0,2.2-.59,2.2,2.2,0,0,0,.7-1.78,2,2,0,0,0-.71-1.73,3.82,3.82,0,0,0-2.29-.54H619Z"/>
        <path class="cls-28" d="M634.16,456.57h4.14v5.9a13,13,0,0,1-2,.47,15.85,15.85,0,0,1-2.32.15,5.58,5.58,0,0,1-4.3-1.64,6.42,6.42,0,0,1-1.55-4.59,6.89,6.89,0,0,1,.77-3.31,5.1,5.1,0,0,1,2.19-2.17,7.18,7.18,0,0,1,3.36-.76,9.12,9.12,0,0,1,3.63.72l-.55,1.24a8.22,8.22,0,0,0-3.17-.69,4.6,4.6,0,0,0-3.48,1.31,5.12,5.12,0,0,0-1.25,3.66,5.2,5.2,0,0,0,1.21,3.73,4.66,4.66,0,0,0,3.53,1.27,10.78,10.78,0,0,0,2.48-.29v-3.74h-2.73Z"/>
        <path class="cls-28" d="M645,456.86l3.25-6.06h1.53l-4.06,7.42v4.71h-1.44v-4.64l-4-7.49h1.55Z"/>
        <path class="cls-28" d="M657.27,450.8h3.44a6.51,6.51,0,0,1,3.5.72,2.53,2.53,0,0,1,1.09,2.28,2.6,2.6,0,0,1-.61,1.78,2.9,2.9,0,0,1-1.76.91v.08c1.85.32,2.78,1.29,2.78,2.91A3.12,3.12,0,0,1,664.6,462a4.76,4.76,0,0,1-3.09.91h-4.24Zm1.41,5.19H661a3.76,3.76,0,0,0,2.16-.47,1.8,1.8,0,0,0,.66-1.58,1.59,1.59,0,0,0-.73-1.47,4.64,4.64,0,0,0-2.34-.45h-2.08Zm0,1.2v4.53h2.54a3.66,3.66,0,0,0,2.22-.56,2.1,2.1,0,0,0,.75-1.78,1.89,1.89,0,0,0-.76-1.66,4.06,4.06,0,0,0-2.32-.53Z"/>
        <path class="cls-28" d="M670.42,457.88v5.05H669V450.8h3.34a5.3,5.3,0,0,1,3.32.85,3.11,3.11,0,0,1,1.07,2.58,3.23,3.23,0,0,1-2.45,3.25l3.31,5.45h-1.68L673,457.88Zm0-1.21h1.94a3.34,3.34,0,0,0,2.2-.59,2.2,2.2,0,0,0,.7-1.78,2,2,0,0,0-.71-1.73,3.84,3.84,0,0,0-2.29-.54h-1.84Z"/>
        <path class="cls-28" d="M687.89,462.93l-1.52-3.86h-4.88l-1.5,3.86h-1.43l4.81-12.18h1.2l4.79,12.18Zm-2-5.13L684.52,454a16.46,16.46,0,0,1-.57-1.75,16.46,16.46,0,0,1-.52,1.75L682,457.8Z"/>
        <path class="cls-28" d="M698.59,459.7a3,3,0,0,1-1.17,2.5,5.11,5.11,0,0,1-3.16.89,8,8,0,0,1-3.34-.55v-1.36a8.73,8.73,0,0,0,1.64.49,8,8,0,0,0,1.74.19,3.53,3.53,0,0,0,2.14-.54,1.73,1.73,0,0,0,.71-1.49,1.89,1.89,0,0,0-.25-1,2.26,2.26,0,0,0-.85-.74,11,11,0,0,0-1.81-.77,5.94,5.94,0,0,1-2.43-1.44,3.12,3.12,0,0,1-.73-2.16,2.7,2.7,0,0,1,1.06-2.24,4.42,4.42,0,0,1,2.8-.83,8.34,8.34,0,0,1,3.34.67l-.44,1.23a7.63,7.63,0,0,0-2.93-.63,2.85,2.85,0,0,0-1.76.48,1.56,1.56,0,0,0-.64,1.33,2,2,0,0,0,.24,1,2.07,2.07,0,0,0,.78.74,10.09,10.09,0,0,0,1.7.75,6.67,6.67,0,0,1,2.64,1.46A2.85,2.85,0,0,1,698.59,459.7Z"/>
        <path class="cls-28" d="M701.76,462.93V450.8h1.42v12.13Z"/>
        <path class="cls-28" d="M707.2,462.93V450.8h1.42v10.85H714v1.28Z"/>
        <path class="cls-28" d="M718,461l.13.19c-.15.56-.36,1.2-.63,1.93s-.55,1.42-.85,2.05h-1c.15-.58.32-1.29.5-2.14s.3-1.52.38-2Zm-1.69-6.23c0-.74.33-1.12,1-1.12s1,.38,1,1.12a1.13,1.13,0,0,1-.28.83,1,1,0,0,1-.75.29.92.92,0,0,1-.74-.29A1.26,1.26,0,0,1,716.29,454.72Z"/>
        <path class="cls-28" d="M599.78,484h-1.42v-5.71H592V484h-1.42V471.89H592v5.16h6.41v-5.16h1.42Z"/>
        <path class="cls-28" d="M614.37,477.94a6.66,6.66,0,0,1-1.48,4.58,6,6,0,0,1-8.26,0,8,8,0,0,1,0-9.21,5.32,5.32,0,0,1,4.17-1.63,5.18,5.18,0,0,1,4.1,1.66A6.65,6.65,0,0,1,614.37,477.94Zm-9.7,0a5.74,5.74,0,0,0,1.05,3.73,4.31,4.31,0,0,0,6.12,0,7.27,7.27,0,0,0,0-7.46,3.69,3.69,0,0,0-3-1.26,3.76,3.76,0,0,0-3.08,1.27A5.72,5.72,0,0,0,604.67,477.94Z"/>
        <path class="cls-28" d="M624.65,480.79a3,3,0,0,1-1.17,2.5,5.12,5.12,0,0,1-3.17.89,8,8,0,0,1-3.33-.55v-1.36a8.63,8.63,0,0,0,1.63.49,8.15,8.15,0,0,0,1.75.19,3.53,3.53,0,0,0,2.14-.54,1.76,1.76,0,0,0,.71-1.49,1.89,1.89,0,0,0-.25-1,2.26,2.26,0,0,0-.85-.74,11,11,0,0,0-1.81-.77,5.81,5.81,0,0,1-2.43-1.44,3.12,3.12,0,0,1-.73-2.16,2.7,2.7,0,0,1,1.06-2.24,4.42,4.42,0,0,1,2.8-.83,8.34,8.34,0,0,1,3.34.67l-.44,1.23A7.63,7.63,0,0,0,621,473a2.82,2.82,0,0,0-1.75.48,1.56,1.56,0,0,0-.64,1.33,2.07,2.07,0,0,0,.23,1,2.19,2.19,0,0,0,.79.74,10.09,10.09,0,0,0,1.7.75,6.74,6.74,0,0,1,2.64,1.46A2.85,2.85,0,0,1,624.65,480.79Z"/>
        <path class="cls-28" d="M635.54,475.42a3.4,3.4,0,0,1-1.26,2.84,5.73,5.73,0,0,1-3.61,1h-1.43V484h-1.42V471.89H631Q635.54,471.89,635.54,475.42Zm-6.3,2.62h1.27a4.81,4.81,0,0,0,2.73-.61,2.22,2.22,0,0,0,.84-1.94,2.08,2.08,0,0,0-.8-1.79,4.12,4.12,0,0,0-2.46-.59h-1.58Z"/>
        <path class="cls-28" d="M638.77,484V471.89h1.42V484Z"/>
        <path class="cls-28" d="M648,484h-1.41V473.14h-3.86v-1.25h9.13v1.25H648Z"/>
        <path class="cls-28" d="M662,484l-1.51-3.86h-4.89l-1.5,3.86h-1.43l4.82-12.18h1.19L663.46,484Zm-2-5.13-1.42-3.76c-.18-.47-.37-1.06-.57-1.75a14.41,14.41,0,0,1-.52,1.75l-1.44,3.76Z"/>
        <path class="cls-28" d="M665.82,484V471.89h1.41v10.85h5.38V484Z"/>
        <path class="cls-28" d="M690.19,477.84a6.11,6.11,0,0,1-1.63,4.59,6.51,6.51,0,0,1-4.72,1.59h-3.37V471.89h3.73a6,6,0,0,1,4.42,1.57A5.89,5.89,0,0,1,690.19,477.84Zm-1.5.05a4.87,4.87,0,0,0-1.19-3.58,4.81,4.81,0,0,0-3.55-1.2h-2.06v9.69h1.72a5.29,5.29,0,0,0,3.81-1.24A4.9,4.9,0,0,0,688.69,477.89Z"/>
        <path class="cls-28" d="M701.25,484l-1.52-3.86h-4.88l-1.5,3.86h-1.43l4.81-12.18h1.19l4.8,12.18Zm-2-5.13-1.42-3.76c-.18-.47-.37-1.06-.56-1.75a14.58,14.58,0,0,1-.53,1.75l-1.43,3.76Z"/>
        <path class="cls-28" d="M712,480.79a3,3,0,0,1-1.17,2.5,5.12,5.12,0,0,1-3.17.89,8,8,0,0,1-3.33-.55v-1.36a8.63,8.63,0,0,0,1.63.49,8.15,8.15,0,0,0,1.75.19,3.53,3.53,0,0,0,2.14-.54,1.76,1.76,0,0,0,.71-1.49,1.89,1.89,0,0,0-.25-1,2.26,2.26,0,0,0-.85-.74,11,11,0,0,0-1.81-.77,5.81,5.81,0,0,1-2.43-1.44,3.12,3.12,0,0,1-.73-2.16,2.7,2.7,0,0,1,1.06-2.24,4.42,4.42,0,0,1,2.8-.83,8.34,8.34,0,0,1,3.34.67l-.44,1.23a7.63,7.63,0,0,0-2.94-.63,2.82,2.82,0,0,0-1.75.48,1.56,1.56,0,0,0-.64,1.33,2,2,0,0,0,.24,1,2.07,2.07,0,0,0,.78.74,10.09,10.09,0,0,0,1.7.75,6.74,6.74,0,0,1,2.64,1.46A2.85,2.85,0,0,1,712,480.79Z"/>
        <path class="cls-28" d="M601.79,494.07a4,4,0,0,0-3.17,1.33,5.35,5.35,0,0,0-1.16,3.64,5.43,5.43,0,0,0,1.12,3.68,4,4,0,0,0,3.2,1.3,10.64,10.64,0,0,0,2.9-.46v1.24a9.07,9.07,0,0,1-3.12.47,5.3,5.3,0,0,1-4.15-1.62,6.67,6.67,0,0,1-1.47-4.62,7.28,7.28,0,0,1,.71-3.29,5.07,5.07,0,0,1,2-2.17,6.18,6.18,0,0,1,3.13-.77,7.65,7.65,0,0,1,3.35.7l-.6,1.21A6.47,6.47,0,0,0,601.79,494.07Z"/>
        <path class="cls-28" d="M608,505.11V493h1.42v10.85h5.37v1.28Z"/>
        <path class="cls-28" d="M617.38,491.8c.27-.34.55-.76.86-1.24s.55-.91.73-1.27h1.68v.17a11.35,11.35,0,0,1-1.09,1.33A12.42,12.42,0,0,1,618.3,492h-.92Zm.18,13.31V493H619v12.13Z"/>
        <path class="cls-28" d="M632.52,505.11H630.9l-6.66-10.18h-.06c.09,1.19.13,2.29.13,3.28v6.9H623V493h1.6l6.64,10.14h.07c0-.15,0-.63-.07-1.44s-.06-1.39,0-1.74v-7h1.33Z"/>
        <path class="cls-28" d="M636.55,505.11V493H638v12.13Z"/>
        <path class="cls-28" d="M647.21,494.07A4,4,0,0,0,644,495.4a5.31,5.31,0,0,0-1.17,3.64,5.49,5.49,0,0,0,1.12,3.68,4,4,0,0,0,3.2,1.3,10.76,10.76,0,0,0,2.91-.46v1.24a9.17,9.17,0,0,1-3.13.47,5.3,5.3,0,0,1-4.15-1.62,6.67,6.67,0,0,1-1.46-4.62,7.28,7.28,0,0,1,.7-3.29,5.07,5.07,0,0,1,2-2.17,6.18,6.18,0,0,1,3.13-.77,7.62,7.62,0,0,1,3.35.7l-.6,1.21A6.46,6.46,0,0,0,647.21,494.07Z"/>
        <path class="cls-28" d="M661.09,505.11l-1.51-3.86h-4.89l-1.49,3.86h-1.44l4.82-12.18h1.19l4.79,12.18Zm-2-5.13-1.42-3.76c-.18-.47-.37-1.06-.57-1.75a14.41,14.41,0,0,1-.52,1.75L655.19,500Z"/>
        <path class="cls-28" d="M671.79,501.88a3,3,0,0,1-1.17,2.5,5.09,5.09,0,0,1-3.16.89,7.93,7.93,0,0,1-3.33-.55v-1.36a8.41,8.41,0,0,0,1.63.49,8.08,8.08,0,0,0,1.75.19,3.52,3.52,0,0,0,2.13-.54,1.74,1.74,0,0,0,.72-1.49,1.89,1.89,0,0,0-.26-1,2.26,2.26,0,0,0-.85-.74,10.65,10.65,0,0,0-1.81-.77A5.94,5.94,0,0,1,665,498a3.17,3.17,0,0,1-.73-2.16,2.72,2.72,0,0,1,1.06-2.24,4.44,4.44,0,0,1,2.8-.83,8.3,8.3,0,0,1,3.34.67L671,494.7a7.59,7.59,0,0,0-2.93-.63,2.85,2.85,0,0,0-1.76.48,1.57,1.57,0,0,0-.63,1.33,2,2,0,0,0,.23,1,2.19,2.19,0,0,0,.79.74,9.92,9.92,0,0,0,1.69.75,6.67,6.67,0,0,1,2.64,1.46A2.85,2.85,0,0,1,671.79,501.88Z"/>
        <path class="cls-28" d="M689.28,493v7.85a4.26,4.26,0,0,1-1.26,3.26,4.84,4.84,0,0,1-3.46,1.18,4.63,4.63,0,0,1-3.4-1.19,4.4,4.4,0,0,1-1.21-3.29V493h1.42v7.91a3.13,3.13,0,0,0,.83,2.33,3.34,3.34,0,0,0,2.45.82,3.29,3.29,0,0,0,2.38-.82,3.15,3.15,0,0,0,.83-2.34V493Z"/>
        <path class="cls-28" d="M700.06,501.88a3,3,0,0,1-1.17,2.5,5.12,5.12,0,0,1-3.17.89,8,8,0,0,1-3.33-.55v-1.36a8.73,8.73,0,0,0,1.64.49,8,8,0,0,0,1.74.19,3.53,3.53,0,0,0,2.14-.54,1.73,1.73,0,0,0,.71-1.49,1.89,1.89,0,0,0-.25-1,2.26,2.26,0,0,0-.85-.74,11,11,0,0,0-1.81-.77,5.88,5.88,0,0,1-2.43-1.44,3.12,3.12,0,0,1-.73-2.16,2.7,2.7,0,0,1,1.06-2.24,4.42,4.42,0,0,1,2.8-.83,8.34,8.34,0,0,1,3.34.67l-.44,1.23a7.63,7.63,0,0,0-2.94-.63,2.82,2.82,0,0,0-1.75.48,1.56,1.56,0,0,0-.64,1.33,2,2,0,0,0,.24,1,2.07,2.07,0,0,0,.78.74,10.09,10.09,0,0,0,1.7.75,6.67,6.67,0,0,1,2.64,1.46A2.85,2.85,0,0,1,700.06,501.88Z"/>
        <path class="cls-28" d="M711,496.51a3.4,3.4,0,0,1-1.26,2.84,5.73,5.73,0,0,1-3.61,1h-1.43v4.77h-1.42V493h3.16Q710.95,493,711,496.51Zm-6.3,2.62h1.27a4.79,4.79,0,0,0,2.73-.61,2.22,2.22,0,0,0,.84-1.94,2.1,2.1,0,0,0-.79-1.79,4.18,4.18,0,0,0-2.47-.59h-1.58Z"/>
      </g>
      <g class="cls-27">
        <text class="cls-29" transform="translate(944.81 458.9)" style="white-space: pre;">INTEL</text>
      </g>
      <g class="cls-27">
        <text class="cls-29" transform="translate(932.61 731.43)" style="white-space: pre;">RADTEC</text>
      </g>
      <g class="cls-27">
        <path class="cls-28" d="M605.49,721.9V727h-1.42V714.82h3.35a5.29,5.29,0,0,1,3.31.85,3.11,3.11,0,0,1,1.07,2.57,3.24,3.24,0,0,1-2.45,3.26l3.31,5.45H611l-3-5.05Zm0-1.21h1.94a3.38,3.38,0,0,0,2.2-.59,2.2,2.2,0,0,0,.7-1.78,2,2,0,0,0-.71-1.73,3.84,3.84,0,0,0-2.29-.54h-1.84Z"/>
        <path class="cls-28" d="M622.1,727h-6.79V714.82h6.79v1.25h-5.38V720h5v1.24h-5v4.47h5.38Z"/>
        <path class="cls-28" d="M636.05,720.87a7.3,7.3,0,0,1-.94,3.87,4.69,4.69,0,0,1-2.66,2.09l2.9,3h-2.06l-2.37-2.73h-.46a5.24,5.24,0,0,1-4.15-1.64,7.95,7.95,0,0,1,0-9.21,5.32,5.32,0,0,1,4.17-1.63,5.16,5.16,0,0,1,4.09,1.66A6.61,6.61,0,0,1,636.05,720.87Zm-9.71,0a5.74,5.74,0,0,0,1.06,3.73,4.31,4.31,0,0,0,6.12,0,5.83,5.83,0,0,0,1-3.74,5.77,5.77,0,0,0-1-3.72,3.69,3.69,0,0,0-3-1.26,3.76,3.76,0,0,0-3.08,1.27A5.72,5.72,0,0,0,626.34,720.87Z"/>
        <path class="cls-28" d="M648.65,714.82v7.85a4.26,4.26,0,0,1-1.26,3.26,4.84,4.84,0,0,1-3.46,1.18,4.63,4.63,0,0,1-3.4-1.19,4.4,4.4,0,0,1-1.21-3.29v-7.81h1.42v7.91a3.13,3.13,0,0,0,.83,2.33,3.34,3.34,0,0,0,2.45.82,3.29,3.29,0,0,0,2.38-.82,3.15,3.15,0,0,0,.83-2.34v-7.9Z"/>
        <path class="cls-28" d="M652.55,727V714.82H654V727Z"/>
        <path class="cls-28" d="M664.87,723.72a3,3,0,0,1-1.17,2.5,5.12,5.12,0,0,1-3.17.89,8,8,0,0,1-3.33-.55V725.2a8.86,8.86,0,0,0,1.63.49,8.15,8.15,0,0,0,1.75.19,3.53,3.53,0,0,0,2.14-.54,1.74,1.74,0,0,0,.71-1.49,1.89,1.89,0,0,0-.25-1,2.26,2.26,0,0,0-.85-.74,11,11,0,0,0-1.81-.77,5.81,5.81,0,0,1-2.43-1.44,3.12,3.12,0,0,1-.73-2.16,2.7,2.7,0,0,1,1.06-2.24,4.42,4.42,0,0,1,2.8-.83,8.34,8.34,0,0,1,3.34.67l-.44,1.23a7.63,7.63,0,0,0-2.94-.63,2.82,2.82,0,0,0-1.75.48,1.56,1.56,0,0,0-.64,1.33,2,2,0,0,0,.24,1,2.07,2.07,0,0,0,.78.74,10.09,10.09,0,0,0,1.7.75,6.67,6.67,0,0,1,2.64,1.46A2.85,2.85,0,0,1,664.87,723.72Z"/>
        <path class="cls-28" d="M668,727V714.82h1.42V727Z"/>
        <path class="cls-28" d="M677.23,727h-1.42V716.07H672v-1.25h9.13v1.25h-3.86Z"/>
        <path class="cls-28" d="M694.18,720.87a6.66,6.66,0,0,1-1.48,4.57,5.2,5.2,0,0,1-4.12,1.67,5.26,5.26,0,0,1-4.15-1.64,6.72,6.72,0,0,1-1.46-4.62,6.61,6.61,0,0,1,1.47-4.59,5.28,5.28,0,0,1,4.16-1.63,5.18,5.18,0,0,1,4.1,1.66A6.65,6.65,0,0,1,694.18,720.87Zm-9.71,0a5.74,5.74,0,0,0,1,3.73,4.31,4.31,0,0,0,6.12,0,7.24,7.24,0,0,0,0-7.46,3.71,3.71,0,0,0-3-1.26,3.77,3.77,0,0,0-3.08,1.27A5.72,5.72,0,0,0,684.47,720.87Z"/>
        <path class="cls-28" d="M600.73,748h-1.41V737.16h-3.86v-1.25h9.13v1.25h-3.86Z"/>
        <path class="cls-28" d="M613.9,748h-6.79V735.91h6.79v1.25h-5.38v3.91h5.05v1.24h-5.05v4.47h5.38Z"/>
        <path class="cls-28" d="M622.49,737a4,4,0,0,0-3.17,1.33,5.35,5.35,0,0,0-1.16,3.64,5.49,5.49,0,0,0,1.12,3.68,4,4,0,0,0,3.2,1.3,10.76,10.76,0,0,0,2.91-.46v1.24a9.17,9.17,0,0,1-3.13.47,5.3,5.3,0,0,1-4.15-1.62,6.67,6.67,0,0,1-1.46-4.62,7.28,7.28,0,0,1,.7-3.29,5.07,5.07,0,0,1,2-2.17,6.18,6.18,0,0,1,3.13-.77,7.62,7.62,0,0,1,3.35.7l-.6,1.21A6.47,6.47,0,0,0,622.49,737Z"/>
        <path class="cls-28" d="M638.24,748h-1.62L630,737.86h-.07c.09,1.19.13,2.29.13,3.28V748h-1.3V735.91h1.6L637,746.05H637c0-.15,0-.63-.07-1.44s-.05-1.39,0-1.74v-7h1.32Z"/>
        <path class="cls-28" d="M652.85,742a6.66,6.66,0,0,1-1.48,4.57,5.2,5.2,0,0,1-4.12,1.67,5.26,5.26,0,0,1-4.15-1.64,6.72,6.72,0,0,1-1.46-4.62,6.61,6.61,0,0,1,1.47-4.59,5.28,5.28,0,0,1,4.16-1.63,5.18,5.18,0,0,1,4.1,1.66A6.65,6.65,0,0,1,652.85,742Zm-9.71,0a5.74,5.74,0,0,0,1.05,3.73,4.31,4.31,0,0,0,6.12,0,7.24,7.24,0,0,0,0-7.46,3.71,3.71,0,0,0-3.05-1.26,3.77,3.77,0,0,0-3.08,1.27A5.72,5.72,0,0,0,643.14,742Z"/>
        <path class="cls-28" d="M656.24,748V735.91h1.42v10.85H663V748Z"/>
        <path class="cls-28" d="M676.36,742a6.66,6.66,0,0,1-1.48,4.57,5.2,5.2,0,0,1-4.12,1.67,5.26,5.26,0,0,1-4.15-1.64,6.72,6.72,0,0,1-1.46-4.62,6.61,6.61,0,0,1,1.47-4.59,5.28,5.28,0,0,1,4.16-1.63,5.18,5.18,0,0,1,4.1,1.66A6.65,6.65,0,0,1,676.36,742Zm-9.71,0a5.74,5.74,0,0,0,1.05,3.73,4.31,4.31,0,0,0,6.12,0,7.24,7.24,0,0,0,0-7.46,3.71,3.71,0,0,0-3.05-1.26,3.77,3.77,0,0,0-3.08,1.27A5.72,5.72,0,0,0,666.65,742Z"/>
        <path class="cls-28" d="M685.11,741.68h4.14v5.9a13.27,13.27,0,0,1-2,.46,14.48,14.48,0,0,1-2.32.16,5.62,5.62,0,0,1-4.31-1.64,6.42,6.42,0,0,1-1.54-4.59,6.88,6.88,0,0,1,.76-3.31,5.2,5.2,0,0,1,2.2-2.18,7.12,7.12,0,0,1,3.36-.75,9.12,9.12,0,0,1,3.63.72l-.55,1.24a8.23,8.23,0,0,0-3.18-.69,4.58,4.58,0,0,0-3.47,1.31,5.12,5.12,0,0,0-1.25,3.66,5.24,5.24,0,0,0,1.2,3.73,4.7,4.7,0,0,0,3.54,1.27,10.78,10.78,0,0,0,2.48-.29v-3.74h-2.73Z"/>
        <path class="cls-28" d="M692.86,748V735.91h1.42V748Z"/>
        <path class="cls-28" d="M706,748l-1.52-3.86h-4.88l-1.5,3.86h-1.44l4.82-12.18h1.19L707.42,748Zm-2-5.13-1.42-3.76c-.18-.47-.37-1.06-.57-1.75a14.41,14.41,0,0,1-.52,1.75l-1.43,3.76Z"/>
      </g>
      <g class="cls-27">
        <path class="cls-28" d="M511.43,583.35a3,3,0,0,1-1.17,2.5,5,5,0,0,1-3.16.9,8,8,0,0,1-3.34-.56v-1.36a9,9,0,0,0,3.39.68,3.6,3.6,0,0,0,2.13-.53,1.76,1.76,0,0,0,.72-1.49,1.93,1.93,0,0,0-.26-1,2.45,2.45,0,0,0-.85-.74,12,12,0,0,0-1.81-.77,5.83,5.83,0,0,1-2.43-1.43,3.17,3.17,0,0,1-.73-2.17,2.68,2.68,0,0,1,1.06-2.23,4.42,4.42,0,0,1,2.8-.83,8.33,8.33,0,0,1,3.34.66l-.44,1.23a7.59,7.59,0,0,0-2.93-.63A2.85,2.85,0,0,0,506,576a1.6,1.6,0,0,0-.64,1.34,2,2,0,0,0,.24,1,2.19,2.19,0,0,0,.79.74,9.68,9.68,0,0,0,1.69.74,6.67,6.67,0,0,1,2.64,1.46A2.85,2.85,0,0,1,511.43,583.35Z"/>
        <path class="cls-28" d="M514.6,586.58V574.45H516v12.13Z"/>
        <path class="cls-28" d="M525.43,586.58l-4.13-10.75h-.07c.08.85.12,1.86.12,3v7.71H520V574.45h2.13l3.86,10h.07l3.89-10h2.12v12.13h-1.42v-7.81c0-.9,0-1.87.12-2.92h-.07l-4.17,10.73Z"/>
        <path class="cls-28" d="M542.92,586.58h-6.79V574.45h6.79v1.26h-5.37v3.9h5v1.25h-5v4.46h5.37Z"/>
        <path class="cls-28" d="M554.41,586.58H552.8l-3.27-5.33-3.34,5.33h-1.5l4-6.34L545,574.45h1.56l3,4.81,3.05-4.81h1.51l-3.78,5.74Z"/>
        <path class="cls-28" d="M568.82,583.35a3,3,0,0,1-1.17,2.5,5,5,0,0,1-3.16.9,7.9,7.9,0,0,1-3.33-.56v-1.36a8.63,8.63,0,0,0,1.63.5,8.74,8.74,0,0,0,1.75.18,3.6,3.6,0,0,0,2.13-.53,1.76,1.76,0,0,0,.72-1.49,1.93,1.93,0,0,0-.26-1,2.45,2.45,0,0,0-.85-.74,11.54,11.54,0,0,0-1.81-.77,5.83,5.83,0,0,1-2.43-1.43,3.22,3.22,0,0,1-.73-2.17,2.7,2.7,0,0,1,1.06-2.23,4.44,4.44,0,0,1,2.8-.83,8.3,8.3,0,0,1,3.34.66l-.44,1.23a7.55,7.55,0,0,0-2.93-.63,2.85,2.85,0,0,0-1.76.48,1.59,1.59,0,0,0-.63,1.34,2,2,0,0,0,.23,1,2.28,2.28,0,0,0,.79.74,10,10,0,0,0,1.69.74,6.67,6.67,0,0,1,2.64,1.46A2.85,2.85,0,0,1,568.82,583.35Z"/>
        <path class="cls-28" d="M572,586.58V574.45h1.42v12.13Z"/>
        <path class="cls-28" d="M584.31,583.35a3,3,0,0,1-1.17,2.5,5.06,5.06,0,0,1-3.17.9,8,8,0,0,1-3.33-.56v-1.36a8.74,8.74,0,0,0,1.64.5,8.64,8.64,0,0,0,1.74.18,3.61,3.61,0,0,0,2.14-.53,1.76,1.76,0,0,0,.71-1.49,1.93,1.93,0,0,0-.25-1,2.45,2.45,0,0,0-.85-.74,12,12,0,0,0-1.81-.77,5.77,5.77,0,0,1-2.43-1.43,3.17,3.17,0,0,1-.73-2.17,2.68,2.68,0,0,1,1.06-2.23,4.42,4.42,0,0,1,2.8-.83,8.33,8.33,0,0,1,3.34.66l-.44,1.23a7.63,7.63,0,0,0-2.94-.63,2.82,2.82,0,0,0-1.75.48,1.58,1.58,0,0,0-.64,1.34,2,2,0,0,0,.24,1,2.15,2.15,0,0,0,.78.74,10.21,10.21,0,0,0,1.7.74,6.67,6.67,0,0,1,2.64,1.46A2.85,2.85,0,0,1,584.31,583.35Z"/>
        <path class="cls-28" d="M591.23,586.58h-1.42V575.71H586v-1.26h9.13v1.26h-3.86Z"/>
        <path class="cls-28" d="M604.39,586.58H597.6V574.45h6.79v1.26H599v3.9h5.05v1.25H599v4.46h5.37Z"/>
        <path class="cls-28" d="M613.17,586.58,609,575.83H609c.07.85.11,1.86.11,3v7.71h-1.3V574.45h2.13l3.86,10h.06l3.89-10h2.12v12.13h-1.42v-7.81c0-.9,0-1.87.12-2.92h-.07l-4.16,10.73Z"/>
        <path class="cls-28" d="M631.52,586.58,630,582.72h-4.88l-1.5,3.86h-1.43L627,574.4h1.2L633,586.58Zm-2-5.13-1.41-3.75a17.26,17.26,0,0,1-.57-1.75,15.15,15.15,0,0,1-.53,1.75l-1.43,3.75Z"/>
        <path class="cls-28" d="M642.22,583.35a3,3,0,0,1-1.17,2.5,5.06,5.06,0,0,1-3.17.9,8,8,0,0,1-3.33-.56v-1.36a8.89,8.89,0,0,0,3.38.68,3.61,3.61,0,0,0,2.14-.53,1.78,1.78,0,0,0,.71-1.49,1.93,1.93,0,0,0-.25-1,2.45,2.45,0,0,0-.85-.74,12,12,0,0,0-1.81-.77,5.7,5.7,0,0,1-2.43-1.43,3.17,3.17,0,0,1-.73-2.17,2.68,2.68,0,0,1,1.06-2.23,4.42,4.42,0,0,1,2.8-.83,8.33,8.33,0,0,1,3.34.66l-.44,1.23a7.63,7.63,0,0,0-2.94-.63,2.82,2.82,0,0,0-1.75.48,1.58,1.58,0,0,0-.64,1.34,2,2,0,0,0,.24,1,2.15,2.15,0,0,0,.78.74,10.21,10.21,0,0,0,1.7.74,6.67,6.67,0,0,1,2.64,1.46A2.85,2.85,0,0,1,642.22,583.35Z"/>
        <path class="cls-28" d="M527,601.49a6.08,6.08,0,0,1-1.64,4.59,6.48,6.48,0,0,1-4.71,1.59h-3.37V595.54H521a6,6,0,0,1,4.42,1.57A5.92,5.92,0,0,1,527,601.49Zm-1.5,0a4.88,4.88,0,0,0-1.19-3.57,4.8,4.8,0,0,0-3.56-1.21h-2.06v9.69h1.73a5.25,5.25,0,0,0,3.81-1.24A4.88,4.88,0,0,0,525.46,601.54Z"/>
        <path class="cls-28" d="M537.15,607.67h-6.79V595.54h6.79v1.26h-5.37v3.9h5.05V602h-5.05v4.46h5.37Z"/>
        <path class="cls-28" d="M545.65,607.67V595.54h1.41v12.13Z"/>
        <path class="cls-28" d="M560.6,607.67H559l-6.65-10.18h-.07c.09,1.2.13,2.29.13,3.29v6.89h-1.3V595.54h1.6l6.64,10.14h.06c0-.15,0-.63-.07-1.44s-.05-1.39,0-1.74v-7h1.32Z"/>
        <path class="cls-28" d="M571.51,604.44a3,3,0,0,1-1.17,2.5,5.06,5.06,0,0,1-3.17.9,8,8,0,0,1-3.33-.56v-1.36a8.89,8.89,0,0,0,3.38.68,3.61,3.61,0,0,0,2.14-.53,1.76,1.76,0,0,0,.71-1.49,1.93,1.93,0,0,0-.25-1,2.45,2.45,0,0,0-.85-.74,12,12,0,0,0-1.81-.77,5.77,5.77,0,0,1-2.43-1.43,3.17,3.17,0,0,1-.73-2.17,2.68,2.68,0,0,1,1.06-2.23,4.42,4.42,0,0,1,2.8-.83,8.33,8.33,0,0,1,3.34.66l-.44,1.23a7.63,7.63,0,0,0-2.94-.63,2.82,2.82,0,0,0-1.75.48,1.58,1.58,0,0,0-.64,1.34,2,2,0,0,0,.24,1,2.15,2.15,0,0,0,.78.74,10.21,10.21,0,0,0,1.7.74,6.67,6.67,0,0,1,2.64,1.46A2.85,2.85,0,0,1,571.51,604.44Z"/>
        <path class="cls-28" d="M582.4,599.08a3.38,3.38,0,0,1-1.26,2.83,5.73,5.73,0,0,1-3.61,1H576.1v4.77h-1.42V595.54h3.16Q582.4,595.54,582.4,599.08Zm-6.3,2.61h1.27a4.73,4.73,0,0,0,2.73-.61,2.22,2.22,0,0,0,.84-1.94,2.1,2.1,0,0,0-.79-1.79,4.18,4.18,0,0,0-2.47-.59H576.1Z"/>
        <path class="cls-28" d="M592.43,607.67h-6.79V595.54h6.79v1.26h-5.38v3.9h5.05V602h-5.05v4.46h5.38Z"/>
        <path class="cls-28" d="M601,596.63a4,4,0,0,0-3.17,1.33,5.38,5.38,0,0,0-1.16,3.65,5.47,5.47,0,0,0,1.12,3.68,4,4,0,0,0,3.2,1.29,11,11,0,0,0,2.9-.45v1.23a8.82,8.82,0,0,1-3.12.48,5.27,5.27,0,0,1-4.15-1.63,6.64,6.64,0,0,1-1.47-4.62,7.24,7.24,0,0,1,.71-3.28,5.1,5.1,0,0,1,2-2.18,6.18,6.18,0,0,1,3.13-.76,7.51,7.51,0,0,1,3.35.7l-.6,1.21A6.49,6.49,0,0,0,601,596.63Zm1,13.44a1.41,1.41,0,0,1-.64,1.24,3.26,3.26,0,0,1-1.89.44,4.11,4.11,0,0,1-.8-.07v-.88a5.57,5.57,0,0,0,.87.06,2.39,2.39,0,0,0,1-.16.63.63,0,0,0,.33-.61.67.67,0,0,0-.33-.58,3.23,3.23,0,0,0-1.23-.36l.73-1.48H601l-.46,1Q602.05,608.95,602.05,610.07Z"/>
        <path class="cls-28" d="M614.91,607.67l-1.52-3.86h-4.88l-1.5,3.86h-1.43l4.82-12.18h1.19l4.79,12.18Zm-2.73-13.11a1.59,1.59,0,0,1-.7-.16,6,6,0,0,1-.67-.34c-.22-.12-.43-.24-.64-.34a1.28,1.28,0,0,0-.58-.15.77.77,0,0,0-.63.25,1.75,1.75,0,0,0-.33.75h-.82a2.84,2.84,0,0,1,.59-1.57,1.54,1.54,0,0,1,1.24-.57,1.76,1.76,0,0,1,.74.16,4.79,4.79,0,0,1,.68.34l.63.34a1.27,1.27,0,0,0,.56.15.71.71,0,0,0,.61-.25,2,2,0,0,0,.33-.75H614a2.86,2.86,0,0,1-.58,1.57A1.53,1.53,0,0,1,612.18,594.56Zm.77,8-1.41-3.75A17.26,17.26,0,0,1,611,597a17.18,17.18,0,0,1-.52,1.75L609,602.54Z"/>
        <path class="cls-28" d="M629.31,601.59a6.69,6.69,0,0,1-1.48,4.58,5.23,5.23,0,0,1-4.11,1.67,5.3,5.3,0,0,1-4.16-1.64,6.75,6.75,0,0,1-1.46-4.63,6.63,6.63,0,0,1,1.47-4.59,5.33,5.33,0,0,1,4.16-1.63,5.22,5.22,0,0,1,4.1,1.66A6.62,6.62,0,0,1,629.31,601.59Zm-9.71,0a5.71,5.71,0,0,0,1.06,3.74,3.73,3.73,0,0,0,3.06,1.27,3.67,3.67,0,0,0,3-1.27,7.22,7.22,0,0,0,0-7.45,3.69,3.69,0,0,0-3-1.27,3.75,3.75,0,0,0-3.07,1.28A5.63,5.63,0,0,0,619.6,601.59Z"/>
        <path class="cls-28" d="M549.64,628.76,545.51,618h-.07c.08.85.12,1.86.12,3v7.71h-1.31V616.63h2.13l3.86,10h.07l3.89-10h2.12v12.13H554.9V621c0-.9,0-1.87.12-2.92H555l-4.17,10.73Z"/>
        <path class="cls-28" d="M570.91,622.68a6.64,6.64,0,0,1-1.48,4.58,5.2,5.2,0,0,1-4.11,1.67,5.28,5.28,0,0,1-4.15-1.64,6.7,6.7,0,0,1-1.46-4.63,6.62,6.62,0,0,1,1.46-4.59,5.32,5.32,0,0,1,4.17-1.63,5.2,5.2,0,0,1,4.1,1.66A6.67,6.67,0,0,1,570.91,622.68Zm-9.7,0a5.77,5.77,0,0,0,1,3.74,4.32,4.32,0,0,0,6.12,0,5.81,5.81,0,0,0,1-3.74,5.74,5.74,0,0,0-1-3.71,3.67,3.67,0,0,0-3-1.27,3.77,3.77,0,0,0-3.08,1.28A5.67,5.67,0,0,0,561.21,622.68Zm2.95-7.23c.26-.34.55-.75.86-1.24s.55-.91.73-1.27h1.68v.17a12.73,12.73,0,0,1-1.09,1.33,13.5,13.5,0,0,1-1.26,1.22h-.92Z"/>
        <path class="cls-28" d="M581.27,616.63h1.52l-4.39,12.13H577l-4.36-12.13h1.5l2.8,7.85a22.51,22.51,0,0,1,.76,2.63,22,22,0,0,1,.78-2.68Z"/>
        <path class="cls-28" d="M591.94,628.76h-6.79V616.63h6.79v1.25h-5.37v3.91h5V623h-5v4.46h5.37Z"/>
        <path class="cls-28" d="M595.32,628.76V616.63h1.42v12.13Z"/>
        <path class="cls-28" d="M607.63,625.53a3,3,0,0,1-1.16,2.5,5.06,5.06,0,0,1-3.17.9,8,8,0,0,1-3.33-.56V627a8.63,8.63,0,0,0,1.63.5,8.74,8.74,0,0,0,1.75.18,3.53,3.53,0,0,0,2.14-.54,1.75,1.75,0,0,0,.71-1.48,1.93,1.93,0,0,0-.25-1,2.44,2.44,0,0,0-.85-.74,12,12,0,0,0-1.81-.77,5.61,5.61,0,0,1-2.43-1.44,3.12,3.12,0,0,1-.73-2.16,2.66,2.66,0,0,1,1.06-2.23,4.34,4.34,0,0,1,2.8-.83,8.33,8.33,0,0,1,3.34.66l-.45,1.23a7.55,7.55,0,0,0-2.93-.63,2.87,2.87,0,0,0-1.76.48,1.59,1.59,0,0,0-.63,1.34,2.09,2.09,0,0,0,.23,1,2.28,2.28,0,0,0,.79.74,10.21,10.21,0,0,0,1.7.74,6.69,6.69,0,0,1,2.63,1.46A2.85,2.85,0,0,1,607.63,625.53Z"/>
      </g>
      <g class="cls-27">
        <path class="cls-28" d="M1035.61,586.58H1034l-6.66-10.18h-.07c.09,1.2.14,2.29.14,3.29v6.89h-1.31V574.45h1.6l6.64,10.14h.07c0-.15,0-.63-.08-1.44s0-1.39,0-1.74v-7h1.32Z"/>
        <path class="cls-28" d="M1047.3,586.58l-1.52-3.86h-4.88l-1.5,3.86H1038l4.82-12.18H1044l4.79,12.18Zm-2.73-13.11a1.59,1.59,0,0,1-.7-.16,6,6,0,0,1-.67-.34c-.22-.12-.43-.24-.64-.34a1.28,1.28,0,0,0-.58-.15.77.77,0,0,0-.63.25,1.81,1.81,0,0,0-.33.75h-.82a2.91,2.91,0,0,1,.59-1.57,1.54,1.54,0,0,1,1.24-.57,1.76,1.76,0,0,1,.74.16,4.79,4.79,0,0,1,.68.34l.63.34a1.27,1.27,0,0,0,.56.15.71.71,0,0,0,.61-.25,2,2,0,0,0,.33-.75h.82a2.86,2.86,0,0,1-.58,1.57A1.53,1.53,0,0,1,1044.57,573.47Zm.77,8-1.41-3.75a17.26,17.26,0,0,1-.57-1.75,17.18,17.18,0,0,1-.52,1.75l-1.44,3.75Z"/>
        <path class="cls-28" d="M1061.7,580.5a6.69,6.69,0,0,1-1.48,4.58,5.23,5.23,0,0,1-4.11,1.67,5.3,5.3,0,0,1-4.16-1.64,6.73,6.73,0,0,1-1.46-4.63,6.63,6.63,0,0,1,1.47-4.59,5.33,5.33,0,0,1,4.16-1.63,5.22,5.22,0,0,1,4.1,1.66A6.62,6.62,0,0,1,1061.7,580.5Zm-9.71,0a5.71,5.71,0,0,0,1.06,3.74,3.73,3.73,0,0,0,3.06,1.27,3.67,3.67,0,0,0,3.05-1.27,7.22,7.22,0,0,0,0-7.45,3.69,3.69,0,0,0-3.05-1.27,3.75,3.75,0,0,0-3.07,1.28A5.63,5.63,0,0,0,1052,580.5Z"/>
        <path class="cls-28" d="M994.2,607.67V595.54h1.41v10.85H1001v1.28Z"/>
        <path class="cls-28" d="M1014.31,601.59a6.69,6.69,0,0,1-1.48,4.58,5.23,5.23,0,0,1-4.11,1.67,5.3,5.3,0,0,1-4.16-1.64,6.75,6.75,0,0,1-1.46-4.63,6.63,6.63,0,0,1,1.47-4.59,5.31,5.31,0,0,1,4.16-1.63,5.22,5.22,0,0,1,4.1,1.66A6.62,6.62,0,0,1,1014.31,601.59Zm-9.71,0a5.77,5.77,0,0,0,1,3.74,3.77,3.77,0,0,0,3.07,1.27,3.67,3.67,0,0,0,3-1.27,7.22,7.22,0,0,0,0-7.45,3.69,3.69,0,0,0-3-1.27,3.78,3.78,0,0,0-3.08,1.28A5.69,5.69,0,0,0,1004.6,601.59Z"/>
        <path class="cls-28" d="M1022.92,596.63a4,4,0,0,0-3.17,1.33,5.38,5.38,0,0,0-1.16,3.65,5.47,5.47,0,0,0,1.12,3.68,4,4,0,0,0,3.19,1.29,11.12,11.12,0,0,0,2.91-.45v1.23a8.82,8.82,0,0,1-3.12.48,5.29,5.29,0,0,1-4.16-1.63,6.69,6.69,0,0,1-1.46-4.62,7.24,7.24,0,0,1,.71-3.28,5,5,0,0,1,2-2.18,6.15,6.15,0,0,1,3.13-.76,7.54,7.54,0,0,1,3.35.7l-.6,1.21A6.55,6.55,0,0,0,1022.92,596.63Z"/>
        <path class="cls-28" d="M1036.81,607.67l-1.52-3.86h-4.88l-1.5,3.86h-1.43l4.81-12.18h1.19l4.8,12.18Zm-2-5.13-1.42-3.75c-.18-.48-.37-1.06-.56-1.75a15.15,15.15,0,0,1-.53,1.75l-1.43,3.75Z"/>
        <path class="cls-28" d="M1040.63,607.67V595.54h1.42v10.85h5.37v1.28Z"/>
        <path class="cls-28" d="M1050.17,607.67V595.54h1.42v12.13Z"/>
        <path class="cls-28" d="M1063,607.67h-8.37v-1.1l6.46-9.76h-6.26v-1.27h8v1.11l-6.47,9.74H1063Z"/>
        <path class="cls-28" d="M1073.69,607.67l-1.52-3.86h-4.88l-1.5,3.86h-1.43l4.81-12.18h1.2l4.79,12.18Zm-2-5.13-1.41-3.75a17.26,17.26,0,0,1-.57-1.75,15.15,15.15,0,0,1-.53,1.75l-1.43,3.75Z"/>
        <path class="cls-28" d="M1087.24,601.49a6.12,6.12,0,0,1-1.64,4.59,6.48,6.48,0,0,1-4.71,1.59h-3.38V595.54h3.74a6,6,0,0,1,4.41,1.57A5.92,5.92,0,0,1,1087.24,601.49Zm-1.5,0a4.84,4.84,0,0,0-1.2-3.57,4.77,4.77,0,0,0-3.55-1.21h-2.06v9.69h1.72a5.25,5.25,0,0,0,3.81-1.24A4.89,4.89,0,0,0,1085.74,601.54Z"/>
        <path class="cls-28" d="M1098.29,607.67l-1.51-3.86h-4.89l-1.5,3.86H1089l4.82-12.18H1095l4.79,12.18Zm-2-5.13-1.41-3.75c-.19-.48-.37-1.06-.57-1.75a17.18,17.18,0,0,1-.52,1.75l-1.44,3.75Z"/>
      </g>
      <g class="cls-27">
        <text class="cls-29" transform="translate(1073.86 736.44)" style="white-space: pre;">TRUE WORK</text>
      </g>
      <g class="cls-27">
        <path class="cls-30" d="M1139.28,993l-4.13-10.75h-.07c.08.85.12,1.86.12,3V993h-1.31V980.82H1136l3.86,10h.07l3.89-10H1146V993h-1.41v-7.81c0-.9,0-1.87.11-2.92h-.06L1140.42,993Z"/>
        <path class="cls-30" d="M1150,993V980.82h1.41V993Z"/>
        <path class="cls-30" d="M1164.93,993h-1.61l-6.66-10.18h-.07c.09,1.2.14,2.29.14,3.29V993h-1.31V980.82h1.6l6.64,10.14h.06c0-.15,0-.63-.07-1.44s-.05-1.39,0-1.74v-7h1.32Z"/>
        <path class="cls-30" d="M1169,993V980.82h1.42V993Z"/>
        <path class="cls-30" d="M1181.28,989.72a3,3,0,0,1-1.17,2.5,5.06,5.06,0,0,1-3.17.9,8,8,0,0,1-3.33-.56V991.2a8.89,8.89,0,0,0,3.38.68,3.61,3.61,0,0,0,2.14-.53,1.76,1.76,0,0,0,.71-1.49,1.93,1.93,0,0,0-.25-1,2.45,2.45,0,0,0-.85-.74,12,12,0,0,0-1.81-.77,5.67,5.67,0,0,1-2.43-1.44,3.12,3.12,0,0,1-.73-2.16,2.66,2.66,0,0,1,1.06-2.23,4.42,4.42,0,0,1,2.8-.83,8.33,8.33,0,0,1,3.34.66l-.44,1.23a7.63,7.63,0,0,0-2.94-.63,2.82,2.82,0,0,0-1.75.48,1.58,1.58,0,0,0-.64,1.34,2,2,0,0,0,.24,1,2.15,2.15,0,0,0,.78.74,10.21,10.21,0,0,0,1.7.74,6.67,6.67,0,0,1,2.64,1.46A2.85,2.85,0,0,1,1181.28,989.72Z"/>
        <path class="cls-30" d="M1188.2,993h-1.42V982.07h-3.85v-1.25h9.13v1.25h-3.86Z"/>
        <path class="cls-30" d="M1201.36,993h-6.79V980.82h6.79v1.25H1196V986h5v1.25h-5v4.46h5.37Zm-4.66-13.31c.26-.34.55-.75.86-1.24s.55-.91.73-1.27H1200v.18a12.53,12.53,0,0,1-1.09,1.32,11.41,11.41,0,0,1-1.26,1.22h-.92Z"/>
        <path class="cls-30" d="M1206.16,987.91v5h-1.42V980.82h3.35a5.28,5.28,0,0,1,3.31.86,3.09,3.09,0,0,1,1.07,2.57,3.22,3.22,0,0,1-2.45,3.25l3.31,5.45h-1.68l-3-5Zm0-1.21h1.94a3.32,3.32,0,0,0,2.2-.6,2.19,2.19,0,0,0,.7-1.78,2,2,0,0,0-.71-1.73,3.92,3.92,0,0,0-2.29-.53h-1.84Z"/>
        <path class="cls-30" d="M1216,993V980.82h1.41V993Z"/>
        <path class="cls-30" d="M1232,986.87a6.69,6.69,0,0,1-1.48,4.58,5.23,5.23,0,0,1-4.11,1.67,5.3,5.3,0,0,1-4.16-1.64,6.75,6.75,0,0,1-1.46-4.63,6.63,6.63,0,0,1,1.47-4.59,5.33,5.33,0,0,1,4.16-1.63,5.22,5.22,0,0,1,4.1,1.66A6.62,6.62,0,0,1,1232,986.87Zm-9.71,0a5.71,5.71,0,0,0,1.06,3.74,3.73,3.73,0,0,0,3.06,1.27,3.67,3.67,0,0,0,3-1.27,7.22,7.22,0,0,0,0-7.45,3.69,3.69,0,0,0-3-1.27,3.75,3.75,0,0,0-3.07,1.28A5.63,5.63,0,0,0,1222.28,986.87Z"/>
        <path class="cls-30" d="M1153.1,1007.86a6.12,6.12,0,0,1-1.64,4.59,6.48,6.48,0,0,1-4.71,1.59h-3.38v-12.13h3.74a6,6,0,0,1,4.41,1.57A5.92,5.92,0,0,1,1153.1,1007.86Zm-1.5,0a4.89,4.89,0,0,0-1.2-3.58,4.81,4.81,0,0,0-3.55-1.2h-2.06v9.69h1.72a5.25,5.25,0,0,0,3.81-1.24A4.9,4.9,0,0,0,1151.6,1007.91Z"/>
        <path class="cls-30" d="M1164.15,1014l-1.51-3.86h-4.89l-1.5,3.86h-1.43l4.82-12.18h1.19l4.79,12.18Zm-2-5.13-1.41-3.75c-.19-.48-.37-1.06-.57-1.75a17.18,17.18,0,0,1-.52,1.75l-1.44,3.75Z"/>
        <path class="cls-30" d="M1180,1010.81a3,3,0,0,1-1.16,2.5,5.06,5.06,0,0,1-3.17.9,8,8,0,0,1-3.33-.56v-1.36a8.63,8.63,0,0,0,1.63.5,8.74,8.74,0,0,0,1.75.18,3.55,3.55,0,0,0,2.13-.53,1.76,1.76,0,0,0,.72-1.49,1.93,1.93,0,0,0-.25-1,2.54,2.54,0,0,0-.85-.74,12,12,0,0,0-1.81-.77,5.61,5.61,0,0,1-2.43-1.44,3.12,3.12,0,0,1-.73-2.16,2.66,2.66,0,0,1,1.06-2.23,4.4,4.4,0,0,1,2.8-.83,8.33,8.33,0,0,1,3.34.66l-.45,1.23a7.55,7.55,0,0,0-2.93-.63,2.87,2.87,0,0,0-1.76.48,1.59,1.59,0,0,0-.63,1.34,2.09,2.09,0,0,0,.23,1,2.28,2.28,0,0,0,.79.74,10.21,10.21,0,0,0,1.7.74,6.69,6.69,0,0,1,2.63,1.46A2.85,2.85,0,0,1,1180,1010.81Z"/>
        <path class="cls-30" d="M1190.79,1014l-1.51-3.86h-4.88l-1.5,3.86h-1.44l4.82-12.18h1.19l4.79,12.18Zm-2-5.13-1.42-3.75c-.18-.48-.37-1.06-.57-1.75a15,15,0,0,1-.52,1.75l-1.43,3.75Z"/>
        <path class="cls-30" d="M1203.82,1001.91v7.85a4.26,4.26,0,0,1-1.26,3.26,4.85,4.85,0,0,1-3.46,1.19,4.59,4.59,0,0,1-3.4-1.2,4.38,4.38,0,0,1-1.21-3.28v-7.82h1.42v7.92a3.13,3.13,0,0,0,.83,2.33,3.38,3.38,0,0,0,2.45.81,3.25,3.25,0,0,0,2.38-.82,3.14,3.14,0,0,0,.83-2.34v-7.9Zm-5.88-1.18a17.56,17.56,0,0,0,1.59-2.51h1.69v.18a13.94,13.94,0,0,1-1.09,1.32,13.5,13.5,0,0,1-1.26,1.22h-.93Z"/>
        <path class="cls-30" d="M1217.45,1007.86a6.12,6.12,0,0,1-1.64,4.59,6.48,6.48,0,0,1-4.71,1.59h-3.38v-12.13h3.74a6,6,0,0,1,4.41,1.57A5.92,5.92,0,0,1,1217.45,1007.86Zm-1.5,0a4.89,4.89,0,0,0-1.2-3.58,4.81,4.81,0,0,0-3.55-1.2h-2.06v9.69h1.72a5.25,5.25,0,0,0,3.81-1.24A4.9,4.9,0,0,0,1216,1007.91Z"/>
        <path class="cls-30" d="M1227.63,1014h-6.79v-12.13h6.79v1.25h-5.37v3.91h5v1.25h-5v4.46h5.37Z"/>
      </g>
      <g class="cls-27">
        <path class="cls-30" d="M1310.79,981.13h4.14V987a13.11,13.11,0,0,1-2,.46,14.26,14.26,0,0,1-2.31.16,5.64,5.64,0,0,1-4.31-1.64,6.42,6.42,0,0,1-1.54-4.59,6.92,6.92,0,0,1,.76-3.32,5.18,5.18,0,0,1,2.2-2.17,7.1,7.1,0,0,1,3.35-.75,9.34,9.34,0,0,1,3.64.71l-.55,1.25a8.07,8.07,0,0,0-3.18-.7,4.54,4.54,0,0,0-3.47,1.32,5.12,5.12,0,0,0-1.25,3.66,5.2,5.2,0,0,0,1.2,3.72,4.65,4.65,0,0,0,3.54,1.27,10.7,10.7,0,0,0,2.47-.29v-3.73h-2.72Z"/>
        <path class="cls-30" d="M1329.11,981.4a6.64,6.64,0,0,1-1.48,4.58,5.2,5.2,0,0,1-4.11,1.67,5.28,5.28,0,0,1-4.15-1.64,8,8,0,0,1,0-9.22,5.35,5.35,0,0,1,4.17-1.63,5.23,5.23,0,0,1,4.1,1.66A6.67,6.67,0,0,1,1329.11,981.4Zm-9.71,0a5.77,5.77,0,0,0,1.06,3.74,4.32,4.32,0,0,0,6.12,0,7.25,7.25,0,0,0,0-7.45,3.69,3.69,0,0,0-3-1.27,3.77,3.77,0,0,0-3.08,1.28A5.69,5.69,0,0,0,1319.4,981.4Z"/>
        <path class="cls-30" d="M1343.08,981.4a6.64,6.64,0,0,1-1.48,4.58,5.2,5.2,0,0,1-4.11,1.67,5.28,5.28,0,0,1-4.15-1.64,8,8,0,0,1,0-9.22,5.35,5.35,0,0,1,4.17-1.63,5.23,5.23,0,0,1,4.1,1.66A6.67,6.67,0,0,1,1343.08,981.4Zm-9.7,0a5.77,5.77,0,0,0,1,3.74,4.32,4.32,0,0,0,6.12,0,7.25,7.25,0,0,0,0-7.45,3.69,3.69,0,0,0-3-1.27,3.77,3.77,0,0,0-3.08,1.28A5.69,5.69,0,0,0,1333.38,981.4Z"/>
        <path class="cls-30" d="M1351.84,981.13H1356V987a13.4,13.4,0,0,1-2,.46,14.35,14.35,0,0,1-2.31.16,5.64,5.64,0,0,1-4.31-1.64,6.42,6.42,0,0,1-1.54-4.59,6.92,6.92,0,0,1,.76-3.32,5.21,5.21,0,0,1,2.19-2.17,7.17,7.17,0,0,1,3.36-.75,9.29,9.29,0,0,1,3.63.71l-.55,1.25a8,8,0,0,0-3.17-.7,4.54,4.54,0,0,0-3.47,1.32,5.08,5.08,0,0,0-1.25,3.66,5.2,5.2,0,0,0,1.2,3.72,4.63,4.63,0,0,0,3.54,1.27,10.7,10.7,0,0,0,2.47-.29v-3.73h-2.72Z"/>
        <path class="cls-30" d="M1359.59,987.48V975.35H1361V986.2h5.38v1.28Z"/>
        <path class="cls-30" d="M1375.91,987.48h-6.79V975.35h6.79v1.26h-5.37v3.9h5v1.25h-5v4.46h5.37Z"/>
        <path class="cls-30" d="M1380.54,985.51l.12.19c-.14.55-.35,1.19-.62,1.93s-.56,1.41-.85,2h-1c.15-.57.31-1.28.49-2.13s.31-1.52.38-2Zm-1.69-6.23c0-.75.33-1.12,1-1.12s1,.37,1,1.12a1.18,1.18,0,0,1-.27.83,1,1,0,0,1-.75.29,1,1,0,0,1-.74-.29A1.23,1.23,0,0,1,1378.85,979.28Z"/>
        <path class="cls-30" d="M1328.64,1008.57l-1.52-3.86h-4.88l-1.5,3.86h-1.43l4.81-12.18h1.2l4.79,12.18Zm-2-5.13-1.41-3.75a17.26,17.26,0,0,1-.57-1.75,15.15,15.15,0,0,1-.53,1.75l-1.43,3.75Z"/>
        <path class="cls-30" d="M1340.19,1000a3.36,3.36,0,0,1-1.27,2.83,5.73,5.73,0,0,1-3.61,1h-1.43v4.77h-1.42V996.44h3.16C1338.66,996.44,1340.19,997.62,1340.19,1000Zm-6.31,2.61h1.27a4.71,4.71,0,0,0,2.73-.61,2.22,2.22,0,0,0,.84-1.94,2.09,2.09,0,0,0-.79-1.79,4.18,4.18,0,0,0-2.47-.59h-1.58Z"/>
        <path class="cls-30" d="M1351.14,1000a3.38,3.38,0,0,1-1.26,2.83,5.75,5.75,0,0,1-3.61,1h-1.44v4.77h-1.41V996.44h3.16Q1351.14,996.44,1351.14,1000Zm-6.31,2.61h1.28a4.69,4.69,0,0,0,2.72-.61,2.23,2.23,0,0,0,.85-1.94,2.1,2.1,0,0,0-.8-1.79,4.14,4.14,0,0,0-2.46-.59h-1.59Z"/>
        <path class="cls-30" d="M1354.37,1008.57V996.44h1.42v10.85h5.37v1.28Z"/>
        <path class="cls-30" d="M1370.7,1008.57h-6.79V996.44h6.79v1.26h-5.37v3.9h5.05v1.25h-5.05v4.46h5.37Z"/>
      </g>
      <g class="cls-27">
        <text class="cls-29" transform="translate(1198.01 396.35)" style="white-space: pre;">UFAL</text>
      </g>
      <g class="cls-27">
        <text class="cls-29" transform="translate(1332.87 398.35)" style="white-space: pre;">VIASOLUTI</text>
      </g>
      <g class="cls-27">
        <text class="cls-31" transform="translate(1038.02 287.09)" style="white-space: pre;">EMBRATEL</text>
      </g>
      <g class="cls-27">
        <text class="cls-31" transform="translate(997.65 1074.35)" style="white-space: pre;">SERPRO</text>
      </g>
      <g class="cls-27">
        <text class="cls-32" transform="translate(874.92 231.91)" style="white-space: pre;">MITO GAMES</text>
      </g>
      <g class="cls-27">
        <text class="cls-33" transform="translate(820.04 1118.58)" style="white-space: pre;">PETROBRAS</text>
      </g>
      <g class="cls-27">
        <path class="cls-28" d="M757.17,217.1h-1.61l-6.66-10.17h-.07c.09,1.19.14,2.29.14,3.28v6.89h-1.31V205h1.6l6.64,10.13H756c0-.15,0-.63-.08-1.44s0-1.38,0-1.73v-7h1.32Z"/>
        <path class="cls-28" d="M768.86,217.1l-1.52-3.85h-4.88L761,217.1h-1.43l4.82-12.17h1.19l4.79,12.17ZM766.13,204a1.73,1.73,0,0,1-.7-.15l-.67-.34c-.22-.13-.43-.24-.64-.34a1.18,1.18,0,0,0-.58-.16.8.8,0,0,0-.63.25,1.86,1.86,0,0,0-.33.76h-.82a3,3,0,0,1,.59-1.58,1.56,1.56,0,0,1,1.24-.56,1.92,1.92,0,0,1,.74.15,4.79,4.79,0,0,1,.68.34l.63.34a1.27,1.27,0,0,0,.56.15.74.74,0,0,0,.61-.24,2,2,0,0,0,.33-.76H768a2.83,2.83,0,0,1-.58,1.57A1.53,1.53,0,0,1,766.13,204Zm.77,8-1.41-3.76a17.26,17.26,0,0,1-.57-1.75,17.18,17.18,0,0,1-.52,1.75L763,212Z"/>
        <path class="cls-28" d="M783.26,211a6.67,6.67,0,0,1-1.48,4.58,5.19,5.19,0,0,1-4.11,1.67,5.27,5.27,0,0,1-4.16-1.64,6.72,6.72,0,0,1-1.46-4.62,6.59,6.59,0,0,1,1.47-4.59,5.29,5.29,0,0,1,4.16-1.63,5.21,5.21,0,0,1,4.1,1.65A6.64,6.64,0,0,1,783.26,211Zm-9.71,0a5.69,5.69,0,0,0,1.06,3.74,4.32,4.32,0,0,0,6.11,0,5.84,5.84,0,0,0,1-3.75,5.76,5.76,0,0,0-1-3.71,4.33,4.33,0,0,0-6.12,0A5.63,5.63,0,0,0,773.55,211Z"/>
        <path class="cls-28" d="M715.76,238.19V226.07h1.41v10.85h5.38v1.27Z"/>
        <path class="cls-28" d="M735.87,232.11a6.67,6.67,0,0,1-1.48,4.58,5.19,5.19,0,0,1-4.11,1.67,5.3,5.3,0,0,1-4.16-1.64,6.72,6.72,0,0,1-1.46-4.62,6.59,6.59,0,0,1,1.47-4.59,5.28,5.28,0,0,1,4.16-1.63,5.21,5.21,0,0,1,4.1,1.65A6.64,6.64,0,0,1,735.87,232.11Zm-9.71,0a5.75,5.75,0,0,0,1.05,3.74,3.77,3.77,0,0,0,3.07,1.27,3.67,3.67,0,0,0,3.05-1.27,7.22,7.22,0,0,0,0-7.45,3.71,3.71,0,0,0-3.05-1.26,3.77,3.77,0,0,0-3.08,1.27A5.69,5.69,0,0,0,726.16,232.11Z"/>
        <path class="cls-28" d="M744.48,227.15a4,4,0,0,0-3.17,1.33,6.46,6.46,0,0,0,0,7.33,4,4,0,0,0,3.19,1.3,10.76,10.76,0,0,0,2.91-.46v1.24a9.07,9.07,0,0,1-3.12.47,5.29,5.29,0,0,1-4.16-1.63,6.69,6.69,0,0,1-1.46-4.62,7.24,7.24,0,0,1,.71-3.28,5,5,0,0,1,2-2.17,6.15,6.15,0,0,1,3.13-.77,7.54,7.54,0,0,1,3.35.7l-.6,1.21A6.55,6.55,0,0,0,744.48,227.15Z"/>
        <path class="cls-28" d="M758.37,238.19l-1.52-3.85H752l-1.5,3.85H749L753.85,226H755l4.8,12.17Zm-2-5.12L755,229.31c-.18-.48-.37-1.06-.56-1.75a15.15,15.15,0,0,1-.53,1.75l-1.43,3.76Z"/>
        <path class="cls-28" d="M762.19,238.19V226.07h1.42v10.85H769v1.27Z"/>
        <path class="cls-28" d="M771.73,238.19V226.07h1.42v12.12Z"/>
        <path class="cls-28" d="M784.55,238.19h-8.37v-1.1l6.46-9.75h-6.26v-1.27h8v1.1l-6.47,9.75h6.65Z"/>
        <path class="cls-28" d="M795.25,238.19l-1.52-3.85h-4.88l-1.5,3.85h-1.43L790.73,226h1.2l4.79,12.17Zm-2-5.12-1.41-3.76a17.26,17.26,0,0,1-.57-1.75,15.15,15.15,0,0,1-.53,1.75l-1.43,3.76Z"/>
        <path class="cls-28" d="M808.8,232a6.12,6.12,0,0,1-1.64,4.6,6.48,6.48,0,0,1-4.71,1.58h-3.38V226.07h3.74a6,6,0,0,1,4.41,1.56A5.92,5.92,0,0,1,808.8,232Zm-1.5.05a4.23,4.23,0,0,0-4.75-4.77h-2.06V237h1.72a5.25,5.25,0,0,0,3.81-1.25A4.87,4.87,0,0,0,807.3,232.06Z"/>
        <path class="cls-28" d="M819.85,238.19l-1.51-3.85h-4.89l-1.5,3.85h-1.43L815.34,226h1.19l4.79,12.17Zm-2-5.12-1.41-3.76c-.19-.48-.37-1.06-.57-1.75a17.18,17.18,0,0,1-.52,1.75L814,233.07Z"/>
      </g>
    </g>
    <g id="Identificação_de_pessoas" data-name="Identificação de pessoas">
      <path id="p_911.289146648868" data-name="p 911.289146648868" class="cls-5" d="M1389.43,854.8a158.28,158.28,0,1,1,158.28-158.28A158.28,158.28,0,0,1,1389.43,854.8Z"/>
    </g>
    <g id="Serpro-2" data-name="Serpro">
      <path id="p_909.3813496482926" data-name="p 909.3813496482926" class="cls-16" d="M1389.27,850.19a153.67,153.67,0,1,1,153.66-153.67A153.67,153.67,0,0,1,1389.27,850.19Z"/>
    </g>
    <g class="cls-27">
      <text class="cls-34" transform="translate(1355.45 701.85)" style="white-space: pre;">SERPRO</text>
    </g>
    <text class="cls-2" transform="translate(464.49 95.95)" style="white-space: pre;">MAPEAMENTO DA EVOLUÇÃO <tspan x="0" y="23.77">DA COVID 19</tspan></text>
    <line class="cls-25" x1="629.51" y1="1130.61" x2="793.62" y2="1093.93"/>
    <line class="cls-26" x1="445.54" y1="150.4" x2="687.59" y2="231.91"/>
    <line class="cls-22" x1="1210.25" y1="179.96" x2="1142.92" y2="226.39"/>
  </g>
</svg>