<svg xmlns="http://www.w3.org/2000/svg" viewBox="0 0 1920 907.92"><defs><style>.cls-1{fill:#03051f;}.cls-11,.cls-2,.cls-8{fill:none;stroke-miterlimit:10;}.cls-11,.cls-2{stroke:#fff;}.cls-2{stroke-width:0.68px;}.cls-3{font-size:18.67px;}.cls-3,.cls-9{fill:#fff;font-family:OpenSans, Open Sans;}.cls-4,.cls-5{font-size:27.35px;font-family:OpenSans-Bold, Open Sans;font-weight:700;text-decoration:underline;}.cls-4,.cls-6{fill:#2255ed;}.cls-5,.cls-7{fill:#87e089;}.cls-8{stroke:#87e089;stroke-width:1.2px;}.cls-9{font-size:18px;letter-spacing:0.04em;}.cls-10{fill:#2263ff;}.cls-11{stroke-width:0.85px;}</style></defs><g id="Layer_2" data-name="Layer 2"><rect class="cls-1" width="1921.58" height="916.41"/><line class="cls-2" x1="361.2" x2="361.2" y2="916.41"/><text class="cls-3" transform="translate(694.52 765.95)">RESPONDIDO</text><text class="cls-4" transform="translate(667.56 316.53)">130</text><text class="cls-5" transform="translate(675.96 173.97)">41</text><rect class="cls-6" x="721.32" y="293.16" width="69.88" height="437.28"/><rect class="cls-7" x="721.32" y="155.25" width="69.88" height="137.91"/><rect class="cls-6" x="1116.99" y="679.99" width="69.88" height="50.46"/><rect class="cls-7" x="1116.99" y="629.53" width="69.88" height="50.46"/><text class="cls-3" transform="translate(1102.8 765.38)">RESPOSTA <tspan x="-25.83" y="22.4">INSATISFATÓRIA</tspan></text><text class="cls-4" transform="translate(1083.96 707.62)">15</text><text class="cls-5" transform="translate(1083.96 625.08)">15</text><rect class="cls-6" x="907.47" y="616.08" width="69.88" height="114.37"/><rect class="cls-7" x="907.47" y="605.99" width="69.88" height="10.09"/><text class="cls-3" transform="translate(884 763.75)">INDICAÇÃO DE <tspan x="-3.38" y="22.4">OUTRO ÓRGÃO</tspan></text><text class="cls-4" transform="translate(866.64 637.22)">34</text><text class="cls-5" transform="translate(885.95 595.43)">3</text><rect class="cls-6" x="1307.11" y="642.99" width="69.88" height="87.46"/><rect class="cls-7" x="1307.11" y="639.62" width="69.88" height="3.36"/><text class="cls-3" transform="translate(1287.76 761.83)">PEDIDO EM <tspan x="-9.53" y="22.4">DUPLICIDADE</tspan></text><text class="cls-4" transform="translate(1266.83 665.19)">26</text><text class="cls-5" transform="translate(1286.57 632.42)">1</text><text class="cls-3" transform="translate(1462.65 764.75)">INDEFERIDO</text><rect class="cls-6" x="1481.79" y="719.91" width="69.88" height="9.33"/><rect class="cls-7" x="1481.79" y="715.79" width="69.88" height="3.36"/><text class="cls-4" transform="translate(1454.58 728.05)">3</text><text class="cls-5" transform="translate(1457.79 697.37)">1</text><path class="cls-8" d="M1470.22,690.31a25.56,25.56,0,0,1,25.56,25.56"/><text class="cls-9" transform="translate(385.97 311.94)">ATRASADO</text><rect class="cls-7" x="361.97" y="271.76" width="90" height="10.2"/><text class="cls-9" transform="translate(385.97 392.97)">RESPOSTA NO PRAZO</text><rect class="cls-10" x="361.97" y="351.05" width="90" height="10.2"/><line class="cls-11" x1="612.94" y1="730.78" x2="1632.47" y2="730.78"/></g></svg>