<?xml version="1.0" encoding="utf-8"?>
<svg viewBox="0 0 768 1936.33" xmlns="http://www.w3.org/2000/svg">
  <defs>
    <style>.cls-1{fill:#e5e5e5;}.cls-18,.cls-2,.cls-20,.cls-27,.cls-3,.cls-30,.cls-31,.cls-32,.cls-4,.cls-5,.cls-6,.cls-7,.cls-8{fill:none;}.cls-2{stroke:#3a5cdb;}.cls-18,.cls-2,.cls-27,.cls-30,.cls-31,.cls-6{stroke-width:1.25px;}.cls-3,.cls-31{stroke:#83dfd3;}.cls-20,.cls-3,.cls-32,.cls-4,.cls-5,.cls-7,.cls-8{stroke-miterlimit:10;}.cls-30,.cls-4{stroke:#2e2e47;}.cls-5{stroke:#c5f736;}.cls-6{stroke:#02bf6d;}.cls-27,.cls-7{stroke:#83e084;}.cls-8{stroke:#f67f47;}.cls-29,.cls-9{fill:#2e2e47;}.cls-10{fill:#c5f736;}.cls-11{fill:#02bf6d;}.cls-12{fill:#83e084;}.cls-13{fill:#f67f47;}.cls-14,.cls-15,.cls-16,.cls-17{font-size:16.99px;}.cls-14,.cls-17,.cls-24{fill:#fff;}.cls-14,.cls-15,.cls-16,.cls-17,.cls-26,.cls-34{font-family:OpenSans, Open Sans;}.cls-14,.cls-15{letter-spacing:0.04em;}.cls-15,.cls-16,.cls-25{fill:#1d1d1b;}.cls-16,.cls-17{letter-spacing:0.04em;}.cls-18{stroke:#6e92f3;}.cls-19{fill:#6e92f3;}.cls-20{stroke:#765085;}.cls-21{fill:#3a5cdb;}.cls-22{fill:#83dfd3;}.cls-23{fill:#765085;}.cls-26{font-size:19.81px;}.cls-28,.cls-29{font-size:28.47px;font-family:OpenSans-Bold, Open Sans;font-weight:700;text-decoration:underline;}.cls-28{fill:#030321;}.cls-32{stroke:#030321;stroke-width:0.54px;}.cls-33,.cls-34{isolation:isolate;}.cls-34{font-size:18.17px;}</style>
  </defs>
  <rect id="backgorund" class="cls-1" x="-23.17" width="841.68" height="1977.84"/>
  <g id="Telemedicina">
    <path id="p_1009.0428502768416" data-name="p 1009.0428502768416" class="cls-2" d="M398.49,781.46c-200.9,0-363.76-162.86-363.76-363.75S197.59,54,398.49,54,762.24,216.81,762.24,417.71,599.38,781.46,398.49,781.46Z"/>
  </g>
  <g id="Rastreamento_de_contatos" data-name="Rastreamento de contatos">
    <path id="p_1357.4126277817732" data-name="p 1357.4126277817732" class="cls-3" d="M186.65,1379.27A158.77,158.77,0,1,1,345.42,1220.5,158.77,158.77,0,0,1,186.65,1379.27Z"/>
  </g>
  <g id="Monitoramento_do_fluxo_de_pessoas" data-name="Monitoramento do fluxo de pessoas">
    <path id="p_990.3425551283526" data-name="p 990.3425551283526" class="cls-4" d="M182.14,1899.48a158.77,158.77,0,1,1,158.77-158.77A158.77,158.77,0,0,1,182.14,1899.48Z"/>
  </g>
  <g id="Armazenamento">
    <path id="p_718.3798627363803" data-name="p 718.3798627363803" class="cls-5" d="M166.42,956a80.1,80.1,0,1,1,0-160.19h0a80.1,80.1,0,1,1,0,160.19Z"/>
  </g>
  <g id="Digitalização_de_serviços_públicos" data-name="Digitalização de serviços públicos">
    <path id="p_1232.0398959118984" data-name="p 1232.0398959118984" class="cls-6" d="M452.66,1742.4a80.1,80.1,0,0,1,0-160.19h0a80.1,80.1,0,0,1,0,160.19Z"/>
  </g>
  <g id="Fornecimento_de_informações" data-name="Fornecimento de informações">
    <path id="p_576.3217079802926" data-name="p 576.3217079802926" class="cls-7" d="M464.11,1303a80.1,80.1,0,0,1,0-160.19h0a80.1,80.1,0,1,1,0,160.19Z"/>
  </g>
  <g id="Monitoramento_de_temperatura" data-name="Monitoramento de temperatura">
    <path id="p_1168.788446324224" data-name="p 1168.788446324224" class="cls-8" d="M268,1545.24a80.1,80.1,0,1,1,0-160.19h0a80.1,80.1,0,1,1,0,160.19Z"/>
  </g>
  <g id="UFAL">
    <path id="p_882.3053342044469" data-name="p 882.3053342044469" class="cls-9" d="M103.46,1818a77.25,77.25,0,1,1,0-154.5h0a77.25,77.25,0,1,1,0,154.5Z"/>
  </g>
  <g id="ViaSoluTI">
    <path id="p_988.4223633697869" data-name="p 988.4223633697869" class="cls-9" d="M260.81,1818a77.25,77.25,0,0,1,0-154.5h0a77.25,77.25,0,0,1,0,154.5Z"/>
  </g>
  <g id="Embratel">
    <path id="p_716.4596709778145" data-name="p 716.4596709778145" class="cls-10" d="M166.42,953.19a77.25,77.25,0,0,1,0-154.5h0a77.25,77.25,0,0,1,0,154.5Z"/>
  </g>
  <g id="Serpro">
    <path id="p_1230.1197041533326" data-name="p 1230.1197041533326" class="cls-11" d="M452.66,1739.56a77.25,77.25,0,1,1,0-154.5h0a77.25,77.25,0,1,1,0,154.5Z"/>
  </g>
  <g id="Mito_Games" data-name="Mito Games">
    <path id="p_574.4015162217268" data-name="p 574.4015162217268" class="cls-12" d="M464.11,1300.15a77.25,77.25,0,0,1,0-154.49h0a77.25,77.25,0,1,1,0,154.49Z"/>
  </g>
  <g id="Petrobras">
    <path id="p_1166.8682545656582" data-name="p 1166.8682545656582" class="cls-13" d="M268,1542.39a77.25,77.25,0,0,1,0-154.5h0a77.25,77.25,0,0,1,0,154.5Z"/>
  </g>
  <text class="cls-14" transform="matrix(1, 0, 0, 1, 79.650002, 1746.640015)" style="white-space: pre;">UFAL</text>
  <text class="cls-14" transform="matrix(1, 0, 0, 1, 216.160004, 1746.099976)" style="white-space: pre;">VIASOLUTI</text>
  <text class="cls-15" transform="matrix(1, 0, 0, 1, 121.489998, 882.890015)" style="white-space: pre;">EMBRATEL</text>
  <text class="cls-16" transform="matrix(1, 0, 0, 1, 404.179993, 1225.47998)" style="white-space: pre;">MITO GAMES</text>
  <text class="cls-17" transform="matrix(1, 0, 0, 1, 217.139999, 1473.040039)" style="white-space: pre;">PETROBRAS</text>
  <g id="Identificação_de_pessoas" data-name="Identificação de pessoas">
    <path id="p_911.289146648868" data-name="p 911.289146648868" class="cls-18" d="M419.1,1107.12A158.28,158.28,0,1,1,577.38,948.84,158.28,158.28,0,0,1,419.1,1107.12Z"/>
  </g>
  <g id="INSS">
    <path id="p_830.4323681117216" data-name="p 830.4323681117216" class="cls-19" d="M417.65,1099.89A151.05,151.05,0,1,1,568.7,948.84,151.05,151.05,0,0,1,417.65,1099.89Z"/>
  </g>
  <path id="p_466.4241810300336" data-name="p 466.4241810300336" class="cls-20" d="M627.84,1418.05a80.1,80.1,0,0,1,0-160.19h0a80.1,80.1,0,1,1,0,160.19Z"/>
  <path id="p_690.2796702008411" data-name="p 690.2796702008411" class="cls-21" d="M280.33,425.63a77.25,77.25,0,1,1,0-154.5h0a77.25,77.25,0,0,1,0,154.5Z"/>
  <path id="p_796.3966993661811" data-name="p 796.3966993661811" class="cls-21" d="M437.67,425.63a77.25,77.25,0,0,1,0-154.5h0a77.25,77.25,0,0,1,0,154.5Z"/>
  <path id="p_835.2382278148295" data-name="p 835.2382278148295" class="cls-21" d="M359,561.9a77.25,77.25,0,0,1,0-154.5h0a77.25,77.25,0,1,1,0,154.5Z"/>
  <path id="p_651.4381417521925" data-name="p 651.4381417521925" class="cls-21" d="M359,289.37a77.25,77.25,0,0,1,0-154.5h0a77.25,77.25,0,1,1,0,154.5Z"/>
  <path id="p_545.3211125868525" data-name="p 545.3211125868525" class="cls-21" d="M201.65,289.37a77.25,77.25,0,1,1,0-154.5h0a77.25,77.25,0,0,1,0,154.5Z"/>
  <path id="p_757.5551709175325" data-name="p 757.5551709175325" class="cls-21" d="M516.34,289.37a77.25,77.25,0,1,1,0-154.5h0a77.25,77.25,0,1,1,0,154.5Z"/>
  <path id="p_941.3552569801695" data-name="p 941.3552569801695" class="cls-21" d="M516.34,561.9a77.25,77.25,0,1,1,0-154.5h0a77.25,77.25,0,1,1,0,154.5Z"/>
  <path id="p_729.1211986494897" data-name="p 729.1211986494897" class="cls-21" d="M201.65,561.9a77.25,77.25,0,1,1,0-154.5h0a77.25,77.25,0,0,1,0,154.5Z"/>
  <path id="p_584.1626410355011" data-name="p 584.1626410355011" class="cls-21" d="M123,425.63a77.25,77.25,0,0,1,0-154.5h0a77.25,77.25,0,0,1,0,154.5Z"/>
  <path id="p_902.513728531521" data-name="p 902.513728531521" class="cls-21" d="M595,425.63a77.25,77.25,0,1,1,0-154.5h0a77.25,77.25,0,0,1,0,154.5Z"/>
  <path id="p_1047.4722861455095" data-name="p 1047.4722861455095" class="cls-21" d="M673.69,561.9a77.25,77.25,0,0,1,0-154.5h0a77.25,77.25,0,1,1,0,154.5Z"/>
  <path id="p_1249.3754068578676" data-name="p 1249.3754068578676" class="cls-22" d="M107.8,1294a77.25,77.25,0,0,1,0-154.5h0a77.25,77.25,0,0,1,0,154.5Z"/>
  <path id="p_1355.4924360232073" data-name="p 1355.4924360232073" class="cls-22" d="M265.14,1294a77.25,77.25,0,1,1,0-154.5h0a77.25,77.25,0,1,1,0,154.5Z"/>
  <path id="p_464.50398927146784" data-name="p 464.50398927146784" class="cls-23" d="M627.84,1415.21a77.25,77.25,0,1,1,0-154.5h0a77.25,77.25,0,1,1,0,154.5Z"/>
  <path class="cls-24" d="M276.89,340.28l-1.51-3.86h-4.89l-1.5,3.86h-1.43l4.82-12.18h1.19l4.79,12.18Zm-2-5.12-1.41-3.76c-.19-.48-.37-1.06-.57-1.75a17.18,17.18,0,0,1-.52,1.75L271,335.16Z"/>
  <path class="cls-24" d="M287.88,340.28h-8V339.1l3.21-3.21a23.57,23.57,0,0,0,1.93-2.11,4.85,4.85,0,0,0,.7-1.23,3.44,3.44,0,0,0,.24-1.29,2,2,0,0,0-.59-1.53,2.3,2.3,0,0,0-1.65-.57,4,4,0,0,0-1.43.25,5.29,5.29,0,0,0-1.51.9l-.74-.94A5.63,5.63,0,0,1,283.7,328a3.86,3.86,0,0,1,2.69.88,3,3,0,0,1,1,2.35,4.45,4.45,0,0,1-.65,2.28,14.36,14.36,0,0,1-2.43,2.85l-2.67,2.6V339h6.27Z"/>
  <path class="cls-24" d="M230.1,361.37h-1.41V350.5h-3.86v-1.26H234v1.26H230.1Z"/>
  <path class="cls-24" d="M243.27,361.37h-6.79V349.24h6.79v1.26h-5.38v3.9h5.05v1.25h-5.05v4.46h5.38Z"/>
  <path class="cls-24" d="M251.87,350.33a4,4,0,0,0-3.17,1.33,5.34,5.34,0,0,0-1.17,3.65,5.5,5.5,0,0,0,1.12,3.68,4,4,0,0,0,3.2,1.3,11.17,11.17,0,0,0,2.91-.46v1.24a9.17,9.17,0,0,1-3.13.47,5.27,5.27,0,0,1-4.15-1.63,6.64,6.64,0,0,1-1.46-4.62,7.23,7.23,0,0,1,.7-3.28,5.1,5.1,0,0,1,2-2.18,6.18,6.18,0,0,1,3.13-.76,7.48,7.48,0,0,1,3.35.7l-.6,1.21A6.48,6.48,0,0,0,251.87,350.33Z"/>
  <path class="cls-24" d="M267.61,361.37H266l-6.65-10.18h-.07c.09,1.2.13,2.29.13,3.29v6.89h-1.3V349.24h1.6l6.64,10.14h.06c0-.15,0-.63-.07-1.44s-.05-1.39,0-1.74v-7h1.32Z"/>
  <path class="cls-24" d="M282.22,355.29a6.69,6.69,0,0,1-1.48,4.58,5.23,5.23,0,0,1-4.12,1.67,5.29,5.29,0,0,1-4.15-1.64,6.73,6.73,0,0,1-1.46-4.63,6.63,6.63,0,0,1,1.47-4.59,5.31,5.31,0,0,1,4.16-1.63,5.22,5.22,0,0,1,4.1,1.66A6.67,6.67,0,0,1,282.22,355.29Zm-9.71,0a5.77,5.77,0,0,0,1.05,3.74,3.76,3.76,0,0,0,3.06,1.27,3.71,3.71,0,0,0,3.06-1.27,7.22,7.22,0,0,0,0-7.45,3.71,3.71,0,0,0-3.05-1.27,3.78,3.78,0,0,0-3.08,1.28A5.69,5.69,0,0,0,272.51,355.29Z"/>
  <path class="cls-24" d="M285.61,361.37V349.24H287v10.85h5.37v1.28Z"/>
  <path class="cls-24" d="M305.73,355.29a6.69,6.69,0,0,1-1.48,4.58,5.23,5.23,0,0,1-4.11,1.67A5.3,5.3,0,0,1,296,359.9a6.73,6.73,0,0,1-1.46-4.63,6.63,6.63,0,0,1,1.47-4.59,5.31,5.31,0,0,1,4.16-1.63,5.22,5.22,0,0,1,4.1,1.66A6.67,6.67,0,0,1,305.73,355.29Zm-9.71,0a5.77,5.77,0,0,0,1.05,3.74,3.77,3.77,0,0,0,3.07,1.27,3.69,3.69,0,0,0,3.05-1.27,7.22,7.22,0,0,0,0-7.45,3.71,3.71,0,0,0-3.05-1.27,3.78,3.78,0,0,0-3.08,1.28A5.69,5.69,0,0,0,296,355.29Z"/>
  <path class="cls-24" d="M314.48,355h4.14v5.9a13.27,13.27,0,0,1-2,.46,14.48,14.48,0,0,1-2.32.16A5.65,5.65,0,0,1,310,359.9a6.42,6.42,0,0,1-1.54-4.59,6.92,6.92,0,0,1,.76-3.32,5.18,5.18,0,0,1,2.2-2.17,7.12,7.12,0,0,1,3.36-.75,9.29,9.29,0,0,1,3.63.71l-.55,1.25a8.07,8.07,0,0,0-3.18-.7,4.54,4.54,0,0,0-3.47,1.32,5.12,5.12,0,0,0-1.25,3.66,5.2,5.2,0,0,0,1.2,3.72,4.66,4.66,0,0,0,3.54,1.27,10.26,10.26,0,0,0,2.48-.29v-3.73h-2.73Z"/>
  <path class="cls-24" d="M322.23,361.37V349.24h1.42v12.13Z"/>
  <path class="cls-24" d="M335.33,361.37l-1.52-3.86h-4.88l-1.5,3.86H326l4.82-12.18H332l4.79,12.18Zm-2-5.12L332,352.49c-.18-.48-.37-1.06-.56-1.75a17.42,17.42,0,0,1-.53,1.75l-1.43,3.76Z"/>
  <path class="cls-24" d="M389.76,332.92V320.79h1.42v12.13Z"/>
  <path class="cls-24" d="M404.72,332.92H403.1l-6.66-10.18h-.06c.08,1.19.13,2.29.13,3.28v6.9H395.2V320.79h1.6l6.64,10.13h.07c0-.15,0-.63-.08-1.44s-.05-1.38,0-1.73v-7h1.33Z"/>
  <path class="cls-24" d="M415.62,329.69a2.94,2.94,0,0,1-1.17,2.49,5,5,0,0,1-3.16.9,7.93,7.93,0,0,1-3.33-.55v-1.36a8.41,8.41,0,0,0,1.63.49,8.74,8.74,0,0,0,1.75.18,3.52,3.52,0,0,0,2.13-.53,1.75,1.75,0,0,0,.72-1.49,1.89,1.89,0,0,0-.26-1,2.26,2.26,0,0,0-.85-.74,11.39,11.39,0,0,0-1.81-.78,5.83,5.83,0,0,1-2.43-1.43,3.2,3.2,0,0,1-.73-2.17,2.72,2.72,0,0,1,1.06-2.23,4.44,4.44,0,0,1,2.8-.83,8.14,8.14,0,0,1,3.34.67l-.44,1.22a7.55,7.55,0,0,0-2.93-.63,2.85,2.85,0,0,0-1.76.48,1.61,1.61,0,0,0-.63,1.34,2,2,0,0,0,.23,1,2.19,2.19,0,0,0,.79.74,9.28,9.28,0,0,0,1.69.74,6.8,6.8,0,0,1,2.64,1.46A2.88,2.88,0,0,1,415.62,329.69Z"/>
  <path class="cls-24" d="M422.54,332.92h-1.41V322h-3.86v-1.25h9.13V322h-3.86Z"/>
  <path class="cls-24" d="M428.92,332.92V320.79h1.41v12.13Z"/>
  <path class="cls-24" d="M438.1,332.92h-1.41V322h-3.86v-1.25H442V322H438.1Z"/>
  <path class="cls-24" d="M453.68,320.79v7.84a4.25,4.25,0,0,1-1.26,3.26,4.8,4.8,0,0,1-3.46,1.19,4.63,4.63,0,0,1-3.4-1.19,4.4,4.4,0,0,1-1.21-3.29v-7.81h1.42v7.91a3.13,3.13,0,0,0,.83,2.33,3.38,3.38,0,0,0,2.45.81,3.28,3.28,0,0,0,2.38-.81,3.18,3.18,0,0,0,.83-2.35v-7.89Z"/>
  <path class="cls-24" d="M461.33,332.92h-1.41V322h-3.86v-1.25h9.13V322h-3.86Z"/>
  <path class="cls-24" d="M478.28,326.83a6.62,6.62,0,0,1-1.48,4.58,5.19,5.19,0,0,1-4.11,1.67,5.27,5.27,0,0,1-4.16-1.64,6.72,6.72,0,0,1-1.46-4.62,6.59,6.59,0,0,1,1.47-4.59,5.29,5.29,0,0,1,4.16-1.63,5.21,5.21,0,0,1,4.1,1.65A6.64,6.64,0,0,1,478.28,326.83Zm-9.71,0a5.69,5.69,0,0,0,1.06,3.74,4.32,4.32,0,0,0,6.11,0,5.84,5.84,0,0,0,1-3.75,5.76,5.76,0,0,0-1-3.71,4.33,4.33,0,0,0-6.12,0A5.63,5.63,0,0,0,468.57,326.83Z"/>
  <path class="cls-24" d="M407.3,354V341.88h1.42v10.85h5.37V354Z"/>
  <path class="cls-24" d="M424.5,354,423,350.15H418.1L416.6,354h-1.43L420,341.83h1.19L426,354Zm-2-5.12-1.42-3.76c-.18-.48-.37-1.06-.56-1.75a17.42,17.42,0,0,1-.53,1.75l-1.43,3.76Z"/>
  <path class="cls-24" d="M437.52,341.88v7.84a4.25,4.25,0,0,1-1.26,3.26,4.8,4.8,0,0,1-3.46,1.19,4.65,4.65,0,0,1-3.4-1.19,4.44,4.44,0,0,1-1.2-3.29v-7.81h1.41v7.91a3.09,3.09,0,0,0,.84,2.33,3.36,3.36,0,0,0,2.44.81,3.28,3.28,0,0,0,2.38-.81,3.18,3.18,0,0,0,.83-2.35v-7.89Z"/>
  <path class="cls-24" d="M442.84,349v5h-1.41V341.88h3.34a5.29,5.29,0,0,1,3.31.85,3.11,3.11,0,0,1,1.07,2.57,3.22,3.22,0,0,1-2.45,3.25L450,354h-1.68l-2.95-5Zm0-1.21h1.94a3.38,3.38,0,0,0,2.2-.59,2.2,2.2,0,0,0,.7-1.78,2,2,0,0,0-.71-1.74,3.9,3.9,0,0,0-2.29-.53h-1.84Z"/>
  <path class="cls-24" d="M460.31,354l-1.51-3.85h-4.89l-1.5,3.85H451l4.82-12.17H457L461.78,354Zm-2-5.12-1.41-3.76c-.18-.48-.37-1.06-.57-1.75a17.18,17.18,0,0,1-.52,1.75l-1.44,3.76Z"/>
  <path class="cls-24" d="M391.35,375.09h-1.41V363h6.79v1.25h-5.38v4.44h5v1.25h-5Z"/>
  <path class="cls-24" d="M400.84,370.05v5h-1.42V363h3.35a5.29,5.29,0,0,1,3.31.85,3.11,3.11,0,0,1,1.07,2.57,3.22,3.22,0,0,1-2.45,3.25l3.31,5.45h-1.68l-2.95-5Zm0-1.21h1.94a3.4,3.4,0,0,0,2.2-.59,2.2,2.2,0,0,0,.7-1.78,2,2,0,0,0-.71-1.74,3.92,3.92,0,0,0-2.29-.53h-1.84Z"/>
  <path class="cls-24" d="M417.44,375.09h-6.79V363h6.79v1.25h-5.37v3.91h5.05v1.24h-5.05v4.46h5.37Z"/>
  <path class="cls-24" d="M427.7,371.87a3,3,0,0,1-1.17,2.49,5,5,0,0,1-3.16.9,7.9,7.9,0,0,1-3.33-.56v-1.36a8.63,8.63,0,0,0,1.63.5,8.74,8.74,0,0,0,1.75.18,3.52,3.52,0,0,0,2.13-.53,1.75,1.75,0,0,0,.72-1.49,1.89,1.89,0,0,0-.26-1,2.36,2.36,0,0,0-.85-.75,12.6,12.6,0,0,0-1.81-.77,5.83,5.83,0,0,1-2.43-1.43,3.22,3.22,0,0,1-.73-2.17,2.7,2.7,0,0,1,1.06-2.23,4.44,4.44,0,0,1,2.8-.83,8.14,8.14,0,0,1,3.34.67l-.44,1.22a7.55,7.55,0,0,0-2.93-.63,2.85,2.85,0,0,0-1.76.48,1.59,1.59,0,0,0-.63,1.34,2,2,0,0,0,.23,1,2.19,2.19,0,0,0,.79.74,10,10,0,0,0,1.69.74,6.8,6.8,0,0,1,2.64,1.46A2.88,2.88,0,0,1,427.7,371.87Z"/>
  <path class="cls-24" d="M437.75,371.87a3,3,0,0,1-1.17,2.49,5.06,5.06,0,0,1-3.17.9,8,8,0,0,1-3.33-.56v-1.36a8.74,8.74,0,0,0,1.64.5,8.64,8.64,0,0,0,1.74.18,3.54,3.54,0,0,0,2.14-.53,1.74,1.74,0,0,0,.71-1.49,1.89,1.89,0,0,0-.25-1,2.36,2.36,0,0,0-.85-.75,13.12,13.12,0,0,0-1.81-.77A5.83,5.83,0,0,1,431,368a3.17,3.17,0,0,1-.73-2.17,2.68,2.68,0,0,1,1.06-2.23,4.42,4.42,0,0,1,2.8-.83,8.17,8.17,0,0,1,3.34.67l-.44,1.22a7.63,7.63,0,0,0-2.94-.63,2.82,2.82,0,0,0-1.75.48,1.58,1.58,0,0,0-.64,1.34,2,2,0,0,0,.24,1,2.07,2.07,0,0,0,.78.74,10.21,10.21,0,0,0,1.7.74,6.8,6.8,0,0,1,2.64,1.46A2.88,2.88,0,0,1,437.75,371.87Z"/>
  <path class="cls-24" d="M448.58,375.09l-1.52-3.85h-4.88l-1.5,3.85h-1.43l4.81-12.17h1.19L450,375.09Zm-2-5.12-1.42-3.76c-.18-.48-.37-1.06-.56-1.75a17.42,17.42,0,0,1-.53,1.75L442.68,370Z"/>
  <path class="cls-24" d="M456.15,375.09h-1.42V364.22h-3.85V363H460v1.25h-3.86Z"/>
  <path class="cls-24" d="M466.27,375.09h-1.41V364.22H461V363h9.13v1.25h-3.86Z"/>
  <path class="cls-24" d="M483.22,369a6.64,6.64,0,0,1-1.48,4.58,5.23,5.23,0,0,1-4.11,1.67,5.3,5.3,0,0,1-4.16-1.64A6.72,6.72,0,0,1,472,369a6.59,6.59,0,0,1,1.47-4.59,5.31,5.31,0,0,1,4.16-1.64,5.22,5.22,0,0,1,4.1,1.66A6.64,6.64,0,0,1,483.22,369Zm-9.71,0a5.69,5.69,0,0,0,1.06,3.74,4.32,4.32,0,0,0,6.12,0,5.85,5.85,0,0,0,1-3.74,5.74,5.74,0,0,0-1-3.71,4.33,4.33,0,0,0-6.12,0A5.63,5.63,0,0,0,473.51,369Z"/>
  <path class="cls-24" d="M343.37,478.92l-1.51-3.86H337l-1.5,3.86H334l4.82-12.18h1.19l4.79,12.18Zm-2-5.13L340,470c-.19-.47-.37-1.06-.57-1.75a16.46,16.46,0,0,1-.52,1.75l-1.44,3.76Z"/>
  <path class="cls-24" d="M350.29,472.85l3.25-6.06h1.54L351,474.21v4.71h-1.43v-4.64l-4.06-7.49h1.55Z"/>
  <path class="cls-24" d="M362.79,472.56h4.14v5.9a12.12,12.12,0,0,1-2,.46,14.48,14.48,0,0,1-2.32.16,5.62,5.62,0,0,1-4.31-1.64,6.42,6.42,0,0,1-1.54-4.59,7,7,0,0,1,.76-3.31,5.12,5.12,0,0,1,2.2-2.17,7.12,7.12,0,0,1,3.36-.76,9.12,9.12,0,0,1,3.63.72l-.55,1.24a8.23,8.23,0,0,0-3.18-.69,4.58,4.58,0,0,0-3.47,1.31,5.12,5.12,0,0,0-1.25,3.66,5.24,5.24,0,0,0,1.2,3.73,4.7,4.7,0,0,0,3.54,1.27,10.78,10.78,0,0,0,2.48-.29v-3.74h-2.73Z"/>
  <path class="cls-24" d="M378.2,478.92l-1.52-3.86H371.8l-1.5,3.86h-1.44l4.82-12.18h1.19l4.79,12.18Zm-2-5.13L374.82,470c-.18-.47-.37-1.06-.57-1.75a14.41,14.41,0,0,1-.52,1.75l-1.43,3.76Z"/>
  <path class="cls-24" d="M308.78,500h-1.42V489.13H303.5v-1.25h9.13v1.25h-3.85Z"/>
  <path class="cls-24" d="M321.94,500h-6.79V487.88h6.79v1.25h-5.37V493h5.05v1.24h-5.05v4.47h5.37Z"/>
  <path class="cls-24" d="M330.54,489a4,4,0,0,0-3.17,1.33,5.31,5.31,0,0,0-1.17,3.64,5.44,5.44,0,0,0,1.13,3.68,4,4,0,0,0,3.19,1.3,10.76,10.76,0,0,0,2.91-.46v1.24a9.17,9.17,0,0,1-3.13.47,5.31,5.31,0,0,1-4.15-1.62,6.72,6.72,0,0,1-1.46-4.62,7.28,7.28,0,0,1,.7-3.29,5,5,0,0,1,2-2.17,6.12,6.12,0,0,1,3.12-.77,7.62,7.62,0,0,1,3.35.7l-.6,1.21A6.46,6.46,0,0,0,330.54,489Z"/>
  <path class="cls-24" d="M346.28,500h-1.61L338,489.83h-.07c.09,1.19.14,2.29.14,3.28V500h-1.31V487.88h1.6L345,498h.07c0-.15,0-.63-.08-1.44s-.05-1.39,0-1.74v-7h1.32Z"/>
  <path class="cls-24" d="M360.89,493.93a6.66,6.66,0,0,1-1.48,4.57,5.19,5.19,0,0,1-4.11,1.67,5.27,5.27,0,0,1-4.16-1.64,6.72,6.72,0,0,1-1.46-4.62,6.61,6.61,0,0,1,1.47-4.59,5.29,5.29,0,0,1,4.16-1.63,5.18,5.18,0,0,1,4.1,1.66A6.61,6.61,0,0,1,360.89,493.93Zm-9.71,0a5.68,5.68,0,0,0,1.06,3.73,4.3,4.3,0,0,0,6.11,0,5.83,5.83,0,0,0,1-3.74,5.77,5.77,0,0,0-1-3.72,4.33,4.33,0,0,0-6.12,0A5.66,5.66,0,0,0,351.18,493.93Z"/>
  <path class="cls-24" d="M364.29,500V487.88h1.41v10.85h5.38V500Z"/>
  <path class="cls-24" d="M384.4,493.93a6.61,6.61,0,0,1-1.48,4.57,5.19,5.19,0,0,1-4.11,1.67,5.27,5.27,0,0,1-4.16-1.64,6.72,6.72,0,0,1-1.46-4.62,6.61,6.61,0,0,1,1.47-4.59,5.29,5.29,0,0,1,4.16-1.63,5.18,5.18,0,0,1,4.1,1.66A6.61,6.61,0,0,1,384.4,493.93Zm-9.71,0a5.68,5.68,0,0,0,1.06,3.73,4.31,4.31,0,0,0,6.12,0,5.89,5.89,0,0,0,1-3.74,5.77,5.77,0,0,0-1-3.72,4.33,4.33,0,0,0-6.12,0A5.66,5.66,0,0,0,374.69,493.93Z"/>
  <path class="cls-24" d="M393.15,493.65h4.14v5.9a13.27,13.27,0,0,1-2,.46,14.48,14.48,0,0,1-2.32.16,5.62,5.62,0,0,1-4.31-1.64,6.46,6.46,0,0,1-1.54-4.59,6.89,6.89,0,0,1,.77-3.31,5.1,5.1,0,0,1,2.19-2.17,7.18,7.18,0,0,1,3.36-.76,9.12,9.12,0,0,1,3.63.72l-.55,1.24a8.22,8.22,0,0,0-3.17-.69,4.6,4.6,0,0,0-3.48,1.31,5.12,5.12,0,0,0-1.25,3.66,5.2,5.2,0,0,0,1.21,3.73,4.66,4.66,0,0,0,3.53,1.27,10.78,10.78,0,0,0,2.48-.29v-3.74h-2.73Z"/>
  <path class="cls-24" d="M400.9,500V487.88h1.42V500Z"/>
  <path class="cls-24" d="M414,500l-1.52-3.86H407.6L406.1,500h-1.43l4.81-12.18h1.19L415.46,500Zm-2-5.13-1.42-3.76c-.18-.47-.37-1.06-.56-1.75a16.67,16.67,0,0,1-.53,1.75l-1.43,3.76Z"/>
  <path class="cls-24" d="M330.38,192a4,4,0,0,0-3.17,1.33,5.32,5.32,0,0,0-1.16,3.64,5.43,5.43,0,0,0,1.12,3.68,4,4,0,0,0,3.19,1.3,11.12,11.12,0,0,0,2.91-.45v1.23a8.86,8.86,0,0,1-3.12.48,5.33,5.33,0,0,1-4.16-1.63,6.69,6.69,0,0,1-1.46-4.62,7.28,7.28,0,0,1,.7-3.29,5,5,0,0,1,2-2.17,6.15,6.15,0,0,1,3.13-.76,7.6,7.6,0,0,1,3.34.69l-.6,1.21A6.46,6.46,0,0,0,330.38,192Z"/>
  <path class="cls-24" d="M345.86,203h-1.42v-5.71H338V203h-1.42V190.91H338v5.16h6.41v-5.16h1.42Z"/>
  <path class="cls-24" d="M357.54,203,356,199.18h-4.88l-1.5,3.86h-1.43L353,190.86h1.19L359,203Zm-2-5.13-1.42-3.76c-.18-.47-.37-1.05-.56-1.75a16.67,16.67,0,0,1-.53,1.75l-1.43,3.76Z"/>
  <path class="cls-24" d="M366.75,203l-4.13-10.75h-.07q.12,1.28.12,3V203h-1.31V190.91h2.13l3.86,10h.07l3.89-10h2.12V203H372v-7.82c0-.89,0-1.86.12-2.92h-.07L367.89,203Z"/>
  <path class="cls-24" d="M385.11,203l-1.52-3.86h-4.88l-1.5,3.86h-1.44l4.82-12.18h1.19L386.57,203Zm-2-5.13-1.42-3.76c-.18-.47-.37-1.05-.56-1.75a16.67,16.67,0,0,1-.53,1.75l-1.43,3.76Z"/>
  <path class="cls-24" d="M299.7,224.13V212h1.41v12.13Z"/>
  <path class="cls-24" d="M314.65,224.13H313L306.38,214h-.07c.09,1.19.13,2.29.13,3.29v6.89h-1.3V212h1.6l6.64,10.14h.06c0-.15,0-.63-.07-1.44s-.06-1.39,0-1.74v-7h1.32Z"/>
  <path class="cls-24" d="M318.68,212h3.44a6.52,6.52,0,0,1,3.51.72,2.54,2.54,0,0,1,1.08,2.28,2.63,2.63,0,0,1-.6,1.78,2.9,2.9,0,0,1-1.76.91v.08c1.85.32,2.77,1.29,2.77,2.91a3.14,3.14,0,0,1-1.1,2.54,4.72,4.72,0,0,1-3.09.91h-4.25Zm1.42,5.19h2.33a3.76,3.76,0,0,0,2.16-.47,1.79,1.79,0,0,0,.66-1.58,1.59,1.59,0,0,0-.74-1.47,4.57,4.57,0,0,0-2.33-.45H320.1Zm0,1.2v4.54h2.54a3.63,3.63,0,0,0,2.22-.57,2.09,2.09,0,0,0,.75-1.78,1.88,1.88,0,0,0-.77-1.66,4.12,4.12,0,0,0-2.32-.53Z"/>
  <path class="cls-24" d="M341,218.05a6.64,6.64,0,0,1-1.48,4.58,5.19,5.19,0,0,1-4.11,1.66,5.27,5.27,0,0,1-4.15-1.63,8,8,0,0,1,0-9.22,5.32,5.32,0,0,1,4.17-1.63,5.18,5.18,0,0,1,4.1,1.66A6.67,6.67,0,0,1,341,218.05Zm-9.7,0a5.77,5.77,0,0,0,1,3.74,3.76,3.76,0,0,0,3.06,1.27,3.71,3.71,0,0,0,3.06-1.27,5.81,5.81,0,0,0,1-3.74,5.74,5.74,0,0,0-1-3.71,3.67,3.67,0,0,0-3-1.27,3.79,3.79,0,0,0-3.08,1.27A5.72,5.72,0,0,0,331.29,218.05Z"/>
  <path class="cls-24" d="M352.5,224.13h-1.61l-3.27-5.34-3.34,5.34h-1.5l4.05-6.34L343.06,212h1.56l3,4.8,3.05-4.8h1.51l-3.78,5.74Z"/>
  <path class="cls-24" d="M360,212h3.44a6.57,6.57,0,0,1,3.51.72,2.54,2.54,0,0,1,1.08,2.28,2.58,2.58,0,0,1-.61,1.78,2.9,2.9,0,0,1-1.76.91v.08c1.85.32,2.78,1.29,2.78,2.91a3.12,3.12,0,0,1-1.11,2.54,4.68,4.68,0,0,1-3.08.91H360Zm1.41,5.19h2.34a3.7,3.7,0,0,0,2.15-.47,1.79,1.79,0,0,0,.66-1.58,1.59,1.59,0,0,0-.73-1.47,4.62,4.62,0,0,0-2.33-.45h-2.09Zm0,1.2v4.54H364a3.59,3.59,0,0,0,2.22-.57,2.09,2.09,0,0,0,.75-1.78,1.88,1.88,0,0,0-.76-1.66,4.12,4.12,0,0,0-2.32-.53Z"/>
  <path class="cls-24" d="M373.19,219.09v5h-1.41V212h3.34a5.28,5.28,0,0,1,3.31.86,3.08,3.08,0,0,1,1.07,2.57,3.23,3.23,0,0,1-2.45,3.25l3.31,5.45h-1.68l-2.95-5Zm0-1.22h1.94a3.33,3.33,0,0,0,2.2-.59,2.19,2.19,0,0,0,.7-1.78,2,2,0,0,0-.71-1.73,3.83,3.83,0,0,0-2.29-.53h-1.84Z"/>
  <path class="cls-24" d="M390.66,224.13l-1.51-3.86h-4.89l-1.5,3.86h-1.43L386.15,212h1.19l4.79,12.18Zm-2-5.13-1.41-3.76a18.16,18.16,0,0,1-.57-1.75,16.46,16.46,0,0,1-.52,1.75L384.76,219Z"/>
  <path class="cls-24" d="M401.36,220.9a3,3,0,0,1-1.17,2.5,5,5,0,0,1-3.16.89,8,8,0,0,1-3.34-.55v-1.36a9.55,9.55,0,0,0,1.64.5,8.74,8.74,0,0,0,1.75.18,3.52,3.52,0,0,0,2.13-.54,1.74,1.74,0,0,0,.72-1.49,1.89,1.89,0,0,0-.26-1,2.35,2.35,0,0,0-.85-.74,11.54,11.54,0,0,0-1.81-.77,5.84,5.84,0,0,1-2.43-1.44,3.17,3.17,0,0,1-.73-2.16,2.69,2.69,0,0,1,1.06-2.23,4.38,4.38,0,0,1,2.8-.83,8.3,8.3,0,0,1,3.34.66l-.44,1.23a7.59,7.59,0,0,0-2.93-.63,2.85,2.85,0,0,0-1.76.48,1.59,1.59,0,0,0-.63,1.33,2,2,0,0,0,.23,1,2.09,2.09,0,0,0,.79.73,9.18,9.18,0,0,0,1.69.75,6.67,6.67,0,0,1,2.64,1.46A2.85,2.85,0,0,1,401.36,220.9Z"/>
  <path class="cls-24" d="M404.53,224.13V212H406v12.13Z"/>
  <path class="cls-24" d="M410,224.13V212h1.42v10.85h5.37v1.28Z"/>
  <path class="cls-24" d="M173.36,174.45H172v-5.71h-6.42v5.71h-1.41V162.32h1.41v5.16H172v-5.16h1.41Z"/>
  <path class="cls-24" d="M186.58,162.32v7.85a4.26,4.26,0,0,1-1.25,3.26,4.85,4.85,0,0,1-3.46,1.19,4.59,4.59,0,0,1-3.4-1.2,4.39,4.39,0,0,1-1.21-3.28v-7.82h1.42v7.92a3.14,3.14,0,0,0,.83,2.33,3.38,3.38,0,0,0,2.45.81,3.25,3.25,0,0,0,2.38-.82,3.14,3.14,0,0,0,.83-2.34v-7.9Z"/>
  <path class="cls-24" d="M198.15,174.45l-1.52-3.86h-4.88l-1.5,3.86h-1.43l4.81-12.18h1.19l4.8,12.18Zm-2-5.13-1.42-3.75c-.18-.48-.37-1.06-.56-1.75a15.77,15.77,0,0,1-.53,1.75l-1.43,3.75Z"/>
  <path class="cls-24" d="M212.6,174.45h-1.4l-2.45-8.12c-.12-.36-.25-.82-.4-1.36a7.37,7.37,0,0,1-.22-1,19.66,19.66,0,0,1-.58,2.4l-2.39,8.07h-1.4l-3.24-12.13H202l1.93,7.49a29,29,0,0,1,.58,2.86,19.67,19.67,0,0,1,.67-3l2.18-7.38h1.5l2.29,7.44a21.66,21.66,0,0,1,.67,2.91,26.17,26.17,0,0,1,.6-2.87l1.92-7.48h1.5Z"/>
  <path class="cls-24" d="M225.24,174.45h-6.79V162.32h6.79v1.25h-5.37v3.91h5v1.25h-5v4.46h5.37Z"/>
  <path class="cls-24" d="M228.62,174.45V162.32H230v12.13Z"/>
  <path class="cls-24" d="M235.3,172.48l.13.19a17.6,17.6,0,0,1-.63,1.92c-.27.74-.55,1.42-.85,2h-1c.15-.57.32-1.29.5-2.13s.31-1.53.38-2Zm-1.69-6.23c0-.75.33-1.12,1-1.12s1,.37,1,1.12a1.16,1.16,0,0,1-.28.83,1,1,0,0,1-.75.29.93.93,0,0,1-.73-.29A1.25,1.25,0,0,1,233.61,166.25Z"/>
  <path class="cls-24" d="M170.82,192.31a3,3,0,0,1-1.17,2.5,5,5,0,0,1-3.16.9,8,8,0,0,1-3.34-.56v-1.36a9,9,0,0,0,3.39.68,3.52,3.52,0,0,0,2.13-.54,1.74,1.74,0,0,0,.72-1.49,1.89,1.89,0,0,0-.26-1,2.35,2.35,0,0,0-.85-.74,12,12,0,0,0-1.81-.77,5.73,5.73,0,0,1-2.43-1.44,3.12,3.12,0,0,1-.73-2.16,2.66,2.66,0,0,1,1.06-2.23,4.38,4.38,0,0,1,2.8-.83,8.33,8.33,0,0,1,3.34.66l-.44,1.23a7.59,7.59,0,0,0-2.93-.63,2.85,2.85,0,0,0-1.76.48,1.6,1.6,0,0,0-.64,1.34,2,2,0,0,0,.24,1,2.19,2.19,0,0,0,.79.74,9.68,9.68,0,0,0,1.69.74,6.67,6.67,0,0,1,2.64,1.46A2.85,2.85,0,0,1,170.82,192.31Z"/>
  <path class="cls-24" d="M174,195.54V183.41h1.42v12.13Z"/>
  <path class="cls-24" d="M186.22,195.54h-6.79V183.41h6.79v1.25h-5.37v3.91h5.05v1.25h-5.05v4.46h5.37Z"/>
  <path class="cls-24" d="M195,195.54l-4.13-10.75h-.06c.07.85.11,1.86.11,3v7.71H189.6V183.41h2.14l3.85,10h.07l3.89-10h2.12v12.13h-1.42v-7.81c0-.9,0-1.87.12-2.92h-.07l-4.16,10.73Z"/>
  <path class="cls-24" d="M212.48,195.54h-6.79V183.41h6.79v1.25h-5.37v3.91h5v1.25h-5v4.46h5.37Z"/>
  <path class="cls-24" d="M225.38,195.54h-1.62l-6.65-10.18H217c.09,1.2.13,2.29.13,3.29v6.89h-1.31V183.41h1.6l6.64,10.14h.07c0-.15,0-.63-.07-1.44s-.06-1.39,0-1.74v-7h1.33Z"/>
  <path class="cls-24" d="M236.28,192.31a3,3,0,0,1-1.16,2.5,5.08,5.08,0,0,1-3.17.9,8,8,0,0,1-3.33-.56v-1.36a8.63,8.63,0,0,0,1.63.5,8.74,8.74,0,0,0,1.75.18,3.48,3.48,0,0,0,2.13-.54,1.74,1.74,0,0,0,.72-1.49,1.89,1.89,0,0,0-.25-1,2.44,2.44,0,0,0-.85-.74,11.74,11.74,0,0,0-1.82-.77,5.63,5.63,0,0,1-2.42-1.44,3.12,3.12,0,0,1-.73-2.16,2.66,2.66,0,0,1,1.06-2.23,4.33,4.33,0,0,1,2.79-.83,8.35,8.35,0,0,1,3.35.66l-.45,1.23a7.55,7.55,0,0,0-2.93-.63,2.87,2.87,0,0,0-1.76.48,1.59,1.59,0,0,0-.63,1.34,2.09,2.09,0,0,0,.23,1,2.28,2.28,0,0,0,.79.74,10.21,10.21,0,0,0,1.7.74,6.69,6.69,0,0,1,2.63,1.46A2.85,2.85,0,0,1,236.28,192.31Z"/>
  <path class="cls-24" d="M139.35,216.63h-6.79V204.5h6.79v1.25H134v3.91H139v1.25H134v4.46h5.37Z"/>
  <path class="cls-24" d="M152.25,216.63h-1.62L144,206.45h-.07c.09,1.19.13,2.29.13,3.29v6.89h-1.31V204.5h1.6L151,214.64H151c0-.15,0-.63-.07-1.44s-.06-1.39-.05-1.74v-7h1.33Z"/>
  <path class="cls-24" d="M163.07,216.63h-6.79V204.5h6.79v1.25H157.7v3.91h5.05v1.25H157.7v4.46h5.37Z"/>
  <path class="cls-24" d="M167.87,211.59v5h-1.42V204.5h3.34a5.3,5.3,0,0,1,3.32.85,3.11,3.11,0,0,1,1.07,2.58,3.23,3.23,0,0,1-2.45,3.25l3.3,5.45h-1.67l-3-5Zm0-1.22h1.94a3.34,3.34,0,0,0,2.2-.59,2.19,2.19,0,0,0,.7-1.78,2,2,0,0,0-.71-1.73,3.85,3.85,0,0,0-2.29-.53h-1.84Z"/>
  <path class="cls-24" d="M183,210.27h4.14v5.9a13.31,13.31,0,0,1-2,.47,15.85,15.85,0,0,1-2.32.15,5.63,5.63,0,0,1-4.31-1.63,6.46,6.46,0,0,1-1.54-4.6,6.88,6.88,0,0,1,.76-3.31,5.12,5.12,0,0,1,2.2-2.17,7.12,7.12,0,0,1,3.36-.75A9.15,9.15,0,0,1,187,205l-.55,1.24a8.23,8.23,0,0,0-3.18-.69,4.54,4.54,0,0,0-3.47,1.32,5.1,5.1,0,0,0-1.25,3.65,5.24,5.24,0,0,0,1.2,3.73,4.66,4.66,0,0,0,3.54,1.27,10.85,10.85,0,0,0,2.48-.29v-3.74H183Z"/>
  <path class="cls-24" d="M193.89,210.56l3.25-6.06h1.53l-4.07,7.42v4.71h-1.43V212l-4.06-7.49h1.55Z"/>
  <path class="cls-24" d="M206.14,204.5h3.44a6.52,6.52,0,0,1,3.51.72,2.54,2.54,0,0,1,1.08,2.28,2.63,2.63,0,0,1-.6,1.78,2.9,2.9,0,0,1-1.76.91v.08c1.85.32,2.77,1.29,2.77,2.91a3.14,3.14,0,0,1-1.1,2.54,4.72,4.72,0,0,1-3.09.91h-4.25Zm1.42,5.19h2.33a3.76,3.76,0,0,0,2.16-.47,1.79,1.79,0,0,0,.66-1.58,1.59,1.59,0,0,0-.74-1.47,4.57,4.57,0,0,0-2.33-.45h-2.08Zm0,1.2v4.53h2.54a3.64,3.64,0,0,0,2.22-.56,2.09,2.09,0,0,0,.75-1.78,1.88,1.88,0,0,0-.77-1.66,4.12,4.12,0,0,0-2.32-.53Z"/>
  <path class="cls-24" d="M219.3,211.59v5h-1.42V204.5h3.34a5.25,5.25,0,0,1,3.31.85,3.08,3.08,0,0,1,1.07,2.58,3.22,3.22,0,0,1-2.45,3.25l3.31,5.45h-1.67l-2.95-5Zm0-1.22h1.94a3.34,3.34,0,0,0,2.2-.59,2.22,2.22,0,0,0,.7-1.78,2,2,0,0,0-.72-1.73,3.79,3.79,0,0,0-2.28-.53H219.3Z"/>
  <path class="cls-24" d="M236.77,216.63l-1.52-3.86h-4.88l-1.5,3.86h-1.43l4.81-12.18h1.19l4.79,12.18Zm-2-5.13-1.42-3.76c-.18-.47-.37-1.06-.56-1.75a16.67,16.67,0,0,1-.53,1.75l-1.43,3.76Z"/>
  <path class="cls-24" d="M247.46,213.4a3,3,0,0,1-1.16,2.5,5.08,5.08,0,0,1-3.17.89,8,8,0,0,1-3.33-.55v-1.36a9.43,9.43,0,0,0,1.63.5,8.74,8.74,0,0,0,1.75.18,3.48,3.48,0,0,0,2.13-.54,1.74,1.74,0,0,0,.72-1.49,1.89,1.89,0,0,0-.25-1,2.44,2.44,0,0,0-.85-.74,11,11,0,0,0-1.81-.77,5.81,5.81,0,0,1-2.43-1.44,3.12,3.12,0,0,1-.73-2.16,2.66,2.66,0,0,1,1.06-2.23,4.33,4.33,0,0,1,2.79-.83,8.35,8.35,0,0,1,3.35.66l-.45,1.23a7.55,7.55,0,0,0-2.93-.63,2.87,2.87,0,0,0-1.76.48,1.59,1.59,0,0,0-.63,1.33,2.13,2.13,0,0,0,.23,1,2.26,2.26,0,0,0,.79.73,9.33,9.33,0,0,0,1.7.75,6.69,6.69,0,0,1,2.63,1.46A2.85,2.85,0,0,1,247.46,213.4Z"/>
  <path class="cls-24" d="M250.64,216.63V204.5h1.41v12.13Z"/>
  <path class="cls-24" d="M256.08,216.63V204.5h1.41v10.85h5.38v1.28Z"/>
  <path class="cls-24" d="M266.86,214.65l.12.19a19,19,0,0,1-.62,1.93c-.27.74-.56,1.42-.85,2h-1c.15-.58.31-1.29.49-2.13s.31-1.53.38-2Zm-1.69-6.23c0-.74.33-1.12,1-1.12s1,.38,1,1.12a1.17,1.17,0,0,1-.27.83,1,1,0,0,1-.75.29.92.92,0,0,1-.74-.29A1.21,1.21,0,0,1,265.17,208.42Z"/>
  <path class="cls-24" d="M148.65,237.72h-1.41V232h-6.42v5.71h-1.41V225.59h1.41v5.16h6.42v-5.16h1.41Z"/>
  <path class="cls-24" d="M163.25,231.64a6.66,6.66,0,0,1-1.48,4.58,5.21,5.21,0,0,1-4.11,1.66,5.27,5.27,0,0,1-4.15-1.63,6.72,6.72,0,0,1-1.47-4.63,6.63,6.63,0,0,1,1.47-4.59,5.32,5.32,0,0,1,4.17-1.63,5.2,5.2,0,0,1,4.1,1.66A6.67,6.67,0,0,1,163.25,231.64Zm-9.71,0a5.72,5.72,0,0,0,1.06,3.73,4.31,4.31,0,0,0,6.12,0,7.27,7.27,0,0,0,0-7.46,3.69,3.69,0,0,0-3-1.26,3.79,3.79,0,0,0-3.08,1.27A5.72,5.72,0,0,0,153.54,231.64Z"/>
  <path class="cls-24" d="M173.52,234.49a3,3,0,0,1-1.16,2.5,5.08,5.08,0,0,1-3.17.89,8,8,0,0,1-3.33-.55V236a9.43,9.43,0,0,0,1.63.5,8.74,8.74,0,0,0,1.75.18,3.52,3.52,0,0,0,2.13-.54,1.74,1.74,0,0,0,.72-1.49,1.89,1.89,0,0,0-.26-1,2.31,2.31,0,0,0-.84-.74,11.21,11.21,0,0,0-1.82-.77,5.94,5.94,0,0,1-2.43-1.44,3.17,3.17,0,0,1-.72-2.16,2.68,2.68,0,0,1,1-2.23,4.38,4.38,0,0,1,2.8-.83,8.3,8.3,0,0,1,3.34.66l-.44,1.23a7.55,7.55,0,0,0-2.93-.63,2.85,2.85,0,0,0-1.76.48,1.57,1.57,0,0,0-.63,1.33,2.13,2.13,0,0,0,.23,1,2.26,2.26,0,0,0,.79.73,9.18,9.18,0,0,0,1.69.75,6.67,6.67,0,0,1,2.64,1.46A2.85,2.85,0,0,1,173.52,234.49Z"/>
  <path class="cls-24" d="M184.42,229.12a3.4,3.4,0,0,1-1.26,2.84,5.75,5.75,0,0,1-3.61,1h-1.44v4.77H176.7V225.59h3.15Q184.43,225.59,184.42,229.12Zm-6.31,2.62h1.28a4.69,4.69,0,0,0,2.72-.61,2.22,2.22,0,0,0,.84-1.94,2.08,2.08,0,0,0-.79-1.79,4.16,4.16,0,0,0-2.46-.59h-1.59Z"/>
  <path class="cls-24" d="M187.65,237.72V225.59h1.42v12.13Z"/>
  <path class="cls-24" d="M196.84,237.72h-1.42V226.84h-3.85v-1.25h9.13v1.25h-3.86Z"/>
  <path class="cls-24" d="M210.87,237.72l-1.52-3.86h-4.88l-1.5,3.86h-1.43l4.81-12.18h1.2l4.79,12.18Zm-2-5.13-1.41-3.76a16.46,16.46,0,0,1-.57-1.75,14.58,14.58,0,0,1-.53,1.75L205,232.59Z"/>
  <path class="cls-24" d="M214.69,237.72V225.59h1.42v10.85h5.37v1.28Z"/>
  <path class="cls-24" d="M239.07,231.54a6.12,6.12,0,0,1-1.64,4.59,6.48,6.48,0,0,1-4.71,1.59h-3.37V225.59h3.73a6,6,0,0,1,4.42,1.57A5.89,5.89,0,0,1,239.07,231.54Zm-1.5.05a4.87,4.87,0,0,0-1.2-3.58,4.79,4.79,0,0,0-3.55-1.2h-2.06v9.69h1.73a5.25,5.25,0,0,0,3.81-1.24A4.9,4.9,0,0,0,237.57,231.59Z"/>
  <path class="cls-24" d="M250.13,237.72l-1.52-3.86h-4.88l-1.5,3.86h-1.44l4.82-12.18h1.19l4.79,12.18Zm-2-5.13-1.42-3.76c-.18-.47-.37-1.06-.57-1.75a14.41,14.41,0,0,1-.52,1.75l-1.43,3.76Z"/>
  <path class="cls-24" d="M260.82,234.49a3,3,0,0,1-1.16,2.5,5.08,5.08,0,0,1-3.17.89,8,8,0,0,1-3.33-.55V236a9.43,9.43,0,0,0,1.63.5,8.74,8.74,0,0,0,1.75.18,3.5,3.5,0,0,0,2.13-.54,1.74,1.74,0,0,0,.72-1.49,2,2,0,0,0-.25-1,2.44,2.44,0,0,0-.85-.74,11.21,11.21,0,0,0-1.82-.77,5.94,5.94,0,0,1-2.43-1.44,3.17,3.17,0,0,1-.72-2.16,2.68,2.68,0,0,1,1.05-2.23,4.38,4.38,0,0,1,2.8-.83,8.3,8.3,0,0,1,3.34.66l-.44,1.23a7.55,7.55,0,0,0-2.93-.63,2.85,2.85,0,0,0-1.76.48,1.57,1.57,0,0,0-.63,1.33,2.13,2.13,0,0,0,.23,1,2.26,2.26,0,0,0,.79.73,9.18,9.18,0,0,0,1.69.75,6.67,6.67,0,0,1,2.64,1.46A2.85,2.85,0,0,1,260.82,234.49Z"/>
  <path class="cls-24" d="M150.67,247.77a4,4,0,0,0-3.17,1.33,5.32,5.32,0,0,0-1.16,3.64,5.43,5.43,0,0,0,1.12,3.68,4,4,0,0,0,3.19,1.3,10.76,10.76,0,0,0,2.91-.46v1.24a8.84,8.84,0,0,1-3.12.47,5.32,5.32,0,0,1-4.16-1.62,6.72,6.72,0,0,1-1.46-4.62,7.28,7.28,0,0,1,.71-3.29,5,5,0,0,1,2-2.17,6.15,6.15,0,0,1,3.13-.77,7.68,7.68,0,0,1,3.35.7l-.6,1.21A6.54,6.54,0,0,0,150.67,247.77Z"/>
  <path class="cls-24" d="M156.9,258.81V246.68h1.42v10.85h5.37v1.28Z"/>
  <path class="cls-24" d="M166.26,245.5c.26-.34.55-.75.86-1.24s.55-.91.73-1.27h1.68v.17a15.11,15.11,0,0,1-2.35,2.55h-.92Zm.18,13.31V246.68h1.42v12.13Z"/>
  <path class="cls-24" d="M181.39,258.81h-1.61l-6.66-10.18h-.06c.08,1.19.13,2.29.13,3.29v6.89h-1.31V246.68h1.6l6.64,10.14h.07c0-.15,0-.63-.08-1.44s-.05-1.39,0-1.74v-7h1.32Z"/>
  <path class="cls-24" d="M185.43,258.81V246.68h1.41v12.13Z"/>
  <path class="cls-24" d="M196.08,247.77a4,4,0,0,0-3.17,1.33,5.37,5.37,0,0,0-1.16,3.64,5.43,5.43,0,0,0,1.12,3.68,4,4,0,0,0,3.2,1.3,10.75,10.75,0,0,0,2.9-.46v1.24a8.84,8.84,0,0,1-3.12.47,5.28,5.28,0,0,1-4.15-1.62,6.67,6.67,0,0,1-1.47-4.62,7.28,7.28,0,0,1,.71-3.29,5,5,0,0,1,2-2.17,6.18,6.18,0,0,1,3.13-.77,7.65,7.65,0,0,1,3.35.7l-.6,1.21A6.51,6.51,0,0,0,196.08,247.77Z"/>
  <path class="cls-24" d="M210,258.81,208.45,255h-4.88l-1.5,3.86h-1.43l4.81-12.18h1.2l4.79,12.18Zm-2-5.13-1.41-3.76a16.46,16.46,0,0,1-.57-1.75,14.58,14.58,0,0,1-.53,1.75l-1.43,3.76Z"/>
  <path class="cls-24" d="M220.67,255.58a3,3,0,0,1-1.17,2.5,5.12,5.12,0,0,1-3.17.89,8,8,0,0,1-3.33-.55v-1.36a9.71,9.71,0,0,0,1.63.5,8.81,8.81,0,0,0,1.75.18,3.53,3.53,0,0,0,2.14-.54,1.76,1.76,0,0,0,.71-1.49,1.89,1.89,0,0,0-.25-1,2.35,2.35,0,0,0-.85-.74,11,11,0,0,0-1.81-.77,5.81,5.81,0,0,1-2.43-1.44,3.12,3.12,0,0,1-.73-2.16,2.66,2.66,0,0,1,1.06-2.23,4.37,4.37,0,0,1,2.8-.84,8.34,8.34,0,0,1,3.34.67l-.44,1.23a7.63,7.63,0,0,0-2.94-.63,2.82,2.82,0,0,0-1.75.48,1.56,1.56,0,0,0-.64,1.33,2,2,0,0,0,.24,1,2.13,2.13,0,0,0,.78.73,9.33,9.33,0,0,0,1.7.75,6.67,6.67,0,0,1,2.64,1.46A2.85,2.85,0,0,1,220.67,255.58Z"/>
  <path class="cls-24" d="M238.15,246.68v7.85a4.29,4.29,0,0,1-1.25,3.26,4.86,4.86,0,0,1-3.46,1.18,4.63,4.63,0,0,1-3.41-1.19,4.43,4.43,0,0,1-1.2-3.28v-7.82h1.42v7.91a3.07,3.07,0,0,0,.83,2.33,3.34,3.34,0,0,0,2.45.82,3.21,3.21,0,0,0,2.37-.82,3.12,3.12,0,0,0,.84-2.34v-7.9Z"/>
  <path class="cls-24" d="M248.93,255.58a3,3,0,0,1-1.16,2.5,5.14,5.14,0,0,1-3.17.89,8,8,0,0,1-3.33-.55v-1.36a9.43,9.43,0,0,0,1.63.5,8.74,8.74,0,0,0,1.75.18,3.48,3.48,0,0,0,2.13-.54,1.74,1.74,0,0,0,.72-1.49,1.89,1.89,0,0,0-.25-1,2.44,2.44,0,0,0-.85-.74,10.83,10.83,0,0,0-1.82-.77,5.83,5.83,0,0,1-2.42-1.44,3.12,3.12,0,0,1-.73-2.16,2.66,2.66,0,0,1,1.06-2.23,4.34,4.34,0,0,1,2.79-.84,8.35,8.35,0,0,1,3.35.67l-.45,1.23a7.55,7.55,0,0,0-2.93-.63,2.87,2.87,0,0,0-1.76.48,1.57,1.57,0,0,0-.63,1.33,2.13,2.13,0,0,0,.23,1,2.26,2.26,0,0,0,.79.73,9.33,9.33,0,0,0,1.7.75,6.69,6.69,0,0,1,2.63,1.46A2.85,2.85,0,0,1,248.93,255.58Z"/>
  <path class="cls-24" d="M259.83,250.21a3.4,3.4,0,0,1-1.26,2.84,5.75,5.75,0,0,1-3.61,1h-1.44v4.77h-1.41V246.68h3.16Q259.83,246.68,259.83,250.21Zm-6.31,2.62h1.28a4.69,4.69,0,0,0,2.72-.61,2.22,2.22,0,0,0,.84-1.94,2.08,2.08,0,0,0-.79-1.79,4.14,4.14,0,0,0-2.46-.59h-1.59Z"/>
  <text class="cls-14" transform="matrix(1, 0, 0, 1, 493.690002, 212.600006)" style="white-space: pre;">INTEL</text>
  <text class="cls-14" transform="matrix(1, 0, 0, 1, 481.48999, 485.140015)" style="white-space: pre;">RADTEC</text>
  <path class="cls-24" d="M154.37,475.6v5H153V468.52h3.34a5.25,5.25,0,0,1,3.31.85,3.08,3.08,0,0,1,1.07,2.58,3.22,3.22,0,0,1-2.44,3.25l3.3,5.45h-1.67l-3-5Zm0-1.21h1.94a3.34,3.34,0,0,0,2.2-.59,2.23,2.23,0,0,0,.7-1.78,2,2,0,0,0-.71-1.73,3.84,3.84,0,0,0-2.29-.54h-1.84Z"/>
  <path class="cls-24" d="M171,480.65h-6.79V468.52H171v1.25H165.6v3.91h5.05v1.24H165.6v4.47H171Z"/>
  <path class="cls-24" d="M184.93,474.57a7.39,7.39,0,0,1-.94,3.87,4.69,4.69,0,0,1-2.66,2.09l2.9,3h-2.06l-2.38-2.73h-.45a5.27,5.27,0,0,1-4.16-1.64,6.72,6.72,0,0,1-1.46-4.62,6.61,6.61,0,0,1,1.47-4.59,5.28,5.28,0,0,1,4.16-1.63,5.18,5.18,0,0,1,4.1,1.66A6.65,6.65,0,0,1,184.93,474.57Zm-9.71,0a5.72,5.72,0,0,0,1.05,3.73,3.77,3.77,0,0,0,3.07,1.28,3.71,3.71,0,0,0,3-1.27,7.24,7.24,0,0,0,0-7.46,3.71,3.71,0,0,0-3.05-1.26,3.77,3.77,0,0,0-3.08,1.27A5.72,5.72,0,0,0,175.22,474.57Z"/>
  <path class="cls-24" d="M197.52,468.52v7.85a4.29,4.29,0,0,1-1.25,3.26,4.86,4.86,0,0,1-3.46,1.18,4.63,4.63,0,0,1-3.41-1.19,4.44,4.44,0,0,1-1.2-3.29v-7.81h1.42v7.91a3.07,3.07,0,0,0,.83,2.33,3.33,3.33,0,0,0,2.45.82,3.25,3.25,0,0,0,2.37-.82,3.12,3.12,0,0,0,.84-2.34v-7.9Z"/>
  <path class="cls-24" d="M201.43,480.65V468.52h1.42v12.13Z"/>
  <path class="cls-24" d="M213.74,477.42a3,3,0,0,1-1.16,2.5,5.14,5.14,0,0,1-3.17.89,8,8,0,0,1-3.33-.55V478.9a8.63,8.63,0,0,0,1.63.49,8.08,8.08,0,0,0,1.75.19,3.48,3.48,0,0,0,2.13-.54,1.74,1.74,0,0,0,.72-1.49,1.89,1.89,0,0,0-.25-1,2.34,2.34,0,0,0-.85-.74,11.21,11.21,0,0,0-1.82-.77,5.83,5.83,0,0,1-2.42-1.44,3.12,3.12,0,0,1-.73-2.16,2.71,2.71,0,0,1,1-2.24,4.44,4.44,0,0,1,2.8-.83,8.27,8.27,0,0,1,3.34.67l-.44,1.23a7.55,7.55,0,0,0-2.93-.63,2.85,2.85,0,0,0-1.76.48,1.57,1.57,0,0,0-.63,1.33,2.13,2.13,0,0,0,.23,1,2.26,2.26,0,0,0,.79.73,9,9,0,0,0,1.7.75A6.69,6.69,0,0,1,213,475.4,2.85,2.85,0,0,1,213.74,477.42Z"/>
  <path class="cls-24" d="M216.92,480.65V468.52h1.41v12.13Z"/>
  <path class="cls-24" d="M226.11,480.65h-1.42V469.77h-3.86v-1.25H230v1.25h-3.85Z"/>
  <path class="cls-24" d="M243.05,474.57a6.66,6.66,0,0,1-1.48,4.58,6,6,0,0,1-8.26,0,8,8,0,0,1,0-9.21,5.32,5.32,0,0,1,4.17-1.63,5.2,5.2,0,0,1,4.1,1.66A6.65,6.65,0,0,1,243.05,474.57Zm-9.7,0a5.72,5.72,0,0,0,1.05,3.73,4.31,4.31,0,0,0,6.12,0,7.27,7.27,0,0,0,0-7.46,3.69,3.69,0,0,0-3-1.26,3.76,3.76,0,0,0-3.08,1.27A5.72,5.72,0,0,0,233.35,474.57Z"/>
  <path class="cls-24" d="M149.61,501.74h-1.42V490.86h-3.85v-1.25h9.13v1.25h-3.86Z"/>
  <path class="cls-24" d="M162.77,501.74H156V489.61h6.79v1.25H157.4v3.91h5V496h-5v4.47h5.37Z"/>
  <path class="cls-24" d="M171.37,490.7A4,4,0,0,0,168.2,492a5.37,5.37,0,0,0-1.16,3.64,5.43,5.43,0,0,0,1.12,3.68,4,4,0,0,0,3.19,1.3,10.76,10.76,0,0,0,2.91-.46v1.24a8.84,8.84,0,0,1-3.12.47,5.32,5.32,0,0,1-4.16-1.62,6.72,6.72,0,0,1-1.46-4.62,7.28,7.28,0,0,1,.71-3.29,5,5,0,0,1,2-2.17,6.18,6.18,0,0,1,3.13-.77,7.65,7.65,0,0,1,3.35.7l-.6,1.21A6.51,6.51,0,0,0,171.37,490.7Z"/>
  <path class="cls-24" d="M187.12,501.74H185.5l-6.66-10.18h-.06c.09,1.19.13,2.29.13,3.28v6.9H177.6V489.61h1.6l6.64,10.14h.07c0-.15,0-.63-.08-1.44s-.05-1.39,0-1.74v-7h1.33Z"/>
  <path class="cls-24" d="M201.72,495.66a6.66,6.66,0,0,1-1.48,4.58,6,6,0,0,1-8.26,0,8,8,0,0,1,0-9.21,5.32,5.32,0,0,1,4.17-1.63,5.2,5.2,0,0,1,4.1,1.66A6.65,6.65,0,0,1,201.72,495.66Zm-9.7,0a5.74,5.74,0,0,0,1,3.73,4.31,4.31,0,0,0,6.12,0,7.27,7.27,0,0,0,0-7.46,3.69,3.69,0,0,0-3-1.26,3.76,3.76,0,0,0-3.08,1.27A5.72,5.72,0,0,0,192,495.66Z"/>
  <path class="cls-24" d="M205.12,501.74V489.61h1.42v10.85h5.37v1.28Z"/>
  <path class="cls-24" d="M225.23,495.66a6.66,6.66,0,0,1-1.48,4.58,6,6,0,0,1-8.26,0,8,8,0,0,1,0-9.21,5.32,5.32,0,0,1,4.17-1.63,5.2,5.2,0,0,1,4.1,1.66A6.65,6.65,0,0,1,225.23,495.66Zm-9.7,0a5.74,5.74,0,0,0,1.05,3.73,4.31,4.31,0,0,0,6.12,0,7.27,7.27,0,0,0,0-7.46,3.69,3.69,0,0,0-3-1.26,3.76,3.76,0,0,0-3.08,1.27A5.72,5.72,0,0,0,215.53,495.66Z"/>
  <path class="cls-24" d="M234,495.38h4.14v5.9a13.44,13.44,0,0,1-2,.47,15.7,15.7,0,0,1-2.31.15,5.6,5.6,0,0,1-4.31-1.64,6.42,6.42,0,0,1-1.54-4.59,6.88,6.88,0,0,1,.76-3.31,5.15,5.15,0,0,1,2.19-2.17,7.18,7.18,0,0,1,3.36-.76,9.2,9.2,0,0,1,3.64.72l-.55,1.24a8.23,8.23,0,0,0-3.18-.69,4.58,4.58,0,0,0-3.47,1.31,5.08,5.08,0,0,0-1.25,3.66,5.24,5.24,0,0,0,1.2,3.73,4.67,4.67,0,0,0,3.54,1.27,10.7,10.7,0,0,0,2.47-.29v-3.74H234Z"/>
  <path class="cls-24" d="M241.74,501.74V489.61h1.41v12.13Z"/>
  <path class="cls-24" d="M254.83,501.74l-1.51-3.86h-4.89l-1.5,3.86H245.5l4.82-12.18h1.19l4.79,12.18Zm-2-5.13-1.41-3.76c-.19-.47-.37-1.06-.57-1.75a16.46,16.46,0,0,1-.52,1.75l-1.44,3.76Z"/>
  <path class="cls-24" d="M60.31,337.06a3,3,0,0,1-1.17,2.49,5.06,5.06,0,0,1-3.17.9,8,8,0,0,1-3.33-.56v-1.36a8.63,8.63,0,0,0,1.63.5,8.74,8.74,0,0,0,1.75.18,3.61,3.61,0,0,0,2.14-.53,1.77,1.77,0,0,0,.71-1.49,1.87,1.87,0,0,0-.25-1,2.45,2.45,0,0,0-.85-.75,13.12,13.12,0,0,0-1.81-.77,5.7,5.7,0,0,1-2.43-1.43A3.17,3.17,0,0,1,52.8,331a2.68,2.68,0,0,1,1.06-2.23,4.4,4.4,0,0,1,2.8-.83,8.33,8.33,0,0,1,3.34.66l-.44,1.23a7.63,7.63,0,0,0-2.94-.63,2.87,2.87,0,0,0-1.76.48,1.59,1.59,0,0,0-.63,1.34,2.09,2.09,0,0,0,.23,1,2.28,2.28,0,0,0,.79.74,10.21,10.21,0,0,0,1.7.74A6.69,6.69,0,0,1,59.58,335,2.89,2.89,0,0,1,60.31,337.06Z"/>
  <path class="cls-24" d="M63.48,340.28V328.16h1.41v12.12Z"/>
  <path class="cls-24" d="M74.31,340.28l-4.13-10.75h-.07c.08.85.12,1.87.12,3v7.71H68.92V328.16h2.13l3.86,10H75l3.9-10H81v12.12H79.57v-7.81c0-.9,0-1.87.11-2.92h-.06l-4.17,10.73Z"/>
  <path class="cls-24" d="M91.8,340.28H85V328.16H91.8v1.25H86.42v3.9h5v1.25h-5V339H91.8Z"/>
  <path class="cls-24" d="M103.28,340.28h-1.6L98.4,335l-3.33,5.33h-1.5l4.05-6.34-3.77-5.78h1.56l3,4.8,3-4.8H103l-3.77,5.74Z"/>
  <path class="cls-24" d="M117.7,337.06a3,3,0,0,1-1.17,2.49,5.06,5.06,0,0,1-3.17.9,8,8,0,0,1-3.33-.56v-1.36a8.89,8.89,0,0,0,3.38.68,3.61,3.61,0,0,0,2.14-.53,1.74,1.74,0,0,0,.71-1.49,1.87,1.87,0,0,0-.25-1,2.36,2.36,0,0,0-.85-.75,13.12,13.12,0,0,0-1.81-.77,5.77,5.77,0,0,1-2.43-1.43,3.17,3.17,0,0,1-.73-2.17,2.68,2.68,0,0,1,1.06-2.23,4.42,4.42,0,0,1,2.8-.83,8.33,8.33,0,0,1,3.34.66l-.44,1.23a7.63,7.63,0,0,0-2.94-.63,2.82,2.82,0,0,0-1.75.48,1.58,1.58,0,0,0-.64,1.34,2,2,0,0,0,.24,1,2.15,2.15,0,0,0,.78.74,10.21,10.21,0,0,0,1.7.74A6.67,6.67,0,0,1,117,335,2.88,2.88,0,0,1,117.7,337.06Z"/>
  <path class="cls-24" d="M120.87,340.28V328.16h1.42v12.12Z"/>
  <path class="cls-24" d="M133.18,337.06a3,3,0,0,1-1.16,2.49,5.08,5.08,0,0,1-3.17.9,8,8,0,0,1-3.33-.56v-1.36a8.63,8.63,0,0,0,1.63.5,8.74,8.74,0,0,0,1.75.18,3.55,3.55,0,0,0,2.13-.53,1.75,1.75,0,0,0,.72-1.49,1.87,1.87,0,0,0-.25-1,2.45,2.45,0,0,0-.85-.75,12.82,12.82,0,0,0-1.82-.77,5.72,5.72,0,0,1-2.42-1.43,3.17,3.17,0,0,1-.73-2.17,2.68,2.68,0,0,1,1.06-2.23,4.39,4.39,0,0,1,2.79-.83,8.35,8.35,0,0,1,3.35.66l-.45,1.23a7.55,7.55,0,0,0-2.93-.63,2.87,2.87,0,0,0-1.76.48,1.59,1.59,0,0,0-.63,1.34,2.09,2.09,0,0,0,.23,1,2.28,2.28,0,0,0,.79.74,10.21,10.21,0,0,0,1.7.74,6.69,6.69,0,0,1,2.63,1.46A2.88,2.88,0,0,1,133.18,337.06Z"/>
  <path class="cls-24" d="M140.11,340.28h-1.42V329.41h-3.86v-1.25H144v1.25h-3.85Z"/>
  <path class="cls-24" d="M153.27,340.28h-6.79V328.16h6.79v1.25H147.9v3.9h5v1.25h-5V339h5.37Z"/>
  <path class="cls-24" d="M162,340.28l-4.13-10.75h-.07c.08.85.12,1.87.12,3v7.71h-1.31V328.16h2.14l3.85,10h.07l3.89-10h2.12v12.12H167.3v-7.81c0-.9,0-1.87.12-2.92h-.07l-4.17,10.73Z"/>
  <path class="cls-24" d="M180.4,340.28l-1.52-3.86H174l-1.5,3.86h-1.44l4.82-12.18h1.19l4.79,12.18Zm-2-5.12L177,331.4c-.18-.48-.37-1.06-.56-1.75a17.42,17.42,0,0,1-.53,1.75l-1.43,3.76Z"/>
  <path class="cls-24" d="M191.09,337.06a3,3,0,0,1-1.16,2.49,5.08,5.08,0,0,1-3.17.9,8,8,0,0,1-3.33-.56v-1.36a8.63,8.63,0,0,0,1.63.5,8.74,8.74,0,0,0,1.75.18,3.57,3.57,0,0,0,2.13-.53,1.75,1.75,0,0,0,.72-1.49,1.87,1.87,0,0,0-.25-1,2.45,2.45,0,0,0-.85-.75,13.36,13.36,0,0,0-1.82-.77,5.72,5.72,0,0,1-2.42-1.43,3.17,3.17,0,0,1-.73-2.17,2.7,2.7,0,0,1,1-2.23,4.44,4.44,0,0,1,2.8-.83,8.3,8.3,0,0,1,3.34.66l-.44,1.23a7.55,7.55,0,0,0-2.93-.63,2.85,2.85,0,0,0-1.76.48,1.59,1.59,0,0,0-.63,1.34,2.09,2.09,0,0,0,.23,1,2.28,2.28,0,0,0,.79.74,9.84,9.84,0,0,0,1.7.74,6.69,6.69,0,0,1,2.63,1.46A2.88,2.88,0,0,1,191.09,337.06Z"/>
  <path class="cls-24" d="M75.84,355.19a6.1,6.1,0,0,1-1.64,4.59,6.48,6.48,0,0,1-4.71,1.59H66.12V349.25h3.73a6,6,0,0,1,4.41,1.56A5.92,5.92,0,0,1,75.84,355.19Zm-1.5.05a4.84,4.84,0,0,0-1.2-3.57,4.76,4.76,0,0,0-3.55-1.21H67.53v9.69h1.73a5.24,5.24,0,0,0,3.8-1.24A4.89,4.89,0,0,0,74.34,355.24Z"/>
  <path class="cls-24" d="M86,361.37H79.24V349.25H86v1.25H80.65v3.9h5v1.25h-5v4.46H86Z"/>
  <path class="cls-24" d="M94.52,361.37V349.25h1.42v12.12Z"/>
  <path class="cls-24" d="M109.48,361.37h-1.62l-6.66-10.18h-.06c.09,1.2.13,2.29.13,3.29v6.89H100V349.25h1.6l6.64,10.13h.07c0-.15,0-.63-.08-1.44s0-1.39,0-1.74v-6.95h1.33Z"/>
  <path class="cls-24" d="M120.38,358.15a3,3,0,0,1-1.16,2.49,5.08,5.08,0,0,1-3.17.9,8,8,0,0,1-3.33-.56v-1.36a8.63,8.63,0,0,0,1.63.5,8.74,8.74,0,0,0,1.75.18,3.55,3.55,0,0,0,2.13-.53,1.75,1.75,0,0,0,.72-1.49,1.87,1.87,0,0,0-.25-1,2.45,2.45,0,0,0-.85-.75,12.82,12.82,0,0,0-1.82-.77,5.72,5.72,0,0,1-2.42-1.43,3.17,3.17,0,0,1-.73-2.17,2.7,2.7,0,0,1,1.05-2.23,4.44,4.44,0,0,1,2.8-.83,8.35,8.35,0,0,1,3.35.66l-.45,1.23a7.55,7.55,0,0,0-2.93-.63,2.87,2.87,0,0,0-1.76.48,1.59,1.59,0,0,0-.63,1.34,2.09,2.09,0,0,0,.23,1,2.28,2.28,0,0,0,.79.74,10.21,10.21,0,0,0,1.7.74,6.69,6.69,0,0,1,2.63,1.46A2.88,2.88,0,0,1,120.38,358.15Z"/>
  <path class="cls-24" d="M131.28,352.78a3.38,3.38,0,0,1-1.26,2.83,5.75,5.75,0,0,1-3.61,1H125v4.77h-1.41V349.25h3.15C129.76,349.25,131.28,350.42,131.28,352.78ZM125,355.39h1.28a4.78,4.78,0,0,0,2.72-.6,2.24,2.24,0,0,0,.84-2,2.09,2.09,0,0,0-.79-1.79,4.16,4.16,0,0,0-2.46-.59H125Z"/>
  <path class="cls-24" d="M141.3,361.37h-6.79V349.25h6.79v1.25h-5.37v3.9h5v1.25h-5v4.46h5.37Z"/>
  <path class="cls-24" d="M149.9,350.33a4,4,0,0,0-3.17,1.33,5.33,5.33,0,0,0-1.16,3.65,5.45,5.45,0,0,0,1.12,3.68,4,4,0,0,0,3.19,1.3,11.17,11.17,0,0,0,2.91-.46v1.24a9.07,9.07,0,0,1-3.12.47,5.29,5.29,0,0,1-4.16-1.63,6.69,6.69,0,0,1-1.46-4.62,7.24,7.24,0,0,1,.71-3.28,5,5,0,0,1,2-2.18,6.25,6.25,0,0,1,3.13-.76,7.54,7.54,0,0,1,3.35.7l-.6,1.21A6.55,6.55,0,0,0,149.9,350.33Zm1,13.44a1.41,1.41,0,0,1-.63,1.24,3.3,3.3,0,0,1-1.89.44,4.11,4.11,0,0,1-.8-.07v-.88a5.47,5.47,0,0,0,.87.07,2.29,2.29,0,0,0,1-.17.61.61,0,0,0,.34-.61.67.67,0,0,0-.33-.58,3.23,3.23,0,0,0-1.24-.36l.74-1.48h.91l-.45,1C150.42,362.54,150.92,363,150.92,363.77Z"/>
  <path class="cls-24" d="M163.79,361.37l-1.52-3.86h-4.88l-1.5,3.86h-1.43l4.81-12.18h1.19l4.79,12.18Zm-2.73-13.11a1.56,1.56,0,0,1-.7-.16,6.16,6.16,0,0,1-.68-.34l-.63-.34a1.32,1.32,0,0,0-.59-.15.79.79,0,0,0-.63.25,1.69,1.69,0,0,0-.32.75h-.82a2.84,2.84,0,0,1,.59-1.57,1.54,1.54,0,0,1,1.23-.57,1.78,1.78,0,0,1,.75.16,6.16,6.16,0,0,1,.68.34l.62.34a1.28,1.28,0,0,0,.57.15.76.76,0,0,0,.61-.24,2,2,0,0,0,.32-.76h.83a2.91,2.91,0,0,1-.58,1.57A1.55,1.55,0,0,1,161.06,348.26Zm.77,8-1.42-3.76c-.18-.48-.37-1.06-.56-1.75a17.42,17.42,0,0,1-.53,1.75l-1.43,3.76Z"/>
  <path class="cls-24" d="M178.18,355.29a6.69,6.69,0,0,1-1.47,4.58,5.23,5.23,0,0,1-4.12,1.67,5.29,5.29,0,0,1-4.15-1.64,8,8,0,0,1,0-9.22,5.35,5.35,0,0,1,4.17-1.63,5.22,5.22,0,0,1,4.1,1.66A6.67,6.67,0,0,1,178.18,355.29Zm-9.7,0a5.77,5.77,0,0,0,1.05,3.74,3.75,3.75,0,0,0,3.06,1.27,3.71,3.71,0,0,0,3.06-1.27,7.28,7.28,0,0,0,0-7.45,3.72,3.72,0,0,0-3-1.26,3.76,3.76,0,0,0-3.08,1.27A5.69,5.69,0,0,0,168.48,355.29Z"/>
  <path class="cls-24" d="M98.52,382.46l-4.13-10.75h-.07c.08.85.12,1.86.12,3v7.71H93.13V370.33h2.13l3.86,10h.06l3.9-10h2.11v12.13h-1.41v-7.81c0-.9,0-1.87.11-2.92h-.06l-4.17,10.73Z"/>
  <path class="cls-24" d="M119.79,376.38a6.64,6.64,0,0,1-1.48,4.58,5.23,5.23,0,0,1-4.11,1.67A5.3,5.3,0,0,1,110,381a6.75,6.75,0,0,1-1.46-4.63,6.63,6.63,0,0,1,1.47-4.59,5.33,5.33,0,0,1,4.16-1.63,5.22,5.22,0,0,1,4.1,1.66A6.62,6.62,0,0,1,119.79,376.38Zm-9.71,0a5.71,5.71,0,0,0,1.06,3.74,4.32,4.32,0,0,0,6.12,0,5.85,5.85,0,0,0,1-3.74,5.74,5.74,0,0,0-1-3.71,4.31,4.31,0,0,0-6.12,0A5.63,5.63,0,0,0,110.08,376.38Zm3-7.22a14,14,0,0,0,.86-1.25c.31-.49.55-.91.73-1.27h1.69v.18a12.84,12.84,0,0,1-1.1,1.32,11.41,11.41,0,0,1-1.25,1.22H113Z"/>
  <path class="cls-24" d="M130.14,370.33h1.53l-4.39,12.13h-1.4l-4.37-12.13H123l2.8,7.85a22.62,22.62,0,0,1,.77,2.63,22.56,22.56,0,0,1,.78-2.68Z"/>
  <path class="cls-24" d="M140.82,382.46H134V370.33h6.79v1.26h-5.38v3.9h5.05v1.25h-5.05v4.46h5.38Z"/>
  <path class="cls-24" d="M144.2,382.46V370.33h1.41v12.13Z"/>
  <path class="cls-24" d="M156.51,379.24a3,3,0,0,1-1.16,2.49,5.08,5.08,0,0,1-3.17.9,7.9,7.9,0,0,1-3.33-.56v-1.36a8.63,8.63,0,0,0,1.63.5,8.74,8.74,0,0,0,1.75.18,3.6,3.6,0,0,0,2.13-.53,1.76,1.76,0,0,0,.72-1.49,1.87,1.87,0,0,0-.26-1,2.36,2.36,0,0,0-.85-.75,11.54,11.54,0,0,0-1.81-.77,5.83,5.83,0,0,1-2.43-1.43,3.22,3.22,0,0,1-.73-2.17,2.7,2.7,0,0,1,1.06-2.23,4.44,4.44,0,0,1,2.8-.83,8.3,8.3,0,0,1,3.34.66l-.44,1.23a7.55,7.55,0,0,0-2.93-.63,2.85,2.85,0,0,0-1.76.48,1.59,1.59,0,0,0-.63,1.34,2.09,2.09,0,0,0,.23,1,2.28,2.28,0,0,0,.79.74,10,10,0,0,0,1.69.74,6.67,6.67,0,0,1,2.64,1.46A2.88,2.88,0,0,1,156.51,379.24Z"/>
  <path class="cls-24" d="M584.49,340.28h-1.62l-6.65-10.18h-.07c.09,1.2.13,2.29.13,3.29v6.89H575V328.16h1.6l6.64,10.13h.07c0-.15,0-.63-.07-1.44s-.06-1.39-.05-1.74v-6.95h1.33Z"/>
  <path class="cls-24" d="M596.18,340.28l-1.52-3.86h-4.88l-1.5,3.86h-1.43l4.81-12.18h1.19l4.79,12.18Zm-2.73-13.11a1.56,1.56,0,0,1-.7-.16,6.16,6.16,0,0,1-.68-.34l-.63-.34a1.32,1.32,0,0,0-.59-.15.79.79,0,0,0-.63.25,1.69,1.69,0,0,0-.32.75h-.82a2.84,2.84,0,0,1,.59-1.57,1.54,1.54,0,0,1,1.23-.57,1.78,1.78,0,0,1,.75.16,6.16,6.16,0,0,1,.68.34l.62.34a1.28,1.28,0,0,0,.57.15.76.76,0,0,0,.61-.24,2,2,0,0,0,.32-.76h.83a2.91,2.91,0,0,1-.58,1.57A1.53,1.53,0,0,1,593.45,327.17Zm.77,8-1.42-3.76c-.18-.48-.37-1.06-.56-1.75a17.42,17.42,0,0,1-.53,1.75l-1.43,3.76Z"/>
  <path class="cls-24" d="M610.57,334.2a6.69,6.69,0,0,1-1.47,4.58,5.23,5.23,0,0,1-4.12,1.67,5.29,5.29,0,0,1-4.15-1.64,8,8,0,0,1,0-9.22A5.35,5.35,0,0,1,605,328a5.22,5.22,0,0,1,4.1,1.66A6.67,6.67,0,0,1,610.57,334.2Zm-9.7,0a5.77,5.77,0,0,0,1,3.74,3.75,3.75,0,0,0,3.06,1.27,3.71,3.71,0,0,0,3.06-1.27,7.28,7.28,0,0,0,0-7.45,3.72,3.72,0,0,0-3-1.26,3.76,3.76,0,0,0-3.08,1.27A5.69,5.69,0,0,0,600.87,334.2Z"/>
  <path class="cls-24" d="M543.07,361.37V349.25h1.42v10.84h5.37v1.28Z"/>
  <path class="cls-24" d="M563.18,355.29a6.64,6.64,0,0,1-1.48,4.58,5.2,5.2,0,0,1-4.11,1.67,5.28,5.28,0,0,1-4.15-1.64,8,8,0,0,1,0-9.22,5.35,5.35,0,0,1,4.17-1.63,5.22,5.22,0,0,1,4.1,1.66A6.67,6.67,0,0,1,563.18,355.29Zm-9.7,0a5.77,5.77,0,0,0,1,3.74,4.32,4.32,0,0,0,6.12,0,7.25,7.25,0,0,0,0-7.45,3.69,3.69,0,0,0-3-1.26,3.76,3.76,0,0,0-3.08,1.27A5.69,5.69,0,0,0,553.48,355.29Z"/>
  <path class="cls-24" d="M571.8,350.33a4,4,0,0,0-3.17,1.33,5.34,5.34,0,0,0-1.17,3.65,5.45,5.45,0,0,0,1.13,3.68,4,4,0,0,0,3.19,1.3,11.17,11.17,0,0,0,2.91-.46v1.24a9.17,9.17,0,0,1-3.13.47,5.29,5.29,0,0,1-4.15-1.63,6.69,6.69,0,0,1-1.46-4.62,7.23,7.23,0,0,1,.7-3.28,5.06,5.06,0,0,1,2-2.18,6.21,6.21,0,0,1,3.12-.76,7.48,7.48,0,0,1,3.35.7l-.6,1.21A6.48,6.48,0,0,0,571.8,350.33Z"/>
  <path class="cls-24" d="M585.69,361.37l-1.52-3.86h-4.88l-1.5,3.86h-1.44l4.82-12.18h1.19l4.79,12.18Zm-2-5.12-1.42-3.76c-.18-.48-.37-1.06-.57-1.75a15,15,0,0,1-.52,1.75l-1.43,3.76Z"/>
  <path class="cls-24" d="M589.51,361.37V349.25h1.42v10.84h5.37v1.28Z"/>
  <path class="cls-24" d="M599.05,361.37V349.25h1.41v12.12Z"/>
  <path class="cls-24" d="M611.87,361.37H603.5v-1.1l6.46-9.76H603.7v-1.26h8v1.1l-6.47,9.74h6.65Z"/>
  <path class="cls-24" d="M622.57,361.37l-1.52-3.86h-4.88l-1.5,3.86h-1.43l4.81-12.18h1.19L624,361.37Zm-2-5.12-1.42-3.76c-.18-.48-.37-1.06-.56-1.75a17.42,17.42,0,0,1-.53,1.75l-1.43,3.76Z"/>
  <path class="cls-24" d="M636.11,355.19a6.1,6.1,0,0,1-1.63,4.59,6.53,6.53,0,0,1-4.72,1.59h-3.37V349.25h3.73a6,6,0,0,1,4.42,1.56A5.92,5.92,0,0,1,636.11,355.19Zm-1.5.05a4.88,4.88,0,0,0-1.19-3.57,4.78,4.78,0,0,0-3.56-1.21h-2.05v9.69h1.72a5.25,5.25,0,0,0,3.81-1.24A4.88,4.88,0,0,0,634.61,355.24Z"/>
  <path class="cls-24" d="M647.17,361.37l-1.52-3.86h-4.88l-1.5,3.86h-1.43l4.81-12.18h1.19l4.79,12.18Zm-2-5.12-1.42-3.76c-.18-.48-.37-1.06-.56-1.75a17.42,17.42,0,0,1-.53,1.75l-1.43,3.76Z"/>
  <text class="cls-14" transform="matrix(1, 0, 0, 1, 622.73999, 490.140015)" style="white-space: pre;">TRUE WORK</text>
  <path class="cls-25" d="M61.9,1216.78,57.77,1206H57.7c.08.85.12,1.86.12,3v7.71H56.51v-12.13h2.13l3.86,10h.06l3.9-10h2.11v12.13H67.16V1209c0-.9,0-1.87.11-2.92h-.06L63,1216.78Z"/>
  <path class="cls-25" d="M72.6,1216.78v-12.13H74v12.13Z"/>
  <path class="cls-25" d="M87.55,1216.78H85.93l-6.65-10.18h-.07c.09,1.2.13,2.29.13,3.29v6.89H78v-12.13h1.6l6.64,10.14h.06c0-.15,0-.63-.07-1.44s-.06-1.39,0-1.74v-7h1.32Z"/>
  <path class="cls-25" d="M91.58,1216.78v-12.13H93v12.13Z"/>
  <path class="cls-25" d="M103.9,1213.55a3,3,0,0,1-1.17,2.5,5.06,5.06,0,0,1-3.17.9,8,8,0,0,1-3.33-.56V1215a8.63,8.63,0,0,0,1.63.5,8.81,8.81,0,0,0,1.75.18,3.61,3.61,0,0,0,2.14-.53,1.78,1.78,0,0,0,.71-1.49,1.93,1.93,0,0,0-.25-1,2.45,2.45,0,0,0-.85-.74,12,12,0,0,0-1.81-.77,5.7,5.7,0,0,1-2.43-1.43,3.17,3.17,0,0,1-.73-2.17,2.68,2.68,0,0,1,1.06-2.23,4.4,4.4,0,0,1,2.8-.83,8.33,8.33,0,0,1,3.34.66l-.44,1.23a7.63,7.63,0,0,0-2.94-.63,2.87,2.87,0,0,0-1.76.48,1.59,1.59,0,0,0-.63,1.34,2.09,2.09,0,0,0,.23,1,2.28,2.28,0,0,0,.79.74,10.21,10.21,0,0,0,1.7.74,6.61,6.61,0,0,1,2.63,1.46A2.82,2.82,0,0,1,103.9,1213.55Z"/>
  <path class="cls-25" d="M110.82,1216.78H109.4v-10.87h-3.86v-1.26h9.14v1.26h-3.86Z"/>
  <path class="cls-25" d="M124,1216.78h-6.79v-12.13H124v1.26h-5.37v3.9h5v1.25h-5v4.46H124Zm-4.66-13.31c.26-.34.55-.75.86-1.24s.55-.91.73-1.27h1.68v.18a11.59,11.59,0,0,1-1.09,1.32,11.41,11.41,0,0,1-1.26,1.22h-.92Z"/>
  <path class="cls-25" d="M128.78,1211.74v5h-1.42v-12.13h3.34a5.3,5.3,0,0,1,3.32.86,3.09,3.09,0,0,1,1.07,2.57,3.22,3.22,0,0,1-2.45,3.25l3.3,5.45h-1.67l-3-5Zm0-1.21h1.94a3.34,3.34,0,0,0,2.2-.6,2.19,2.19,0,0,0,.7-1.78,2,2,0,0,0-.71-1.73,3.92,3.92,0,0,0-2.29-.53h-1.84Z"/>
  <path class="cls-25" d="M138.59,1216.78v-12.13H140v12.13Z"/>
  <path class="cls-25" d="M154.61,1210.7a6.69,6.69,0,0,1-1.48,4.58A5.23,5.23,0,0,1,149,1217a5.3,5.3,0,0,1-4.16-1.64,6.75,6.75,0,0,1-1.46-4.63,6.63,6.63,0,0,1,1.47-4.59,5.31,5.31,0,0,1,4.16-1.63,5.22,5.22,0,0,1,4.1,1.66A6.67,6.67,0,0,1,154.61,1210.7Zm-9.71,0a5.77,5.77,0,0,0,1,3.74,3.77,3.77,0,0,0,3.07,1.27,3.69,3.69,0,0,0,3-1.27,7.22,7.22,0,0,0,0-7.45,3.69,3.69,0,0,0-3.05-1.27A3.78,3.78,0,0,0,146,1207,5.69,5.69,0,0,0,144.9,1210.7Z"/>
  <path class="cls-25" d="M75.72,1231.69a6.12,6.12,0,0,1-1.64,4.59,6.48,6.48,0,0,1-4.71,1.59H66v-12.13h3.73a6,6,0,0,1,4.42,1.57A5.92,5.92,0,0,1,75.72,1231.69Zm-1.5,0a4.84,4.84,0,0,0-1.2-3.57,4.77,4.77,0,0,0-3.55-1.21H67.41v9.69h1.72a5.25,5.25,0,0,0,3.81-1.24A4.89,4.89,0,0,0,74.22,1231.74Z"/>
  <path class="cls-25" d="M86.77,1237.87,85.25,1234H80.37l-1.5,3.86H77.44l4.81-12.18h1.2l4.79,12.18Zm-2-5.13L83.4,1229a17.26,17.26,0,0,1-.57-1.75,17.18,17.18,0,0,1-.52,1.75l-1.44,3.75Z"/>
  <path class="cls-25" d="M102.58,1234.64a3,3,0,0,1-1.16,2.5,5.08,5.08,0,0,1-3.17.9,8,8,0,0,1-3.33-.56v-1.36a8.63,8.63,0,0,0,1.63.5,8.74,8.74,0,0,0,1.75.18,3.57,3.57,0,0,0,2.13-.53,1.76,1.76,0,0,0,.72-1.49,2,2,0,0,0-.25-1,2.54,2.54,0,0,0-.85-.74,12.19,12.19,0,0,0-1.82-.77,5.63,5.63,0,0,1-2.42-1.44,3.12,3.12,0,0,1-.73-2.16,2.7,2.7,0,0,1,1-2.23,4.44,4.44,0,0,1,2.8-.83,8.3,8.3,0,0,1,3.34.66l-.44,1.23a7.55,7.55,0,0,0-2.93-.63,2.85,2.85,0,0,0-1.76.48,1.59,1.59,0,0,0-.63,1.34,2.09,2.09,0,0,0,.23,1,2.28,2.28,0,0,0,.79.74,10,10,0,0,0,1.69.74,6.67,6.67,0,0,1,2.64,1.46A2.85,2.85,0,0,1,102.58,1234.64Z"/>
  <path class="cls-25" d="M113.41,1237.87,111.9,1234H107l-1.5,3.86h-1.43l4.82-12.18h1.19l4.79,12.18Zm-2-5.13L110,1229c-.18-.48-.37-1.06-.57-1.75A17.18,17.18,0,0,1,109,1229l-1.44,3.75Z"/>
  <path class="cls-25" d="M126.43,1225.74v7.85a4.26,4.26,0,0,1-1.25,3.26,4.85,4.85,0,0,1-3.46,1.19,4.59,4.59,0,0,1-3.4-1.2,4.38,4.38,0,0,1-1.21-3.28v-7.82h1.42v7.92a3.13,3.13,0,0,0,.83,2.33,3.38,3.38,0,0,0,2.45.81,3.21,3.21,0,0,0,2.37-.82,3.1,3.1,0,0,0,.84-2.34v-7.9Zm-5.87-1.18a12.43,12.43,0,0,0,.86-1.24c.31-.49.55-.91.73-1.27h1.69v.18a11.85,11.85,0,0,1-1.1,1.32,12.42,12.42,0,0,1-1.25,1.22h-.93Z"/>
  <path class="cls-25" d="M140.06,1231.69a6.11,6.11,0,0,1-1.63,4.59,6.48,6.48,0,0,1-4.71,1.59h-3.38v-12.13h3.73a6,6,0,0,1,4.42,1.57A5.92,5.92,0,0,1,140.06,1231.69Zm-1.5,0a4.84,4.84,0,0,0-1.19-3.57,4.77,4.77,0,0,0-3.55-1.21h-2.06v9.69h1.72a5.25,5.25,0,0,0,3.81-1.24A4.88,4.88,0,0,0,138.56,1231.74Z"/>
  <path class="cls-25" d="M150.25,1237.87h-6.79v-12.13h6.79V1227h-5.37v3.9h5.05v1.25h-5.05v4.46h5.37Z"/>
  <path class="cls-25" d="M233.41,1205h4.14v5.9a13.4,13.4,0,0,1-2,.46,14.35,14.35,0,0,1-2.31.16,5.64,5.64,0,0,1-4.31-1.64,6.42,6.42,0,0,1-1.54-4.59,6.85,6.85,0,0,1,.76-3.31,5.14,5.14,0,0,1,2.2-2.18,7.1,7.1,0,0,1,3.35-.75,9.37,9.37,0,0,1,3.64.71l-.55,1.25a8.07,8.07,0,0,0-3.18-.7,4.54,4.54,0,0,0-3.47,1.32,5.08,5.08,0,0,0-1.25,3.66,5.2,5.2,0,0,0,1.2,3.72,4.63,4.63,0,0,0,3.54,1.27,10.18,10.18,0,0,0,2.47-.29v-3.73h-2.72Z"/>
  <path class="cls-25" d="M251.73,1205.23a6.64,6.64,0,0,1-1.48,4.58,5.23,5.23,0,0,1-4.11,1.67,5.3,5.3,0,0,1-4.16-1.64,6.72,6.72,0,0,1-1.46-4.62,6.59,6.59,0,0,1,1.47-4.59,5.31,5.31,0,0,1,4.16-1.64,5.22,5.22,0,0,1,4.1,1.66A6.64,6.64,0,0,1,251.73,1205.23Zm-9.71,0a5.69,5.69,0,0,0,1.06,3.74,4.32,4.32,0,0,0,6.12,0,5.85,5.85,0,0,0,1-3.74,5.74,5.74,0,0,0-1-3.71,3.71,3.71,0,0,0-3-1.26,3.75,3.75,0,0,0-3.07,1.27A5.63,5.63,0,0,0,242,1205.23Z"/>
  <path class="cls-25" d="M265.7,1205.23a6.64,6.64,0,0,1-1.48,4.58,5.21,5.21,0,0,1-4.11,1.67,5.28,5.28,0,0,1-4.15-1.64,6.67,6.67,0,0,1-1.47-4.62,6.59,6.59,0,0,1,1.47-4.59,5.32,5.32,0,0,1,4.17-1.64,5.2,5.2,0,0,1,4.09,1.66A6.64,6.64,0,0,1,265.7,1205.23Zm-9.71,0a5.75,5.75,0,0,0,1.06,3.74,4.32,4.32,0,0,0,6.12,0,7.25,7.25,0,0,0,0-7.45,3.69,3.69,0,0,0-3-1.26,3.76,3.76,0,0,0-3.08,1.27A5.69,5.69,0,0,0,256,1205.23Z"/>
  <path class="cls-25" d="M274.46,1205h4.14v5.9a13.4,13.4,0,0,1-2,.46,14.48,14.48,0,0,1-2.32.16,5.61,5.61,0,0,1-4.3-1.64,6.42,6.42,0,0,1-1.54-4.59,6.85,6.85,0,0,1,.76-3.31,5.18,5.18,0,0,1,2.19-2.18,7.17,7.17,0,0,1,3.36-.75,9.29,9.29,0,0,1,3.63.71l-.55,1.25a8,8,0,0,0-3.17-.7,4.58,4.58,0,0,0-3.48,1.32,5.12,5.12,0,0,0-1.25,3.66,5.2,5.2,0,0,0,1.21,3.72,4.63,4.63,0,0,0,3.54,1.27,10.24,10.24,0,0,0,2.47-.29v-3.73h-2.72Z"/>
  <path class="cls-25" d="M282.2,1211.31v-12.12h1.42V1210H289v1.27Z"/>
  <path class="cls-25" d="M298.53,1211.31h-6.79v-12.12h6.79v1.25h-5.37v3.9h5v1.25h-5v4.46h5.37Z"/>
  <path class="cls-25" d="M303.16,1209.34l.12.19a19.82,19.82,0,0,1-.62,1.93c-.28.73-.56,1.41-.85,2h-1.05c.15-.57.32-1.28.5-2.13s.31-1.52.38-2Zm-1.7-6.23c0-.75.33-1.12,1-1.12s1,.37,1,1.12a1.17,1.17,0,0,1-.27.83,1,1,0,0,1-.75.29.93.93,0,0,1-.74-.29A1.21,1.21,0,0,1,301.46,1203.11Z"/>
  <path class="cls-25" d="M251.26,1232.4l-1.52-3.85h-4.88l-1.5,3.85h-1.43l4.81-12.17h1.19l4.79,12.17Zm-2-5.12-1.42-3.76c-.18-.48-.37-1.06-.56-1.75a17.42,17.42,0,0,1-.53,1.75l-1.43,3.76Z"/>
  <path class="cls-25" d="M262.8,1223.81a3.38,3.38,0,0,1-1.26,2.83,5.73,5.73,0,0,1-3.61,1H256.5v4.77h-1.42v-12.12h3.16C261.28,1220.28,262.8,1221.45,262.8,1223.81Zm-6.3,2.61h1.27a4.8,4.8,0,0,0,2.73-.6,2.24,2.24,0,0,0,.84-1.94,2.12,2.12,0,0,0-.79-1.8,4.18,4.18,0,0,0-2.47-.59H256.5Z"/>
  <path class="cls-25" d="M273.76,1223.81a3.38,3.38,0,0,1-1.26,2.83,5.75,5.75,0,0,1-3.61,1h-1.44v4.77H266v-12.12h3.15C272.24,1220.28,273.76,1221.45,273.76,1223.81Zm-6.31,2.61h1.28a4.78,4.78,0,0,0,2.72-.6,2.24,2.24,0,0,0,.84-1.94,2.1,2.1,0,0,0-.79-1.8,4.16,4.16,0,0,0-2.46-.59h-1.59Z"/>
  <path class="cls-25" d="M277,1232.4v-12.12h1.42v10.85h5.37v1.27Z"/>
  <path class="cls-25" d="M293.32,1232.4h-6.79v-12.12h6.79v1.25H288v3.9H293v1.25H288v4.46h5.37Z"/>
  <text class="cls-15" transform="matrix(1, 0, 0, 1, 419.049988, 1674.670044)" style="white-space: pre;">SERPRO</text>
  <path class="cls-24" d="M617.31,1331.4h-1.62L609,1321.22H609c.09,1.2.13,2.29.13,3.29v6.89h-1.3v-12.13h1.6l6.64,10.14h.06c0-.15,0-.63-.07-1.44s0-1.39,0-1.74v-7h1.32Z"/>
  <path class="cls-24" d="M629,1331.4l-1.52-3.86H622.6l-1.5,3.86h-1.43l4.81-12.18h1.2l4.79,12.18Zm-2.73-13.11a1.71,1.71,0,0,1-.7-.16,6,6,0,0,1-.67-.34c-.22-.12-.43-.24-.64-.34a1.32,1.32,0,0,0-.58-.15.77.77,0,0,0-.63.25,1.75,1.75,0,0,0-.33.75h-.82a2.84,2.84,0,0,1,.59-1.57,1.54,1.54,0,0,1,1.24-.57,1.92,1.92,0,0,1,.74.15,7.24,7.24,0,0,1,.68.35l.63.34a1.24,1.24,0,0,0,.56.15.72.72,0,0,0,.61-.25,2,2,0,0,0,.33-.76h.82a2.94,2.94,0,0,1-.58,1.58A1.53,1.53,0,0,1,626.27,1318.29Zm.77,8-1.41-3.75a17.26,17.26,0,0,1-.57-1.75,15.15,15.15,0,0,1-.53,1.75l-1.43,3.75Z"/>
  <path class="cls-24" d="M643.4,1325.32a6.69,6.69,0,0,1-1.48,4.58,5.23,5.23,0,0,1-4.11,1.67,5.3,5.3,0,0,1-4.16-1.64,6.75,6.75,0,0,1-1.46-4.63,6.63,6.63,0,0,1,1.47-4.59,5.31,5.31,0,0,1,4.16-1.63,5.18,5.18,0,0,1,4.1,1.66A6.67,6.67,0,0,1,643.4,1325.32Zm-9.71,0a5.77,5.77,0,0,0,1,3.74,3.77,3.77,0,0,0,3.07,1.27,3.69,3.69,0,0,0,3.05-1.27,7.22,7.22,0,0,0,0-7.45,3.69,3.69,0,0,0-3-1.27,3.78,3.78,0,0,0-3.08,1.28A5.67,5.67,0,0,0,633.69,1325.32Z"/>
  <path class="cls-24" d="M575.89,1352.49v-12.13h1.42v10.85h5.37v1.28Z"/>
  <path class="cls-24" d="M596,1346.41a6.69,6.69,0,0,1-1.48,4.58,5.23,5.23,0,0,1-4.12,1.67,5.29,5.29,0,0,1-4.15-1.64,6.75,6.75,0,0,1-1.46-4.63,6.63,6.63,0,0,1,1.47-4.59,5.28,5.28,0,0,1,4.16-1.63,5.18,5.18,0,0,1,4.1,1.66A6.67,6.67,0,0,1,596,1346.41Zm-9.71,0a5.77,5.77,0,0,0,1.05,3.74,3.76,3.76,0,0,0,3.06,1.27,3.71,3.71,0,0,0,3.06-1.27,7.22,7.22,0,0,0,0-7.45,3.69,3.69,0,0,0-3.05-1.27,3.78,3.78,0,0,0-3.08,1.28A5.67,5.67,0,0,0,586.3,1346.41Z"/>
  <path class="cls-24" d="M604.62,1341.45a4,4,0,0,0-3.17,1.33,5.33,5.33,0,0,0-1.16,3.65,5.47,5.47,0,0,0,1.12,3.68,4,4,0,0,0,3.19,1.29,11.12,11.12,0,0,0,2.91-.45v1.23a8.86,8.86,0,0,1-3.12.48,5.33,5.33,0,0,1-4.16-1.63,6.69,6.69,0,0,1-1.46-4.62,7.28,7.28,0,0,1,.7-3.29,5,5,0,0,1,2-2.17,6.15,6.15,0,0,1,3.13-.76,7.68,7.68,0,0,1,3.35.69l-.6,1.22A6.41,6.41,0,0,0,604.62,1341.45Z"/>
  <path class="cls-24" d="M618.51,1352.49l-1.52-3.86h-4.88l-1.5,3.86h-1.43l4.81-12.18h1.19l4.79,12.18Zm-2-5.13-1.42-3.75c-.18-.48-.37-1.06-.56-1.75a17.42,17.42,0,0,1-.53,1.75l-1.43,3.75Z"/>
  <path class="cls-24" d="M622.33,1352.49v-12.13h1.42v10.85h5.37v1.28Z"/>
  <path class="cls-24" d="M631.87,1352.49v-12.13h1.42v12.13Z"/>
  <path class="cls-24" d="M644.69,1352.49h-8.37v-1.1l6.46-9.76h-6.26v-1.27h8v1.11l-6.47,9.74h6.65Z"/>
  <path class="cls-24" d="M655.39,1352.49l-1.52-3.86H649l-1.5,3.86h-1.43l4.81-12.18h1.19l4.79,12.18Zm-2-5.13-1.42-3.75c-.18-.48-.37-1.06-.56-1.75a15.15,15.15,0,0,1-.53,1.75l-1.43,3.75Z"/>
  <path class="cls-24" d="M668.93,1346.31a6.11,6.11,0,0,1-1.63,4.59,6.48,6.48,0,0,1-4.71,1.59h-3.38v-12.13h3.73a5.45,5.45,0,0,1,6,6Zm-1.5,0a4.88,4.88,0,0,0-1.19-3.58,4.81,4.81,0,0,0-3.55-1.2h-2.06v9.69h1.72a5.25,5.25,0,0,0,3.81-1.24A4.9,4.9,0,0,0,667.43,1346.36Z"/>
  <path class="cls-24" d="M680,1352.49l-1.52-3.86h-4.88l-1.5,3.86h-1.43l4.81-12.18h1.2l4.79,12.18Zm-2-5.13-1.41-3.75a17.26,17.26,0,0,1-.57-1.75,15.15,15.15,0,0,1-.53,1.75l-1.43,3.75Z"/>
  <text class="cls-26" transform="matrix(1, 0, 0, 1, 57.139999, 766.76001)" style="white-space: pre;">ARMAZENAMENTO</text>
  <text class="cls-26" transform="matrix(1, 0, 0, 1, 537.849976, 1775.930054)" style="white-space: pre;">DIGITALIZAÇÃO DE <tspan x="0" y="23.77">SERVIÇOS PÚBLICOS</tspan></text>
  <text class="cls-26" transform="matrix(1, 0, 0, 1, 566.700012, 1104.880005)" style="white-space: pre;">FORNECIMENTO DE<tspan x="0" y="23.77">INFORMAÇÕES</tspan></text>
  <path d="M79.6,1006.5v5.88H78V998.24h3.88a6.07,6.07,0,0,1,3.85,1,3.62,3.62,0,0,1,1.24,3,3.75,3.75,0,0,1-2.85,3.79l3.84,6.36H86l-3.42-5.88Zm0-1.41h2.25a3.89,3.89,0,0,0,2.55-.69,2.58,2.58,0,0,0,.82-2.08,2.37,2.37,0,0,0-.83-2,4.51,4.51,0,0,0-2.66-.62H79.6Z"/>
  <path d="M99.09,1012.38l-1.76-4.5H91.66l-1.74,4.5H88.25l5.59-14.2h1.39l5.56,14.2Zm-2.28-6L95.17,1002q-.32-.82-.66-2a16.73,16.73,0,0,1-.61,2l-1.66,4.38Z"/>
  <path d="M110.71,1008.62a3.48,3.48,0,0,1-1.35,2.91,5.93,5.93,0,0,1-3.68,1,9.12,9.12,0,0,1-3.87-.65v-1.58a10.55,10.55,0,0,0,1.9.58,10.07,10.07,0,0,0,2,.21,4.16,4.16,0,0,0,2.48-.62,2.07,2.07,0,0,0,.83-1.74,2.18,2.18,0,0,0-.3-1.2,2.66,2.66,0,0,0-1-.87,14.94,14.94,0,0,0-2.11-.9,6.83,6.83,0,0,1-2.82-1.67,3.73,3.73,0,0,1-.84-2.53,3.14,3.14,0,0,1,1.23-2.6,5.11,5.11,0,0,1,3.25-1,9.49,9.49,0,0,1,3.87.77l-.51,1.43a8.77,8.77,0,0,0-3.4-.74,3.26,3.26,0,0,0-2,.57,1.84,1.84,0,0,0-.74,1.55,2.43,2.43,0,0,0,.27,1.21,2.57,2.57,0,0,0,.92.86,10.75,10.75,0,0,0,2,.86,7.64,7.64,0,0,1,3.06,1.71A3.33,3.33,0,0,1,110.71,1008.62Z"/>
  <path d="M118,1012.38h-1.65V999.7h-4.48v-1.46h10.61v1.46H118Z"/>
  <path d="M126.21,1006.5v5.88h-1.65V998.24h3.88a6.07,6.07,0,0,1,3.85,1,3.59,3.59,0,0,1,1.24,3,3.75,3.75,0,0,1-2.84,3.79l3.84,6.36h-1.95l-3.42-5.88Zm0-1.41h2.25a3.89,3.89,0,0,0,2.55-.69,2.58,2.58,0,0,0,.82-2.08,2.37,2.37,0,0,0-.83-2,4.51,4.51,0,0,0-2.66-.62h-2.13Z"/>
  <path d="M144.69,1012.38h-7.88V998.24h7.88v1.46h-6.24v4.55h5.86v1.46h-5.86v5.2h6.24Z"/>
  <path d="M156.71,1012.38l-1.76-4.5h-5.66l-1.75,4.5h-1.66l5.59-14.2h1.38l5.57,14.2Zm-2.27-6L152.8,1002a19,19,0,0,1-.66-2,18.72,18.72,0,0,1-.61,2l-1.66,4.38Z"/>
  <path d="M166.62,1012.38l-4.8-12.54h-.08c.09,1,.14,2.18.14,3.54v9h-1.52V998.24h2.48l4.47,11.66h.08l4.52-11.66h2.46v14.14h-1.65v-9.11c0-1,.05-2.18.14-3.41h-.08l-4.84,12.52Z"/>
  <path d="M186.13,1012.38h-7.89V998.24h7.89v1.46h-6.24v4.55h5.86v1.46h-5.86v5.2h6.24Z"/>
  <path d="M200.31,1012.38h-1.88l-7.73-11.87h-.08c.11,1.39.16,2.67.16,3.83v8h-1.52V998.24h1.86l7.71,11.82h.08c0-.18,0-.73-.09-1.68s-.06-1.62,0-2v-8.11h1.54Z"/>
  <path d="M208.55,1012.38H206.9V999.7h-4.48v-1.46H213v1.46h-4.48Z"/>
  <path d="M227.43,1005.29a7.77,7.77,0,0,1-1.72,5.34,6.93,6.93,0,0,1-9.59,0,9.33,9.33,0,0,1,0-10.74A6.16,6.16,0,0,1,221,998a6,6,0,0,1,4.76,1.93A7.79,7.79,0,0,1,227.43,1005.29Zm-11.27,0a6.76,6.76,0,0,0,1.22,4.36,4.35,4.35,0,0,0,3.56,1.48,4.3,4.3,0,0,0,3.55-1.48,8.47,8.47,0,0,0,0-8.69,4.27,4.27,0,0,0-3.53-1.47,4.37,4.37,0,0,0-3.58,1.48A6.68,6.68,0,0,0,216.16,1005.29Z"/>
  <path d="M89.24,1028.94a7.14,7.14,0,0,1-1.9,5.36,7.54,7.54,0,0,1-5.47,1.85H78V1022h4.34a6.35,6.35,0,0,1,6.95,6.93Zm-1.74.06a5.69,5.69,0,0,0-1.39-4.17,5.57,5.57,0,0,0-4.12-1.4H79.6v11.3h2a6.07,6.07,0,0,0,4.42-1.45A5.74,5.74,0,0,0,87.5,1029Z"/>
  <path d="M100.28,1036.15H92.39V1022h7.89v1.46H94V1028H99.9v1.46H94v5.2h6.24Z"/>
  <path d="M114.61,1023.28a4.61,4.61,0,0,0-3.68,1.55,6.25,6.25,0,0,0-1.35,4.25,6.38,6.38,0,0,0,1.3,4.29,4.63,4.63,0,0,0,3.71,1.51,12.49,12.49,0,0,0,3.38-.53v1.44a10.35,10.35,0,0,1-3.63.55,6.14,6.14,0,0,1-4.82-1.89,7.83,7.83,0,0,1-1.7-5.39,8.44,8.44,0,0,1,.82-3.83,5.78,5.78,0,0,1,2.36-2.53,7.08,7.08,0,0,1,3.63-.89,8.81,8.81,0,0,1,3.89.81l-.7,1.41A7.53,7.53,0,0,0,114.61,1023.28Z"/>
  <path d="M133.33,1029.06a7.82,7.82,0,0,1-1.72,5.34,6,6,0,0,1-4.77,1.94,6.11,6.11,0,0,1-4.83-1.91,7.84,7.84,0,0,1-1.69-5.39,7.71,7.71,0,0,1,1.7-5.35,6.14,6.14,0,0,1,4.83-1.9,6,6,0,0,1,4.76,1.93A7.79,7.79,0,0,1,133.33,1029.06Zm-11.27,0a6.69,6.69,0,0,0,1.22,4.36,4.35,4.35,0,0,0,3.56,1.48,4.3,4.3,0,0,0,3.55-1.48,6.85,6.85,0,0,0,1.19-4.36,6.75,6.75,0,0,0-1.19-4.33,4.3,4.3,0,0,0-3.54-1.47,4.37,4.37,0,0,0-3.57,1.48A6.62,6.62,0,0,0,122.06,1029.06Z"/>
  <path d="M147.53,1036.15h-1.88l-7.73-11.87h-.08c.11,1.39.16,2.67.16,3.83v8h-1.52V1022h1.86l7.7,11.82h.08c0-.18,0-.74-.08-1.68s-.07-1.62,0-2V1022h1.54Z"/>
  <path d="M155.77,1036.15h-1.65v-12.68h-4.48V1022h10.6v1.46h-4.47Z"/>
  <path d="M171.26,1036.15l-1.76-4.5h-5.67l-1.74,4.5h-1.66L166,1022h1.38l5.56,14.2Zm-2.27-6-1.65-4.38c-.21-.55-.43-1.23-.65-2a21.24,21.24,0,0,1-.61,2l-1.67,4.38Z"/>
  <path d="M179.26,1036.15h-1.64v-12.68h-4.48V1022h10.6v1.46h-4.48Z"/>
  <path d="M198.14,1029.06a7.77,7.77,0,0,1-1.72,5.34,6,6,0,0,1-4.77,1.94,6.09,6.09,0,0,1-4.82-1.91,7.85,7.85,0,0,1-1.7-5.39,7.75,7.75,0,0,1,1.7-5.35,6.16,6.16,0,0,1,4.84-1.9,6,6,0,0,1,4.76,1.93A7.79,7.79,0,0,1,198.14,1029.06Zm-11.27,0a6.69,6.69,0,0,0,1.23,4.36,5,5,0,0,0,7.1,0,8.47,8.47,0,0,0,0-8.69,4.27,4.27,0,0,0-3.53-1.47,4.34,4.34,0,0,0-3.57,1.48A6.62,6.62,0,0,0,186.87,1029.06Z"/>
  <path d="M209.27,1032.39a3.48,3.48,0,0,1-1.35,2.91,5.85,5.85,0,0,1-3.68,1,9.3,9.3,0,0,1-3.87-.64v-1.59a10.55,10.55,0,0,0,1.9.58,10.07,10.07,0,0,0,2,.21,4.16,4.16,0,0,0,2.48-.62,2.07,2.07,0,0,0,.83-1.74,2.18,2.18,0,0,0-.3-1.2,2.75,2.75,0,0,0-1-.87,14.44,14.44,0,0,0-2.11-.9,6.72,6.72,0,0,1-2.81-1.67,3.68,3.68,0,0,1-.85-2.52,3.16,3.16,0,0,1,1.23-2.61,5.13,5.13,0,0,1,3.25-1,9.53,9.53,0,0,1,3.88.77l-.52,1.43a8.72,8.72,0,0,0-3.4-.73,3.25,3.25,0,0,0-2,.56,1.84,1.84,0,0,0-.74,1.55,2.41,2.41,0,0,0,.27,1.21,2.57,2.57,0,0,0,.92.86,11.75,11.75,0,0,0,2,.87,7.65,7.65,0,0,1,3.07,1.7A3.36,3.36,0,0,1,209.27,1032.39Z"/>
  <line class="cls-27" x1="497.85" y1="1150.24" x2="541.99" y2="1112.28"/>
  <line class="cls-18" x1="590.33" y1="790.77" x2="537.11" y2="843.99"/>
  <text class="cls-28" transform="matrix(1, 0, 0, 1, 539.950012, 1827.26001)" style="white-space: pre;">1</text>
  <text class="cls-26" transform="matrix(1, 0, 0, 1, 39.509998, 1516.380005)" style="white-space: pre;">TEMPERATURA</text>
  <text class="cls-28" transform="matrix(1, 0, 0, 1, 44.310001, 1549.599976)" style="white-space: pre;">1</text>
  <rect class="cls-13" x="19" y="1493.34" width="15.22" height="56.38"/>
  <text class="cls-26" transform="matrix(1, 0, 0, 1, 370.529999, 1883.109985)" style="white-space: pre;">FLUXO DE PESSOAS</text>
  <text class="cls-29" transform="matrix(1, 0, 0, 1, 374.980011, 1906.329956)" style="white-space: pre;">2</text>
  <rect class="cls-9" x="349.66" y="1860.07" width="15.22" height="56.38"/>
  <rect class="cls-11" x="512.63" y="1760.36" width="15.22" height="72.24"/>
  <text class="cls-28" transform="matrix(1, 0, 0, 1, 78.120003, 1068.560059)" style="white-space: pre;">2</text>
  <text class="cls-28" transform="matrix(1, 0, 0, 1, 64.32, 795.559998)" style="white-space: pre;">1</text>
  <text class="cls-28" transform="matrix(1, 0, 0, 1, 564.47998, 1157.819946)" style="white-space: pre;">1</text>
  <text class="cls-28" transform="matrix(1, 0, 0, 1, 486.200012, 1514.680054)" style="white-space: pre;">1</text>
  <rect class="cls-22" x="46.97" y="995.89" width="15.22" height="72.24"/>
  <rect class="cls-10" x="34.73" y="741.16" width="15.22" height="72.24"/>
  <rect class="cls-12" x="540.12" y="1085.58" width="15.22" height="72.24"/>
  <rect class="cls-23" x="456.26" y="1446.43" width="15.22" height="72.24"/>
  <text class="cls-28" transform="matrix(1, 0, 0, 1, 617.650024, 836.619995)" style="white-space: pre;">2</text>
  <rect class="cls-19" x="590.33" y="769.72" width="15.22" height="72.24"/>
  <text class="cls-26" transform="matrix(1, 0, 0, 1, 615.619995, 785.5)" style="white-space: pre;">IDENTIFICAÇÃO<tspan x="0" y="23.77">DE PESSOAS</tspan></text>
  <line class="cls-30" x1="357.28" y1="1868.25" x2="292.88" y2="1854.47"/>
  <line class="cls-6" x1="517.54" y1="1794.26" x2="475.55" y2="1739.09"/>
  <text class="cls-26" transform="matrix(1, 0, 0, 1, 49.419998, 66.849998)" style="white-space: pre;">TELEMEDICINA</text>
  <text class="cls-28" transform="matrix(1, 0, 0, 1, 55.25, 102.5)" style="white-space: pre;">11</text>
  <rect class="cls-21" x="22.66" y="46.73" width="15.22" height="56.38"/>
  <line class="cls-2" x1="101.11" y1="206.12" x2="26.9" y2="101.69"/>
  <text class="cls-26" transform="matrix(1, 0, 0, 1, 482.820007, 1464.219971)" style="white-space: pre;">MAPEAMENTO DA EVOLUÇÃO <tspan x="0" y="23.77">DA COVID 19</tspan></text>
  <line class="cls-8" x1="26.61" y1="1494.34" x2="187.88" y2="1465.15"/>
  <line class="cls-20" x1="464.11" y1="1446.43" x2="557.49" y2="1376.12"/>
  <line class="cls-5" x1="44.31" y1="807.99" x2="92.94" y2="843.99"/>
  <line class="cls-31" x1="54.59" y1="1061.73" x2="76.01" y2="1106.65"/>
  <g class="cls-33">
    <text class="cls-34" transform="translate(389.12 954.61)" style="white-space: pre;">SERPRO</text>
  </g>
</svg>