<svg id="Layer_1" data-name="Layer 1" xmlns="http://www.w3.org/2000/svg" viewBox="0 0 768 1032.74"><defs><style>.cls-1{fill:#030321;}.cls-2{font-size:21.44px;font-family:OpenSans-Bold, Open Sans;font-weight:700;text-decoration:underline;}.cls-10,.cls-2,.cls-5{fill:#fff;}.cls-11,.cls-13,.cls-15,.cls-17,.cls-19,.cls-21,.cls-23,.cls-25,.cls-27,.cls-29,.cls-3,.cls-31,.cls-33,.cls-35,.cls-37,.cls-39,.cls-42,.cls-44,.cls-46,.cls-48,.cls-50,.cls-6,.cls-8{fill:none;stroke-width:2.24px;}.cls-3{stroke:#bc1d46;}.cls-4{fill:#bc1d46;}.cls-5{font-size:19.65px;font-family:OpenSans, Open Sans;}.cls-6{stroke:#df4c46;}.cls-7{fill:#df4c46;}.cls-8{stroke:#d74fa4;}.cls-9{fill:#d74fa4;}.cls-11{stroke:#ecfdb2;}.cls-12{fill:#ecfdb2;}.cls-13{stroke:#3a5cdb;}.cls-14{fill:#3a5cdb;}.cls-15{stroke:#57c7eb;}.cls-16{fill:#57c7eb;}.cls-17{stroke:#6e92f3;}.cls-18{fill:#6e92f3;}.cls-19{stroke:#83dfd3;}.cls-20{fill:#83dfd3;}.cls-21{stroke:#c5f736;}.cls-22{fill:#c5f736;}.cls-23{stroke:#02bf6d;}.cls-24{fill:#02bf6d;}.cls-25{stroke:#83e084;}.cls-26{fill:#83e084;}.cls-27{stroke:#f6a020;}.cls-28{fill:#f6a020;}.cls-29{stroke:#b4bdcf;}.cls-30{fill:#b4bdcf;}.cls-31{stroke:#fa9c85;}.cls-32{fill:#fa9c85;}.cls-33{stroke:#a995a3;}.cls-34{fill:#a995a3;}.cls-35{stroke:#c0e10f;}.cls-36{fill:#c0e10f;}.cls-37{stroke:#ff0;}.cls-38{fill:#ff0;}.cls-39{stroke:#dd4345;}.cls-40{fill:#dd4345;}.cls-41{letter-spacing:0.58em;}.cls-42{stroke:#e60000;}.cls-43{fill:#e60000;}.cls-44{stroke:#fb3d00;}.cls-45{fill:#fb3d00;}.cls-46{stroke:#f67f47;}.cls-47{fill:#f67f47;}.cls-48{stroke:#83e0bb;}.cls-49{fill:#83e0bb;}.cls-50{stroke:#7578ff;}.cls-51{fill:#7578ff;}</style></defs><rect id="backgorund" class="cls-1" width="768" height="1032.74"/><text class="cls-2" transform="translate(686.67 56.73)">18,6%</text><line class="cls-3" x1="324.91" y1="52.63" x2="666.12" y2="52.63"/><rect class="cls-4" x="324.57" y="50.45" width="0.67" height="4.37"/><circle class="cls-4" cx="665.87" cy="52.63" r="5.05"/><text class="cls-5" transform="translate(236.68 55.92)">INLOCO</text><text class="cls-2" transform="translate(497.75 92.87)">8,3%</text><line class="cls-6" x1="324.91" y1="88.78" x2="475.33" y2="88.78"/><rect class="cls-7" x="324.57" y="86.6" width="0.67" height="4.37"/><circle class="cls-7" cx="475.12" cy="88.78" r="4.21"/><text class="cls-5" transform="translate(145.69 92.07)">NÃO LOCALIZADA</text><text class="cls-2" transform="translate(401.95 137.21)">3,2%</text><line class="cls-8" x1="324.91" y1="133.12" x2="382.26" y2="133.12"/><rect class="cls-9" x="324.57" y="130.93" width="0.67" height="4.37"/><path class="cls-9" d="M382,138.17a5,5,0,1,0-5.05-5A5,5,0,0,0,382,138.17Z"/><path class="cls-10" d="M159.33,114.63a4.65,4.65,0,0,0-3.67,1.54,6.25,6.25,0,0,0-1.34,4.22,6.36,6.36,0,0,0,1.29,4.26,4.64,4.64,0,0,0,3.7,1.5,12.76,12.76,0,0,0,3.36-.53v1.43a10.46,10.46,0,0,1-3.61.55,6.15,6.15,0,0,1-4.81-1.88,7.78,7.78,0,0,1-1.69-5.35,8.34,8.34,0,0,1,.82-3.8,5.77,5.77,0,0,1,2.35-2.51,7.12,7.12,0,0,1,3.62-.89,8.69,8.69,0,0,1,3.87.81l-.69,1.4A7.48,7.48,0,0,0,159.33,114.63Z"/><path class="cls-10" d="M165.75,127.4v-14h1.64v12.55h6.21v1.47Z"/><path class="cls-10" d="M184.85,127.4l-1.76-4.46h-5.64l-1.74,4.46h-1.66l5.57-14.08H181l5.54,14.08Zm-2.27-5.93L181,117.13a19.53,19.53,0,0,1-.66-2,16.62,16.62,0,0,1-.61,2L178,121.47Z"/><path class="cls-10" d="M190.12,121.57v5.83h-1.64v-14h3.87a6.1,6.1,0,0,1,3.83,1,3.6,3.6,0,0,1,1.24,3,3.73,3.73,0,0,1-2.84,3.76l3.83,6.3h-1.94l-3.41-5.83Zm0-1.4h2.25a3.87,3.87,0,0,0,2.54-.69,2.53,2.53,0,0,0,.81-2,2.34,2.34,0,0,0-.82-2,4.48,4.48,0,0,0-2.65-.61h-2.13Z"/><path class="cls-10" d="M212.91,120.37a7.71,7.71,0,0,1-1.71,5.3,6.92,6.92,0,0,1-9.56,0,7.8,7.8,0,0,1-1.69-5.35,7.68,7.68,0,0,1,1.7-5.31,6.13,6.13,0,0,1,4.82-1.89,6,6,0,0,1,4.74,1.92A7.69,7.69,0,0,1,212.91,120.37Zm-11.22,0a6.58,6.58,0,0,0,1.22,4.32,5,5,0,0,0,7.07,0,8.37,8.37,0,0,0,0-8.62,4.26,4.26,0,0,0-3.52-1.47,4.33,4.33,0,0,0-3.56,1.48A6.52,6.52,0,0,0,201.69,120.37Z"/><path class="cls-10" d="M217.49,125.12l.15.22a22.73,22.73,0,0,1-.73,2.23c-.31.85-.64,1.64-1,2.37h-1.2c.17-.67.36-1.49.57-2.47s.35-1.76.44-2.35Zm-2-7.21q0-1.29,1.14-1.29c.79,0,1.19.43,1.19,1.29a1.34,1.34,0,0,1-.32,1,1.12,1.12,0,0,1-.87.34,1.06,1.06,0,0,1-.85-.34A1.38,1.38,0,0,1,215.54,117.91Z"/><path class="cls-10" d="M238.67,120.37a7.71,7.71,0,0,1-1.71,5.3,6.92,6.92,0,0,1-9.56,0,9.21,9.21,0,0,1,0-10.66,6.14,6.14,0,0,1,4.82-1.89,6,6,0,0,1,4.74,1.92A7.69,7.69,0,0,1,238.67,120.37Zm-11.23,0a6.58,6.58,0,0,0,1.22,4.32,5,5,0,0,0,7.08,0,6.77,6.77,0,0,0,1.19-4.33,6.61,6.61,0,0,0-1.19-4.29,4.26,4.26,0,0,0-3.52-1.47,4.33,4.33,0,0,0-3.56,1.48A6.52,6.52,0,0,0,227.44,120.37Z"/><path class="cls-10" d="M241.81,127.4v-14h1.64v14Z"/><path class="cls-10" d="M248.75,125.12l.14.22c-.17.64-.41,1.39-.72,2.23s-.64,1.64-1,2.37H246c.17-.67.37-1.49.57-2.47s.36-1.76.44-2.35Zm-2-7.21c0-.86.38-1.29,1.15-1.29s1.18.43,1.18,1.29a1.3,1.3,0,0,1-.32,1,1.11,1.11,0,0,1-.86.34,1.07,1.07,0,0,1-.86-.34A1.43,1.43,0,0,1,246.79,117.91Z"/><path class="cls-10" d="M265.74,113.38h1.76l-5.08,14H260.8l-5.05-14h1.74l3.24,9.07a24.51,24.51,0,0,1,.88,3,25.39,25.39,0,0,1,.91-3.1Z"/><path class="cls-10" d="M269.44,127.4v-14h1.64v14Z"/><path class="cls-10" d="M283,113.38h1.76l-5.08,14h-1.62l-5.05-14h1.74l3.24,9.07a24.51,24.51,0,0,1,.88,3,27.3,27.3,0,0,1,.91-3.1Z"/><path class="cls-10" d="M298.92,120.37a7.71,7.71,0,0,1-1.71,5.3,6.92,6.92,0,0,1-9.56,0,7.75,7.75,0,0,1-1.69-5.35,7.63,7.63,0,0,1,1.7-5.31,6.12,6.12,0,0,1,4.81-1.89,6,6,0,0,1,4.75,1.92A7.74,7.74,0,0,1,298.92,120.37Zm-11.23,0a6.64,6.64,0,0,0,1.22,4.32,5,5,0,0,0,7.08,0,8.37,8.37,0,0,0,0-8.62,4.28,4.28,0,0,0-3.53-1.47,4.35,4.35,0,0,0-3.56,1.48A6.58,6.58,0,0,0,287.69,120.37Z"/><path class="cls-10" d="M303.5,125.12l.14.22a20.06,20.06,0,0,1-.72,2.23c-.31.85-.64,1.64-1,2.37h-1.21c.18-.67.37-1.49.58-2.47s.35-1.76.44-2.35Zm-2-7.21c0-.86.38-1.29,1.15-1.29s1.18.43,1.18,1.29a1.34,1.34,0,0,1-.31,1,1.13,1.13,0,0,1-.87.34,1,1,0,0,1-.85-.34A1.38,1.38,0,0,1,301.54,117.91Z"/><path class="cls-10" d="M140.79,147.4h-1.64V134.82h-4.46v-1.44h10.56v1.44h-4.46Z"/><path class="cls-10" d="M147.37,147.4v-14H149v14Z"/><path class="cls-10" d="M159.11,147.4,154.33,135h-.08c.09,1,.14,2.15.14,3.51v8.92h-1.52v-14h2.47L159.8,145h.08l4.5-11.57h2.45v14h-1.64v-9c0-1,0-2.17.13-3.38h-.07l-4.82,12.41Z"/><path class="cls-10" d="M172.13,145.12l.14.22a20.06,20.06,0,0,1-.72,2.23c-.31.85-.64,1.64-1,2.37h-1.21c.18-.67.37-1.49.58-2.47s.35-1.76.43-2.35Zm-2-7.21c0-.86.38-1.29,1.15-1.29s1.18.43,1.18,1.29a1.34,1.34,0,0,1-.31,1,1.13,1.13,0,0,1-.87.34,1,1,0,0,1-.85-.34A1.38,1.38,0,0,1,170.17,137.91Z"/><path class="cls-10" d="M189.93,147.4l-1.76-4.46h-5.64l-1.74,4.46h-1.66l5.58-14.08h1.37l5.54,14.08Zm-2.27-5.93L186,137.13a19.53,19.53,0,0,1-.66-2,16.62,16.62,0,0,1-.61,2l-1.65,4.34Z"/><path class="cls-10" d="M193.56,133.38h4a7.51,7.51,0,0,1,4.06.83,2.94,2.94,0,0,1,1.25,2.64,3.07,3.07,0,0,1-.69,2.06,3.4,3.4,0,0,1-2,1.05v.09q3.21.55,3.21,3.36a3.6,3.6,0,0,1-1.28,2.94,5.47,5.47,0,0,1-3.57,1.05h-4.92Zm1.64,6h2.7a4.43,4.43,0,0,0,2.5-.54,2.11,2.11,0,0,0,.76-1.83,1.86,1.86,0,0,0-.85-1.7,5.34,5.34,0,0,0-2.7-.52H195.2Zm0,1.38V146h2.94a4.27,4.27,0,0,0,2.57-.65,2.45,2.45,0,0,0,.86-2.06,2.17,2.17,0,0,0-.88-1.92,4.71,4.71,0,0,0-2.68-.62Z"/><path class="cls-10" d="M208,141.57v5.83h-1.64v-14h3.87a6.1,6.1,0,0,1,3.83,1,3.6,3.6,0,0,1,1.24,3,3.73,3.73,0,0,1-2.84,3.76l3.83,6.3h-1.94l-3.41-5.83Zm0-1.4h2.25a3.87,3.87,0,0,0,2.54-.69,2.53,2.53,0,0,0,.81-2,2.34,2.34,0,0,0-.82-2,4.5,4.5,0,0,0-2.65-.61H208Z"/><path class="cls-10" d="M228,147.4h-1.64V134.82h-4.46v-1.44h10.56v1.44H228Z"/><path class="cls-10" d="M242.46,147.4H234.6v-14h7.86v1.44h-6.22v4.52h5.84v1.44h-5.84V146h6.22Z"/><path class="cls-10" d="M245.58,147.4v-14h1.63v12.55h6.22v1.47Z"/><path class="cls-10" d="M263.68,147.4h-7.86v-14h7.86v1.44h-6.22v4.52h5.84v1.44h-5.84V146h6.22Z"/><path class="cls-10" d="M272.83,134.63a4.61,4.61,0,0,0-3.66,1.54,6.2,6.2,0,0,0-1.35,4.22,6.31,6.31,0,0,0,1.3,4.26,4.6,4.6,0,0,0,3.69,1.5,12.76,12.76,0,0,0,3.37-.53v1.43a10.52,10.52,0,0,1-3.62.55,6.14,6.14,0,0,1-4.8-1.88,7.73,7.73,0,0,1-1.69-5.35,8.47,8.47,0,0,1,.81-3.8,5.82,5.82,0,0,1,2.35-2.51,7.14,7.14,0,0,1,3.62-.89,8.76,8.76,0,0,1,3.88.81l-.7,1.4A7.45,7.45,0,0,0,272.83,134.63Z"/><path class="cls-10" d="M291.48,140.37a7.71,7.71,0,0,1-1.71,5.3,6.92,6.92,0,0,1-9.56,0,7.75,7.75,0,0,1-1.69-5.35,7.63,7.63,0,0,1,1.7-5.31,6.12,6.12,0,0,1,4.81-1.89,6,6,0,0,1,4.75,1.92A7.74,7.74,0,0,1,291.48,140.37Zm-11.23,0a6.64,6.64,0,0,0,1.22,4.32,5,5,0,0,0,7.08,0,8.37,8.37,0,0,0,0-8.62,4.28,4.28,0,0,0-3.53-1.47,4.35,4.35,0,0,0-3.56,1.48A6.58,6.58,0,0,0,280.25,140.37Z"/><path class="cls-10" d="M300.86,147.4,296.08,135H296c.09,1,.14,2.15.14,3.51v8.92h-1.52v-14h2.47L301.55,145h.08l4.5-11.57h2.45v14h-1.64v-9c0-1,.05-2.17.14-3.38H307l-4.82,12.41Z"/><text class="cls-2" transform="translate(359.87 595.66)">1,2</text><line class="cls-11" x1="324.91" y1="591.57" x2="341.57" y2="591.57"/><rect class="cls-12" x="324.57" y="589.38" width="0.67" height="4.37"/><circle class="cls-12" cx="341.32" cy="591.57" r="5.05"/><text class="cls-5" transform="translate(34.5 594.85)">INSTITUTO LAURA FRESSATTO</text><text class="cls-2" transform="translate(359.87 632.46)">1,2</text><line class="cls-13" x1="324.91" y1="628.36" x2="341.57" y2="628.36"/><rect class="cls-14" x="324.57" y="626.18" width="0.67" height="4.37"/><circle class="cls-14" cx="341.32" cy="628.36" r="5.05"/><text class="cls-5" transform="translate(100.8 631.65)">MINISTÉRIO DA SAÚDE</text><text class="cls-2" transform="translate(350.68 668.52)">0,8</text><line class="cls-15" x1="324.91" y1="664.42" x2="334.5" y2="664.42"/><rect class="cls-16" x="324.57" y="662.24" width="0.67" height="4.37"/><circle class="cls-16" cx="334.25" cy="664.42" r="5.05"/><text class="cls-5" transform="translate(256.78 667.71)">CIASC</text><text class="cls-2" transform="translate(350.68 704.58)">0,8</text><line class="cls-17" x1="324.91" y1="700.48" x2="333.94" y2="700.48"/><rect class="cls-18" x="324.57" y="698.3" width="0.67" height="4.37"/><circle class="cls-18" cx="333.69" cy="700.48" r="5.05"/><text class="cls-5" transform="translate(236.61 703.77)">EDUSIM</text><text class="cls-2" transform="translate(350.68 740.64)">0,8</text><line class="cls-19" x1="324.91" y1="736.54" x2="334.5" y2="736.54"/><rect class="cls-20" x="324.57" y="734.36" width="0.67" height="4.37"/><circle class="cls-20" cx="334.25" cy="736.54" r="5.05"/><text class="cls-5" transform="translate(221.04 739.83)">LIFESHUB</text><line class="cls-21" x1="324.91" y1="771.8" x2="334.22" y2="771.8"/><rect class="cls-22" x="324.57" y="769.62" width="0.67" height="4.37"/><circle class="cls-22" cx="333.97" cy="771.8" r="5.05"/><text class="cls-2" transform="translate(350.68 776.7)">0,8</text><text class="cls-5" transform="translate(189.27 775.89)">MITO GAMES</text><text class="cls-2" transform="translate(350.68 812.76)">0,8</text><line class="cls-23" x1="324.91" y1="808.67" x2="333.66" y2="808.67"/><rect class="cls-24" x="324.57" y="806.48" width="0.67" height="4.37"/><path class="cls-24" d="M333.41,813.72a5.06,5.06,0,1,0-5.06-5.05A5.06,5.06,0,0,0,333.41,813.72Z"/><text class="cls-5" transform="translate(227.46 811.95)">NEOWAY</text><line class="cls-25" x1="324.91" y1="845.15" x2="334.1" y2="845.15"/><rect class="cls-26" x="324.57" y="842.96" width="0.67" height="4.37"/><circle class="cls-26" cx="333.84" cy="845.15" r="5.05"/><text class="cls-2" transform="translate(350.68 848.82)">0,8</text><text class="cls-5" transform="translate(222.97 848.01)">PRODESP</text><text class="cls-2" transform="translate(359.87 559.6)">1,2</text><line class="cls-27" x1="324.91" y1="555.51" x2="341.57" y2="555.51"/><rect class="cls-28" x="324.57" y="553.32" width="0.67" height="4.37"/><circle class="cls-28" cx="341.32" cy="555.51" r="5.05"/><text class="cls-5" transform="translate(204.67 558.79)">CYBERLABS</text><text class="cls-2" transform="translate(350.68 939.19)">0,8</text><line class="cls-29" x1="324.91" y1="935.1" x2="333.79" y2="935.1"/><rect class="cls-30" x="324.57" y="932.91" width="0.67" height="4.37"/><circle class="cls-30" cx="333.53" cy="935.1" r="5.05"/><text class="cls-5" transform="translate(52.29 938.38)">SEC. DA SAÚDE DE MANAUS</text><text class="cls-2" transform="translate(363.83 454.73)">1,6</text><line class="cls-31" x1="324.91" y1="450.63" x2="348.67" y2="450.63"/><rect class="cls-32" x="324.57" y="448.45" width="0.67" height="4.37"/><circle class="cls-32" cx="348.42" cy="450.63" r="5.05"/><path class="cls-10" d="M191.57,447.19a3.44,3.44,0,0,1-1.35,2.89,5.87,5.87,0,0,1-3.66,1,9.19,9.19,0,0,1-3.86-.64V448.9a10.44,10.44,0,0,0,1.89.57,10,10,0,0,0,2,.21,4,4,0,0,0,2.47-.62,2,2,0,0,0,.83-1.72,2.25,2.25,0,0,0-.29-1.19,2.77,2.77,0,0,0-1-.86,14.06,14.06,0,0,0-2.09-.89,6.82,6.82,0,0,1-2.81-1.66,3.64,3.64,0,0,1-.85-2.51,3.1,3.1,0,0,1,1.23-2.58,5.08,5.08,0,0,1,3.24-1,9.6,9.6,0,0,1,3.86.77l-.51,1.42a8.67,8.67,0,0,0-3.39-.73,3.32,3.32,0,0,0-2,.55,1.87,1.87,0,0,0-.73,1.55,2.33,2.33,0,0,0,.27,1.19,2.53,2.53,0,0,0,.91.86,11.87,11.87,0,0,0,2,.86,7.55,7.55,0,0,1,3,1.69A3.29,3.29,0,0,1,191.57,447.19Z"/><path class="cls-10" d="M202.3,450.92h-7.85v-14h7.85v1.45h-6.21v4.52h5.84v1.44h-5.84v5.16h6.21Z"/><path class="cls-10" d="M211.46,438.15a4.62,4.62,0,0,0-3.67,1.54,6.23,6.23,0,0,0-1.34,4.22,6.33,6.33,0,0,0,1.29,4.25,4.64,4.64,0,0,0,3.7,1.5,12.7,12.7,0,0,0,3.36-.52v1.43a10.48,10.48,0,0,1-3.61.54,6.12,6.12,0,0,1-4.81-1.88,7.74,7.74,0,0,1-1.69-5.34,8.28,8.28,0,0,1,.82-3.8,5.79,5.79,0,0,1,2.35-2.52,7.11,7.11,0,0,1,3.62-.88,8.69,8.69,0,0,1,3.87.81l-.69,1.4A7.48,7.48,0,0,0,211.46,438.15Z"/><path class="cls-10" d="M217.41,449.9a1.39,1.39,0,0,1,.29-1,1.08,1.08,0,0,1,.84-.33,1.13,1.13,0,0,1,.87.33,1.62,1.62,0,0,1,0,1.93,1.26,1.26,0,0,1-1.68,0A1.31,1.31,0,0,1,217.41,449.9Z"/><path class="cls-10" d="M239.5,443.77a7.06,7.06,0,0,1-1.89,5.31,7.49,7.49,0,0,1-5.45,1.84h-3.9v-14h4.32a6.93,6.93,0,0,1,5.1,1.81A6.82,6.82,0,0,1,239.5,443.77Zm-1.73.06a4.89,4.89,0,0,0-5.49-5.53H229.9v11.21h2a6.1,6.1,0,0,0,4.4-1.43A5.66,5.66,0,0,0,237.77,443.83Z"/><path class="cls-10" d="M250.5,450.92h-7.85v-14h7.85v1.45h-6.22v4.52h5.84v1.44h-5.84v5.16h6.22Z"/><path class="cls-10" d="M261.58,447.19a3.47,3.47,0,0,1-1.35,2.89,5.88,5.88,0,0,1-3.67,1,9.17,9.17,0,0,1-3.85-.64V448.9a10.44,10.44,0,0,0,1.89.57,10,10,0,0,0,2,.21,4.05,4.05,0,0,0,2.47-.62,2,2,0,0,0,.83-1.72,2.17,2.17,0,0,0-.3-1.19,2.64,2.64,0,0,0-1-.86,13.8,13.8,0,0,0-2.1-.89,6.89,6.89,0,0,1-2.81-1.66,3.68,3.68,0,0,1-.84-2.51,3.1,3.1,0,0,1,1.23-2.58,5.07,5.07,0,0,1,3.23-1,9.65,9.65,0,0,1,3.87.77l-.51,1.42a8.76,8.76,0,0,0-3.4-.73,3.31,3.31,0,0,0-2,.55,1.84,1.84,0,0,0-.73,1.55,2.33,2.33,0,0,0,.27,1.19,2.53,2.53,0,0,0,.91.86,11.87,11.87,0,0,0,2,.86,7.55,7.55,0,0,1,3.05,1.69A3.29,3.29,0,0,1,261.58,447.19Z"/><path class="cls-10" d="M272.31,450.92h-7.85v-14h7.85v1.45h-6.22v4.52h5.85v1.44h-5.85v5.16h6.22Z"/><path class="cls-10" d="M286.44,450.92h-1.87l-7.7-11.77h-.08c.11,1.38.16,2.64.16,3.8v8h-1.52v-14h1.86L285,448.62H285c0-.17,0-.73-.08-1.67s-.06-1.6,0-2v-8.05h1.53Z"/><path class="cls-10" d="M298.36,436.89h1.76l-5.07,14h-1.62l-5.05-14h1.73l3.24,9.08a26.32,26.32,0,0,1,.89,3,25.33,25.33,0,0,1,.9-3.1Z"/><path class="cls-10" d="M301.59,449.9a1.44,1.44,0,0,1,.29-1,1.09,1.09,0,0,1,.85-.33,1.15,1.15,0,0,1,.87.33,1.66,1.66,0,0,1,0,1.93,1.15,1.15,0,0,1-.87.34,1.17,1.17,0,0,1-.82-.3A1.35,1.35,0,0,1,301.59,449.9Z"/><path class="cls-10" d="M109.7,470.92h-7.86v-14h7.86v1.45h-6.22v4.52h5.84v1.44h-5.84v5.16h6.22Z"/><path class="cls-10" d="M118,470.92v-14h1.63v14Z"/><path class="cls-10" d="M134.45,470.92h-1.87l-7.7-11.77h-.07c.1,1.38.15,2.64.15,3.8v8h-1.51v-14h1.85L133,468.62h.08c0-.17-.05-.73-.09-1.67s-.06-1.6-.05-2v-8.05h1.53Z"/><path class="cls-10" d="M150.56,463.89a7.68,7.68,0,0,1-1.71,5.29,6,6,0,0,1-4.76,1.93,6.1,6.1,0,0,1-4.8-1.89,7.77,7.77,0,0,1-1.69-5.35,7.64,7.64,0,0,1,1.69-5.31,6.14,6.14,0,0,1,4.82-1.89,6,6,0,0,1,4.74,1.92A7.68,7.68,0,0,1,150.56,463.89Zm-11.23,0a6.64,6.64,0,0,0,1.22,4.32,5,5,0,0,0,7.08,0,8.4,8.4,0,0,0,0-8.62,4.27,4.27,0,0,0-3.52-1.46,4.36,4.36,0,0,0-3.56,1.47A6.59,6.59,0,0,0,139.33,463.89Z"/><path class="cls-10" d="M161.75,456.89h1.76l-5.08,14h-1.62l-5.05-14h1.74l3.24,9.08a24.38,24.38,0,0,1,.88,3,25.39,25.39,0,0,1,.91-3.1Z"/><path class="cls-10" d="M174.31,470.92l-1.76-4.46H166.9l-1.73,4.46h-1.66l5.57-14.09h1.38L176,470.92ZM172,465l-1.64-4.35c-.21-.55-.43-1.22-.65-2a18.47,18.47,0,0,1-.61,2L167.48,465Z"/><path class="cls-10" d="M184,458.15a4.58,4.58,0,0,0-3.66,1.54,6.18,6.18,0,0,0-1.35,4.22,6.28,6.28,0,0,0,1.3,4.25,4.6,4.6,0,0,0,3.69,1.5,12.71,12.71,0,0,0,3.37-.52v1.43a10.58,10.58,0,0,1-3.62.54,6.11,6.11,0,0,1-4.8-1.88,7.69,7.69,0,0,1-1.69-5.34,8.41,8.41,0,0,1,.81-3.8,5.85,5.85,0,0,1,2.35-2.52,7.14,7.14,0,0,1,3.62-.88,8.76,8.76,0,0,1,3.88.81l-.7,1.4A7.45,7.45,0,0,0,184,458.15Zm1.19,15.54a1.66,1.66,0,0,1-.74,1.44,3.84,3.84,0,0,1-2.18.51,5.46,5.46,0,0,1-.93-.08v-1a6,6,0,0,0,1,.07,2.71,2.71,0,0,0,1.16-.19.71.71,0,0,0,.39-.71.77.77,0,0,0-.38-.66,4,4,0,0,0-1.44-.42l.85-1.71H184l-.53,1.1C184.58,472.27,185.16,472.83,185.16,473.69Z"/><path class="cls-10" d="M199.25,470.92l-1.76-4.46h-5.64l-1.74,4.46h-1.66L194,456.83h1.38l5.54,14.09Zm-3.16-15.17a1.91,1.91,0,0,1-.81-.18c-.27-.12-.52-.25-.78-.39s-.5-.28-.73-.4a1.62,1.62,0,0,0-.68-.17.89.89,0,0,0-.73.29,2.08,2.08,0,0,0-.38.87H191a3.27,3.27,0,0,1,.68-1.82,1.77,1.77,0,0,1,1.43-.66,2.18,2.18,0,0,1,.86.18c.27.12.53.25.79.39s.49.28.72.4a1.4,1.4,0,0,0,.65.17.86.86,0,0,0,.71-.28,2.21,2.21,0,0,0,.37-.88h1a3.43,3.43,0,0,1-.67,1.82A1.8,1.8,0,0,1,196.09,455.75ZM197,465l-1.64-4.35c-.21-.55-.43-1.22-.65-2a16.5,16.5,0,0,1-.61,2L192.42,465Z"/><path class="cls-10" d="M215.11,463.89a7.68,7.68,0,0,1-1.71,5.29,6,6,0,0,1-4.76,1.93,6.11,6.11,0,0,1-4.8-1.89,7.77,7.77,0,0,1-1.69-5.35,7.6,7.6,0,0,1,1.7-5.31,6.12,6.12,0,0,1,4.81-1.89,6,6,0,0,1,4.75,1.92A7.72,7.72,0,0,1,215.11,463.89Zm-11.23,0a6.64,6.64,0,0,0,1.22,4.32,4.36,4.36,0,0,0,3.54,1.47,4.29,4.29,0,0,0,3.54-1.47,8.37,8.37,0,0,0,0-8.62,4.31,4.31,0,0,0-3.53-1.46,4.37,4.37,0,0,0-3.56,1.47A6.59,6.59,0,0,0,203.88,463.89Z"/><path class="cls-10" d="M234.63,463.77a7.06,7.06,0,0,1-1.89,5.31,7.51,7.51,0,0,1-5.45,1.84h-3.91v-14h4.32a7,7,0,0,1,5.11,1.81A6.86,6.86,0,0,1,234.63,463.77Zm-1.74.06a5.65,5.65,0,0,0-1.38-4.14,5.58,5.58,0,0,0-4.11-1.39H225v11.21h2a6.11,6.11,0,0,0,4.41-1.43A5.7,5.7,0,0,0,232.89,463.83Z"/><path class="cls-10" d="M245.62,470.92h-7.85v-14h7.85v1.45h-6.21v4.52h5.84v1.44h-5.84v5.16h6.21Z"/><path class="cls-10" d="M260.07,463.57h4.79v6.82a14.7,14.7,0,0,1-2.27.54,17.66,17.66,0,0,1-2.68.18,6.53,6.53,0,0,1-5-1.89,7.51,7.51,0,0,1-1.78-5.31,8.12,8.12,0,0,1,.88-3.84,6,6,0,0,1,2.54-2.51,8.27,8.27,0,0,1,3.89-.87,10.66,10.66,0,0,1,4.2.82L264,459a9.51,9.51,0,0,0-3.67-.8,5.31,5.31,0,0,0-4,1.52,5.94,5.94,0,0,0-1.44,4.24,6,6,0,0,0,1.39,4.3,5.37,5.37,0,0,0,4.09,1.47,12.36,12.36,0,0,0,2.86-.33V465h-3.15Z"/><path class="cls-10" d="M280.47,463.89a7.68,7.68,0,0,1-1.71,5.29,6,6,0,0,1-4.75,1.93,6.12,6.12,0,0,1-4.81-1.89,7.82,7.82,0,0,1-1.69-5.35,7.65,7.65,0,0,1,1.7-5.31,6.14,6.14,0,0,1,4.82-1.89,6,6,0,0,1,4.74,1.92A7.67,7.67,0,0,1,280.47,463.89Zm-11.22,0a6.58,6.58,0,0,0,1.22,4.32,4.33,4.33,0,0,0,3.54,1.47,4.27,4.27,0,0,0,3.53-1.47,8.37,8.37,0,0,0,0-8.62,4.28,4.28,0,0,0-3.52-1.46,4.36,4.36,0,0,0-3.56,1.47A6.53,6.53,0,0,0,269.25,463.89Z"/><path class="cls-10" d="M283.62,470.92v-14h1.63v14Z"/><path class="cls-10" d="M298,470.92l-1.76-4.46h-5.64l-1.74,4.46h-1.66l5.57-14.09h1.38l5.54,14.09ZM295.71,465l-1.64-4.35c-.21-.55-.43-1.22-.65-2a18.47,18.47,0,0,1-.61,2L291.15,465Zm-3.46-9.46c.31-.4.64-.88,1-1.44a13.66,13.66,0,0,0,.84-1.47h2v.2a13.51,13.51,0,0,1-1.26,1.54,14,14,0,0,1-1.46,1.41h-1.07Z"/><path class="cls-10" d="M309.56,467.19a3.44,3.44,0,0,1-1.35,2.89,5.87,5.87,0,0,1-3.66,1,9.22,9.22,0,0,1-3.86-.64V468.9a10.44,10.44,0,0,0,1.89.57,10.07,10.07,0,0,0,2,.21,4,4,0,0,0,2.46-.62,2,2,0,0,0,.83-1.72,2.17,2.17,0,0,0-.29-1.19,2.73,2.73,0,0,0-1-.86,13.8,13.8,0,0,0-2.1-.89,6.82,6.82,0,0,1-2.81-1.66,3.68,3.68,0,0,1-.84-2.51,3.12,3.12,0,0,1,1.22-2.58,5.12,5.12,0,0,1,3.24-1,9.57,9.57,0,0,1,3.86.77l-.51,1.42a8.67,8.67,0,0,0-3.39-.73,3.29,3.29,0,0,0-2,.55,1.84,1.84,0,0,0-.73,1.55,2.33,2.33,0,0,0,.26,1.19,2.66,2.66,0,0,0,.92.86,11.5,11.5,0,0,0,2,.86,7.62,7.62,0,0,1,3.05,1.69A3.33,3.33,0,0,1,309.56,467.19Z"/><text class="cls-2" transform="translate(395.49 182.51)">2,8%</text><line class="cls-33" x1="324.91" y1="178.42" x2="378.33" y2="178.42"/><rect class="cls-34" x="324.57" y="176.23" width="0.67" height="4.37"/><circle class="cls-34" cx="378.08" cy="178.42" r="5.05"/><text class="cls-5" transform="translate(106.87 181.7)">DAHUA TECHNOLOGY</text><text class="cls-2" transform="translate(396.06 218.57)">2,8%</text><line class="cls-35" x1="324.91" y1="214.48" x2="378.33" y2="214.48"/><rect class="cls-36" x="324.57" y="212.29" width="0.67" height="4.37"/><circle class="cls-36" cx="378.08" cy="214.48" r="5.05"/><text class="cls-5" transform="translate(257.1 217.76)">ZOOX</text><text class="cls-2" transform="translate(378.89 254.63)">2%</text><line class="cls-37" x1="324.91" y1="250.54" x2="355.83" y2="250.54"/><rect class="cls-38" x="324.57" y="248.35" width="0.67" height="4.37"/><circle class="cls-38" cx="355.58" cy="250.54" r="5.05"/><text class="cls-5" transform="translate(214.49 253.82)">HIKVISION</text><text class="cls-2" transform="translate(378.89 290.69)">2%</text><line class="cls-27" x1="324.91" y1="286.6" x2="355.83" y2="286.6"/><rect class="cls-28" x="324.57" y="284.42" width="0.67" height="4.37"/><circle class="cls-28" cx="355.58" cy="286.6" r="5.05"/><text class="cls-5" transform="translate(18.28 289.89)">NOVETECH; CORE CONSULTING</text><text class="cls-2" transform="translate(378.89 326.75)">2%</text><line class="cls-39" x1="324.91" y1="322.66" x2="355.83" y2="322.66"/><rect class="cls-40" x="324.57" y="320.48" width="0.67" height="4.37"/><circle class="cls-40" cx="355.58" cy="322.66" r="5.05"/><text class="cls-5" transform="translate(185.09 325.95)">SCIPOPULIS<tspan class="cls-41" x="108.41" y="0">	</tspan></text><text class="cls-2" transform="translate(378.89 362.82)">2%</text><line class="cls-42" x1="324.91" y1="358.72" x2="355.83" y2="358.72"/><rect class="cls-43" x="324.57" y="356.54" width="0.67" height="4.37"/><circle class="cls-43" cx="355.58" cy="358.72" r="5.05"/><text class="cls-5" transform="translate(237.04 362.01)">SERPRO</text><line class="cls-44" x1="324.91" y1="404.06" x2="348.67" y2="404.06"/><rect class="cls-45" x="324.57" y="401.88" width="0.67" height="4.37"/><circle class="cls-45" cx="348.42" cy="404.06" r="5.05"/><text class="cls-2" transform="translate(363.83 408.15)">1,6</text><path class="cls-10" d="M128.28,397.35h-7.86v-14h7.86v1.45h-6.22v4.52h5.84v1.43h-5.84v5.17h6.22Z"/><path class="cls-10" d="M140.26,397.35l-1.76-4.47h-5.65l-1.73,4.47h-1.66L135,383.26h1.38L142,397.35ZM138,391.42l-1.64-4.35c-.21-.55-.43-1.23-.65-2a18.59,18.59,0,0,1-.61,2l-1.66,4.35Z"/><path class="cls-10" d="M150.09,390h4.79v6.82a18,18,0,0,1-2.28.54,17.57,17.57,0,0,1-2.68.18,6.49,6.49,0,0,1-5-1.9,7.43,7.43,0,0,1-1.78-5.31,7.93,7.93,0,0,1,.88-3.83,5.94,5.94,0,0,1,2.54-2.52,8.22,8.22,0,0,1,3.88-.87,10.6,10.6,0,0,1,4.2.83l-.63,1.44a9.39,9.39,0,0,0-3.67-.81,5.25,5.25,0,0,0-4,1.53,5.89,5.89,0,0,0-1.45,4.23,6.08,6.08,0,0,0,1.39,4.31,5.39,5.39,0,0,0,4.09,1.47,11.93,11.93,0,0,0,2.87-.34v-4.32h-3.15Z"/><path class="cls-10" d="M158.26,397.35v-14h1.64v12.55h6.21v1.48Z"/><path class="cls-10" d="M176.36,397.35H168.5v-14h7.86v1.45h-6.22v4.52H176v1.43h-5.84v5.17h6.22Z"/><path class="cls-10" d="M189,397.35h-1.64V384.77h-4.47v-1.45h10.57v1.45H189Z"/><path class="cls-10" d="M203.38,397.35h-7.85v-14h7.85v1.45h-6.21v4.52H203v1.43h-5.84v5.17h6.21Z"/><path class="cls-10" d="M212.54,384.57a4.65,4.65,0,0,0-3.67,1.54,6.25,6.25,0,0,0-1.34,4.22,6.34,6.34,0,0,0,1.29,4.26,4.64,4.64,0,0,0,3.7,1.5,12.76,12.76,0,0,0,3.36-.53V397a10.23,10.23,0,0,1-3.61.55,6.15,6.15,0,0,1-4.81-1.88,7.78,7.78,0,0,1-1.69-5.35,8.34,8.34,0,0,1,.82-3.8,5.77,5.77,0,0,1,2.35-2.51,7.12,7.12,0,0,1,3.62-.89,8.69,8.69,0,0,1,3.87.81l-.69,1.4A7.48,7.48,0,0,0,212.54,384.57Z"/><path class="cls-10" d="M230,397.35h-1.87l-7.7-11.78h-.07c.1,1.38.15,2.65.15,3.8v8H219v-14h1.85L228.49,395h.08c0-.17,0-.72-.09-1.66s-.06-1.61,0-2v-8.05H230Z"/><path class="cls-10" d="M246.07,390.31a7.71,7.71,0,0,1-1.71,5.3,6.92,6.92,0,0,1-9.56,0,9.25,9.25,0,0,1,0-10.66,6.14,6.14,0,0,1,4.82-1.88,6,6,0,0,1,4.74,1.91A7.69,7.69,0,0,1,246.07,390.31Zm-11.23,0a6.64,6.64,0,0,0,1.22,4.32,5,5,0,0,0,7.08,0,6.77,6.77,0,0,0,1.19-4.33,6.63,6.63,0,0,0-1.19-4.29,4.26,4.26,0,0,0-3.52-1.47,4.36,4.36,0,0,0-3.56,1.48A6.58,6.58,0,0,0,234.84,390.31Z"/><path class="cls-10" d="M249.21,397.35v-14h1.64v12.55h6.21v1.48Z"/><path class="cls-10" d="M271.68,390.31a7.71,7.71,0,0,1-1.71,5.3,6.92,6.92,0,0,1-9.56,0,7.78,7.78,0,0,1-1.69-5.35,7.68,7.68,0,0,1,1.7-5.31,6.14,6.14,0,0,1,4.82-1.88A6,6,0,0,1,270,385,7.69,7.69,0,0,1,271.68,390.31Zm-11.22,0a6.58,6.58,0,0,0,1.22,4.32,5,5,0,0,0,7.07,0,8.37,8.37,0,0,0,0-8.62,4.26,4.26,0,0,0-3.52-1.47,4.36,4.36,0,0,0-3.56,1.48A6.52,6.52,0,0,0,260.46,390.31Z"/><path class="cls-10" d="M281,390h4.79v6.82a17.43,17.43,0,0,1-2.27.54,17.66,17.66,0,0,1-2.68.18,6.49,6.49,0,0,1-5-1.9,7.43,7.43,0,0,1-1.79-5.31,7.94,7.94,0,0,1,.89-3.83,5.89,5.89,0,0,1,2.54-2.52,8.2,8.2,0,0,1,3.88-.87,10.67,10.67,0,0,1,4.2.83l-.63,1.44a9.43,9.43,0,0,0-3.68-.81,5.28,5.28,0,0,0-4,1.53,5.93,5.93,0,0,0-1.44,4.23,6,6,0,0,0,1.39,4.31,5.37,5.37,0,0,0,4.09,1.47,12,12,0,0,0,2.87-.34v-4.32H281Z"/><path class="cls-10" d="M289.2,397.35v-14h1.63v14Z"/><path class="cls-10" d="M303.56,397.35l-1.76-4.47h-5.64l-1.74,4.47h-1.66l5.57-14.09h1.38l5.54,14.09Zm-2.27-5.93-1.64-4.35c-.21-.55-.43-1.23-.65-2a18.59,18.59,0,0,1-.61,2l-1.66,4.35Z"/><path class="cls-10" d="M308.63,395.06l.14.22c-.17.64-.41,1.39-.72,2.23s-.64,1.64-1,2.37h-1.2c.17-.67.36-1.49.57-2.47s.36-1.76.44-2.35Zm-2-7.2c0-.87.38-1.3,1.15-1.3s1.18.43,1.18,1.3a1.33,1.33,0,0,1-.32,1,1.14,1.14,0,0,1-.86.33,1.09,1.09,0,0,1-.86-.33A1.47,1.47,0,0,1,306.67,387.86Z"/><path class="cls-10" d="M123.79,417.35,122,412.88h-5.65l-1.73,4.47H113l5.57-14.09H120l5.54,14.09Zm-2.26-5.93-1.64-4.35c-.21-.55-.43-1.23-.65-2a21.11,21.11,0,0,1-.61,2L117,411.42Z"/><path class="cls-10" d="M135.38,413.61A3.43,3.43,0,0,1,134,416.5a5.87,5.87,0,0,1-3.66,1,9.2,9.2,0,0,1-3.86-.65v-1.57a10.44,10.44,0,0,0,1.89.58,10.07,10.07,0,0,0,2,.21,4.09,4.09,0,0,0,2.46-.62,2,2,0,0,0,.83-1.72,2.27,2.27,0,0,0-.29-1.2,2.87,2.87,0,0,0-1-.86,13.17,13.17,0,0,0-2.09-.89,6.72,6.72,0,0,1-2.81-1.66,3.65,3.65,0,0,1-.84-2.5,3.1,3.1,0,0,1,1.22-2.59,5.12,5.12,0,0,1,3.24-1,9.57,9.57,0,0,1,3.86.77l-.51,1.42a8.85,8.85,0,0,0-3.39-.73,3.27,3.27,0,0,0-2,.56,1.84,1.84,0,0,0-.74,1.55,2.36,2.36,0,0,0,.27,1.19,2.6,2.6,0,0,0,.91.85,11.24,11.24,0,0,0,2,.86,8,8,0,0,1,3.05,1.69A3.33,3.33,0,0,1,135.38,413.61Z"/><path class="cls-10" d="M146.21,413.61a3.43,3.43,0,0,1-1.35,2.89,5.87,5.87,0,0,1-3.66,1,9.15,9.15,0,0,1-3.85-.65v-1.57a10.23,10.23,0,0,0,3.91.79,4.14,4.14,0,0,0,2.47-.62,2,2,0,0,0,.82-1.72,2.18,2.18,0,0,0-.29-1.2,2.82,2.82,0,0,0-1-.86,13.8,13.8,0,0,0-2.1-.89,6.72,6.72,0,0,1-2.81-1.66,3.65,3.65,0,0,1-.84-2.5,3.13,3.13,0,0,1,1.22-2.59,5.12,5.12,0,0,1,3.24-1,9.65,9.65,0,0,1,3.87.77l-.52,1.42a8.85,8.85,0,0,0-3.39-.73,3.29,3.29,0,0,0-2,.56,1.83,1.83,0,0,0-.73,1.55,2.36,2.36,0,0,0,.27,1.19,2.51,2.51,0,0,0,.91.85,10.75,10.75,0,0,0,2,.86,7.87,7.87,0,0,1,3,1.69A3.33,3.33,0,0,1,146.21,413.61Z"/><path class="cls-10" d="M148.62,416.33a1.44,1.44,0,0,1,.3-1,1,1,0,0,1,.84-.33,1.15,1.15,0,0,1,.87.33,1.39,1.39,0,0,1,.32,1,1.37,1.37,0,0,1-.32,1,1.16,1.16,0,0,1-.87.33,1.13,1.13,0,0,1-.81-.3A1.28,1.28,0,0,1,148.62,416.33Z"/><path class="cls-10" d="M168.33,417.35l-1.75-4.47h-5.65l-1.74,4.47h-1.65l5.57-14.09h1.38L170,417.35Zm-2.26-5.93-1.64-4.35c-.21-.55-.43-1.23-.66-2a16.62,16.62,0,0,1-.61,2l-1.65,4.35Z"/><path class="cls-10" d="M183,417.35H181.1l-7.7-11.78h-.08c.11,1.38.16,2.65.16,3.8v8H172v-14h1.86L181.5,415h.07c0-.17,0-.72-.08-1.66s-.06-1.61-.05-2v-8.05H183Z"/><path class="cls-10" d="M191.18,417.35h-1.64V404.77h-4.46v-1.45h10.56v1.45h-4.46Z"/><path class="cls-10" d="M210,410.31a7.71,7.71,0,0,1-1.71,5.3,6.92,6.92,0,0,1-9.56,0,7.78,7.78,0,0,1-1.69-5.35,7.68,7.68,0,0,1,1.7-5.31,6.12,6.12,0,0,1,4.82-1.88,6,6,0,0,1,4.74,1.91A7.69,7.69,0,0,1,210,410.31Zm-11.22,0a6.58,6.58,0,0,0,1.22,4.32,5,5,0,0,0,7.07,0,8.37,8.37,0,0,0,0-8.62,4.26,4.26,0,0,0-3.52-1.47A4.36,4.36,0,0,0,200,406,6.52,6.52,0,0,0,198.77,410.31Zm1.37-8.34c.82-.87,1.39-1.51,1.72-1.92a7.23,7.23,0,0,0,.71-1h1.6a7.32,7.32,0,0,0,.74,1c.35.42.93,1.05,1.73,1.88v.22h-1.15a13.72,13.72,0,0,1-2.13-1.78,12.9,12.9,0,0,1-2.11,1.78h-1.11Z"/><path class="cls-10" d="M224.14,417.35h-1.87l-7.7-11.78h-.07c.1,1.38.15,2.65.15,3.8v8h-1.51v-14H215L222.67,415h.08c0-.17-.05-.72-.09-1.66s-.06-1.61,0-2v-8.05h1.53Z"/><path class="cls-10" d="M228,417.35v-14h1.64v14Z"/><path class="cls-10" d="M245.75,410.31a7.71,7.71,0,0,1-1.71,5.3,6.92,6.92,0,0,1-9.56,0,9.25,9.25,0,0,1,0-10.66,6.14,6.14,0,0,1,4.82-1.88A6,6,0,0,1,244,405,7.69,7.69,0,0,1,245.75,410.31Zm-11.23,0a6.64,6.64,0,0,0,1.22,4.32,5,5,0,0,0,7.08,0,8.37,8.37,0,0,0,0-8.62,4.28,4.28,0,0,0-3.53-1.47,4.36,4.36,0,0,0-3.56,1.48A6.58,6.58,0,0,0,234.52,410.31Z"/><path class="cls-10" d="M262.07,403.32h1.76l-5.08,14h-1.62l-5-14h1.74l3.23,9.07a24.61,24.61,0,0,1,.89,3.05,23.74,23.74,0,0,1,.91-3.1Z"/><path class="cls-10" d="M265.77,417.35v-14h1.64v14Z"/><path class="cls-10" d="M279.13,417.35h-7.86v-14h7.86v1.45h-6.22v4.52h5.84v1.43h-5.84v5.17h6.22Z"/><path class="cls-10" d="M282.25,417.35v-14h1.64v14Z"/><path class="cls-10" d="M289.39,411.51v5.84h-1.64v-14h3.87a6.18,6.18,0,0,1,3.83,1,3.61,3.61,0,0,1,1.24,3,3.73,3.73,0,0,1-2.84,3.76l3.83,6.31h-1.94l-3.41-5.84Zm0-1.4h2.25a3.87,3.87,0,0,0,2.54-.69,2.53,2.53,0,0,0,.81-2.05,2.35,2.35,0,0,0-.83-2,4.45,4.45,0,0,0-2.64-.61h-2.13Z"/><path class="cls-10" d="M308.81,417.35l-1.75-4.47h-5.65l-1.74,4.47H298l5.57-14.09H305l5.55,14.09Zm-2.27-5.93-1.63-4.35c-.22-.55-.43-1.23-.66-2a16.62,16.62,0,0,1-.61,2L302,411.42Z"/><text class="cls-2" transform="translate(359.87 508.3)">1,2</text><line class="cls-46" x1="324.91" y1="504.21" x2="341.57" y2="504.21"/><rect class="cls-47" x="324.57" y="502.02" width="0.67" height="4.37"/><circle class="cls-47" cx="341.32" cy="504.21" r="5.05"/><path class="cls-10" d="M32,490.47h4a7.49,7.49,0,0,1,4,.83,2.94,2.94,0,0,1,1.25,2.64,3.07,3.07,0,0,1-.69,2.06,3.4,3.4,0,0,1-2,1.05v.09q3.21.56,3.21,3.36a3.6,3.6,0,0,1-1.28,2.94A5.47,5.47,0,0,1,37,504.5H32Zm1.64,6h2.7a4.43,4.43,0,0,0,2.5-.54,2.11,2.11,0,0,0,.76-1.83,1.84,1.84,0,0,0-.85-1.7,5.29,5.29,0,0,0-2.7-.52H33.68Zm0,1.38v5.25h2.94a4.25,4.25,0,0,0,2.57-.65,2.42,2.42,0,0,0,.86-2.06,2.17,2.17,0,0,0-.88-1.92,4.71,4.71,0,0,0-2.68-.62Z"/><path class="cls-10" d="M46.47,498.66v5.84H44.83v-14H48.7a6.16,6.16,0,0,1,3.83,1,3.6,3.6,0,0,1,1.24,3,3.73,3.73,0,0,1-2.84,3.76l3.83,6.31H52.82l-3.41-5.84Zm0-1.4h2.25a3.87,3.87,0,0,0,2.54-.69,2.53,2.53,0,0,0,.81-2.05,2.34,2.34,0,0,0-.82-2,4.48,4.48,0,0,0-2.65-.61H46.47Z"/><path class="cls-10" d="M65.89,504.5,64.14,500H58.49l-1.74,4.47H55.1l5.57-14.09h1.38l5.54,14.09Zm-2.26-5.93L62,494.22c-.21-.55-.43-1.23-.66-2a18.39,18.39,0,0,1-.6,2l-1.66,4.35Z"/><path class="cls-10" d="M69.53,504.5v-14h1.63v14Z"/><path class="cls-10" d="M86,504.5H84.16l-7.7-11.78h-.07c.1,1.38.15,2.65.15,3.8v8H75v-14h1.85l7.68,11.72h.08c0-.17,0-.73-.09-1.66s-.06-1.61,0-2v-8H86Z"/><path class="cls-10" d="M93.49,497.48l3.76-7H99l-4.71,8.58v5.45H92.66v-5.37L88,490.47h1.79Z"/><path class="cls-10" d="M107.73,498.66v5.84h-1.64v-14H110a6.18,6.18,0,0,1,3.83,1,3.59,3.59,0,0,1,1.23,3,3.72,3.72,0,0,1-2.83,3.76L116,504.5h-1.94l-3.41-5.84Zm0-1.4H110a3.89,3.89,0,0,0,2.55-.69,2.53,2.53,0,0,0,.81-2.05,2.35,2.35,0,0,0-.83-2,4.45,4.45,0,0,0-2.64-.61h-2.13Z"/><path class="cls-10" d="M126.15,504.5h-7.86v-14h7.86v1.44h-6.22v4.52h5.84v1.44h-5.84V503h6.22Z"/><path class="cls-10" d="M137.22,500.76a3.43,3.43,0,0,1-1.35,2.89,5.87,5.87,0,0,1-3.66,1,9.2,9.2,0,0,1-3.86-.65v-1.57a10.44,10.44,0,0,0,1.89.58,10.07,10.07,0,0,0,2,.21,4.09,4.09,0,0,0,2.46-.62,2,2,0,0,0,.83-1.72,2.27,2.27,0,0,0-.29-1.2,2.73,2.73,0,0,0-1-.86,13.8,13.8,0,0,0-2.1-.89,6.72,6.72,0,0,1-2.81-1.66,3.65,3.65,0,0,1-.84-2.5,3.1,3.1,0,0,1,1.22-2.59,5.12,5.12,0,0,1,3.24-1,9.57,9.57,0,0,1,3.86.77l-.51,1.42a8.85,8.85,0,0,0-3.39-.73,3.27,3.27,0,0,0-2,.56,1.83,1.83,0,0,0-.74,1.54,2.37,2.37,0,0,0,.27,1.2,2.6,2.6,0,0,0,.91.85,11.24,11.24,0,0,0,2,.86,8,8,0,0,1,3,1.69A3.33,3.33,0,0,1,137.22,500.76Z"/><path class="cls-10" d="M152.33,497.46a7.71,7.71,0,0,1-1.71,5.3,6.92,6.92,0,0,1-9.56,0,9.23,9.23,0,0,1,0-10.66,6.12,6.12,0,0,1,4.81-1.89,6,6,0,0,1,4.75,1.92A7.74,7.74,0,0,1,152.33,497.46Zm-11.23,0a6.64,6.64,0,0,0,1.22,4.32,4.34,4.34,0,0,0,3.55,1.48,4.27,4.27,0,0,0,3.53-1.47,8.37,8.37,0,0,0,0-8.62,4.28,4.28,0,0,0-3.53-1.47,4.35,4.35,0,0,0-3.56,1.48A6.58,6.58,0,0,0,141.1,497.46Z"/><path class="cls-10" d="M155.47,504.5v-14h1.64V503h6.22v1.48Z"/><path class="cls-10" d="M176.36,490.47v9.07a5,5,0,0,1-1.46,3.78,5.61,5.61,0,0,1-4,1.37,5.35,5.35,0,0,1-3.93-1.38,5.12,5.12,0,0,1-1.39-3.8v-9h1.63v9.15a3.59,3.59,0,0,0,1,2.7,3.91,3.91,0,0,0,2.83.94,3.78,3.78,0,0,0,2.75-.95,3.63,3.63,0,0,0,1-2.71v-9.13Z"/><path class="cls-10" d="M184.43,504.5h-1.64V491.91h-4.46v-1.44h10.56v1.44h-4.46Z"/><path class="cls-10" d="M191,504.5v-14h1.64v14Z"/><path class="cls-10" d="M208.74,497.46a7.71,7.71,0,0,1-1.71,5.3,6.92,6.92,0,0,1-9.56,0,7.73,7.73,0,0,1-1.69-5.35,7.63,7.63,0,0,1,1.7-5.31,6.12,6.12,0,0,1,4.81-1.89,6,6,0,0,1,4.75,1.92A7.74,7.74,0,0,1,208.74,497.46Zm-11.23,0a6.64,6.64,0,0,0,1.22,4.32,5,5,0,0,0,7.08,0,8.37,8.37,0,0,0,0-8.62,4.28,4.28,0,0,0-3.53-1.47,4.35,4.35,0,0,0-3.56,1.48A6.58,6.58,0,0,0,197.51,497.46Z"/><path class="cls-10" d="M222.89,504.5H221l-7.7-11.78h-.08c.1,1.38.16,2.65.16,3.8v8h-1.52v-14h1.85l7.68,11.72h.08c0-.17,0-.73-.08-1.66s-.07-1.61,0-2v-8h1.53Z"/><path class="cls-10" d="M228.2,502.21l.14.22a20.06,20.06,0,0,1-.72,2.23c-.31.85-.64,1.64-1,2.37h-1.21c.18-.67.37-1.49.58-2.47s.35-1.76.44-2.35Zm-2-7.21c0-.86.39-1.29,1.15-1.29s1.19.43,1.19,1.29a1.34,1.34,0,0,1-.32,1,1.12,1.12,0,0,1-.87.34,1,1,0,0,1-.85-.34A1.38,1.38,0,0,1,226.24,495Z"/><path class="cls-10" d="M246.08,494.55a3.93,3.93,0,0,1-1.46,3.28,6.62,6.62,0,0,1-4.18,1.15h-1.66v5.52h-1.64v-14h3.66Q246.08,490.47,246.08,494.55Zm-7.3,3h1.48a5.56,5.56,0,0,0,3.15-.7,2.58,2.58,0,0,0,1-2.25,2.4,2.4,0,0,0-.91-2.07,4.76,4.76,0,0,0-2.86-.68h-1.83Z"/><path class="cls-10" d="M249,504.5v-14h1.63v14Z"/><path class="cls-10" d="M258.87,504.5h-1.64V491.91h-4.46v-1.44h10.56v1.44h-4.46Z"/><path class="cls-10" d="M274.31,504.5,272.55,500h-5.64l-1.74,4.47h-1.66l5.57-14.09h1.38L276,504.5ZM272,498.57l-1.64-4.35c-.21-.55-.43-1.23-.65-2a18.59,18.59,0,0,1-.61,2l-1.66,4.35Z"/><path class="cls-10" d="M289,504.5h-1.87l-7.7-11.78h-.08c.1,1.38.15,2.65.15,3.8v8h-1.51v-14h1.85l7.68,11.72h.08c0-.17,0-.73-.09-1.66s-.06-1.61,0-2v-8H289Z"/><path class="cls-10" d="M299,497.14h4.79V504a18,18,0,0,1-2.28.54,17.57,17.57,0,0,1-2.68.18,6.49,6.49,0,0,1-5-1.9,7.43,7.43,0,0,1-1.78-5.31,7.93,7.93,0,0,1,.88-3.83,5.94,5.94,0,0,1,2.54-2.52,8.25,8.25,0,0,1,3.88-.87,10.68,10.68,0,0,1,4.21.83l-.64,1.44a9.39,9.39,0,0,0-3.67-.81,5.25,5.25,0,0,0-4,1.53,5.89,5.89,0,0,0-1.45,4.23,6,6,0,0,0,1.4,4.31,5.36,5.36,0,0,0,4.09,1.47,11.91,11.91,0,0,0,2.86-.34V498.6H299Z"/><path class="cls-10" d="M308.63,502.21l.14.22c-.17.64-.41,1.39-.72,2.23s-.64,1.64-1,2.37h-1.21c.17-.67.37-1.49.57-2.47s.36-1.76.44-2.35Zm-2-7.21c0-.86.38-1.29,1.15-1.29s1.18.43,1.18,1.29a1.3,1.3,0,0,1-.32,1,1.11,1.11,0,0,1-.86.34A1.07,1.07,0,0,1,307,496,1.43,1.43,0,0,1,306.67,495Z"/><path class="cls-10" d="M9.5,524.5H7.86v-14h7.86v1.44H9.5v5.14h5.84v1.45H9.5Z"/><path class="cls-10" d="M26.91,524.5,25.15,520H19.51l-1.74,4.47H16.11l5.57-14.09h1.38L28.6,524.5Zm-2.27-5.93L23,514.22c-.21-.55-.43-1.23-.65-2a16.62,16.62,0,0,1-.61,2l-1.66,4.35Zm-3.46-9.47a16.55,16.55,0,0,0,1-1.44A14.69,14.69,0,0,0,23,506.2H25v.2a14.5,14.5,0,0,1-1.26,1.53,14,14,0,0,1-1.46,1.41H21.18Z"/><path class="cls-10" d="M30.54,510.47h4a7.53,7.53,0,0,1,4.06.83,3,3,0,0,1,1.25,2.64,3,3,0,0,1-.7,2.06,3.34,3.34,0,0,1-2,1v.09q3.19.55,3.2,3.36A3.59,3.59,0,0,1,39,523.44a5.47,5.47,0,0,1-3.57,1.06H30.54Zm1.64,6h2.7a4.37,4.37,0,0,0,2.49-.54,2.09,2.09,0,0,0,.77-1.83,1.86,1.86,0,0,0-.85-1.7,5.34,5.34,0,0,0-2.7-.52H32.18Zm0,1.38v5.25h2.94a4.27,4.27,0,0,0,2.57-.65,2.45,2.45,0,0,0,.86-2.06,2.17,2.17,0,0,0-.88-1.92,4.73,4.73,0,0,0-2.69-.62Z"/><path class="cls-10" d="M45,518.66v5.84H43.33v-14H47.2a6.18,6.18,0,0,1,3.83,1,3.59,3.59,0,0,1,1.23,3,3.72,3.72,0,0,1-2.83,3.76l3.83,6.31H51.32l-3.41-5.84Zm0-1.4h2.24a3.89,3.89,0,0,0,2.55-.69,2.53,2.53,0,0,0,.81-2.05,2.35,2.35,0,0,0-.83-2,4.45,4.45,0,0,0-2.64-.61H45Z"/><path class="cls-10" d="M55.53,524.5v-14h1.64v14Z"/><path class="cls-10" d="M67.07,511.72a4.65,4.65,0,0,0-3.67,1.54,6.2,6.2,0,0,0-1.34,4.22,6.34,6.34,0,0,0,1.29,4.26,4.64,4.64,0,0,0,3.7,1.5,12.76,12.76,0,0,0,3.36-.53v1.43a10.23,10.23,0,0,1-3.61.55A6.15,6.15,0,0,1,62,522.81a7.78,7.78,0,0,1-1.69-5.35,8.34,8.34,0,0,1,.82-3.8,5.77,5.77,0,0,1,2.35-2.51,7.12,7.12,0,0,1,3.62-.89,8.69,8.69,0,0,1,3.87.81l-.69,1.4A7.52,7.52,0,0,0,67.07,511.72Z"/><path class="cls-10" d="M82.34,524.5,80.59,520H74.94l-1.73,4.47H71.55l5.57-14.09H78.5L84,524.5Zm-2.26-5.93-1.64-4.35c-.21-.55-.43-1.23-.65-2a21.11,21.11,0,0,1-.61,2l-1.66,4.35Z"/><path class="cls-10" d="M102.35,517.35a7.09,7.09,0,0,1-1.89,5.31A7.53,7.53,0,0,1,95,524.5H91.1v-14h4.32a6.31,6.31,0,0,1,6.93,6.88Zm-1.73,0a4.9,4.9,0,0,0-5.5-5.52H92.74v11.2h2a6.05,6.05,0,0,0,4.4-1.43A5.69,5.69,0,0,0,100.62,517.4Z"/><path class="cls-10" d="M113.35,524.5h-7.86v-14h7.86v1.44h-6.22v4.52H113v1.44h-5.84V523h6.22Z"/><path class="cls-10" d="M132.6,524.5h-1.87L123,512.72H123c.1,1.38.15,2.65.15,3.8v8H121.6v-14h1.85l7.68,11.72h.08c0-.17-.05-.73-.09-1.66s-.06-1.61-.05-2v-8h1.53Z"/><path class="cls-10" d="M144.33,524.5h-7.85v-14h7.85v1.44h-6.21v4.52H144v1.44h-5.84V523h6.21Z"/><path class="cls-10" d="M153.65,517.14h4.79V524a17.43,17.43,0,0,1-2.27.54,17.66,17.66,0,0,1-2.68.18,6.49,6.49,0,0,1-5-1.9,7.43,7.43,0,0,1-1.79-5.31,7.94,7.94,0,0,1,.89-3.83,5.92,5.92,0,0,1,2.53-2.52,8.27,8.27,0,0,1,3.89-.87,10.67,10.67,0,0,1,4.2.83l-.64,1.44a9.35,9.35,0,0,0-3.67-.81,5.28,5.28,0,0,0-4,1.53,5.93,5.93,0,0,0-1.44,4.23,6,6,0,0,0,1.39,4.31,5.37,5.37,0,0,0,4.09,1.47,11.85,11.85,0,0,0,2.86-.34V518.6h-3.15Z"/><path class="cls-10" d="M174.06,517.46a7.71,7.71,0,0,1-1.71,5.3,6.92,6.92,0,0,1-9.56,0,9.21,9.21,0,0,1,0-10.66,6.14,6.14,0,0,1,4.82-1.89,6,6,0,0,1,4.74,1.92A7.69,7.69,0,0,1,174.06,517.46Zm-11.23,0a6.58,6.58,0,0,0,1.22,4.32,5,5,0,0,0,7.08,0,6.77,6.77,0,0,0,1.19-4.33,6.67,6.67,0,0,0-1.19-4.29,4.26,4.26,0,0,0-3.52-1.47,4.33,4.33,0,0,0-3.56,1.48A6.52,6.52,0,0,0,162.83,517.46Zm3.41-8.36a16.55,16.55,0,0,0,1-1.44c.35-.56.63-1.05.84-1.46H170v.2a14.81,14.81,0,0,1-1.27,1.53,13.08,13.08,0,0,1-1.45,1.41h-1.07Z"/><path class="cls-10" d="M183.23,511.72a4.65,4.65,0,0,0-3.67,1.54,7.47,7.47,0,0,0,0,8.48,4.6,4.6,0,0,0,3.69,1.5,12.76,12.76,0,0,0,3.37-.53v1.43a10.33,10.33,0,0,1-3.62.55,6.13,6.13,0,0,1-4.8-1.88,7.73,7.73,0,0,1-1.69-5.35,8.47,8.47,0,0,1,.81-3.8,5.82,5.82,0,0,1,2.35-2.51,7.14,7.14,0,0,1,3.62-.89,8.69,8.69,0,0,1,3.87.81l-.69,1.4A7.48,7.48,0,0,0,183.23,511.72Z"/><path class="cls-10" d="M189.65,524.5v-14h1.64v14Z"/><path class="cls-10" d="M207.38,517.46a7.71,7.71,0,0,1-1.71,5.3,6.92,6.92,0,0,1-9.56,0,9.23,9.23,0,0,1,0-10.66,6.13,6.13,0,0,1,4.82-1.89,6,6,0,0,1,4.74,1.92A7.74,7.74,0,0,1,207.38,517.46Zm-11.22,0a6.64,6.64,0,0,0,1.21,4.32,4.34,4.34,0,0,0,3.55,1.48,4.27,4.27,0,0,0,3.53-1.47,8.37,8.37,0,0,0,0-8.62,4.27,4.27,0,0,0-3.52-1.47,4.35,4.35,0,0,0-3.57,1.48A6.58,6.58,0,0,0,196.16,517.46Z"/><path class="cls-10" d="M218.48,520.76a3.43,3.43,0,0,1-1.35,2.89,5.88,5.88,0,0,1-3.67,1,9.15,9.15,0,0,1-3.85-.65v-1.57a10.44,10.44,0,0,0,1.89.58,10,10,0,0,0,2,.21,4.12,4.12,0,0,0,2.47-.62,2,2,0,0,0,.83-1.72,2.18,2.18,0,0,0-.3-1.2,2.64,2.64,0,0,0-1-.86,14.06,14.06,0,0,0-2.09-.89,6.65,6.65,0,0,1-2.81-1.66,3.61,3.61,0,0,1-.85-2.5,3.11,3.11,0,0,1,1.23-2.59,5.07,5.07,0,0,1,3.23-1,9.62,9.62,0,0,1,3.87.77l-.51,1.42a8.85,8.85,0,0,0-3.39-.73,3.32,3.32,0,0,0-2,.56,1.83,1.83,0,0,0-.73,1.54,2.37,2.37,0,0,0,.27,1.2,2.51,2.51,0,0,0,.91.85,11.08,11.08,0,0,0,2,.86,7.8,7.8,0,0,1,3,1.69A3.29,3.29,0,0,1,218.48,520.76Z"/><path class="cls-10" d="M222.79,522.21l.15.22c-.17.64-.41,1.39-.72,2.23s-.65,1.64-1,2.37H220c.17-.67.36-1.49.57-2.47s.36-1.76.44-2.35ZM220.84,515q0-1.29,1.14-1.29c.79,0,1.19.43,1.19,1.29a1.34,1.34,0,0,1-.32,1,1.12,1.12,0,0,1-.87.34,1.06,1.06,0,0,1-.85-.34A1.43,1.43,0,0,1,220.84,515Z"/><path class="cls-10" d="M237.93,517.14h4.79V524a15.09,15.09,0,0,1-4.95.72,6.49,6.49,0,0,1-5-1.9,7.43,7.43,0,0,1-1.78-5.31,7.93,7.93,0,0,1,.88-3.83,5.94,5.94,0,0,1,2.54-2.52,8.22,8.22,0,0,1,3.88-.87,10.67,10.67,0,0,1,4.2.83l-.63,1.44a9.43,9.43,0,0,0-3.67-.81,5.25,5.25,0,0,0-4,1.53,5.89,5.89,0,0,0-1.45,4.23,6,6,0,0,0,1.39,4.31,5.37,5.37,0,0,0,4.09,1.47,11.93,11.93,0,0,0,2.87-.34V518.6h-3.16Z"/><path class="cls-10" d="M258.34,517.46a7.71,7.71,0,0,1-1.71,5.3,6.92,6.92,0,0,1-9.56,0,9.21,9.21,0,0,1,0-10.66,6.14,6.14,0,0,1,4.82-1.89,6,6,0,0,1,4.74,1.92A7.69,7.69,0,0,1,258.34,517.46Zm-11.23,0a6.64,6.64,0,0,0,1.22,4.32,5,5,0,0,0,7.08,0,6.77,6.77,0,0,0,1.19-4.33,6.61,6.61,0,0,0-1.19-4.29,4.26,4.26,0,0,0-3.52-1.47,4.33,4.33,0,0,0-3.56,1.48A6.58,6.58,0,0,0,247.11,517.46Z"/><path class="cls-10" d="M273.71,517.46a7.71,7.71,0,0,1-1.71,5.3,6.92,6.92,0,0,1-9.56,0,9.25,9.25,0,0,1,0-10.66,6.14,6.14,0,0,1,4.82-1.89,6,6,0,0,1,4.74,1.92A7.69,7.69,0,0,1,273.71,517.46Zm-11.23,0a6.64,6.64,0,0,0,1.22,4.32,5,5,0,0,0,7.08,0,6.71,6.71,0,0,0,1.19-4.33,6.61,6.61,0,0,0-1.19-4.29,4.25,4.25,0,0,0-3.52-1.47,4.33,4.33,0,0,0-3.56,1.48A6.58,6.58,0,0,0,262.48,517.46Z"/><path class="cls-10" d="M283.05,517.14h4.79V524a18,18,0,0,1-2.28.54,17.57,17.57,0,0,1-2.68.18,6.49,6.49,0,0,1-5-1.9,7.43,7.43,0,0,1-1.78-5.31,7.93,7.93,0,0,1,.88-3.83,5.94,5.94,0,0,1,2.54-2.52,8.25,8.25,0,0,1,3.88-.87,10.68,10.68,0,0,1,4.21.83l-.64,1.44a9.39,9.39,0,0,0-3.67-.81,5.25,5.25,0,0,0-4,1.53,5.89,5.89,0,0,0-1.45,4.23,6,6,0,0,0,1.4,4.31,5.36,5.36,0,0,0,4.09,1.47,11.91,11.91,0,0,0,2.86-.34V518.6h-3.15Z"/><path class="cls-10" d="M291.22,524.5v-14h1.64V523h6.22v1.48Z"/><path class="cls-10" d="M309.32,524.5h-7.85v-14h7.85v1.44H303.1v4.52H309v1.44H303.1V523h6.22Z"/><text class="cls-2" transform="translate(350.68 894.16)">0,8</text><line class="cls-48" x1="324.91" y1="890.06" x2="333.79" y2="890.06"/><rect class="cls-49" x="324.57" y="887.88" width="0.67" height="4.37"/><circle class="cls-49" cx="333.53" cy="890.06" r="5.05"/><path class="cls-10" d="M152.49,873.41a3.94,3.94,0,0,1-1.46,3.28,6.69,6.69,0,0,1-4.18,1.14h-1.66v5.52h-1.64v-14h3.66Q152.49,869.32,152.49,873.41Zm-7.3,3h1.48a5.48,5.48,0,0,0,3.15-.7,2.57,2.57,0,0,0,1-2.24,2.43,2.43,0,0,0-.91-2.08,4.84,4.84,0,0,0-2.86-.68h-1.83Z"/><path class="cls-10" d="M157.08,877.52v5.83h-1.64v-14h3.86a6.08,6.08,0,0,1,3.83,1,3.56,3.56,0,0,1,1.24,3,3.74,3.74,0,0,1-2.83,3.77l3.82,6.3h-1.93L160,877.52Zm0-1.4h2.24a3.89,3.89,0,0,0,2.55-.69,2.54,2.54,0,0,0,.8-2.06,2.32,2.32,0,0,0-.82-2,4.46,4.46,0,0,0-2.64-.62h-2.13Z"/><path class="cls-10" d="M179.87,876.32a7.68,7.68,0,0,1-1.71,5.29,6,6,0,0,1-4.76,1.93,6.11,6.11,0,0,1-4.8-1.89,7.77,7.77,0,0,1-1.69-5.35A7.64,7.64,0,0,1,168.6,871a6.14,6.14,0,0,1,4.82-1.89,6,6,0,0,1,4.74,1.92A7.69,7.69,0,0,1,179.87,876.32Zm-11.23,0a6.64,6.64,0,0,0,1.22,4.32,5,5,0,0,0,7.08,0,6.73,6.73,0,0,0,1.19-4.33,6.66,6.66,0,0,0-1.19-4.3,4.27,4.27,0,0,0-3.52-1.46,4.36,4.36,0,0,0-3.56,1.47A6.59,6.59,0,0,0,168.64,876.32Z"/><path class="cls-10" d="M194,883.35h-1.87l-7.7-11.77h-.08c.1,1.38.15,2.65.15,3.8v8H183v-14h1.85l7.68,11.73h.08c0-.17,0-.73-.09-1.67s-.06-1.6,0-2v-8H194Z"/><path class="cls-10" d="M202.23,883.35h-1.64V870.77h-4.46v-1.45h10.56v1.45h-4.46Z"/><path class="cls-10" d="M208.81,883.35v-14h1.64v12.55h6.22v1.48Z"/><path class="cls-10" d="M219.06,883.35v-14h1.63v14Z"/><path class="cls-10" d="M226.2,883.35h-1.64v-14h7.85v1.45H226.2v5.13H232v1.45H226.2Z"/><path class="cls-10" d="M242.6,883.35h-7.85v-14h7.85v1.45h-6.22v4.52h5.84v1.44h-5.84v5.16h6.22Z"/><path class="cls-10" d="M247.16,881.07l.14.22a20.75,20.75,0,0,1-.72,2.23c-.31.85-.64,1.64-1,2.36h-1.21c.18-.66.37-1.48.58-2.46s.35-1.76.44-2.35Zm-2-7.21c0-.86.38-1.29,1.15-1.29s1.19.43,1.19,1.29a1.34,1.34,0,0,1-.32,1,1.17,1.17,0,0,1-.87.34,1.08,1.08,0,0,1-.85-.34A1.38,1.38,0,0,1,245.2,873.86Z"/><path class="cls-10" d="M266.74,869.32v9.08a4.92,4.92,0,0,1-1.45,3.77,5.58,5.58,0,0,1-4,1.37,5.36,5.36,0,0,1-3.94-1.38,5.11,5.11,0,0,1-1.39-3.8v-9h1.64v9.16a3.58,3.58,0,0,0,1,2.69,3.88,3.88,0,0,0,2.83.94,3.76,3.76,0,0,0,2.75-.94,3.64,3.64,0,0,0,1-2.71v-9.14Z"/><path class="cls-10" d="M272.11,883.35h-1.64v-14h7.86v1.45h-6.22v5.13H278v1.45h-5.84Z"/><path class="cls-10" d="M282.3,877.52v5.83h-1.64v-14h3.86a6.13,6.13,0,0,1,3.84,1,3.58,3.58,0,0,1,1.23,3,3.74,3.74,0,0,1-2.83,3.77l3.83,6.3h-1.94l-3.41-5.83Zm0-1.4h2.24a3.89,3.89,0,0,0,2.55-.69,2.55,2.55,0,0,0,.81-2.06,2.33,2.33,0,0,0-.83-2,4.46,4.46,0,0,0-2.64-.62H282.3Z"/><path class="cls-10" d="M290.81,887.05a3.29,3.29,0,0,1-1.43-.26V885.4a5.61,5.61,0,0,0,1.43.19,1.8,1.8,0,0,0,1.45-.58,2.47,2.47,0,0,0,.49-1.66v-14h1.64v13.9a4,4,0,0,1-.92,2.82A3.45,3.45,0,0,1,290.81,887.05Z"/><path class="cls-10" d="M299.57,881.07l.14.22a20.75,20.75,0,0,1-.72,2.23c-.31.85-.64,1.64-1,2.36H296.8c.18-.66.37-1.48.58-2.46s.35-1.76.44-2.35Zm-2-7.21c0-.86.39-1.29,1.15-1.29s1.19.43,1.19,1.29a1.34,1.34,0,0,1-.32,1,1.17,1.17,0,0,1-.87.34,1.08,1.08,0,0,1-.85-.34A1.38,1.38,0,0,1,297.61,873.86Z"/><path class="cls-10" d="M93.14,903.35v-14h1.64v12.55H101v1.48Z"/><path class="cls-10" d="M111.24,903.35h-7.86v-14h7.86v1.45H105v4.52h5.84v1.44H105v5.16h6.22Z"/><path class="cls-10" d="M120.6,903.35l-4.78-12.44h-.08c.09,1,.13,2.16.13,3.52v8.92h-1.51v-14h2.47l4.46,11.57h.08l4.5-11.57h2.45v14h-1.64v-9c0-1,0-2.16.13-3.38h-.07l-4.82,12.42Z"/><path class="cls-10" d="M144.41,896.32a7.68,7.68,0,0,1-1.71,5.29,6,6,0,0,1-4.76,1.93,6.11,6.11,0,0,1-4.8-1.89,7.77,7.77,0,0,1-1.69-5.35,7.6,7.6,0,0,1,1.7-5.31A6.12,6.12,0,0,1,138,889.1a6,6,0,0,1,4.75,1.92A7.74,7.74,0,0,1,144.41,896.32Zm-11.23,0a6.64,6.64,0,0,0,1.22,4.32,5,5,0,0,0,7.08,0,8.39,8.39,0,0,0,0-8.63,4.31,4.31,0,0,0-3.53-1.46A4.37,4.37,0,0,0,134.4,892,6.59,6.59,0,0,0,133.18,896.32Z"/><path class="cls-10" d="M147.55,889.32h4a7.5,7.5,0,0,1,4.06.84,2.92,2.92,0,0,1,1.25,2.64,3,3,0,0,1-.69,2.05,3.4,3.4,0,0,1-2,1v.1q3.21.56,3.21,3.36A3.63,3.63,0,0,1,156,902.3a5.47,5.47,0,0,1-3.57,1.05h-4.92Zm1.64,6h2.7a4.43,4.43,0,0,0,2.5-.54,2.11,2.11,0,0,0,.76-1.83,1.82,1.82,0,0,0-.85-1.7,5.32,5.32,0,0,0-2.7-.53h-2.41Zm0,1.38V902h2.94a4.2,4.2,0,0,0,2.57-.66,2.43,2.43,0,0,0,.86-2.06,2.17,2.17,0,0,0-.88-1.92,4.8,4.8,0,0,0-2.68-.61Z"/><path class="cls-10" d="M168.29,899.62a3.44,3.44,0,0,1-1.35,2.89,5.87,5.87,0,0,1-3.66,1,9.17,9.17,0,0,1-3.85-.64v-1.57a10.59,10.59,0,0,0,3.91.78,4.07,4.07,0,0,0,2.47-.62,2,2,0,0,0,.83-1.72,2.17,2.17,0,0,0-.3-1.19,2.64,2.64,0,0,0-1-.86,13.8,13.8,0,0,0-2.1-.89,6.78,6.78,0,0,1-2.81-1.66,3.68,3.68,0,0,1-.84-2.51,3.12,3.12,0,0,1,1.22-2.58,5.12,5.12,0,0,1,3.24-1,9.65,9.65,0,0,1,3.87.77l-.51,1.42a8.76,8.76,0,0,0-3.4-.73,3.24,3.24,0,0,0-2,.56,1.81,1.81,0,0,0-.73,1.54,2.39,2.39,0,0,0,.27,1.2,2.51,2.51,0,0,0,.91.85,11.87,11.87,0,0,0,2,.86,7.75,7.75,0,0,1,3.05,1.69A3.29,3.29,0,0,1,168.29,899.62Z"/><path class="cls-10" d="M172.61,901.07l.15.22c-.17.64-.41,1.38-.73,2.23s-.64,1.64-1,2.36h-1.2q.26-1,.57-2.46c.21-1,.35-1.76.44-2.35Zm-2-7.21q0-1.29,1.14-1.29c.79,0,1.19.43,1.19,1.29a1.34,1.34,0,0,1-.32,1,1.15,1.15,0,0,1-.87.34,1.08,1.08,0,0,1-.85-.34A1.38,1.38,0,0,1,170.66,893.86Z"/><path class="cls-10" d="M181.56,903.35v-14h1.63v12.55h6.22v1.48Z"/><path class="cls-10" d="M202.81,903.35h-1.87l-7.7-11.77h-.08c.1,1.38.15,2.65.15,3.8v8H191.8v-14h1.85l7.68,11.73h.08c0-.17,0-.73-.09-1.67s-.06-1.6,0-2v-8h1.54Z"/><path class="cls-10" d="M212.71,890.58a4.58,4.58,0,0,0-3.66,1.54,6.18,6.18,0,0,0-1.35,4.22,6.28,6.28,0,0,0,1.3,4.25,4.6,4.6,0,0,0,3.69,1.5,12.71,12.71,0,0,0,3.37-.52V903a10.54,10.54,0,0,1-3.62.54,6.11,6.11,0,0,1-4.8-1.88,7.69,7.69,0,0,1-1.69-5.34,8.41,8.41,0,0,1,.81-3.8,5.85,5.85,0,0,1,2.35-2.52,7.14,7.14,0,0,1,3.62-.88,8.76,8.76,0,0,1,3.88.81l-.7,1.4A7.45,7.45,0,0,0,212.71,890.58Z"/><path class="cls-10" d="M225.17,890.58a4.6,4.6,0,0,0-3.67,1.54,6.18,6.18,0,0,0-1.35,4.22,6.33,6.33,0,0,0,1.3,4.25,4.62,4.62,0,0,0,3.7,1.5,12.7,12.7,0,0,0,3.36-.52V903a10.52,10.52,0,0,1-3.61.54,6.12,6.12,0,0,1-4.81-1.88,7.69,7.69,0,0,1-1.69-5.34,8.41,8.41,0,0,1,.81-3.8,5.87,5.87,0,0,1,2.36-2.52,7.1,7.1,0,0,1,3.61-.88,8.76,8.76,0,0,1,3.88.81l-.69,1.4A7.52,7.52,0,0,0,225.17,890.58Z"/><path class="cls-10" d="M233,901.07l.14.22a20.75,20.75,0,0,1-.72,2.23c-.31.85-.64,1.64-1,2.36h-1.21c.18-.66.37-1.48.58-2.46s.35-1.76.44-2.35Zm-2-7.21c0-.86.39-1.29,1.15-1.29s1.19.43,1.19,1.29a1.34,1.34,0,0,1-.32,1,1.15,1.15,0,0,1-.87.34,1.08,1.08,0,0,1-.85-.34A1.38,1.38,0,0,1,231.06,893.86Z"/><path class="cls-10" d="M252.6,889.32v9.08a4.92,4.92,0,0,1-1.45,3.77,5.57,5.57,0,0,1-4,1.37,5.36,5.36,0,0,1-3.94-1.38,5.11,5.11,0,0,1-1.39-3.8v-9h1.64v9.16a3.58,3.58,0,0,0,1,2.69,3.89,3.89,0,0,0,2.84.94,3.75,3.75,0,0,0,2.74-.94,3.65,3.65,0,0,0,1-2.71v-9.14Z"/><path class="cls-10" d="M267.34,903.35h-1.87l-7.7-11.77h-.08c.1,1.38.16,2.65.16,3.8v8h-1.52v-14h1.85l7.69,11.73h.07c0-.17,0-.73-.08-1.67s-.07-1.6-.05-2v-8h1.53Z"/><path class="cls-10" d="M271.21,903.35v-14h1.64v14Z"/><path class="cls-10" d="M278.36,903.35h-1.64v-14h7.85v1.45h-6.21v5.13h5.84v1.45h-5.84Z"/><path class="cls-10" d="M294.76,903.35h-7.85v-14h7.85v1.45h-6.22v4.52h5.84v1.44h-5.84v5.16h6.22Z"/><path class="cls-10" d="M297.88,903.35v-14h1.64v14Z"/><text class="cls-2" transform="translate(350.68 978.98)">0,8</text><line class="cls-50" x1="324.91" y1="974.89" x2="333.79" y2="974.89"/><rect class="cls-51" x="324.57" y="972.71" width="0.67" height="4.37"/><circle class="cls-51" cx="333.53" cy="974.89" r="5.05"/><path class="cls-10" d="M145.07,971.44a3.43,3.43,0,0,1-1.35,2.89,5.88,5.88,0,0,1-3.67,1,9.15,9.15,0,0,1-3.85-.65v-1.57a10.44,10.44,0,0,0,1.89.58,10,10,0,0,0,2,.21,4.12,4.12,0,0,0,2.47-.62,2,2,0,0,0,.83-1.72,2.18,2.18,0,0,0-.3-1.2,2.73,2.73,0,0,0-1-.86,14.06,14.06,0,0,0-2.09-.89,6.65,6.65,0,0,1-2.81-1.66,3.61,3.61,0,0,1-.85-2.5,3.12,3.12,0,0,1,1.23-2.59,5.07,5.07,0,0,1,3.23-.95,9.61,9.61,0,0,1,3.87.76l-.51,1.42a8.85,8.85,0,0,0-3.39-.73,3.32,3.32,0,0,0-2,.56,1.83,1.83,0,0,0-.73,1.55,2.36,2.36,0,0,0,.27,1.19,2.43,2.43,0,0,0,.91.85,11.08,11.08,0,0,0,2,.86,7.8,7.8,0,0,1,3,1.69A3.29,3.29,0,0,1,145.07,971.44Z"/><path class="cls-10" d="M155.8,975.18H148v-14h7.85v1.45h-6.21v4.52h5.84v1.43h-5.84v5.17h6.21Z"/><path class="cls-10" d="M165,962.4a4.65,4.65,0,0,0-3.67,1.54,6.25,6.25,0,0,0-1.34,4.22,6.34,6.34,0,0,0,1.29,4.26,4.64,4.64,0,0,0,3.7,1.5,12.76,12.76,0,0,0,3.36-.53v1.43a10.23,10.23,0,0,1-3.61.55,6.15,6.15,0,0,1-4.81-1.88,7.78,7.78,0,0,1-1.69-5.35,8.34,8.34,0,0,1,.82-3.8,5.82,5.82,0,0,1,2.35-2.51A7.11,7.11,0,0,1,165,961a8.69,8.69,0,0,1,3.87.8l-.69,1.4A7.48,7.48,0,0,0,165,962.4Z"/><path class="cls-10" d="M170.9,974.16a1.44,1.44,0,0,1,.3-1,1.06,1.06,0,0,1,.84-.33,1.13,1.13,0,0,1,.87.33,1.39,1.39,0,0,1,.32,1,1.36,1.36,0,0,1-.32,1,1.15,1.15,0,0,1-.87.33,1.13,1.13,0,0,1-.81-.3A1.28,1.28,0,0,1,170.9,974.16Z"/><path class="cls-10" d="M193,968a7.09,7.09,0,0,1-1.89,5.31,7.53,7.53,0,0,1-5.45,1.84h-3.9v-14h4.31a6.92,6.92,0,0,1,5.11,1.81A6.82,6.82,0,0,1,193,968Zm-1.73.06a5.65,5.65,0,0,0-1.38-4.14,5.57,5.57,0,0,0-4.11-1.39h-2.39v11.21h2a6.06,6.06,0,0,0,4.4-1.44A5.64,5.64,0,0,0,191.27,968.09Z"/><path class="cls-10" d="M205,975.18l-1.75-4.47H197.6l-1.73,4.47h-1.66l5.57-14.09h1.38l5.54,14.09Zm-2.26-5.93-1.64-4.35c-.21-.55-.43-1.23-.66-2a18.39,18.39,0,0,1-.6,2l-1.66,4.35Z"/><path class="cls-10" d="M221.71,971.44a3.45,3.45,0,0,1-1.34,2.89,5.88,5.88,0,0,1-3.67,1,9.15,9.15,0,0,1-3.85-.65v-1.57a10.44,10.44,0,0,0,1.89.58,10,10,0,0,0,2,.21,4.14,4.14,0,0,0,2.47-.62,2,2,0,0,0,.83-1.72,2.18,2.18,0,0,0-.3-1.2,2.73,2.73,0,0,0-1-.86,13.8,13.8,0,0,0-2.1-.89,6.78,6.78,0,0,1-2.81-1.66,3.65,3.65,0,0,1-.84-2.5,3.14,3.14,0,0,1,1.22-2.59,5.12,5.12,0,0,1,3.24-.95,9.65,9.65,0,0,1,3.87.76l-.51,1.42a8.94,8.94,0,0,0-3.4-.73,3.31,3.31,0,0,0-2,.56,1.83,1.83,0,0,0-.73,1.55,2.36,2.36,0,0,0,.27,1.19,2.43,2.43,0,0,0,.91.85,11.08,11.08,0,0,0,2,.86,7.8,7.8,0,0,1,3,1.69A3.29,3.29,0,0,1,221.71,971.44Z"/><path class="cls-10" d="M233.45,975.18l-1.75-4.47h-5.65l-1.73,4.47h-1.66l5.57-14.09h1.38l5.54,14.09Zm-2.26-5.93-1.64-4.35c-.21-.55-.43-1.23-.66-2a18.39,18.39,0,0,1-.6,2l-1.66,4.35Z"/><path class="cls-10" d="M247.73,961.15v9.07a5,5,0,0,1-1.46,3.78,5.61,5.61,0,0,1-4,1.37,5.37,5.37,0,0,1-3.94-1.38,5.16,5.16,0,0,1-1.39-3.8v-9h1.64v9.15a3.62,3.62,0,0,0,1,2.7,3.91,3.91,0,0,0,2.84.94,3.74,3.74,0,0,0,2.74-1,3.59,3.59,0,0,0,1-2.71v-9.13Zm-6.8-1.37a16.55,16.55,0,0,0,1-1.44,14.69,14.69,0,0,0,.84-1.46h1.95v.2a13.54,13.54,0,0,1-1.26,1.53A14,14,0,0,1,242,960h-1.07Z"/><path class="cls-10" d="M262.7,968a7.09,7.09,0,0,1-1.89,5.31,7.53,7.53,0,0,1-5.45,1.84h-3.9v-14h4.31a6.92,6.92,0,0,1,5.11,1.81A6.82,6.82,0,0,1,262.7,968Zm-1.73.06a5.65,5.65,0,0,0-1.38-4.14,5.57,5.57,0,0,0-4.11-1.39h-2.39v11.21h2a6.06,6.06,0,0,0,4.4-1.44A5.64,5.64,0,0,0,261,968.09Z"/><path class="cls-10" d="M273.7,975.18h-7.85v-14h7.85v1.45h-6.22v4.52h5.84v1.43h-5.84v5.17h6.22Z"/><path class="cls-10" d="M293.2,968a7.05,7.05,0,0,1-1.9,5.31,7.53,7.53,0,0,1-5.45,1.84H282v-14h4.32a6.93,6.93,0,0,1,5.11,1.81A6.86,6.86,0,0,1,293.2,968Zm-1.74.06a5.65,5.65,0,0,0-1.38-4.14,5.54,5.54,0,0,0-4.11-1.39h-2.38v11.21h2a6.08,6.08,0,0,0,4.41-1.44A5.67,5.67,0,0,0,291.46,968.09Z"/><path class="cls-10" d="M304.19,975.18h-7.85v-14h7.85v1.45H298v4.52h5.84v1.43H298v5.17h6.21Z"/><path class="cls-10" d="M35.23,982.4a4.63,4.63,0,0,0-3.66,1.54,6.2,6.2,0,0,0-1.35,4.22,6.29,6.29,0,0,0,1.3,4.26,4.62,4.62,0,0,0,3.69,1.5,12.76,12.76,0,0,0,3.37-.53v1.43a10.29,10.29,0,0,1-3.62.55,6.14,6.14,0,0,1-4.8-1.88,7.73,7.73,0,0,1-1.69-5.35,8.47,8.47,0,0,1,.81-3.8,5.94,5.94,0,0,1,2.35-2.51,7.16,7.16,0,0,1,3.62-.88,8.76,8.76,0,0,1,3.88.8l-.7,1.4A7.45,7.45,0,0,0,35.23,982.4Z"/><path class="cls-10" d="M50.51,995.18l-1.75-4.47H43.11l-1.74,4.47H39.72l5.57-14.09h1.37l5.55,14.09Zm-2.26-5.93-1.64-4.35c-.22-.55-.43-1.23-.66-2a16.62,16.62,0,0,1-.61,2l-1.65,4.35Z"/><path class="cls-10" d="M60.38,995.18,55.6,982.74h-.08c.09,1,.14,2.16.14,3.51v8.93H54.14v-14h2.47l4.46,11.57h.08l4.5-11.57H68.1v14H66.46v-9c0-1,0-2.17.13-3.38h-.07L61.7,995.18Z"/><path class="cls-10" d="M80.9,985.23a3.93,3.93,0,0,1-1.46,3.28,6.62,6.62,0,0,1-4.18,1.15H73.6v5.52H72v-14h3.66Q80.9,981.15,80.9,985.23Zm-7.3,3h1.48a5.56,5.56,0,0,0,3.15-.7,2.58,2.58,0,0,0,1-2.25,2.4,2.4,0,0,0-.91-2.07,4.79,4.79,0,0,0-2.86-.68H73.6Z"/><path class="cls-10" d="M96.08,988.14a7.71,7.71,0,0,1-1.71,5.3,6.92,6.92,0,0,1-9.56,0,9.21,9.21,0,0,1,0-10.66,6.14,6.14,0,0,1,4.82-1.88,6,6,0,0,1,4.74,1.91A7.71,7.71,0,0,1,96.08,988.14Zm-11.23,0a6.63,6.63,0,0,0,1.22,4.33,5,5,0,0,0,7.08,0,6.77,6.77,0,0,0,1.19-4.33,6.63,6.63,0,0,0-1.19-4.29,4.26,4.26,0,0,0-3.52-1.47,4.36,4.36,0,0,0-3.56,1.48A6.52,6.52,0,0,0,84.85,988.14Z"/><path class="cls-10" d="M110.54,987.83h4.79v6.82a17.43,17.43,0,0,1-2.27.54,17.66,17.66,0,0,1-2.68.18,6.47,6.47,0,0,1-5-1.9,7.43,7.43,0,0,1-1.79-5.31,8,8,0,0,1,.89-3.83,5.92,5.92,0,0,1,2.53-2.52,8.26,8.26,0,0,1,3.89-.86,10.66,10.66,0,0,1,4.2.82l-.64,1.44a9.35,9.35,0,0,0-3.67-.81,5.28,5.28,0,0,0-4,1.53,5.93,5.93,0,0,0-1.44,4.23,6,6,0,0,0,1.39,4.31,5.37,5.37,0,0,0,4.09,1.47,11.85,11.85,0,0,0,2.86-.34v-4.32h-3.15Z"/><path class="cls-10" d="M120.35,989.34v5.84h-1.63v-14h3.86a6.14,6.14,0,0,1,3.83,1,3.58,3.58,0,0,1,1.24,3,3.72,3.72,0,0,1-2.83,3.76l3.82,6.31h-1.93l-3.42-5.84Zm0-1.4h2.25a3.92,3.92,0,0,0,2.54-.68,2.56,2.56,0,0,0,.81-2.06,2.34,2.34,0,0,0-.82-2,4.48,4.48,0,0,0-2.65-.61h-2.13Z"/><path class="cls-10" d="M139.77,995.18,138,990.71h-5.65l-1.73,4.47H129l5.57-14.09h1.38l5.54,14.09Zm-2.26-5.93-1.64-4.35c-.21-.55-.43-1.23-.66-2a18.39,18.39,0,0,1-.6,2L133,989.25Z"/><path class="cls-10" d="M154.41,995.18h-1.87l-7.7-11.78h-.07c.1,1.38.15,2.65.15,3.8v8h-1.51v-14h1.85l7.68,11.72H153c0-.17-.05-.72-.09-1.66s-.06-1.61-.05-2v-8.05h1.53Z"/><path class="cls-10" d="M169.54,988a7.09,7.09,0,0,1-1.9,5.31,7.53,7.53,0,0,1-5.45,1.84h-3.9v-14h4.32a6.89,6.89,0,0,1,5.1,1.81A6.82,6.82,0,0,1,169.54,988Zm-1.74.06a5.65,5.65,0,0,0-1.38-4.14,5.56,5.56,0,0,0-4.11-1.39h-2.38v11.21h2a6.1,6.1,0,0,0,4.41-1.44A5.67,5.67,0,0,0,167.8,988.09Z"/><path class="cls-10" d="M180.53,995.18h-7.85v-14h7.85v1.45h-6.21v4.52h5.84v1.43h-5.84v5.17h6.21Z"/><path class="cls-10" d="M185.09,992.89l.14.22a20.06,20.06,0,0,1-.72,2.23c-.31.85-.64,1.64-1,2.37h-1.21c.18-.67.37-1.49.58-2.47s.35-1.76.44-2.35Zm-2-7.2c0-.87.39-1.3,1.15-1.3s1.19.43,1.19,1.3a1.37,1.37,0,0,1-.32,1,1.15,1.15,0,0,1-.87.33,1.07,1.07,0,0,1-.85-.33A1.42,1.42,0,0,1,183.13,985.69Z"/><path class="cls-10" d="M202.89,995.18l-1.75-4.47h-5.65l-1.74,4.47H192.1l5.57-14.09h1.38l5.54,14.09Zm-2.26-5.93L199,984.9c-.21-.55-.43-1.23-.66-2a16.62,16.62,0,0,1-.61,2l-1.65,4.35Z"/><path class="cls-10" d="M212.72,987.83h4.79v6.82a17.43,17.43,0,0,1-2.27.54,17.66,17.66,0,0,1-2.68.18,6.5,6.5,0,0,1-5-1.9,7.47,7.47,0,0,1-1.78-5.31,8.08,8.08,0,0,1,.88-3.83,6,6,0,0,1,2.54-2.52,8.26,8.26,0,0,1,3.89-.86,10.66,10.66,0,0,1,4.2.82l-.64,1.44a9.35,9.35,0,0,0-3.67-.81,5.28,5.28,0,0,0-4,1.53,5.93,5.93,0,0,0-1.44,4.23,6,6,0,0,0,1.39,4.31,5.37,5.37,0,0,0,4.09,1.47,11.85,11.85,0,0,0,2.86-.34v-4.32h-3.15Z"/><path class="cls-10" d="M220.42,994.16a1.44,1.44,0,0,1,.3-1,1,1,0,0,1,.84-.33,1.15,1.15,0,0,1,.87.33,1.39,1.39,0,0,1,.32,1,1.36,1.36,0,0,1-.32,1,1.16,1.16,0,0,1-.87.33,1.13,1.13,0,0,1-.81-.3A1.28,1.28,0,0,1,220.42,994.16Z"/><path class="cls-10" d="M237.51,995.18l-4.78-12.44h-.08c.09,1,.14,2.16.14,3.51v8.93h-1.52v-14h2.47l4.46,11.57h.08l4.5-11.57h2.45v14h-1.64v-9c0-1,0-2.17.14-3.38h-.08l-4.82,12.42Z"/><path class="cls-10" d="M259.73,981.15v9.07a5,5,0,0,1-1.45,3.78,5.61,5.61,0,0,1-4,1.37,5.36,5.36,0,0,1-3.94-1.38,5.12,5.12,0,0,1-1.39-3.8v-9h1.64v9.15a3.62,3.62,0,0,0,1,2.7,3.89,3.89,0,0,0,2.84.94,3.75,3.75,0,0,0,2.74-1,3.63,3.63,0,0,0,1-2.71v-9.13Z"/><path class="cls-10" d="M274.47,995.18H272.6l-7.7-11.78h-.08c.1,1.38.16,2.65.16,3.8v8h-1.52v-14h1.85L273,992.87h.07c0-.17,0-.72-.08-1.66s-.07-1.61-.05-2v-8.05h1.53Z"/><path class="cls-10" d="M278.34,995.18v-14H280v14Z"/><path class="cls-10" d="M289.88,982.4a4.65,4.65,0,0,0-3.67,1.54,6.25,6.25,0,0,0-1.34,4.22,6.34,6.34,0,0,0,1.29,4.26,4.64,4.64,0,0,0,3.7,1.5,12.7,12.7,0,0,0,3.36-.53v1.43a10.23,10.23,0,0,1-3.61.55,6.13,6.13,0,0,1-4.8-1.88,7.73,7.73,0,0,1-1.69-5.35,8.47,8.47,0,0,1,.81-3.8,5.88,5.88,0,0,1,2.35-2.51,7.14,7.14,0,0,1,3.62-.88,8.69,8.69,0,0,1,3.87.8l-.69,1.4A7.48,7.48,0,0,0,289.88,982.4Z"/><path class="cls-10" d="M295.83,994.16a1.43,1.43,0,0,1,.29-1,1.08,1.08,0,0,1,.84-.33,1.15,1.15,0,0,1,.88.33,1.44,1.44,0,0,1,.31,1,1.36,1.36,0,0,1-.32,1,1.15,1.15,0,0,1-.87.33,1.16,1.16,0,0,1-.81-.3A1.28,1.28,0,0,1,295.83,994.16Z"/><path class="cls-10" d="M306,980.24l-.42,3.8,3.84-1.07.25,1.75L306,985l2.39,3.13-1.66.9-1.7-3.47L303.44,989l-1.69-.9,2.33-3.13-3.64-.29.28-1.75,3.77,1.07-.41-3.8Z"/></svg>