<svg id="Layer_1" data-name="Layer 1" xmlns="http://www.w3.org/2000/svg" viewBox="0 0 768 1657.6"><defs><style>.cls-1{fill:#030420;}.cls-10,.cls-12,.cls-15,.cls-17,.cls-2,.cls-20,.cls-22,.cls-24,.cls-26,.cls-27,.cls-29,.cls-3,.cls-31,.cls-32,.cls-33,.cls-35,.cls-37,.cls-39,.cls-41,.cls-44,.cls-47,.cls-5,.cls-51,.cls-8{font-size:20px;font-family:OpenSans, Open Sans;}.cls-14,.cls-2,.cls-3,.cls-49,.cls-53{fill:#fff;}.cls-10,.cls-12,.cls-15,.cls-17,.cls-2,.cls-24,.cls-27,.cls-29,.cls-32,.cls-35,.cls-37,.cls-39,.cls-41,.cls-44,.cls-47,.cls-51,.cls-6,.cls-8{letter-spacing:0.04em;}.cls-18,.cls-22,.cls-26,.cls-3,.cls-33{letter-spacing:0.04em;}.cls-4,.cls-43{fill:none;stroke:#fff;stroke-width:0.25px;}.cls-36,.cls-4,.cls-46,.cls-48,.cls-49,.cls-50{opacity:0.29;}.cls-32,.cls-5,.cls-7{fill:#d16fa5;}.cls-20,.cls-31,.cls-5{letter-spacing:0.04em;}.cls-8,.cls-9{fill:#8688b2;}.cls-10,.cls-11,.cls-50{fill:#dddab1;}.cls-12,.cls-13,.cls-31{fill:#f93543;}.cls-15,.cls-16{fill:#b69dff;}.cls-17,.cls-19{fill:#008aff;}.cls-20,.cls-21,.cls-35,.cls-46{fill:#83e084;}.cls-22,.cls-23{fill:#f67b82;}.cls-24,.cls-25,.cls-26{fill:#fcd887;}.cls-27,.cls-28,.cls-36{fill:#f6a020;}.cls-29,.cls-30{fill:aqua;}.cls-33,.cls-34,.cls-47,.cls-48{fill:#f4ff00;}.cls-37,.cls-38{fill:#2255ed;}.cls-39,.cls-40{fill:#f68ceb;}.cls-41,.cls-42{fill:#c5f736;}.cls-43{opacity:0.58;}.cls-44,.cls-45{fill:#72c1a5;}.cls-51,.cls-52{fill:#f74549;}.cls-53{font-size:13.96px;font-family:OpenSans-Bold, Open Sans;font-weight:700;letter-spacing:0.04em;}.cls-54{opacity:0.28;}.cls-55{letter-spacing:0.04em;}</style></defs><rect class="cls-1" x="-2" y="-259.27" width="770" height="2858.3"/><text class="cls-2" transform="translate(288.9 322.27) rotate(-90)">MINHA SAÚDE</text><text class="cls-2" transform="translate(312.83 322.27) rotate(-90)">ALÔ SAÚDE FLORIPA</text><text class="cls-2" transform="translate(336.76 322.27) rotate(-90)">MONITORA COVID-19</text><text class="cls-3" transform="translate(360.69 322.27) rotate(-90)">DYCOVID - DYNAMIC CONTACT TRACING</text><text class="cls-2" transform="translate(384.62 322.27) rotate(-90)">CEARÁ APP</text><text class="cls-2" transform="translate(432.48 322.27) rotate(-90)">PRONTO MOBILE</text><text class="cls-2" transform="translate(456.41 322.27) rotate(-90)">E-SAÚDE SP</text><text class="cls-2" transform="translate(408.55 322.27) rotate(-90)">COLAB</text><text class="cls-3" transform="translate(391.54 322.27) rotate(-90)">SIMOT</text><text class="cls-3" transform="translate(480.34 322.27) rotate(-90)">SAÚDE SANTO ANDRÉ</text><text class="cls-3" transform="translate(504.26 322.27) rotate(-90)">DADOS DO BEM</text><text class="cls-2" transform="translate(528.19 322.27) rotate(-90)">MAIS SAÚDE CIDADÃO</text><text class="cls-3" transform="translate(442.86 322.27) rotate(-90)">SASI</text><text class="cls-3" transform="translate(455.69 322.27) rotate(-90)">ISUS</text><text class="cls-3" transform="translate(552.12 322.27) rotate(-90)">DISTANCIAMENTO CONTROLADO RS</text><text class="cls-2" transform="translate(576.05 322.27) rotate(-90)">TELEMEDICINA PARANÁ</text><text class="cls-3" transform="translate(647.84 322.27) rotate(-90)">SAÚDE ONLINE PR</text><text class="cls-3" transform="translate(671.77 322.27) rotate(-90)">SANTA ISABEL CONTRA O CORONAVÍRUS</text><text class="cls-3" transform="translate(695.7 322.27) rotate(-90)">SAÚDE DIGITAL MG - COVID-19</text><text class="cls-2" transform="translate(599.98 322.27) rotate(-90)">COVIDPR</text><text class="cls-2" transform="translate(623.91 322.27) rotate(-90)">KEYAPP</text><text class="cls-2" transform="translate(719.63 322.27) rotate(-90)">CORONAVÍRUS - SUS</text><text class="cls-2" transform="translate(743.56 322.27) rotate(-90)">ATENDE EM CASA</text><text class="cls-3" transform="translate(767.49 322.27) rotate(-90)">SAÚDE APARECIDA</text><line class="cls-4" x1="292.41" y1="1381.24" x2="292.41" y2="358.06"/><line class="cls-4" x1="305.72" y1="1381.24" x2="305.72" y2="358.06"/><line class="cls-4" x1="319.03" y1="1381.24" x2="319.03" y2="358.06"/><line class="cls-4" x1="332.35" y1="1381.24" x2="332.35" y2="358.06"/><line class="cls-4" x1="345.66" y1="1381.24" x2="345.66" y2="358.06"/><line class="cls-4" x1="358.98" y1="1381.24" x2="358.98" y2="358.06"/><line class="cls-4" x1="372.29" y1="1381.24" x2="372.29" y2="358.06"/><line class="cls-4" x1="385.61" y1="1381.24" x2="385.61" y2="358.06"/><line class="cls-4" x1="398.92" y1="1381.24" x2="398.92" y2="358.06"/><line class="cls-4" x1="412.23" y1="1381.24" x2="412.23" y2="358.06"/><line class="cls-4" x1="425.55" y1="1381.24" x2="425.55" y2="358.06"/><line class="cls-4" x1="438.86" y1="1381.24" x2="438.86" y2="358.06"/><line class="cls-4" x1="452.18" y1="1381.24" x2="452.18" y2="358.06"/><line class="cls-4" x1="465.49" y1="1381.24" x2="465.49" y2="358.06"/><line class="cls-4" x1="478.8" y1="1381.24" x2="478.8" y2="358.06"/><line class="cls-4" x1="492.12" y1="1381.24" x2="492.12" y2="358.06"/><line class="cls-4" x1="505.43" y1="1381.24" x2="505.43" y2="358.06"/><line class="cls-4" x1="518.75" y1="1381.24" x2="518.75" y2="358.06"/><line class="cls-4" x1="532.06" y1="1381.24" x2="532.06" y2="358.06"/><line class="cls-4" x1="545.37" y1="1381.24" x2="545.37" y2="358.06"/><line class="cls-4" x1="558.69" y1="1381.24" x2="558.69" y2="358.06"/><line class="cls-4" x1="572" y1="1381.24" x2="572" y2="358.06"/><line class="cls-4" x1="585.32" y1="1381.24" x2="585.32" y2="358.06"/><line class="cls-4" x1="598.63" y1="1381.24" x2="598.63" y2="358.06"/><line class="cls-4" x1="611.94" y1="1381.24" x2="611.94" y2="358.06"/><line class="cls-4" x1="625.26" y1="1381.24" x2="625.26" y2="358.06"/><line class="cls-4" x1="638.57" y1="1381.24" x2="638.57" y2="358.06"/><line class="cls-4" x1="651.89" y1="1381.24" x2="651.89" y2="358.06"/><line class="cls-4" x1="665.2" y1="1381.24" x2="665.2" y2="358.06"/><text class="cls-2" transform="translate(648.14 322.27) rotate(-90)">AVISU</text><text class="cls-5" transform="translate(-180.4 1291.26)">ENVIAR E-MAIL PARA OS CONVIDADOS SEM<tspan class="cls-6"><tspan x="111.73" y="10.58">O CONHECIMENTO DOS DONOS</tspan></tspan></text><line class="cls-4" x1="682.09" y1="1290.53" x2="269.27" y2="1290.39"/><rect class="cls-7" x="287.38" y="1285.01" width="10.9" height="10.9"/><text class="cls-8" transform="translate(-60.53 1317.18)">MANAGE DOCUMENT STORAGE</text><line class="cls-4" x1="682.09" y1="1313.44" x2="269.27" y2="1313.31"/><rect class="cls-9" x="287.38" y="1307.92" width="10.9" height="10.9"/><text class="cls-10" transform="translate(-134.92 1340.09)">LER DETALHES E EVENTOS DA AGENDA</text><line class="cls-4" x1="682.09" y1="1336.35" x2="269.27" y2="1336.22"/><rect class="cls-11" x="287.38" y="1330.83" width="10.9" height="10.9"/><text class="cls-12" transform="translate(-108.4 1271.35)">ENVIAR TRANSMISSÃO PERSISTENTE</text><line class="cls-4" x1="682.09" y1="1267.61" x2="269.27" y2="1267.48"/><rect class="cls-13" x="300.59" y="1262.1" width="10.9" height="10.9"/><text class="cls-2" transform="translate(-179.67 1088.05)">ACESSAR CONFIGURAÇÕES DE BLUETOOTH</text><line class="cls-4" x1="682.09" y1="1084.31" x2="269.27" y2="1084.18"/><rect class="cls-14" x="327.27" y="1078.8" width="10.9" height="10.9"/><text class="cls-10" transform="translate(-81.48 1106.29)">ACESSAR COMANDOS EXTRAS DO<tspan x="42.63" y="10.58">PROVEDOR DE LOCALIZAÇÃO</tspan></text><line class="cls-4" x1="682.09" y1="1107.23" x2="269.27" y2="1107.09"/><rect class="cls-11" x="327.27" y="1101.71" width="10.9" height="10.9"/><text class="cls-15" transform="translate(-98.27 1133.88)">RECONHECER DE ATIVIDADE FÍSICA</text><line class="cls-4" x1="682.09" y1="1130.14" x2="269.27" y2="1130.01"/><rect class="cls-16" x="327.27" y="1124.62" width="10.9" height="10.9"/><text class="cls-17" transform="translate(-82.83 1152.57)">FAZER DOWNLOAD DE ARQUIVOS<tspan class="cls-18"><tspan x="149.43" y="10.58">SEM NOTIFICAÇÃO</tspan></tspan></text><line class="cls-4" x1="682.09" y1="1153.05" x2="269.27" y2="1152.92"/><rect class="cls-19" x="340.61" y="1147.53" width="10.9" height="10.9"/><text class="cls-8" transform="translate(-72.99 836.01)">RECUPERAR APPS EM EXECUÇÃO</text><line class="cls-4" x1="682.09" y1="832.27" x2="269.27" y2="832.14"/><rect class="cls-9" x="300.59" y="826.76" width="10.9" height="10.9"/><rect class="cls-9" x="327.27" y="826.76" width="10.9" height="10.9"/><rect class="cls-9" x="340.61" y="826.76" width="10.9" height="10.9"/><text class="cls-20" transform="translate(-164.07 927.66)">USAR HARDWARE DE IMPRESSÃO DIGITAL</text><line class="cls-4" x1="682.09" y1="923.93" x2="269.27" y2="923.79"/><rect class="cls-21" x="287.38" y="918.41" width="10.9" height="10.9"/><rect class="cls-21" x="367.16" y="918.41" width="10.9" height="10.9"/><text class="cls-22" transform="translate(-73.3 904.75)">USAR HARDWARE DE BIOMETRIA</text><line class="cls-4" x1="682.09" y1="901.01" x2="269.27" y2="900.88"/><rect class="cls-23" x="287.38" y="895.5" width="10.9" height="10.9"/><rect class="cls-23" x="367.16" y="895.5" width="10.9" height="10.9"/><text class="cls-3" transform="translate(57.06 1179.7)">INSTALAR ATALHOS</text><line class="cls-4" x1="682.09" y1="1175.96" x2="269.27" y2="1175.83"/><rect class="cls-14" x="380.5" y="1170.45" width="10.9" height="10.9"/><text class="cls-24" transform="translate(-218.94 1019.31)">LER CONFIGURAÇÕES DE SERVIÇO DO GOOGLE</text><line class="cls-4" x1="682.09" y1="1015.58" x2="269.27" y2="1015.44"/><rect class="cls-25" x="353.95" y="1010.06" width="10.9" height="10.9"/><rect class="cls-25" x="380.5" y="1010.06" width="10.9" height="10.9"/><text class="cls-26" transform="translate(-159.21 973.49)">LER STATUS E IDENTIDADE DO TELEFONE</text><line class="cls-4" x1="682.09" y1="969.75" x2="269.27" y2="969.62"/><rect class="cls-25" x="300.59" y="964.23" width="10.9" height="10.9"/><rect class="cls-25" x="407.18" y="964.23" width="10.9" height="10.9"/><text class="cls-27" transform="translate(-203.68 813.1)">ACESSAR LOCALIZAÇÃO EM SEGUNDO PLANO</text><line class="cls-4" x1="682.09" y1="809.36" x2="269.27" y2="809.23"/><rect class="cls-28" x="327.27" y="803.84" width="10.9" height="10.9"/><rect class="cls-28" x="353.95" y="803.84" width="10.9" height="10.9"/><rect class="cls-28" x="420.52" y="803.84" width="10.9" height="10.9"/><text class="cls-29" transform="translate(-85.88 1065.14)">RECONHECIMENTO DE ATIVIDADE</text><line class="cls-4" x1="682.09" y1="1061.4" x2="269.27" y2="1061.27"/><rect class="cls-30" x="327.27" y="1055.88" width="10.9" height="10.9"/><rect class="cls-30" x="420.52" y="1055.88" width="10.9" height="10.9"/><text class="cls-31" transform="translate(-189.72 881.84)">VERIFICAÇÃO DE LICENÇA DO GOOGLE PLAY</text><line class="cls-4" x1="682.09" y1="878.1" x2="269.27" y2="877.97"/><rect class="cls-13" x="340.61" y="872.58" width="10.9" height="10.9"/><rect class="cls-13" x="460.41" y="872.58" width="10.9" height="10.9"/><rect class="cls-13" x="473.74" y="872.58" width="10.9" height="10.9"/><text class="cls-27" transform="translate(-13.48 945.68)">LIGAR DIRETAMENTE PARA<tspan x="10.46" y="10.58">NÚMEROS DE TELEFONES</tspan></text><line class="cls-4" x1="682.09" y1="946.84" x2="269.27" y2="946.71"/><rect class="cls-28" x="300.59" y="941.32" width="10.9" height="10.9"/><rect class="cls-28" x="487.08" y="941.32" width="10.9" height="10.9"/><text class="cls-32" transform="translate(-133.3 858.93)">ENCONTRAR CONTAS NO DISPOSITIVO</text><line class="cls-4" x1="682.09" y1="855.19" x2="269.27" y2="855.06"/><rect class="cls-7" x="300.59" y="849.67" width="10.9" height="10.9"/><rect class="cls-7" x="380.5" y="849.67" width="10.9" height="10.9"/><rect class="cls-7" x="487.08" y="849.67" width="10.9" height="10.9"/><text class="cls-33" transform="translate(-61.63 1202.62)">USAR CONTAS NO DISPOSITIVO</text><line class="cls-4" x1="682.09" y1="1198.88" x2="269.27" y2="1198.74"/><rect class="cls-34" x="487.08" y="1193.36" width="10.9" height="10.9"/><text class="cls-32" transform="translate(-97.15 1042.23)">ALTERAR CONECTIVIDADE DE REDE</text><line class="cls-4" x1="682.09" y1="1038.49" x2="269.27" y2="1038.36"/><rect class="cls-7" x="353.95" y="1032.97" width="10.9" height="10.9"/><rect class="cls-7" x="513.63" y="1032.97" width="10.9" height="10.9"/><text class="cls-27" transform="translate(-185.98 721.45)">ALTER AR SUAS CONFIGURAÇÕES DE ÁUDIO</text><line class="cls-4" x1="682.09" y1="717.71" x2="269.27" y2="717.58"/><rect class="cls-28" x="287.38" y="712.19" width="10.9" height="10.9"/><rect class="cls-28" x="300.59" y="712.19" width="10.9" height="10.9"/><rect class="cls-28" x="313.93" y="712.19" width="10.9" height="10.9"/><rect class="cls-28" x="367.16" y="712.19" width="10.9" height="10.9"/><rect class="cls-28" x="407.18" y="712.19" width="10.9" height="10.9"/><rect class="cls-28" x="500.29" y="712.19" width="10.9" height="10.9"/><rect class="cls-28" x="526.97" y="712.19" width="10.9" height="10.9"/><text class="cls-3" transform="translate(99.81 698.54)">GRAVAR ÁUDIO</text><line class="cls-4" x1="682.09" y1="694.8" x2="269.27" y2="694.67"/><rect class="cls-14" x="300.59" y="689.28" width="10.9" height="10.9"/><rect class="cls-14" x="313.93" y="689.28" width="10.9" height="10.9"/><rect class="cls-14" x="367.16" y="689.28" width="10.9" height="10.9"/><rect class="cls-14" x="393.84" y="689.28" width="10.9" height="10.9"/><rect class="cls-14" x="407.18" y="689.28" width="10.9" height="10.9"/><rect class="cls-14" x="447.07" y="689.28" width="10.9" height="10.9"/><rect class="cls-14" x="500.29" y="689.28" width="10.9" height="10.9"/><rect class="cls-14" x="526.97" y="689.28" width="10.9" height="10.9"/><text class="cls-35" transform="translate(59.92 996.4)">CONTROLAR FLASH</text><line class="cls-4" x1="682.09" y1="992.66" x2="269.27" y2="992.53"/><rect class="cls-21" x="447.07" y="987.15" width="10.9" height="10.9"/><rect class="cls-21" x="553.65" y="987.15" width="10.9" height="10.9"/><text class="cls-29" transform="translate(-13.55 1225.53)">MODIFY SYSTEM SETTINGS</text><line class="cls-4" x1="682.09" y1="1221.79" x2="269.27" y2="1221.66"/><rect class="cls-30" x="553.65" y="1216.27" width="10.9" height="10.9"/><text class="cls-27" transform="translate(-63.93 561.06)">TIRAR FOTOS E GRAVAR VÍDEOS</text><line class="cls-36" x1="682.09" y1="557.32" x2="269.27" y2="557.19"/><rect class="cls-28" x="287.38" y="551.81" width="10.9" height="10.9"/><rect class="cls-28" x="300.59" y="551.81" width="10.9" height="10.9"/><rect class="cls-28" x="313.93" y="551.81" width="10.9" height="10.9"/><rect class="cls-28" x="340.61" y="551.81" width="10.9" height="10.9"/><rect class="cls-28" x="367.16" y="551.81" width="10.9" height="10.9"/><rect class="cls-28" x="380.5" y="551.81" width="10.9" height="10.9"/><rect class="cls-28" x="393.84" y="551.81" width="10.9" height="10.9"/><rect class="cls-28" x="407.18" y="551.81" width="10.9" height="10.9"/><rect class="cls-28" x="420.52" y="551.81" width="10.9" height="10.9"/><rect class="cls-28" x="447.07" y="551.81" width="10.9" height="10.9"/><rect class="cls-28" x="500.29" y="551.81" width="10.9" height="10.9"/><rect class="cls-28" x="526.97" y="551.81" width="10.9" height="10.9"/><rect class="cls-28" x="540.31" y="551.81" width="10.9" height="10.9"/><rect class="cls-28" x="553.65" y="551.81" width="10.9" height="10.9"/><text class="cls-37" transform="translate(20.14 629.8)">CONTROLAR VIBRAÇÃO</text><line class="cls-4" x1="682.09" y1="626.06" x2="269.27" y2="625.93"/><rect class="cls-38" x="313.93" y="620.54" width="10.9" height="10.9"/><rect class="cls-38" x="340.61" y="620.54" width="10.9" height="10.9"/><rect class="cls-38" x="353.95" y="620.54" width="10.9" height="10.9"/><rect class="cls-38" x="367.16" y="620.54" width="10.9" height="10.9"/><rect class="cls-38" x="380.5" y="620.54" width="10.9" height="10.9"/><rect class="cls-38" x="393.84" y="620.54" width="10.9" height="10.9"/><rect class="cls-38" x="433.73" y="620.54" width="10.9" height="10.9"/><rect class="cls-38" x="447.07" y="620.54" width="10.9" height="10.9"/><rect class="cls-38" x="460.41" y="620.54" width="10.9" height="10.9"/><rect class="cls-38" x="513.63" y="620.54" width="10.9" height="10.9"/><rect class="cls-38" x="540.31" y="620.54" width="10.9" height="10.9"/><rect class="cls-38" x="553.65" y="620.54" width="10.9" height="10.9"/><rect class="cls-38" x="566.86" y="620.54" width="10.9" height="10.9"/><text class="cls-12" transform="translate(-155.95 744.36)">PAREAR COM DISPOSITIVOS BLUETOOTH</text><line class="cls-4" x1="682.09" y1="740.62" x2="269.27" y2="740.49"/><rect class="cls-13" x="300.59" y="735.11" width="10.9" height="10.9"/><rect class="cls-13" x="313.93" y="735.11" width="10.9" height="10.9"/><rect class="cls-13" x="327.27" y="735.11" width="10.9" height="10.9"/><rect class="cls-13" x="500.29" y="735.11" width="10.9" height="10.9"/><rect class="cls-13" x="526.97" y="735.11" width="10.9" height="10.9"/><rect class="cls-13" x="566.86" y="735.11" width="10.9" height="10.9"/><line class="cls-4" x1="682.09" y1="763.54" x2="269.27" y2="763.4"/><text class="cls-39" transform="translate(-159.82 767.28)">EXECUTAR SERVIÇO EM PRIMEIRO PLANO</text><rect class="cls-40" x="327.27" y="758.02" width="10.9" height="10.9"/><rect class="cls-40" x="353.95" y="758.02" width="10.9" height="10.9"/><rect class="cls-40" x="420.52" y="758.02" width="10.9" height="10.9"/><rect class="cls-40" x="566.86" y="758.02" width="10.9" height="10.9"/><text class="cls-41" transform="translate(-10.69 675.63)">LER NOTIF. DE DISTINTIVO</text><line class="cls-4" x1="682.09" y1="671.89" x2="269.27" y2="671.75"/><rect class="cls-42" x="313.93" y="666.37" width="10.9" height="10.9"/><rect class="cls-42" x="340.61" y="666.37" width="10.9" height="10.9"/><rect class="cls-42" x="353.95" y="666.37" width="10.9" height="10.9"/><rect class="cls-42" x="367.16" y="666.37" width="10.9" height="10.9"/><rect class="cls-42" x="380.5" y="666.37" width="10.9" height="10.9"/><rect class="cls-42" x="433.73" y="666.37" width="10.9" height="10.9"/><rect class="cls-42" x="460.41" y="666.37" width="10.9" height="10.9"/><rect class="cls-42" x="473.74" y="666.37" width="10.9" height="10.9"/><rect class="cls-42" x="566.86" y="666.37" width="10.9" height="10.9"/><text class="cls-29" transform="translate(-106.69 647.73)">API DE REFERÊNCIA DE INSTALAÇÃO<tspan class="cls-18"><tspan x="181.04" y="10.58">DO GOOGLE PLAY</tspan></tspan></text><line class="cls-43" x1="676.8" y1="648.97" x2="263.98" y2="648.84"/><rect class="cls-30" x="282.1" y="643.46" width="10.9" height="10.9"/><rect class="cls-30" x="308.65" y="643.46" width="10.9" height="10.9"/><rect class="cls-30" x="321.99" y="643.46" width="10.9" height="10.9"/><rect class="cls-30" x="335.32" y="643.46" width="10.9" height="10.9"/><rect class="cls-30" x="375.21" y="643.46" width="10.9" height="10.9"/><rect class="cls-30" x="388.55" y="643.46" width="10.9" height="10.9"/><rect class="cls-30" x="415.23" y="643.46" width="10.9" height="10.9"/><rect class="cls-30" x="455.12" y="643.46" width="10.9" height="10.9"/><rect class="cls-30" x="468.46" y="643.46" width="10.9" height="10.9"/><rect class="cls-30" x="495.01" y="643.46" width="10.9" height="10.9"/><rect class="cls-30" x="521.69" y="643.46" width="10.9" height="10.9"/><rect class="cls-30" x="574.91" y="643.46" width="10.9" height="10.9"/><line class="cls-4" x1="682.09" y1="1244.7" x2="269.27" y2="1244.57"/><text class="cls-44" transform="translate(-94.15 1248.44)">ACCESS USB STORAGE FILESYSTEM</text><rect class="cls-45" x="593.54" y="1239.18" width="10.9" height="10.9"/><text class="cls-35" transform="translate(-85.01 463.1)">ALTERAR OU EXCLUIR CONTEÚDO<tspan class="cls-18"><tspan x="43.4" y="10.58">DE ARMAZ. COMPARTILHADO</tspan></tspan></text><line class="cls-46" x1="682.09" y1="465.67" x2="269.27" y2="465.54"/><rect class="cls-21" x="287.38" y="460.16" width="10.9" height="10.9"/><rect class="cls-21" x="300.59" y="460.16" width="10.9" height="10.9"/><rect class="cls-21" x="313.93" y="460.16" width="10.9" height="10.9"/><rect class="cls-21" x="340.61" y="460.16" width="10.9" height="10.9"/><rect class="cls-21" x="353.95" y="460.16" width="10.9" height="10.9"/><rect class="cls-21" x="367.16" y="460.16" width="10.9" height="10.9"/><rect class="cls-21" x="380.5" y="460.16" width="10.9" height="10.9"/><rect class="cls-21" x="393.84" y="460.16" width="10.9" height="10.9"/><rect class="cls-21" x="407.18" y="460.16" width="10.9" height="10.9"/><rect class="cls-21" x="433.73" y="460.16" width="10.9" height="10.9"/><rect class="cls-21" x="447.07" y="460.16" width="10.9" height="10.9"/><rect class="cls-21" x="460.41" y="460.16" width="10.9" height="10.9"/><rect class="cls-21" x="473.74" y="460.16" width="10.9" height="10.9"/><rect class="cls-21" x="487.08" y="460.16" width="10.9" height="10.9"/><rect class="cls-21" x="500.29" y="460.16" width="10.9" height="10.9"/><rect class="cls-21" x="513.63" y="460.16" width="10.9" height="10.9"/><rect class="cls-21" x="526.97" y="460.16" width="10.9" height="10.9"/><rect class="cls-21" x="553.65" y="460.16" width="10.9" height="10.9"/><rect class="cls-21" x="580.2" y="460.16" width="10.9" height="10.9"/><rect class="cls-21" x="593.54" y="460.16" width="10.9" height="10.9"/><text class="cls-24" transform="translate(-206.96 538.15)">LER CONTEÚDO DE ARMAZ. COMPARTILHADO</text><line class="cls-4" x1="682.09" y1="534.41" x2="269.27" y2="534.28"/><rect class="cls-25" x="287.38" y="528.89" width="10.9" height="10.9"/><rect class="cls-25" x="300.59" y="528.89" width="10.9" height="10.9"/><rect class="cls-25" x="313.93" y="528.89" width="10.9" height="10.9"/><rect class="cls-25" x="340.61" y="528.89" width="10.9" height="10.9"/><rect class="cls-25" x="353.95" y="528.89" width="10.9" height="10.9"/><rect class="cls-25" x="367.16" y="528.89" width="10.9" height="10.9"/><rect class="cls-25" x="380.5" y="528.89" width="10.9" height="10.9"/><rect class="cls-25" x="393.84" y="528.89" width="10.9" height="10.9"/><rect class="cls-25" x="407.18" y="528.89" width="10.9" height="10.9"/><rect class="cls-25" x="433.73" y="528.89" width="10.9" height="10.9"/><rect class="cls-25" x="447.07" y="528.89" width="10.9" height="10.9"/><rect class="cls-25" x="460.41" y="528.89" width="10.9" height="10.9"/><rect class="cls-25" x="473.74" y="528.89" width="10.9" height="10.9"/><rect class="cls-25" x="487.08" y="528.89" width="10.9" height="10.9"/><rect class="cls-25" x="500.29" y="528.89" width="10.9" height="10.9"/><rect class="cls-25" x="513.63" y="528.89" width="10.9" height="10.9"/><rect class="cls-25" x="526.97" y="528.89" width="10.9" height="10.9"/><rect class="cls-25" x="553.65" y="528.89" width="10.9" height="10.9"/><rect class="cls-25" x="580.2" y="528.89" width="10.9" height="10.9"/><rect class="cls-25" x="593.54" y="528.89" width="10.9" height="10.9"/><text class="cls-2" transform="translate(-46.78 785.94)">ESTE APP PODE SE SOBREPOR<tspan x="-8.37" y="24">VISUALMENTE A OUTROS APPS</tspan></text><line class="cls-4" x1="682.09" y1="786.45" x2="269.27" y2="786.32"/><rect class="cls-14" x="287.38" y="780.93" width="10.9" height="10.9"/><rect class="cls-14" x="393.84" y="780.93" width="10.9" height="10.9"/><rect class="cls-14" x="540.31" y="780.93" width="10.9" height="10.9"/><rect class="cls-14" x="606.88" y="780.93" width="10.9" height="10.9"/><text class="cls-44" transform="translate(-39.68 583.98)">EXECUTAR NA INICIALIZAÇÃO</text><line class="cls-4" x1="682.09" y1="580.24" x2="269.27" y2="580.1"/><rect class="cls-45" x="287.38" y="574.72" width="10.9" height="10.9"/><rect class="cls-45" x="300.59" y="574.72" width="10.9" height="10.9"/><rect class="cls-45" x="313.93" y="574.72" width="10.9" height="10.9"/><rect class="cls-45" x="327.27" y="574.72" width="10.9" height="10.9"/><rect class="cls-45" x="340.61" y="574.72" width="10.9" height="10.9"/><rect class="cls-45" x="353.95" y="574.72" width="10.9" height="10.9"/><rect class="cls-45" x="420.52" y="574.72" width="10.9" height="10.9"/><rect class="cls-45" x="433.73" y="574.72" width="10.9" height="10.9"/><rect class="cls-45" x="460.41" y="574.72" width="10.9" height="10.9"/><rect class="cls-45" x="473.74" y="574.72" width="10.9" height="10.9"/><rect class="cls-45" x="513.63" y="574.72" width="10.9" height="10.9"/><rect class="cls-45" x="540.31" y="574.72" width="10.9" height="10.9"/><rect class="cls-45" x="566.86" y="574.72" width="10.9" height="10.9"/><rect class="cls-45" x="606.88" y="574.72" width="10.9" height="10.9"/><text class="cls-47" transform="translate(10.15 606.89)">VER CONEXÕES DE WI-FI</text><line class="cls-4" x1="682.09" y1="603.15" x2="269.27" y2="603.02"/><rect class="cls-34" x="287.38" y="597.63" width="10.9" height="10.9"/><rect class="cls-34" x="313.93" y="597.63" width="10.9" height="10.9"/><rect class="cls-34" x="327.27" y="597.63" width="10.9" height="10.9"/><rect class="cls-34" x="340.61" y="597.63" width="10.9" height="10.9"/><rect class="cls-34" x="353.95" y="597.63" width="10.9" height="10.9"/><rect class="cls-34" x="367.16" y="597.63" width="10.9" height="10.9"/><rect class="cls-34" x="380.5" y="597.63" width="10.9" height="10.9"/><rect class="cls-34" x="407.18" y="597.63" width="10.9" height="10.9"/><rect class="cls-34" x="420.52" y="597.63" width="10.9" height="10.9"/><rect class="cls-34" x="433.73" y="597.63" width="10.9" height="10.9"/><rect class="cls-34" x="460.41" y="597.63" width="10.9" height="10.9"/><rect class="cls-34" x="473.74" y="597.63" width="10.9" height="10.9"/><rect class="cls-34" x="620.22" y="597.63" width="10.9" height="10.9"/><text class="cls-47" transform="translate(-219.62 423.59)">IMPEDIR MODO DE INATIVIDADE DO TELEFONE</text><line class="cls-48" x1="682.09" y1="419.85" x2="269.27" y2="419.72"/><rect class="cls-34" x="287.38" y="414.33" width="10.9" height="10.9"/><rect class="cls-34" x="300.59" y="414.33" width="10.9" height="10.9"/><rect class="cls-34" x="313.93" y="414.33" width="10.9" height="10.9"/><rect class="cls-34" x="327.27" y="414.33" width="10.9" height="10.9"/><rect class="cls-34" x="340.61" y="414.33" width="10.9" height="10.9"/><rect class="cls-34" x="353.95" y="414.33" width="10.9" height="10.9"/><rect class="cls-34" x="367.16" y="414.33" width="10.9" height="10.9"/><rect class="cls-34" x="380.5" y="414.33" width="10.9" height="10.9"/><rect class="cls-34" x="393.84" y="414.33" width="10.9" height="10.9"/><rect class="cls-34" x="407.18" y="414.33" width="10.9" height="10.9"/><rect class="cls-34" x="420.52" y="414.33" width="10.9" height="10.9"/><rect class="cls-34" x="433.73" y="414.33" width="10.9" height="10.9"/><rect class="cls-34" x="447.07" y="414.33" width="10.9" height="10.9"/><rect class="cls-34" x="460.41" y="414.33" width="10.9" height="10.9"/><rect class="cls-34" x="473.74" y="414.33" width="10.9" height="10.9"/><rect class="cls-34" x="487.08" y="414.33" width="10.9" height="10.9"/><rect class="cls-34" x="500.29" y="414.33" width="10.9" height="10.9"/><rect class="cls-34" x="513.63" y="414.33" width="10.9" height="10.9"/><rect class="cls-34" x="526.97" y="414.33" width="10.9" height="10.9"/><rect class="cls-34" x="540.31" y="414.33" width="10.9" height="10.9"/><rect class="cls-34" x="553.65" y="414.33" width="10.9" height="10.9"/><rect class="cls-34" x="566.86" y="414.33" width="10.9" height="10.9"/><rect class="cls-34" x="580.2" y="414.33" width="10.9" height="10.9"/><rect class="cls-34" x="593.54" y="414.33" width="10.9" height="10.9"/><rect class="cls-34" x="606.88" y="414.33" width="10.9" height="10.9"/><rect class="cls-34" x="633.43" y="414.33" width="10.9" height="10.9"/><text class="cls-15" transform="translate(-53.94 446.5)">RECEBER DADOS DA INTERNET</text><line class="cls-4" x1="682.09" y1="442.76" x2="269.27" y2="442.63"/><rect class="cls-16" x="287.38" y="437.24" width="10.9" height="10.9"/><rect class="cls-16" x="300.59" y="437.24" width="10.9" height="10.9"/><rect class="cls-16" x="313.93" y="437.24" width="10.9" height="10.9"/><rect class="cls-16" x="327.27" y="437.24" width="10.9" height="10.9"/><rect class="cls-16" x="340.61" y="437.24" width="10.9" height="10.9"/><rect class="cls-16" x="353.95" y="437.24" width="10.9" height="10.9"/><rect class="cls-16" x="367.16" y="437.24" width="10.9" height="10.9"/><rect class="cls-16" x="380.5" y="437.24" width="10.9" height="10.9"/><rect class="cls-16" x="393.84" y="437.24" width="10.9" height="10.9"/><rect class="cls-16" x="407.18" y="437.24" width="10.9" height="10.9"/><rect class="cls-16" x="420.52" y="437.24" width="10.9" height="10.9"/><rect class="cls-16" x="433.73" y="437.24" width="10.9" height="10.9"/><rect class="cls-16" x="447.07" y="437.24" width="10.9" height="10.9"/><rect class="cls-16" x="460.41" y="437.24" width="10.9" height="10.9"/><rect class="cls-16" x="473.74" y="437.24" width="10.9" height="10.9"/><rect class="cls-16" x="487.08" y="437.24" width="10.9" height="10.9"/><rect class="cls-16" x="500.29" y="437.24" width="10.9" height="10.9"/><rect class="cls-16" x="513.63" y="437.24" width="10.9" height="10.9"/><rect class="cls-16" x="526.97" y="437.24" width="10.9" height="10.9"/><rect class="cls-16" x="540.31" y="437.24" width="10.9" height="10.9"/><rect class="cls-16" x="566.86" y="437.24" width="10.9" height="10.9"/><rect class="cls-16" x="580.2" y="437.24" width="10.9" height="10.9"/><rect class="cls-16" x="593.54" y="437.24" width="10.9" height="10.9"/><rect class="cls-16" x="606.88" y="437.24" width="10.9" height="10.9"/><rect class="cls-16" x="633.43" y="437.24" width="10.9" height="10.9"/><text class="cls-2" transform="translate(8.18 400.68)">VER CONEXÕES DE REDE</text><line class="cls-49" x1="682.09" y1="396.94" x2="269.27" y2="396.8"/><rect class="cls-14" x="287.38" y="391.42" width="10.9" height="10.9"/><rect class="cls-14" x="300.59" y="391.42" width="10.9" height="10.9"/><rect class="cls-14" x="313.93" y="391.42" width="10.9" height="10.9"/><rect class="cls-14" x="327.27" y="391.42" width="10.9" height="10.9"/><rect class="cls-14" x="340.61" y="391.42" width="10.9" height="10.9"/><rect class="cls-14" x="353.95" y="391.42" width="10.9" height="10.9"/><rect class="cls-14" x="367.16" y="391.42" width="10.9" height="10.9"/><rect class="cls-14" x="380.5" y="391.42" width="10.9" height="10.9"/><rect class="cls-14" x="393.84" y="391.42" width="10.9" height="10.9"/><rect class="cls-14" x="407.18" y="391.42" width="10.9" height="10.9"/><rect class="cls-14" x="420.52" y="391.42" width="10.9" height="10.9"/><rect class="cls-14" x="433.73" y="391.42" width="10.9" height="10.9"/><rect class="cls-14" x="447.07" y="391.42" width="10.9" height="10.9"/><rect class="cls-14" x="460.41" y="391.42" width="10.9" height="10.9"/><rect class="cls-14" x="473.74" y="391.42" width="10.9" height="10.9"/><rect class="cls-14" x="487.08" y="391.42" width="10.9" height="10.9"/><rect class="cls-14" x="500.29" y="391.42" width="10.9" height="10.9"/><rect class="cls-14" x="513.63" y="391.42" width="10.9" height="10.9"/><rect class="cls-14" x="526.97" y="391.42" width="10.9" height="10.9"/><rect class="cls-14" x="540.31" y="391.42" width="10.9" height="10.9"/><rect class="cls-14" x="553.65" y="391.42" width="10.9" height="10.9"/><rect class="cls-14" x="566.86" y="391.42" width="10.9" height="10.9"/><rect class="cls-14" x="580.2" y="391.42" width="10.9" height="10.9"/><rect class="cls-14" x="593.54" y="391.42" width="10.9" height="10.9"/><rect class="cls-14" x="606.88" y="391.42" width="10.9" height="10.9"/><rect class="cls-14" x="620.22" y="391.42" width="10.9" height="10.9"/><rect class="cls-14" x="633.43" y="391.42" width="10.9" height="10.9"/><text class="cls-10" transform="translate(-51.79 508.81)">ACESSAR LOCAL APROXIMADO<tspan x="8.29" y="10.58">APENAS EM PRIMEIRO PLANO</tspan></text><line class="cls-50" x1="682.09" y1="511.16" x2="269.27" y2="511.03"/><rect class="cls-11" x="287.38" y="505.98" width="10.9" height="10.9"/><rect class="cls-11" x="300.59" y="505.98" width="10.9" height="10.9"/><rect class="cls-11" x="313.93" y="505.98" width="10.9" height="10.9"/><rect class="cls-11" x="327.27" y="505.98" width="10.9" height="10.9"/><rect class="cls-11" x="340.61" y="505.98" width="10.9" height="10.9"/><rect class="cls-11" x="353.95" y="505.98" width="10.9" height="10.9"/><rect class="cls-11" x="367.16" y="505.98" width="10.9" height="10.9"/><rect class="cls-11" x="380.5" y="505.98" width="10.9" height="10.9"/><rect class="cls-11" x="393.84" y="505.98" width="10.9" height="10.9"/><rect class="cls-11" x="407.18" y="505.98" width="10.9" height="10.9"/><rect class="cls-11" x="420.52" y="505.98" width="10.9" height="10.9"/><rect class="cls-11" x="433.73" y="505.98" width="10.9" height="10.9"/><rect class="cls-11" x="447.07" y="505.98" width="10.9" height="10.9"/><rect class="cls-11" x="487.08" y="505.98" width="10.9" height="10.9"/><rect class="cls-11" x="513.63" y="505.98" width="10.9" height="10.9"/><rect class="cls-11" x="580.2" y="505.98" width="10.9" height="10.9"/><rect class="cls-11" x="620.22" y="505.98" width="10.9" height="10.9"/><rect class="cls-11" x="646.77" y="505.98" width="10.9" height="10.9"/><text class="cls-51" transform="translate(-71.5 487.21)">ACESSAR LOCALIZAÇÃO PRECISA<tspan x="27.92" y="10.58">APENAS EM PRIMEIRO PLANO</tspan></text><line class="cls-4" x1="682.09" y1="488.59" x2="269.27" y2="488.45"/><rect class="cls-52" x="287.38" y="483.07" width="10.9" height="10.9"/><rect class="cls-52" x="300.59" y="483.07" width="10.9" height="10.9"/><rect class="cls-52" x="313.93" y="483.07" width="10.9" height="10.9"/><rect class="cls-52" x="327.27" y="483.07" width="10.9" height="10.9"/><rect class="cls-52" x="340.61" y="483.07" width="10.9" height="10.9"/><rect class="cls-52" x="353.95" y="483.07" width="10.9" height="10.9"/><rect class="cls-52" x="367.16" y="483.07" width="10.9" height="10.9"/><rect class="cls-52" x="380.5" y="483.07" width="10.9" height="10.9"/><rect class="cls-52" x="393.84" y="483.07" width="10.9" height="10.9"/><rect class="cls-52" x="407.18" y="483.07" width="10.9" height="10.9"/><rect class="cls-52" x="420.52" y="483.07" width="10.9" height="10.9"/><rect class="cls-52" x="433.73" y="483.07" width="10.9" height="10.9"/><rect class="cls-52" x="447.07" y="483.07" width="10.9" height="10.9"/><rect class="cls-52" x="473.74" y="483.07" width="10.9" height="10.9"/><rect class="cls-52" x="487.08" y="483.07" width="10.9" height="10.9"/><rect class="cls-52" x="513.63" y="483.07" width="10.9" height="10.9"/><rect class="cls-52" x="540.31" y="483.07" width="10.9" height="10.9"/><rect class="cls-52" x="580.2" y="483.07" width="10.9" height="10.9"/><rect class="cls-52" x="620.22" y="483.07" width="10.9" height="10.9"/><rect class="cls-52" x="646.77" y="483.07" width="10.9" height="10.9"/><text class="cls-37" transform="translate(-16.69 377.76)">TER ACESSO TOTAL À REDE</text><line class="cls-4" x1="682.09" y1="374.02" x2="269.27" y2="373.89"/><rect class="cls-38" x="287.38" y="368.51" width="10.9" height="10.9"/><rect class="cls-38" x="300.59" y="368.51" width="10.9" height="10.9"/><rect class="cls-38" x="313.93" y="368.51" width="10.9" height="10.9"/><rect class="cls-38" x="327.27" y="368.51" width="10.9" height="10.9"/><rect class="cls-38" x="340.61" y="368.51" width="10.9" height="10.9"/><rect class="cls-38" x="353.95" y="368.51" width="10.9" height="10.9"/><rect class="cls-38" x="367.16" y="368.51" width="10.9" height="10.9"/><rect class="cls-38" x="380.5" y="368.51" width="10.9" height="10.9"/><rect class="cls-38" x="393.84" y="368.51" width="10.9" height="10.9"/><rect class="cls-38" x="407.18" y="368.51" width="10.9" height="10.9"/><rect class="cls-38" x="420.52" y="368.51" width="10.9" height="10.9"/><rect class="cls-38" x="433.73" y="368.51" width="10.9" height="10.9"/><rect class="cls-38" x="447.07" y="368.51" width="10.9" height="10.9"/><rect class="cls-38" x="460.41" y="368.51" width="10.9" height="10.9"/><rect class="cls-38" x="473.74" y="368.51" width="10.9" height="10.9"/><rect class="cls-38" x="487.08" y="368.51" width="10.9" height="10.9"/><rect class="cls-38" x="500.29" y="368.51" width="10.9" height="10.9"/><rect class="cls-38" x="513.63" y="368.51" width="10.9" height="10.9"/><rect class="cls-38" x="526.97" y="368.51" width="10.9" height="10.9"/><rect class="cls-38" x="540.31" y="368.51" width="10.9" height="10.9"/><rect class="cls-38" x="553.65" y="368.51" width="10.9" height="10.9"/><rect class="cls-38" x="566.86" y="368.51" width="10.9" height="10.9"/><rect class="cls-38" x="580.2" y="368.51" width="10.9" height="10.9"/><rect class="cls-38" x="593.54" y="368.51" width="10.9" height="10.9"/><rect class="cls-38" x="606.88" y="368.51" width="10.9" height="10.9"/><rect class="cls-38" x="620.22" y="368.51" width="10.9" height="10.9"/><rect class="cls-38" x="633.43" y="368.51" width="10.9" height="10.9"/><rect class="cls-38" x="646.77" y="368.51" width="10.9" height="10.9"/><rect class="cls-38" x="660.11" y="368.51" width="10.9" height="10.9"/><text class="cls-53" transform="translate(145.57 319.21)">INFORMAÇÕES<tspan x="24.38" y="16.76">ACESSADAS</tspan></text><g class="cls-54"><path class="cls-14" d="M253.92,344.92v-3.77L250,344.92v-6.44h-2.83v6.44l-3.93-3.77v3.77l5.34,4.87Z"/></g><text class="cls-53" transform="translate(676.75 296.6)">APPS <tspan x="0" y="16.76">GOOGLE</tspan><tspan class="cls-55"><tspan x="0" y="33.51">PLAY</tspan></tspan></text><g class="cls-54"><path class="cls-14" d="M681.3,342.83h3.77l-3.77-3.93h6.44v-2.82H681.3l3.77-3.93H681.3l-4.87,5.34Z"/></g></svg>