<svg id="Layer_1" data-name="Layer 1" xmlns="http://www.w3.org/2000/svg" xmlns:xlink="http://www.w3.org/1999/xlink" viewBox="0 0 768 1111.25"><defs><style>.cls-1,.cls-23{fill:#030420;}.cls-2{fill:url(#linear-gradient);}.cls-3{font-size:29.82px;font-family:Obvia-Medium, Obvia;}.cls-11,.cls-17,.cls-24,.cls-3,.cls-6{fill:#fff;}.cls-11,.cls-3,.cls-6{font-weight:500;}.cls-4,.cls-5{letter-spacing:-0.02em;}.cls-5{font-family:Obvia-Light, Obvia;font-weight:300;}.cls-11,.cls-23,.cls-24,.cls-6{font-size:26px;}.cls-11,.cls-6{font-family:Informative-Medium, Informative;}.cls-13,.cls-6{letter-spacing:-0.01em;}.cls-7{letter-spacing:0.04em;}.cls-8{letter-spacing:0.04em;}.cls-9{letter-spacing:0.03em;}.cls-10{fill:#83e084;}.cls-11{letter-spacing:0.04em;}.cls-12{letter-spacing:0.03em;}.cls-14{letter-spacing:0.02em;}.cls-15{letter-spacing:0.03em;}.cls-16{fill:#1a5dff;}.cls-17{font-size:25px;}.cls-17,.cls-23,.cls-24{font-family:Informative-Bold, Informative;font-weight:700;}.cls-18{letter-spacing:0em;}.cls-19{letter-spacing:-0.03em;}.cls-20{letter-spacing:-0.03em;}.cls-21{letter-spacing:-0.02em;}.cls-22{letter-spacing:-0.03em;}.cls-23,.cls-24{text-decoration:underline;}.cls-25,.cls-26{fill:none;stroke:#fff;stroke-miterlimit:10;}.cls-25{stroke-width:0.81px;}.cls-26{stroke-width:0.54px;}</style><linearGradient id="linear-gradient" x1="272.59" y1="1032.82" x2="365.92" y2="1032.82" gradientUnits="userSpaceOnUse"><stop offset="0" stop-color="#b1ce39"/><stop offset="1" stop-color="#2280ed"/></linearGradient></defs><rect class="cls-1" x="-2" y="1.79" width="770" height="1122.71"/><path class="cls-2" d="M365.92,1033.92a4.6,4.6,0,0,0-4.82,4.33,3.07,3.07,0,0,1-3.22,2.9h-3.23v-2.9a4.6,4.6,0,0,0-4.82-4.33h-8.05a3.08,3.08,0,0,1-3.23-2.91,4.6,4.6,0,0,0-4.82-4.33h-8.05a4.6,4.6,0,0,0-4.82,4.33v.15a3.11,3.11,0,0,1-3.22,2.76h-3.23V998.44a4.6,4.6,0,0,0-4.82-4.34h-4.82v39.82H282.23v-20.29H293.5a4.36,4.36,0,1,0,0-8.67h-8.05a5.06,5.06,0,0,0-3.4,1.27,4.08,4.08,0,0,0-1.42,3.07v2.9h-3.22a4.6,4.6,0,0,0-4.82,4.34V1031a4.6,4.6,0,0,0,4.82,4.34h3.22v2.9a4.61,4.61,0,0,0,4.82,4.34h16.09a4.6,4.6,0,0,0,4.82-4.34v-2.9h6.45v10.14a4.61,4.61,0,0,0,4.82,4.34h3.23v2.9h0a4.56,4.56,0,0,0,4.43,4.32l0,0h.38a3.07,3.07,0,0,1,3.22,2.9v7.24a4.85,4.85,0,0,0,9.64,0V1060a3.08,3.08,0,0,1,3.23-2.9h.38v0a4.55,4.55,0,0,0,4.43-4.32,3.08,3.08,0,0,1,3.23-2.9,4.6,4.6,0,0,0,4.82-4.34v-2.9h3.23a4.6,4.6,0,0,0,4.82-4.34,3.07,3.07,0,0,1,3.22-2.9Zm-85.29,0h-3.22a3.09,3.09,0,0,1-3.23-2.91v-14.47a3.09,3.09,0,0,1,3.23-2.91h3.22Zm1.6-24.62a3.08,3.08,0,0,1,3.22-2.91h8.05a2.92,2.92,0,1,1,0,5.81H282.23Zm22.54,29a3.08,3.08,0,0,1-3.23,2.9H285.45a3.39,3.39,0,0,1-2.28-.85,2.71,2.71,0,0,1-.94-2v-2.9h22.54Zm8-4.33h-6.45V995.54h3.23a3.07,3.07,0,0,1,3.22,2.9Zm4.82,14.47a3.07,3.07,0,0,1-3.22-2.9v-10.14h3.22a3.08,3.08,0,0,1,3.23,2.9v10.14Zm11.28,8.36a5.08,5.08,0,0,0-2.83-1.1l0,0h-.38a3.07,3.07,0,0,1-3.22-2.9h0v-2.9h3.24a3.07,3.07,0,0,1,3.22,2.9Zm24.15-11.26a3.08,3.08,0,0,1-3.23,2.9,4.6,4.6,0,0,0-4.82,4.34,3.08,3.08,0,0,1-3.23,2.9h-.39A4.56,4.56,0,0,0,337,1060v7.23a3.24,3.24,0,0,1-6.45,0V1060h0v-7.24a4.6,4.6,0,0,0-4.82-4.34h-3.24v-10.14a4.11,4.11,0,0,1,0-7.24v-.14a3.09,3.09,0,0,1,3.23-2.76h8A3.08,3.08,0,0,1,337,1031a4.6,4.6,0,0,0,4.82,4.34h4.46a4.09,4.09,0,0,0-1.23,2.89,4.6,4.6,0,0,0,4.82,4.34h3.23Zm0-4.34h-3.23a2.91,2.91,0,1,1-.13-5.79h.13a3.08,3.08,0,0,1,3.23,2.9Z"/><text class="cls-3" transform="translate(329.45 1023.73) scale(1.11 1)"><tspan class="cls-4">dado</tspan><tspan x="68.22" y="0">s</tspan><tspan class="cls-5" x="82.27" y="0">virais</tspan></text><text class="cls-6" transform="translate(84.86 173.03)">A<tspan class="cls-7" x="15.29" y="0">TR</tspan><tspan class="cls-8" x="46.33" y="0">A</tspan><tspan class="cls-9" x="62.89" y="0">S</tspan><tspan class="cls-7" x="77.3" y="0">ADO</tspan></text><rect class="cls-10" x="57.49" y="125.85" width="102.66" height="11.63"/><text class="cls-11" transform="translate(305.73 172.79)">RESPO<tspan class="cls-12" x="81.43" y="0">S</tspan><tspan class="cls-13" x="95.89" y="0">T</tspan><tspan class="cls-14" x="109.3" y="0">A</tspan><tspan class="cls-7" x="125.42" y="0" xml:space="preserve"> NO PRA</tspan><tspan class="cls-15" x="227.66" y="0">Z</tspan><tspan x="242.37" y="0">O</tspan></text><rect class="cls-16" x="278.35" y="123.39" width="102.66" height="11.63"/><text class="cls-17" transform="translate(50.2 828.76)"><tspan class="cls-18">P</tspan><tspan x="14.58" y="0">I</tspan></text><text class="cls-17" transform="translate(140.96 828.76)">RJ</text><text class="cls-17" transform="translate(225.4 828.76)">A<tspan class="cls-19" x="15.75" y="0">P</tspan></text><text class="cls-17" transform="translate(314.62 828.76)">AM</text><text class="cls-17" transform="translate(406.12 828.76)">A<tspan class="cls-20" x="15.75" y="0">L</tspan></text><text class="cls-17" transform="translate(493.65 828.76)"><tspan class="cls-21">A</tspan><tspan x="15.3" y="0">C</tspan></text><text class="cls-17" transform="translate(580.41 828.76)">M<tspan class="cls-22" x="19.67" y="0">T</tspan></text><text class="cls-17" transform="translate(670.88 828.76)">PE</text><rect class="cls-16" x="47.64" y="506.15" width="40.56" height="291.59"/><rect class="cls-10" x="47.64" y="297.87" width="40.56" height="208.28"/><text class="cls-23" transform="translate(57.57 498.84)">5</text><text class="cls-24" transform="translate(57.57 789.37)">7</text><rect class="cls-16" x="312.05" y="589.46" width="40.56" height="208.28"/><rect class="cls-10" x="312.05" y="464.49" width="40.56" height="124.97"/><text class="cls-24" transform="translate(317.56 789.37)">5</text><text class="cls-23" transform="translate(317.56 582.2)">3</text><rect class="cls-16" x="135.78" y="381.18" width="40.56" height="416.55"/><rect class="cls-10" x="135.78" y="339.53" width="40.56" height="41.66"/><text class="cls-24" transform="translate(143.87 789.37)">10</text><text class="cls-23" transform="translate(143.87 373.11)">1</text><rect class="cls-16" x="400.19" y="631.12" width="40.56" height="166.62"/><rect class="cls-10" x="400.19" y="589.46" width="40.56" height="41.66"/><text class="cls-24" transform="translate(409.9 789.37)">4</text><text class="cls-23" transform="translate(409.9 624.14)">1</text><rect class="cls-16" x="576.46" y="756.08" width="40.56" height="41.66"/><rect class="cls-10" x="576.46" y="714.43" width="40.56" height="41.66"/><text class="cls-24" transform="translate(583.49 789.37)">1</text><text class="cls-23" transform="translate(583.49 745.95)">1</text><rect class="cls-16" x="664.69" y="756.25" width="40.39" height="41.48"/><rect class="cls-10" x="664.69" y="714.77" width="40.39" height="41.48"/><text class="cls-24" transform="translate(671.71 790.37)">1</text><text class="cls-23" transform="translate(671.71 748.93)">1</text><rect class="cls-16" x="223.91" y="464.49" width="40.56" height="333.24"/><rect class="cls-10" x="223.91" y="381.18" width="40.56" height="83.31"/><text class="cls-24" transform="translate(229.33 789.37)">8</text><text class="cls-23" transform="translate(229.33 457)">2</text><rect class="cls-16" x="488.33" y="672.77" width="40.56" height="124.97"/><rect class="cls-10" x="488.33" y="589.46" width="40.56" height="83.31"/><text class="cls-24" transform="translate(496.53 789.37)">3</text><text class="cls-23" transform="translate(496.53 665.35)">2</text><line class="cls-25" x1="15.78" y1="797.74" x2="741.5" y2="797.74"/><line class="cls-26" x1="-8.54" y1="960.29" x2="768" y2="960.29"/></svg>