<?xml version="1.0" encoding="utf-8"?>
<svg viewBox="-102.39 73.893 1178.133 616.034" xmlns="http://www.w3.org/2000/svg">
  <defs>
    <style>.cls-1{fill:#030420;}.cls-15,.cls-2,.cls-3{fill:none;stroke-miterlimit:10;}.cls-15,.cls-2{stroke:#fff;}.cls-2{stroke-width:0.25px;}.cls-3{stroke:#000;}.cls-17,.cls-4{fill:#f73848;}.cls-19,.cls-5{fill:#de4d4a;}.cls-20,.cls-6{fill:#f57f4e;}.cls-21,.cls-7{fill:#f5a034;}.cls-8{fill:#fed382;}.cls-9{fill:#edd391;}.cls-10,.cls-23{fill:#fee1d4;}.cls-11{fill:#edfdb6;}.cls-12,.cls-16,.cls-26,.cls-27,.cls-28{fill:#fff;}.cls-13,.cls-24{fill:#3d60d9;}.cls-14,.cls-25{fill:#9fe79f;}.cls-16{font-size:22.79px;}.cls-16,.cls-27,.cls-28{font-family:OpenSans-Bold, Open Sans;font-weight:700;}.cls-16,.cls-27{text-decoration:underline;}.cls-17,.cls-19,.cls-20,.cls-21,.cls-23,.cls-24,.cls-25,.cls-26{font-size:19px;font-family:OpenSans, Open Sans;}.cls-17,.cls-24,.cls-26{letter-spacing:0.04em;}.cls-18,.cls-19,.cls-20,.cls-21,.cls-23,.cls-25{letter-spacing:0.04em;}.cls-19,.cls-20,.cls-21,.cls-22,.cls-26{isolation:isolate;}.cls-27{font-size:21.96px;}.cls-28{font-size:20px;letter-spacing:0.04em;}.cls-29{opacity:0.28;}</style>
  </defs>
  <g id="Layer_1" data-name="Layer 1">
    <rect id="backgorund" class="cls-1" x="-643.57" width="1919.18" height="739.27"/>
  </g>
  <g id="Layer_2" data-name="Layer 2">
    <line class="cls-2" x1="291.63" y1="645.07" x2="978.7" y2="645.07"/>
    <line class="cls-2" x1="291.63" y1="601.02" x2="978.7" y2="601.02"/>
    <line class="cls-2" x1="291.63" y1="556.97" x2="978.7" y2="556.97"/>
    <line class="cls-2" x1="291.63" y1="512.92" x2="978.7" y2="512.92"/>
    <line class="cls-2" x1="291.63" y1="468.6" x2="978.7" y2="468.6"/>
    <line class="cls-2" x1="291.63" y1="424.07" x2="978.7" y2="424.07"/>
    <line class="cls-2" x1="291.63" y1="380.02" x2="978.7" y2="380.02"/>
    <line class="cls-2" x1="291.63" y1="335.96" x2="978.7" y2="335.96"/>
    <line class="cls-2" x1="291.63" y1="291.91" x2="978.7" y2="291.91"/>
    <line class="cls-2" x1="291.63" y1="247.09" x2="978.7" y2="247.09"/>
    <line class="cls-2" x1="291.63" y1="200.22" x2="978.7" y2="200.22"/>
    <line class="cls-3" x1="291.63" y1="169.55" x2="306.7" y2="169.55"/>
    <rect class="cls-4" x="311.63" y="181.23" width="197.74" height="44.05"/>
    <rect class="cls-5" x="509.37" y="226.06" width="192.8" height="44.05"/>
    <rect class="cls-6" x="702.17" y="270.89" width="64.27" height="44.05"/>
    <rect class="cls-7" x="766.44" y="314.94" width="61.79" height="44.05"/>
    <rect class="cls-8" x="828.23" y="358.99" width="42.02" height="44.05"/>
    <rect class="cls-9" x="870.25" y="403.04" width="24.72" height="44.05"/>
    <rect class="cls-10" x="894.97" y="447.58" width="17.3" height="44.05"/>
    <rect class="cls-11" x="912.27" y="491.89" width="14.83" height="44.05"/>
    <rect class="cls-12" x="927.1" y="535.94" width="4.94" height="44.05"/>
    <rect class="cls-13" x="932.05" y="579.99" width="4.94" height="44.05"/>
    <rect class="cls-14" x="936.99" y="624.04" width="4.94" height="44.05"/>
    <polyline class="cls-15" points="941.93 148.63 941.93 119.53 311.63 119.53 311.63 148.63"/>
    <text class="cls-16" transform="translate(995.95 209.31)" style="white-space: pre;">31.6%</text>
    <text class="cls-16" transform="translate(995.95 252.97)" style="white-space: pre;">30%</text>
    <text class="cls-16" transform="translate(995.95 297.85)" style="white-space: pre;">10.3%</text>
    <text class="cls-16" transform="translate(995.95 341.8)" style="white-space: pre;">9.9%</text>
    <text class="cls-16" transform="translate(995.95 383.61)" style="white-space: pre;">6.7%</text>
    <text class="cls-16" transform="translate(995.95 429.39)" style="white-space: pre;">3.9%</text>
    <text class="cls-16" transform="translate(995.95 470.23)" style="white-space: pre;">2.8%</text>
    <text class="cls-16" transform="translate(995.95 517.1)" style="white-space: pre;">2.4%</text>
    <text class="cls-16" transform="translate(995.95 565.12)" style="white-space: pre;">0.8%</text>
    <text class="cls-16" transform="translate(995.95 608.93)" style="white-space: pre;">0.8%</text>
    <text class="cls-16" transform="translate(995.95 649.47)" style="white-space: pre;">0.8%</text>
    <text class="cls-17" style="white-space: pre; font-size: 19px;" x="11.61" y="205.232">PEOPLE FLOW MONITORING</text>
    <text class="cls-19" transform="translate(139.86 251.97)" style="white-space: pre;">TELEMEDICINE</text>
    <text class="cls-20" style="white-space: pre; font-size: 19px;" x="-57.812" y="294.032">BODY TEMPERATURE MONITORING</text>
    <text class="cls-21" style="text-transform: uppercase; white-space: pre; font-size: 19px;" x="-57.812" y="342.441">Mapping of COVID-19 evolution</text>
    <g class="cls-22">
      <text class="cls-23" style="text-transform: uppercase; white-space: pre; font-size: 19px;" x="41.393" y="475.688">People identification</text>
    </g>
    <text class="cls-24" style="white-space: pre; font-size: 19px;" x="120" y="605.117">NOT INFORMED</text>
    <g class="cls-22" transform="matrix(1, 0, 0, 1, 5.421875, -1.748779)">
      <text class="cls-25" style="white-space: pre; font-size: 19px;" x="120.011" y="647.413">DATA STORAGE</text>
    </g>
    <text class="cls-26" style="text-transform: uppercase; white-space: pre; font-size: 19px;" x="39.321" y="561.302">Mask use monitoring</text>
    <rect class="cls-1" x="542.98" y="102.91" width="125.59" height="33.24"/>
    <text class="cls-27" transform="translate(553.83 124.02)" style="white-space: pre;">TOTAL 253</text>
    <text class="cls-28" transform="translate(80.43 142.83)" style="white-space: pre;">FUNCIONALITIES</text>
    <g class="cls-29" transform="matrix(1, 0, 0, 1, -1.764999, 18.990005)">
      <path class="cls-12" d="M282,140v-6.05l-6.3,6.05V129.64h-4.53V140l-6.3-6.05V140l8.57,7.81Z"/>
    </g>
    <text class="cls-21" style="fill: rgb(210, 192, 87); text-transform: uppercase; white-space: pre;" x="80.43" y="384.254">CONTACT TRACKING</text>
    <text class="cls-21" style="fill: rgb(241, 235, 203); text-transform: uppercase; white-space: pre; font-size: 19px;" x="24.641" y="430.034">INFORMATION PROVISION</text>
    <g class="cls-22" transform="matrix(1, 0, 0, 1, -15.523125, 43.834351)">
      <text class="cls-23" style="text-transform: uppercase; white-space: pre; font-size: 19px;" x="-67.991" y="473.905">Digitalization of public services</text>
    </g>
  </g>
</svg>