<?xml version="1.0" encoding="utf-8"?>
<svg viewBox="381.502 0 1408.039 1277.138" xmlns="http://www.w3.org/2000/svg">
  <defs>
    <style>.cls-1{fill:#e5e5e5;}.cls-2,.cls-26,.cls-3,.cls-30,.cls-31,.cls-34,.cls-4,.cls-5,.cls-6,.cls-7,.cls-8,.cls-9{fill:none;}.cls-2{stroke:#3d60d9;}.cls-2,.cls-26,.cls-30,.cls-31,.cls-34,.cls-6{stroke-width:1.25px;}.cls-3,.cls-31{stroke:#87e0d4;}.cls-3,.cls-4,.cls-5,.cls-7,.cls-8,.cls-9{stroke-miterlimit:10;}.cls-34,.cls-4{stroke:#2e2f46;}.cls-5{stroke:#c7f64a;}.cls-6{stroke:#1ebf70;}.cls-30,.cls-7{stroke:#87e089;}.cls-8{stroke:#f57f4e;}.cls-9{stroke:#755285;}.cls-10{fill:#3d60d9;}.cls-11{fill:#87e0d4;}.cls-12,.cls-33{fill:#2e2f46;}.cls-13{fill:#c7f64a;}.cls-14{fill:#1ebf70;}.cls-15{fill:#87e089;}.cls-16{fill:#f57f4e;}.cls-17{fill:#755285;}.cls-18,.cls-28{isolation:isolate;}.cls-19,.cls-20,.cls-22{fill:#fff;}.cls-20,.cls-22,.cls-24,.cls-25{font-size:16.99px;}.cls-20,.cls-22,.cls-24,.cls-25,.cls-28,.cls-29{font-family:OpenSans, Open Sans;}.cls-20,.cls-25{letter-spacing:0.04em;}.cls-21,.cls-22,.cls-24{letter-spacing:0.04em;}.cls-23,.cls-24,.cls-25{fill:#1d1d1b;}.cls-26{stroke:#7095f1;}.cls-27{fill:#7095f1;}.cls-28{font-size:18.17px;}.cls-29{font-size:19.81px;}.cls-32,.cls-33{font-size:28.47px;font-family:OpenSans-Bold, Open Sans;font-weight:700;text-decoration:underline;}.cls-32{fill:#030420;}</style>
  </defs>
  <g id="Layer_1" data-name="Layer 1">
    <rect id="backgorund" class="cls-1" x="-22.38" y="-17.43" width="1964.75" height="1336.75"/>
  </g>
  <g id="Layer_2" data-name="Layer 2">
    <g id="nodes">
      <g id="Telemedicina">
        <path id="p_1009.0428502768416" data-name="p 1009.0428502768416" class="cls-2" d="M849.46,1018.48c-200.9,0-363.76-162.86-363.76-363.75S648.56,291,849.46,291s363.75,162.86,363.75,363.76S1050.35,1018.48,849.46,1018.48Z"/>
      </g>
      <g id="Rastreamento_de_contatos" data-name="Rastreamento de contatos">
        <path id="p_1357.4126277817732" data-name="p 1357.4126277817732" class="cls-3" d="M1263.85,1143.63a158.77,158.77,0,1,1,158.77-158.77A158.77,158.77,0,0,1,1263.85,1143.63Z"/>
      </g>
      <g id="Monitoramento_do_fluxo_de_pessoas" data-name="Monitoramento do fluxo de pessoas">
        <path id="p_990.3425551283526" data-name="p 990.3425551283526" class="cls-4" d="M1298.85,541.36a158.77,158.77,0,1,1,158.77-158.77A158.77,158.77,0,0,1,1298.85,541.36Z"/>
      </g>
      <g id="Armazenamento">
        <path id="p_718.3798627363803" data-name="p 718.3798627363803" class="cls-5" d="M1083,354a80.1,80.1,0,1,1,0-160.19h0A80.1,80.1,0,1,1,1083,354Z"/>
      </g>
      <g id="Digitalização_de_serviços_públicos" data-name="Digitalização de serviços públicos">
        <path id="p_1232.0398959118984" data-name="p 1232.0398959118984" class="cls-6" d="M1033.48,1145.06a80.1,80.1,0,0,1,0-160.2h0a80.1,80.1,0,0,1,0,160.2Z"/>
      </g>
      <g id="Fornecimento_de_informações" data-name="Fornecimento de informações">
        <path id="p_576.3217079802926" data-name="p 576.3217079802926" class="cls-7" d="M930.74,295.58a80.1,80.1,0,0,1,0-160.19h0a80.1,80.1,0,1,1,0,160.19Z"/>
      </g>
      <g id="Monitoramento_de_temperatura" data-name="Monitoramento de temperatura">
        <path id="p_1168.788446324224" data-name="p 1168.788446324224" class="cls-8" d="M870.89,1182.51a80.1,80.1,0,1,1,0-160.19h0a80.1,80.1,0,0,1,0,160.19Z"/>
      </g>
      <g id="Mapeamento_da_evolução_da_COVID-19" data-name="Mapeamento da evolução da COVID-19">
        <path id="p_466.4241810300336" data-name="p 466.4241810300336" class="cls-9" d="M767.7,295.67a80.1,80.1,0,0,1,0-160.19h0a80.1,80.1,0,1,1,0,160.19Z"/>
      </g>
      <g id="A2_Tecnologia" data-name="A2 Tecnologia">
        <path id="p_690.2796702008411" data-name="p 690.2796702008411" class="cls-10" d="M731.45,663.84a77.25,77.25,0,0,1,0-154.49h0a77.25,77.25,0,1,1,0,154.49Z"/>
      </g>
      <g id="Instituto_Laura_Fressatto" data-name="Instituto Laura Fressatto">
        <path id="p_796.3966993661811" data-name="p 796.3966993661811" class="cls-10" d="M888.79,663.84a77.25,77.25,0,1,1,0-154.49h0a77.25,77.25,0,1,1,0,154.49Z"/>
      </g>
      <g id="Ayga_Tecnologia" data-name="Ayga Tecnologia">
        <path id="p_835.2382278148295" data-name="p 835.2382278148295" class="cls-10" d="M810.12,800.11a77.25,77.25,0,0,1,0-154.5h0a77.25,77.25,0,0,1,0,154.5Z"/>
      </g>
      <g id="Chama_Inbox_Brasil" data-name="Chama Inbox Brasil">
        <path id="p_651.4381417521925" data-name="p 651.4381417521925" class="cls-10" d="M810.12,527.58a77.25,77.25,0,0,1,0-154.5h0a77.25,77.25,0,0,1,0,154.5Z"/>
      </g>
      <g id="Huawei_Siemens_Energy_Brasil_Hospital_das_Clínicas_USP" data-name="Huawei; Siemens Energy Brasil; Hospital das Clínicas USP">
        <path id="p_545.3211125868525" data-name="p 545.3211125868525" class="cls-10" d="M652.78,527.58a77.25,77.25,0,1,1,0-154.5h0a77.25,77.25,0,0,1,0,154.5Z"/>
      </g>
      <g id="Intel">
        <path id="p_757.5551709175325" data-name="p 757.5551709175325" class="cls-10" d="M967.47,527.58a77.25,77.25,0,1,1,0-154.5h0a77.25,77.25,0,0,1,0,154.5Z"/>
      </g>
      <g id="Radtec">
        <path id="p_941.3552569801695" data-name="p 941.3552569801695" class="cls-10" d="M967.47,800.11a77.25,77.25,0,1,1,0-154.5h0a77.25,77.25,0,0,1,0,154.5Z"/>
      </g>
      <g id="Requisito_Tecnologia" data-name="Requisito Tecnologia">
        <path id="p_729.1211986494897" data-name="p 729.1211986494897" class="cls-10" d="M652.78,800.11a77.25,77.25,0,1,1,0-154.5h0a77.25,77.25,0,0,1,0,154.5Z"/>
      </g>
      <g id="Simex_Sistemas_de_Inspeção_Móveis" data-name="Simex Sistemas de Inspeção Móveis">
        <path id="p_584.1626410355011" data-name="p 584.1626410355011" class="cls-10" d="M574.1,663.84a77.25,77.25,0,1,1,0-154.49h0a77.25,77.25,0,1,1,0,154.49Z"/>
      </g>
      <g id="Não_Localizada" data-name="Não Localizada">
        <path id="p_902.513728531521" data-name="p 902.513728531521" class="cls-10" d="M1046.14,663.84a77.25,77.25,0,0,1,0-154.49h0a77.25,77.25,0,1,1,0,154.49Z"/>
      </g>
      <g id="True_Work" data-name="True Work">
        <path id="p_1047.4722861455095" data-name="p 1047.4722861455095" class="cls-10" d="M1124.81,800.11a77.25,77.25,0,1,1,0-154.5h0a77.25,77.25,0,0,1,0,154.5Z"/>
      </g>
      <g id="Ministério_da_Saúde" data-name="Ministério da Saúde">
        <path id="p_1249.3754068578676" data-name="p 1249.3754068578676" class="cls-11" d="M1263.85,1132.83a148,148,0,0,1,0-295.93h0a148,148,0,1,1,.05,295.93Z"/>
      </g>
      <g id="UFAL">
        <path id="p_882.3053342044469" data-name="p 882.3053342044469" class="cls-12" d="M1220.18,459.84a77.25,77.25,0,0,1,0-154.5h0a77.25,77.25,0,0,1,0,154.5Z"/>
      </g>
      <g id="ViaSoluTI">
        <path id="p_988.4223633697869" data-name="p 988.4223633697869" class="cls-12" d="M1377.52,459.84a77.25,77.25,0,1,1,0-154.5h0a77.25,77.25,0,1,1,0,154.5Z"/>
      </g>
      <g id="Embratel">
        <path id="p_716.4596709778145" data-name="p 716.4596709778145" class="cls-13" d="M1083,351.16a77.25,77.25,0,0,1,0-154.5h0a77.25,77.25,0,0,1,0,154.5Z"/>
      </g>
      <g id="Serpro">
        <path id="p_1230.1197041533326" data-name="p 1230.1197041533326" class="cls-14" d="M1033.48,1142.21a77.25,77.25,0,1,1,0-154.5h0a77.25,77.25,0,0,1,0,154.5Z"/>
      </g>
      <g id="Mito_Games" data-name="Mito Games">
        <path id="p_574.4015162217268" data-name="p 574.4015162217268" class="cls-15" d="M930.74,292.73a77.25,77.25,0,0,1,0-154.49h0a77.25,77.25,0,1,1,0,154.49Z"/>
      </g>
      <g id="Petrobras">
        <path id="p_1166.8682545656582" data-name="p 1166.8682545656582" class="cls-16" d="M870.89,1179.67a77.25,77.25,0,1,1,0-154.5h0a77.25,77.25,0,1,1,0,154.5Z"/>
      </g>
      <g id="Não_Localizada-2" data-name="Não Localizada">
        <path id="p_464.50398927146784" data-name="p 464.50398927146784" class="cls-17" d="M767.7,292.82a77.25,77.25,0,1,1,0-154.49h0a77.25,77.25,0,0,1,0,154.49Z"/>
      </g>
    </g>
    <g id="labels">
      <g class="cls-18">
        <path class="cls-19" d="M728.75,574.17l-1.51-3.86h-4.89l-1.5,3.86h-1.43L724.24,562h1.19l4.79,12.18Zm-2-5.13-1.41-3.76c-.19-.47-.37-1.06-.57-1.75a16.46,16.46,0,0,1-.52,1.75L722.85,569Z"/>
        <path class="cls-19" d="M739.74,574.17h-8V573l3.21-3.21a22.23,22.23,0,0,0,1.93-2.11,5.18,5.18,0,0,0,.7-1.23,3.35,3.35,0,0,0,.24-1.28,2,2,0,0,0-.59-1.54,2.3,2.3,0,0,0-1.65-.57,4,4,0,0,0-1.43.25,6,6,0,0,0-1.52.9l-.73-.93a5.64,5.64,0,0,1,3.67-1.4,3.91,3.91,0,0,1,2.69.88,3,3,0,0,1,1,2.35,4.45,4.45,0,0,1-.65,2.28,14.35,14.35,0,0,1-2.43,2.86l-2.67,2.59v.07h6.27Z"/>
        <path class="cls-19" d="M679.41,595.26H678V584.38h-3.86v-1.25h9.13v1.25h-3.85Z"/>
        <path class="cls-19" d="M692.57,595.26h-6.79V583.13h6.79v1.25H687.2v3.91h5v1.24h-5V594h5.37Z"/>
        <path class="cls-19" d="M701.17,584.21a4,4,0,0,0-3.17,1.34,5.31,5.31,0,0,0-1.17,3.64,5.44,5.44,0,0,0,1.13,3.68,4,4,0,0,0,3.19,1.3,10.76,10.76,0,0,0,2.91-.46V595a9.17,9.17,0,0,1-3.13.47,5.31,5.31,0,0,1-4.15-1.62,6.73,6.73,0,0,1-1.46-4.63,7.26,7.26,0,0,1,.7-3.28,5,5,0,0,1,2-2.17,6.12,6.12,0,0,1,3.12-.77,7.62,7.62,0,0,1,3.35.7l-.6,1.21A6.48,6.48,0,0,0,701.17,584.21Z"/>
        <path class="cls-19" d="M716.91,595.26H715.3l-6.66-10.18h-.07c.09,1.19.14,2.29.14,3.28v6.9H707.4V583.13H709l6.64,10.13h.07c0-.14,0-.62-.08-1.43s0-1.39,0-1.74v-7h1.32Z"/>
        <path class="cls-19" d="M731.52,589.17a6.67,6.67,0,0,1-1.48,4.58,5.19,5.19,0,0,1-4.11,1.67,5.27,5.27,0,0,1-4.16-1.64,6.72,6.72,0,0,1-1.46-4.62,6.59,6.59,0,0,1,1.47-4.59,5.29,5.29,0,0,1,4.16-1.63,5.18,5.18,0,0,1,4.1,1.66A6.6,6.6,0,0,1,731.52,589.17Zm-9.71,0a5.69,5.69,0,0,0,1.06,3.74,4.3,4.3,0,0,0,6.11,0,5.84,5.84,0,0,0,1-3.75,5.76,5.76,0,0,0-1-3.71,4.33,4.33,0,0,0-6.12,0A5.63,5.63,0,0,0,721.81,589.17Z"/>
        <path class="cls-19" d="M734.92,595.26V583.13h1.41V594h5.38v1.28Z"/>
        <path class="cls-19" d="M755,589.17a6.67,6.67,0,0,1-1.48,4.58,5.19,5.19,0,0,1-4.11,1.67,5.27,5.27,0,0,1-4.16-1.64,6.72,6.72,0,0,1-1.46-4.62,6.59,6.59,0,0,1,1.47-4.59,5.29,5.29,0,0,1,4.16-1.63,5.18,5.18,0,0,1,4.1,1.66A6.6,6.6,0,0,1,755,589.17Zm-9.71,0a5.69,5.69,0,0,0,1.06,3.74,4.3,4.3,0,0,0,6.11,0,5.84,5.84,0,0,0,1-3.75,5.76,5.76,0,0,0-1-3.71,4.33,4.33,0,0,0-6.12,0A5.63,5.63,0,0,0,745.32,589.17Z"/>
        <path class="cls-19" d="M763.78,588.9h4.14v5.9a13.27,13.27,0,0,1-2,.46,14.48,14.48,0,0,1-2.32.16,5.62,5.62,0,0,1-4.31-1.64,6.46,6.46,0,0,1-1.54-4.59,6.89,6.89,0,0,1,.77-3.31,5.12,5.12,0,0,1,2.19-2.18,7.17,7.17,0,0,1,3.36-.75,9.12,9.12,0,0,1,3.63.72l-.55,1.24a8.24,8.24,0,0,0-3.17-.7,4.57,4.57,0,0,0-3.48,1.32,5.12,5.12,0,0,0-1.25,3.66,5.2,5.2,0,0,0,1.21,3.73,4.66,4.66,0,0,0,3.53,1.27,10.78,10.78,0,0,0,2.48-.29v-3.74h-2.73Z"/>
        <path class="cls-19" d="M771.53,595.26V583.13H773v12.13Z"/>
        <path class="cls-19" d="M784.63,595.26l-1.52-3.86h-4.88l-1.5,3.86H775.3l4.81-12.18h1.19l4.79,12.18Zm-2-5.13-1.42-3.76c-.18-.47-.37-1.06-.56-1.75a16.67,16.67,0,0,1-.53,1.75l-1.43,3.76Z"/>
      </g>
      <g class="cls-18">
        <path class="cls-19" d="M840.88,569.29V557.16h1.42v12.13Z"/>
        <path class="cls-19" d="M855.84,569.29h-1.62l-6.65-10.18h-.07c.09,1.19.13,2.29.13,3.28v6.9h-1.31V557.16h1.6l6.64,10.14h.07c0-.15,0-.63-.07-1.44s-.06-1.39,0-1.74v-7h1.33Z"/>
        <path class="cls-19" d="M866.74,566.06a3,3,0,0,1-1.16,2.5,5.14,5.14,0,0,1-3.17.89,8,8,0,0,1-3.33-.55v-1.36a8.63,8.63,0,0,0,1.63.49,8.08,8.08,0,0,0,1.75.19,3.48,3.48,0,0,0,2.13-.54,1.74,1.74,0,0,0,.72-1.49,1.89,1.89,0,0,0-.25-1,2.34,2.34,0,0,0-.85-.74,10.83,10.83,0,0,0-1.82-.77,5.83,5.83,0,0,1-2.42-1.44,3.12,3.12,0,0,1-.73-2.16,2.7,2.7,0,0,1,1.06-2.24,4.39,4.39,0,0,1,2.79-.83,8.35,8.35,0,0,1,3.35.67l-.45,1.23a7.55,7.55,0,0,0-2.93-.63,2.87,2.87,0,0,0-1.76.48,1.57,1.57,0,0,0-.63,1.33,2.07,2.07,0,0,0,.23,1,2.19,2.19,0,0,0,.79.74,10.09,10.09,0,0,0,1.7.75A6.69,6.69,0,0,1,866,564,2.85,2.85,0,0,1,866.74,566.06Z"/>
        <path class="cls-19" d="M873.67,569.29h-1.42V558.41h-3.86v-1.25h9.13v1.25h-3.85Z"/>
        <path class="cls-19" d="M880,569.29V557.16h1.42v12.13Z"/>
        <path class="cls-19" d="M889.23,569.29h-1.42V558.41H884v-1.25h9.14v1.25h-3.86Z"/>
        <path class="cls-19" d="M904.8,557.16V565a4.26,4.26,0,0,1-1.26,3.26,4.84,4.84,0,0,1-3.46,1.18,4.65,4.65,0,0,1-3.4-1.19,4.44,4.44,0,0,1-1.2-3.29v-7.81h1.41v7.91a3.09,3.09,0,0,0,.84,2.33,3.33,3.33,0,0,0,2.45.82,3.28,3.28,0,0,0,2.37-.82,3.11,3.11,0,0,0,.83-2.34v-7.9Z"/>
        <path class="cls-19" d="M912.46,569.29H911V558.41h-3.86v-1.25h9.13v1.25h-3.85Z"/>
        <path class="cls-19" d="M929.4,563.21a6.66,6.66,0,0,1-1.48,4.58,6,6,0,0,1-8.26,0,8,8,0,0,1,0-9.21,5.32,5.32,0,0,1,4.17-1.63,5.2,5.2,0,0,1,4.1,1.66A6.65,6.65,0,0,1,929.4,563.21Zm-9.7,0a5.74,5.74,0,0,0,1,3.73,4.31,4.31,0,0,0,6.12,0,7.27,7.27,0,0,0,0-7.46,3.69,3.69,0,0,0-3-1.26,3.76,3.76,0,0,0-3.08,1.27A5.72,5.72,0,0,0,919.7,563.21Z"/>
        <path class="cls-19" d="M861,590.38V578.25h1.42V589.1h5.37v1.28Z"/>
        <path class="cls-19" d="M878.18,590.38l-1.52-3.86h-4.88l-1.5,3.86h-1.43l4.81-12.18h1.19l4.79,12.18Zm-2-5.13-1.42-3.76c-.18-.47-.37-1.06-.56-1.75a16.67,16.67,0,0,1-.53,1.75l-1.43,3.76Z"/>
        <path class="cls-19" d="M891.2,578.25v7.85a4.26,4.26,0,0,1-1.26,3.26,4.84,4.84,0,0,1-3.46,1.18,4.65,4.65,0,0,1-3.4-1.19,4.44,4.44,0,0,1-1.2-3.29v-7.81h1.41v7.91a3.09,3.09,0,0,0,.84,2.33,4,4,0,0,0,4.82,0,3.11,3.11,0,0,0,.83-2.34v-7.9Z"/>
        <path class="cls-19" d="M896.52,585.33v5h-1.41V578.25h3.34a5.27,5.27,0,0,1,3.31.85,3.11,3.11,0,0,1,1.07,2.57,3.24,3.24,0,0,1-2.45,3.26l3.31,5.45H902l-3-5Zm0-1.21h1.94a3.38,3.38,0,0,0,2.2-.59,2.2,2.2,0,0,0,.7-1.78,2,2,0,0,0-.71-1.73,3.82,3.82,0,0,0-2.29-.54h-1.84Z"/>
        <path class="cls-19" d="M914,590.38l-1.51-3.86h-4.89l-1.5,3.86h-1.43l4.82-12.18h1.19l4.79,12.18Zm-2-5.13-1.42-3.76c-.18-.47-.37-1.06-.57-1.75a14.41,14.41,0,0,1-.52,1.75l-1.44,3.76Z"/>
        <path class="cls-19" d="M842.47,611.47h-1.41V599.34h6.79v1.25h-5.38V605h5v1.25h-5Z"/>
        <path class="cls-19" d="M852,606.42v5.05h-1.41V599.34h3.34a5.27,5.27,0,0,1,3.31.85,3.11,3.11,0,0,1,1.07,2.57,3.24,3.24,0,0,1-2.45,3.26l3.31,5.45h-1.68l-2.94-5.05Zm0-1.21h1.95a3.35,3.35,0,0,0,2.19-.59,2.2,2.2,0,0,0,.7-1.78,2,2,0,0,0-.71-1.74,3.9,3.9,0,0,0-2.29-.53H852Z"/>
        <path class="cls-19" d="M868.57,611.47h-6.79V599.34h6.79v1.25h-5.38v3.91h5v1.24h-5v4.46h5.38Z"/>
        <path class="cls-19" d="M878.82,608.24a3,3,0,0,1-1.16,2.5,5.14,5.14,0,0,1-3.17.89,8,8,0,0,1-3.33-.55v-1.36a8.63,8.63,0,0,0,1.63.49,8.76,8.76,0,0,0,1.75.19,3.48,3.48,0,0,0,2.13-.54,1.75,1.75,0,0,0,.72-1.49,1.89,1.89,0,0,0-.25-1,2.34,2.34,0,0,0-.85-.74,10.83,10.83,0,0,0-1.82-.77,5.83,5.83,0,0,1-2.42-1.44,3.13,3.13,0,0,1-.73-2.17,2.69,2.69,0,0,1,1.06-2.23,4.39,4.39,0,0,1,2.79-.83,8.18,8.18,0,0,1,3.35.67l-.45,1.22a7.55,7.55,0,0,0-2.93-.63,2.81,2.81,0,0,0-1.76.49,1.57,1.57,0,0,0-.63,1.33,2.07,2.07,0,0,0,.23,1,2.19,2.19,0,0,0,.79.74,9.43,9.43,0,0,0,1.7.74,7,7,0,0,1,2.63,1.46A2.88,2.88,0,0,1,878.82,608.24Z"/>
        <path class="cls-19" d="M888.87,608.24a3,3,0,0,1-1.17,2.5,5.09,5.09,0,0,1-3.16.89,7.93,7.93,0,0,1-3.33-.55v-1.36a8.63,8.63,0,0,0,1.63.49,8.76,8.76,0,0,0,1.75.19,3.52,3.52,0,0,0,2.13-.54,1.75,1.75,0,0,0,.72-1.49,1.89,1.89,0,0,0-.26-1,2.26,2.26,0,0,0-.85-.74,10.65,10.65,0,0,0-1.81-.77,5.94,5.94,0,0,1-2.43-1.44,3.18,3.18,0,0,1-.73-2.17,2.72,2.72,0,0,1,1.06-2.23,4.44,4.44,0,0,1,2.8-.83,8.14,8.14,0,0,1,3.34.67l-.44,1.22a7.55,7.55,0,0,0-2.93-.63,2.79,2.79,0,0,0-1.76.49,1.57,1.57,0,0,0-.63,1.33,2,2,0,0,0,.23,1,2.19,2.19,0,0,0,.79.74,9.28,9.28,0,0,0,1.69.74,6.93,6.93,0,0,1,2.64,1.46A2.88,2.88,0,0,1,888.87,608.24Z"/>
        <path class="cls-19" d="M899.7,611.47l-1.52-3.86H893.3l-1.5,3.86h-1.43l4.82-12.18h1.19l4.79,12.18Zm-2-5.13-1.41-3.76a16.46,16.46,0,0,1-.57-1.75,16.46,16.46,0,0,1-.52,1.75l-1.44,3.76Z"/>
        <path class="cls-19" d="M907.27,611.47h-1.41V600.59H902v-1.25h9.13v1.25h-3.86Z"/>
        <path class="cls-19" d="M917.4,611.47H916V600.59h-3.86v-1.25h9.13v1.25H917.4Z"/>
        <path class="cls-19" d="M934.34,605.38a6.62,6.62,0,0,1-1.48,4.58,5.17,5.17,0,0,1-4.11,1.67A5.24,5.24,0,0,1,924.6,610a6.67,6.67,0,0,1-1.46-4.62,6.59,6.59,0,0,1,1.46-4.59,5.32,5.32,0,0,1,4.17-1.63,5.2,5.2,0,0,1,4.1,1.66A6.64,6.64,0,0,1,934.34,605.38Zm-9.7,0a5.75,5.75,0,0,0,1.05,3.74,4.31,4.31,0,0,0,6.12,0,5.84,5.84,0,0,0,1-3.75,5.76,5.76,0,0,0-1-3.71,3.69,3.69,0,0,0-3-1.26,3.76,3.76,0,0,0-3.08,1.27A5.69,5.69,0,0,0,924.64,605.38Z"/>
      </g>
      <g class="cls-18">
        <text class="cls-20" transform="translate(788.72 712.49)" style="white-space: pre;">AYGA<tspan class="cls-21"><tspan x="-33.1" y="21.09">TECNOLOGIA</tspan></tspan></text>
      </g>
      <g class="cls-18">
        <path class="cls-19" d="M784.32,432.1a4,4,0,0,0-3.17,1.33,5.38,5.38,0,0,0-1.16,3.65,5.47,5.47,0,0,0,1.12,3.68,4,4,0,0,0,3.2,1.29,11,11,0,0,0,2.9-.45v1.23a8.82,8.82,0,0,1-3.12.48,5.3,5.3,0,0,1-4.15-1.63,6.64,6.64,0,0,1-1.47-4.62,7.28,7.28,0,0,1,.71-3.29,5,5,0,0,1,2-2.17,6.18,6.18,0,0,1,3.13-.76,7.51,7.51,0,0,1,3.35.7l-.6,1.21A6.38,6.38,0,0,0,784.32,432.1Z"/>
        <path class="cls-19" d="M799.8,443.14h-1.41v-5.71H792v5.71h-1.42V431H792v5.16h6.42V431h1.41Z"/>
        <path class="cls-19" d="M811.48,443.14,810,439.28h-4.89l-1.5,3.86h-1.43L807,431h1.19L813,443.14Zm-2-5.13-1.41-3.75c-.19-.48-.37-1.06-.57-1.75a17.18,17.18,0,0,1-.52,1.75L805.58,438Z"/>
        <path class="cls-19" d="M820.7,443.14l-4.14-10.75h-.06c.07.85.11,1.86.11,3v7.71h-1.3V431h2.13l3.86,10h.06l3.89-10h2.12v12.13H826v-7.81c0-.9,0-1.87.12-2.92H826l-4.16,10.73Z"/>
        <path class="cls-19" d="M839.05,443.14l-1.52-3.86h-4.88l-1.5,3.86h-1.43L834.53,431h1.2l4.79,12.18Zm-2-5.13-1.41-3.75a17.26,17.26,0,0,1-.57-1.75,15.15,15.15,0,0,1-.53,1.75L833.15,438Z"/>
        <path class="cls-19" d="M753.64,464.23V452.1h1.42v12.13Z"/>
        <path class="cls-19" d="M768.59,464.23H767l-6.66-10.18h-.07c.09,1.2.14,2.29.14,3.29v6.89h-1.31V452.1h1.6l6.64,10.14h.07c0-.15,0-.63-.08-1.44s0-1.39,0-1.74v-7h1.32Z"/>
        <path class="cls-19" d="M772.63,452.1h3.44a6.51,6.51,0,0,1,3.5.72,2.54,2.54,0,0,1,1.09,2.29,2.57,2.57,0,0,1-.61,1.77,2.85,2.85,0,0,1-1.76.91v.09c1.85.31,2.78,1.28,2.78,2.9a3.12,3.12,0,0,1-1.11,2.54,4.69,4.69,0,0,1-3.09.91h-4.24Zm1.41,5.19h2.33a3.85,3.85,0,0,0,2.16-.46,1.81,1.81,0,0,0,.66-1.58,1.61,1.61,0,0,0-.73-1.48,4.64,4.64,0,0,0-2.34-.45H774Zm0,1.2V463h2.54a3.59,3.59,0,0,0,2.22-.57,2.09,2.09,0,0,0,.75-1.78,1.88,1.88,0,0,0-.76-1.66,4.12,4.12,0,0,0-2.32-.53Z"/>
        <path class="cls-19" d="M794.94,458.15a6.69,6.69,0,0,1-1.48,4.58,5.23,5.23,0,0,1-4.11,1.67,5.3,5.3,0,0,1-4.16-1.64,6.75,6.75,0,0,1-1.46-4.63,6.63,6.63,0,0,1,1.47-4.59,5.28,5.28,0,0,1,4.16-1.63,5.18,5.18,0,0,1,4.1,1.66A6.62,6.62,0,0,1,794.94,458.15Zm-9.71,0a5.77,5.77,0,0,0,1,3.74,3.77,3.77,0,0,0,3.07,1.27,3.67,3.67,0,0,0,3-1.27,7.22,7.22,0,0,0,0-7.45,3.69,3.69,0,0,0-3-1.27,3.78,3.78,0,0,0-3.08,1.28A5.67,5.67,0,0,0,785.23,458.15Z"/>
        <path class="cls-19" d="M806.44,464.23h-1.61l-3.27-5.33-3.33,5.33h-1.5l4-6.34L797,452.1h1.57l3,4.81,3-4.81h1.51l-3.77,5.74Z"/>
        <path class="cls-19" d="M814,452.1h3.44a6.52,6.52,0,0,1,3.51.72,2.56,2.56,0,0,1,1.08,2.29,2.62,2.62,0,0,1-.6,1.77,2.85,2.85,0,0,1-1.76.91v.09c1.85.31,2.77,1.28,2.77,2.9a3.14,3.14,0,0,1-1.1,2.54,4.72,4.72,0,0,1-3.09.91H814Zm1.42,5.19h2.33a3.85,3.85,0,0,0,2.16-.46,1.81,1.81,0,0,0,.66-1.58,1.62,1.62,0,0,0-.74-1.48,4.6,4.6,0,0,0-2.33-.45H815.4Zm0,1.2V463h2.54a3.63,3.63,0,0,0,2.22-.57,2.08,2.08,0,0,0,.74-1.78,1.88,1.88,0,0,0-.76-1.66,4.12,4.12,0,0,0-2.32-.53Z"/>
        <path class="cls-19" d="M827.14,459.19v5h-1.42V452.1h3.34a5.26,5.26,0,0,1,3.31.86,3.06,3.06,0,0,1,1.07,2.57,3.21,3.21,0,0,1-2.45,3.25l3.31,5.45h-1.67l-3-5Zm0-1.21h1.94a3.34,3.34,0,0,0,2.2-.6,2.22,2.22,0,0,0,.7-1.78,2,2,0,0,0-.72-1.73,3.87,3.87,0,0,0-2.28-.53h-1.84Z"/>
        <path class="cls-19" d="M844.61,464.23l-1.52-3.86h-4.88l-1.5,3.86h-1.44l4.82-12.18h1.19l4.79,12.18Zm-2-5.13-1.42-3.75c-.18-.48-.37-1.06-.56-1.75a17.42,17.42,0,0,1-.53,1.75l-1.43,3.75Z"/>
        <path class="cls-19" d="M855.3,461a3,3,0,0,1-1.16,2.5,5.08,5.08,0,0,1-3.17.9,8,8,0,0,1-3.33-.56v-1.36a8.63,8.63,0,0,0,1.63.5,8.74,8.74,0,0,0,1.75.18,3.48,3.48,0,0,0,2.13-.54,1.73,1.73,0,0,0,.72-1.48,1.93,1.93,0,0,0-.25-1,2.44,2.44,0,0,0-.85-.74,12.19,12.19,0,0,0-1.82-.77,5.63,5.63,0,0,1-2.42-1.44,3.12,3.12,0,0,1-.73-2.16,2.68,2.68,0,0,1,1.05-2.23,4.38,4.38,0,0,1,2.8-.83,8.3,8.3,0,0,1,3.34.66l-.44,1.23a7.55,7.55,0,0,0-2.93-.63,2.85,2.85,0,0,0-1.76.48,1.59,1.59,0,0,0-.63,1.34,2.09,2.09,0,0,0,.23,1,2.28,2.28,0,0,0,.79.74,9.84,9.84,0,0,0,1.7.74,6.69,6.69,0,0,1,2.63,1.46A2.85,2.85,0,0,1,855.3,461Z"/>
        <path class="cls-19" d="M858.48,464.23V452.1h1.41v12.13Z"/>
        <path class="cls-19" d="M863.92,464.23V452.1h1.41V463h5.38v1.28Z"/>
      </g>
      <g class="cls-18">
        <path class="cls-19" d="M599.19,443.14h-1.42v-5.71h-6.41v5.71h-1.42V431h1.42v5.16h6.41V431h1.42Z"/>
        <path class="cls-19" d="M613.78,437.06a6.64,6.64,0,0,1-1.48,4.58,5.2,5.2,0,0,1-4.11,1.67,5.28,5.28,0,0,1-4.15-1.64,6.75,6.75,0,0,1-1.46-4.63,6.67,6.67,0,0,1,1.46-4.59,5.35,5.35,0,0,1,4.17-1.63,5.18,5.18,0,0,1,4.1,1.66A6.67,6.67,0,0,1,613.78,437.06Zm-9.7,0a5.77,5.77,0,0,0,1,3.74,4.32,4.32,0,0,0,6.12,0,7.28,7.28,0,0,0,0-7.45,3.7,3.7,0,0,0-3-1.27,3.77,3.77,0,0,0-3.08,1.28A5.67,5.67,0,0,0,604.08,437.06Z"/>
        <path class="cls-19" d="M624.06,439.91a3,3,0,0,1-1.17,2.5,5.06,5.06,0,0,1-3.17.9,8,8,0,0,1-3.33-.56v-1.36a8.63,8.63,0,0,0,1.63.5,8.81,8.81,0,0,0,1.75.18,3.61,3.61,0,0,0,2.14-.53,1.78,1.78,0,0,0,.71-1.49,1.93,1.93,0,0,0-.25-1,2.45,2.45,0,0,0-.85-.74,12,12,0,0,0-1.81-.77,5.61,5.61,0,0,1-2.43-1.44,3.12,3.12,0,0,1-.73-2.16,2.66,2.66,0,0,1,1.06-2.23,4.42,4.42,0,0,1,2.8-.83,8.33,8.33,0,0,1,3.34.66l-.44,1.23a7.63,7.63,0,0,0-2.94-.63,2.82,2.82,0,0,0-1.75.48,1.58,1.58,0,0,0-.64,1.34,2,2,0,0,0,.24,1,2.15,2.15,0,0,0,.78.74,10.21,10.21,0,0,0,1.7.74,6.74,6.74,0,0,1,2.64,1.46A2.85,2.85,0,0,1,624.06,439.91Z"/>
        <path class="cls-19" d="M635,434.55a3.4,3.4,0,0,1-1.26,2.83,5.73,5.73,0,0,1-3.61,1h-1.43v4.77h-1.42V431h3.16Q634.95,431,635,434.55Zm-6.3,2.61h1.27a4.73,4.73,0,0,0,2.73-.61,2.22,2.22,0,0,0,.84-1.94,2.1,2.1,0,0,0-.79-1.79,4.18,4.18,0,0,0-2.47-.59h-1.58Z"/>
        <path class="cls-19" d="M638.18,443.14V431h1.42v12.13Z"/>
        <path class="cls-19" d="M647.37,443.14H646V432.26H642.1V431h9.13v1.25h-3.86Z"/>
        <path class="cls-19" d="M661.4,443.14l-1.51-3.86H655l-1.49,3.86h-1.44L656.89,431h1.19l4.79,12.18ZM659.45,438,658,434.26c-.18-.48-.37-1.06-.57-1.75a15,15,0,0,1-.52,1.75L655.5,438Z"/>
        <path class="cls-19" d="M665.23,443.14V431h1.41v10.85H672v1.28Z"/>
        <path class="cls-19" d="M689.6,437a6.11,6.11,0,0,1-1.63,4.59,6.5,6.5,0,0,1-4.71,1.59h-3.38V431h3.73a6,6,0,0,1,4.42,1.57A5.92,5.92,0,0,1,689.6,437Zm-1.5.05a4.88,4.88,0,0,0-1.19-3.58,4.81,4.81,0,0,0-3.55-1.2H681.3v9.69H683a5.25,5.25,0,0,0,3.81-1.24A4.9,4.9,0,0,0,688.1,437Z"/>
        <path class="cls-19" d="M700.66,443.14l-1.52-3.86h-4.88l-1.5,3.86h-1.43L696.14,431h1.19l4.8,12.18Zm-2-5.13-1.42-3.75c-.18-.48-.37-1.06-.56-1.75a15.15,15.15,0,0,1-.53,1.75L694.76,438Z"/>
        <path class="cls-19" d="M711.36,439.91a3,3,0,0,1-1.17,2.5,5.06,5.06,0,0,1-3.17.9,8,8,0,0,1-3.33-.56v-1.36a8.89,8.89,0,0,0,3.38.68,3.61,3.61,0,0,0,2.14-.53,1.78,1.78,0,0,0,.71-1.49,1.93,1.93,0,0,0-.25-1,2.45,2.45,0,0,0-.85-.74,12,12,0,0,0-1.81-.77,5.61,5.61,0,0,1-2.43-1.44,3.12,3.12,0,0,1-.73-2.16,2.66,2.66,0,0,1,1.06-2.23,4.42,4.42,0,0,1,2.8-.83,8.33,8.33,0,0,1,3.34.66l-.44,1.23a7.63,7.63,0,0,0-2.94-.63,2.82,2.82,0,0,0-1.75.48,1.58,1.58,0,0,0-.64,1.34,2,2,0,0,0,.24,1,2.15,2.15,0,0,0,.78.74,10.21,10.21,0,0,0,1.7.74,6.67,6.67,0,0,1,2.64,1.46A2.85,2.85,0,0,1,711.36,439.91Z"/>
        <path class="cls-19" d="M601.2,453.19a4,4,0,0,0-3.17,1.33,5.38,5.38,0,0,0-1.16,3.65,5.47,5.47,0,0,0,1.12,3.68,4,4,0,0,0,3.2,1.29,11,11,0,0,0,2.9-.45v1.23a8.82,8.82,0,0,1-3.12.48,5.3,5.3,0,0,1-4.15-1.63,6.64,6.64,0,0,1-1.47-4.62,7.28,7.28,0,0,1,.71-3.29,5.07,5.07,0,0,1,2-2.17,6.18,6.18,0,0,1,3.13-.76,7.65,7.65,0,0,1,3.35.69l-.6,1.22A6.34,6.34,0,0,0,601.2,453.19Z"/>
        <path class="cls-19" d="M607.43,464.23V452.1h1.42V463h5.37v1.28Z"/>
        <path class="cls-19" d="M616.79,450.92a14.36,14.36,0,0,0,.86-1.24c.31-.49.55-.91.73-1.27h1.68v.17a10.58,10.58,0,0,1-1.09,1.33,12.42,12.42,0,0,1-1.25,1.22h-.93Zm.18,13.31V452.1h1.42v12.13Z"/>
        <path class="cls-19" d="M631.93,464.23h-1.62l-6.65-10.18h-.07c.09,1.2.13,2.29.13,3.29v6.89h-1.31V452.1H624l6.64,10.14h.07c0-.15,0-.63-.07-1.44s-.06-1.39,0-1.74v-7h1.33Z"/>
        <path class="cls-19" d="M636,464.23V452.1h1.42v12.13Z"/>
        <path class="cls-19" d="M646.62,453.19a4,4,0,0,0-3.17,1.33,5.34,5.34,0,0,0-1.17,3.65,5.52,5.52,0,0,0,1.12,3.68,4,4,0,0,0,3.2,1.29,11.12,11.12,0,0,0,2.91-.45v1.23a8.92,8.92,0,0,1-3.13.48,5.3,5.3,0,0,1-4.15-1.63,6.64,6.64,0,0,1-1.46-4.62,7.28,7.28,0,0,1,.7-3.29,5.07,5.07,0,0,1,2-2.17,6.18,6.18,0,0,1,3.13-.76,7.62,7.62,0,0,1,3.35.69l-.6,1.22A6.33,6.33,0,0,0,646.62,453.19Z"/>
        <path class="cls-19" d="M660.5,464.23,659,460.37H654.1l-1.49,3.86h-1.44L656,452.05h1.19L662,464.23Zm-2-5.13-1.42-3.75c-.18-.48-.37-1.06-.57-1.75a15,15,0,0,1-.52,1.75l-1.44,3.75Z"/>
        <path class="cls-19" d="M671.2,461a3,3,0,0,1-1.17,2.5,5,5,0,0,1-3.16.9,7.9,7.9,0,0,1-3.33-.56v-1.36a8.41,8.41,0,0,0,1.63.5,8.74,8.74,0,0,0,1.75.18,3.52,3.52,0,0,0,2.13-.54,1.73,1.73,0,0,0,.72-1.48,1.93,1.93,0,0,0-.26-1,2.35,2.35,0,0,0-.85-.74,11.54,11.54,0,0,0-1.81-.77,5.73,5.73,0,0,1-2.43-1.44,3.17,3.17,0,0,1-.73-2.16,2.69,2.69,0,0,1,1.06-2.23,4.38,4.38,0,0,1,2.8-.83,8.3,8.3,0,0,1,3.34.66l-.44,1.23a7.55,7.55,0,0,0-2.93-.63,2.85,2.85,0,0,0-1.76.48,1.59,1.59,0,0,0-.63,1.34,2,2,0,0,0,.23,1,2.28,2.28,0,0,0,.79.74,10,10,0,0,0,1.69.74,6.67,6.67,0,0,1,2.64,1.46A2.85,2.85,0,0,1,671.2,461Z"/>
        <path class="cls-19" d="M688.69,452.1V460a4.26,4.26,0,0,1-1.26,3.26A4.85,4.85,0,0,1,684,464.4a4.59,4.59,0,0,1-3.4-1.2,4.38,4.38,0,0,1-1.21-3.28V452.1h1.42V460a3.13,3.13,0,0,0,.83,2.33,3.4,3.4,0,0,0,2.45.81,3.25,3.25,0,0,0,2.38-.82,3.14,3.14,0,0,0,.83-2.34v-7.9Z"/>
        <path class="cls-19" d="M699.47,461a3,3,0,0,1-1.17,2.5,5.06,5.06,0,0,1-3.17.9,8,8,0,0,1-3.33-.56v-1.36a8.74,8.74,0,0,0,1.64.5,8.64,8.64,0,0,0,1.74.18,3.53,3.53,0,0,0,2.14-.54,1.72,1.72,0,0,0,.71-1.48,1.93,1.93,0,0,0-.25-1,2.35,2.35,0,0,0-.85-.74,12,12,0,0,0-1.81-.77,5.73,5.73,0,0,1-2.43-1.44A3.12,3.12,0,0,1,692,455a2.66,2.66,0,0,1,1.06-2.23,4.36,4.36,0,0,1,2.8-.83,8.33,8.33,0,0,1,3.34.66l-.44,1.23a7.63,7.63,0,0,0-2.94-.63,2.82,2.82,0,0,0-1.75.48,1.58,1.58,0,0,0-.64,1.34,2,2,0,0,0,.24,1,2.15,2.15,0,0,0,.78.74,10.21,10.21,0,0,0,1.7.74,6.67,6.67,0,0,1,2.64,1.46A2.85,2.85,0,0,1,699.47,461Z"/>
        <path class="cls-19" d="M710.36,455.64a3.4,3.4,0,0,1-1.26,2.83,5.73,5.73,0,0,1-3.61,1h-1.43v4.77h-1.42V452.1h3.16Q710.36,452.1,710.36,455.64Zm-6.3,2.61h1.27a4.71,4.71,0,0,0,2.73-.61,2.22,2.22,0,0,0,.84-1.94,2.1,2.1,0,0,0-.79-1.79,4.18,4.18,0,0,0-2.47-.59h-1.58Z"/>
      </g>
      <g class="cls-18">
        <path class="cls-19" d="M896.37,433V420.9h1.42V433Z"/>
        <path class="cls-19" d="M911.33,433h-1.62l-6.66-10.18H903c.08,1.2.13,2.29.13,3.29V433h-1.31V420.9h1.6L910.05,431h.07c0-.15,0-.63-.08-1.44s0-1.39,0-1.73v-7h1.33Z"/>
        <path class="cls-19" d="M922.23,429.8a3,3,0,0,1-1.17,2.49,5,5,0,0,1-3.16.9,7.9,7.9,0,0,1-3.33-.56v-1.36a8.63,8.63,0,0,0,1.63.5A8.74,8.74,0,0,0,918,432a3.52,3.52,0,0,0,2.13-.53,1.75,1.75,0,0,0,.72-1.49,1.87,1.87,0,0,0-.26-1,2.36,2.36,0,0,0-.85-.75,12.6,12.6,0,0,0-1.81-.77,5.83,5.83,0,0,1-2.43-1.43,3.22,3.22,0,0,1-.73-2.17,2.7,2.7,0,0,1,1.06-2.23,4.44,4.44,0,0,1,2.8-.83,8.3,8.3,0,0,1,3.34.66l-.44,1.23a7.55,7.55,0,0,0-2.93-.63,2.85,2.85,0,0,0-1.76.48,1.59,1.59,0,0,0-.63,1.34,2.09,2.09,0,0,0,.23,1,2.19,2.19,0,0,0,.79.74,10,10,0,0,0,1.69.74,6.8,6.8,0,0,1,2.64,1.46A2.88,2.88,0,0,1,922.23,429.8Z"/>
        <path class="cls-19" d="M929.15,433h-1.41V422.15h-3.86V420.9H933v1.25h-3.86Z"/>
        <path class="cls-19" d="M935.12,432.14a1.22,1.22,0,0,1,.25-.84.94.94,0,0,1,.73-.28,1,1,0,0,1,.76.28,1.41,1.41,0,0,1,0,1.67,1.09,1.09,0,0,1-1.45,0A1.11,1.11,0,0,1,935.12,432.14Z"/>
        <path class="cls-19" d="M945.86,420.9h3.45a6.51,6.51,0,0,1,3.5.72,2.53,2.53,0,0,1,1.09,2.28,2.6,2.6,0,0,1-.61,1.78,2.9,2.9,0,0,1-1.76.91v.08c1.85.31,2.77,1.28,2.77,2.9a3.1,3.1,0,0,1-1.1,2.54,4.71,4.71,0,0,1-3.09.91h-4.25Zm1.42,5.19h2.33a3.84,3.84,0,0,0,2.16-.47,1.8,1.8,0,0,0,.66-1.58,1.59,1.59,0,0,0-.73-1.47,4.63,4.63,0,0,0-2.34-.46h-2.08Zm0,1.19v4.54h2.54a3.59,3.59,0,0,0,2.22-.57,2.09,2.09,0,0,0,.75-1.78,1.91,1.91,0,0,0-.76-1.66,4.14,4.14,0,0,0-2.32-.53Z"/>
        <path class="cls-19" d="M966.8,420.9v7.84a4.25,4.25,0,0,1-1.26,3.26,4.84,4.84,0,0,1-3.45,1.19,4.67,4.67,0,0,1-3.41-1.19,4.45,4.45,0,0,1-1.2-3.29V420.9h1.41v7.91a3.09,3.09,0,0,0,.84,2.33,3.37,3.37,0,0,0,2.45.81,3.24,3.24,0,0,0,2.37-.81,3.14,3.14,0,0,0,.84-2.35V420.9Z"/>
        <path class="cls-19" d="M974.46,433H973V422.15h-3.86V420.9h9.13v1.25h-3.85Z"/>
        <path class="cls-19" d="M988.49,433,987,429.17h-4.88l-1.5,3.85h-1.43L984,420.85h1.19L990,433Zm-2-5.12-1.42-3.76c-.18-.48-.37-1.06-.56-1.75a17.42,17.42,0,0,1-.53,1.75l-1.43,3.76Z"/>
        <path class="cls-19" d="M1001.83,433h-1.62l-6.66-10.18h-.06c.08,1.2.13,2.29.13,3.29V433h-1.31V420.9h1.6l6.64,10.13h.07c0-.15,0-.63-.08-1.44s0-1.39,0-1.73v-7h1.33Z"/>
        <path class="cls-19" d="M1009.61,433h-1.42V422.15h-3.86V420.9h9.13v1.25h-3.85Z"/>
        <path class="cls-19" d="M1023.64,433l-1.52-3.85h-4.88l-1.5,3.85h-1.44l4.82-12.17h1.19L1025.1,433Zm-2-5.12-1.42-3.76c-.18-.48-.37-1.06-.56-1.75a17.42,17.42,0,0,1-.53,1.75l-1.43,3.76Z"/>
        <path class="cls-19" d="M1037,433h-1.61l-6.66-10.18h-.07c.09,1.2.14,2.29.14,3.29V433h-1.31V420.9h1.6L1035.7,431h.07c0-.15,0-.63-.08-1.44s0-1.39,0-1.73v-7H1037Z"/>
        <path class="cls-19" d="M1042.25,431.05l.12.19a19.82,19.82,0,0,1-.62,1.93c-.27.73-.56,1.41-.85,2h-1c.15-.57.31-1.28.49-2.13s.31-1.52.38-2Zm-1.69-6.23c0-.75.33-1.12,1-1.12s1,.37,1,1.12a1.18,1.18,0,0,1-.27.83,1,1,0,0,1-.75.29,1,1,0,0,1-.74-.29A1.23,1.23,0,0,1,1040.56,424.82Z"/>
        <path class="cls-19" d="M923.9,454.11h-1.42V442h6.79v1.25H923.9v4.44H929v1.25H923.9Z"/>
        <path class="cls-19" d="M941.17,442v7.84a4.25,4.25,0,0,1-1.26,3.26,4.85,4.85,0,0,1-3.46,1.19,4.59,4.59,0,0,1-3.4-1.2,4.38,4.38,0,0,1-1.21-3.28V442h1.42v7.91a3.13,3.13,0,0,0,.83,2.33,3.38,3.38,0,0,0,2.45.81,3.28,3.28,0,0,0,2.38-.81,3.18,3.18,0,0,0,.83-2.35V442Z"/>
        <path class="cls-19" d="M954.59,454.11H953l-6.66-10.18h-.06c.09,1.2.13,2.29.13,3.29v6.89h-1.31V442h1.6l6.64,10.13h.07c0-.15,0-.63-.08-1.44s0-1.39,0-1.73v-7h1.33Z"/>
        <path class="cls-19" d="M968.34,447.93a6.08,6.08,0,0,1-1.63,4.59,6.53,6.53,0,0,1-4.72,1.59h-3.37V442h3.73a6,6,0,0,1,4.42,1.56A5.92,5.92,0,0,1,968.34,447.93Zm-1.5.05a4.88,4.88,0,0,0-1.19-3.57,4.82,4.82,0,0,0-3.56-1.21H960v9.69h1.72a5.25,5.25,0,0,0,3.81-1.24A4.88,4.88,0,0,0,966.84,448Z"/>
        <path class="cls-19" d="M979.4,454.11l-1.52-3.85H973l-1.5,3.85h-1.43l4.81-12.17h1.19l4.79,12.17Zm-2-5.12L976,445.23c-.18-.48-.37-1.06-.56-1.75a17.42,17.42,0,0,1-.53,1.75L973.5,449Z"/>
        <path class="cls-19" d="M988.44,443.07a4,4,0,0,0-3.17,1.33,5.35,5.35,0,0,0-1.17,3.65,5.45,5.45,0,0,0,1.13,3.68,4,4,0,0,0,3.19,1.3,11.17,11.17,0,0,0,2.91-.46v1.24a9.17,9.17,0,0,1-3.13.47,5.29,5.29,0,0,1-4.15-1.63,6.69,6.69,0,0,1-1.46-4.62,7.23,7.23,0,0,1,.7-3.28,5.06,5.06,0,0,1,2-2.18,6.21,6.21,0,0,1,3.12-.76,7.48,7.48,0,0,1,3.35.7l-.6,1.21A6.48,6.48,0,0,0,988.44,443.07Zm1,13.44a1.4,1.4,0,0,1-.64,1.24,3.24,3.24,0,0,1-1.88.44,4,4,0,0,1-.8-.07v-.88a4.47,4.47,0,0,0,.86.07,2.34,2.34,0,0,0,1-.17.62.62,0,0,0,.34-.61A.67.67,0,0,0,988,456a3.23,3.23,0,0,0-1.24-.36l.73-1.48h.92l-.46,1Q989.46,455.39,989.46,456.51Z"/>
        <path class="cls-19" d="M1002.33,454.11l-1.52-3.85h-4.88l-1.5,3.85H993l4.82-12.17H999l4.79,12.17ZM999.59,441a1.59,1.59,0,0,1-.7-.16,6,6,0,0,1-.67-.34l-.63-.34A1.32,1.32,0,0,0,997,440a.77.77,0,0,0-.63.25,1.87,1.87,0,0,0-.33.75h-.81a2.86,2.86,0,0,1,.58-1.57,1.56,1.56,0,0,1,1.24-.57,1.89,1.89,0,0,1,.74.16,5.52,5.52,0,0,1,.69.34l.62.34a1.28,1.28,0,0,0,.57.15.76.76,0,0,0,.61-.24,2,2,0,0,0,.32-.76h.83a3,3,0,0,1-.58,1.57A1.57,1.57,0,0,1,999.59,441Zm.78,8L999,445.23c-.18-.48-.37-1.06-.57-1.75a15,15,0,0,1-.52,1.75L996.43,449Z"/>
        <path class="cls-19" d="M1016.72,448a6.64,6.64,0,0,1-1.48,4.58,5.2,5.2,0,0,1-4.11,1.67,5.28,5.28,0,0,1-4.15-1.64,8,8,0,0,1,0-9.22,5.35,5.35,0,0,1,4.17-1.63,5.23,5.23,0,0,1,4.1,1.66A6.69,6.69,0,0,1,1016.72,448Zm-9.71,0a5.77,5.77,0,0,0,1.06,3.74,4.32,4.32,0,0,0,6.12,0,7.25,7.25,0,0,0,0-7.45,3.69,3.69,0,0,0-3-1.26,3.76,3.76,0,0,0-3.08,1.27A5.69,5.69,0,0,0,1007,448Z"/>
        <path class="cls-19" d="M937.57,469.12a6.69,6.69,0,0,1-1.48,4.58,5.23,5.23,0,0,1-4.11,1.67,5.3,5.3,0,0,1-4.16-1.64,6.73,6.73,0,0,1-1.46-4.63,6.63,6.63,0,0,1,1.47-4.59,5.33,5.33,0,0,1,4.16-1.63,5.22,5.22,0,0,1,4.1,1.66A6.62,6.62,0,0,1,937.57,469.12Zm-9.71,0a5.71,5.71,0,0,0,1.06,3.74,3.73,3.73,0,0,0,3.06,1.27,3.67,3.67,0,0,0,3-1.27,7.22,7.22,0,0,0,0-7.45,4.31,4.31,0,0,0-6.12,0A5.63,5.63,0,0,0,927.86,469.12Z"/>
        <path class="cls-19" d="M947.84,472a3,3,0,0,1-1.17,2.49,5,5,0,0,1-3.16.9,7.9,7.9,0,0,1-3.33-.56v-1.36a8.41,8.41,0,0,0,1.63.5,8.74,8.74,0,0,0,1.75.18,3.6,3.6,0,0,0,2.13-.53,1.76,1.76,0,0,0,.72-1.49,1.87,1.87,0,0,0-.26-1,2.36,2.36,0,0,0-.85-.75,12.6,12.6,0,0,0-1.81-.77,5.83,5.83,0,0,1-2.43-1.43,3.22,3.22,0,0,1-.73-2.17,2.7,2.7,0,0,1,1.06-2.23,4.44,4.44,0,0,1,2.8-.83,8.3,8.3,0,0,1,3.34.66l-.44,1.23a7.59,7.59,0,0,0-2.93-.63,2.85,2.85,0,0,0-1.76.48,1.59,1.59,0,0,0-.63,1.34,2,2,0,0,0,.23,1,2.28,2.28,0,0,0,.79.74,10,10,0,0,0,1.69.74,6.67,6.67,0,0,1,2.64,1.46A2.88,2.88,0,0,1,947.84,472Z"/>
        <path class="cls-19" d="M961.64,475.2h-1.39l-2.46-8.12c-.12-.36-.25-.81-.39-1.36a8.29,8.29,0,0,1-.23-1,19.66,19.66,0,0,1-.58,2.4l-2.39,8.07h-1.4l-3.24-12.13h1.5l1.93,7.49a26.89,26.89,0,0,1,.58,2.86,20,20,0,0,1,.67-3l2.18-7.38h1.5l2.29,7.44a23.23,23.23,0,0,1,.68,2.91,22.53,22.53,0,0,1,.6-2.87l1.91-7.48h1.5Z"/>
        <path class="cls-19" d="M975.15,475.2l-1.52-3.86h-4.88l-1.5,3.86h-1.43L970.63,463h1.19l4.8,12.18Zm-2-5.12-1.41-3.76a17.26,17.26,0,0,1-.57-1.75,15.15,15.15,0,0,1-.53,1.75l-1.43,3.76Z"/>
        <path class="cls-19" d="M979,475.2V463.07h1.42v10.85h5.37v1.28Z"/>
        <path class="cls-19" d="M998.23,469a6.11,6.11,0,0,1-1.63,4.59,6.48,6.48,0,0,1-4.71,1.59h-3.38V463.07h3.73a6,6,0,0,1,4.42,1.57A5.92,5.92,0,0,1,998.23,469Zm-1.49.05a4.84,4.84,0,0,0-1.2-3.57,4.77,4.77,0,0,0-3.55-1.21h-2.06V474h1.72a5.25,5.25,0,0,0,3.81-1.24A4.89,4.89,0,0,0,996.74,469.07Z"/>
        <path class="cls-19" d="M1012.21,469.12a6.69,6.69,0,0,1-1.48,4.58,5.23,5.23,0,0,1-4.11,1.67,5.3,5.3,0,0,1-4.16-1.64,6.73,6.73,0,0,1-1.46-4.63,6.63,6.63,0,0,1,1.47-4.59,5.31,5.31,0,0,1,4.16-1.63,5.22,5.22,0,0,1,4.1,1.66A6.67,6.67,0,0,1,1012.21,469.12Zm-9.71,0a5.77,5.77,0,0,0,1,3.74,3.77,3.77,0,0,0,3.07,1.27,3.69,3.69,0,0,0,3-1.27,7.22,7.22,0,0,0,0-7.45,3.71,3.71,0,0,0-3-1.27,3.78,3.78,0,0,0-3.08,1.28A5.69,5.69,0,0,0,1002.5,469.12Z"/>
        <path class="cls-19" d="M926.39,485.25a4,4,0,0,0-3.17,1.33,5.38,5.38,0,0,0-1.16,3.65,5.45,5.45,0,0,0,1.12,3.68,4,4,0,0,0,3.2,1.29,11,11,0,0,0,2.9-.45V496a9.07,9.07,0,0,1-3.12.47,5.26,5.26,0,0,1-4.15-1.63,6.64,6.64,0,0,1-1.47-4.62,7.24,7.24,0,0,1,.71-3.28,5,5,0,0,1,2-2.18,6.18,6.18,0,0,1,3.13-.76,7.51,7.51,0,0,1,3.35.7l-.6,1.21A6.52,6.52,0,0,0,926.39,485.25Z"/>
        <path class="cls-19" d="M934,491.25v5h-1.42V484.16H936a5.3,5.3,0,0,1,3.32.86,3.11,3.11,0,0,1,1.07,2.57,3.22,3.22,0,0,1-2.45,3.25l3.31,5.45h-1.68l-2.95-5Zm0-1.21H936a3.34,3.34,0,0,0,2.2-.6,2.19,2.19,0,0,0,.7-1.78,2,2,0,0,0-.71-1.73,3.92,3.92,0,0,0-2.29-.53H934Z"/>
        <path class="cls-19" d="M953.05,484.16V492a4.26,4.26,0,0,1-1.26,3.26,4.82,4.82,0,0,1-3.45,1.19,4.63,4.63,0,0,1-3.41-1.2,4.41,4.41,0,0,1-1.2-3.28v-7.82h1.42v7.92a3.09,3.09,0,0,0,.83,2.33,3.37,3.37,0,0,0,2.45.81,3.21,3.21,0,0,0,2.37-.82,3.1,3.1,0,0,0,.84-2.34v-7.9Z"/>
        <path class="cls-19" d="M964.34,496.29H956v-1.1l6.46-9.76h-6.26v-1.27h8v1.11L957.69,495h6.65Z"/>
        <path class="cls-19" d="M968.62,494.32l.13.19c-.15.55-.36,1.19-.63,1.93s-.55,1.41-.85,2h-1c.15-.57.32-1.28.5-2.13s.3-1.52.38-2Zm-1.69-6.23c0-.75.33-1.12,1-1.12s1,.37,1,1.12a1.14,1.14,0,0,1-.28.83,1,1,0,0,1-.75.29.91.91,0,0,1-.73-.29A1.23,1.23,0,0,1,966.93,488.09Z"/>
        <path class="cls-19" d="M977.72,496.29V484.16h1.41v12.13Z"/>
        <path class="cls-19" d="M992.67,496.29h-1.61l-6.66-10.18h-.07c.09,1.2.14,2.29.14,3.29v6.89h-1.31V484.16h1.6l6.64,10.14h.07c0-.15,0-.63-.08-1.44s0-1.39,0-1.74v-7h1.32Z"/>
        <path class="cls-19" d="M1000.45,496.29H999V485.42h-3.86v-1.26h9.13v1.26h-3.86Z"/>
        <path class="cls-19" d="M1013.62,496.29h-6.79V484.16h6.79v1.26h-5.38v3.9h5v1.25h-5V495h5.38Z"/>
        <path class="cls-19" d="M1017,496.29V484.16h1.42V495h5.37v1.28Z"/>
      </g>
      <g class="cls-18">
        <text class="cls-22" transform="translate(932.61 722.86)" style="white-space: pre;">RADTEC</text>
      </g>
      <g class="cls-18">
        <path class="cls-19" d="M608.05,707.45v5h-1.42V700.36H610a5.25,5.25,0,0,1,3.31.86,3.07,3.07,0,0,1,1.08,2.57,3.23,3.23,0,0,1-2.45,3.25l3.3,5.45h-1.67l-2.95-5Zm0-1.22H610a3.34,3.34,0,0,0,2.2-.59,2.19,2.19,0,0,0,.7-1.78,2,2,0,0,0-.71-1.73,3.85,3.85,0,0,0-2.29-.53h-1.84Z"/>
        <path class="cls-19" d="M624.65,712.49h-6.79V700.36h6.79v1.25h-5.37v3.91h5.05v1.25h-5.05v4.46h5.37Z"/>
        <path class="cls-19" d="M638.61,706.41a7.39,7.39,0,0,1-.94,3.87,4.69,4.69,0,0,1-2.66,2.09l2.9,3h-2.06l-2.37-2.74-.46,0a5.3,5.3,0,0,1-4.16-1.64,6.76,6.76,0,0,1-1.46-4.63,6.63,6.63,0,0,1,1.47-4.59,5.29,5.29,0,0,1,4.16-1.63,5.18,5.18,0,0,1,4.1,1.66A6.62,6.62,0,0,1,638.61,706.41Zm-9.71,0a5.71,5.71,0,0,0,1.06,3.74,3.73,3.73,0,0,0,3.06,1.27,3.67,3.67,0,0,0,3.05-1.27,7.22,7.22,0,0,0,0-7.45,3.69,3.69,0,0,0-3.05-1.27A3.77,3.77,0,0,0,630,702.7,5.66,5.66,0,0,0,628.9,706.41Z"/>
        <path class="cls-19" d="M651.2,700.36v7.85a4.29,4.29,0,0,1-1.25,3.26,4.86,4.86,0,0,1-3.46,1.19,4.63,4.63,0,0,1-3.41-1.2,4.43,4.43,0,0,1-1.2-3.28v-7.82h1.42v7.92a3.1,3.1,0,0,0,.83,2.33,3.38,3.38,0,0,0,2.45.81,3.21,3.21,0,0,0,2.37-.82,3.1,3.1,0,0,0,.84-2.34v-7.9Z"/>
        <path class="cls-19" d="M655.11,712.49V700.36h1.42v12.13Z"/>
        <path class="cls-19" d="M667.42,709.26a3,3,0,0,1-1.16,2.5,5.06,5.06,0,0,1-3.17.9,8,8,0,0,1-3.33-.56v-1.36a8.63,8.63,0,0,0,1.63.5,8.74,8.74,0,0,0,1.75.18,3.48,3.48,0,0,0,2.13-.54,1.74,1.74,0,0,0,.72-1.49,1.89,1.89,0,0,0-.25-1,2.44,2.44,0,0,0-.85-.74,12,12,0,0,0-1.81-.77,5.71,5.71,0,0,1-2.43-1.44,3.12,3.12,0,0,1-.73-2.16A2.66,2.66,0,0,1,661,701a4.34,4.34,0,0,1,2.8-.83,8.33,8.33,0,0,1,3.34.66l-.45,1.23a7.55,7.55,0,0,0-2.93-.63,2.87,2.87,0,0,0-1.76.48,1.59,1.59,0,0,0-.63,1.33,2.13,2.13,0,0,0,.23,1,2.28,2.28,0,0,0,.79.74,10.21,10.21,0,0,0,1.7.74,6.69,6.69,0,0,1,2.63,1.46A2.85,2.85,0,0,1,667.42,709.26Z"/>
        <path class="cls-19" d="M670.6,712.49V700.36H672v12.13Z"/>
        <path class="cls-19" d="M679.79,712.49h-1.42V701.61h-3.86v-1.25h9.13v1.25h-3.85Z"/>
        <path class="cls-19" d="M696.73,706.41a6.64,6.64,0,0,1-1.48,4.58,5.2,5.2,0,0,1-4.11,1.67A5.28,5.28,0,0,1,687,711a8,8,0,0,1,0-9.22,5.32,5.32,0,0,1,4.17-1.63,5.18,5.18,0,0,1,4.1,1.66A6.67,6.67,0,0,1,696.73,706.41Zm-9.7,0a5.77,5.77,0,0,0,1.05,3.74,4.32,4.32,0,0,0,6.12,0,5.81,5.81,0,0,0,1-3.74,5.74,5.74,0,0,0-1-3.71,3.67,3.67,0,0,0-3-1.27,3.79,3.79,0,0,0-3.08,1.27A5.72,5.72,0,0,0,687,706.41Z"/>
        <path class="cls-19" d="M600.73,733.58h-1.41V722.7h-3.86v-1.25h9.13v1.25h-3.86Z"/>
        <path class="cls-19" d="M613.9,733.58h-6.79V721.45h6.79v1.25h-5.38v3.91h5.05v1.25h-5.05v4.46h5.38Z"/>
        <path class="cls-19" d="M622.49,722.54a4,4,0,0,0-3.17,1.33,5.37,5.37,0,0,0-1.16,3.64,5.49,5.49,0,0,0,1.12,3.68,4,4,0,0,0,3.2,1.3,11.12,11.12,0,0,0,2.91-.45v1.23a8.92,8.92,0,0,1-3.13.48,5.3,5.3,0,0,1-4.15-1.63,6.64,6.64,0,0,1-1.46-4.62,7.28,7.28,0,0,1,.7-3.29,5.07,5.07,0,0,1,2-2.17,6.18,6.18,0,0,1,3.13-.76,7.62,7.62,0,0,1,3.35.69l-.6,1.21A6.47,6.47,0,0,0,622.49,722.54Z"/>
        <path class="cls-19" d="M638.24,733.58h-1.62L630,723.4h-.07c.09,1.19.13,2.29.13,3.29v6.89h-1.3V721.45h1.6L637,731.59H637c0-.15,0-.63-.07-1.44s-.05-1.39,0-1.74v-7h1.32Z"/>
        <path class="cls-19" d="M652.85,727.5a6.69,6.69,0,0,1-1.48,4.58,5.23,5.23,0,0,1-4.12,1.67,5.29,5.29,0,0,1-4.15-1.64,6.76,6.76,0,0,1-1.46-4.63,6.63,6.63,0,0,1,1.47-4.59,5.28,5.28,0,0,1,4.16-1.63,5.18,5.18,0,0,1,4.1,1.66A6.67,6.67,0,0,1,652.85,727.5Zm-9.71,0a5.77,5.77,0,0,0,1.05,3.74,3.79,3.79,0,0,0,3.06,1.27,3.71,3.71,0,0,0,3.06-1.27,7.22,7.22,0,0,0,0-7.45,3.69,3.69,0,0,0-3.05-1.27,3.8,3.8,0,0,0-3.08,1.27A5.72,5.72,0,0,0,643.14,727.5Z"/>
        <path class="cls-19" d="M656.24,733.58V721.45h1.42V732.3H663v1.28Z"/>
        <path class="cls-19" d="M676.36,727.5a6.69,6.69,0,0,1-1.48,4.58,5.23,5.23,0,0,1-4.12,1.67,5.29,5.29,0,0,1-4.15-1.64,6.76,6.76,0,0,1-1.46-4.63,6.63,6.63,0,0,1,1.47-4.59,5.28,5.28,0,0,1,4.16-1.63,5.18,5.18,0,0,1,4.1,1.66A6.67,6.67,0,0,1,676.36,727.5Zm-9.71,0a5.77,5.77,0,0,0,1.05,3.74,3.79,3.79,0,0,0,3.06,1.27,3.71,3.71,0,0,0,3.06-1.27,7.22,7.22,0,0,0,0-7.45,3.69,3.69,0,0,0-3.05-1.27,3.8,3.8,0,0,0-3.08,1.27A5.72,5.72,0,0,0,666.65,727.5Z"/>
        <path class="cls-19" d="M685.11,727.22h4.14v5.9a13.31,13.31,0,0,1-2,.47,15.74,15.74,0,0,1-2.32.16,5.65,5.65,0,0,1-4.31-1.64,6.46,6.46,0,0,1-1.54-4.6,6.88,6.88,0,0,1,.76-3.31,5.12,5.12,0,0,1,2.2-2.17,7.12,7.12,0,0,1,3.36-.75,9.11,9.11,0,0,1,3.63.71l-.55,1.24a8.23,8.23,0,0,0-3.18-.69,4.54,4.54,0,0,0-3.47,1.32,5.1,5.1,0,0,0-1.25,3.65,5.24,5.24,0,0,0,1.2,3.73,4.66,4.66,0,0,0,3.54,1.27,10.78,10.78,0,0,0,2.48-.29v-3.73h-2.73Z"/>
        <path class="cls-19" d="M692.86,733.58V721.45h1.42v12.13Z"/>
        <path class="cls-19" d="M706,733.58l-1.52-3.86h-4.88l-1.5,3.86h-1.44l4.82-12.18h1.19l4.79,12.18Zm-2-5.13-1.42-3.76c-.18-.47-.37-1.05-.57-1.75a14.41,14.41,0,0,1-.52,1.75l-1.43,3.76Z"/>
      </g>
      <g class="cls-18">
        <path class="cls-19" d="M509.68,570.94a3,3,0,0,1-1.16,2.5,5.14,5.14,0,0,1-3.17.89,8,8,0,0,1-3.33-.55v-1.36a8.63,8.63,0,0,0,1.63.49,8.08,8.08,0,0,0,1.75.19,3.5,3.5,0,0,0,2.13-.54,1.75,1.75,0,0,0,.72-1.49,2,2,0,0,0-.25-1,2.34,2.34,0,0,0-.85-.74,11.21,11.21,0,0,0-1.82-.77,5.83,5.83,0,0,1-2.42-1.44,3.13,3.13,0,0,1-.73-2.17,2.71,2.71,0,0,1,1.05-2.23,4.44,4.44,0,0,1,2.8-.83,8.14,8.14,0,0,1,3.34.67l-.44,1.22a7.55,7.55,0,0,0-2.93-.63,2.85,2.85,0,0,0-1.76.49,1.57,1.57,0,0,0-.63,1.33,2.07,2.07,0,0,0,.23,1,2.19,2.19,0,0,0,.79.74,9.28,9.28,0,0,0,1.69.74,6.93,6.93,0,0,1,2.64,1.46A2.88,2.88,0,0,1,509.68,570.94Z"/>
        <path class="cls-19" d="M512.86,574.17V562h1.41v12.13Z"/>
        <path class="cls-19" d="M523.69,574.17l-4.14-10.76h-.06c.08.86.11,1.87.11,3v7.72h-1.3V562h2.13l3.86,10h.06l3.89-10h2.12v12.13h-1.42v-7.82c0-.89,0-1.87.12-2.92H529l-4.16,10.74Z"/>
        <path class="cls-19" d="M541.17,574.17h-6.79V562h6.79v1.25H535.8v3.91h5.05v1.24H535.8v4.47h5.37Z"/>
        <path class="cls-19" d="M552.66,574.17h-1.61l-3.27-5.34-3.33,5.34H543l4-6.34L543.22,562h1.57l3,4.8,3.05-4.8h1.51l-3.77,5.74Z"/>
        <path class="cls-19" d="M567.07,570.94a3,3,0,0,1-1.16,2.5,5.12,5.12,0,0,1-3.17.89,8,8,0,0,1-3.33-.55v-1.36a8.63,8.63,0,0,0,1.63.49,8.08,8.08,0,0,0,1.75.19,3.53,3.53,0,0,0,2.14-.54,1.77,1.77,0,0,0,.71-1.49,1.89,1.89,0,0,0-.25-1,2.34,2.34,0,0,0-.85-.74,11,11,0,0,0-1.81-.77,5.81,5.81,0,0,1-2.43-1.44,3.13,3.13,0,0,1-.73-2.17,2.69,2.69,0,0,1,1.06-2.23,4.4,4.4,0,0,1,2.8-.83,8.17,8.17,0,0,1,3.34.67l-.45,1.22a7.55,7.55,0,0,0-2.93-.63,2.87,2.87,0,0,0-1.76.49,1.57,1.57,0,0,0-.63,1.33,2.07,2.07,0,0,0,.23,1,2.19,2.19,0,0,0,.79.74,9.43,9.43,0,0,0,1.7.74,7,7,0,0,1,2.63,1.46A2.88,2.88,0,0,1,567.07,570.94Z"/>
        <path class="cls-19" d="M570.25,574.17V562h1.41v12.13Z"/>
        <path class="cls-19" d="M582.56,570.94a3,3,0,0,1-1.16,2.5,5.14,5.14,0,0,1-3.17.89,7.93,7.93,0,0,1-3.33-.55v-1.36a8.63,8.63,0,0,0,1.63.49,8.08,8.08,0,0,0,1.75.19,3.52,3.52,0,0,0,2.13-.54,1.75,1.75,0,0,0,.72-1.49,1.89,1.89,0,0,0-.26-1,2.26,2.26,0,0,0-.85-.74,10.65,10.65,0,0,0-1.81-.77,5.94,5.94,0,0,1-2.43-1.44,3.18,3.18,0,0,1-.73-2.17,2.72,2.72,0,0,1,1.06-2.23,4.44,4.44,0,0,1,2.8-.83,8.14,8.14,0,0,1,3.34.67l-.44,1.22a7.55,7.55,0,0,0-2.93-.63,2.85,2.85,0,0,0-1.76.49,1.57,1.57,0,0,0-.63,1.33,2.07,2.07,0,0,0,.23,1,2.19,2.19,0,0,0,.79.74,9.28,9.28,0,0,0,1.69.74,6.93,6.93,0,0,1,2.64,1.46A2.88,2.88,0,0,1,582.56,570.94Z"/>
        <path class="cls-19" d="M589.48,574.17h-1.41V563.29h-3.86V562h9.13v1.25h-3.86Z"/>
        <path class="cls-19" d="M602.65,574.17h-6.79V562h6.79v1.25h-5.38v3.91h5.05v1.24h-5.05v4.47h5.38Z"/>
        <path class="cls-19" d="M611.42,574.17l-4.13-10.76h-.07c.08.86.12,1.87.12,3v7.72H606V562h2.13L612,572h.07L616,562h2.11v12.13h-1.41v-7.82c0-.89,0-1.87.11-2.92h-.06l-4.17,10.74Z"/>
        <path class="cls-19" d="M629.77,574.17l-1.51-3.86h-4.88l-1.5,3.86h-1.44L625.26,562h1.19l4.79,12.18ZM627.82,569l-1.42-3.76c-.18-.47-.37-1.06-.57-1.75a14.41,14.41,0,0,1-.52,1.75L623.88,569Z"/>
        <path class="cls-19" d="M640.47,570.94a3,3,0,0,1-1.17,2.5,5.09,5.09,0,0,1-3.16.89,7.93,7.93,0,0,1-3.33-.55v-1.36a8.63,8.63,0,0,0,1.63.49,8.08,8.08,0,0,0,1.75.19,3.52,3.52,0,0,0,2.13-.54,1.75,1.75,0,0,0,.72-1.49,1.89,1.89,0,0,0-.26-1,2.26,2.26,0,0,0-.85-.74,10.65,10.65,0,0,0-1.81-.77,5.94,5.94,0,0,1-2.43-1.44,3.18,3.18,0,0,1-.73-2.17,2.72,2.72,0,0,1,1.06-2.23,4.44,4.44,0,0,1,2.8-.83,8.14,8.14,0,0,1,3.34.67l-.44,1.22a7.55,7.55,0,0,0-2.93-.63,2.85,2.85,0,0,0-1.76.49,1.57,1.57,0,0,0-.63,1.33,2,2,0,0,0,.23,1,2.19,2.19,0,0,0,.79.74,9.28,9.28,0,0,0,1.69.74,6.93,6.93,0,0,1,2.64,1.46A2.88,2.88,0,0,1,640.47,570.94Z"/>
        <path class="cls-19" d="M525.22,589.08a6.12,6.12,0,0,1-1.64,4.59,6.48,6.48,0,0,1-4.71,1.59h-3.38V583.13h3.74a6,6,0,0,1,4.41,1.57A5.89,5.89,0,0,1,525.22,589.08Zm-1.5,0a4.23,4.23,0,0,0-4.75-4.77h-2.06V594h1.72a5.29,5.29,0,0,0,3.81-1.24A4.91,4.91,0,0,0,523.72,589.12Z"/>
        <path class="cls-19" d="M535.4,595.26h-6.79V583.13h6.79v1.25H530v3.91h5.05v1.24H530V594h5.37Z"/>
        <path class="cls-19" d="M543.9,595.26V583.13h1.42v12.13Z"/>
        <path class="cls-19" d="M558.86,595.26h-1.62l-6.66-10.18h-.06c.08,1.19.13,2.29.13,3.28v6.9h-1.31V583.13h1.6l6.64,10.13h.07c0-.14,0-.62-.08-1.43s-.05-1.39,0-1.74v-7h1.33Z"/>
        <path class="cls-19" d="M569.76,592a3,3,0,0,1-1.17,2.5,5.09,5.09,0,0,1-3.16.89,7.93,7.93,0,0,1-3.33-.55v-1.36a8.63,8.63,0,0,0,1.63.49,8.76,8.76,0,0,0,1.75.19,3.52,3.52,0,0,0,2.13-.54,1.75,1.75,0,0,0,.72-1.49,1.89,1.89,0,0,0-.26-1,2.26,2.26,0,0,0-.85-.74,10.65,10.65,0,0,0-1.81-.77,5.94,5.94,0,0,1-2.43-1.44,3.18,3.18,0,0,1-.73-2.17,2.72,2.72,0,0,1,1.06-2.23,4.44,4.44,0,0,1,2.8-.83,8.14,8.14,0,0,1,3.34.67l-.44,1.22a7.55,7.55,0,0,0-2.93-.63,2.79,2.79,0,0,0-1.76.49,1.57,1.57,0,0,0-.63,1.33,2.07,2.07,0,0,0,.23,1,2.19,2.19,0,0,0,.79.74,9.28,9.28,0,0,0,1.69.74A6.93,6.93,0,0,1,569,590,2.88,2.88,0,0,1,569.76,592Z"/>
        <path class="cls-19" d="M580.66,586.66a3.38,3.38,0,0,1-1.26,2.83,5.71,5.71,0,0,1-3.62,1h-1.43v4.77h-1.42V583.13h3.16Q580.67,583.13,580.66,586.66Zm-6.31,2.61h1.28a4.78,4.78,0,0,0,2.72-.6,2.22,2.22,0,0,0,.84-1.94,2.08,2.08,0,0,0-.79-1.79,4.11,4.11,0,0,0-2.47-.59h-1.58Z"/>
        <path class="cls-19" d="M590.68,595.26h-6.79V583.13h6.79v1.25h-5.37v3.91h5.05v1.24h-5.05V594h5.37Z"/>
        <path class="cls-19" d="M599.28,584.21a4,4,0,0,0-3.17,1.34,5.3,5.3,0,0,0-1.16,3.64,5.43,5.43,0,0,0,1.12,3.68,4,4,0,0,0,3.19,1.3,10.76,10.76,0,0,0,2.91-.46V595a9.17,9.17,0,0,1-3.13.47,5.31,5.31,0,0,1-4.15-1.62,6.73,6.73,0,0,1-1.46-4.63,7.26,7.26,0,0,1,.7-3.28,5,5,0,0,1,2-2.17,6.12,6.12,0,0,1,3.12-.77,7.62,7.62,0,0,1,3.35.7l-.6,1.21A6.48,6.48,0,0,0,599.28,584.21Zm1,13.44a1.44,1.44,0,0,1-.63,1.25,3.38,3.38,0,0,1-1.89.44,4,4,0,0,1-.8-.08v-.88a4.47,4.47,0,0,0,.86.07,2.34,2.34,0,0,0,1-.17.61.61,0,0,0,.34-.61.67.67,0,0,0-.33-.58,3.64,3.64,0,0,0-1.24-.36l.73-1.47h.92l-.46,1Q600.3,596.54,600.3,597.65Z"/>
        <path class="cls-19" d="M613.17,595.26l-1.52-3.86h-4.88l-1.5,3.86h-1.44l4.82-12.18h1.19l4.79,12.18Zm-2.74-13.12a1.73,1.73,0,0,1-.7-.15l-.67-.34c-.22-.13-.43-.24-.63-.34a1.22,1.22,0,0,0-.59-.16.8.8,0,0,0-.63.25,1.86,1.86,0,0,0-.33.76h-.81a2.94,2.94,0,0,1,.58-1.58,1.58,1.58,0,0,1,1.24-.56,1.88,1.88,0,0,1,.74.15,7.37,7.37,0,0,1,.69.34l.62.34a1.28,1.28,0,0,0,.57.15.76.76,0,0,0,.61-.24,1.94,1.94,0,0,0,.32-.76h.83a3,3,0,0,1-.58,1.57A1.57,1.57,0,0,1,610.43,582.14Zm.78,8-1.42-3.76c-.18-.47-.37-1.06-.57-1.75a14.41,14.41,0,0,1-.52,1.75l-1.43,3.76Z"/>
        <path class="cls-19" d="M627.56,589.17a6.62,6.62,0,0,1-1.48,4.58,5.17,5.17,0,0,1-4.11,1.67,5.24,5.24,0,0,1-4.15-1.64,6.67,6.67,0,0,1-1.46-4.62,6.59,6.59,0,0,1,1.46-4.59,5.32,5.32,0,0,1,4.17-1.63,5.2,5.2,0,0,1,4.1,1.66A6.64,6.64,0,0,1,627.56,589.17Zm-9.7,0a5.75,5.75,0,0,0,1,3.74,4.31,4.31,0,0,0,6.12,0,5.84,5.84,0,0,0,1-3.75,5.76,5.76,0,0,0-1-3.71,3.69,3.69,0,0,0-3-1.26,3.76,3.76,0,0,0-3.08,1.27A5.69,5.69,0,0,0,617.86,589.17Z"/>
        <path class="cls-19" d="M547.9,616.34l-4.14-10.75h-.06c.08.86.11,1.87.11,3v7.71h-1.3V604.22h2.13l3.86,10h.06l3.89-10h2.12v12.12h-1.42v-7.81c0-.9,0-1.87.12-2.92h-.07L549,616.34Z"/>
        <path class="cls-19" d="M569.17,610.26a6.69,6.69,0,0,1-1.48,4.58,5.23,5.23,0,0,1-4.11,1.67,5.3,5.3,0,0,1-4.16-1.64,6.72,6.72,0,0,1-1.46-4.62,6.59,6.59,0,0,1,1.47-4.59,5.28,5.28,0,0,1,4.16-1.63,5.21,5.21,0,0,1,4.1,1.65A6.69,6.69,0,0,1,569.17,610.26Zm-9.71,0a5.75,5.75,0,0,0,1,3.74,3.77,3.77,0,0,0,3.07,1.27,3.69,3.69,0,0,0,3-1.27,7.22,7.22,0,0,0,0-7.45,3.71,3.71,0,0,0-3-1.26,3.77,3.77,0,0,0-3.08,1.27A5.69,5.69,0,0,0,559.46,610.26Zm2.95-7.22a14.67,14.67,0,0,0,.86-1.25c.31-.48.55-.91.73-1.26h1.68v.17a11.35,11.35,0,0,1-1.09,1.33,12.42,12.42,0,0,1-1.26,1.22h-.92Z"/>
        <path class="cls-19" d="M579.52,604.22h1.53l-4.39,12.12h-1.4l-4.37-12.12h1.5l2.8,7.84a23.2,23.2,0,0,1,.77,2.63,23.12,23.12,0,0,1,.78-2.68Z"/>
        <path class="cls-19" d="M590.19,616.34H583.4V604.22h6.79v1.25h-5.37v3.91h5v1.24h-5v4.46h5.37Z"/>
        <path class="cls-19" d="M593.58,616.34V604.22H595v12.12Z"/>
        <path class="cls-19" d="M605.89,613.12a2.94,2.94,0,0,1-1.17,2.49,5,5,0,0,1-3.16.9,7.83,7.83,0,0,1-3.34-.56v-1.36a9,9,0,0,0,3.39.68,3.52,3.52,0,0,0,2.13-.53,1.75,1.75,0,0,0,.72-1.49,1.89,1.89,0,0,0-.26-1,2.26,2.26,0,0,0-.85-.74,11.39,11.39,0,0,0-1.81-.78,5.83,5.83,0,0,1-2.43-1.43,3.2,3.2,0,0,1-.73-2.17,2.7,2.7,0,0,1,1.06-2.23,4.44,4.44,0,0,1,2.8-.83,8.17,8.17,0,0,1,3.34.67l-.44,1.22a7.59,7.59,0,0,0-2.93-.63,2.85,2.85,0,0,0-1.76.48,1.61,1.61,0,0,0-.63,1.34,2,2,0,0,0,.23,1,2.11,2.11,0,0,0,.79.74,9.28,9.28,0,0,0,1.69.74,6.8,6.8,0,0,1,2.64,1.46A2.88,2.88,0,0,1,605.89,613.12Z"/>
      </g>
      <g class="cls-18">
        <text class="cls-22" transform="translate(983.17 589.88)" style="white-space: pre;">TALKTELECOM</text>
      </g>
      <g class="cls-18">
        <text class="cls-22" transform="translate(1073.86 722.86)" style="white-space: pre;">TRUE WORK</text>
      </g>
      <g class="cls-18">
        <path class="cls-23" d="M1224.91,980.46l-4.13-10.75h-.06c.07.85.11,1.86.11,3v7.71h-1.31V968.33h2.14l3.85,10h.07l3.89-10h2.12v12.13h-1.42v-7.81c0-.9,0-1.87.12-2.92h-.07l-4.16,10.73Z"/>
        <path class="cls-23" d="M1235.61,980.46V968.33H1237v12.13Z"/>
        <path class="cls-23" d="M1250.57,980.46H1249l-6.66-10.18h-.06c.08,1.2.13,2.29.13,3.29v6.89h-1.31V968.33h1.6l6.64,10.14h.07c0-.15,0-.63-.08-1.44s0-1.39,0-1.74v-7h1.33Z"/>
        <path class="cls-23" d="M1254.6,980.46V968.33H1256v12.13Z"/>
        <path class="cls-23" d="M1266.91,977.23a3,3,0,0,1-1.17,2.5,5,5,0,0,1-3.16.9,7.9,7.9,0,0,1-3.33-.56v-1.36a8.63,8.63,0,0,0,1.63.5,8.74,8.74,0,0,0,1.75.18,3.6,3.6,0,0,0,2.13-.53,1.76,1.76,0,0,0,.72-1.49,1.93,1.93,0,0,0-.26-1,2.45,2.45,0,0,0-.85-.74,11.54,11.54,0,0,0-1.81-.77,5.73,5.73,0,0,1-2.43-1.44,3.17,3.17,0,0,1-.73-2.16,2.7,2.7,0,0,1,1.06-2.23,4.44,4.44,0,0,1,2.8-.83,8.3,8.3,0,0,1,3.34.66l-.44,1.23a7.55,7.55,0,0,0-2.93-.63,2.85,2.85,0,0,0-1.76.48,1.59,1.59,0,0,0-.63,1.34,2,2,0,0,0,.23,1,2.28,2.28,0,0,0,.79.74,10,10,0,0,0,1.69.74,6.67,6.67,0,0,1,2.64,1.46A2.85,2.85,0,0,1,1266.91,977.23Z"/>
        <path class="cls-23" d="M1273.83,980.46h-1.41V969.58h-3.86v-1.25h9.13v1.25h-3.86Z"/>
        <path class="cls-23" d="M1287,980.46h-6.79V968.33H1287v1.25h-5.38v3.91h5.05v1.25h-5.05v4.46H1287Zm-4.67-13.31a14.36,14.36,0,0,0,.86-1.24c.31-.49.55-.91.73-1.27h1.69v.18a12.84,12.84,0,0,1-1.1,1.32,12.42,12.42,0,0,1-1.25,1.22h-.93Z"/>
        <path class="cls-23" d="M1291.79,975.42v5h-1.41V968.33h3.34a5.26,5.26,0,0,1,3.31.86,3.09,3.09,0,0,1,1.07,2.57,3.21,3.21,0,0,1-2.45,3.25l3.31,5.45h-1.67l-3-5Zm0-1.21h2a3.34,3.34,0,0,0,2.2-.6,2.22,2.22,0,0,0,.7-1.78,2,2,0,0,0-.72-1.73,3.87,3.87,0,0,0-2.28-.53h-1.85Z"/>
        <path class="cls-23" d="M1301.61,980.46V968.33H1303v12.13Z"/>
        <path class="cls-23" d="M1317.62,974.38a6.64,6.64,0,0,1-1.48,4.58,5.2,5.2,0,0,1-4.11,1.67,5.28,5.28,0,0,1-4.15-1.64,6.7,6.7,0,0,1-1.46-4.63,6.62,6.62,0,0,1,1.46-4.59,5.35,5.35,0,0,1,4.17-1.63,5.23,5.23,0,0,1,4.1,1.66A6.67,6.67,0,0,1,1317.62,974.38Zm-9.7,0a5.77,5.77,0,0,0,1,3.74,4.32,4.32,0,0,0,6.12,0,7.25,7.25,0,0,0,0-7.45,3.67,3.67,0,0,0-3-1.27,3.77,3.77,0,0,0-3.08,1.28A5.69,5.69,0,0,0,1307.92,974.38Z"/>
        <path class="cls-23" d="M1236.17,995.37a6.11,6.11,0,0,1-1.63,4.59,6.51,6.51,0,0,1-4.72,1.59h-3.37V989.42h3.73a6,6,0,0,1,4.42,1.57A5.92,5.92,0,0,1,1236.17,995.37Zm-1.5,0a4.88,4.88,0,0,0-1.19-3.58,4.81,4.81,0,0,0-3.55-1.2h-2.06v9.69h1.72a5.25,5.25,0,0,0,3.81-1.24A4.9,4.9,0,0,0,1234.67,995.42Z"/>
        <path class="cls-23" d="M1247.23,1001.55l-1.52-3.86h-4.88l-1.5,3.86h-1.43l4.81-12.18h1.19l4.8,12.18Zm-2-5.13-1.42-3.75c-.18-.48-.37-1.06-.56-1.75a15.15,15.15,0,0,1-.53,1.75l-1.43,3.75Z"/>
        <path class="cls-23" d="M1263,998.32a3,3,0,0,1-1.17,2.5,5,5,0,0,1-3.16.9,7.9,7.9,0,0,1-3.33-.56V999.8a8.63,8.63,0,0,0,1.63.5,8.74,8.74,0,0,0,1.75.18,3.6,3.6,0,0,0,2.13-.53,1.76,1.76,0,0,0,.72-1.49,1.93,1.93,0,0,0-.26-1,2.45,2.45,0,0,0-.85-.74,11.54,11.54,0,0,0-1.81-.77,5.73,5.73,0,0,1-2.43-1.44,3.17,3.17,0,0,1-.73-2.16,2.69,2.69,0,0,1,1.06-2.23,4.44,4.44,0,0,1,2.8-.83,8.3,8.3,0,0,1,3.34.66l-.44,1.23a7.55,7.55,0,0,0-2.93-.63,2.85,2.85,0,0,0-1.76.48,1.59,1.59,0,0,0-.63,1.34,2.09,2.09,0,0,0,.23,1,2.28,2.28,0,0,0,.79.74,10,10,0,0,0,1.69.74,6.67,6.67,0,0,1,2.64,1.46A2.85,2.85,0,0,1,1263,998.32Z"/>
        <path class="cls-23" d="M1273.87,1001.55l-1.52-3.86h-4.88l-1.5,3.86h-1.43l4.82-12.18h1.19l4.79,12.18Zm-2-5.13-1.41-3.75a17.26,17.26,0,0,1-.57-1.75,17.18,17.18,0,0,1-.52,1.75l-1.44,3.75Z"/>
        <path class="cls-23" d="M1286.89,989.42v7.85a4.26,4.26,0,0,1-1.26,3.26,4.82,4.82,0,0,1-3.45,1.19,4.63,4.63,0,0,1-3.41-1.2,4.41,4.41,0,0,1-1.2-3.28v-7.82H1279v7.92a3.09,3.09,0,0,0,.83,2.33,3.37,3.37,0,0,0,2.45.81,3.21,3.21,0,0,0,2.37-.82,3.1,3.1,0,0,0,.84-2.34v-7.9Zm-5.87-1.18a14.36,14.36,0,0,0,.86-1.24c.31-.49.55-.91.73-1.27h1.68v.18a15.58,15.58,0,0,1-2.35,2.54H1281Z"/>
        <path class="cls-23" d="M1300.52,995.37a6.08,6.08,0,0,1-1.64,4.59,6.48,6.48,0,0,1-4.71,1.59h-3.37V989.42h3.73A6,6,0,0,1,1299,991,5.92,5.92,0,0,1,1300.52,995.37Zm-1.5,0a4.93,4.93,0,0,0-1.19-3.58,4.82,4.82,0,0,0-3.56-1.2h-2v9.69h1.72a5.25,5.25,0,0,0,3.81-1.24A4.9,4.9,0,0,0,1299,995.42Z"/>
        <path class="cls-23" d="M1310.71,1001.55h-6.79V989.42h6.79v1.25h-5.37v3.91h5.05v1.25h-5.05v4.46h5.37Z"/>
      </g>
      <g class="cls-18">
        <text class="cls-22" transform="translate(1196.36 388.52)" style="white-space: pre;">UFAL</text>
      </g>
      <g class="cls-18">
        <text class="cls-22" transform="translate(1332.87 387.98)" style="white-space: pre;">VIASOLUTI</text>
      </g>
      <g class="cls-18">
        <text class="cls-24" transform="translate(1038.02 280.86)" style="white-space: pre;">EMBRATEL</text>
      </g>
      <g class="cls-18">
        <path class="cls-23" d="M975.13,1055,971,1044.27h-.06q.12,1.27.12,3V1055h-1.31v-12.13h2.13l3.86,10h.06l3.89-10h2.12V1055h-1.42v-7.82c0-.89,0-1.87.12-2.92h-.07L976.27,1055Z"/>
        <path class="cls-23" d="M985.82,1055v-12.13h1.42V1055Z"/>
        <path class="cls-23" d="M1000.78,1055h-1.62l-6.65-10.18h-.07c.09,1.19.13,2.29.13,3.28v6.9h-1.31v-12.13h1.6L999.5,1053h.07c0-.15,0-.63-.07-1.44s-.06-1.39,0-1.74v-7h1.33Z"/>
        <path class="cls-23" d="M1004.81,1055v-12.13h1.42V1055Z"/>
        <path class="cls-23" d="M1017.12,1051.79a3,3,0,0,1-1.16,2.5,5.08,5.08,0,0,1-3.17.89,8,8,0,0,1-3.33-.55v-1.36a9.43,9.43,0,0,0,1.63.5,8.74,8.74,0,0,0,1.75.18,3.48,3.48,0,0,0,2.13-.54,1.74,1.74,0,0,0,.72-1.49,1.89,1.89,0,0,0-.25-1,2.44,2.44,0,0,0-.85-.74,11,11,0,0,0-1.81-.77,5.71,5.71,0,0,1-2.43-1.44,3.12,3.12,0,0,1-.73-2.16,2.66,2.66,0,0,1,1.06-2.23,4.33,4.33,0,0,1,2.79-.83,8.35,8.35,0,0,1,3.35.66l-.45,1.23a7.55,7.55,0,0,0-2.93-.63,2.87,2.87,0,0,0-1.76.48,1.57,1.57,0,0,0-.63,1.33,2.13,2.13,0,0,0,.23,1,2.26,2.26,0,0,0,.79.73,9.33,9.33,0,0,0,1.7.75,6.69,6.69,0,0,1,2.63,1.46A2.85,2.85,0,0,1,1017.12,1051.79Z"/>
        <path class="cls-23" d="M1024.05,1055h-1.42v-10.88h-3.86v-1.25h9.13v1.25h-3.85Z"/>
        <path class="cls-23" d="M1037.21,1055h-6.79v-12.13h6.79v1.25h-5.37v3.91h5.05v1.24h-5.05v4.47h5.37Zm-4.67-13.31c.27-.34.56-.76.87-1.24s.55-.91.73-1.27h1.68v.17a13.86,13.86,0,0,1-1.09,1.33,13.5,13.5,0,0,1-1.26,1.22h-.93Z"/>
        <path class="cls-23" d="M1042,1050v5h-1.42v-12.13h3.34a5.18,5.18,0,0,1,3.31.86,3.06,3.06,0,0,1,1.08,2.57,3.23,3.23,0,0,1-2.45,3.25l3.3,5.45h-1.67l-3-5Zm0-1.21H1044a3.34,3.34,0,0,0,2.2-.59,2.19,2.19,0,0,0,.7-1.78,2,2,0,0,0-.71-1.73,3.85,3.85,0,0,0-2.29-.53H1042Z"/>
        <path class="cls-23" d="M1051.82,1055v-12.13h1.42V1055Z"/>
        <path class="cls-23" d="M1067.84,1048.94a6.69,6.69,0,0,1-1.48,4.58,5.23,5.23,0,0,1-4.12,1.66,5.29,5.29,0,0,1-4.15-1.63,6.76,6.76,0,0,1-1.46-4.63,6.63,6.63,0,0,1,1.47-4.59,5.28,5.28,0,0,1,4.16-1.63,5.18,5.18,0,0,1,4.1,1.66A6.65,6.65,0,0,1,1067.84,1048.94Zm-9.71,0a5.72,5.72,0,0,0,1,3.73,3.77,3.77,0,0,0,3.06,1.28,3.71,3.71,0,0,0,3.06-1.27,7.22,7.22,0,0,0,0-7.45,3.69,3.69,0,0,0-3-1.27,3.77,3.77,0,0,0-3.08,1.27A5.72,5.72,0,0,0,1058.13,1048.94Z"/>
        <path class="cls-23" d="M1086.07,1048.84a6.08,6.08,0,0,1-1.64,4.59,6.48,6.48,0,0,1-4.71,1.59h-3.37v-12.13h3.73a6,6,0,0,1,4.42,1.57A5.89,5.89,0,0,1,1086.07,1048.84Zm-1.5.05a4.91,4.91,0,0,0-1.19-3.58,4.84,4.84,0,0,0-3.56-1.2h-2.06v9.69h1.73a5.25,5.25,0,0,0,3.81-1.24A4.9,4.9,0,0,0,1084.57,1048.89Z"/>
        <path class="cls-23" d="M1097.13,1055l-1.52-3.86h-4.88l-1.5,3.86h-1.43l4.81-12.18h1.19l4.79,12.18Zm-2-5.13-1.42-3.76c-.18-.47-.37-1.05-.56-1.75a16.67,16.67,0,0,1-.53,1.75l-1.43,3.76Z"/>
        <path class="cls-23" d="M959.44,1076.11V1064h1.42v12.13Z"/>
        <path class="cls-23" d="M974.4,1076.11h-1.62l-6.66-10.18h-.06c.09,1.19.13,2.29.13,3.28v6.9h-1.31V1064h1.6l6.64,10.14h.07c0-.15,0-.63-.08-1.44s-.05-1.39,0-1.74v-7h1.33Z"/>
        <path class="cls-23" d="M979.85,1076.11h-1.42V1064h6.79v1.25h-5.37v4.44h5v1.25h-5Z"/>
        <path class="cls-23" d="M989.33,1071.06v5h-1.41V1064h3.34a5.27,5.27,0,0,1,3.31.85,3.11,3.11,0,0,1,1.07,2.58,3.22,3.22,0,0,1-2.45,3.25l3.31,5.45h-1.67l-3-5Zm0-1.21h1.95a3.34,3.34,0,0,0,2.2-.59,2.22,2.22,0,0,0,.7-1.78,2,2,0,0,0-.72-1.73,3.79,3.79,0,0,0-2.28-.53h-1.85Z"/>
        <path class="cls-23" d="M1006.81,1076.11l-1.52-3.86h-4.88l-1.5,3.86h-1.44l4.82-12.18h1.19l4.79,12.18Zm-2-5.13-1.42-3.76c-.18-.47-.37-1.06-.57-1.75a14.41,14.41,0,0,1-.52,1.75l-1.43,3.76Z"/>
        <path class="cls-23" d="M1017.42,1076.11h-6.79V1064h6.79v1.25h-5.37v3.91h5v1.24h-5v4.47h5.37Z"/>
        <path class="cls-23" d="M1027.68,1072.88a3,3,0,0,1-1.17,2.5,5.06,5.06,0,0,1-3.17.89,8,8,0,0,1-3.33-.55v-1.36a9.43,9.43,0,0,0,1.63.5,8.74,8.74,0,0,0,1.75.18,3.53,3.53,0,0,0,2.14-.54,1.76,1.76,0,0,0,.71-1.49,1.89,1.89,0,0,0-.25-1,2.44,2.44,0,0,0-.85-.74,11,11,0,0,0-1.81-.77,5.81,5.81,0,0,1-2.43-1.44,3.12,3.12,0,0,1-.73-2.16,2.66,2.66,0,0,1,1.06-2.23,4.34,4.34,0,0,1,2.8-.83,8.33,8.33,0,0,1,3.34.66l-.44,1.23a7.63,7.63,0,0,0-2.94-.63,2.87,2.87,0,0,0-1.76.48,1.57,1.57,0,0,0-.63,1.33,2.13,2.13,0,0,0,.23,1,2.26,2.26,0,0,0,.79.73,9.33,9.33,0,0,0,1.7.75,6.69,6.69,0,0,1,2.63,1.46A2.86,2.86,0,0,1,1027.68,1072.88Z"/>
        <path class="cls-23" d="M1034.6,1076.11h-1.42v-10.88h-3.86V1064h9.13v1.25h-3.85Z"/>
        <path class="cls-23" d="M1042.39,1071.06v5H1041V1064h3.34a5.25,5.25,0,0,1,3.31.85,3.08,3.08,0,0,1,1.07,2.58,3.22,3.22,0,0,1-2.45,3.25l3.31,5.45h-1.67l-3-5Zm0-1.21h1.94a3.34,3.34,0,0,0,2.2-.59,2.22,2.22,0,0,0,.7-1.78,2,2,0,0,0-.71-1.73,3.85,3.85,0,0,0-2.29-.53h-1.84Z"/>
        <path class="cls-23" d="M1061.4,1064v7.85a4.26,4.26,0,0,1-1.26,3.26,4.84,4.84,0,0,1-3.46,1.18,4.6,4.6,0,0,1-3.4-1.19,4.44,4.44,0,0,1-1.2-3.29V1064h1.41v7.91a3.12,3.12,0,0,0,.84,2.34,3.36,3.36,0,0,0,2.44.81,3.25,3.25,0,0,0,2.38-.82,3.14,3.14,0,0,0,.83-2.34V1064Z"/>
        <path class="cls-23" d="M1069.05,1076.11h-1.41v-10.88h-3.86V1064h9.13v1.25h-3.86Z"/>
        <path class="cls-23" d="M1084.63,1064v7.85a4.26,4.26,0,0,1-1.26,3.26,4.84,4.84,0,0,1-3.46,1.18,4.59,4.59,0,0,1-3.4-1.19,4.4,4.4,0,0,1-1.21-3.29V1064h1.42v7.91a3.15,3.15,0,0,0,.83,2.34,3.38,3.38,0,0,0,2.45.81,3.25,3.25,0,0,0,2.38-.82,3.14,3.14,0,0,0,.83-2.34V1064Z"/>
        <path class="cls-23" d="M1090,1071.06v5h-1.42V1064h3.34a5.3,5.3,0,0,1,3.32.85,3.11,3.11,0,0,1,1.07,2.58,3.23,3.23,0,0,1-2.45,3.25l3.3,5.45h-1.67l-3-5Zm0-1.21h1.94a3.34,3.34,0,0,0,2.2-.59,2.19,2.19,0,0,0,.7-1.78,2,2,0,0,0-.71-1.73,3.85,3.85,0,0,0-2.29-.53H1090Z"/>
        <path class="cls-23" d="M1107.42,1076.11l-1.52-3.86H1101l-1.5,3.86h-1.43l4.81-12.18h1.19l4.8,12.18Zm-2-5.13-1.41-3.76a16.46,16.46,0,0,1-.57-1.75,14.58,14.58,0,0,1-.53,1.75l-1.43,3.76Z"/>
      </g>
      <g class="cls-18">
        <text class="cls-25" transform="translate(870.81 218.06)" style="white-space: pre;">MITO GAMES</text>
      </g>
      <g class="cls-18">
        <text class="cls-20" transform="translate(820.04 1110.31)" style="white-space: pre;">PETROBRAS</text>
      </g>
      <g class="cls-18">
        <text class="cls-22" transform="translate(744.34 223.82)" style="white-space: pre;">UFOB</text>
      </g>
    </g>
    <g id="Identificação_de_pessoas" data-name="Identificação de pessoas">
      <path id="p_911.289146648868" data-name="p 911.289146648868" class="cls-26" d="M1389.43,846.72a158.28,158.28,0,1,1,158.28-158.28A158.29,158.29,0,0,1,1389.43,846.72Z"/>
    </g>
    <g id="INSS">
      <path id="p_830.4323681117216" data-name="p 830.4323681117216" class="cls-27" d="M1311.24,764.74a76.31,76.31,0,1,1,76.3-76.3A76.31,76.31,0,0,1,1311.24,764.74Z"/>
    </g>
    <g id="Serpro-2" data-name="Serpro">
      <path id="p_909.3813496482926" data-name="p 909.3813496482926" class="cls-27" d="M1467.63,764.74a76.31,76.31,0,1,1,76.3-76.3A76.31,76.31,0,0,1,1467.63,764.74Z"/>
    </g>
    <g class="cls-18">
      <text class="cls-28" transform="translate(1291.88 693.62)" style="white-space: pre;">INSS</text>
    </g>
    <g class="cls-18">
      <text class="cls-28" transform="translate(1433.81 693.62)" style="white-space: pre;">SERPRO</text>
    </g>
    <text class="cls-29" transform="translate(1232.66 158.11)" style="white-space: pre;">ARMAZENAMENTO</text>
    <text class="cls-29" transform="translate(1118.66 1178.58)" style="white-space: pre;">DIGITALIZAÇÃO DE <tspan x="0" y="23.77">SERVIÇOS PÚBLICOS</tspan></text>
    <text class="cls-29" transform="translate(1033.33 97.46)" style="white-space: pre;">FORNECIMENTO DE<tspan x="0" y="23.77">INFORMAÇÕES</tspan></text>
    <path d="M1493.84,1029.3v5.89h-1.65V1021h3.88a6.14,6.14,0,0,1,3.85,1,3.6,3.6,0,0,1,1.24,3,3.76,3.76,0,0,1-2.84,3.79l3.84,6.36h-2l-3.42-5.89Zm0-1.41h2.25a3.94,3.94,0,0,0,2.56-.69,2.57,2.57,0,0,0,.81-2.07,2.39,2.39,0,0,0-.83-2,4.5,4.5,0,0,0-2.65-.61h-2.14Z"/>
    <path d="M1513.33,1035.19l-1.76-4.5h-5.67l-1.74,4.5h-1.67l5.6-14.2h1.38l5.56,14.2Zm-2.28-6-1.64-4.38q-.32-.84-.66-2a17.27,17.27,0,0,1-.61,2l-1.66,4.38Z"/>
    <path d="M1525,1031.42a3.45,3.45,0,0,1-1.35,2.91,5.85,5.85,0,0,1-3.68,1.05,9.2,9.2,0,0,1-3.86-.65v-1.59a10.45,10.45,0,0,0,1.89.59,10.07,10.07,0,0,0,2,.21,4.08,4.08,0,0,0,2.48-.63,2,2,0,0,0,.83-1.73,2.24,2.24,0,0,0-.3-1.21,2.64,2.64,0,0,0-1-.86,12.72,12.72,0,0,0-2.1-.9,6.6,6.6,0,0,1-2.82-1.68,3.64,3.64,0,0,1-.85-2.52,3.13,3.13,0,0,1,1.23-2.6,5.07,5.07,0,0,1,3.25-1,9.54,9.54,0,0,1,3.88.78l-.52,1.43a8.74,8.74,0,0,0-3.4-.74,3.32,3.32,0,0,0-2,.56,1.87,1.87,0,0,0-.74,1.56,2.37,2.37,0,0,0,.27,1.2,2.59,2.59,0,0,0,.92.87,11.67,11.67,0,0,0,2,.86,7.92,7.92,0,0,1,3.06,1.7A3.4,3.4,0,0,1,1525,1031.42Z"/>
    <path d="M1532.2,1035.19h-1.65V1022.5h-4.47V1021h10.6v1.46h-4.48Z"/>
    <path d="M1540.45,1029.3v5.89h-1.64V1021h3.87a6.14,6.14,0,0,1,3.85,1,3.6,3.6,0,0,1,1.24,3,3.76,3.76,0,0,1-2.84,3.79l3.84,6.36h-2l-3.42-5.89Zm0-1.41h2.25a3.94,3.94,0,0,0,2.56-.69,2.57,2.57,0,0,0,.81-2.07,2.39,2.39,0,0,0-.83-2,4.48,4.48,0,0,0-2.65-.61h-2.14Z"/>
    <path d="M1558.93,1035.19h-7.88V1021h7.88v1.46h-6.23v4.56h5.86v1.45h-5.86v5.21h6.23Z"/>
    <path d="M1571,1035.19l-1.76-4.5h-5.67l-1.74,4.5h-1.67l5.59-14.2h1.39l5.56,14.2Zm-2.28-6-1.64-4.38q-.32-.84-.66-2a17.27,17.27,0,0,1-.61,2l-1.66,4.38Z"/>
    <path d="M1580.86,1035.19l-4.8-12.54H1576c.09,1,.13,2.17.13,3.54v9h-1.52V1021h2.48l4.48,11.67h.07l4.52-11.67h2.46v14.15H1587v-9.12c0-1,0-2.18.14-3.4H1587l-4.83,12.52Z"/>
    <path d="M1600.37,1035.19h-7.88V1021h7.88v1.46h-6.24v4.56H1600v1.45h-5.86v5.21h6.24Z"/>
    <path d="M1614.55,1035.19h-1.88l-7.72-11.87h-.08c.1,1.39.15,2.67.15,3.83v8h-1.52V1021h1.86l7.71,11.82h.08c0-.17,0-.73-.09-1.67s-.06-1.62,0-2V1021h1.54Z"/>
    <path d="M1622.79,1035.19h-1.64V1022.5h-4.48V1021h10.6v1.46h-4.48Z"/>
    <path d="M1641.67,1028.1a7.73,7.73,0,0,1-1.72,5.33,6,6,0,0,1-4.77,2,6.12,6.12,0,0,1-4.82-1.91,9.35,9.35,0,0,1,0-10.75,6.19,6.19,0,0,1,4.84-1.9,6,6,0,0,1,4.76,1.94A7.79,7.79,0,0,1,1641.67,1028.1Zm-11.27,0a6.67,6.67,0,0,0,1.23,4.35,5,5,0,0,0,7.1,0,8.5,8.5,0,0,0,0-8.69,4.28,4.28,0,0,0-3.54-1.48,4.35,4.35,0,0,0-3.57,1.49A6.62,6.62,0,0,0,1630.4,1028.1Z"/>
    <path d="M1503.48,1051.75a7.12,7.12,0,0,1-1.9,5.35,7.51,7.51,0,0,1-5.47,1.86h-3.92v-14.14h4.34a6.34,6.34,0,0,1,7,6.93Zm-1.74.06a5.68,5.68,0,0,0-1.39-4.17,5.53,5.53,0,0,0-4.12-1.4h-2.39v11.29h2a6.11,6.11,0,0,0,4.42-1.44A5.72,5.72,0,0,0,1501.74,1051.81Z"/>
    <path d="M1514.52,1059h-7.89v-14.14h7.89v1.46h-6.24v4.55h5.86v1.45h-5.86v5.21h6.24Z"/>
    <path d="M1528.85,1046.08a4.64,4.64,0,0,0-3.68,1.55,6.29,6.29,0,0,0-1.35,4.26,6.38,6.38,0,0,0,1.3,4.28,4.64,4.64,0,0,0,3.71,1.52,12.83,12.83,0,0,0,3.38-.53v1.44a10.35,10.35,0,0,1-3.63.55,6.12,6.12,0,0,1-4.82-1.9,7.8,7.8,0,0,1-1.7-5.38,8.41,8.41,0,0,1,.82-3.83,5.81,5.81,0,0,1,2.36-2.54,7.18,7.18,0,0,1,3.63-.89,8.81,8.81,0,0,1,3.89.81l-.7,1.42A7.4,7.4,0,0,0,1528.85,1046.08Z"/>
    <path d="M1547.57,1051.87a7.77,7.77,0,0,1-1.72,5.34,6.93,6.93,0,0,1-9.59,0,9.35,9.35,0,0,1,0-10.75,6.19,6.19,0,0,1,4.84-1.9,6,6,0,0,1,4.76,1.94A7.79,7.79,0,0,1,1547.57,1051.87Zm-11.27,0a6.73,6.73,0,0,0,1.22,4.35,5,5,0,0,0,7.11,0,6.8,6.8,0,0,0,1.2-4.36,6.71,6.71,0,0,0-1.2-4.33,4.25,4.25,0,0,0-3.53-1.48,4.38,4.38,0,0,0-3.58,1.49A6.68,6.68,0,0,0,1536.3,1051.87Z"/>
    <path d="M1561.77,1059h-1.88l-7.73-11.87h-.08c.11,1.39.16,2.67.16,3.83v8h-1.52v-14.14h1.86l7.71,11.81h.07c0-.17,0-.73-.08-1.67s-.06-1.62,0-2v-8.11h1.54Z"/>
    <path d="M1570,1059h-1.65v-12.68h-4.48v-1.46h10.61v1.46H1570Z"/>
    <path d="M1585.5,1059l-1.76-4.5h-5.67l-1.74,4.5h-1.66l5.59-14.2h1.38l5.56,14.2Zm-2.27-6-1.64-4.38a20.62,20.62,0,0,1-.66-2,19.4,19.4,0,0,1-.61,2l-1.66,4.38Z"/>
    <path d="M1593.5,1059h-1.64v-12.68h-4.48v-1.46H1598v1.46h-4.48Z"/>
    <path d="M1612.38,1051.87a7.82,7.82,0,0,1-1.71,5.34,6.95,6.95,0,0,1-9.6,0,9.35,9.35,0,0,1,0-10.75,6.19,6.19,0,0,1,4.84-1.9,6,6,0,0,1,4.76,1.94A7.79,7.79,0,0,1,1612.38,1051.87Zm-11.27,0a6.67,6.67,0,0,0,1.23,4.35,5,5,0,0,0,7.1,0,8.5,8.5,0,0,0,0-8.69,4.28,4.28,0,0,0-3.54-1.48,4.35,4.35,0,0,0-3.57,1.49A6.62,6.62,0,0,0,1601.11,1051.87Z"/>
    <path d="M1623.52,1055.19a3.46,3.46,0,0,1-1.36,2.91,5.84,5.84,0,0,1-3.67,1.05,9.22,9.22,0,0,1-3.87-.65v-1.59a10.45,10.45,0,0,0,1.89.59,10.14,10.14,0,0,0,2,.21,4.06,4.06,0,0,0,2.48-.63,2,2,0,0,0,.83-1.73,2.33,2.33,0,0,0-.29-1.21,2.77,2.77,0,0,0-1-.86,12.72,12.72,0,0,0-2.1-.9,6.7,6.7,0,0,1-2.82-1.67,3.69,3.69,0,0,1-.85-2.53,3.13,3.13,0,0,1,1.23-2.6,5.07,5.07,0,0,1,3.25-1,9.54,9.54,0,0,1,3.88.78l-.51,1.43a8.82,8.82,0,0,0-3.41-.74,3.32,3.32,0,0,0-2,.56,1.87,1.87,0,0,0-.74,1.56,2.33,2.33,0,0,0,.28,1.21,2.62,2.62,0,0,0,.91.86,10.91,10.91,0,0,0,2,.86,7.92,7.92,0,0,1,3.06,1.7A3.36,3.36,0,0,1,1623.52,1055.19Z"/>
    <text class="cls-29" transform="translate(490.39 303.87)" style="white-space: pre;">TELEMEDICINA</text>
    <line class="cls-30" x1="964.48" y1="142.82" x2="1008.62" y2="104.86"/>
    <line class="cls-31" x1="1422.62" y1="992.95" x2="1464.83" y2="1071.05"/>
    <line class="cls-26" x1="1560.66" y1="530.37" x2="1507.45" y2="583.58"/>
    <text class="cls-32" transform="translate(496.22 339.51)" style="white-space: pre;">11</text>
    <text class="cls-32" transform="translate(1120.77 1229.92)" style="white-space: pre;">1</text>
    <rect class="cls-10" x="463.63" y="283.75" width="15.22" height="56.38"/>
    <text class="cls-29" transform="translate(642.41 1153.66)" style="white-space: pre;">TEMPERATURA</text>
    <text class="cls-32" transform="translate(647.21 1186.88)" style="white-space: pre;">1</text>
    <rect class="cls-16" x="621.9" y="1130.61" width="15.22" height="56.38"/>
    <text class="cls-29" transform="translate(1503.58 274.34)" style="white-space: pre;">FLUXO DE PESSOAS</text>
    <text class="cls-33" transform="translate(1508.03 297.56)" style="white-space: pre;">2</text>
    <rect class="cls-12" x="1482.72" y="251.3" width="15.22" height="56.38"/>
    <rect class="cls-14" x="1093.45" y="1163.01" width="15.22" height="72.24"/>
    <text class="cls-32" transform="translate(1492.36 1091.37)" style="white-space: pre;">2</text>
    <text class="cls-32" transform="translate(1239.84 186.91)" style="white-space: pre;">1</text>
    <text class="cls-32" transform="translate(1031.11 150.4)" style="white-space: pre;">1</text>
    <text class="cls-32" transform="translate(467.87 146.41)" style="white-space: pre;">1</text>
    <rect class="cls-11" x="1457.22" y="1021.69" width="15.22" height="72.24"/>
    <rect class="cls-13" x="1210.25" y="132.51" width="15.22" height="72.24"/>
    <rect class="cls-15" x="1006.75" y="78.16" width="15.22" height="72.24"/>
    <rect class="cls-17" x="437.93" y="78.16" width="15.22" height="72.24"/>
    <text class="cls-32" transform="translate(1587.98 576.21)" style="white-space: pre;">2</text>
    <rect class="cls-27" x="1560.66" y="509.31" width="15.22" height="72.24"/>
    <text class="cls-29" transform="translate(1585.95 525.09)" style="white-space: pre;">IDENTIFICAÇÃO<tspan x="0" y="23.77">DE PESSOAS</tspan></text>
    <line class="cls-34" x1="1490.33" y1="259.48" x2="1440" y2="309.82"/>
    <line class="cls-6" x1="1098.35" y1="1196.91" x2="1056.36" y2="1141.74"/>
    <line class="cls-2" x1="559.21" y1="435.45" x2="467.87" y2="338.71"/>
    <text class="cls-29" transform="translate(464.49 95.95)" style="white-space: pre;">MAPEAMENTO DA EVOLUÇÃO <tspan x="0" y="23.77">DA COVID 19</tspan></text>
    <line class="cls-8" x1="629.51" y1="1131.61" x2="790.78" y2="1102.43"/>
    <line class="cls-9" x1="445.54" y1="150.4" x2="689.61" y2="233.51"/>
    <line class="cls-5" x1="1210.25" y1="179.96" x2="1142.92" y2="226.39"/>
  </g>
</svg>