<?xml version="1.0" encoding="utf-8"?>
<svg viewBox="264.497 0 1224.744 1592.47" xmlns="http://www.w3.org/2000/svg">
  <defs>
    <style>.cls-1{fill:#030420;}.cls-2{opacity:0.8;}.cls-10,.cls-11,.cls-3,.cls-4,.cls-5,.cls-6,.cls-7,.cls-8,.cls-9{font-size:21.75px;font-family:OpenSans, Open Sans;}.cls-20,.cls-23,.cls-24,.cls-3,.cls-4{fill:#fff;}.cls-10,.cls-3{letter-spacing:0.04em;}.cls-11,.cls-4,.cls-5,.cls-6,.cls-7,.cls-8,.cls-9{letter-spacing:0.04em;}.cls-14,.cls-5{fill:#edfdb6;}.cls-19,.cls-6{fill:#edd391;}.cls-15,.cls-7{fill:#f5a034;}.cls-17,.cls-8{fill:#f57f4e;}.cls-16,.cls-9{fill:#f73848;}.cls-10,.cls-18{fill:#fed382;}.cls-11,.cls-13{fill:#de534a;}.cls-12{fill:none;stroke:#b3b3b3;stroke-width:0.32px;}.cls-20{font-size:20.05px;letter-spacing:0.04em;}.cls-20,.cls-24{font-family:OpenSans-Bold, Open Sans;font-weight:700;}.cls-21{letter-spacing:0.04em;}.cls-22{opacity:0.28;}.cls-24{font-size:20.82px;letter-spacing:0.04em;}.cls-25{letter-spacing:0.04em;}</style>
  </defs>
  <g id="Layer_1" data-name="Layer 1">
    <rect id="backgorund" class="cls-1" y="-12.99" width="1920" height="1669.28"/>
  </g>
  <g id="Layer_2" data-name="Layer 2">
    <g class="cls-2">
      <text class="cls-3" transform="translate(972.13 517.85)" style="white-space: pre;">AVISU</text>
    </g>
    <g class="cls-2">
      <text class="cls-3" transform="translate(966.84 553.62)" style="white-space: pre;">AGLOMERAÇÕES</text>
    </g>
    <g class="cls-2">
      <text class="cls-3" transform="translate(967.01 589.4)" style="white-space: pre;">ALÔ SAÚDE FLORIPA</text>
    </g>
    <g class="cls-2">
      <text class="cls-3" transform="translate(967.69 625.17)" style="white-space: pre;">ATENDE EM CASA</text>
    </g>
    <g class="cls-2">
      <text class="cls-4" transform="translate(970.22 660.94)" style="white-space: pre;">CEARÁAPP</text>
    </g>
    <g class="cls-2">
      <text class="cls-4" transform="translate(970.78 696.71)" style="white-space: pre;">COLAB</text>
    </g>
    <g class="cls-2">
      <text class="cls-4" transform="translate(964.53 732.48)" style="white-space: pre;">COMBATE CORONAVÍRUS</text>
    </g>
    <g class="cls-2">
      <text class="cls-4" transform="translate(968.83 768.25)" style="white-space: pre;">CORONAVÍRUS - SUS</text>
    </g>
    <g class="cls-2">
      <text class="cls-4" transform="translate(968.3 804.03)" style="white-space: pre;">COVID MONITOR</text>
    </g>
    <g class="cls-2">
      <text class="cls-4" transform="translate(971 839.8)" style="white-space: pre;">COVIDPR</text>
    </g>
    <g class="cls-2">
      <text class="cls-4" transform="translate(967.49 875.57)" style="white-space: pre;">DADOS DO BEM</text>
    </g>
    <g class="cls-2">
      <text class="cls-4" transform="translate(962.02 911.34)" style="white-space: pre;">DISTANCIAMENTO CONTROLADO RS</text>
    </g>
    <g class="cls-2">
      <text class="cls-4" transform="translate(962.39 947.11)" style="white-space: pre;">DYCOVID - DYNAMIC CONTACT TRACING</text>
    </g>
    <g class="cls-2">
      <text class="cls-4" transform="translate(972.59 982.89)" style="white-space: pre;">ISUS</text>
    </g>
    <g class="cls-2">
      <text class="cls-4" transform="translate(970.8 1018.66)" style="white-space: pre;">KEYAPP</text>
    </g>
    <g class="cls-2">
      <text class="cls-4" transform="translate(967.08 1054.43)" style="white-space: pre;">MAIS SAÚDE CIDADÃO</text>
    </g>
    <g class="cls-2">
      <text class="cls-4" transform="translate(968.25 1090.2)" style="white-space: pre;">MEU INFO SÁUDE</text>
    </g>
    <g class="cls-2">
      <text class="cls-4" transform="translate(968.43 1125.97)" style="white-space: pre;">MINHA SAÚDE</text>
    </g>
    <g class="cls-2">
      <text class="cls-4" transform="translate(965.35 1161.74)" style="white-space: pre;">MONITORA COVID-19</text>
    </g>
    <g class="cls-2">
      <text class="cls-3" transform="translate(967.48 1197.52)" style="white-space: pre;">PRONTO MOBILE</text>
    </g>
    <g class="cls-2">
      <text class="cls-3" transform="translate(963.9 1233.29)" style="white-space: pre;">SASI</text>
    </g>
    <g class="cls-2">
      <text class="cls-3" transform="translate(961.33 1269.06)" style="white-space: pre;">SANTA ISABEL CONTRA O CORONAVÍRUS</text>
    </g>
    <g class="cls-2">
      <text class="cls-3" transform="translate(967.49 1304.83)" style="white-space: pre;">SAÚDE APARECIDA</text>
    </g>
    <g class="cls-2">
      <text class="cls-3" transform="translate(963.02 1340.6)" style="white-space: pre;">SAÚDE DIGITAL MG COVID-19</text>
    </g>
    <g class="cls-2">
      <text class="cls-3" transform="translate(968.3 1376.37)" style="white-space: pre;">SAÚDE ONLINE PR</text>
    </g>
    <g class="cls-2">
      <text class="cls-3" transform="translate(966.3 1412.15)" style="white-space: pre;">SAÚDE SANTO ANDRÉ</text>
    </g>
    <g class="cls-2">
      <text class="cls-3" transform="translate(970.79 1447.92)" style="white-space: pre;">SIMOT</text>
    </g>
    <g class="cls-2">
      <text class="cls-4" transform="translate(966.33 1483.69)" style="white-space: pre;">TELEMEDICINA PARANÁ</text>
    </g>
    <g class="cls-2">
      <text class="cls-4" transform="translate(970.42 1519.46)" style="white-space: pre;">E-SAÚDE SP</text>
    </g>
    <text class="cls-5" transform="translate(870.01 56.13) rotate(90)" style="white-space: pre;">DIGITALIZAÇÃO DE SERVIÇOS PÚBLICOS</text>
    <text class="cls-6" transform="translate(835.29 111.48) rotate(90)" style="white-space: pre;">FORNECIMENTO DE INFORMAÇÕES</text>
    <text class="cls-7" transform="translate(800.57 220.26) rotate(90)" style="white-space: pre;">EVOLUÇÃO DA COVID-19</text>
    <text class="cls-8" transform="translate(765.85 92.06) rotate(90)" style="white-space: pre;">MONITORAMENTO DE TEMPERATURA</text>
    <text class="cls-9" transform="translate(731.12 34.54) rotate(90)" style="white-space: pre;">MONITORAMENTO DO FLUXO DE PESSOAS</text>
    <text class="cls-10" transform="translate(696.41 152.65) rotate(90)" style="white-space: pre;">RASTREAMENTO DE CONTATOS</text>
    <text class="cls-11" transform="translate(661.68 319.4) rotate(90)" style="white-space: pre;">TELEMEDICINA</text>
    <line class="cls-12" x1="876.22" y1="497.63" x2="876.22" y2="1536.06"/>
    <line class="cls-12" x1="841.5" y1="497.63" x2="841.5" y2="1536.06"/>
    <line class="cls-12" x1="772.06" y1="497.63" x2="772.06" y2="1536.06"/>
    <line class="cls-12" x1="737.34" y1="497.63" x2="737.34" y2="1536.06"/>
    <line class="cls-12" x1="702.62" y1="497.63" x2="702.62" y2="1536.06"/>
    <line class="cls-12" x1="667.89" y1="497.63" x2="667.89" y2="1536.06"/>
    <line class="cls-12" x1="954.88" y1="510.44" x2="583.54" y2="510.44"/>
    <line class="cls-12" x1="954.88" y1="546.22" x2="583.54" y2="546.22"/>
    <line class="cls-12" x1="954.88" y1="582" x2="583.54" y2="582"/>
    <line class="cls-12" x1="954.88" y1="617.78" x2="583.54" y2="617.78"/>
    <line class="cls-12" x1="954.88" y1="653.56" x2="583.54" y2="653.56"/>
    <line class="cls-12" x1="954.88" y1="689.34" x2="583.54" y2="689.34"/>
    <line class="cls-12" x1="954.88" y1="725.12" x2="583.54" y2="725.12"/>
    <line class="cls-12" x1="954.88" y1="760.9" x2="583.54" y2="760.9"/>
    <line class="cls-12" x1="954.88" y1="796.68" x2="583.54" y2="796.68"/>
    <line class="cls-12" x1="954.88" y1="832.46" x2="583.54" y2="832.46"/>
    <line class="cls-12" x1="954.88" y1="868.24" x2="583.54" y2="868.24"/>
    <line class="cls-12" x1="954.88" y1="904.02" x2="583.54" y2="904.02"/>
    <line class="cls-12" x1="954.88" y1="939.8" x2="583.54" y2="939.8"/>
    <line class="cls-12" x1="954.88" y1="975.58" x2="583.54" y2="975.58"/>
    <line class="cls-12" x1="954.88" y1="1011.36" x2="583.54" y2="1011.36"/>
    <line class="cls-12" x1="954.88" y1="1047.14" x2="583.54" y2="1047.14"/>
    <line class="cls-12" x1="954.88" y1="1082.92" x2="583.54" y2="1082.92"/>
    <line class="cls-12" x1="954.88" y1="1118.7" x2="583.54" y2="1118.7"/>
    <line class="cls-12" x1="954.88" y1="1154.48" x2="583.54" y2="1154.48"/>
    <line class="cls-12" x1="954.88" y1="1190.26" x2="583.54" y2="1190.26"/>
    <line class="cls-12" x1="954.88" y1="1226.04" x2="583.54" y2="1226.04"/>
    <line class="cls-12" x1="954.88" y1="1261.82" x2="583.54" y2="1261.82"/>
    <line class="cls-12" x1="954.88" y1="1297.6" x2="583.54" y2="1297.6"/>
    <line class="cls-12" x1="954.88" y1="1333.38" x2="583.54" y2="1333.38"/>
    <line class="cls-12" x1="954.88" y1="1369.16" x2="583.54" y2="1369.16"/>
    <line class="cls-12" x1="954.88" y1="1404.94" x2="583.54" y2="1404.94"/>
    <line class="cls-12" x1="954.88" y1="1440.72" x2="583.54" y2="1440.72"/>
    <line class="cls-12" x1="954.88" y1="1476.5" x2="583.54" y2="1476.5"/>
    <line class="cls-12" x1="954.88" y1="1512.28" x2="583.54" y2="1512.28"/>
    <line class="cls-12" x1="806.78" y1="497.63" x2="806.78" y2="1536.06"/>
    <rect class="cls-13" x="653.83" y="569.19" width="28.13" height="28.13" rx="11.25"/>
    <rect class="cls-13" x="653.83" y="604.97" width="28.13" height="28.13" rx="11.25"/>
    <rect class="cls-13" x="653.83" y="497.63" width="28.13" height="28.13" rx="11.25"/>
    <rect class="cls-13" x="653.83" y="676.53" width="28.13" height="28.13" rx="11.25"/>
    <rect class="cls-13" x="653.83" y="783.87" width="28.13" height="28.13" rx="11.25"/>
    <rect class="cls-13" x="653.83" y="819.65" width="28.13" height="28.13" rx="11.25"/>
    <rect class="cls-13" x="653.83" y="855.43" width="28.13" height="28.13" rx="11.25"/>
    <rect class="cls-13" x="653.83" y="1499.48" width="28.13" height="28.13" rx="11.25"/>
    <rect class="cls-13" x="653.83" y="998.56" width="28.13" height="28.13" rx="11.25"/>
    <rect class="cls-13" x="653.83" y="1034.34" width="28.13" height="28.13" rx="11.25"/>
    <rect class="cls-13" x="653.83" y="1105.9" width="28.13" height="28.13" rx="11.25"/>
    <rect class="cls-13" x="653.83" y="1141.68" width="28.13" height="28.13" rx="11.25"/>
    <rect class="cls-13" x="653.83" y="1177.46" width="28.13" height="28.13" rx="11.25"/>
    <rect class="cls-13" x="653.83" y="1249.02" width="28.13" height="28.13" rx="11.25"/>
    <rect class="cls-13" x="653.83" y="1213.24" width="28.13" height="28.13" rx="11.25"/>
    <rect class="cls-13" x="653.83" y="1320.58" width="28.13" height="28.13" rx="11.25"/>
    <rect class="cls-13" x="653.83" y="1356.36" width="28.13" height="28.13" rx="11.25"/>
    <rect class="cls-13" x="653.83" y="1463.7" width="28.13" height="28.13" rx="11.25"/>
    <rect class="cls-14" x="862.15" y="1070.12" width="28.13" height="28.13" rx="11.25"/>
    <rect class="cls-14" x="862.15" y="639.49" width="28.13" height="28.13" rx="11.25"/>
    <rect class="cls-14" x="862.15" y="1284.8" width="28.13" height="28.13" rx="11.25"/>
    <rect class="cls-14" x="862.15" y="1392.14" width="28.13" height="28.13" rx="11.25"/>
    <rect class="cls-15" x="792.71" y="712.31" width="28.13" height="28.13" rx="11.25"/>
    <rect class="cls-15" x="791.07" y="891.21" width="28.13" height="28.13" rx="11.25"/>
    <rect class="cls-16" x="723.27" y="533.41" width="28.13" height="28.13" rx="11.25"/>
    <rect class="cls-17" x="757.99" y="1427.92" width="28.13" height="28.13" rx="11.25"/>
    <rect class="cls-18" x="688.55" y="748.09" width="28.13" height="28.13" rx="11.25"/>
    <rect class="cls-19" x="827.43" y="962.78" width="28.13" height="28.13" rx="11.25"/>
    <text class="cls-20" transform="translate(546.9 426.87)" style="white-space: pre;">FUNÇÃO<tspan class="cls-21"><tspan x="-23.3" y="21.54">PRINCIPAL</tspan></tspan></text>
    <g class="cls-22">
      <path class="cls-23" d="M629.85,458.22h-5.62l5.62,5.86h-9.61v4.22h9.61l-5.62,5.85h5.62l7.26-8Z"/>
    </g>
    <text class="cls-24" transform="translate(977.61 389.24)" style="white-space: pre;">APPS<tspan class="cls-25"><tspan x="0" y="22.38">GOOGLE </tspan></tspan><tspan x="0" y="44.76">PLAY</tspan></text>
    <g class="cls-22">
      <path class="cls-23" d="M994.12,455.48v-5.62l-5.85,5.62v-9.6h-4.22v9.6l-5.86-5.62v5.62l8,7.26Z"/>
    </g>
  </g>
</svg>