<?xml version="1.0" encoding="utf-8"?>
<!-- Generator: Adobe Illustrator 25.0.0, SVG Export Plug-In . SVG Version: 6.00 Build 0)  -->
<svg version="1.1" id="Layer_1" xmlns="http://www.w3.org/2000/svg" xmlns:xlink="http://www.w3.org/1999/xlink" x="0px" y="0px"
	 viewBox="0 0 360 182" style="enable-background:new 0 0 360 182;" xml:space="preserve">
<style type="text/css">
	.st0{fill:#030521;}
	.st1{clip-path:url(#SVGID_2_);fill:#030521;}
	.st2{clip-path:url(#SVGID_4_);fill:#030521;}
	.st3{clip-path:url(#SVGID_6_);fill:#030521;}
	.st4{clip-path:url(#SVGID_8_);fill:#030521;}
	.st5{clip-path:url(#SVGID_10_);fill:#030521;}
	.st6{clip-path:url(#SVGID_12_);fill:#030521;}
	.st7{clip-path:url(#SVGID_14_);fill:#030521;}
	.st8{clip-path:url(#SVGID_16_);fill:#030521;}
	.st9{clip-path:url(#SVGID_18_);fill:#030521;}
	.st10{clip-path:url(#SVGID_20_);fill:#030521;}
	.st11{clip-path:url(#SVGID_22_);fill:#030521;}
	.st12{clip-path:url(#SVGID_24_);fill:#030521;}
	.st13{clip-path:url(#SVGID_26_);fill:#030521;}
	.st14{clip-path:url(#SVGID_28_);fill:#030521;}
	.st15{clip-path:url(#SVGID_30_);fill:#030521;}
	.st16{clip-path:url(#SVGID_32_);fill:#030521;}
	.st17{clip-path:url(#SVGID_34_);fill:#030521;}
	.st18{clip-path:url(#SVGID_36_);fill:#030521;}
	.st19{clip-path:url(#SVGID_38_);fill:#030521;}
	.st20{clip-path:url(#SVGID_40_);fill:#030521;}
	.st21{clip-path:url(#SVGID_42_);fill:#030521;}
	.st22{clip-path:url(#SVGID_44_);fill:#030521;}
	.st23{clip-path:url(#SVGID_46_);fill:#030521;}
	.st24{clip-path:url(#SVGID_48_);fill:#030521;}
	.st25{clip-path:url(#SVGID_50_);fill:#030521;}
	.st26{clip-path:url(#SVGID_52_);fill:#030521;}
	.st27{clip-path:url(#SVGID_54_);fill:#030521;}
	.st28{clip-path:url(#SVGID_56_);fill:#030521;}
	.st29{clip-path:url(#SVGID_58_);fill:#030521;}
	.st30{clip-path:url(#SVGID_60_);fill:#030521;}
	.st31{clip-path:url(#SVGID_62_);fill:#030521;}
	.st32{clip-path:url(#SVGID_64_);fill:#030521;}
	.st33{clip-path:url(#SVGID_66_);fill:#030521;}
	.st34{clip-path:url(#SVGID_68_);fill:#030521;}
	.st35{clip-path:url(#SVGID_70_);fill:#030521;}
	.st36{clip-path:url(#SVGID_72_);fill:#030521;}
	.st37{clip-path:url(#SVGID_74_);fill:#030521;}
	.st38{clip-path:url(#SVGID_76_);fill:#030521;}
	.st39{clip-path:url(#SVGID_78_);fill:#030521;}
	.st40{clip-path:url(#SVGID_80_);fill:#030521;}
	.st41{clip-path:url(#SVGID_82_);fill:#030521;}
	.st42{clip-path:url(#SVGID_84_);fill:#030521;}
	.st43{clip-path:url(#SVGID_86_);fill:#030521;}
	.st44{clip-path:url(#SVGID_88_);fill:#030521;}
	.st45{fill:#FFFFFF;}
	.st46{clip-path:url(#SVGID_90_);fill:#030521;}
	.st47{clip-path:url(#SVGID_92_);fill:#030521;}
	.st48{clip-path:url(#SVGID_94_);fill:#030521;}
	.st49{clip-path:url(#SVGID_96_);fill:#030521;}
	.st50{clip-path:url(#SVGID_98_);fill:#030521;}
	.st51{fill:#231F20;}
	.st52{fill:#F73847;}
	.st53{fill:#DE4D4A;}
	.st54{fill:#F5804F;}
	.st55{fill:#F5A133;}
	.st56{fill:#FFB033;}
	.st57{fill:#CFA64A;}
	.st58{fill:#4F4F61;}
	.st59{fill:#82828F;}
	.st60{fill:#3D61D9;}
	.st61{fill:#9EE89E;}
</style>
<rect x="109.7" y="162.7" class="st0" width="186.3" height="0.1"/>
<rect x="109.7" y="150.7" class="st0" width="186.3" height="0.1"/>
<rect x="109.7" y="138.8" class="st0" width="186.4" height="0.1"/>
<rect x="109.7" y="126.8" class="st0" width="186.4" height="0.1"/>
<rect x="109.7" y="114.8" class="st0" width="186.3" height="0.1"/>
<rect x="109.7" y="102.7" class="st0" width="186.3" height="0.1"/>
<rect x="109.7" y="90.8" class="st0" width="186.3" height="0.1"/>
<rect x="109.7" y="78.8" class="st0" width="186.3" height="0.1"/>
<rect x="109.7" y="66.9" class="st0" width="186.3" height="0.1"/>
<rect x="109.7" y="54.7" class="st0" width="186.3" height="0.1"/>
<rect x="109.7" y="42" class="st0" width="186.3" height="0.1"/>
<rect x="278" y="126.8" class="st0" width="4" height="0.1"/>
<rect x="282" y="138.8" class="st0" width="1.3" height="0.1"/>
<polygon class="st0" points="286.2,30.8 285.9,30.8 285.9,23 115.2,23 115.2,30.8 115,30.8 115,22.7 286.2,22.7 "/>
<g>
	<g>
		<defs>
			<rect id="SVGID_1_" x="-27.3" y="10.8" width="407.2" height="165.8"/>
		</defs>
		<clipPath id="SVGID_2_">
			<use xlink:href="#SVGID_1_"  style="overflow:visible;"/>
		</clipPath>
		<path class="st1" d="M303.9,41.1c0,0.3-0.1,0.5-0.2,0.7c-0.2,0.2-0.4,0.3-0.7,0.4l0,0c0.4,0,0.6,0.2,0.8,0.3
			c0.2,0.2,0.3,0.4,0.3,0.7c0,0.4-0.2,0.8-0.5,1s-0.7,0.4-1.3,0.4c-0.5,0-0.9-0.1-1.3-0.2v-0.8c0.2,0.1,0.4,0.2,0.6,0.2
			c0.2,0.1,0.4,0.1,0.6,0.1c0.3,0,0.5-0.1,0.7-0.2c0.1-0.1,0.2-0.3,0.2-0.5s-0.1-0.4-0.3-0.4c-0.2-0.1-0.4-0.1-0.8-0.1h-0.3V42h0.3
			c0.3,0,0.6,0,0.8-0.1c0.2-0.1,0.2-0.2,0.2-0.5s-0.2-0.5-0.6-0.5c-0.1,0-0.3,0-0.4,0.1c-0.1,0-0.3,0.1-0.5,0.2l-0.4-0.6
			c0.4-0.3,0.9-0.4,1.4-0.4s0.8,0.1,1.1,0.3C303.7,40.5,303.9,40.8,303.9,41.1"/>
	</g>
	<g>
		<defs>
			<rect id="SVGID_3_" x="-27.3" y="10.8" width="407.2" height="165.8"/>
		</defs>
		<clipPath id="SVGID_4_">
			<use xlink:href="#SVGID_3_"  style="overflow:visible;"/>
		</clipPath>
		<path class="st2" d="M306.8,44.5h-0.9V42v-0.4v-0.5c-0.2,0.2-0.3,0.3-0.3,0.3l-0.5,0.4l-0.5-0.6l1.4-1.1h0.8V44.5z"/>
	</g>
	<g>
		<defs>
			<rect id="SVGID_5_" x="-27.3" y="10.8" width="407.2" height="165.8"/>
		</defs>
		<clipPath id="SVGID_6_">
			<use xlink:href="#SVGID_5_"  style="overflow:visible;"/>
		</clipPath>
		<path class="st3" d="M309.2,43.9c-0.1,0.4-0.3,0.9-0.5,1.4H308c0.1-0.5,0.2-1,0.3-1.5L309.2,43.9L309.2,43.9z"/>
	</g>
	<g>
		<defs>
			<rect id="SVGID_7_" x="-27.3" y="10.8" width="407.2" height="165.8"/>
		</defs>
		<clipPath id="SVGID_8_">
			<use xlink:href="#SVGID_7_"  style="overflow:visible;"/>
		</clipPath>
		<path class="st4" d="M311.4,43.8c0.2,0,0.4-0.1,0.5-0.2c0.1-0.1,0.2-0.3,0.2-0.6c0-0.2,0-0.4-0.1-0.5s-0.2-0.2-0.5-0.2
			c-0.2,0-0.4,0.1-0.5,0.2s-0.2,0.3-0.2,0.4c0,0.2,0.1,0.4,0.2,0.6C311,43.7,311.2,43.8,311.4,43.8 M309.8,42.6
			c0-0.9,0.2-1.5,0.6-1.9s0.9-0.6,1.7-0.6c0.3,0,0.4,0,0.6,0v0.7c-0.2,0-0.4-0.1-0.5-0.1c-0.3,0-0.6,0-0.8,0.1
			c-0.2,0.1-0.4,0.2-0.5,0.4s-0.2,0.5-0.2,0.8l0,0c0.2-0.3,0.5-0.5,1-0.5c0.4,0,0.7,0.1,0.9,0.4c0.2,0.2,0.3,0.6,0.3,1
			c0,0.5-0.1,0.8-0.4,1.1s-0.6,0.4-1.1,0.4c-0.3,0-0.6-0.1-0.9-0.2c-0.2-0.2-0.4-0.4-0.6-0.7C309.8,43.4,309.8,43,309.8,42.6"/>
	</g>
	<g>
		<defs>
			<rect id="SVGID_9_" x="-27.3" y="10.8" width="407.2" height="165.8"/>
		</defs>
		<clipPath id="SVGID_10_">
			<use xlink:href="#SVGID_9_"  style="overflow:visible;"/>
		</clipPath>
		<path class="st5" d="M317.1,43.2c0,0.3,0,0.4,0.1,0.6c0,0.1,0.1,0.2,0.2,0.2c0.2,0,0.3-0.3,0.3-0.8s-0.1-0.8-0.3-0.8
			c-0.1,0-0.2,0.1-0.2,0.2C317.2,42.7,317.1,42.9,317.1,43.2 M318.5,43.2c0,0.5-0.1,0.8-0.3,1c-0.2,0.2-0.4,0.3-0.8,0.3
			c-0.3,0-0.6-0.1-0.8-0.4c-0.2-0.2-0.3-0.6-0.3-1c0-0.9,0.3-1.4,1-1.4c0.3,0,0.6,0.1,0.8,0.4C318.4,42.4,318.5,42.7,318.5,43.2
			 M317.5,40.1l-2.4,4.4h-0.7l2.4-4.4H317.5z M314,41.4c0,0.3,0,0.4,0.1,0.6c0,0.1,0.1,0.2,0.2,0.2c0.2,0,0.3-0.3,0.3-0.8
			s-0.1-0.8-0.3-0.8c-0.1,0-0.2,0.1-0.2,0.2C314.1,41,314,41.2,314,41.4 M315.4,41.4c0,0.5-0.1,0.8-0.3,1c-0.2,0.2-0.4,0.3-0.8,0.3
			c-0.3,0-0.6-0.1-0.8-0.4c-0.2-0.2-0.3-0.6-0.3-1c0-0.9,0.3-1.4,1-1.4c0.3,0,0.6,0.1,0.8,0.4S315.4,41,315.4,41.4"/>
	</g>
</g>
<rect x="300.7" y="44.8" class="st0" width="17.9" height="0.3"/>
<g>
	<g>
		<defs>
			<rect id="SVGID_11_" x="-27.3" y="10.8" width="407.2" height="165.8"/>
		</defs>
		<clipPath id="SVGID_12_">
			<use xlink:href="#SVGID_11_"  style="overflow:visible;"/>
		</clipPath>
		<path class="st6" d="M303.9,52.9c0,0.3-0.1,0.5-0.2,0.7c-0.2,0.2-0.4,0.3-0.7,0.4l0,0c0.4,0,0.6,0.2,0.8,0.3
			c0.2,0.2,0.3,0.4,0.3,0.7c0,0.4-0.2,0.8-0.5,1s-0.7,0.4-1.3,0.4c-0.5,0-0.9-0.1-1.3-0.2v-0.8c0.2,0.1,0.4,0.2,0.6,0.2
			c0.2,0.1,0.4,0.1,0.6,0.1c0.3,0,0.5-0.1,0.7-0.2c0.1-0.1,0.2-0.3,0.2-0.5s-0.1-0.4-0.3-0.4c-0.2-0.1-0.4-0.1-0.8-0.1h-0.3v-0.7
			h0.3c0.3,0,0.6,0,0.8-0.1c0.2-0.1,0.2-0.2,0.2-0.5s-0.2-0.5-0.6-0.5c-0.1,0-0.3,0-0.4,0.1c-0.1,0-0.3,0.1-0.5,0.3l-0.4-0.6
			c0.4-0.3,0.9-0.4,1.4-0.4s0.8,0.1,1.1,0.3C303.7,52.3,303.9,52.6,303.9,52.9"/>
	</g>
	<g>
		<defs>
			<rect id="SVGID_13_" x="-27.3" y="10.8" width="407.2" height="165.8"/>
		</defs>
		<clipPath id="SVGID_14_">
			<use xlink:href="#SVGID_13_"  style="overflow:visible;"/>
		</clipPath>
		<path class="st7" d="M305.4,54.1c0,0.5,0,0.9,0.1,1.2c0.1,0.2,0.2,0.4,0.5,0.4c0.2,0,0.4-0.1,0.5-0.4c0.1-0.2,0.1-0.6,0.1-1.2
			c0-0.5,0-0.9-0.1-1.2c-0.1-0.2-0.3-0.4-0.5-0.4s-0.4,0.1-0.5,0.4S305.4,53.6,305.4,54.1 M307.6,54.1c0,0.8-0.1,1.3-0.4,1.7
			s-0.6,0.6-1.2,0.6c-0.5,0-0.9-0.2-1.2-0.6c-0.3-0.4-0.4-0.9-0.4-1.7s0.1-1.4,0.4-1.7c0.3-0.4,0.6-0.6,1.2-0.6
			c0.5,0,0.9,0.2,1.2,0.6C307.4,52.8,307.6,53.4,307.6,54.1"/>
	</g>
	<g>
		<defs>
			<rect id="SVGID_15_" x="-27.3" y="10.8" width="407.2" height="165.8"/>
		</defs>
		<clipPath id="SVGID_16_">
			<use xlink:href="#SVGID_15_"  style="overflow:visible;"/>
		</clipPath>
		<path class="st8" d="M311.8,55c0,0.3,0,0.4,0.1,0.6c0,0.1,0.1,0.2,0.2,0.2c0.2,0,0.3-0.3,0.3-0.8s-0.1-0.8-0.3-0.8
			c-0.1,0-0.2,0.1-0.2,0.2C311.8,54.6,311.8,54.8,311.8,55 M313.2,55c0,0.5-0.1,0.8-0.3,1c-0.2,0.2-0.4,0.3-0.8,0.3
			c-0.3,0-0.6-0.1-0.8-0.4c-0.2-0.2-0.3-0.6-0.3-1c0-0.9,0.3-1.4,1-1.4c0.3,0,0.6,0.1,0.8,0.4C313.1,54.2,313.2,54.6,313.2,55
			 M312.1,51.9l-2.4,4.4H309l2.4-4.4H312.1z M308.7,53.3c0,0.3,0,0.4,0.1,0.6c0,0.1,0.1,0.2,0.2,0.2c0.2,0,0.3-0.3,0.3-0.8
			s-0.1-0.8-0.3-0.8c-0.1,0-0.2,0.1-0.2,0.2C308.7,52.8,308.7,53,308.7,53.3 M310.1,53.3c0,0.5-0.1,0.8-0.3,1
			c-0.2,0.2-0.4,0.3-0.8,0.3c-0.3,0-0.6-0.1-0.8-0.4c-0.2-0.2-0.3-0.6-0.3-1c0-0.9,0.3-1.4,1-1.4c0.3,0,0.6,0.1,0.8,0.4
			S310.1,52.8,310.1,53.3"/>
	</g>
</g>
<rect x="300.7" y="56.7" class="st0" width="12.6" height="0.3"/>
<g>
	<g>
		<defs>
			<rect id="SVGID_17_" x="-27.3" y="10.8" width="407.2" height="165.8"/>
		</defs>
		<clipPath id="SVGID_18_">
			<use xlink:href="#SVGID_17_"  style="overflow:visible;"/>
		</clipPath>
		<path class="st9" d="M303.3,68.5h-0.9V66v-0.4v-0.5c-0.2,0.2-0.3,0.3-0.3,0.3l-0.5,0.4l-0.5-0.6l1.4-1.1h0.8V68.5z"/>
	</g>
	<g>
		<defs>
			<rect id="SVGID_19_" x="-27.3" y="10.8" width="407.2" height="165.8"/>
		</defs>
		<clipPath id="SVGID_20_">
			<use xlink:href="#SVGID_19_"  style="overflow:visible;"/>
		</clipPath>
		<path class="st10" d="M305.4,66.3c0,0.5,0,0.9,0.1,1.2c0.1,0.2,0.2,0.4,0.5,0.4c0.2,0,0.4-0.1,0.5-0.4c0.1-0.2,0.1-0.6,0.1-1.2
			c0-0.5,0-0.9-0.1-1.2c-0.1-0.2-0.3-0.4-0.5-0.4s-0.4,0.1-0.5,0.4C305.4,65.4,305.4,65.8,305.4,66.3 M307.6,66.3
			c0,0.8-0.1,1.3-0.4,1.7c-0.3,0.4-0.6,0.6-1.2,0.6c-0.5,0-0.9-0.2-1.2-0.6c-0.3-0.4-0.4-0.9-0.4-1.7c0-0.8,0.1-1.4,0.4-1.7
			c0.3-0.4,0.6-0.6,1.2-0.6c0.5,0,0.9,0.2,1.2,0.6C307.4,65,307.6,65.6,307.6,66.3"/>
	</g>
	<g>
		<defs>
			<rect id="SVGID_21_" x="-27.3" y="10.8" width="407.2" height="165.8"/>
		</defs>
		<clipPath id="SVGID_22_">
			<use xlink:href="#SVGID_21_"  style="overflow:visible;"/>
		</clipPath>
		<path class="st11" d="M309.2,67.9c-0.1,0.4-0.3,0.9-0.5,1.4H308c0.1-0.5,0.2-1,0.3-1.5L309.2,67.9L309.2,67.9z"/>
	</g>
	<g>
		<defs>
			<rect id="SVGID_23_" x="-27.3" y="10.8" width="407.2" height="165.8"/>
		</defs>
		<clipPath id="SVGID_24_">
			<use xlink:href="#SVGID_23_"  style="overflow:visible;"/>
		</clipPath>
		<path class="st12" d="M312.7,65.1c0,0.3-0.1,0.5-0.3,0.7c-0.2,0.2-0.4,0.3-0.7,0.4l0,0c0.4,0,0.6,0.2,0.8,0.3
			c0.2,0.2,0.3,0.4,0.3,0.7c0,0.4-0.2,0.8-0.5,1s-0.7,0.4-1.3,0.4c-0.5,0-0.9-0.1-1.3-0.2v-0.8c0.2,0.1,0.4,0.2,0.6,0.2
			c0.2,0.1,0.4,0.1,0.6,0.1c0.3,0,0.5-0.1,0.7-0.2c0.1-0.1,0.2-0.3,0.2-0.5s-0.1-0.4-0.3-0.4c-0.2-0.1-0.4-0.1-0.8-0.1h-0.3V66h0.3
			c0.3,0,0.6,0,0.8-0.1c0.2-0.1,0.2-0.2,0.2-0.5s-0.2-0.5-0.6-0.5c-0.1,0-0.3,0-0.4,0.1c-0.1,0-0.3,0.1-0.5,0.3l-0.4-0.6
			c0.4-0.3,0.9-0.4,1.4-0.4s0.8,0.1,1.1,0.3C312.6,64.5,312.7,64.8,312.7,65.1"/>
	</g>
	<g>
		<defs>
			<rect id="SVGID_25_" x="-27.3" y="10.8" width="407.2" height="165.8"/>
		</defs>
		<clipPath id="SVGID_26_">
			<use xlink:href="#SVGID_25_"  style="overflow:visible;"/>
		</clipPath>
		<path class="st13" d="M317.1,67.2c0,0.3,0,0.4,0.1,0.6c0,0.1,0.1,0.2,0.2,0.2c0.2,0,0.3-0.3,0.3-0.8s-0.1-0.8-0.3-0.8
			c-0.1,0-0.2,0.1-0.2,0.2C317.2,66.7,317.1,66.9,317.1,67.2 M318.5,67.2c0,0.5-0.1,0.8-0.3,1c-0.2,0.2-0.4,0.3-0.8,0.3
			c-0.3,0-0.6-0.1-0.8-0.4c-0.2-0.2-0.3-0.6-0.3-1c0-0.9,0.3-1.4,1-1.4c0.3,0,0.6,0.1,0.8,0.4S318.5,66.7,318.5,67.2 M317.5,64.1
			l-2.4,4.4h-0.7l2.4-4.4H317.5z M314,65.4c0,0.3,0,0.4,0.1,0.6c0,0.1,0.1,0.2,0.2,0.2c0.2,0,0.3-0.3,0.3-0.8s-0.1-0.8-0.3-0.8
			c-0.1,0-0.2,0.1-0.2,0.2C314.1,65,314,65.2,314,65.4 M315.4,65.4c0,0.5-0.1,0.8-0.3,1c-0.2,0.2-0.4,0.3-0.8,0.3
			c-0.3,0-0.6-0.1-0.8-0.4c-0.2-0.2-0.3-0.6-0.3-1c0-0.9,0.3-1.4,1-1.4c0.3,0,0.6,0.1,0.8,0.4C315.3,64.6,315.4,65,315.4,65.4"/>
	</g>
</g>
<rect x="300.7" y="68.8" class="st0" width="17.9" height="0.3"/>
<g>
	<g>
		<defs>
			<rect id="SVGID_27_" x="-27.3" y="10.8" width="407.2" height="165.8"/>
		</defs>
		<clipPath id="SVGID_28_">
			<use xlink:href="#SVGID_27_"  style="overflow:visible;"/>
		</clipPath>
		<path class="st14" d="M302.4,76.7c-0.2,0-0.3,0.1-0.5,0.2c-0.1,0.1-0.2,0.3-0.2,0.6c0,0.2,0,0.4,0.1,0.5s0.2,0.2,0.4,0.2
			c0.2,0,0.4-0.1,0.5-0.2s0.2-0.3,0.2-0.4c0-0.2-0.1-0.4-0.2-0.6C302.8,76.8,302.6,76.7,302.4,76.7 M304,77.9c0,0.9-0.2,1.5-0.5,1.9
			c-0.4,0.4-0.9,0.6-1.7,0.6c-0.3,0-0.5,0-0.6,0v-0.7c0.2,0,0.3,0.1,0.5,0.1c0.3,0,0.6,0,0.8-0.1c0.2-0.1,0.4-0.2,0.5-0.4
			c0.1-0.2,0.2-0.5,0.2-0.8l0,0c-0.1,0.2-0.3,0.3-0.4,0.4c-0.2,0.1-0.3,0.1-0.6,0.1c-0.4,0-0.7-0.1-0.9-0.4c-0.2-0.2-0.3-0.6-0.3-1
			c0-0.5,0.1-0.8,0.4-1.1c0.3-0.3,0.6-0.4,1.1-0.4c0.3,0,0.6,0.1,0.9,0.2c0.2,0.2,0.4,0.4,0.6,0.7C304,77.2,304,77.5,304,77.9"/>
	</g>
	<g>
		<defs>
			<rect id="SVGID_29_" x="-27.3" y="10.8" width="407.2" height="165.8"/>
		</defs>
		<clipPath id="SVGID_30_">
			<use xlink:href="#SVGID_29_"  style="overflow:visible;"/>
		</clipPath>
		<path class="st15" d="M305.6,79.8c-0.1,0.4-0.3,0.9-0.5,1.4h-0.7c0.1-0.5,0.2-1,0.3-1.5L305.6,79.8L305.6,79.8z"/>
	</g>
	<g>
		<defs>
			<rect id="SVGID_31_" x="-27.3" y="10.8" width="407.2" height="165.8"/>
		</defs>
		<clipPath id="SVGID_32_">
			<use xlink:href="#SVGID_31_"  style="overflow:visible;"/>
		</clipPath>
		<path class="st16" d="M307.8,76.7c-0.2,0-0.3,0.1-0.5,0.2c-0.1,0.1-0.2,0.3-0.2,0.6c0,0.2,0,0.4,0.1,0.5s0.2,0.2,0.4,0.2
			c0.2,0,0.4-0.1,0.5-0.2s0.2-0.3,0.2-0.4c0-0.2-0.1-0.4-0.2-0.6C308.1,76.8,308,76.7,307.8,76.7 M309.4,77.9c0,0.9-0.2,1.5-0.5,1.9
			c-0.4,0.4-0.9,0.6-1.7,0.6c-0.3,0-0.5,0-0.6,0v-0.7c0.2,0,0.3,0.1,0.5,0.1c0.3,0,0.6,0,0.8-0.1c0.2-0.1,0.4-0.2,0.5-0.4
			c0.1-0.2,0.2-0.5,0.2-0.8l0,0c-0.1,0.2-0.3,0.3-0.4,0.4c-0.2,0.1-0.3,0.1-0.6,0.1c-0.4,0-0.7-0.1-0.9-0.4c-0.2-0.2-0.3-0.6-0.3-1
			c0-0.5,0.1-0.8,0.4-1.1c0.3-0.3,0.6-0.4,1.1-0.4c0.3,0,0.6,0.1,0.9,0.2c0.2,0.2,0.4,0.4,0.6,0.7C309.3,77.2,309.4,77.5,309.4,77.9
			"/>
	</g>
	<g>
		<defs>
			<rect id="SVGID_33_" x="-27.3" y="10.8" width="407.2" height="165.8"/>
		</defs>
		<clipPath id="SVGID_34_">
			<use xlink:href="#SVGID_33_"  style="overflow:visible;"/>
		</clipPath>
		<path class="st17" d="M313.6,79.1c0,0.3,0,0.4,0.1,0.6c0,0.1,0.1,0.2,0.2,0.2c0.2,0,0.3-0.3,0.3-0.8s-0.1-0.8-0.3-0.8
			c-0.1,0-0.2,0.1-0.2,0.2C313.6,78.7,313.6,78.9,313.6,79.1 M314.9,79.1c0,0.5-0.1,0.8-0.3,1c-0.2,0.2-0.4,0.3-0.8,0.3
			c-0.3,0-0.6-0.1-0.8-0.4c-0.2-0.2-0.3-0.6-0.3-1c0-0.9,0.3-1.4,1-1.4c0.3,0,0.6,0.1,0.8,0.4C314.9,78.3,314.9,78.7,314.9,79.1
			 M313.9,76l-2.4,4.4h-0.7l2.4-4.4H313.9z M310.5,77.3c0,0.3,0,0.4,0.1,0.6c0,0.1,0.1,0.2,0.2,0.2c0.2,0,0.3-0.3,0.3-0.8
			s-0.1-0.8-0.3-0.8c-0.1,0-0.2,0.1-0.2,0.2C310.5,76.9,310.5,77.1,310.5,77.3 M311.9,77.3c0,0.5-0.1,0.8-0.3,1
			c-0.2,0.2-0.4,0.3-0.8,0.3c-0.3,0-0.6-0.1-0.8-0.4c-0.2-0.2-0.3-0.6-0.3-1c0-0.9,0.3-1.4,1-1.4c0.3,0,0.6,0.1,0.8,0.4
			S311.9,76.9,311.9,77.3"/>
	</g>
</g>
<rect x="300.7" y="80.8" class="st0" width="14.4" height="0.3"/>
<g>
	<g>
		<defs>
			<rect id="SVGID_35_" x="-27.3" y="10.8" width="407.2" height="165.8"/>
		</defs>
		<clipPath id="SVGID_36_">
			<use xlink:href="#SVGID_35_"  style="overflow:visible;"/>
		</clipPath>
		<path class="st18" d="M302.5,91.1c0.2,0,0.4-0.1,0.5-0.2s0.2-0.3,0.2-0.6c0-0.2,0-0.4-0.1-0.5s-0.2-0.2-0.5-0.2
			c-0.2,0-0.4,0.1-0.5,0.2s-0.2,0.3-0.2,0.4c0,0.2,0.1,0.4,0.2,0.6S302.3,91.1,302.5,91.1 M300.9,89.9c0-0.9,0.2-1.5,0.6-1.9
			s0.9-0.6,1.7-0.6c0.3,0,0.4,0,0.6,0v0.7c-0.2,0-0.4-0.1-0.5-0.1c-0.3,0-0.6,0-0.8,0.1c-0.2,0.1-0.4,0.2-0.5,0.4
			c-0.1,0.2-0.2,0.5-0.2,0.8l0,0c0.2-0.3,0.5-0.5,1-0.5c0.4,0,0.7,0.1,0.9,0.4c0.2,0.2,0.3,0.6,0.3,1c0,0.5-0.1,0.8-0.4,1.1
			c-0.3,0.3-0.6,0.4-1.1,0.4c-0.3,0-0.6-0.1-0.9-0.2c-0.2-0.2-0.4-0.4-0.6-0.7C301,90.7,300.9,90.3,300.9,89.9"/>
	</g>
	<g>
		<defs>
			<rect id="SVGID_37_" x="-27.3" y="10.8" width="407.2" height="165.8"/>
		</defs>
		<clipPath id="SVGID_38_">
			<use xlink:href="#SVGID_37_"  style="overflow:visible;"/>
		</clipPath>
		<path class="st19" d="M305.6,91.1c-0.1,0.4-0.3,0.9-0.5,1.4h-0.7c0.1-0.5,0.2-1,0.3-1.5L305.6,91.1L305.6,91.1z"/>
	</g>
</g>
<polygon class="st0" points="306.7,91.8 308.4,88.2 306.2,88.2 306.2,87.4 309.4,87.4 309.4,88 307.7,91.8 "/>
<g>
	<g>
		<defs>
			<rect id="SVGID_39_" x="-27.3" y="10.8" width="407.2" height="165.8"/>
		</defs>
		<clipPath id="SVGID_40_">
			<use xlink:href="#SVGID_39_"  style="overflow:visible;"/>
		</clipPath>
		<path class="st20" d="M313.6,90.5c0,0.3,0,0.4,0.1,0.6c0,0.1,0.1,0.2,0.2,0.2c0.2,0,0.3-0.3,0.3-0.8s-0.1-0.8-0.3-0.8
			c-0.1,0-0.2,0.1-0.2,0.2C313.6,90,313.6,90.2,313.6,90.5 M314.9,90.4c0,0.5-0.1,0.8-0.3,1c-0.2,0.2-0.4,0.3-0.8,0.3
			c-0.3,0-0.6-0.1-0.8-0.4c-0.2-0.2-0.3-0.6-0.3-1c0-0.9,0.3-1.4,1-1.4c0.3,0,0.6,0.1,0.8,0.4S314.9,90,314.9,90.4 M313.9,87.4
			l-2.4,4.4h-0.7l2.4-4.4H313.9z M310.5,88.7c0,0.3,0,0.4,0.1,0.6c0,0.1,0.1,0.2,0.2,0.2c0.2,0,0.3-0.3,0.3-0.8s-0.1-0.8-0.3-0.8
			c-0.1,0-0.2,0.1-0.2,0.2C310.5,88.2,310.5,88.4,310.5,88.7 M311.9,88.7c0,0.5-0.1,0.8-0.3,1c-0.2,0.2-0.4,0.3-0.8,0.3
			c-0.3,0-0.6-0.1-0.8-0.4c-0.2-0.2-0.3-0.6-0.3-1c0-0.9,0.3-1.4,1-1.4c0.3,0,0.6,0.1,0.8,0.4S311.9,88.2,311.9,88.7"/>
	</g>
</g>
<rect x="300.7" y="92.1" class="st0" width="14.4" height="0.3"/>
<g>
	<g>
		<defs>
			<rect id="SVGID_41_" x="-27.3" y="10.8" width="407.2" height="165.8"/>
		</defs>
		<clipPath id="SVGID_42_">
			<use xlink:href="#SVGID_41_"  style="overflow:visible;"/>
		</clipPath>
		<path class="st21" d="M303.9,100.8c0,0.3-0.1,0.5-0.2,0.7c-0.2,0.2-0.4,0.3-0.7,0.4l0,0c0.4,0,0.6,0.2,0.8,0.3
			c0.2,0.2,0.3,0.4,0.3,0.7c0,0.4-0.2,0.8-0.5,1s-0.7,0.4-1.3,0.4c-0.5,0-0.9-0.1-1.3-0.2v-0.8c0.2,0.1,0.4,0.2,0.6,0.2
			c0.2,0.1,0.4,0.1,0.6,0.1c0.3,0,0.5-0.1,0.7-0.2c0.1-0.1,0.2-0.3,0.2-0.5s-0.1-0.4-0.3-0.4s-0.4-0.1-0.8-0.1h-0.3v-0.7h0.3
			c0.3,0,0.6,0,0.8-0.1c0.2-0.1,0.2-0.2,0.2-0.5s-0.2-0.5-0.6-0.5c-0.1,0-0.3,0-0.4,0.1c-0.1,0-0.3,0.1-0.5,0.3l-0.4-0.6
			c0.4-0.3,0.9-0.4,1.4-0.4s0.8,0.1,1.1,0.3C303.7,100.2,303.9,100.4,303.9,100.8"/>
	</g>
	<g>
		<defs>
			<rect id="SVGID_43_" x="-27.3" y="10.8" width="407.2" height="165.8"/>
		</defs>
		<clipPath id="SVGID_44_">
			<use xlink:href="#SVGID_43_"  style="overflow:visible;"/>
		</clipPath>
		<path class="st22" d="M305.6,103.5c-0.1,0.4-0.3,0.9-0.5,1.4h-0.7c0.1-0.5,0.2-1,0.3-1.5L305.6,103.5L305.6,103.5z"/>
	</g>
	<g>
		<defs>
			<rect id="SVGID_45_" x="-27.3" y="10.8" width="407.2" height="165.8"/>
		</defs>
		<clipPath id="SVGID_46_">
			<use xlink:href="#SVGID_45_"  style="overflow:visible;"/>
		</clipPath>
		<path class="st23" d="M307.8,100.5c-0.2,0-0.3,0.1-0.5,0.2c-0.1,0.1-0.2,0.3-0.2,0.6c0,0.2,0,0.4,0.1,0.5s0.2,0.2,0.4,0.2
			c0.2,0,0.4-0.1,0.5-0.2s0.2-0.3,0.2-0.4c0-0.2-0.1-0.4-0.2-0.6C308.1,100.6,308,100.5,307.8,100.5 M309.4,101.7
			c0,0.9-0.2,1.5-0.5,1.9c-0.4,0.4-0.9,0.6-1.7,0.6c-0.3,0-0.5,0-0.6,0v-0.7c0.2,0,0.3,0.1,0.5,0.1c0.3,0,0.6,0,0.8-0.1
			c0.2-0.1,0.4-0.2,0.5-0.4c0.1-0.2,0.2-0.5,0.2-0.8l0,0c-0.1,0.2-0.3,0.3-0.4,0.4c-0.2,0.1-0.3,0.1-0.6,0.1c-0.4,0-0.7-0.1-0.9-0.4
			c-0.2-0.2-0.3-0.6-0.3-1c0-0.5,0.1-0.8,0.4-1.1c0.3-0.3,0.6-0.4,1.1-0.4c0.3,0,0.6,0.1,0.9,0.2c0.2,0.2,0.4,0.4,0.6,0.7
			C309.3,100.9,309.4,101.3,309.4,101.7"/>
	</g>
	<g>
		<defs>
			<rect id="SVGID_47_" x="-27.3" y="10.8" width="407.2" height="165.8"/>
		</defs>
		<clipPath id="SVGID_48_">
			<use xlink:href="#SVGID_47_"  style="overflow:visible;"/>
		</clipPath>
		<path class="st24" d="M313.6,102.9c0,0.3,0,0.4,0.1,0.6c0,0.1,0.1,0.2,0.2,0.2c0.2,0,0.3-0.3,0.3-0.8s-0.1-0.8-0.3-0.8
			c-0.1,0-0.2,0.1-0.2,0.2C313.6,102.4,313.6,102.6,313.6,102.9 M314.9,102.9c0,0.5-0.1,0.8-0.3,1c-0.2,0.2-0.4,0.3-0.8,0.3
			c-0.3,0-0.6-0.1-0.8-0.4c-0.2-0.2-0.3-0.6-0.3-1c0-0.9,0.3-1.4,1-1.4c0.3,0,0.6,0.1,0.8,0.4C314.9,102.1,314.9,102.4,314.9,102.9
			 M313.9,99.8l-2.4,4.4h-0.7l2.4-4.4H313.9z M310.5,101.1c0,0.3,0,0.4,0.1,0.6c0,0.1,0.1,0.2,0.2,0.2c0.2,0,0.3-0.3,0.3-0.8
			s-0.1-0.8-0.3-0.8c-0.1,0-0.2,0.1-0.2,0.2C310.5,100.7,310.5,100.9,310.5,101.1 M311.9,101.1c0,0.5-0.1,0.8-0.3,1
			c-0.2,0.2-0.4,0.3-0.8,0.3c-0.3,0-0.6-0.1-0.8-0.4s-0.3-0.6-0.3-1c0-0.9,0.3-1.4,1-1.4c0.3,0,0.6,0.1,0.8,0.4
			C311.8,100.3,311.9,100.7,311.9,101.1"/>
	</g>
</g>
<rect x="300.7" y="104.5" class="st0" width="14.4" height="0.3"/>
<g>
	<g>
		<defs>
			<rect id="SVGID_49_" x="-27.3" y="10.8" width="407.2" height="165.8"/>
		</defs>
		<clipPath id="SVGID_50_">
			<use xlink:href="#SVGID_49_"  style="overflow:visible;"/>
		</clipPath>
		<path class="st25" d="M304,115.3h-3v-0.6l1.1-1.1c0.3-0.3,0.5-0.6,0.6-0.7s0.2-0.3,0.2-0.4s0.1-0.2,0.1-0.3c0-0.2,0-0.3-0.1-0.4
			s-0.2-0.1-0.4-0.1c-0.2,0-0.3,0-0.5,0.1s-0.3,0.2-0.5,0.3l-0.5-0.6c0.2-0.2,0.4-0.3,0.5-0.4s0.3-0.1,0.5-0.2s0.4-0.1,0.6-0.1
			c0.3,0,0.5,0.1,0.7,0.2s0.4,0.2,0.5,0.4c0.1,0.2,0.2,0.4,0.2,0.6s0,0.4-0.1,0.6s-0.2,0.4-0.3,0.5c-0.1,0.2-0.4,0.5-0.8,0.8
			l-0.6,0.5l0,0h1.9v0.9H304z"/>
	</g>
	<g>
		<defs>
			<rect id="SVGID_51_" x="-27.3" y="10.8" width="407.2" height="165.8"/>
		</defs>
		<clipPath id="SVGID_52_">
			<use xlink:href="#SVGID_51_"  style="overflow:visible;"/>
		</clipPath>
		<path class="st26" d="M305.6,114.6c-0.1,0.4-0.3,0.9-0.5,1.4h-0.7c0.1-0.5,0.2-1,0.3-1.5L305.6,114.6L305.6,114.6z"/>
	</g>
	<g>
		<defs>
			<rect id="SVGID_53_" x="-27.3" y="10.8" width="407.2" height="165.8"/>
		</defs>
		<clipPath id="SVGID_54_">
			<use xlink:href="#SVGID_53_"  style="overflow:visible;"/>
		</clipPath>
		<path class="st27" d="M307.8,111.5c-0.2,0-0.3,0-0.4,0.1s-0.1,0.2-0.1,0.3c0,0.1,0,0.2,0.1,0.3c0.1,0.1,0.2,0.2,0.4,0.3
			c0.2-0.1,0.3-0.2,0.4-0.3c0.1-0.1,0.1-0.2,0.1-0.3c0-0.1,0-0.2-0.2-0.3C308.1,111.5,308,111.5,307.8,111.5 M307.1,114.1
			c0,0.2,0.1,0.3,0.2,0.4s0.3,0.1,0.5,0.1s0.4-0.1,0.5-0.1c0.1-0.1,0.2-0.2,0.2-0.4c0-0.1-0.1-0.3-0.2-0.4s-0.3-0.2-0.6-0.4
			C307.3,113.5,307.1,113.8,307.1,114.1 M307.8,110.8c0.4,0,0.8,0.1,1,0.3c0.3,0.2,0.4,0.5,0.4,0.8c0,0.2-0.1,0.4-0.2,0.6
			s-0.3,0.3-0.6,0.5c0.3,0.2,0.6,0.4,0.7,0.6s0.2,0.4,0.2,0.6c0,0.4-0.1,0.7-0.4,0.9c-0.3,0.2-0.7,0.3-1.1,0.3
			c-0.5,0-0.9-0.1-1.1-0.3c-0.3-0.2-0.4-0.5-0.4-0.9c0-0.3,0.1-0.5,0.2-0.7s0.3-0.4,0.6-0.5c-0.3-0.2-0.4-0.3-0.5-0.5
			s-0.2-0.4-0.2-0.6c0-0.3,0.1-0.6,0.4-0.8C307,110.9,307.4,110.8,307.8,110.8"/>
	</g>
	<g>
		<defs>
			<rect id="SVGID_55_" x="-27.3" y="10.8" width="407.2" height="165.8"/>
		</defs>
		<clipPath id="SVGID_56_">
			<use xlink:href="#SVGID_55_"  style="overflow:visible;"/>
		</clipPath>
		<path class="st28" d="M313.6,113.9c0,0.3,0,0.4,0.1,0.6c0,0.1,0.1,0.2,0.2,0.2c0.2,0,0.3-0.3,0.3-0.8s-0.1-0.8-0.3-0.8
			c-0.1,0-0.2,0.1-0.2,0.2C313.6,113.5,313.6,113.7,313.6,113.9 M314.9,113.9c0,0.5-0.1,0.8-0.3,1c-0.2,0.2-0.4,0.3-0.8,0.3
			c-0.3,0-0.6-0.1-0.8-0.4c-0.2-0.2-0.3-0.6-0.3-1c0-0.9,0.3-1.4,1-1.4c0.3,0,0.6,0.1,0.8,0.4C314.9,113.2,314.9,113.5,314.9,113.9
			 M313.9,110.9l-2.4,4.4h-0.7l2.4-4.4H313.9z M310.5,112.2c0,0.3,0,0.4,0.1,0.6c0,0.1,0.1,0.2,0.2,0.2c0.2,0,0.3-0.3,0.3-0.8
			s-0.1-0.8-0.3-0.8c-0.1,0-0.2,0.1-0.2,0.2C310.5,111.7,310.5,111.9,310.5,112.2 M311.9,112.2c0,0.5-0.1,0.8-0.3,1
			c-0.2,0.2-0.4,0.3-0.8,0.3c-0.3,0-0.6-0.1-0.8-0.4s-0.3-0.6-0.3-1c0-0.9,0.3-1.4,1-1.4c0.3,0,0.6,0.1,0.8,0.4
			C311.8,111.4,311.9,111.7,311.9,112.2"/>
	</g>
</g>
<rect x="300.7" y="115.6" class="st0" width="14.4" height="0.3"/>
<g>
	<g>
		<defs>
			<rect id="SVGID_57_" x="-27.3" y="10.8" width="407.2" height="165.8"/>
		</defs>
		<clipPath id="SVGID_58_">
			<use xlink:href="#SVGID_57_"  style="overflow:visible;"/>
		</clipPath>
		<path class="st29" d="M304,128h-3v-0.7l1.1-1.1c0.3-0.3,0.5-0.6,0.6-0.7s0.2-0.2,0.2-0.4c0-0.1,0.1-0.2,0.1-0.3
			c0-0.2,0-0.3-0.1-0.4s-0.2-0.1-0.4-0.1c-0.2,0-0.3,0-0.5,0.1s-0.3,0.2-0.5,0.3l-0.5-0.6c0.2-0.2,0.4-0.3,0.5-0.4s0.3-0.1,0.5-0.2
			c0.2,0,0.4-0.1,0.6-0.1c0.3,0,0.5,0,0.7,0.2c0.2,0.1,0.4,0.2,0.5,0.4c0.1,0.2,0.2,0.4,0.2,0.6s0,0.4-0.1,0.6s-0.2,0.4-0.3,0.5
			c-0.1,0.2-0.4,0.5-0.8,0.8l-0.6,0.5l0,0h1.9v1H304z"/>
	</g>
	<g>
		<defs>
			<rect id="SVGID_59_" x="-27.3" y="10.8" width="407.2" height="165.8"/>
		</defs>
		<clipPath id="SVGID_60_">
			<use xlink:href="#SVGID_59_"  style="overflow:visible;"/>
		</clipPath>
		<path class="st30" d="M305.6,127.3c-0.1,0.4-0.3,0.9-0.5,1.4h-0.7c0.1-0.5,0.2-1,0.3-1.5L305.6,127.3L305.6,127.3z"/>
	</g>
	<g>
		<defs>
			<rect id="SVGID_61_" x="-27.3" y="10.8" width="407.2" height="165.8"/>
		</defs>
		<clipPath id="SVGID_62_">
			<use xlink:href="#SVGID_61_"  style="overflow:visible;"/>
		</clipPath>
		<path class="st31" d="M308,126.3v-0.7c0-0.1,0-0.3,0-0.5s0-0.4,0-0.4l0,0c-0.1,0.2-0.2,0.3-0.3,0.5l-0.8,1.2L308,126.3L308,126.3z
			 M309.5,127.1H309v0.9h-1v-0.9h-1.9v-0.6l1.9-2.8h0.9v2.8h0.5v0.6H309.5z"/>
	</g>
	<g>
		<defs>
			<rect id="SVGID_63_" x="-27.3" y="10.8" width="407.2" height="165.8"/>
		</defs>
		<clipPath id="SVGID_64_">
			<use xlink:href="#SVGID_63_"  style="overflow:visible;"/>
		</clipPath>
		<path class="st32" d="M313.6,126.7c0,0.3,0,0.4,0.1,0.6c0,0.1,0.1,0.2,0.2,0.2c0.2,0,0.3-0.3,0.3-0.8s-0.1-0.8-0.3-0.8
			c-0.1,0-0.2,0.1-0.2,0.2C313.6,126.2,313.6,126.4,313.6,126.7 M314.9,126.7c0,0.5-0.1,0.8-0.3,1c-0.2,0.2-0.4,0.3-0.8,0.3
			c-0.3,0-0.6-0.1-0.8-0.4c-0.2-0.2-0.3-0.6-0.3-1c0-0.9,0.3-1.4,1-1.4c0.3,0,0.6,0.1,0.8,0.4S314.9,126.2,314.9,126.7 M313.9,123.6
			l-2.4,4.4h-0.7l2.4-4.4H313.9z M310.5,124.9c0,0.3,0,0.4,0.1,0.6c0,0.1,0.1,0.2,0.2,0.2c0.2,0,0.3-0.3,0.3-0.8s-0.1-0.8-0.3-0.8
			c-0.1,0-0.2,0.1-0.2,0.2C310.5,124.4,310.5,124.6,310.5,124.9 M311.9,124.9c0,0.5-0.1,0.8-0.3,1c-0.2,0.2-0.4,0.3-0.8,0.3
			c-0.3,0-0.6-0.1-0.8-0.4c-0.2-0.2-0.3-0.6-0.3-1c0-0.9,0.3-1.4,1-1.4c0.3,0,0.6,0.1,0.8,0.4C311.8,124.1,311.9,124.4,311.9,124.9"
			/>
	</g>
</g>
<rect x="300.7" y="128.3" class="st0" width="14.4" height="0.3"/>
<g>
	<g>
		<defs>
			<rect id="SVGID_65_" x="-27.3" y="10.8" width="407.2" height="165.8"/>
		</defs>
		<clipPath id="SVGID_66_">
			<use xlink:href="#SVGID_65_"  style="overflow:visible;"/>
		</clipPath>
		<path class="st33" d="M301.9,138.8c0,0.5,0,0.9,0.1,1.2c0.1,0.2,0.2,0.4,0.5,0.4c0.2,0,0.4-0.1,0.5-0.4c0.1-0.2,0.1-0.6,0.1-1.2
			c0-0.5,0-0.9-0.1-1.2c-0.1-0.2-0.3-0.4-0.5-0.4s-0.4,0.1-0.5,0.4S301.9,138.3,301.9,138.8 M304,138.8c0,0.8-0.1,1.3-0.4,1.7
			s-0.6,0.6-1.2,0.6c-0.5,0-0.9-0.2-1.2-0.6c-0.3-0.4-0.4-0.9-0.4-1.7s0.1-1.4,0.4-1.7c0.2-0.4,0.6-0.6,1.2-0.6
			c0.5,0,0.9,0.2,1.2,0.6C303.9,137.5,304,138.1,304,138.8"/>
	</g>
	<g>
		<defs>
			<rect id="SVGID_67_" x="-27.3" y="10.8" width="407.2" height="165.8"/>
		</defs>
		<clipPath id="SVGID_68_">
			<use xlink:href="#SVGID_67_"  style="overflow:visible;"/>
		</clipPath>
		<path class="st34" d="M305.6,140.4c-0.1,0.4-0.3,0.9-0.5,1.4h-0.7c0.1-0.5,0.2-1,0.3-1.5L305.6,140.4L305.6,140.4z"/>
	</g>
	<g>
		<defs>
			<rect id="SVGID_69_" x="-27.3" y="10.8" width="407.2" height="165.8"/>
		</defs>
		<clipPath id="SVGID_70_">
			<use xlink:href="#SVGID_69_"  style="overflow:visible;"/>
		</clipPath>
		<path class="st35" d="M307.8,137.2c-0.2,0-0.3,0-0.4,0.1s-0.1,0.2-0.1,0.3s0,0.2,0.1,0.3s0.2,0.2,0.4,0.3c0.2-0.1,0.3-0.2,0.4-0.3
			s0.1-0.2,0.1-0.3s0-0.2-0.2-0.3C308.1,137.3,308,137.2,307.8,137.2 M307.1,139.8c0,0.2,0.1,0.3,0.2,0.4c0.1,0.1,0.3,0.1,0.5,0.1
			s0.4,0,0.5-0.1s0.2-0.2,0.2-0.4c0-0.1-0.1-0.3-0.2-0.4c-0.1-0.1-0.3-0.2-0.6-0.4C307.3,139.3,307.1,139.5,307.1,139.8
			 M307.8,136.5c0.4,0,0.8,0.1,1,0.3c0.3,0.2,0.4,0.5,0.4,0.8c0,0.2-0.1,0.4-0.2,0.6s-0.3,0.3-0.6,0.5c0.3,0.2,0.6,0.4,0.7,0.6
			s0.2,0.4,0.2,0.6c0,0.4-0.1,0.7-0.4,0.9s-0.7,0.3-1.1,0.3c-0.5,0-0.9-0.1-1.1-0.3c-0.3-0.2-0.4-0.5-0.4-0.9c0-0.3,0.1-0.5,0.2-0.7
			s0.3-0.4,0.6-0.5c-0.3-0.2-0.4-0.3-0.5-0.5s-0.2-0.4-0.2-0.6c0-0.3,0.1-0.6,0.4-0.8C307,136.6,307.4,136.5,307.8,136.5"/>
	</g>
	<g>
		<defs>
			<rect id="SVGID_71_" x="-27.3" y="10.8" width="407.2" height="165.8"/>
		</defs>
		<clipPath id="SVGID_72_">
			<use xlink:href="#SVGID_71_"  style="overflow:visible;"/>
		</clipPath>
		<path class="st36" d="M313.6,139.7c0,0.3,0,0.4,0.1,0.6c0,0.1,0.1,0.2,0.2,0.2c0.2,0,0.3-0.3,0.3-0.8s-0.1-0.8-0.3-0.8
			c-0.1,0-0.2,0.1-0.2,0.2C313.6,139.2,313.6,139.4,313.6,139.7 M314.9,139.7c0,0.5-0.1,0.8-0.3,1c-0.2,0.2-0.4,0.3-0.8,0.3
			c-0.3,0-0.6-0.1-0.8-0.4s-0.3-0.6-0.3-1c0-0.9,0.3-1.4,1-1.4c0.3,0,0.6,0.1,0.8,0.4C314.9,138.9,314.9,139.2,314.9,139.7
			 M313.9,136.6l-2.4,4.4h-0.7l2.4-4.4H313.9z M310.5,137.9c0,0.3,0,0.4,0.1,0.6c0,0.1,0.1,0.2,0.2,0.2c0.2,0,0.3-0.3,0.3-0.8
			s-0.1-0.8-0.3-0.8c-0.1,0-0.2,0.1-0.2,0.2C310.5,137.5,310.5,137.7,310.5,137.9 M311.9,137.9c0,0.5-0.1,0.8-0.3,1
			c-0.2,0.2-0.4,0.3-0.8,0.3c-0.3,0-0.6-0.1-0.8-0.4c-0.2-0.2-0.3-0.6-0.3-1c0-0.9,0.3-1.4,1-1.4c0.3,0,0.6,0.1,0.8,0.4
			S311.9,137.5,311.9,137.9"/>
	</g>
</g>
<rect x="300.7" y="141.3" class="st0" width="14.4" height="0.3"/>
<g>
	<g>
		<defs>
			<rect id="SVGID_73_" x="-27.3" y="10.8" width="407.2" height="165.8"/>
		</defs>
		<clipPath id="SVGID_74_">
			<use xlink:href="#SVGID_73_"  style="overflow:visible;"/>
		</clipPath>
		<path class="st37" d="M301.9,150.7c0,0.5,0,0.9,0.1,1.2c0.1,0.2,0.2,0.4,0.5,0.4c0.2,0,0.4-0.1,0.5-0.4c0.1-0.2,0.1-0.6,0.1-1.2
			c0-0.5,0-0.9-0.1-1.2c-0.1-0.2-0.3-0.4-0.5-0.4s-0.4,0.1-0.5,0.4C301.9,149.8,301.9,150.1,301.9,150.7 M304,150.7
			c0,0.8-0.1,1.3-0.4,1.7s-0.6,0.6-1.2,0.6c-0.5,0-0.9-0.2-1.2-0.6c-0.3-0.4-0.4-0.9-0.4-1.7s0.1-1.4,0.4-1.7
			c0.2-0.4,0.6-0.6,1.2-0.6c0.5,0,0.9,0.2,1.2,0.6C303.9,149.4,304,149.9,304,150.7"/>
	</g>
	<g>
		<defs>
			<rect id="SVGID_75_" x="-27.3" y="10.8" width="407.2" height="165.8"/>
		</defs>
		<clipPath id="SVGID_76_">
			<use xlink:href="#SVGID_75_"  style="overflow:visible;"/>
		</clipPath>
		<path class="st38" d="M305.6,152.2c-0.1,0.4-0.3,0.9-0.5,1.4h-0.7c0.1-0.5,0.2-1,0.3-1.5L305.6,152.2L305.6,152.2z"/>
	</g>
	<g>
		<defs>
			<rect id="SVGID_77_" x="-27.3" y="10.8" width="407.2" height="165.8"/>
		</defs>
		<clipPath id="SVGID_78_">
			<use xlink:href="#SVGID_77_"  style="overflow:visible;"/>
		</clipPath>
		<path class="st39" d="M307.8,149.1c-0.2,0-0.3,0-0.4,0.1s-0.1,0.2-0.1,0.3s0,0.2,0.1,0.3s0.2,0.2,0.4,0.3c0.2-0.1,0.3-0.2,0.4-0.3
			s0.1-0.2,0.1-0.3s0-0.2-0.2-0.3C308.1,149.1,308,149.1,307.8,149.1 M307.1,151.7c0,0.2,0.1,0.3,0.2,0.4c0.1,0.1,0.3,0.1,0.5,0.1
			s0.4-0.1,0.5-0.1c0.1-0.1,0.2-0.2,0.2-0.4c0-0.1-0.1-0.3-0.2-0.4c-0.1-0.1-0.3-0.2-0.6-0.4C307.3,151.2,307.1,151.4,307.1,151.7
			 M307.8,148.4c0.4,0,0.8,0.1,1,0.3c0.3,0.2,0.4,0.5,0.4,0.8c0,0.2-0.1,0.4-0.2,0.6c-0.1,0.2-0.3,0.3-0.6,0.5
			c0.3,0.2,0.6,0.4,0.7,0.6c0.1,0.2,0.2,0.4,0.2,0.6c0,0.4-0.1,0.7-0.4,0.9s-0.7,0.3-1.1,0.3c-0.5,0-0.9-0.1-1.1-0.3
			c-0.3-0.2-0.4-0.5-0.4-0.9c0-0.3,0.1-0.5,0.2-0.7s0.3-0.4,0.6-0.5c-0.3-0.2-0.4-0.3-0.5-0.5s-0.2-0.4-0.2-0.6
			c0-0.3,0.1-0.6,0.4-0.8C307,148.5,307.4,148.4,307.8,148.4"/>
	</g>
	<g>
		<defs>
			<rect id="SVGID_79_" x="-27.3" y="10.8" width="407.2" height="165.8"/>
		</defs>
		<clipPath id="SVGID_80_">
			<use xlink:href="#SVGID_79_"  style="overflow:visible;"/>
		</clipPath>
		<path class="st40" d="M313.6,151.6c0,0.3,0,0.4,0.1,0.6c0,0.1,0.1,0.2,0.2,0.2c0.2,0,0.3-0.3,0.3-0.8s-0.1-0.8-0.3-0.8
			c-0.1,0-0.2,0.1-0.2,0.2C313.6,151.1,313.6,151.3,313.6,151.6 M314.9,151.6c0,0.5-0.1,0.8-0.3,1c-0.2,0.2-0.4,0.3-0.8,0.3
			c-0.3,0-0.6-0.1-0.8-0.4c-0.2-0.2-0.3-0.6-0.3-1c0-0.9,0.3-1.4,1-1.4c0.3,0,0.6,0.1,0.8,0.4C314.9,150.8,314.9,151.1,314.9,151.6
			 M313.9,148.5l-2.4,4.4h-0.7l2.4-4.4H313.9z M310.5,149.8c0,0.3,0,0.4,0.1,0.6c0,0.1,0.1,0.2,0.2,0.2c0.2,0,0.3-0.3,0.3-0.8
			s-0.1-0.8-0.3-0.8c-0.1,0-0.2,0.1-0.2,0.2C310.5,149.4,310.5,149.5,310.5,149.8 M311.9,149.8c0,0.5-0.1,0.8-0.3,1
			c-0.2,0.2-0.4,0.3-0.8,0.3c-0.3,0-0.6-0.1-0.8-0.4s-0.3-0.6-0.3-1c0-0.9,0.3-1.4,1-1.4c0.3,0,0.6,0.1,0.8,0.4
			C311.8,149,311.9,149.4,311.9,149.8"/>
	</g>
</g>
<rect x="300.7" y="153.2" class="st0" width="14.4" height="0.3"/>
<g>
	<g>
		<defs>
			<rect id="SVGID_81_" x="-27.3" y="10.8" width="407.2" height="165.8"/>
		</defs>
		<clipPath id="SVGID_82_">
			<use xlink:href="#SVGID_81_"  style="overflow:visible;"/>
		</clipPath>
		<path class="st41" d="M301.9,161.7c0,0.5,0,0.9,0.1,1.2c0.1,0.2,0.2,0.4,0.5,0.4c0.2,0,0.4-0.1,0.5-0.4c0.1-0.2,0.1-0.6,0.1-1.2
			c0-0.5,0-0.9-0.1-1.2c-0.1-0.2-0.3-0.4-0.5-0.4s-0.4,0.1-0.5,0.4C301.9,160.8,301.9,161.1,301.9,161.7 M304,161.7
			c0,0.8-0.1,1.3-0.4,1.7s-0.6,0.6-1.2,0.6c-0.5,0-0.9-0.2-1.2-0.6c-0.3-0.4-0.4-0.9-0.4-1.7s0.1-1.4,0.4-1.7
			c0.2-0.4,0.6-0.6,1.2-0.6c0.5,0,0.9,0.2,1.2,0.6C303.9,160.4,304,160.9,304,161.7"/>
	</g>
	<g>
		<defs>
			<rect id="SVGID_83_" x="-27.3" y="10.8" width="407.2" height="165.8"/>
		</defs>
		<clipPath id="SVGID_84_">
			<use xlink:href="#SVGID_83_"  style="overflow:visible;"/>
		</clipPath>
		<path class="st42" d="M305.6,163.2c-0.1,0.4-0.3,0.9-0.5,1.4h-0.7c0.1-0.5,0.2-1,0.3-1.5L305.6,163.2L305.6,163.2z"/>
	</g>
	<g>
		<defs>
			<rect id="SVGID_85_" x="-27.3" y="10.8" width="407.2" height="165.8"/>
		</defs>
		<clipPath id="SVGID_86_">
			<use xlink:href="#SVGID_85_"  style="overflow:visible;"/>
		</clipPath>
		<path class="st43" d="M307.8,160.1c-0.2,0-0.3,0-0.4,0.1s-0.1,0.2-0.1,0.3s0,0.2,0.1,0.3s0.2,0.2,0.4,0.3c0.2-0.1,0.3-0.2,0.4-0.3
			s0.1-0.2,0.1-0.3s0-0.2-0.2-0.3C308.1,160.1,308,160.1,307.8,160.1 M307.1,162.7c0,0.2,0.1,0.3,0.2,0.4c0.1,0.1,0.3,0.1,0.5,0.1
			s0.4-0.1,0.5-0.1c0.1-0.1,0.2-0.2,0.2-0.4c0-0.1-0.1-0.3-0.2-0.4c-0.1-0.1-0.3-0.2-0.6-0.4C307.3,162.2,307.1,162.4,307.1,162.7
			 M307.8,159.4c0.4,0,0.8,0.1,1,0.3c0.3,0.2,0.4,0.5,0.4,0.8c0,0.2-0.1,0.4-0.2,0.6s-0.3,0.3-0.6,0.5c0.3,0.2,0.6,0.4,0.7,0.6
			s0.2,0.4,0.2,0.6c0,0.4-0.1,0.7-0.4,0.9s-0.7,0.3-1.1,0.3c-0.5,0-0.9-0.1-1.1-0.3c-0.3-0.2-0.4-0.5-0.4-0.9c0-0.3,0.1-0.5,0.2-0.7
			s0.3-0.4,0.6-0.5c-0.3-0.2-0.4-0.3-0.5-0.5s-0.2-0.4-0.2-0.6c0-0.3,0.1-0.6,0.4-0.8C307,159.5,307.4,159.4,307.8,159.4"/>
	</g>
	<g>
		<defs>
			<rect id="SVGID_87_" x="-27.3" y="10.8" width="407.2" height="165.8"/>
		</defs>
		<clipPath id="SVGID_88_">
			<use xlink:href="#SVGID_87_"  style="overflow:visible;"/>
		</clipPath>
		<path class="st44" d="M313.6,162.6c0,0.3,0,0.4,0.1,0.6c0,0.1,0.1,0.2,0.2,0.2c0.2,0,0.3-0.3,0.3-0.8s-0.1-0.8-0.3-0.8
			c-0.1,0-0.2,0.1-0.2,0.2C313.6,162.1,313.6,162.3,313.6,162.6 M314.9,162.6c0,0.5-0.1,0.8-0.3,1c-0.2,0.2-0.4,0.3-0.8,0.3
			c-0.3,0-0.6-0.1-0.8-0.4c-0.2-0.2-0.3-0.6-0.3-1c0-0.9,0.3-1.4,1-1.4c0.3,0,0.6,0.1,0.8,0.4C314.9,161.8,314.9,162.1,314.9,162.6
			 M313.9,159.5l-2.4,4.4h-0.7l2.4-4.4H313.9z M310.5,160.8c0,0.3,0,0.4,0.1,0.6c0,0.1,0.1,0.2,0.2,0.2c0.2,0,0.3-0.3,0.3-0.8
			s-0.1-0.8-0.3-0.8c-0.1,0-0.2,0.1-0.2,0.2C310.5,160.4,310.5,160.5,310.5,160.8 M311.9,160.8c0,0.5-0.1,0.8-0.3,1
			c-0.2,0.2-0.4,0.3-0.8,0.3c-0.3,0-0.6-0.1-0.8-0.4c-0.2-0.2-0.3-0.6-0.3-1c0-0.9,0.3-1.4,1-1.4c0.3,0,0.6,0.1,0.8,0.4
			S311.9,160.3,311.9,160.8"/>
	</g>
</g>
<rect x="300.7" y="164.2" class="st0" width="14.4" height="0.3"/>
<rect x="177.9" y="18.4" class="st45" width="34.1" height="9"/>
<polygon class="st0" points="183,24.1 182.1,24.1 182.1,20.6 180.9,20.6 180.9,19.8 184.1,19.8 184.1,20.6 183,20.6 "/>
<g>
	<g>
		<defs>
			<rect id="SVGID_89_" x="-27.3" y="10.8" width="407.2" height="165.8"/>
		</defs>
		<clipPath id="SVGID_90_">
			<use xlink:href="#SVGID_89_"  style="overflow:visible;"/>
		</clipPath>
		<path class="st46" d="M185.5,22c0,0.5,0.1,0.8,0.3,1.1c0.2,0.2,0.4,0.4,0.8,0.4c0.7,0,1.1-0.5,1.1-1.4c0-1-0.4-1.4-1.1-1.4
			c-0.4,0-0.6,0.1-0.8,0.4C185.6,21.1,185.5,21.5,185.5,22 M188.6,22c0,0.7-0.2,1.2-0.5,1.6s-0.8,0.6-1.5,0.6
			c-0.6,0-1.2-0.2-1.5-0.6s-0.5-0.9-0.5-1.6s0.2-1.2,0.5-1.6s0.9-0.6,1.5-0.6c0.7,0,1.2,0.2,1.5,0.6C188.5,20.7,188.6,21.3,188.6,22
			"/>
	</g>
</g>
<polygon class="st0" points="191.2,24.1 190.3,24.1 190.3,20.6 189.1,20.6 189.1,19.8 192.3,19.8 192.3,20.6 191.2,20.6 "/>
<g>
	<g>
		<defs>
			<rect id="SVGID_91_" x="-27.3" y="10.8" width="407.2" height="165.8"/>
		</defs>
		<clipPath id="SVGID_92_">
			<use xlink:href="#SVGID_91_"  style="overflow:visible;"/>
		</clipPath>
		<path class="st47" d="M195.1,22.3c-0.3-0.9-0.4-1.4-0.5-1.6c0-0.1-0.1-0.2-0.1-0.3c-0.1,0.2-0.2,0.9-0.5,1.8h1.1V22.3z
			 M195.6,24.1l-0.3-1h-1.6l-0.3,1h-1l1.5-4.3h1.1l1.5,4.3C196.5,24.1,195.6,24.1,195.6,24.1z"/>
	</g>
</g>
<polygon class="st0" points="197.1,24.1 197.1,19.8 198,19.8 198,23.4 199.7,23.4 199.7,24.1 "/>
<g>
	<g>
		<defs>
			<rect id="SVGID_93_" x="-27.3" y="10.8" width="407.2" height="165.8"/>
		</defs>
		<clipPath id="SVGID_94_">
			<use xlink:href="#SVGID_93_"  style="overflow:visible;"/>
		</clipPath>
		<path class="st48" d="M204.7,24.1h-3v-0.6l1.1-1.1c0.3-0.3,0.5-0.5,0.6-0.7c0.1-0.1,0.2-0.2,0.2-0.3c0-0.1,0.1-0.2,0.1-0.3
			c0-0.2,0-0.3-0.1-0.4s-0.2-0.1-0.4-0.1s-0.3,0-0.5,0.1s-0.3,0.2-0.5,0.3l-0.5-0.6c0.2-0.2,0.4-0.3,0.5-0.4s0.3-0.1,0.5-0.2
			c0.2,0,0.3-0.1,0.5-0.1c0.3,0,0.5,0,0.7,0.1s0.4,0.2,0.5,0.4c0.1,0.2,0.2,0.4,0.2,0.6s0,0.4-0.1,0.6s-0.2,0.3-0.3,0.5
			s-0.4,0.4-0.8,0.8l-0.5,0.5l0,0h1.9L204.7,24.1L204.7,24.1z"/>
	</g>
	<g>
		<defs>
			<rect id="SVGID_95_" x="-27.3" y="10.8" width="407.2" height="165.8"/>
		</defs>
		<clipPath id="SVGID_96_">
			<use xlink:href="#SVGID_95_"  style="overflow:visible;"/>
		</clipPath>
		<path class="st49" d="M206.6,21.4c0.4,0,0.7,0.1,1,0.3c0.2,0.2,0.4,0.5,0.4,0.9c0,0.5-0.1,0.8-0.4,1.1c-0.3,0.3-0.7,0.4-1.3,0.4
			c-0.5,0-0.9-0.1-1.1-0.2v-0.8c0.2,0.1,0.3,0.1,0.5,0.2s0.4,0.1,0.6,0.1c0.5,0,0.8-0.2,0.8-0.7c0-0.4-0.3-0.6-0.9-0.6
			c-0.1,0-0.2,0-0.3,0s-0.2,0-0.3,0.1l-0.4-0.2l0.2-2.2h2.3v0.8h-1.5l-0.1,0.8h0.1C206.3,21.4,206.5,21.4,206.6,21.4"/>
	</g>
	<g>
		<defs>
			<rect id="SVGID_97_" x="-27.3" y="10.8" width="407.2" height="165.8"/>
		</defs>
		<clipPath id="SVGID_98_">
			<use xlink:href="#SVGID_97_"  style="overflow:visible;"/>
		</clipPath>
		<path class="st50" d="M211.3,20.8c0,0.3-0.1,0.5-0.2,0.7c-0.2,0.2-0.4,0.3-0.7,0.4l0,0c0.3,0,0.6,0.1,0.8,0.3
			c0.2,0.2,0.3,0.4,0.3,0.7c0,0.4-0.1,0.7-0.4,1c-0.3,0.2-0.7,0.3-1.3,0.3c-0.5,0-0.9-0.1-1.2-0.2v-0.8c0.2,0.1,0.3,0.2,0.5,0.2
			c0.2,0.1,0.4,0.1,0.6,0.1c0.3,0,0.5-0.1,0.7-0.2c0.1-0.1,0.2-0.3,0.2-0.5s-0.1-0.3-0.2-0.4c-0.2-0.1-0.4-0.1-0.8-0.1h-0.3v-0.7
			h0.3c0.3,0,0.6,0,0.7-0.1c0.2-0.1,0.2-0.2,0.2-0.4c0-0.3-0.2-0.5-0.6-0.5c-0.1,0-0.3,0-0.4,0.1c-0.1,0-0.3,0.1-0.5,0.2l-0.4-0.6
			c0.4-0.3,0.8-0.4,1.4-0.4c0.4,0,0.8,0.1,1,0.3C211.2,20.2,211.3,20.5,211.3,20.8"/>
	</g>
</g>
<rect x="180.8" y="24.4" class="st0" width="30.9" height="0.3"/>
<g>
	<path class="st51" d="M82.8,29.2h-0.7v-3.6h2v0.6h-1.3v0.9H84v0.6h-1.2V29.2z"/>
	<path class="st51" d="M86.9,29.2h-2.1v-3.6h2.1v0.6h-1.3V27h1.2v0.6h-1.2v0.9h1.3V29.2z"/>
	<path class="st51" d="M89.8,29.2l-0.3-0.8h-1.3L88,29.2h-0.8l1.3-3.6h0.9l1.3,3.6H89.8z M89.4,27.7c-0.2-0.8-0.4-1.2-0.4-1.3
		c0-0.1-0.1-0.2-0.1-0.2c-0.1,0.2-0.2,0.7-0.5,1.5H89.4z"/>
	<path class="st51" d="M92.5,29.2h-0.8v-2.9h-1v-0.6h2.7v0.6h-1v2.9H92.5z"/>
	<path class="st51" d="M96.9,25.6v2.3c0,0.3-0.1,0.5-0.2,0.7s-0.3,0.4-0.5,0.5s-0.5,0.2-0.8,0.2c-0.5,0-0.8-0.1-1.1-0.4
		c-0.3-0.2-0.4-0.6-0.4-1v-2.3h0.8v2.2c0,0.3,0.1,0.5,0.2,0.6s0.3,0.2,0.5,0.2s0.4-0.1,0.5-0.2s0.2-0.3,0.2-0.6v-2.2
		C96.1,25.6,96.9,25.6,96.9,25.6z"/>
	<path class="st51" d="M98.5,27.8v1.4h-0.8v-3.6h1c0.5,0,0.8,0.1,1.1,0.3c0.2,0.2,0.3,0.4,0.3,0.8c0,0.2-0.1,0.4-0.2,0.6
		s-0.3,0.3-0.5,0.4c0.5,0.8,0.9,1.3,1,1.6h-0.8l-0.9-1.4L98.5,27.8L98.5,27.8z M98.5,27.2h0.2c0.2,0,0.4,0,0.5-0.1s0.2-0.2,0.2-0.4
		c0-0.2-0.1-0.3-0.2-0.4s-0.3-0.1-0.5-0.1h-0.2V27.2z"/>
	<path class="st51" d="M103.1,29.2H101v-3.6h2.1v0.6h-1.3V27h1.2v0.6h-1.2v0.9h1.3V29.2z"/>
</g>
<g>
	<path class="st52" d="M38.2,41.8c0,0.4-0.1,0.7-0.4,0.9s-0.6,0.3-1,0.3h-0.4v1.3h-0.6v-3.6h1c0.4,0,0.8,0.1,1,0.3
		C38.1,41.2,38.2,41.5,38.2,41.8z M36.4,42.5h0.3c0.3,0,0.5-0.1,0.7-0.2s0.2-0.3,0.2-0.5s-0.1-0.4-0.2-0.5s-0.3-0.2-0.6-0.2h-0.4
		V42.5z"/>
	<path class="st52" d="M40.9,44.3h-2v-3.6h2v0.5h-1.4v1h1.3v0.5h-1.3v1.1h1.4V44.3z"/>
	<path class="st52" d="M44.9,42.5c0,0.6-0.1,1-0.4,1.4c-0.3,0.3-0.7,0.5-1.2,0.5s-1-0.2-1.2-0.5c-0.3-0.3-0.4-0.8-0.4-1.4
		s0.1-1,0.4-1.4c0.3-0.3,0.7-0.5,1.2-0.5s0.9,0.2,1.2,0.5S44.9,42,44.9,42.5z M42.1,42.5c0,0.4,0.1,0.8,0.3,1s0.4,0.3,0.8,0.3
		c0.3,0,0.6-0.1,0.8-0.3s0.3-0.6,0.3-1s-0.1-0.8-0.3-1s-0.4-0.3-0.8-0.3c-0.4,0-0.6,0.1-0.8,0.3C42.2,41.8,42.1,42.1,42.1,42.5z"/>
	<path class="st52" d="M48,41.8c0,0.4-0.1,0.7-0.4,0.9S47,43,46.6,43h-0.4v1.3h-0.6v-3.6h1c0.4,0,0.8,0.1,1,0.3
		C47.9,41.2,48,41.5,48,41.8z M46.2,42.5h0.3c0.3,0,0.5-0.1,0.7-0.2s0.2-0.3,0.2-0.5s-0.1-0.4-0.2-0.5s-0.3-0.2-0.6-0.2h-0.4V42.5z"
		/>
	<path class="st52" d="M48.7,44.3v-3.6h0.6v3.1h1.5v0.5H48.7z"/>
	<path class="st52" d="M53.4,44.3h-2v-3.6h2v0.5H52v1h1.3v0.5H52v1.1h1.4V44.3z"/>
	<path class="st52" d="M56.1,44.3h-0.6v-3.6h2v0.5h-1.4v1.1h1.3v0.5h-1.3V44.3z"/>
	<path class="st52" d="M58.2,44.3v-3.6h0.6v3.1h1.5v0.5H58.2z"/>
	<path class="st52" d="M64.1,42.5c0,0.6-0.1,1-0.4,1.4c-0.3,0.3-0.7,0.5-1.2,0.5s-1-0.2-1.2-0.5c-0.3-0.3-0.4-0.8-0.4-1.4
		s0.1-1,0.4-1.4c0.3-0.3,0.7-0.5,1.2-0.5s0.9,0.2,1.2,0.5S64.1,42,64.1,42.5z M61.3,42.5c0,0.4,0.1,0.8,0.3,1s0.4,0.3,0.8,0.3
		c0.3,0,0.6-0.1,0.8-0.3s0.3-0.6,0.3-1s-0.1-0.8-0.3-1s-0.4-0.3-0.8-0.3c-0.4,0-0.6,0.1-0.8,0.3C61.4,41.8,61.3,42.1,61.3,42.5z"/>
	<path class="st52" d="M68.1,44.3h-0.6l-0.6-2.1c0-0.1-0.1-0.2-0.1-0.4s-0.1-0.3-0.1-0.4c0,0.1,0,0.2-0.1,0.4c0,0.2-0.1,0.3-0.1,0.4
		l-0.6,2.1h-0.6l-0.5-1.8l-0.5-1.8H65l0.5,2.1c0.1,0.3,0.1,0.6,0.2,0.9c0-0.1,0-0.3,0.1-0.5s0.1-0.3,0.1-0.4l0.6-2.1H67l0.6,2.1
		c0.1,0.2,0.1,0.5,0.2,0.9c0-0.2,0.1-0.5,0.2-0.9l0.5-2.1H69L68.1,44.3z"/>
	<path class="st52" d="M72.4,44.3l-1-3l0,0c0,0.4,0,0.9,0,1.2v1.7h-0.5v-3.6h0.8l1,2.8l0,0l1-2.8h0.8v3.6H74v-1.8c0-0.2,0-0.4,0-0.7
		s0-0.5,0-0.5l0,0l-1.1,3L72.4,44.3L72.4,44.3z"/>
	<path class="st52" d="M78.6,42.5c0,0.6-0.1,1-0.4,1.4c-0.3,0.3-0.7,0.5-1.2,0.5s-1-0.2-1.2-0.5c-0.3-0.3-0.4-0.8-0.4-1.4
		s0.1-1,0.4-1.4c0.3-0.3,0.7-0.5,1.2-0.5s0.9,0.2,1.2,0.5S78.6,42,78.6,42.5z M75.9,42.5c0,0.4,0.1,0.8,0.3,1
		c0.2,0.2,0.4,0.3,0.8,0.3c0.3,0,0.6-0.1,0.8-0.3c0.2-0.2,0.3-0.6,0.3-1s-0.1-0.8-0.3-1c-0.2-0.2-0.4-0.3-0.8-0.3s-0.6,0.1-0.8,0.3
		C76,41.8,75.9,42.1,75.9,42.5z"/>
	<path class="st52" d="M82.4,44.3h-0.7l-1.8-2.8l0,0v0.2c0,0.3,0,0.6,0,0.8v1.9h-0.5v-3.6h0.7l1.8,2.8l0,0c0,0,0-0.2,0-0.4
		s0-0.4,0-0.6v-1.9h0.5V44.3z"/>
	<path class="st52" d="M83.3,44.3v-3.6h0.6v3.6H83.3z"/>
	<path class="st52" d="M86.1,44.3h-0.6v-3.1h-1v-0.5h2.7v0.5h-1L86.1,44.3L86.1,44.3z"/>
	<path class="st52" d="M90.8,42.5c0,0.6-0.1,1-0.4,1.4c-0.3,0.3-0.7,0.5-1.2,0.5s-1-0.2-1.2-0.5c-0.3-0.3-0.4-0.8-0.4-1.4
		s0.1-1,0.4-1.4c0.3-0.3,0.7-0.5,1.2-0.5s0.9,0.2,1.2,0.5S90.8,42,90.8,42.5z M88.1,42.5c0,0.4,0.1,0.8,0.3,1
		c0.2,0.2,0.4,0.3,0.8,0.3c0.3,0,0.6-0.1,0.8-0.3c0.2-0.2,0.3-0.6,0.3-1s-0.1-0.8-0.3-1c-0.2-0.2-0.4-0.3-0.8-0.3s-0.6,0.1-0.8,0.3
		C88.2,41.8,88.1,42.1,88.1,42.5z"/>
	<path class="st52" d="M92.2,42.9v1.4h-0.6v-3.6h1c0.5,0,0.8,0.1,1,0.3s0.3,0.4,0.3,0.8c0,0.4-0.2,0.8-0.7,0.9l1,1.6h-0.7l-0.9-1.4
		H92.2z M92.2,42.4h0.4c0.3,0,0.5-0.1,0.6-0.2s0.2-0.3,0.2-0.4c0-0.2-0.1-0.3-0.2-0.4s-0.3-0.1-0.6-0.1h-0.4V42.4z"/>
	<path class="st52" d="M94.8,44.3v-3.6h0.6v3.6H94.8z"/>
	<path class="st52" d="M99.3,44.3h-0.7l-1.8-2.8l0,0v0.2c0,0.3,0,0.6,0,0.8v1.9h-0.5v-3.6H97l1.8,2.8l0,0c0,0,0-0.2,0-0.4
		s0-0.4,0-0.6v-1.9h0.5V44.3z"/>
	<path class="st52" d="M101.7,42.4h1.3v1.8c-0.2,0.1-0.4,0.1-0.6,0.1s-0.4,0-0.6,0c-0.5,0-1-0.2-1.2-0.5c-0.3-0.3-0.4-0.8-0.4-1.4
		c0-0.6,0.2-1,0.5-1.3s0.8-0.5,1.4-0.5c0.4,0,0.7,0.1,1.1,0.2l-0.2,0.5c-0.3-0.1-0.6-0.2-0.9-0.2c-0.4,0-0.7,0.1-0.9,0.4
		s-0.3,0.6-0.3,1s0.1,0.8,0.3,1c0.2,0.2,0.5,0.3,0.9,0.3c0.2,0,0.4,0,0.6-0.1v-0.9H102v-0.4H101.7z"/>
</g>
<g>
	<path class="st53" d="M70,56.5h-0.6v-3.1h-1v-0.5H71v0.5h-1V56.5z"/>
	<path class="st53" d="M73.6,56.5h-2v-3.6h2v0.5h-1.4v1h1.3v0.5h-1.3V56h1.4V56.5z"/>
	<path class="st53" d="M74.4,56.5v-3.6H75V56h1.5v0.5H74.4z"/>
	<path class="st53" d="M79.1,56.5h-2v-3.6h2v0.5h-1.4v1H79v0.5h-1.3V56h1.4V56.5z"/>
	<path class="st53" d="M81.4,56.5l-1-3l0,0c0,0.4,0,0.9,0,1.2v1.7h-0.5v-3.6h0.8l1,2.8l0,0l1-2.8h0.8v3.6H83v-1.8c0-0.2,0-0.4,0-0.7
		s0-0.5,0-0.5l0,0l-1.1,3L81.4,56.5L81.4,56.5z"/>
	<path class="st53" d="M86.5,56.5h-2v-3.6h2v0.5h-1.4v1h1.3v0.5h-1.3V56h1.4V56.5z"/>
	<path class="st53" d="M90.2,54.7c0,0.6-0.2,1-0.5,1.4c-0.3,0.3-0.8,0.5-1.4,0.5h-1V53h1.1c0.6,0,1,0.2,1.3,0.5S90.2,54.1,90.2,54.7
		z M89.6,54.7c0-0.9-0.4-1.3-1.2-1.3h-0.5V56h0.4C89.1,56,89.6,55.6,89.6,54.7z"/>
	<path class="st53" d="M90.9,56.5v-3.6h0.6v3.6H90.9z"/>
	<path class="st53" d="M94,53.4c-0.3,0-0.6,0.1-0.8,0.4s-0.3,0.6-0.3,1s0.1,0.8,0.3,1c0.2,0.2,0.5,0.3,0.8,0.3c0.2,0,0.3,0,0.4,0
		s0.3-0.1,0.4-0.1v0.5c-0.3,0.1-0.6,0.2-1,0.2c-0.5,0-0.9-0.2-1.2-0.5c-0.3-0.3-0.4-0.8-0.4-1.4c0-0.4,0.1-0.7,0.2-1
		s0.3-0.5,0.6-0.6s0.6-0.2,0.9-0.2c0.4,0,0.7,0.1,1,0.2l-0.2,0.5c-0.1-0.1-0.2-0.1-0.4-0.2C94.3,53.4,94.1,53.4,94,53.4z"/>
	<path class="st53" d="M95.6,56.5v-3.6h0.6v3.6H95.6z"/>
	<path class="st53" d="M100.1,56.5h-0.7l-1.8-2.8l0,0v0.2c0,0.3,0,0.6,0,0.8v1.9h-0.5V53h0.7l1.8,2.8l0,0c0,0,0-0.2,0-0.4
		s0-0.4,0-0.6v-1.9h0.5V56.5z"/>
	<path class="st53" d="M103.1,56.5h-2v-3.6h2v0.5h-1.4v1h1.3v0.5h-1.3V56h1.4V56.5z"/>
</g>
<g>
	<path class="st54" d="M53.6,65.1h1.1c0.5,0,0.8,0.1,1.1,0.2c0.2,0.1,0.3,0.4,0.3,0.7c0,0.2-0.1,0.4-0.2,0.5s-0.3,0.2-0.5,0.3l0,0
		c0.3,0,0.4,0.1,0.6,0.3c0.1,0.1,0.2,0.3,0.2,0.6c0,0.3-0.1,0.6-0.3,0.8c-0.2,0.2-0.5,0.3-0.9,0.3h-1.3L53.6,65.1L53.6,65.1z
		 M54.2,66.6h0.6c0.2,0,0.4,0,0.5-0.1s0.2-0.2,0.2-0.4c0-0.2-0.1-0.3-0.2-0.4c-0.1-0.1-0.3-0.1-0.6-0.1h-0.5V66.6z M54.2,67v1.1h0.6
		c0.2,0,0.4,0,0.6-0.1c0.1-0.1,0.2-0.2,0.2-0.4c0-0.2-0.1-0.3-0.2-0.4S55,67,54.8,67H54.2z"/>
	<path class="st54" d="M60,66.9c0,0.6-0.1,1-0.4,1.4c-0.3,0.3-0.7,0.5-1.2,0.5s-1-0.2-1.2-0.5c-0.3-0.3-0.4-0.8-0.4-1.4
		s0.1-1,0.4-1.4c0.3-0.3,0.7-0.5,1.2-0.5s0.9,0.2,1.2,0.5S60,66.3,60,66.9z M57.3,66.9c0,0.4,0.1,0.8,0.3,1s0.4,0.3,0.8,0.3
		c0.3,0,0.6-0.1,0.8-0.3c0.2-0.2,0.3-0.6,0.3-1s-0.1-0.8-0.3-1s-0.4-0.3-0.8-0.3c-0.4,0-0.6,0.1-0.8,0.3
		C57.4,66.1,57.3,66.4,57.3,66.9z"/>
	<path class="st54" d="M63.7,66.8c0,0.6-0.2,1-0.5,1.4c-0.3,0.3-0.8,0.5-1.4,0.5h-1v-3.6h1.1c0.6,0,1,0.2,1.3,0.5
		S63.7,66.3,63.7,66.8z M63.1,66.8c0-0.9-0.4-1.3-1.2-1.3h-0.5v2.6h0.4C62.7,68.2,63.1,67.7,63.1,66.8z"/>
	<path class="st54" d="M65.5,66.7l0.8-1.6H67l-1.2,2.2v1.4h-0.6v-1.4L64,65.1h0.6L65.5,66.7z"/>
	<path class="st54" d="M70,68.6h-0.6v-3.1h-1V65H71v0.5h-1V68.6z"/>
	<path class="st54" d="M73.6,68.6h-2V65h2v0.5h-1.4v1h1.3V67h-1.3v1.1h1.4V68.6z"/>
	<path class="st54" d="M75.9,68.6l-1-3l0,0c0,0.4,0,0.9,0,1.2v1.7h-0.5v-3.6h0.8l1,2.8l0,0l1-2.8H78v3.6h-0.6v-1.8
		c0-0.2,0-0.4,0-0.7c0-0.3,0-0.5,0-0.5l0,0l-1.1,3h-0.4V68.6z"/>
	<path class="st54" d="M81.3,66.2c0,0.4-0.1,0.7-0.4,0.9s-0.6,0.3-1,0.3h-0.4v1.3H79v-3.6h1c0.4,0,0.8,0.1,1,0.3
		C81.2,65.5,81.3,65.8,81.3,66.2z M79.6,66.8h0.3c0.3,0,0.5-0.1,0.7-0.2s0.2-0.3,0.2-0.5s-0.1-0.4-0.2-0.5s-0.3-0.2-0.6-0.2h-0.4
		V66.8z"/>
	<path class="st54" d="M84.1,68.6h-2V65h2v0.5h-1.4v1H84V67h-1.3v1.1h1.4V68.6z"/>
	<path class="st54" d="M85.4,67.2v1.4h-0.6V65h1c0.5,0,0.8,0.1,1,0.3s0.3,0.4,0.3,0.8s-0.2,0.8-0.7,0.9l1,1.6h-0.7L86,67.2H85.4z
		 M85.4,66.7h0.4c0.3,0,0.5-0.1,0.6-0.2s0.2-0.3,0.2-0.4c0-0.2-0.1-0.3-0.2-0.4s-0.3-0.1-0.6-0.1h-0.4V66.7z"/>
	<path class="st54" d="M90.3,68.6l-0.4-1h-1.4l-0.3,1h-0.6l1.3-3.6h0.6l1.3,3.6H90.3z M89.7,67.2l-0.3-1c0-0.1-0.1-0.2-0.1-0.3
		c0-0.1-0.1-0.2-0.1-0.3c0,0.2-0.1,0.4-0.2,0.7l-0.3,0.9C88.7,67.2,89.7,67.2,89.7,67.2z"/>
	<path class="st54" d="M92.6,68.6H92v-3.1h-1V65h2.7v0.5h-1L92.6,68.6L92.6,68.6z"/>
	<path class="st54" d="M97,65.1v2.3c0,0.3-0.1,0.5-0.2,0.7s-0.3,0.3-0.5,0.5c-0.2,0.1-0.5,0.2-0.8,0.2c-0.4,0-0.8-0.1-1-0.4
		s-0.4-0.6-0.4-1v-2.3h0.6v2.3c0,0.3,0.1,0.5,0.2,0.7s0.3,0.2,0.6,0.2c0.6,0,0.8-0.3,0.8-0.9v-2.3L97,65.1L97,65.1z"/>
	<path class="st54" d="M98.5,67.2v1.4h-0.6V65h1c0.5,0,0.8,0.1,1,0.3s0.3,0.4,0.3,0.8s-0.2,0.8-0.7,0.9l1,1.6h-0.7L99,67.2H98.5z
		 M98.5,66.7h0.4c0.3,0,0.5-0.1,0.6-0.2s0.2-0.3,0.2-0.4c0-0.2-0.1-0.3-0.2-0.4s-0.3-0.1-0.6-0.1h-0.4V66.7z"/>
	<path class="st54" d="M103.1,68.6h-2V65h2v0.5h-1.4v1h1.3V67h-1.3v1.1h1.4V68.6z"/>
</g>
<g>
	<path class="st55" d="M52.9,77.5c-0.3,0-0.6,0.1-0.8,0.4s-0.3,0.6-0.3,1s0.1,0.8,0.3,1s0.5,0.3,0.8,0.3c0.2,0,0.3,0,0.4,0
		c0.1,0,0.3-0.1,0.4-0.1v0.5c-0.3,0.1-0.6,0.2-1,0.2c-0.5,0-0.9-0.2-1.2-0.5s-0.4-0.8-0.4-1.4c0-0.4,0.1-0.7,0.2-1
		c0.1-0.3,0.3-0.5,0.6-0.6s0.6-0.2,0.9-0.2c0.4,0,0.7,0.1,1,0.2l-0.2,0.5c-0.1-0.1-0.2-0.1-0.4-0.2C53.2,77.5,53,77.5,52.9,77.5z"/>
	<path class="st55" d="M57.7,78.8c0,0.6-0.1,1-0.4,1.4c-0.3,0.3-0.7,0.5-1.2,0.5s-1-0.2-1.2-0.5c-0.3-0.3-0.4-0.8-0.4-1.4
		s0.1-1,0.4-1.4c0.3-0.3,0.7-0.5,1.2-0.5s0.9,0.2,1.2,0.5S57.7,78.2,57.7,78.8z M55,78.8c0,0.4,0.1,0.8,0.3,1s0.4,0.3,0.8,0.3
		c0.3,0,0.6-0.1,0.8-0.3c0.2-0.2,0.3-0.6,0.3-1s-0.1-0.8-0.3-1s-0.4-0.3-0.8-0.3c-0.4,0-0.6,0.1-0.8,0.3C55.1,78,55,78.4,55,78.8z"
		/>
	<path class="st55" d="M60.5,77h0.6l-1.2,3.6h-0.6L58,77h0.6l0.7,2.2c0,0.1,0.1,0.2,0.1,0.4c0,0.2,0.1,0.3,0.1,0.4
		c0-0.1,0.1-0.3,0.1-0.4s0.1-0.3,0.1-0.4L60.5,77z"/>
	<path class="st55" d="M61.6,80.6V77h0.6v3.6H61.6z"/>
	<path class="st55" d="M66,78.8c0,0.6-0.2,1-0.5,1.4c-0.3,0.3-0.8,0.5-1.4,0.5h-1V77h1.1c0.6,0,1,0.2,1.3,0.5S66,78.2,66,78.8z
		 M65.4,78.8c0-0.9-0.4-1.3-1.2-1.3h-0.5v2.6h0.4C65,80.1,65.4,79.7,65.4,78.8z"/>
	<path class="st55" d="M66.5,79.5V79h1.3v0.5H66.5z"/>
	<path class="st55" d="M69.8,80.6h-0.6v-2.3c0-0.3,0-0.5,0-0.7l-0.1,0.1c-0.1,0-0.2,0.2-0.5,0.4l-0.3-0.4l1-0.8h0.5V80.6z"/>
	<path class="st55" d="M73.4,78.5c0,0.7-0.1,1.2-0.4,1.6s-0.7,0.5-1.3,0.5c-0.2,0-0.4,0-0.5,0v-0.5c0.1,0,0.3,0.1,0.4,0.1
		c0.4,0,0.7-0.1,0.9-0.3s0.3-0.5,0.3-1l0,0c-0.1,0.1-0.2,0.3-0.3,0.3c-0.1,0.1-0.3,0.1-0.5,0.1c-0.3,0-0.6-0.1-0.7-0.3
		S71,78.5,71,78.2c0-0.4,0.1-0.7,0.3-0.9c0.2-0.2,0.5-0.3,0.9-0.3c0.3,0,0.5,0.1,0.7,0.2s0.3,0.3,0.4,0.5
		C73.4,77.9,73.4,78.2,73.4,78.5z M72.2,77.5c-0.2,0-0.4,0.1-0.5,0.2s-0.2,0.3-0.2,0.5s0,0.4,0.1,0.5s0.2,0.2,0.4,0.2
		c0.2,0,0.4-0.1,0.5-0.2s0.2-0.3,0.2-0.4s0-0.3-0.1-0.4s-0.1-0.2-0.2-0.3S72.3,77.5,72.2,77.5z"/>
	<path class="st55" d="M77.4,80.6h-2V77h2v0.5H76v1h1.3V79H76v1.1h1.4V80.6z"/>
	<path class="st55" d="M80.2,77h0.6l-1.2,3.6H79L77.7,77h0.6l0.7,2.2c0,0.1,0.1,0.2,0.1,0.4c0,0.2,0.1,0.3,0.1,0.4
		c0-0.1,0.1-0.3,0.1-0.4s0.1-0.3,0.1-0.4L80.2,77z"/>
	<path class="st55" d="M84.5,78.8c0,0.6-0.1,1-0.4,1.4c-0.3,0.3-0.7,0.5-1.2,0.5s-1-0.2-1.2-0.5c-0.3-0.3-0.4-0.8-0.4-1.4
		s0.1-1,0.4-1.4c0.3-0.3,0.7-0.5,1.2-0.5s0.9,0.2,1.2,0.5S84.5,78.2,84.5,78.8z M81.8,78.8c0,0.4,0.1,0.8,0.3,1
		c0.2,0.2,0.4,0.3,0.8,0.3c0.3,0,0.6-0.1,0.8-0.3c0.2-0.2,0.3-0.6,0.3-1s-0.1-0.8-0.3-1c-0.2-0.2-0.4-0.3-0.8-0.3s-0.6,0.1-0.8,0.3
		C81.8,78,81.8,78.4,81.8,78.8z"/>
	<path class="st55" d="M85.2,80.6V77h0.6v3.1h1.5v0.5H85.2z"/>
	<path class="st55" d="M90.8,77v2.3c0,0.3-0.1,0.5-0.2,0.7s-0.3,0.3-0.5,0.5c-0.2,0.1-0.5,0.2-0.8,0.2c-0.4,0-0.8-0.1-1-0.4
		s-0.4-0.6-0.4-1V77h0.6v2.3c0,0.3,0.1,0.5,0.2,0.7s0.3,0.2,0.6,0.2c0.6,0,0.8-0.3,0.8-0.9V77H90.8z"/>
	<path class="st55" d="M92.9,80.6h-0.6v-3.1h-1V77H94v0.5h-1L92.9,80.6L92.9,80.6z"/>
	<path class="st55" d="M94.5,80.6V77h0.6v3.6H94.5z"/>
	<path class="st55" d="M99.2,78.8c0,0.6-0.1,1-0.4,1.4c-0.3,0.3-0.7,0.5-1.2,0.5s-1-0.2-1.2-0.5c-0.3-0.3-0.4-0.8-0.4-1.4
		s0.1-1,0.4-1.4c0.3-0.3,0.7-0.5,1.2-0.5s0.9,0.2,1.2,0.5S99.2,78.2,99.2,78.8z M96.5,78.8c0,0.4,0.1,0.8,0.3,1
		c0.2,0.2,0.4,0.3,0.8,0.3c0.3,0,0.6-0.1,0.8-0.3c0.2-0.2,0.3-0.6,0.3-1s-0.1-0.8-0.3-1c-0.2-0.2-0.4-0.3-0.8-0.3s-0.6,0.1-0.8,0.3
		C96.6,78,96.5,78.4,96.5,78.8z"/>
	<path class="st55" d="M102.9,80.6h-0.7l-1.8-2.8l0,0V78c0,0.3,0,0.6,0,0.8v1.9H100V77h0.7l1.8,2.8l0,0c0,0,0-0.2,0-0.4
		c0-0.2,0-0.4,0-0.6V77h0.5L102.9,80.6L102.9,80.6z"/>
</g>
<g>
	<path class="st56" d="M55.9,89.4c-0.3,0-0.6,0.1-0.8,0.4s-0.3,0.6-0.3,1s0.1,0.8,0.3,1s0.5,0.3,0.8,0.3c0.2,0,0.3,0,0.4,0
		c0.1,0,0.3-0.1,0.4-0.1v0.5c-0.3,0.1-0.6,0.2-1,0.2c-0.5,0-0.9-0.2-1.2-0.5s-0.4-0.8-0.4-1.4c0-0.4,0.1-0.7,0.2-1
		c0.1-0.3,0.3-0.5,0.6-0.6s0.6-0.2,0.9-0.2c0.4,0,0.7,0.1,1,0.2l-0.2,0.5c-0.1-0.1-0.2-0.1-0.4-0.2C56.1,89.4,56,89.4,55.9,89.4z"/>
	<path class="st56" d="M60.7,90.8c0,0.6-0.1,1-0.4,1.4c-0.3,0.3-0.7,0.5-1.2,0.5s-1-0.2-1.2-0.5c-0.3-0.3-0.4-0.8-0.4-1.4
		s0.1-1,0.4-1.4c0.3-0.3,0.7-0.5,1.2-0.5s0.9,0.2,1.2,0.5S60.7,90.2,60.7,90.8z M58,90.8c0,0.4,0.1,0.8,0.3,1s0.4,0.3,0.8,0.3
		c0.3,0,0.6-0.1,0.8-0.3c0.2-0.2,0.3-0.6,0.3-1s-0.1-0.8-0.3-1s-0.4-0.3-0.8-0.3c-0.4,0-0.6,0.1-0.8,0.3C58,90,58,90.3,58,90.8z"/>
	<path class="st56" d="M64.4,92.5h-0.7l-1.8-2.8l0,0v0.2c0,0.3,0,0.6,0,0.8v1.9h-0.5V89h0.7l1.8,2.8l0,0c0,0,0-0.2,0-0.4
		c0-0.2,0-0.4,0-0.6V89h0.5V92.5z"/>
	<path class="st56" d="M66.6,92.5H66v-3.1h-1V89h2.7v0.5h-1L66.6,92.5L66.6,92.5z"/>
	<path class="st56" d="M70.4,92.5l-0.4-1h-1.4l-0.3,1h-0.6l1.3-3.6h0.6l1.3,3.6H70.4z M69.9,91l-0.3-1c0-0.1-0.1-0.2-0.1-0.3
		c0-0.1-0.1-0.2-0.1-0.3c0,0.2-0.1,0.4-0.2,0.7L68.9,91H69.9z"/>
	<path class="st56" d="M73,89.4c-0.3,0-0.6,0.1-0.8,0.4s-0.3,0.6-0.3,1s0.1,0.8,0.3,1c0.2,0.2,0.5,0.3,0.8,0.3c0.2,0,0.3,0,0.4,0
		s0.3-0.1,0.4-0.1v0.5c-0.3,0.1-0.6,0.2-1,0.2c-0.5,0-0.9-0.2-1.2-0.5c-0.3-0.3-0.4-0.8-0.4-1.4c0-0.4,0.1-0.7,0.2-1
		s0.3-0.5,0.6-0.6s0.6-0.2,0.9-0.2c0.4,0,0.7,0.1,1,0.2l-0.2,0.5c-0.1-0.1-0.2-0.1-0.4-0.2C73.3,89.4,73.2,89.4,73,89.4z"/>
	<path class="st56" d="M75.9,92.5h-0.6v-3.1h-1V89H77v0.5h-1L75.9,92.5L75.9,92.5z"/>
	<path class="st56" d="M77.2,91.4V91h1.3v0.5L77.2,91.4L77.2,91.4z"/>
	<path class="st56" d="M80.3,92.5h-0.6v-3.1h-1V89h2.7v0.5h-1L80.3,92.5L80.3,92.5z"/>
	<path class="st56" d="M82.5,91.1v1.4h-0.6V89h1c0.5,0,0.8,0.1,1,0.3s0.3,0.4,0.3,0.8S84,90.9,83.5,91l1,1.6h-0.7l-0.9-1.4h-0.4
		V91.1z M82.5,90.6h0.4c0.3,0,0.5-0.1,0.6-0.2s0.2-0.3,0.2-0.4c0-0.2-0.1-0.3-0.2-0.4s-0.3-0.1-0.6-0.1h-0.4V90.6z"/>
	<path class="st56" d="M87.3,92.5l-0.4-1h-1.4l-0.3,1h-0.6L86,89h0.6l1.3,3.6L87.3,92.5L87.3,92.5z M86.8,91l-0.3-1
		c0-0.1-0.1-0.2-0.1-0.3c0-0.1-0.1-0.2-0.1-0.3c0,0.2-0.1,0.4-0.2,0.7L85.8,91H86.8z"/>
	<path class="st56" d="M90,89.4c-0.3,0-0.6,0.1-0.8,0.4s-0.3,0.6-0.3,1s0.1,0.8,0.3,1c0.2,0.2,0.5,0.3,0.8,0.3c0.2,0,0.3,0,0.4,0
		s0.3-0.1,0.4-0.1v0.5c-0.3,0.1-0.6,0.2-1,0.2c-0.5,0-0.9-0.2-1.2-0.5c-0.3-0.3-0.4-0.8-0.4-1.4c0-0.4,0.1-0.7,0.2-1
		s0.3-0.5,0.6-0.6s0.6-0.2,0.9-0.2c0.4,0,0.7,0.1,1,0.2l-0.2,0.5c-0.1-0.1-0.2-0.1-0.4-0.2C90.2,89.4,90.1,89.4,90,89.4z"/>
	<path class="st56" d="M94.3,92.5h-0.7l-1.1-1.6l-0.3,0.3v1.3h-0.6V89h0.6v1.7c0.2-0.2,0.3-0.4,0.5-0.6l1-1.1h0.7
		c-0.6,0.7-1.1,1.3-1.3,1.6L94.3,92.5z"/>
	<path class="st56" d="M94.8,92.5V89h0.6v3.6L94.8,92.5L94.8,92.5z"/>
	<path class="st56" d="M99.3,92.5h-0.7l-1.8-2.8l0,0v0.2c0,0.3,0,0.6,0,0.8v1.9h-0.5V89H97l1.8,2.8l0,0c0,0,0-0.2,0-0.4
		c0-0.2,0-0.4,0-0.6V89h0.5V92.5z"/>
	<path class="st56" d="M101.7,90.6h1.3v1.8c-0.2,0.1-0.4,0.1-0.6,0.1s-0.4,0-0.6,0c-0.5,0-1-0.2-1.2-0.5c-0.3-0.3-0.4-0.8-0.4-1.4
		s0.2-1,0.5-1.3s0.8-0.5,1.4-0.5c0.4,0,0.7,0.1,1.1,0.2l-0.2,0.5c-0.3-0.1-0.6-0.2-0.9-0.2c-0.4,0-0.7,0.1-0.9,0.4s-0.3,0.6-0.3,1
		s0.1,0.8,0.3,1c0.2,0.2,0.5,0.3,0.9,0.3c0.2,0,0.4,0,0.6-0.1V91H102v-0.4H101.7z"/>
</g>
<g>
	<path class="st57" d="M40.2,104.5v-3.6h0.6v3.6H40.2z"/>
	<path class="st57" d="M44.7,104.5H44l-1.8-2.8l0,0v0.2c0,0.3,0,0.6,0,0.8v1.9h-0.5V101h0.7l1.8,2.8l0,0c0,0,0-0.2,0-0.4
		c0-0.2,0-0.4,0-0.6v-1.9h0.5V104.5z"/>
	<path class="st57" d="M46.3,104.5h-0.6v-3.6h2v0.5h-1.4v1.1h1.3v0.5h-1.3V104.5z"/>
	<path class="st57" d="M51.5,102.7c0,0.6-0.1,1-0.4,1.4c-0.3,0.3-0.7,0.5-1.2,0.5s-1-0.2-1.2-0.5c-0.3-0.3-0.4-0.8-0.4-1.4
		s0.1-1,0.4-1.4c0.3-0.3,0.7-0.5,1.2-0.5s0.9,0.2,1.2,0.5C51.4,101.7,51.5,102.1,51.5,102.7z M48.8,102.7c0,0.4,0.1,0.8,0.3,1
		s0.4,0.3,0.8,0.3c0.3,0,0.6-0.1,0.8-0.3c0.2-0.2,0.3-0.6,0.3-1s-0.1-0.8-0.3-1s-0.4-0.3-0.8-0.3c-0.4,0-0.6,0.1-0.8,0.3
		C48.9,101.9,48.8,102.3,48.8,102.7z"/>
	<path class="st57" d="M52.9,103.1v1.4h-0.6v-3.6h1c0.5,0,0.8,0.1,1,0.3c0.2,0.2,0.3,0.4,0.3,0.8s-0.2,0.8-0.7,0.9l1,1.6h-0.7
		l-0.9-1.4C53.3,103.1,52.9,103.1,52.9,103.1z M52.9,102.6h0.4c0.3,0,0.5-0.1,0.6-0.2s0.2-0.3,0.2-0.4c0-0.2-0.1-0.3-0.2-0.4
		s-0.3-0.1-0.6-0.1h-0.4V102.6z"/>
	<path class="st57" d="M57,104.5l-1-3l0,0c0,0.4,0,0.9,0,1.2v1.7h-0.5v-3.6h0.8l1,2.8l0,0l1-2.8h0.8v3.6h-0.6v-1.8
		c0-0.2,0-0.4,0-0.7c0-0.3,0-0.5,0-0.5l0,0l-1.1,3H57V104.5z"/>
	<path class="st57" d="M62.3,104.5l-0.4-1h-1.4l-0.3,1h-0.6l1.3-3.6h0.6l1.3,3.6H62.3z M61.8,103l-0.3-1c0-0.1-0.1-0.2-0.1-0.3
		c0-0.1-0.1-0.2-0.1-0.3c0,0.2-0.1,0.4-0.2,0.7l-0.3,0.9C60.8,103,61.8,103,61.8,103z"/>
	<path class="st57" d="M64.6,104.5H64v-3.1h-1v-0.5h2.7v0.5h-1L64.6,104.5L64.6,104.5z"/>
	<path class="st57" d="M66.2,104.5v-3.6h0.6v3.6H66.2z"/>
	<path class="st57" d="M70.9,102.7c0,0.6-0.1,1-0.4,1.4c-0.3,0.3-0.7,0.5-1.2,0.5s-1-0.2-1.2-0.5c-0.3-0.3-0.4-0.8-0.4-1.4
		s0.1-1,0.4-1.4c0.3-0.3,0.7-0.5,1.2-0.5s0.9,0.2,1.2,0.5C70.8,101.7,70.9,102.1,70.9,102.7z M68.2,102.7c0,0.4,0.1,0.8,0.3,1
		c0.2,0.2,0.4,0.3,0.8,0.3c0.3,0,0.6-0.1,0.8-0.3c0.2-0.2,0.3-0.6,0.3-1s-0.1-0.8-0.3-1c-0.2-0.2-0.4-0.3-0.8-0.3s-0.6,0.1-0.8,0.3
		C68.3,101.9,68.2,102.3,68.2,102.7z"/>
	<path class="st57" d="M74.7,104.5H74l-1.8-2.8l0,0v0.2c0,0.3,0,0.6,0,0.8v1.9h-0.5V101h0.7l1.8,2.8l0,0c0,0,0-0.2,0-0.4
		c0-0.2,0-0.4,0-0.6v-1.9h0.5V104.5z"/>
	<path class="st57" d="M79.3,102c0,0.4-0.1,0.7-0.4,0.9c-0.2,0.2-0.6,0.3-1,0.3h-0.4v1.3h-0.6v-3.6h1c0.4,0,0.8,0.1,1,0.3
		C79.2,101.4,79.3,101.6,79.3,102z M77.5,102.7h0.3c0.3,0,0.5-0.1,0.7-0.2c0.1-0.1,0.2-0.3,0.2-0.5s-0.1-0.4-0.2-0.5
		s-0.3-0.2-0.6-0.2h-0.4V102.7z"/>
	<path class="st57" d="M80.6,103.1v1.4H80v-3.6h1c0.5,0,0.8,0.1,1,0.3c0.2,0.2,0.3,0.4,0.3,0.8s-0.2,0.8-0.7,0.9l1,1.6H82l-0.9-1.4
		C81.1,103.1,80.6,103.1,80.6,103.1z M80.6,102.6H81c0.3,0,0.5-0.1,0.6-0.2s0.2-0.3,0.2-0.4c0-0.2-0.1-0.3-0.2-0.4s-0.3-0.1-0.6-0.1
		h-0.4V102.6z"/>
	<path class="st57" d="M86.3,102.7c0,0.6-0.1,1-0.4,1.4c-0.3,0.3-0.7,0.5-1.2,0.5s-1-0.2-1.2-0.5c-0.3-0.3-0.4-0.8-0.4-1.4
		s0.1-1,0.4-1.4c0.3-0.3,0.7-0.5,1.2-0.5s0.9,0.2,1.2,0.5C86.2,101.7,86.3,102.1,86.3,102.7z M83.6,102.7c0,0.4,0.1,0.8,0.3,1
		c0.2,0.2,0.4,0.3,0.8,0.3c0.3,0,0.6-0.1,0.8-0.3c0.2-0.2,0.3-0.6,0.3-1s-0.1-0.8-0.3-1c-0.2-0.2-0.4-0.3-0.8-0.3s-0.6,0.1-0.8,0.3
		S83.6,102.3,83.6,102.7z"/>
	<path class="st57" d="M89.1,100.9h0.6l-1.2,3.6h-0.6l-1.2-3.6h0.6l0.7,2.2c0,0.1,0.1,0.2,0.1,0.4s0.1,0.3,0.1,0.4
		c0-0.1,0.1-0.3,0.1-0.4c0-0.2,0.1-0.3,0.1-0.4L89.1,100.9z"/>
	<path class="st57" d="M90.2,104.5v-3.6h0.6v3.6H90.2z"/>
	<path class="st57" d="M93.8,103.5c0,0.3-0.1,0.6-0.3,0.7s-0.5,0.3-0.9,0.3s-0.7-0.1-1-0.2v-0.6c0.2,0.1,0.3,0.1,0.5,0.2
		c0.2,0,0.4,0.1,0.5,0.1c0.2,0,0.4,0,0.5-0.1s0.2-0.2,0.2-0.4c0-0.1-0.1-0.2-0.2-0.3s-0.3-0.2-0.6-0.3c-0.3-0.1-0.6-0.3-0.7-0.5
		s-0.2-0.4-0.2-0.6c0-0.3,0.1-0.5,0.3-0.7s0.5-0.3,0.9-0.3c0.3,0,0.7,0.1,1,0.2l-0.2,0.5c-0.3-0.1-0.6-0.2-0.8-0.2
		c-0.2,0-0.3,0-0.4,0.1s-0.1,0.2-0.1,0.3c0,0.1,0,0.2,0.1,0.2c0,0.1,0.1,0.1,0.2,0.2s0.3,0.1,0.5,0.2c0.3,0.1,0.5,0.2,0.6,0.3
		c0.1,0.1,0.2,0.2,0.3,0.3C93.8,103.2,93.8,103.4,93.8,103.5z"/>
	<path class="st57" d="M94.5,104.5v-3.6h0.6v3.6H94.5z"/>
	<path class="st57" d="M99.2,102.7c0,0.6-0.1,1-0.4,1.4c-0.3,0.3-0.7,0.5-1.2,0.5s-1-0.2-1.2-0.5c-0.3-0.3-0.4-0.8-0.4-1.4
		s0.1-1,0.4-1.4c0.3-0.3,0.7-0.5,1.2-0.5s0.9,0.2,1.2,0.5C99,101.7,99.2,102.1,99.2,102.7z M96.5,102.7c0,0.4,0.1,0.8,0.3,1
		c0.2,0.2,0.4,0.3,0.8,0.3c0.3,0,0.6-0.1,0.8-0.3c0.2-0.2,0.3-0.6,0.3-1s-0.1-0.8-0.3-1c-0.2-0.2-0.4-0.3-0.8-0.3s-0.6,0.1-0.8,0.3
		S96.5,102.3,96.5,102.7z"/>
	<path class="st57" d="M102.9,104.5h-0.7l-1.8-2.8l0,0v0.2c0,0.3,0,0.6,0,0.8v1.9H100V101h0.7l1.8,2.8l0,0c0,0,0-0.2,0-0.4
		c0-0.2,0-0.4,0-0.6v-1.9h0.5L102.9,104.5L102.9,104.5z"/>
</g>
<g>
	<path class="st0" d="M47.4,114.1c0,0.4-0.1,0.7-0.4,0.9c-0.2,0.2-0.6,0.3-1,0.3h-0.4v1.3H45V113h1c0.4,0,0.8,0.1,1,0.3
		C47.3,113.5,47.4,113.7,47.4,114.1z M45.7,114.7H46c0.3,0,0.5-0.1,0.7-0.2c0.1-0.1,0.2-0.3,0.2-0.5s-0.1-0.4-0.2-0.5
		c-0.1-0.1-0.3-0.2-0.6-0.2h-0.4V114.7z"/>
	<path class="st0" d="M50.2,116.6h-2V113h2v0.5h-1.4v1h1.3v0.5h-1.3v1.1h1.4V116.6z"/>
	<path class="st0" d="M54.1,114.8c0,0.6-0.1,1-0.4,1.4c-0.3,0.3-0.7,0.5-1.2,0.5s-1-0.2-1.2-0.5c-0.3-0.3-0.4-0.8-0.4-1.4
		s0.1-1,0.4-1.4c0.3-0.3,0.7-0.5,1.2-0.5s0.9,0.2,1.2,0.5C54,113.7,54.1,114.2,54.1,114.8z M51.4,114.8c0,0.4,0.1,0.8,0.3,1
		s0.4,0.3,0.8,0.3c0.3,0,0.6-0.1,0.8-0.3c0.2-0.2,0.3-0.6,0.3-1s-0.1-0.8-0.3-1s-0.4-0.3-0.8-0.3c-0.4,0-0.6,0.1-0.8,0.3
		C51.5,114,51.4,114.3,51.4,114.8z"/>
	<path class="st0" d="M57.2,114.1c0,0.4-0.1,0.7-0.4,0.9c-0.2,0.2-0.6,0.3-1,0.3h-0.4v1.3h-0.6V113h1c0.4,0,0.8,0.1,1,0.3
		C57.1,113.5,57.2,113.7,57.2,114.1z M55.5,114.7h0.3c0.3,0,0.5-0.1,0.7-0.2c0.1-0.1,0.2-0.3,0.2-0.5s-0.1-0.4-0.2-0.5
		c-0.1-0.1-0.3-0.2-0.6-0.2h-0.4V114.7z"/>
	<path class="st0" d="M57.9,116.6V113h0.6v3.1H60v0.5H57.9z"/>
	<path class="st0" d="M62.7,116.6h-2V113h2v0.5h-1.4v1h1.3v0.5h-1.3v1.1h1.4V116.6z"/>
	<path class="st0" d="M64.7,116.6V113h0.6v3.6H64.7z"/>
	<path class="st0" d="M69.2,114.8c0,0.6-0.2,1-0.5,1.4c-0.3,0.3-0.8,0.5-1.4,0.5h-1V113h1.1c0.6,0,1,0.2,1.3,0.5
		S69.2,114.2,69.2,114.8z M68.6,114.8c0-0.9-0.4-1.3-1.2-1.3h-0.5v2.6h0.4C68.1,116.1,68.6,115.6,68.6,114.8z"/>
	<path class="st0" d="M72,116.6h-2V113h2v0.5h-1.4v1h1.3v0.5h-1.3v1.1H72V116.6z"/>
	<path class="st0" d="M75.7,116.6H75l-1.8-2.8l0,0v0.2c0,0.3,0,0.6,0,0.8v1.9h-0.5V113h0.7l1.8,2.8l0,0c0,0,0-0.2,0-0.4s0-0.4,0-0.6
		V113h0.5V116.6z"/>
	<path class="st0" d="M77.9,116.6h-0.6v-3.1h-1V113H79v0.5h-1L77.9,116.6L77.9,116.6z"/>
	<path class="st0" d="M79.5,116.6V113h0.6v3.6H79.5z"/>
	<path class="st0" d="M81.6,116.6H81V113h2v0.5h-1.4v1.1h1.3v0.5h-1.3V116.6z"/>
	<path class="st0" d="M83.7,116.6V113h0.6v3.6H83.7z"/>
	<path class="st0" d="M86.7,113.4c-0.3,0-0.6,0.1-0.8,0.4c-0.2,0.2-0.3,0.6-0.3,1s0.1,0.8,0.3,1c0.2,0.2,0.5,0.3,0.8,0.3
		c0.2,0,0.3,0,0.4,0s0.3-0.1,0.4-0.1v0.5c-0.3,0.1-0.6,0.2-1,0.2c-0.5,0-0.9-0.2-1.2-0.5s-0.4-0.8-0.4-1.4c0-0.4,0.1-0.7,0.2-1
		s0.3-0.5,0.6-0.6c0.3-0.1,0.6-0.2,0.9-0.2c0.4,0,0.7,0.1,1,0.2l-0.2,0.5c-0.1-0.1-0.2-0.1-0.4-0.2C87,113.5,86.9,113.4,86.7,113.4z
		"/>
	<path class="st0" d="M90.6,116.6l-0.4-1h-1.4l-0.3,1h-0.6l1.3-3.6h0.6l1.3,3.6H90.6z M90.1,115.1l-0.3-1c0-0.1-0.1-0.2-0.1-0.3
		c0-0.1-0.1-0.2-0.1-0.3c0,0.2-0.1,0.4-0.2,0.7l-0.3,0.9C89.1,115.1,90.1,115.1,90.1,115.1z"/>
	<path class="st0" d="M92.9,116.6h-0.6v-3.1h-1V113H94v0.5h-1L92.9,116.6L92.9,116.6z"/>
	<path class="st0" d="M94.5,116.6V113h0.6v3.6H94.5z"/>
	<path class="st0" d="M99.2,114.8c0,0.6-0.1,1-0.4,1.4c-0.3,0.3-0.7,0.5-1.2,0.5s-1-0.2-1.2-0.5c-0.3-0.3-0.4-0.8-0.4-1.4
		s0.1-1,0.4-1.4c0.3-0.3,0.7-0.5,1.2-0.5s0.9,0.2,1.2,0.5C99,113.7,99.2,114.2,99.2,114.8z M96.5,114.8c0,0.4,0.1,0.8,0.3,1
		c0.2,0.2,0.4,0.3,0.8,0.3c0.3,0,0.6-0.1,0.8-0.3c0.2-0.2,0.3-0.6,0.3-1s-0.1-0.8-0.3-1c-0.2-0.2-0.4-0.3-0.8-0.3s-0.6,0.1-0.8,0.3
		C96.6,114,96.5,114.3,96.5,114.8z"/>
	<path class="st0" d="M102.9,116.6h-0.7l-1.8-2.8l0,0v0.2c0,0.3,0,0.6,0,0.8v1.9H100V113h0.7l1.8,2.8l0,0c0,0,0-0.2,0-0.4
		s0-0.4,0-0.6V113h0.5L102.9,116.6L102.9,116.6z"/>
</g>
<g>
	<path class="st58" d="M17.6,126.5c0,0.6-0.2,1-0.5,1.4c-0.3,0.4-0.8,0.5-1.4,0.5h-1v-3.6h1.1c0.6,0,1,0.2,1.3,0.5
		C17.4,125.5,17.6,125.9,17.6,126.5z M17,126.5c0-0.9-0.4-1.3-1.2-1.3h-0.5v2.6h0.4C16.6,127.8,17,127.4,17,126.5z"/>
	<path class="st58" d="M18.4,128.3v-3.6H19v3.6H18.4z"/>
	<path class="st58" d="M21.4,126.3h1.3v1.8c-0.2,0.1-0.4,0.1-0.6,0.1s-0.4,0-0.6,0c-0.5,0-1-0.2-1.2-0.5c-0.3-0.3-0.4-0.8-0.4-1.4
		s0.2-1,0.5-1.3s0.8-0.5,1.4-0.5c0.4,0,0.7,0.1,1.1,0.2l-0.2,0.5c-0.3-0.1-0.6-0.2-0.9-0.2c-0.4,0-0.7,0.1-0.9,0.4s-0.3,0.6-0.3,1
		s0.1,0.8,0.3,1c0.2,0.2,0.5,0.3,0.9,0.3c0.2,0,0.4,0,0.6-0.1v-0.9h-0.7v-0.4H21.4z"/>
	<path class="st58" d="M23.5,128.3v-3.6h0.6v3.6H23.5z"/>
	<path class="st58" d="M26.3,128.3h-0.6v-3.1h-1v-0.5h2.7v0.5h-1v3.1H26.3z"/>
	<path class="st58" d="M30.1,128.3l-0.4-1h-1.4l-0.3,1h-0.6l1.3-3.6h0.6l1.3,3.6H30.1z M29.6,126.8l-0.3-1c0-0.1-0.1-0.2-0.1-0.3
		c0-0.1-0.1-0.2-0.1-0.3c0,0.2-0.1,0.4-0.2,0.7l-0.3,0.9C28.6,126.8,29.6,126.8,29.6,126.8z"/>
	<path class="st58" d="M31.2,128.3v-3.6h0.6v3.1h1.5v0.5H31.2z"/>
	<path class="st58" d="M33.9,128.3v-3.6h0.6v3.6H33.9z"/>
	<path class="st58" d="M37.7,128.3h-2.6v-0.4l1.8-2.7h-1.8v-0.5h2.5v0.4l-1.8,2.7h1.9C37.7,127.8,37.7,128.3,37.7,128.3z"/>
	<path class="st58" d="M40.5,128.3l-0.4-1h-1.4l-0.3,1h-0.6l1.3-3.6h0.6l1.3,3.6H40.5z M40,126.8l-0.3-1c0-0.1-0.1-0.2-0.1-0.3
		c0-0.1-0.1-0.2-0.1-0.3c0,0.2-0.1,0.4-0.2,0.7l-0.3,0.9C39,126.8,40,126.8,40,126.8z"/>
	<path class="st58" d="M42.8,128.3h-0.6v-3.1h-1v-0.5h2.7v0.5h-1v3.1H42.8z"/>
	<path class="st58" d="M44.4,128.3v-3.6H45v3.6H44.4z"/>
	<path class="st58" d="M49.1,126.5c0,0.6-0.1,1-0.4,1.4c-0.3,0.3-0.7,0.5-1.2,0.5s-1-0.2-1.2-0.5c-0.3-0.3-0.4-0.8-0.4-1.4
		s0.1-1,0.4-1.4c0.3-0.3,0.7-0.5,1.2-0.5s0.9,0.2,1.2,0.5C49,125.5,49.1,125.9,49.1,126.5z M46.4,126.5c0,0.4,0.1,0.8,0.3,1
		s0.4,0.3,0.8,0.3c0.3,0,0.6-0.1,0.8-0.3c0.2-0.2,0.3-0.6,0.3-1s-0.1-0.8-0.3-1s-0.4-0.3-0.8-0.3c-0.4,0-0.6,0.1-0.8,0.3
		C46.5,125.7,46.4,126.1,46.4,126.5z"/>
	<path class="st58" d="M52.9,128.3h-0.7l-1.8-2.8l0,0v0.2c0,0.3,0,0.6,0,0.8v1.9h-0.5v-3.6h0.7l1.8,2.8l0,0c0,0,0-0.2,0-0.4
		c0-0.2,0-0.4,0-0.6v-1.9h0.5V128.3z"/>
	<path class="st58" d="M58.3,126.5c0,0.6-0.1,1-0.4,1.4c-0.3,0.3-0.7,0.5-1.2,0.5s-1-0.2-1.2-0.5c-0.3-0.3-0.4-0.8-0.4-1.4
		s0.1-1,0.4-1.4c0.3-0.3,0.7-0.5,1.2-0.5s0.9,0.2,1.2,0.5C58.1,125.5,58.3,125.9,58.3,126.5z M55.5,126.5c0,0.4,0.1,0.8,0.3,1
		s0.4,0.3,0.8,0.3c0.3,0,0.6-0.1,0.8-0.3c0.2-0.2,0.3-0.6,0.3-1s-0.1-0.8-0.3-1s-0.4-0.3-0.8-0.3c-0.4,0-0.6,0.1-0.8,0.3
		C55.6,125.7,55.5,126.1,55.5,126.5z"/>
	<path class="st58" d="M59.6,128.3H59v-3.6h2v0.5h-1.4v1.1H61v0.5h-1.3v1.5H59.6z"/>
	<path class="st58" d="M65.4,125.8c0,0.4-0.1,0.7-0.4,0.9c-0.2,0.2-0.6,0.3-1,0.3h-0.4v1.3H63v-3.6h1c0.4,0,0.8,0.1,1,0.3
		C65.3,125.2,65.4,125.4,65.4,125.8z M63.6,126.5h0.3c0.3,0,0.5-0.1,0.7-0.2c0.1-0.1,0.2-0.3,0.2-0.5s-0.1-0.4-0.2-0.5
		s-0.3-0.2-0.6-0.2h-0.4V126.5z"/>
	<path class="st58" d="M68.9,124.7v2.3c0,0.3-0.1,0.5-0.2,0.7s-0.3,0.3-0.5,0.5c-0.2,0.1-0.5,0.2-0.8,0.2c-0.4,0-0.8-0.1-1-0.4
		c-0.2-0.3-0.4-0.6-0.4-1v-2.3h0.6v2.3c0,0.3,0.1,0.5,0.2,0.7c0.1,0.1,0.3,0.2,0.6,0.2c0.6,0,0.8-0.3,0.8-0.9v-2.3L68.9,124.7
		L68.9,124.7z"/>
	<path class="st58" d="M69.8,124.7h1.1c0.5,0,0.8,0.1,1.1,0.2c0.2,0.1,0.3,0.4,0.3,0.7c0,0.2-0.1,0.4-0.2,0.5s-0.3,0.2-0.5,0.3l0,0
		c0.3,0,0.4,0.1,0.6,0.3c0.1,0.1,0.2,0.3,0.2,0.6c0,0.3-0.1,0.6-0.3,0.8c-0.2,0.2-0.5,0.3-0.9,0.3h-1.3L69.8,124.7L69.8,124.7z
		 M70.4,126.2H71c0.2,0,0.4,0,0.5-0.1s0.2-0.2,0.2-0.4c0-0.2-0.1-0.3-0.2-0.4s-0.3-0.1-0.6-0.1h-0.5V126.2z M70.4,126.7v1.1H71
		c0.2,0,0.4,0,0.6-0.1c0.1-0.1,0.2-0.2,0.2-0.4c0-0.2-0.1-0.3-0.2-0.4s-0.3-0.1-0.6-0.1L70.4,126.7L70.4,126.7z"/>
	<path class="st58" d="M73.1,128.3v-3.6h0.6v3.1h1.5v0.5H73.1z"/>
	<path class="st58" d="M75.8,128.3v-3.6h0.6v3.6H75.8z"/>
	<path class="st58" d="M78.8,125.2c-0.3,0-0.6,0.1-0.8,0.4c-0.2,0.2-0.3,0.6-0.3,1s0.1,0.8,0.3,1c0.2,0.2,0.5,0.3,0.8,0.3
		c0.2,0,0.3,0,0.4,0s0.3-0.1,0.4-0.1v0.5c-0.3,0.1-0.6,0.2-1,0.2c-0.5,0-0.9-0.2-1.2-0.5c-0.3-0.3-0.4-0.8-0.4-1.4
		c0-0.4,0.1-0.7,0.2-1s0.3-0.5,0.6-0.6c0.3-0.1,0.6-0.2,0.9-0.2c0.4,0,0.7,0.1,1,0.2l-0.2,0.5c-0.1-0.1-0.2-0.1-0.4-0.2
		C79.1,125.2,79,125.2,78.8,125.2z"/>
	<path class="st58" d="M83.9,127.3c0,0.3-0.1,0.6-0.3,0.7c-0.2,0.1-0.5,0.3-0.9,0.3s-0.7-0.1-1-0.2v-0.6c0.2,0.1,0.3,0.1,0.5,0.2
		c0.2,0,0.4,0.1,0.5,0.1c0.2,0,0.4,0,0.5-0.1s0.2-0.2,0.2-0.4c0-0.1-0.1-0.2-0.2-0.3s-0.3-0.2-0.6-0.3c-0.3-0.1-0.6-0.3-0.7-0.5
		s-0.2-0.4-0.2-0.6c0-0.3,0.1-0.5,0.3-0.7s0.5-0.3,0.9-0.3c0.3,0,0.7,0.1,1,0.2l-0.2,0.5c-0.3-0.1-0.6-0.2-0.8-0.2
		c-0.2,0-0.3,0-0.4,0.1s-0.1,0.2-0.1,0.3c0,0.1,0,0.2,0.1,0.2c0,0.1,0.1,0.1,0.2,0.2s0.3,0.1,0.5,0.2c0.3,0.1,0.5,0.2,0.6,0.3
		c0.1,0.1,0.2,0.2,0.3,0.3C83.8,127,83.9,127.1,83.9,127.3z"/>
	<path class="st58" d="M86.6,128.3h-2v-3.6h2v0.5h-1.4v1h1.3v0.5h-1.3v1.1h1.4V128.3z"/>
	<path class="st58" d="M87.9,126.9v1.4h-0.6v-3.6h1c0.5,0,0.8,0.1,1,0.3c0.2,0.2,0.3,0.4,0.3,0.8s-0.2,0.8-0.7,0.9l1,1.6h-0.7
		l-0.9-1.4L87.9,126.9L87.9,126.9z M87.9,126.4h0.4c0.3,0,0.5-0.1,0.6-0.2s0.2-0.3,0.2-0.4c0-0.2-0.1-0.3-0.2-0.4s-0.3-0.1-0.6-0.1
		h-0.4V126.4z"/>
	<path class="st58" d="M92.6,124.7h0.6l-1.2,3.6h-0.6l-1.2-3.6h0.6l0.7,2.2c0,0.1,0.1,0.2,0.1,0.4s0.1,0.3,0.1,0.4
		c0-0.1,0.1-0.3,0.1-0.4c0-0.2,0.1-0.3,0.1-0.4L92.6,124.7z"/>
	<path class="st58" d="M93.6,128.3v-3.6h0.6v3.6H93.6z"/>
	<path class="st58" d="M96.7,125.2c-0.3,0-0.6,0.1-0.8,0.4c-0.2,0.2-0.3,0.6-0.3,1s0.1,0.8,0.3,1c0.2,0.2,0.5,0.3,0.8,0.3
		c0.2,0,0.3,0,0.4,0s0.3-0.1,0.4-0.1v0.5c-0.3,0.1-0.6,0.2-1,0.2c-0.5,0-0.9-0.2-1.2-0.5c-0.3-0.3-0.4-0.8-0.4-1.4
		c0-0.4,0.1-0.7,0.2-1s0.3-0.5,0.6-0.6c0.3-0.1,0.6-0.2,0.9-0.2c0.4,0,0.7,0.1,1,0.2l-0.2,0.5c-0.1-0.1-0.2-0.1-0.4-0.2
		C97,125.2,96.8,125.2,96.7,125.2z"/>
	<path class="st58" d="M100.4,128.3h-2v-3.6h2v0.5H99v1h1.3v0.5H99v1.1h1.4V128.3z"/>
	<path class="st58" d="M103.2,127.3c0,0.3-0.1,0.6-0.3,0.7c-0.2,0.1-0.5,0.3-0.9,0.3s-0.7-0.1-1-0.2v-0.6c0.2,0.1,0.3,0.1,0.5,0.2
		c0.2,0,0.4,0.1,0.5,0.1c0.2,0,0.4,0,0.5-0.1s0.2-0.2,0.2-0.4c0-0.1-0.1-0.2-0.2-0.3s-0.3-0.2-0.6-0.3c-0.3-0.1-0.6-0.3-0.7-0.5
		s-0.2-0.4-0.2-0.6c0-0.3,0.1-0.5,0.3-0.7s0.5-0.3,0.9-0.3c0.3,0,0.7,0.1,1,0.2l-0.2,0.5c-0.3-0.1-0.6-0.2-0.8-0.2
		c-0.2,0-0.3,0-0.4,0.1s-0.1,0.2-0.1,0.3c0,0.1,0,0.2,0.1,0.2c0,0.1,0.1,0.1,0.2,0.2s0.3,0.1,0.5,0.2c0.3,0.1,0.5,0.2,0.6,0.3
		c0.1,0.1,0.2,0.2,0.3,0.3C103.2,127,103.2,127.1,103.2,127.3z"/>
</g>
<g>
	<path class="st59" d="M81,140.5l-1-3l0,0c0,0.4,0,0.9,0,1.2v1.7h-0.5V137h0.8l1,2.8l0,0l1-2.8h0.8v3.6h-0.6v-1.8c0-0.2,0-0.4,0-0.7
		s0-0.5,0-0.5l0,0l-1.1,3H81V140.5z"/>
	<path class="st59" d="M86.3,140.5l-0.4-1h-1.4l-0.3,1h-0.6l1.3-3.6h0.6l1.3,3.6H86.3z M85.8,139l-0.3-1c0-0.1-0.1-0.2-0.1-0.3
		s-0.1-0.2-0.1-0.3c0,0.2-0.1,0.4-0.2,0.7l-0.3,0.9L85.8,139L85.8,139z"/>
	<path class="st59" d="M89.4,139.6c0,0.3-0.1,0.6-0.3,0.7s-0.5,0.3-0.9,0.3s-0.7-0.1-1-0.2v-0.6c0.2,0.1,0.3,0.1,0.5,0.2
		c0.2,0,0.4,0.1,0.5,0.1c0.2,0,0.4,0,0.5-0.1s0.2-0.2,0.2-0.4c0-0.1-0.1-0.2-0.2-0.3s-0.3-0.2-0.6-0.3c-0.3-0.1-0.6-0.3-0.7-0.5
		s-0.2-0.4-0.2-0.6c0-0.3,0.1-0.5,0.3-0.7s0.5-0.3,0.9-0.3c0.3,0,0.7,0.1,1,0.2l-0.2,0.5c-0.3-0.1-0.6-0.2-0.8-0.2
		c-0.2,0-0.3,0-0.4,0.1s-0.1,0.2-0.1,0.3s0,0.2,0.1,0.2c0,0.1,0.1,0.1,0.2,0.2s0.3,0.1,0.5,0.2c0.3,0.1,0.5,0.2,0.6,0.3
		s0.2,0.2,0.3,0.3C89.4,139.3,89.4,139.4,89.4,139.6z"/>
	<path class="st59" d="M92.9,140.5h-0.7l-1.1-1.6l-0.3,0.3v1.3h-0.6V137h0.6v1.7c0.2-0.2,0.3-0.4,0.5-0.6l1-1.1H93
		c-0.6,0.7-1.1,1.3-1.3,1.6L92.9,140.5z"/>
	<path class="st59" d="M97.4,137v2.3c0,0.3-0.1,0.5-0.2,0.7s-0.3,0.3-0.5,0.5c-0.2,0.1-0.5,0.2-0.8,0.2c-0.4,0-0.8-0.1-1-0.4
		s-0.4-0.6-0.4-1V137h0.6v2.3c0,0.3,0.1,0.5,0.2,0.7c0.1,0.1,0.3,0.2,0.6,0.2c0.6,0,0.8-0.3,0.8-0.9V137H97.4z"/>
	<path class="st59" d="M100.4,139.6c0,0.3-0.1,0.6-0.3,0.7s-0.5,0.3-0.9,0.3s-0.7-0.1-1-0.2v-0.6c0.2,0.1,0.3,0.1,0.5,0.2
		c0.2,0,0.4,0.1,0.5,0.1c0.2,0,0.4,0,0.5-0.1s0.2-0.2,0.2-0.4c0-0.1-0.1-0.2-0.2-0.3s-0.3-0.2-0.6-0.3c-0.3-0.1-0.6-0.3-0.7-0.5
		s-0.2-0.4-0.2-0.6c0-0.3,0.1-0.5,0.3-0.7s0.5-0.3,0.9-0.3c0.3,0,0.7,0.1,1,0.2l-0.2,0.5c-0.3-0.1-0.6-0.2-0.8-0.2
		c-0.2,0-0.3,0-0.4,0.1s-0.1,0.2-0.1,0.3s0,0.2,0.1,0.2c0,0.1,0.1,0.1,0.2,0.2s0.3,0.1,0.5,0.2c0.3,0.1,0.5,0.2,0.6,0.3
		s0.2,0.2,0.3,0.3C100.4,139.3,100.4,139.4,100.4,139.6z"/>
	<path class="st59" d="M103.1,140.5h-2V137h2v0.5h-1.4v1h1.3v0.5h-1.3v1.1h1.4V140.5z"/>
</g>
<g>
	<path class="st60" d="M68.6,152.5h-0.7l-1.8-2.8l0,0v0.2c0,0.3,0,0.6,0,0.8v1.9h-0.5V149h0.7l1.8,2.8l0,0c0,0,0-0.2,0-0.4
		s0-0.4,0-0.6v-1.9h0.5V152.5z"/>
	<path class="st60" d="M72.7,150.7c0,0.6-0.1,1-0.4,1.4c-0.3,0.3-0.7,0.5-1.2,0.5s-1-0.2-1.2-0.5c-0.3-0.3-0.4-0.8-0.4-1.4
		c0-0.6,0.1-1,0.4-1.4c0.3-0.3,0.7-0.5,1.2-0.5s0.9,0.2,1.2,0.5C72.5,149.7,72.7,150.1,72.7,150.7z M69.9,150.7c0,0.4,0.1,0.8,0.3,1
		c0.2,0.2,0.4,0.3,0.8,0.3c0.3,0,0.6-0.1,0.8-0.3c0.2-0.2,0.3-0.6,0.3-1s-0.1-0.8-0.3-1c-0.2-0.2-0.4-0.3-0.8-0.3s-0.6,0.1-0.8,0.3
		S69.9,150.3,69.9,150.7z"/>
	<path class="st60" d="M74.7,152.5h-0.6v-3.1h-1v-0.5h2.7v0.5h-1L74.7,152.5L74.7,152.5z"/>
	<path class="st60" d="M77.6,152.5v-3.6h0.6v3.6H77.6z"/>
	<path class="st60" d="M82.1,152.5h-0.7l-1.8-2.8l0,0v0.2c0,0.3,0,0.6,0,0.8v1.9h-0.5V149h0.7l1.8,2.8l0,0c0,0,0-0.2,0-0.4
		s0-0.4,0-0.6v-1.9h0.5V152.5z"/>
	<path class="st60" d="M83.6,152.5H83v-3.6h2v0.5h-1.4v1.1h1.3v0.5h-1.3V152.5z"/>
	<path class="st60" d="M88.8,150.7c0,0.6-0.1,1-0.4,1.4c-0.3,0.3-0.7,0.5-1.2,0.5s-1-0.2-1.2-0.5c-0.3-0.3-0.4-0.8-0.4-1.4
		c0-0.6,0.1-1,0.4-1.4c0.3-0.3,0.7-0.5,1.2-0.5s0.9,0.2,1.2,0.5C88.7,149.7,88.8,150.1,88.8,150.7z M86.1,150.7c0,0.4,0.1,0.8,0.3,1
		c0.2,0.2,0.4,0.3,0.8,0.3c0.3,0,0.6-0.1,0.8-0.3c0.2-0.2,0.3-0.6,0.3-1s-0.1-0.8-0.3-1c-0.2-0.2-0.4-0.3-0.8-0.3s-0.6,0.1-0.8,0.3
		S86.1,150.3,86.1,150.7z"/>
	<path class="st60" d="M90.2,151.1v1.4h-0.6v-3.6h1c0.5,0,0.8,0.1,1,0.3s0.3,0.4,0.3,0.8c0,0.4-0.2,0.8-0.7,1l1,1.6h-0.7l-0.9-1.4
		h-0.4V151.1z M90.2,150.6h0.4c0.3,0,0.5,0,0.6-0.2c0.1-0.1,0.2-0.2,0.2-0.4s-0.1-0.3-0.2-0.4s-0.3-0.1-0.6-0.1h-0.4V150.6z"/>
	<path class="st60" d="M94.3,152.5l-1-3l0,0c0,0.4,0,0.9,0,1.2v1.7h-0.5v-3.6h0.8l1,2.8l0,0l1-2.8h0.8v3.6h-0.6v-1.8
		c0-0.2,0-0.4,0-0.7s0-0.5,0-0.5l0,0l-1.1,3h-0.4V152.5z"/>
	<path class="st60" d="M99.4,152.5h-2v-3.6h2v0.5H98v1h1.3v0.5H98v1.1h1.4V152.5z"/>
	<path class="st60" d="M103.1,150.7c0,0.6-0.2,1-0.5,1.4c-0.3,0.3-0.8,0.5-1.4,0.5h-1V149h1.1c0.6,0,1,0.2,1.3,0.5
		C102.9,149.7,103.1,150.1,103.1,150.7z M102.5,150.7c0-0.9-0.4-1.3-1.2-1.3h-0.5v2.6h0.4C102.1,152,102.5,151.6,102.5,150.7z"/>
</g>
<g>
	<path class="st61" d="M69.9,162.6c0,0.6-0.2,1-0.5,1.4c-0.3,0.3-0.8,0.5-1.4,0.5h-1v-3.6h1.1c0.6,0,1,0.2,1.3,0.5
		C69.8,161.6,69.9,162.1,69.9,162.6z M69.3,162.6c0-0.9-0.4-1.3-1.2-1.3h-0.5v2.6H68C68.9,163.9,69.3,163.5,69.3,162.6z"/>
	<path class="st61" d="M72.9,164.4l-0.4-1h-1.4l-0.3,1h-0.6l1.3-3.6h0.6l1.3,3.6H72.9z M72.4,162.9l-0.3-1c0-0.1-0.1-0.2-0.1-0.3
		s-0.1-0.2-0.1-0.3c0,0.2-0.1,0.4-0.2,0.7l-0.3,0.9L72.4,162.9L72.4,162.9z"/>
	<path class="st61" d="M75.2,164.4h-0.6v-3.1h-1v-0.5h2.7v0.5h-1L75.2,164.4L75.2,164.4z"/>
	<path class="st61" d="M79,164.4l-0.4-1h-1.4l-0.3,1h-0.6l1.3-3.6h0.6l1.3,3.6H79z M78.5,162.9l-0.3-1c0-0.1-0.1-0.2-0.1-0.3
		s-0.1-0.2-0.1-0.3c0,0.2-0.1,0.4-0.2,0.7l-0.3,0.9L78.5,162.9L78.5,162.9z"/>
	<path class="st61" d="M83.5,163.5c0,0.3-0.1,0.6-0.3,0.7s-0.5,0.3-0.9,0.3s-0.7-0.1-1-0.2v-0.6c0.2,0.1,0.3,0.1,0.5,0.2
		c0.2,0,0.4,0.1,0.5,0.1c0.2,0,0.4,0,0.5-0.1s0.2-0.2,0.2-0.4c0-0.1-0.1-0.2-0.2-0.3s-0.3-0.2-0.6-0.3c-0.3-0.1-0.6-0.3-0.7-0.5
		s-0.2-0.4-0.2-0.6c0-0.3,0.1-0.5,0.3-0.7s0.5-0.3,0.9-0.3c0.3,0,0.7,0.1,1,0.2l-0.2,0.5c-0.3-0.1-0.6-0.2-0.8-0.2
		c-0.2,0-0.3,0-0.4,0.1s-0.1,0.2-0.1,0.3s0,0.2,0.1,0.2c0,0.1,0.1,0.1,0.2,0.2s0.3,0.1,0.5,0.2c0.3,0.1,0.5,0.2,0.6,0.3
		s0.2,0.2,0.3,0.3C83.5,163.2,83.5,163.3,83.5,163.5z"/>
	<path class="st61" d="M85.4,164.4h-0.6v-3.1h-1v-0.5h2.7v0.5h-1L85.4,164.4L85.4,164.4z"/>
	<path class="st61" d="M90.2,162.6c0,0.6-0.1,1-0.4,1.4c-0.3,0.3-0.7,0.5-1.2,0.5s-1-0.2-1.2-0.5c-0.3-0.3-0.4-0.8-0.4-1.4
		c0-0.6,0.1-1,0.4-1.4c0.3-0.3,0.7-0.5,1.2-0.5s0.9,0.2,1.2,0.5C90,161.6,90.2,162.1,90.2,162.6z M87.5,162.6c0,0.4,0.1,0.8,0.3,1
		c0.2,0.2,0.4,0.3,0.8,0.3c0.3,0,0.6-0.1,0.8-0.3c0.2-0.2,0.3-0.6,0.3-1s-0.1-0.8-0.3-1c-0.2-0.2-0.4-0.3-0.8-0.3s-0.6,0.1-0.8,0.3
		C87.5,161.9,87.5,162.2,87.5,162.6z"/>
	<path class="st61" d="M91.5,163v1.4H91v-3.6h1c0.5,0,0.8,0.1,1,0.3s0.3,0.4,0.3,0.8c0,0.4-0.2,0.8-0.7,1l1,1.6H93l-0.9-1.4h-0.6
		V163z M91.5,162.5h0.4c0.3,0,0.5,0,0.6-0.2c0.1-0.1,0.2-0.2,0.2-0.4s-0.1-0.3-0.2-0.4s-0.3-0.1-0.6-0.1h-0.4V162.5z"/>
	<path class="st61" d="M96.4,164.4l-0.4-1h-1.4l-0.3,1h-0.6l1.3-3.6h0.6l1.3,3.6H96.4z M95.9,162.9l-0.3-1c0-0.1-0.1-0.2-0.1-0.3
		s-0.1-0.2-0.1-0.3c0,0.2-0.1,0.4-0.2,0.7l-0.3,0.9L95.9,162.9L95.9,162.9z"/>
	<path class="st61" d="M98.9,162.5h1.3v1.8c-0.2,0.1-0.4,0.1-0.6,0.1s-0.4,0-0.6,0c-0.5,0-1-0.2-1.2-0.5c-0.3-0.3-0.4-0.8-0.4-1.4
		c0-0.6,0.2-1,0.5-1.3s0.8-0.5,1.4-0.5c0.4,0,0.7,0.1,1.1,0.2l-0.2,0.5c-0.3-0.1-0.6-0.2-0.9-0.2c-0.4,0-0.7,0.1-0.9,0.4
		s-0.3,0.6-0.3,1s0.1,0.8,0.3,1c0.2,0.2,0.5,0.3,0.9,0.3c0.2,0,0.4,0,0.6-0.1V163h-0.7v-0.5H98.9z"/>
	<path class="st61" d="M103.1,164.4h-2v-3.6h2v0.5h-1.4v1h1.3v0.5h-1.3v1.1h1.4V164.4z"/>
</g>
<rect x="115.1" y="36.9" class="st52" width="53.6" height="11.9"/>
<rect x="168.7" y="49" class="st53" width="52.3" height="11.9"/>
<rect x="221" y="61.2" class="st54" width="17.4" height="11.9"/>
<rect x="238.5" y="73.2" class="st55" width="16.8" height="11.9"/>
<rect x="255.2" y="85.1" class="st56" width="11.4" height="11.9"/>
<rect x="266.6" y="97" class="st57" width="6.7" height="11.9"/>
<rect x="273.3" y="109.1" class="st0" width="4.7" height="11.9"/>
<rect x="278.2" y="120.8" class="st58" width="3.8" height="11.9"/>
<path class="st59" d="M283.4,133.1H282v5.7h1.3v-5.7H283.4z M283.4,138.8H282v6.2h1.3v-6.2H283.4z"/>
<rect x="283.4" y="145" class="st60" width="1.3" height="11.9"/>
<rect x="284.7" y="157" class="st61" width="1.3" height="11.9"/>
</svg>
