<svg xmlns="http://www.w3.org/2000/svg" viewBox="0 0 1406.18 763.37"><defs><style>.cls-1{fill:#030420;}.cls-2{font-size:21.44px;font-family:OpenSans-Bold, Open Sans;font-weight:700;text-decoration:underline;}.cls-2,.cls-47,.cls-5{fill:#fff;}.cls-10,.cls-12,.cls-14,.cls-16,.cls-18,.cls-20,.cls-22,.cls-24,.cls-26,.cls-28,.cls-3,.cls-30,.cls-32,.cls-34,.cls-36,.cls-38,.cls-41,.cls-43,.cls-45,.cls-48,.cls-50,.cls-6,.cls-8{fill:none;stroke-width:2.24px;}.cls-3{stroke:#bb2148;}.cls-4{fill:#bb2148;}.cls-5{font-size:19.65px;font-family:OpenSans, Open Sans;}.cls-6{stroke:#de4d4a;}.cls-7{fill:#de4d4a;}.cls-8{stroke:#d653a4;}.cls-9{fill:#d653a4;}.cls-10{stroke:#edfdb6;}.cls-11{fill:#edfdb6;}.cls-12{stroke:#3d60d9;}.cls-13{fill:#3d60d9;}.cls-14{stroke:#5dc8ea;}.cls-15{fill:#5dc8ea;}.cls-16{stroke:#7095f1;}.cls-17{fill:#7095f1;}.cls-18{stroke:#87e0d4;}.cls-19{fill:#87e0d4;}.cls-20{stroke:#c7f64a;}.cls-21{fill:#c7f64a;}.cls-22{stroke:#1ebf70;}.cls-23{fill:#1ebf70;}.cls-24{stroke:#87e089;}.cls-25{fill:#87e089;}.cls-26{stroke:#f5a034;}.cls-27{fill:#f5a034;}.cls-28{stroke:#b5becf;}.cls-29{fill:#b5becf;}.cls-30{stroke:#f99d89;}.cls-31{fill:#f99d89;}.cls-32{stroke:#aa96a4;}.cls-33{fill:#aa96a4;}.cls-34{stroke:#c2e032;}.cls-35{fill:#c2e032;}.cls-36{stroke:#ff0;}.cls-37{fill:#ff0;}.cls-38{stroke:#dc4549;}.cls-39{fill:#dc4549;}.cls-40{letter-spacing:0.58em;}.cls-41{stroke:#e4000d;}.cls-42{fill:#e4000d;}.cls-43{stroke:#f93f07;}.cls-44{fill:#f93f07;}.cls-45{stroke:#f57f4e;}.cls-46{fill:#f57f4e;}.cls-48{stroke:#87e0bd;}.cls-49{fill:#87e0bd;}.cls-50{stroke:#767cff;}.cls-51{fill:#767cff;}</style></defs><g id="Layer_2" data-name="Layer 2"><rect id="backgorund" class="cls-1" x="-513.82" width="1920" height="763.37"/><text class="cls-2" transform="translate(1215.71 58.83)">18,6%</text><line class="cls-3" x1="462.64" y1="54.74" x2="1195.15" y2="54.74"/><rect class="cls-4" x="462.31" y="52.55" width="0.67" height="4.37"/><circle class="cls-4" cx="1194.9" cy="54.74" r="5.05"/><text class="cls-5" transform="translate(374.42 58.02)">INLOCO</text><text class="cls-2" transform="translate(798.89 86.32)">8,3%</text><line class="cls-6" x1="462.64" y1="82.23" x2="787.89" y2="82.23"/><rect class="cls-7" x="462.31" y="80.04" width="0.67" height="4.37"/><path class="cls-7" d="M787.68,86.44a4.21,4.21,0,1,0-4.21-4.21A4.21,4.21,0,0,0,787.68,86.44Z"/><text class="cls-5" transform="translate(283.43 85.51)">NÃO LOCALIZADA</text><text class="cls-2" transform="translate(611.06 113.73)">3,2%</text><line class="cls-8" x1="462.64" y1="109.63" x2="590.6" y2="109.63"/><rect class="cls-9" x="462.31" y="107.45" width="0.67" height="4.37"/><path class="cls-9" d="M590.35,114.69a5.06,5.06,0,1,0-5.06-5.06A5.06,5.06,0,0,0,590.35,114.69Z"/><text class="cls-5" transform="translate(113.1 112.92)">CLARO; OI; VIVO; TIM; ABR TELECOM</text><text class="cls-2" transform="translate(518.61 437.76)">1,2</text><line class="cls-10" x1="462.64" y1="433.67" x2="503.93" y2="433.67"/><rect class="cls-11" x="462.31" y="431.49" width="0.67" height="4.37"/><circle class="cls-11" cx="503.68" cy="433.67" r="5.05"/><text class="cls-5" transform="translate(172.24 436.96)">INSTITUTO LAURA FRESSATTO</text><text class="cls-2" transform="translate(518.61 465.9)">1,2</text><line class="cls-12" x1="462.64" y1="461.81" x2="503.93" y2="461.81"/><rect class="cls-13" x="462.31" y="459.62" width="0.67" height="4.37"/><circle class="cls-13" cx="503.68" cy="461.81" r="5.05"/><text class="cls-5" transform="translate(238.53 465.09)">MINISTÉRIO DA SAÚDE</text><text class="cls-2" transform="translate(501.3 493.31)">0,8</text><line class="cls-14" x1="462.64" y1="489.21" x2="488.88" y2="489.21"/><rect class="cls-15" x="462.31" y="487.03" width="0.67" height="4.37"/><path class="cls-15" d="M488.63,494.27a5.06,5.06,0,1,0-5.06-5.06A5.06,5.06,0,0,0,488.63,494.27Z"/><text class="cls-5" transform="translate(394.51 492.5)">CIASC</text><text class="cls-2" transform="translate(498.42 520.71)">0,8</text><line class="cls-16" x1="462.64" y1="516.62" x2="487.68" y2="516.62"/><rect class="cls-17" x="462.31" y="514.44" width="0.67" height="4.37"/><circle class="cls-17" cx="487.43" cy="516.62" r="5.05"/><text class="cls-5" transform="translate(374.35 519.91)">EDUSIM</text><text class="cls-2" transform="translate(501.3 548.12)">0,8</text><line class="cls-18" x1="462.64" y1="544.03" x2="488.88" y2="544.03"/><rect class="cls-19" x="462.31" y="541.84" width="0.67" height="4.37"/><path class="cls-19" d="M488.63,549.08a5.06,5.06,0,1,0-5.06-5.05A5,5,0,0,0,488.63,549.08Z"/><text class="cls-5" transform="translate(358.77 547.31)">LIFESHUB</text><line class="cls-20" x1="462.64" y1="570.63" x2="488.28" y2="570.63"/><rect class="cls-21" x="462.31" y="568.44" width="0.67" height="4.37"/><circle class="cls-21" cx="488.03" cy="570.63" r="5.05"/><text class="cls-2" transform="translate(501.3 575.53)">0,8</text><text class="cls-5" transform="translate(327.01 574.72)">MITO GAMES</text><text class="cls-2" transform="translate(498.42 602.93)">0,8</text><line class="cls-22" x1="462.64" y1="598.84" x2="487.08" y2="598.84"/><rect class="cls-23" x="462.31" y="596.66" width="0.67" height="4.37"/><path class="cls-23" d="M486.83,603.89a5.05,5.05,0,1,0-5.05-5A5,5,0,0,0,486.83,603.89Z"/><text class="cls-5" transform="translate(365.19 602.13)">NEOWAY</text><line class="cls-24" x1="462.64" y1="626.67" x2="488.01" y2="626.67"/><rect class="cls-25" x="462.31" y="624.48" width="0.67" height="4.37"/><path class="cls-25" d="M487.76,631.72a5.06,5.06,0,1,0-5.05-5.05A5,5,0,0,0,487.76,631.72Z"/><text class="cls-2" transform="translate(501.3 630.34)">0,8</text><text class="cls-5" transform="translate(360.7 629.53)">PRODESP</text><text class="cls-2" transform="translate(518.61 410.36)">1,2</text><line class="cls-26" x1="462.64" y1="406.26" x2="503.93" y2="406.26"/><rect class="cls-27" x="462.31" y="404.08" width="0.67" height="4.37"/><circle class="cls-27" cx="503.68" cy="406.26" r="5.05"/><text class="cls-5" transform="translate(342.41 409.55)">CYBERLABS</text><text class="cls-2" transform="translate(501.3 685.89)">0,8</text><line class="cls-28" x1="462.64" y1="681.79" x2="487.35" y2="681.79"/><rect class="cls-29" x="462.31" y="679.61" width="0.67" height="4.37"/><circle class="cls-29" cx="487.1" cy="681.79" r="5.05"/><text class="cls-5" transform="translate(190.03 685.08)">SEC. DA SAÚDE DE MANAUS</text><text class="cls-2" transform="translate(541.56 334.45)">1,6</text><line class="cls-30" x1="462.64" y1="330.35" x2="519.05" y2="330.35"/><rect class="cls-31" x="462.31" y="328.17" width="0.67" height="4.37"/><path class="cls-31" d="M518.8,335.4a5,5,0,1,0-5-5A5,5,0,0,0,518.8,335.4Z"/><text class="cls-5" transform="translate(108.81 333.64)">SEC. DESENV. E INOVAÇÃO DE GOIÁS</text><text class="cls-2" transform="translate(611.48 141.14)">2,8%</text><line class="cls-32" x1="462.64" y1="137.04" x2="582.23" y2="137.04"/><rect class="cls-33" x="462.31" y="134.86" width="0.67" height="4.37"/><circle class="cls-33" cx="581.97" cy="137.04" r="5.05"/><text class="cls-5" transform="translate(244.61 140.33)">DAHUA TECHNOLOGY</text><text class="cls-2" transform="translate(611.48 168.54)">2,8%</text><line class="cls-34" x1="462.64" y1="164.45" x2="582.23" y2="164.45"/><rect class="cls-35" x="462.31" y="162.26" width="0.67" height="4.37"/><circle class="cls-35" cx="581.97" cy="164.45" r="5.05"/><text class="cls-5" transform="translate(394.84 167.73)">ZOOX</text><text class="cls-2" transform="translate(552.62 195.95)">2%</text><line class="cls-36" x1="462.64" y1="191.85" x2="534.3" y2="191.85"/><rect class="cls-37" x="462.31" y="189.67" width="0.67" height="4.37"/><circle class="cls-37" cx="534.05" cy="191.85" r="5.05"/><text class="cls-5" transform="translate(352.22 195.14)">HIKVISION</text><text class="cls-2" transform="translate(552.62 223.36)">2%</text><line class="cls-26" x1="462.64" y1="219.26" x2="534.3" y2="219.26"/><rect class="cls-27" x="462.31" y="217.08" width="0.67" height="4.37"/><path class="cls-27" d="M534.05,224.31a5.05,5.05,0,1,0-5-5.05A5,5,0,0,0,534.05,224.31Z"/><text class="cls-5" transform="translate(156.02 222.55)">NOVETECH; CORE CONSULTING</text><text class="cls-2" transform="translate(552.62 250.76)">2%</text><line class="cls-38" x1="462.64" y1="246.67" x2="534.3" y2="246.67"/><rect class="cls-39" x="462.31" y="244.48" width="0.67" height="4.37"/><circle class="cls-39" cx="534.05" cy="246.67" r="5.05"/><text class="cls-5" transform="translate(322.82 249.95)">SCIPOPULIS<tspan class="cls-40" x="108.41" y="0">	</tspan></text><text class="cls-2" transform="translate(552.62 278.17)">2%</text><line class="cls-41" x1="462.64" y1="274.07" x2="534.3" y2="274.07"/><rect class="cls-42" x="462.31" y="271.89" width="0.67" height="4.37"/><circle class="cls-42" cx="534.05" cy="274.07" r="5.05"/><text class="cls-5" transform="translate(374.77 277.36)">SERPRO</text><line class="cls-43" x1="462.64" y1="302.21" x2="519.05" y2="302.21"/><rect class="cls-44" x="462.31" y="300.03" width="0.67" height="4.37"/><path class="cls-44" d="M518.8,307.26a5,5,0,1,0-5-5.05A5,5,0,0,0,518.8,307.26Z"/><text class="cls-2" transform="translate(541.56 306.31)">1,6</text><text class="cls-5" transform="translate(53.59 305.5)">EAGLE TECNOLOGIA; ASS. ANTÔNIO VIEIRA</text><text class="cls-2" transform="translate(518.61 369.13)">1,2</text><line class="cls-45" x1="462.64" y1="365.03" x2="503.93" y2="365.03"/><rect class="cls-46" x="462.31" y="362.85" width="0.67" height="4.37"/><circle class="cls-46" cx="503.68" cy="365.03" r="5.05"/><path class="cls-47" d="M164.65,346.29h4a7.52,7.52,0,0,1,4.06.84,2.92,2.92,0,0,1,1.25,2.64,3,3,0,0,1-.7,2.05,3.3,3.3,0,0,1-2,1.06V353q3.21.55,3.21,3.36a3.63,3.63,0,0,1-1.28,2.94,5.47,5.47,0,0,1-3.57,1.05h-4.92Zm1.64,6H169a4.43,4.43,0,0,0,2.5-.54,2.11,2.11,0,0,0,.76-1.83,1.85,1.85,0,0,0-.85-1.7,5.32,5.32,0,0,0-2.7-.53h-2.41Zm0,1.38v5.25h2.94a4.2,4.2,0,0,0,2.57-.66,2.41,2.41,0,0,0,.86-2,2.17,2.17,0,0,0-.88-1.92,4.71,4.71,0,0,0-2.68-.62Z"/><path class="cls-47" d="M179.08,354.49v5.83h-1.64v-14h3.87a6.11,6.11,0,0,1,3.83,1,3.6,3.6,0,0,1,1.24,3,3.73,3.73,0,0,1-2.84,3.76l3.83,6.3h-1.94L182,354.49Zm0-1.4h2.25a3.87,3.87,0,0,0,2.54-.69,2.55,2.55,0,0,0,.81-2.06,2.33,2.33,0,0,0-.83-2,4.44,4.44,0,0,0-2.64-.62h-2.13Z"/><path class="cls-47" d="M198.5,360.32l-1.75-4.46H191.1l-1.74,4.46h-1.65l5.57-14.08h1.37l5.55,14.08Zm-2.27-5.93L194.6,350c-.22-.55-.43-1.22-.66-2a16.5,16.5,0,0,1-.61,2l-1.65,4.35Z"/><path class="cls-47" d="M202.13,360.32v-14h1.64v14Z"/><path class="cls-47" d="M218.64,360.32h-1.87l-7.7-11.77H209c.1,1.38.15,2.65.15,3.8v8h-1.51v-14h1.85L217.17,358h.08c0-.17-.05-.73-.09-1.67s-.06-1.6,0-2v-8h1.53Z"/><path class="cls-47" d="M226.1,353.31l3.76-7h1.77l-4.7,8.59v5.44h-1.66V355l-4.69-8.67h1.79Z"/><path class="cls-47" d="M240.34,354.49v5.83H238.7v-14h3.86a6.08,6.08,0,0,1,3.83,1,3.57,3.57,0,0,1,1.24,3A3.72,3.72,0,0,1,244.8,354l3.83,6.3h-1.94l-3.41-5.83Zm0-1.4h2.24a3.89,3.89,0,0,0,2.55-.69,2.55,2.55,0,0,0,.81-2.06,2.33,2.33,0,0,0-.83-2,4.46,4.46,0,0,0-2.64-.62h-2.13Z"/><path class="cls-47" d="M258.76,360.32H250.9v-14h7.86v1.45h-6.22v4.52h5.84v1.44h-5.84v5.16h6.22Z"/><path class="cls-47" d="M269.83,356.59a3.44,3.44,0,0,1-1.35,2.89,5.87,5.87,0,0,1-3.66,1,9.22,9.22,0,0,1-3.86-.64V358.3a10.44,10.44,0,0,0,1.89.57,10,10,0,0,0,2,.21,4.11,4.11,0,0,0,2.47-.61,2.05,2.05,0,0,0,.83-1.73,2.25,2.25,0,0,0-.29-1.19,2.77,2.77,0,0,0-1-.86,13.6,13.6,0,0,0-2.09-.89,6.72,6.72,0,0,1-2.81-1.66,3.68,3.68,0,0,1-.85-2.51,3.1,3.1,0,0,1,1.23-2.58,5.08,5.08,0,0,1,3.24-1,9.57,9.57,0,0,1,3.86.77l-.51,1.42a8.67,8.67,0,0,0-3.39-.73,3.32,3.32,0,0,0-2,.56,1.84,1.84,0,0,0-.73,1.54,2.37,2.37,0,0,0,.27,1.2,2.51,2.51,0,0,0,.91.85,11.08,11.08,0,0,0,2,.86,7.67,7.67,0,0,1,3.05,1.69A3.29,3.29,0,0,1,269.83,356.59Z"/><path class="cls-47" d="M284.94,353.29a7.73,7.73,0,0,1-1.71,5.3,6,6,0,0,1-4.76,1.92,6.11,6.11,0,0,1-4.8-1.89,7.75,7.75,0,0,1-1.69-5.35,7.66,7.66,0,0,1,1.69-5.31,6.14,6.14,0,0,1,4.82-1.89,6,6,0,0,1,4.74,1.92A7.69,7.69,0,0,1,284.94,353.29Zm-11.23,0a6.64,6.64,0,0,0,1.22,4.32,5,5,0,0,0,7.08,0,6.73,6.73,0,0,0,1.2-4.33A6.66,6.66,0,0,0,282,349a4.27,4.27,0,0,0-3.52-1.46,4.36,4.36,0,0,0-3.56,1.47A6.61,6.61,0,0,0,273.71,353.29Z"/><path class="cls-47" d="M288.08,360.32v-14h1.64v12.55h6.22v1.48Z"/><path class="cls-47" d="M309,346.29v9.08a4.93,4.93,0,0,1-1.46,3.77,5.57,5.57,0,0,1-4,1.37,5.33,5.33,0,0,1-3.93-1.38,5.11,5.11,0,0,1-1.4-3.8v-9h1.64v9.16a3.58,3.58,0,0,0,1,2.69,3.91,3.91,0,0,0,2.84.94,3.73,3.73,0,0,0,2.74-.94,3.59,3.59,0,0,0,1-2.71v-9.14Z"/><path class="cls-47" d="M317,360.32h-1.64V347.74h-4.46v-1.45H321.5v1.45H317Z"/><path class="cls-47" d="M323.62,360.32v-14h1.63v14Z"/><path class="cls-47" d="M341.35,353.29a7.73,7.73,0,0,1-1.71,5.3,6,6,0,0,1-4.76,1.92,6.11,6.11,0,0,1-4.8-1.89,7.75,7.75,0,0,1-1.69-5.35,7.66,7.66,0,0,1,1.69-5.31,6.14,6.14,0,0,1,4.82-1.89,6,6,0,0,1,4.74,1.92A7.69,7.69,0,0,1,341.35,353.29Zm-11.23,0a6.64,6.64,0,0,0,1.22,4.32,5,5,0,0,0,7.08,0,6.73,6.73,0,0,0,1.19-4.33,6.66,6.66,0,0,0-1.19-4.3,4.27,4.27,0,0,0-3.52-1.46,4.36,4.36,0,0,0-3.56,1.47A6.61,6.61,0,0,0,330.12,353.29Z"/><path class="cls-47" d="M355.5,360.32h-1.87l-7.7-11.77h-.08c.1,1.38.15,2.65.15,3.8v8h-1.51v-14h1.85L354,358h.08c0-.17,0-.73-.09-1.67s-.06-1.6,0-2v-8h1.53Z"/><path class="cls-47" d="M360.81,358l.14.22a23.27,23.27,0,0,1-.72,2.23c-.31.85-.64,1.64-1,2.37H358c.18-.67.37-1.49.58-2.47s.35-1.76.43-2.35Zm-2-7.21c0-.86.38-1.29,1.15-1.29s1.18.43,1.18,1.29a1.34,1.34,0,0,1-.31,1,1.15,1.15,0,0,1-.87.34,1,1,0,0,1-.85-.34A1.38,1.38,0,0,1,358.85,350.83Z"/><path class="cls-47" d="M378.69,350.38a3.94,3.94,0,0,1-1.46,3.28,6.69,6.69,0,0,1-4.18,1.14h-1.66v5.52h-1.64v-14h3.65C376.93,346.29,378.69,347.66,378.69,350.38Zm-7.3,3h1.47a5.49,5.49,0,0,0,3.16-.7,2.55,2.55,0,0,0,1-2.24,2.44,2.44,0,0,0-.92-2.08,4.82,4.82,0,0,0-2.85-.68h-1.83Z"/><path class="cls-47" d="M381.64,360.32v-14h1.63v14Z"/><path class="cls-47" d="M391.47,360.32h-1.63V347.74h-4.47v-1.45h10.57v1.45h-4.47Z"/><path class="cls-47" d="M406.91,360.32l-1.75-4.46h-5.65l-1.73,4.46h-1.66l5.57-14.08h1.38l5.54,14.08Zm-2.26-5.93L403,350c-.21-.55-.43-1.22-.65-2a21,21,0,0,1-.61,2l-1.66,4.35Z"/><path class="cls-47" d="M421.55,360.32h-1.87L412,348.55h-.07c.1,1.38.15,2.65.15,3.8v8h-1.51v-14h1.85L420.08,358h.08c0-.17-.05-.73-.09-1.67s-.06-1.6-.05-2v-8h1.53Z"/><path class="cls-47" d="M431.63,353h4.79v6.82a15.1,15.1,0,0,1-2.28.54,17.57,17.57,0,0,1-2.68.18,6.52,6.52,0,0,1-5-1.89,7.43,7.43,0,0,1-1.78-5.31,8,8,0,0,1,.88-3.84,6,6,0,0,1,2.54-2.51,8.22,8.22,0,0,1,3.88-.87,10.6,10.6,0,0,1,4.2.83l-.63,1.44a9.39,9.39,0,0,0-3.67-.81,5.25,5.25,0,0,0-4,1.53,5.85,5.85,0,0,0-1.45,4.23,6,6,0,0,0,1.39,4.31,5.42,5.42,0,0,0,4.09,1.46,12.45,12.45,0,0,0,2.87-.33v-4.32h-3.15Z"/><path class="cls-47" d="M441.23,358l.15.22c-.17.64-.41,1.38-.72,2.23s-.65,1.64-1,2.37h-1.2c.17-.67.36-1.49.57-2.47s.36-1.76.44-2.35Zm-2-7.21c0-.86.38-1.29,1.15-1.29s1.18.43,1.18,1.29a1.34,1.34,0,0,1-.32,1,1.11,1.11,0,0,1-.86.34,1.07,1.07,0,0,1-.86-.34A1.43,1.43,0,0,1,439.28,350.83Z"/><path class="cls-47" d="M147.24,383.91H145.6v-14h7.85v1.45h-6.21v5.13h5.84v1.45h-5.84Z"/><path class="cls-47" d="M164.64,383.91l-1.75-4.47h-5.65l-1.73,4.47h-1.66l5.57-14.09h1.38l5.54,14.09ZM162.38,378l-1.64-4.35c-.21-.55-.43-1.23-.66-2a18.39,18.39,0,0,1-.6,2L157.82,378Zm-3.46-9.47a16.55,16.55,0,0,0,1-1.44c.35-.56.63-1.05.84-1.46h2v.2a15.05,15.05,0,0,1-1.27,1.53,14,14,0,0,1-1.45,1.41h-1.07Z"/><path class="cls-47" d="M168.28,369.88h4a7.47,7.47,0,0,1,4.05.83,3,3,0,0,1,1.26,2.64,3.08,3.08,0,0,1-.7,2.06,3.4,3.4,0,0,1-2,1v.1q3.21.54,3.21,3.35a3.6,3.6,0,0,1-1.28,2.94,5.47,5.47,0,0,1-3.57,1.06h-4.91Zm1.63,6h2.7a4.43,4.43,0,0,0,2.5-.54,2.08,2.08,0,0,0,.76-1.83,1.84,1.84,0,0,0-.85-1.7,5.29,5.29,0,0,0-2.7-.52h-2.41Zm0,1.39v5.24h2.94a4.18,4.18,0,0,0,2.57-.65,2.42,2.42,0,0,0,.87-2.06,2.18,2.18,0,0,0-.89-1.92,4.7,4.7,0,0,0-2.68-.61Z"/><path class="cls-47" d="M182.7,378.07v5.84h-1.63v-14h3.86a6.14,6.14,0,0,1,3.83,1,3.58,3.58,0,0,1,1.24,3,3.73,3.73,0,0,1-2.83,3.76l3.82,6.31h-1.94l-3.41-5.84Zm0-1.4H185a3.86,3.86,0,0,0,2.54-.69,2.53,2.53,0,0,0,.81-2.05,2.34,2.34,0,0,0-.82-2,4.48,4.48,0,0,0-2.65-.61H182.7Z"/><path class="cls-47" d="M193.27,383.91v-14h1.63v14Z"/><path class="cls-47" d="M204.8,371.13a4.61,4.61,0,0,0-3.66,1.54,6.2,6.2,0,0,0-1.35,4.22,6.29,6.29,0,0,0,1.3,4.26,4.6,4.6,0,0,0,3.69,1.5,12.76,12.76,0,0,0,3.37-.53v1.43a10.29,10.29,0,0,1-3.62.55,6.14,6.14,0,0,1-4.8-1.88,7.73,7.73,0,0,1-1.69-5.35,8.47,8.47,0,0,1,.81-3.8,5.82,5.82,0,0,1,2.35-2.51,7.14,7.14,0,0,1,3.62-.89,8.76,8.76,0,0,1,3.88.81l-.7,1.4A7.45,7.45,0,0,0,204.8,371.13Z"/><path class="cls-47" d="M220.08,383.91l-1.76-4.47h-5.64l-1.74,4.47h-1.66l5.57-14.09h1.38l5.54,14.09ZM217.81,378l-1.63-4.35a19.53,19.53,0,0,1-.66-2,16.62,16.62,0,0,1-.61,2L213.26,378Z"/><path class="cls-47" d="M240.09,376.76a7.09,7.09,0,0,1-1.9,5.31,7.53,7.53,0,0,1-5.45,1.84h-3.9v-14h4.32a6.89,6.89,0,0,1,5.1,1.81A6.82,6.82,0,0,1,240.09,376.76Zm-1.74.05a5.63,5.63,0,0,0-1.38-4.13,5.54,5.54,0,0,0-4.11-1.39h-2.38V382.5h2a6.08,6.08,0,0,0,4.41-1.44A5.68,5.68,0,0,0,238.35,376.81Z"/><path class="cls-47" d="M251.08,383.91h-7.85v-14h7.85v1.45h-6.21v4.52h5.84v1.43h-5.84v5.17h6.21Z"/><path class="cls-47" d="M270.34,383.91h-1.87l-7.7-11.78h-.08c.1,1.38.16,2.65.16,3.8v8h-1.52v-14h1.85l7.68,11.72h.08c0-.17,0-.72-.09-1.66s-.06-1.61,0-2v-8.05h1.53Z"/><path class="cls-47" d="M282.07,383.91h-7.86v-14h7.86v1.45h-6.22v4.52h5.84v1.43h-5.84v5.17h6.22Z"/><path class="cls-47" d="M291.39,376.56h4.79v6.82a18,18,0,0,1-2.28.54,17.57,17.57,0,0,1-2.68.18,6.49,6.49,0,0,1-5-1.9,7.43,7.43,0,0,1-1.78-5.31,7.93,7.93,0,0,1,.88-3.83,5.94,5.94,0,0,1,2.54-2.52,8.22,8.22,0,0,1,3.88-.87,10.68,10.68,0,0,1,4.21.83l-.64,1.44a9.39,9.39,0,0,0-3.67-.81,5.25,5.25,0,0,0-4,1.53,5.89,5.89,0,0,0-1.45,4.23,6,6,0,0,0,1.4,4.31,5.36,5.36,0,0,0,4.09,1.47,11.91,11.91,0,0,0,2.86-.34V378h-3.15Z"/><path class="cls-47" d="M311.79,376.87a7.71,7.71,0,0,1-1.71,5.3,6.92,6.92,0,0,1-9.56,0,9.25,9.25,0,0,1,0-10.66,6.14,6.14,0,0,1,4.82-1.88,6.05,6.05,0,0,1,4.75,1.91A7.74,7.74,0,0,1,311.79,376.87Zm-11.23,0a6.64,6.64,0,0,0,1.22,4.32,5,5,0,0,0,7.08,0,8.37,8.37,0,0,0,0-8.62,4.28,4.28,0,0,0-3.53-1.47,4.38,4.38,0,0,0-3.56,1.48A6.58,6.58,0,0,0,300.56,376.87Zm3.41-8.36a14.61,14.61,0,0,0,1-1.44c.36-.56.64-1.05.85-1.46h1.94v.2a13.54,13.54,0,0,1-1.26,1.53,13,13,0,0,1-1.46,1.41H304Z"/><path class="cls-47" d="M321,371.13a4.63,4.63,0,0,0-3.67,1.54,6.2,6.2,0,0,0-1.35,4.22,6.34,6.34,0,0,0,1.3,4.26,4.62,4.62,0,0,0,3.7,1.5,12.76,12.76,0,0,0,3.36-.53v1.43a10.27,10.27,0,0,1-3.61.55,6.15,6.15,0,0,1-4.81-1.88,7.73,7.73,0,0,1-1.69-5.35,8.47,8.47,0,0,1,.81-3.8,5.85,5.85,0,0,1,2.36-2.51,7.1,7.1,0,0,1,3.61-.89,8.76,8.76,0,0,1,3.88.81l-.69,1.4A7.52,7.52,0,0,0,321,371.13Z"/><path class="cls-47" d="M327.39,383.91v-14H329v14Z"/><path class="cls-47" d="M345.12,376.87a7.71,7.71,0,0,1-1.71,5.3,6.92,6.92,0,0,1-9.56,0,9.25,9.25,0,0,1,0-10.66,6.14,6.14,0,0,1,4.82-1.88,6,6,0,0,1,4.74,1.91A7.69,7.69,0,0,1,345.12,376.87Zm-11.23,0a6.64,6.64,0,0,0,1.22,4.32,5,5,0,0,0,7.08,0,6.77,6.77,0,0,0,1.19-4.33,6.61,6.61,0,0,0-1.19-4.29,4.26,4.26,0,0,0-3.52-1.47,4.36,4.36,0,0,0-3.56,1.48A6.58,6.58,0,0,0,333.89,376.87Z"/><path class="cls-47" d="M356.21,380.17a3.43,3.43,0,0,1-1.35,2.89,5.87,5.87,0,0,1-3.66,1,9.2,9.2,0,0,1-3.86-.65v-1.57a10.44,10.44,0,0,0,1.89.58,10.07,10.07,0,0,0,2,.21,4.09,4.09,0,0,0,2.46-.62,2,2,0,0,0,.83-1.72,2.18,2.18,0,0,0-.29-1.2,2.82,2.82,0,0,0-1-.86,13.8,13.8,0,0,0-2.1-.89,6.72,6.72,0,0,1-2.81-1.66,3.65,3.65,0,0,1-.84-2.5,3.1,3.1,0,0,1,1.22-2.59,5.12,5.12,0,0,1,3.24-1,9.57,9.57,0,0,1,3.86.77l-.51,1.42a8.85,8.85,0,0,0-3.39-.73,3.29,3.29,0,0,0-2,.56,1.83,1.83,0,0,0-.74,1.54,2.37,2.37,0,0,0,.27,1.2,2.64,2.64,0,0,0,.92.85,10.75,10.75,0,0,0,2,.86,8,8,0,0,1,3.05,1.69A3.33,3.33,0,0,1,356.21,380.17Z"/><path class="cls-47" d="M360.53,381.62l.14.22a22.4,22.4,0,0,1-.72,2.23c-.31.85-.64,1.64-1,2.37h-1.21c.18-.67.37-1.49.58-2.47s.35-1.76.43-2.35Zm-2-7.2c0-.87.38-1.3,1.15-1.3s1.18.43,1.18,1.3a1.37,1.37,0,0,1-.31,1,1.16,1.16,0,0,1-.87.33,1.07,1.07,0,0,1-.85-.33A1.42,1.42,0,0,1,358.57,374.42Z"/><path class="cls-47" d="M375.67,376.56h4.79v6.82a15.2,15.2,0,0,1-4.95.72,6.5,6.5,0,0,1-5-1.9,7.43,7.43,0,0,1-1.78-5.31,7.93,7.93,0,0,1,.88-3.83,6,6,0,0,1,2.54-2.52,8.27,8.27,0,0,1,3.89-.87,10.67,10.67,0,0,1,4.2.83l-.64,1.44a9.35,9.35,0,0,0-3.67-.81,5.25,5.25,0,0,0-4,1.53,5.93,5.93,0,0,0-1.45,4.23,6,6,0,0,0,1.4,4.31,5.37,5.37,0,0,0,4.09,1.47,11.85,11.85,0,0,0,2.86-.34V378h-3.15Z"/><path class="cls-47" d="M396.07,376.87a7.71,7.71,0,0,1-1.71,5.3,6.92,6.92,0,0,1-9.56,0,9.23,9.23,0,0,1,0-10.66,6.12,6.12,0,0,1,4.81-1.88,6.05,6.05,0,0,1,4.75,1.91A7.74,7.74,0,0,1,396.07,376.87Zm-11.23,0a6.64,6.64,0,0,0,1.22,4.32,4.33,4.33,0,0,0,3.54,1.48,4.28,4.28,0,0,0,3.54-1.47,8.37,8.37,0,0,0,0-8.62,4.28,4.28,0,0,0-3.53-1.47,4.38,4.38,0,0,0-3.56,1.48A6.58,6.58,0,0,0,384.84,376.87Z"/><path class="cls-47" d="M411.44,376.87a7.71,7.71,0,0,1-1.71,5.3,6.92,6.92,0,0,1-9.56,0,7.78,7.78,0,0,1-1.69-5.35,7.68,7.68,0,0,1,1.7-5.31,6.12,6.12,0,0,1,4.82-1.88,6,6,0,0,1,4.74,1.91A7.69,7.69,0,0,1,411.44,376.87Zm-11.22,0a6.64,6.64,0,0,0,1.21,4.32,4.34,4.34,0,0,0,3.55,1.48,4.27,4.27,0,0,0,3.53-1.47,8.37,8.37,0,0,0,0-8.62,4.26,4.26,0,0,0-3.52-1.47,4.38,4.38,0,0,0-3.57,1.48A6.58,6.58,0,0,0,400.22,376.87Z"/><path class="cls-47" d="M420.78,376.56h4.79v6.82a17.43,17.43,0,0,1-2.27.54,17.66,17.66,0,0,1-2.68.18,6.49,6.49,0,0,1-5-1.9,7.43,7.43,0,0,1-1.79-5.31,7.94,7.94,0,0,1,.89-3.83,5.92,5.92,0,0,1,2.53-2.52,8.27,8.27,0,0,1,3.89-.87,10.67,10.67,0,0,1,4.2.83l-.64,1.44a9.35,9.35,0,0,0-3.67-.81,5.28,5.28,0,0,0-4,1.53,5.93,5.93,0,0,0-1.44,4.23A6,6,0,0,0,417,381.2a5.37,5.37,0,0,0,4.09,1.47,11.85,11.85,0,0,0,2.86-.34V378h-3.15Z"/><path class="cls-47" d="M429,383.91v-14h1.63v12.55h6.22v1.48Z"/><path class="cls-47" d="M447.06,383.91H439.2v-14h7.86v1.45h-6.22v4.52h5.84v1.43h-5.84v5.17h6.22Z"/><text class="cls-2" transform="translate(498.42 657.75)">0,8</text><line class="cls-48" x1="462.64" y1="653.65" x2="487.35" y2="653.65"/><rect class="cls-49" x="462.31" y="651.47" width="0.67" height="4.37"/><circle class="cls-49" cx="487.1" cy="653.65" r="5.05"/><text class="cls-5" transform="translate(63.98 656.94)">PRONTLIFE; UFRJ; LEMOBS; LNCC; UNIFEI</text><text class="cls-2" transform="translate(498.42 717.03)">0,8</text><line class="cls-50" x1="462.64" y1="712.93" x2="487.35" y2="712.93"/><rect class="cls-51" x="462.31" y="710.75" width="0.67" height="4.37"/><circle class="cls-51" cx="487.1" cy="712.93" r="5.05"/><path class="cls-47" d="M282.8,709.49a3.42,3.42,0,0,1-1.35,2.88,5.81,5.81,0,0,1-3.66,1,9.22,9.22,0,0,1-3.86-.64v-1.58a9.71,9.71,0,0,0,1.89.58,10.07,10.07,0,0,0,2,.21,4.09,4.09,0,0,0,2.46-.62,2,2,0,0,0,.83-1.72,2.18,2.18,0,0,0-.29-1.2,2.71,2.71,0,0,0-1-.85,13.64,13.64,0,0,0-2.1-.9A6.62,6.62,0,0,1,275,705a3.65,3.65,0,0,1-.84-2.5,3.1,3.1,0,0,1,1.22-2.58,5.12,5.12,0,0,1,3.24-1,9.4,9.4,0,0,1,3.86.77l-.51,1.42a8.67,8.67,0,0,0-3.39-.73,3.29,3.29,0,0,0-2,.55,1.84,1.84,0,0,0-.74,1.55,2.36,2.36,0,0,0,.27,1.19,2.57,2.57,0,0,0,.92.86,11.5,11.5,0,0,0,2,.86,7.83,7.83,0,0,1,3.05,1.68A3.37,3.37,0,0,1,282.8,709.49Z"/><path class="cls-47" d="M293.54,713.22h-7.86v-14h7.86v1.45h-6.22v4.52h5.84v1.44h-5.84v5.16h6.22Z"/><path class="cls-47" d="M302.69,700.45A4.58,4.58,0,0,0,299,702a6.15,6.15,0,0,0-1.35,4.21,6.29,6.29,0,0,0,1.3,4.26,4.6,4.6,0,0,0,3.69,1.5,12.36,12.36,0,0,0,3.37-.53v1.43a10.29,10.29,0,0,1-3.62.55,6.14,6.14,0,0,1-4.8-1.88,7.72,7.72,0,0,1-1.69-5.35,8.47,8.47,0,0,1,.81-3.8,5.88,5.88,0,0,1,2.35-2.51,7.14,7.14,0,0,1,3.62-.88,8.9,8.9,0,0,1,3.88.8l-.7,1.4A7.58,7.58,0,0,0,302.69,700.45Z"/><path class="cls-47" d="M308.64,712.2a1.44,1.44,0,0,1,.29-1,1.09,1.09,0,0,1,.85-.33,1.15,1.15,0,0,1,.87.33,1.35,1.35,0,0,1,.31,1,1.3,1.3,0,0,1-.32,1,1.11,1.11,0,0,1-.86.34,1.13,1.13,0,0,1-.82-.31A1.32,1.32,0,0,1,308.64,712.2Z"/><path class="cls-47" d="M330.74,706.07a7.06,7.06,0,0,1-1.89,5.31,7.53,7.53,0,0,1-5.46,1.84h-3.9v-14h4.32a6.93,6.93,0,0,1,5.11,1.81A6.86,6.86,0,0,1,330.74,706.07Zm-1.74.06a5.65,5.65,0,0,0-1.38-4.14,5.54,5.54,0,0,0-4.11-1.39h-2.38v11.21h2a6.07,6.07,0,0,0,4.41-1.44A5.66,5.66,0,0,0,329,706.13Z"/><path class="cls-47" d="M342.74,713.22,341,708.76h-5.64l-1.74,4.46h-1.66l5.57-14.09h1.38l5.54,14.09Zm-2.27-5.93-1.64-4.35c-.21-.55-.43-1.22-.65-2a16.5,16.5,0,0,1-.61,2l-1.66,4.35Z"/><path class="cls-47" d="M359.45,709.49a3.42,3.42,0,0,1-1.35,2.88,5.81,5.81,0,0,1-3.66,1,9.22,9.22,0,0,1-3.86-.64v-1.58a9.71,9.71,0,0,0,1.89.58,10.07,10.07,0,0,0,2,.21,4.09,4.09,0,0,0,2.46-.62,2,2,0,0,0,.83-1.72,2.27,2.27,0,0,0-.29-1.2,2.75,2.75,0,0,0-1-.85,13.44,13.44,0,0,0-2.09-.9,6.62,6.62,0,0,1-2.81-1.66,3.65,3.65,0,0,1-.84-2.5A3.1,3.1,0,0,1,352,700a5.1,5.1,0,0,1,3.24-1,9.4,9.4,0,0,1,3.86.77l-.51,1.42a8.67,8.67,0,0,0-3.39-.73,3.27,3.27,0,0,0-2,.55,1.84,1.84,0,0,0-.74,1.55,2.36,2.36,0,0,0,.27,1.19,2.62,2.62,0,0,0,.91.86,11.87,11.87,0,0,0,2,.86,7.81,7.81,0,0,1,3.06,1.68A3.37,3.37,0,0,1,359.45,709.49Z"/><path class="cls-47" d="M371.19,713.22l-1.76-4.46h-5.64l-1.74,4.46h-1.66L366,699.13h1.38l5.54,14.09Zm-2.27-5.93-1.64-4.35c-.21-.55-.43-1.22-.65-2a16.5,16.5,0,0,1-.61,2l-1.66,4.35Z"/><path class="cls-47" d="M385.46,699.19v9.08A4.93,4.93,0,0,1,384,712a5.63,5.63,0,0,1-4,1.37,5.36,5.36,0,0,1-3.94-1.38,5.11,5.11,0,0,1-1.39-3.8v-9h1.63v9.15a3.62,3.62,0,0,0,1,2.7,3.88,3.88,0,0,0,2.83.94,3.76,3.76,0,0,0,2.75-.94,3.65,3.65,0,0,0,1-2.72v-9.13Zm-6.79-1.36c.3-.4.64-.88,1-1.44s.64-1.06.85-1.47h1.94v.2a13.51,13.51,0,0,1-1.26,1.54,16.49,16.49,0,0,1-1.45,1.41h-1.07Z"/><path class="cls-47" d="M400.44,706.07a7.06,7.06,0,0,1-1.89,5.31,7.51,7.51,0,0,1-5.45,1.84h-3.91v-14h4.32a6.93,6.93,0,0,1,5.11,1.81A6.86,6.86,0,0,1,400.44,706.07Zm-1.74.06a5.65,5.65,0,0,0-1.38-4.14,5.54,5.54,0,0,0-4.11-1.39h-2.38v11.21h2a6.07,6.07,0,0,0,4.41-1.44A5.66,5.66,0,0,0,398.7,706.13Z"/><path class="cls-47" d="M411.43,713.22h-7.85v-14h7.85v1.45h-6.21v4.52h5.84v1.44h-5.84v5.16h6.21Z"/><path class="cls-47" d="M430.93,706.07a7.06,7.06,0,0,1-1.89,5.31,7.49,7.49,0,0,1-5.45,1.84h-3.91v-14H424a6.31,6.31,0,0,1,6.93,6.88Zm-1.73.06a5.62,5.62,0,0,0-1.39-4.14,5.54,5.54,0,0,0-4.11-1.39h-2.38v11.21h2a6.06,6.06,0,0,0,4.4-1.44A5.62,5.62,0,0,0,429.2,706.13Z"/><path class="cls-47" d="M441.93,713.22h-7.86v-14h7.86v1.45h-6.22v4.52h5.84v1.44h-5.84v5.16h6.22Z"/><path class="cls-47" d="M173,724a4.62,4.62,0,0,0-3.67,1.54,6.23,6.23,0,0,0-1.34,4.22,6.33,6.33,0,0,0,1.29,4.25,4.64,4.64,0,0,0,3.7,1.5,12.7,12.7,0,0,0,3.36-.52v1.43a10.48,10.48,0,0,1-3.61.54,6.12,6.12,0,0,1-4.81-1.88,7.74,7.74,0,0,1-1.69-5.34A8.31,8.31,0,0,1,167,726a5.79,5.79,0,0,1,2.35-2.52,7.21,7.21,0,0,1,3.62-.88,8.69,8.69,0,0,1,3.87.81l-.69,1.4A7.48,7.48,0,0,0,173,724Z"/><path class="cls-47" d="M188.24,736.8l-1.75-4.46h-5.65l-1.73,4.46h-1.66L183,722.72h1.38l5.54,14.08ZM186,730.87l-1.64-4.35c-.21-.55-.43-1.22-.65-2a21,21,0,0,1-.61,2l-1.66,4.35Z"/><path class="cls-47" d="M198.11,736.8l-4.78-12.43h-.07c.09,1,.13,2.15.13,3.51v8.92h-1.51v-14h2.47l4.46,11.58h.07l4.51-11.58h2.44v14h-1.64v-9c0-1,.05-2.16.14-3.38h-.08l-4.82,12.42Z"/><path class="cls-47" d="M218.63,726.86a3.92,3.92,0,0,1-1.46,3.28,6.65,6.65,0,0,1-4.18,1.14h-1.65v5.52H209.7v-14h3.65C216.87,722.77,218.63,724.14,218.63,726.86Zm-7.29,3h1.47a5.48,5.48,0,0,0,3.15-.7,2.56,2.56,0,0,0,1-2.24,2.44,2.44,0,0,0-.92-2.08,4.82,4.82,0,0,0-2.85-.68h-1.83Z"/><path class="cls-47" d="M233.81,729.77a7.73,7.73,0,0,1-1.71,5.3,6,6,0,0,1-4.76,1.92,6.11,6.11,0,0,1-4.8-1.89,7.75,7.75,0,0,1-1.69-5.35,7.62,7.62,0,0,1,1.7-5.31,6.12,6.12,0,0,1,4.81-1.89,6,6,0,0,1,4.75,1.92A7.74,7.74,0,0,1,233.81,729.77Zm-11.23,0a6.64,6.64,0,0,0,1.22,4.32,5,5,0,0,0,7.08,0,8.39,8.39,0,0,0,0-8.63,4.31,4.31,0,0,0-3.53-1.46,4.37,4.37,0,0,0-3.56,1.47A6.61,6.61,0,0,0,222.58,729.77Z"/><path class="cls-47" d="M248.28,729.45h4.79v6.82a15.1,15.1,0,0,1-2.28.54,17.57,17.57,0,0,1-2.68.18,6.52,6.52,0,0,1-5-1.89,7.45,7.45,0,0,1-1.78-5.31,8,8,0,0,1,.88-3.84,6,6,0,0,1,2.54-2.51,8.22,8.22,0,0,1,3.88-.87,10.6,10.6,0,0,1,4.2.83l-.63,1.44a9.39,9.39,0,0,0-3.67-.81,5.25,5.25,0,0,0-4,1.53,5.85,5.85,0,0,0-1.45,4.23,6.08,6.08,0,0,0,1.39,4.31,5.43,5.43,0,0,0,4.1,1.46,12.42,12.42,0,0,0,2.86-.33v-4.32h-3.15Z"/><path class="cls-47" d="M258.09,731v5.83h-1.64v-14h3.86a6.13,6.13,0,0,1,3.84,1,3.59,3.59,0,0,1,1.23,3,3.72,3.72,0,0,1-2.83,3.76l3.83,6.3h-1.94L261,731Zm0-1.4h2.24a3.89,3.89,0,0,0,2.55-.69,2.55,2.55,0,0,0,.81-2.06,2.33,2.33,0,0,0-.83-2,4.46,4.46,0,0,0-2.64-.62h-2.13Z"/><path class="cls-47" d="M277.51,736.8l-1.76-4.46h-5.64l-1.74,4.46h-1.66l5.57-14.08h1.38l5.54,14.08Zm-2.27-5.93-1.64-4.35c-.21-.55-.43-1.22-.65-2a16.5,16.5,0,0,1-.61,2l-1.66,4.35Z"/><path class="cls-47" d="M292.15,736.8h-1.87L282.58,725h-.08c.1,1.38.15,2.65.15,3.8v8h-1.51v-14H283l7.68,11.73h.08c0-.17,0-.73-.09-1.67s-.06-1.6,0-2v-8.05h1.53Z"/><path class="cls-47" d="M307.27,729.65a7.06,7.06,0,0,1-1.89,5.31,7.51,7.51,0,0,1-5.45,1.84H296v-14h4.32a6.94,6.94,0,0,1,5.11,1.82A6.83,6.83,0,0,1,307.27,729.65Zm-1.74.06a5.65,5.65,0,0,0-1.38-4.14,5.58,5.58,0,0,0-4.11-1.39h-2.38v11.21h2a6.1,6.1,0,0,0,4.4-1.43A5.68,5.68,0,0,0,305.53,729.71Z"/><path class="cls-47" d="M318.27,736.8h-7.86v-14h7.86v1.45h-6.22v4.52h5.84v1.44h-5.84v5.16h6.22Z"/><path class="cls-47" d="M322.82,734.52l.15.22c-.17.64-.41,1.38-.72,2.23s-.65,1.64-1,2.37h-1.2c.17-.67.36-1.49.57-2.47s.36-1.76.44-2.35Zm-1.95-7.21q0-1.29,1.14-1.29c.79,0,1.19.43,1.19,1.29a1.34,1.34,0,0,1-.32,1,1.15,1.15,0,0,1-.87.34,1.09,1.09,0,0,1-.85-.34A1.43,1.43,0,0,1,320.87,727.31Z"/><path class="cls-47" d="M340.63,736.8l-1.76-4.46h-5.65l-1.73,4.46h-1.66l5.57-14.08h1.38l5.54,14.08Zm-2.27-5.93-1.64-4.35c-.21-.55-.43-1.22-.65-2a18.47,18.47,0,0,1-.61,2l-1.66,4.35Z"/><path class="cls-47" d="M350.46,729.45h4.79v6.82a15.1,15.1,0,0,1-2.28.54,17.57,17.57,0,0,1-2.68.18,6.52,6.52,0,0,1-5-1.89,7.45,7.45,0,0,1-1.78-5.31,8,8,0,0,1,.88-3.84,6,6,0,0,1,2.54-2.51,8.22,8.22,0,0,1,3.88-.87,10.6,10.6,0,0,1,4.2.83l-.63,1.44a9.39,9.39,0,0,0-3.67-.81,5.25,5.25,0,0,0-4,1.53,5.85,5.85,0,0,0-1.45,4.23,6,6,0,0,0,1.39,4.31,5.42,5.42,0,0,0,4.09,1.46,12.45,12.45,0,0,0,2.87-.33v-4.32h-3.15Z"/><path class="cls-47" d="M358.16,735.78a1.41,1.41,0,0,1,.29-1,1.08,1.08,0,0,1,.84-.33,1.15,1.15,0,0,1,.88.33,1.41,1.41,0,0,1,.31,1,1.34,1.34,0,0,1-.32,1,1.12,1.12,0,0,1-.87.34,1.14,1.14,0,0,1-.81-.3A1.29,1.29,0,0,1,358.16,735.78Z"/><path class="cls-47" d="M375.24,736.8l-4.78-12.43h-.07c.09,1,.13,2.15.13,3.51v8.92H369v-14h2.47l4.46,11.58H376l4.51-11.58H383v14h-1.63v-9c0-1,0-2.16.13-3.38h-.08l-4.82,12.42Z"/><path class="cls-47" d="M397.47,722.77v9.08a4.93,4.93,0,0,1-1.46,3.77,5.57,5.57,0,0,1-4,1.37,5.35,5.35,0,0,1-3.93-1.38,5.11,5.11,0,0,1-1.4-3.8v-9h1.64v9.16a3.55,3.55,0,0,0,1,2.69,3.87,3.87,0,0,0,2.83.94,3.78,3.78,0,0,0,2.75-.94,3.63,3.63,0,0,0,1-2.71v-9.14Z"/><path class="cls-47" d="M412.2,736.8h-1.87L402.63,725h-.07c.1,1.38.15,2.65.15,3.8v8H401.2v-14h1.85l7.68,11.73h.08c0-.17-.05-.73-.09-1.67s-.06-1.6-.05-2v-8.05h1.53Z"/><path class="cls-47" d="M416.08,736.8v-14h1.64v14Z"/><path class="cls-47" d="M427.62,724a4.6,4.6,0,0,0-3.67,1.54,6.18,6.18,0,0,0-1.35,4.22,6.33,6.33,0,0,0,1.3,4.25,4.62,4.62,0,0,0,3.7,1.5A12.7,12.7,0,0,0,431,735v1.43a10.52,10.52,0,0,1-3.61.54,6.12,6.12,0,0,1-4.81-1.88,7.69,7.69,0,0,1-1.69-5.34,8.44,8.44,0,0,1,.81-3.8,5.87,5.87,0,0,1,2.36-2.52,7.2,7.2,0,0,1,3.61-.88,8.76,8.76,0,0,1,3.88.81l-.7,1.4A7.44,7.44,0,0,0,427.62,724Z"/><path class="cls-47" d="M433.56,735.78a1.41,1.41,0,0,1,.3-1,1,1,0,0,1,.84-.33,1.15,1.15,0,0,1,.87.33,1.37,1.37,0,0,1,.32,1,1.34,1.34,0,0,1-.32,1,1.26,1.26,0,0,1-1.68,0A1.29,1.29,0,0,1,433.56,735.78Z"/><path class="cls-47" d="M443.68,721.87l-.41,3.79,3.83-1.06.25,1.74-3.67.3,2.39,3.13-1.66.9-1.69-3.47-1.54,3.47-1.7-.9,2.33-3.13-3.63-.3.28-1.74,3.77,1.06-.42-3.79Z"/></g></svg>