<?xml version="1.0" encoding="utf-8"?>
<!-- Generator: Adobe Illustrator 25.0.0, SVG Export Plug-In . SVG Version: 6.00 Build 0)  -->
<svg version="1.1" id="Layer_1" xmlns="http://www.w3.org/2000/svg" xmlns:xlink="http://www.w3.org/1999/xlink" x="0px" y="0px"
	 viewBox="0 0 360 182" style="enable-background:new 0 0 360 182;" xml:space="preserve">
<style type="text/css">
	.st0{fill:#2154ED;}
	.st1{fill:#87E08A;}
	.st2{fill:#0E101E;}
	.st3{fill:#231F20;}
</style>
<g>
	<path class="st0" d="M102,51.9h-1.1V49v-0.5V48c-0.2,0.2-0.3,0.3-0.4,0.3l-0.6,0.5l-0.5-0.6l1.6-1.3h0.9L102,51.9L102,51.9z"/>
	<path class="st0" d="M106.7,48c0,0.3-0.1,0.6-0.3,0.8s-0.5,0.4-0.8,0.5l0,0c0.4,0.1,0.7,0.2,0.9,0.4s0.3,0.5,0.3,0.8
		c0,0.5-0.2,0.9-0.5,1.1c-0.3,0.3-0.8,0.4-1.5,0.4c-0.5,0-1-0.1-1.4-0.3v-0.9c0.2,0.1,0.4,0.2,0.6,0.2c0.2,0.1,0.5,0.1,0.7,0.1
		c0.3,0,0.6-0.1,0.8-0.2c0.2-0.1,0.2-0.3,0.2-0.6c0-0.2-0.1-0.4-0.3-0.5c-0.2-0.1-0.5-0.1-0.9-0.1h-0.4v-0.8h0.4
		c0.4,0,0.7-0.1,0.9-0.2c0.2-0.1,0.3-0.3,0.3-0.5c0-0.4-0.2-0.6-0.7-0.6c-0.2,0-0.3,0-0.5,0.1s-0.4,0.2-0.6,0.3l-0.5-0.7
		c0.5-0.3,1-0.5,1.6-0.5c0.5,0,0.9,0.1,1.2,0.3C106.5,47.3,106.7,47.6,106.7,48"/>
	<path class="st0" d="M108.4,49.4c0,0.6,0.1,1.1,0.2,1.3c0.1,0.3,0.3,0.4,0.5,0.4s0.4-0.1,0.5-0.4c0.1-0.3,0.2-0.7,0.2-1.3
		s-0.1-1.1-0.2-1.3s-0.3-0.4-0.5-0.4s-0.4,0.1-0.5,0.4C108.5,48.3,108.4,48.8,108.4,49.4 M110.9,49.4c0,0.9-0.1,1.5-0.4,1.9
		s-0.7,0.6-1.3,0.6c-0.6,0-1-0.2-1.3-0.7c-0.3-0.4-0.4-1.1-0.4-1.9c0-0.9,0.1-1.5,0.4-2c0.3-0.4,0.7-0.6,1.3-0.6
		c0.6,0,1,0.2,1.3,0.7C110.7,47.9,110.9,48.5,110.9,49.4"/>
</g>
<rect x="99.1" y="52.3" class="st0" width="12" height="0.4"/>
<g>
	<path class="st1" d="M103.5,13.4v-0.9c0-0.1,0-0.3,0-0.6s0-0.4,0-0.5l0,0c-0.1,0.2-0.2,0.4-0.3,0.6l-0.9,1.4H103.5z M105.1,14.2
		h-0.6v1h-1v-1h-2.1v-0.7l2.2-3.2h1v3.2h0.6L105.1,14.2L105.1,14.2z"/>
	<path class="st1" d="M108.1,15.2H107v-2.9v-0.5v-0.5c-0.2,0.2-0.3,0.3-0.4,0.3l-0.6,0.5l-0.5-0.6l1.6-1.3h0.9L108.1,15.2
		L108.1,15.2z"/>
</g>
<rect x="101.2" y="15.6" class="st1" width="8" height="0.4"/>
<rect x="112.9" y="45.9" class="st0" width="18" height="112.4"/>
<rect x="112.9" y="10.4" class="st1" width="18" height="35.5"/>
<rect x="214.6" y="145.3" class="st0" width="18" height="13"/>
<rect x="214.6" y="132.4" class="st1" width="18" height="13"/>
<g>
	<path class="st0" d="M209,152.4h-1v-2.9V149v-0.5c-0.2,0.2-0.3,0.3-0.4,0.3l-0.6,0.5l-0.5-0.6l1.6-1.3h0.9V152.4z"/>
	<path class="st0" d="M212.2,149.2c0.5,0,0.9,0.1,1.2,0.4c0.3,0.3,0.4,0.6,0.4,1.1c0,0.6-0.2,1-0.5,1.3s-0.8,0.5-1.5,0.5
		c-0.6,0-1-0.1-1.4-0.3v-0.9c0.2,0.1,0.4,0.2,0.6,0.2c0.2,0.1,0.5,0.1,0.7,0.1c0.6,0,1-0.3,1-0.8s-0.3-0.8-1-0.8c-0.1,0-0.3,0-0.4,0
		c-0.1,0-0.3,0.1-0.4,0.1l-0.4-0.2l0.2-2.6h2.7v0.9h-1.8l-0.1,1h0.1C211.9,149.2,212,149.2,212.2,149.2"/>
</g>
<rect x="206.1" y="152.8" class="st0" width="8" height="0.4"/>
<g>
	<path class="st1" d="M209,131.2h-1v-2.9v-0.5v-0.5c-0.2,0.2-0.3,0.3-0.4,0.3l-0.6,0.5l-0.5-0.6l1.6-1.3h0.9V131.2z"/>
	<path class="st1" d="M212.2,128c0.5,0,0.9,0.1,1.2,0.4c0.3,0.3,0.4,0.6,0.4,1.1c0,0.6-0.2,1-0.5,1.3s-0.8,0.5-1.5,0.5
		c-0.6,0-1-0.1-1.4-0.3v-0.9c0.2,0.1,0.4,0.2,0.6,0.2c0.2,0.1,0.5,0.1,0.7,0.1c0.6,0,1-0.3,1-0.8s-0.3-0.8-1-0.8c-0.1,0-0.3,0-0.4,0
		c-0.1,0-0.3,0-0.4,0.1l-0.4-0.2l0.2-2.6h2.7v0.9h-1.8l-0.1,1h0.1C211.9,128,212,128,212.2,128"/>
</g>
<rect x="206.1" y="131.6" class="st1" width="8" height="0.3"/>
<rect x="160.7" y="128.9" class="st0" width="18" height="29.4"/>
<rect x="160.7" y="126.3" class="st1" width="18" height="2.6"/>
<g>
	<path class="st0" d="M153.8,130.4c0,0.3-0.1,0.6-0.3,0.8s-0.5,0.4-0.8,0.5l0,0c0.4,0,0.7,0.2,0.9,0.4s0.3,0.5,0.3,0.8
		c0,0.5-0.2,0.9-0.5,1.1c-0.4,0.3-0.9,0.4-1.5,0.4c-0.5,0-1-0.1-1.4-0.3v-0.9c0.2,0.1,0.4,0.2,0.6,0.2c0.2,0.1,0.5,0.1,0.7,0.1
		c0.4,0,0.6-0.1,0.8-0.2c0.2-0.1,0.2-0.3,0.2-0.6c0-0.2-0.1-0.4-0.3-0.5s-0.5-0.1-0.9-0.1h-0.4v-0.8h0.4c0.4,0,0.7-0.1,0.9-0.2
		c0.2-0.1,0.3-0.3,0.3-0.5c0-0.4-0.2-0.6-0.7-0.6c-0.2,0-0.3,0-0.5,0.1s-0.4,0.1-0.6,0.3l-0.5-0.7c0.5-0.3,1-0.5,1.6-0.5
		c0.5,0,0.9,0.1,1.2,0.3C153.7,129.8,153.8,130.1,153.8,130.4"/>
	<path class="st0" d="M156.5,132.5v-0.9c0-0.1,0-0.3,0-0.6s0-0.4,0-0.5l0,0c-0.1,0.2-0.2,0.4-0.3,0.5l-0.9,1.4h1.2V132.5z
		 M158.2,133.3h-0.6v1h-1v-1h-2.1v-0.7l2.2-3.2h1v3.2h0.6L158.2,133.3L158.2,133.3z"/>
</g>
<rect x="150.2" y="134.7" class="st0" width="8" height="0.3"/>
<g>
	<path class="st1" d="M158.8,119.7c0,0.3-0.1,0.6-0.3,0.8s-0.5,0.4-0.8,0.5l0,0c0.4,0.1,0.7,0.2,0.9,0.4c0.2,0.2,0.3,0.5,0.3,0.8
		c0,0.5-0.2,0.9-0.5,1.1c-0.4,0.3-0.9,0.4-1.5,0.4c-0.5,0-1-0.1-1.4-0.3v-0.9c0.2,0.1,0.4,0.2,0.6,0.2c0.2,0.1,0.5,0.1,0.7,0.1
		c0.4,0,0.6-0.1,0.8-0.2s0.2-0.3,0.2-0.6c0-0.2-0.1-0.4-0.3-0.5s-0.5-0.1-0.9-0.1h-0.4v-0.8h0.4c0.4,0,0.7-0.1,0.9-0.2
		s0.3-0.3,0.3-0.5c0-0.4-0.2-0.6-0.7-0.6c-0.2,0-0.3,0-0.5,0.1s-0.4,0.2-0.6,0.3l-0.5-0.7c0.5-0.3,1-0.5,1.6-0.5
		c0.5,0,0.9,0.1,1.2,0.3C158.7,119,158.8,119.3,158.8,119.7"/>
</g>
<rect x="155.2" y="124" class="st1" width="4" height="0.3"/>
<rect x="263.5" y="135.8" class="st0" width="18" height="22.5"/>
<rect x="263.5" y="135" class="st1" width="18" height="0.9"/>
<g>
	<path class="st0" d="M256.9,141.5h-3.5v-0.7l1.3-1.3c0.4-0.4,0.6-0.6,0.7-0.8c0.1-0.1,0.2-0.3,0.2-0.4c0.1-0.1,0.1-0.3,0.1-0.4
		c0-0.2-0.1-0.4-0.2-0.4c-0.1-0.1-0.3-0.1-0.4-0.1c-0.2,0-0.4,0-0.6,0.1c-0.2,0.1-0.4,0.2-0.6,0.4l-0.6-0.7c0.2-0.2,0.5-0.4,0.6-0.4
		c0.2-0.1,0.3-0.2,0.5-0.2s0.4-0.1,0.6-0.1c0.3,0,0.6,0.1,0.8,0.2c0.2,0.1,0.4,0.3,0.6,0.5c0.1,0.2,0.2,0.4,0.2,0.7
		c0,0.2,0,0.4-0.1,0.7c-0.1,0.2-0.2,0.4-0.4,0.6c-0.2,0.2-0.5,0.5-0.9,0.9l-0.6,0.6l0,0h2.2L256.9,141.5L256.9,141.5z"/>
	<path class="st0" d="M259.2,140.8c0.2,0,0.4-0.1,0.5-0.2c0.1-0.2,0.2-0.4,0.2-0.6c0-0.2-0.1-0.4-0.2-0.6c-0.1-0.1-0.3-0.2-0.5-0.2
		s-0.4,0.1-0.6,0.2c-0.2,0.1-0.2,0.3-0.2,0.5c0,0.3,0.1,0.5,0.2,0.7C258.8,140.7,259,140.8,259.2,140.8 M257.4,139.4
		c0-1,0.2-1.7,0.6-2.2s1-0.7,1.9-0.7c0.3,0,0.5,0,0.7,0.1v0.8c-0.2,0-0.4-0.1-0.6-0.1c-0.4,0-0.7,0.1-0.9,0.2
		c-0.2,0.1-0.4,0.3-0.5,0.5s-0.2,0.5-0.2,0.9l0,0c0.2-0.4,0.6-0.6,1.1-0.6c0.4,0,0.8,0.1,1.1,0.4c0.3,0.3,0.4,0.7,0.4,1.2
		s-0.2,1-0.5,1.3s-0.7,0.5-1.3,0.5c-0.4,0-0.7-0.1-1-0.3s-0.5-0.4-0.6-0.8C257.5,140.3,257.4,139.9,257.4,139.4"/>
</g>
<rect x="253.1" y="141.9" class="st0" width="8" height="0.3"/>
<g>
	<path class="st1" d="M261.1,133.1H260v-2.9v-0.5v-0.5c-0.2,0.2-0.3,0.3-0.4,0.3L259,130l-0.5-0.6l1.6-1.3h0.9v5H261.1z"/>
</g>
<rect x="258.2" y="133.5" class="st1" width="4" height="0.3"/>
<rect x="308.4" y="155.6" class="st0" width="18" height="2.4"/>
<rect x="308.4" y="154.5" class="st1" width="18" height="0.9"/>
<g>
	<path class="st0" d="M305,153.8c0,0.3-0.1,0.6-0.3,0.8s-0.5,0.4-0.8,0.5l0,0c0.4,0.1,0.7,0.2,0.9,0.4c0.2,0.2,0.3,0.5,0.3,0.8
		c0,0.5-0.2,0.9-0.5,1.1c-0.4,0.3-0.9,0.4-1.5,0.4c-0.5,0-1-0.1-1.4-0.3v-0.9c0.2,0.1,0.4,0.2,0.6,0.2c0.2,0.1,0.5,0.1,0.7,0.1
		c0.4,0,0.6-0.1,0.8-0.2c0.2-0.1,0.3-0.3,0.3-0.6c0-0.2-0.1-0.4-0.3-0.5c-0.2-0.1-0.5-0.1-0.9-0.1h-0.4v-0.8h0.4
		c0.4,0,0.7-0.1,0.9-0.2c0.2-0.1,0.3-0.3,0.3-0.5c0-0.4-0.2-0.6-0.7-0.6c-0.2,0-0.3,0-0.5,0.1s-0.4,0.2-0.6,0.3l-0.5-0.7
		c0.5-0.3,1-0.5,1.6-0.5c0.5,0,0.9,0.1,1.2,0.3C304.8,153.1,305,153.4,305,153.8"/>
</g>
<rect x="301.4" y="158" class="st0" width="4" height="0.4"/>
<g>
	<path class="st1" d="M305.1,149.8H304v-2.9v-0.5v-0.5c-0.2,0.2-0.3,0.3-0.4,0.3l-0.6,0.5l-0.5-0.6l1.6-1.3h0.9v5H305.1z"/>
</g>
<rect x="302.2" y="150.2" class="st1" width="4" height="0.4"/>
<g>
	<path class="st1" d="M312.1,154.6h-0.3c0-3.5-2.9-6.4-6.4-6.4v-0.3C309.1,147.8,312.1,150.9,312.1,154.6"/>
</g>
<rect x="20.5" y="40.4" class="st1" width="23.1" height="2.6"/>
<rect x="20.5" y="60.8" class="st0" width="23.1" height="2.6"/>
<rect x="85" y="158.3" class="st2" width="262.1" height="0.2"/>
<g>
	<path class="st3" d="M30.6,48.8c0,0.6-0.2,1.1-0.5,1.5s-0.8,0.5-1.3,0.5c-0.6,0-1-0.2-1.3-0.5c-0.3-0.4-0.5-0.9-0.5-1.5
		s0.2-1.1,0.5-1.5s0.8-0.5,1.3-0.5c0.6,0,1,0.2,1.3,0.5C30.5,47.6,30.6,48.1,30.6,48.8z M27.5,48.8c0,0.5,0.1,0.9,0.3,1.2
		s0.6,0.4,1,0.4s0.8-0.1,1-0.4s0.3-0.7,0.3-1.2s-0.1-0.9-0.3-1.2s-0.5-0.4-1-0.4c-0.4,0-0.8,0.1-1,0.4S27.5,48.2,27.5,48.8z"/>
	<path class="st3" d="M33.8,46.8h0.5l-1.4,3.9h-0.5L31,46.8h0.5l0.9,2.5c0.1,0.3,0.2,0.6,0.2,0.9c0.1-0.3,0.1-0.6,0.3-0.9L33.8,46.8
		z"/>
	<path class="st3" d="M37,50.7h-2.2v-3.9H37v0.4h-1.7v1.3h1.6v0.4h-1.6v1.4H37V50.7z"/>
	<path class="st3" d="M38.3,49.1v1.6h-0.5v-3.9h1.1c0.5,0,0.8,0.1,1.1,0.3c0.2,0.2,0.3,0.5,0.3,0.8c0,0.5-0.3,0.9-0.8,1.1l1.1,1.8
		h-0.5l-1-1.6L38.3,49.1L38.3,49.1z M38.3,48.7h0.6c0.3,0,0.6-0.1,0.7-0.2s0.2-0.3,0.2-0.6s-0.1-0.4-0.2-0.6
		c-0.2-0.1-0.4-0.2-0.7-0.2h-0.6V48.7z"/>
	<path class="st3" d="M44.4,48.7c0,0.6-0.2,1.1-0.5,1.5c-0.4,0.3-0.9,0.5-1.5,0.5h-1.1v-3.9h1.2c0.6,0,1.1,0.2,1.4,0.5
		C44.2,47.6,44.4,48.1,44.4,48.7z M43.9,48.7c0-0.5-0.1-0.9-0.4-1.2s-0.6-0.4-1.1-0.4h-0.7v3.1h0.6c0.5,0,1-0.1,1.2-0.4
		C43.8,49.7,43.9,49.3,43.9,48.7z"/>
	<path class="st3" d="M48.2,46.8v2.5c0,0.4-0.1,0.8-0.4,1.1c-0.3,0.3-0.6,0.4-1.1,0.4s-0.8-0.1-1.1-0.4s-0.4-0.6-0.4-1.1v-2.5h0.5
		v2.6c0,0.3,0.1,0.6,0.3,0.8s0.4,0.3,0.8,0.3c0.3,0,0.6-0.1,0.8-0.3s0.3-0.4,0.3-0.8v-2.6H48.2z"/>
	<path class="st3" d="M51.5,50.7h-2.2v-3.9h2.2v0.4h-1.7v1.3h1.6v0.4h-1.6v1.4h1.7V50.7z"/>
</g>
<g>
	<path class="st3" d="M111.7,167.4l-0.5-1.2h-1.6l-0.5,1.2h-0.5l1.6-3.9h0.4l1.5,3.9H111.7z M111.1,165.8l-0.5-1.2
		c-0.1-0.2-0.1-0.3-0.2-0.6c0,0.2-0.1,0.4-0.2,0.6l-0.5,1.2H111.1z"/>
	<path class="st3" d="M115.8,167.4h-0.5l-2.1-3.3l0,0c0,0.4,0,0.7,0,1.1v2.2h-0.4v-3.9h0.5l2.1,3.3l0,0c0,0,0-0.2,0-0.5s0-0.5,0-0.6
		v-2.3h0.4V167.4z"/>
	<path class="st3" d="M119.1,166.4c0,0.3-0.1,0.6-0.4,0.8s-0.6,0.3-1,0.3c-0.5,0-0.8-0.1-1.1-0.2v-0.4c0.2,0.1,0.3,0.1,0.5,0.2
		c0.2,0,0.4,0.1,0.6,0.1c0.3,0,0.5-0.1,0.7-0.2c0.2-0.1,0.2-0.3,0.2-0.5c0-0.1,0-0.2-0.1-0.3s-0.1-0.2-0.3-0.2
		c-0.1-0.1-0.3-0.2-0.6-0.2c-0.4-0.1-0.6-0.3-0.8-0.5s-0.2-0.4-0.2-0.7s0.1-0.5,0.3-0.7c0.2-0.2,0.5-0.3,0.9-0.3s0.7,0.1,1.1,0.2
		l-0.1,0.4c-0.3-0.1-0.6-0.2-0.9-0.2c-0.2,0-0.4,0.1-0.6,0.2c-0.1,0.1-0.2,0.2-0.2,0.4c0,0.1,0,0.2,0.1,0.3c0,0.1,0.1,0.2,0.3,0.2
		s0.3,0.2,0.5,0.2c0.4,0.1,0.7,0.3,0.9,0.5S119.1,166.1,119.1,166.4z"/>
	<path class="st3" d="M123.3,167.4h-0.5l-0.8-2.6c0-0.1-0.1-0.3-0.1-0.4c0-0.2-0.1-0.3-0.1-0.3c0,0.2-0.1,0.5-0.2,0.8l-0.8,2.6h-0.5
		l-1-3.9h0.5l0.6,2.4c0.1,0.3,0.1,0.6,0.2,0.9c0-0.3,0.1-0.6,0.2-1l0.7-2.4h0.5l0.7,2.4c0.1,0.3,0.2,0.6,0.2,0.9
		c0-0.3,0.1-0.6,0.2-0.9l0.6-2.4h0.5L123.3,167.4z"/>
	<path class="st3" d="M127.1,167.4H125v-3.9h2.2v0.4h-1.7v1.3h1.6v0.4h-1.6v1.4h1.7L127.1,167.4L127.1,167.4z"/>
	<path class="st3" d="M128.5,165.8v1.6H128v-3.9h1.1c0.5,0,0.8,0.1,1.1,0.3c0.2,0.2,0.3,0.5,0.3,0.8c0,0.5-0.3,0.9-0.8,1.1l1.1,1.8
		h-0.5l-1-1.6h-0.8V165.8z M128.5,165.4h0.6c0.3,0,0.6-0.1,0.7-0.2s0.2-0.3,0.2-0.6s-0.1-0.4-0.2-0.6c-0.2-0.1-0.4-0.2-0.7-0.2h-0.6
		V165.4z"/>
	<path class="st3" d="M133.6,167.4h-2.2v-3.9h2.2v0.4h-1.7v1.3h1.6v0.4h-1.6v1.4h1.7V167.4z"/>
	<path class="st3" d="M137.6,165.4c0,0.6-0.2,1.1-0.5,1.5c-0.4,0.3-0.9,0.5-1.5,0.5h-1.1v-3.9h1.2c0.6,0,1.1,0.2,1.4,0.5
		C137.4,164.4,137.6,164.8,137.6,165.4z M137.1,165.5c0-0.5-0.1-0.9-0.4-1.2s-0.6-0.4-1.1-0.4h-0.7v3.1h0.6c0.5,0,1-0.1,1.2-0.4
		C137,166.4,137.1,166,137.1,165.5z"/>
</g>
<g>
	<path class="st3" d="M153.6,165.8v1.6h-0.5v-3.9h1.1c0.5,0,0.8,0.1,1.1,0.3c0.2,0.2,0.3,0.5,0.3,0.8c0,0.5-0.3,0.9-0.8,1.1l1.1,1.8
		h-0.5l-1-1.6h-0.8V165.8z M153.6,165.4h0.6c0.3,0,0.6-0.1,0.7-0.2s0.2-0.3,0.2-0.6s-0.1-0.4-0.2-0.6c-0.2-0.1-0.4-0.2-0.7-0.2h-0.6
		V165.4z"/>
	<path class="st3" d="M158.7,167.4h-2.2v-3.9h2.2v0.4H157v1.3h1.6v0.4H157v1.4h1.7V167.4z"/>
	<path class="st3" d="M160.1,167.4h-0.5v-3.9h2.2v0.4h-1.7v1.4h1.6v0.4h-1.6V167.4z"/>
	<path class="st3" d="M164.6,167.4h-2.2v-3.9h2.2v0.4h-1.7v1.3h1.6v0.4h-1.6v1.4h1.7V167.4z"/>
	<path class="st3" d="M166,165.8v1.6h-0.5v-3.9h1.1c0.5,0,0.8,0.1,1.1,0.3c0.2,0.2,0.3,0.5,0.3,0.8c0,0.5-0.3,0.9-0.8,1.1l1.1,1.8
		h-0.5l-1-1.6H166V165.8z M166,165.4h0.6c0.3,0,0.6-0.1,0.7-0.2s0.2-0.3,0.2-0.6s-0.1-0.4-0.2-0.6c-0.2-0.1-0.4-0.2-0.7-0.2H166
		V165.4z"/>
	<path class="st3" d="M169.4,165.8v1.6h-0.5v-3.9h1.1c0.5,0,0.8,0.1,1.1,0.3c0.2,0.2,0.3,0.5,0.3,0.8c0,0.5-0.3,0.9-0.8,1.1l1.1,1.8
		h-0.5l-1-1.6h-0.8V165.8z M169.4,165.4h0.6c0.3,0,0.6-0.1,0.7-0.2s0.2-0.3,0.2-0.6s-0.1-0.4-0.2-0.6c-0.2-0.1-0.4-0.2-0.7-0.2h-0.6
		V165.4z"/>
	<path class="st3" d="M174.8,167.4l-0.5-1.2h-1.6l-0.5,1.2h-0.5l1.6-3.9h0.4l1.5,3.9H174.8z M174.1,165.8l-0.5-1.2
		c-0.1-0.2-0.1-0.3-0.2-0.6c0,0.2-0.1,0.4-0.2,0.6l-0.5,1.2H174.1z"/>
	<path class="st3" d="M175.8,167.4v-3.9h0.5v3.5h1.7v0.4H175.8z"/>
	<path class="st3" d="M181.3,167.4h-0.5v-3.5h-1.2v-0.4h2.9v0.4h-1.2V167.4z"/>
	<path class="st3" d="M186.5,165.5c0,0.6-0.2,1.1-0.5,1.5s-0.8,0.5-1.3,0.5c-0.6,0-1-0.2-1.3-0.5s-0.5-0.9-0.5-1.5s0.2-1.1,0.5-1.5
		s0.8-0.5,1.3-0.5c0.6,0,1,0.2,1.3,0.5C186.4,164.3,186.5,164.8,186.5,165.5z M183.4,165.5c0,0.5,0.1,0.9,0.3,1.2s0.6,0.4,1,0.4
		s0.8-0.1,1-0.4c0.2-0.3,0.3-0.7,0.3-1.2s-0.1-0.9-0.3-1.2s-0.5-0.4-1-0.4c-0.4,0-0.8,0.1-1,0.4
		C183.5,164.5,183.4,164.9,183.4,165.5z"/>
	<path class="st3" d="M148.7,174l-0.5-1.2h-1.6l-0.5,1.2h-0.5l1.6-3.9h0.4l1.5,3.9H148.7z M148,172.4l-0.5-1.2
		c-0.1-0.2-0.1-0.3-0.2-0.6c0,0.2-0.1,0.4-0.2,0.6l-0.5,1.2H148z"/>
	<path class="st3" d="M152.7,174h-0.5l-2.1-3.3l0,0c0,0.4,0,0.7,0,1.1v2.2h-0.4v-3.9h0.5l2.1,3.3l0,0c0,0,0-0.2,0-0.5s0-0.5,0-0.6
		V170h0.4V174z"/>
	<path class="st3" d="M157.2,172.1c0,0.6-0.2,1.1-0.5,1.5s-0.8,0.5-1.3,0.5c-0.6,0-1-0.2-1.3-0.5c-0.3-0.4-0.5-0.9-0.5-1.5
		s0.2-1.1,0.5-1.5s0.8-0.5,1.3-0.5c0.6,0,1,0.2,1.3,0.5C157.1,170.9,157.2,171.4,157.2,172.1z M154.1,172.1c0,0.5,0.1,0.9,0.3,1.2
		s0.6,0.4,1,0.4s0.8-0.1,1-0.4c0.2-0.3,0.3-0.7,0.3-1.2s-0.1-0.9-0.3-1.2s-0.5-0.4-1-0.4c-0.4,0-0.8,0.1-1,0.4
		C154.2,171.1,154.1,171.5,154.1,172.1z"/>
	<path class="st3" d="M159.3,174h-0.5v-3.5h-1.2v-0.4h2.9v0.4h-1.2V174z"/>
	<path class="st3" d="M164.1,174h-0.5v-1.8h-2.1v1.8H161v-3.9h0.5v1.7h2.1v-1.7h0.5V174z"/>
	<path class="st3" d="M167.4,174h-2.2v-3.9h2.2v0.4h-1.7v1.3h1.6v0.4h-1.6v1.4h1.7V174z"/>
	<path class="st3" d="M168.7,172.4v1.6h-0.5v-3.9h1.1c0.5,0,0.8,0.1,1.1,0.3s0.3,0.5,0.3,0.8c0,0.5-0.3,0.9-0.8,1.1l1.1,1.8h-0.5
		l-1-1.6h-0.8V172.4z M168.7,172h0.6c0.3,0,0.6-0.1,0.7-0.2s0.2-0.3,0.2-0.6s-0.1-0.4-0.2-0.6c-0.2-0.1-0.4-0.2-0.7-0.2h-0.6V172z"
		/>
	<path class="st3" d="M175.6,174l-0.5-1.2h-1.6L173,174h-0.5l1.6-3.9h0.4l1.5,3.9H175.6z M174.9,172.4l-0.5-1.2
		c-0.1-0.2-0.1-0.3-0.2-0.6c0,0.2-0.1,0.4-0.2,0.6l-0.5,1.2H174.9z"/>
	<path class="st3" d="M178.3,172h1.3v1.9c-0.2,0.1-0.4,0.1-0.6,0.2s-0.5,0.1-0.7,0.1c-0.6,0-1.1-0.2-1.4-0.5s-0.5-0.8-0.5-1.5
		c0-0.4,0.1-0.8,0.2-1.1c0.2-0.3,0.4-0.5,0.7-0.7s0.7-0.2,1.1-0.2c0.4,0,0.8,0.1,1.2,0.2l-0.2,0.4c-0.4-0.2-0.7-0.2-1-0.2
		c-0.5,0-0.9,0.1-1.1,0.4c-0.3,0.3-0.4,0.7-0.4,1.2s0.1,0.9,0.4,1.2c0.3,0.3,0.6,0.4,1.1,0.4c0.3,0,0.5,0,0.8-0.1v-1.2h-0.9
		L178.3,172L178.3,172z"/>
	<path class="st3" d="M182.8,174h-2.2v-3.9h2.2v0.4H181v1.3h1.6v0.4H181v1.4h1.7v0.4H182.8z"/>
	<path class="st3" d="M186.7,174h-0.5l-2.1-3.3l0,0c0,0.4,0,0.7,0,1.1v2.2h-0.4v-3.9h0.5l2.1,3.3l0,0c0,0,0-0.2,0-0.5s0-0.5,0-0.6
		V170h0.4V174z"/>
	<path class="st3" d="M189.5,170.5c-0.4,0-0.8,0.1-1,0.4c-0.2,0.3-0.4,0.7-0.4,1.2s0.1,0.9,0.4,1.2c0.2,0.3,0.6,0.4,1,0.4
		c0.3,0,0.6,0,0.9-0.1v0.4c-0.3,0.1-0.6,0.2-1,0.2c-0.6,0-1-0.2-1.3-0.5c-0.3-0.4-0.5-0.8-0.5-1.5c0-0.4,0.1-0.8,0.2-1.1
		c0.2-0.3,0.4-0.5,0.7-0.7s0.6-0.2,1-0.2s0.8,0.1,1.1,0.2l-0.2,0.4C190.1,170.5,189.8,170.5,189.5,170.5z"/>
	<path class="st3" d="M192.3,172.1l1-2h0.5l-1.3,2.4v1.5H192v-1.5l-1.3-2.4h0.5L192.3,172.1z"/>
</g>
<g>
	<path class="st3" d="M204.2,163.5v2.5c0,0.4-0.1,0.8-0.4,1.1c-0.3,0.3-0.6,0.4-1.1,0.4s-0.8-0.1-1.1-0.4s-0.4-0.6-0.4-1.1v-2.5h0.5
		v2.6c0,0.3,0.1,0.6,0.3,0.8s0.4,0.3,0.8,0.3c0.3,0,0.6-0.1,0.8-0.3s0.3-0.4,0.3-0.8v-2.6H204.2z"/>
	<path class="st3" d="M208.3,167.4h-0.5l-2.1-3.3l0,0c0,0.4,0,0.7,0,1.1v2.2h-0.4v-3.9h0.5l2.1,3.3l0,0c0,0,0-0.2,0-0.5s0-0.5,0-0.6
		v-2.3h0.4V167.4z"/>
	<path class="st3" d="M211.6,166.4c0,0.3-0.1,0.6-0.4,0.8c-0.2,0.2-0.6,0.3-1,0.3c-0.5,0-0.8-0.1-1.1-0.2v-0.4
		c0.2,0.1,0.3,0.1,0.5,0.2c0.2,0,0.4,0.1,0.6,0.1c0.3,0,0.5-0.1,0.7-0.2c0.2-0.1,0.2-0.3,0.2-0.5c0-0.1,0-0.2-0.1-0.3
		s-0.1-0.2-0.3-0.2c-0.1-0.1-0.3-0.2-0.6-0.2c-0.4-0.1-0.6-0.3-0.8-0.5s-0.2-0.4-0.2-0.7s0.1-0.5,0.3-0.7s0.5-0.3,0.9-0.3
		s0.7,0.1,1.1,0.2l-0.1,0.4c-0.3-0.1-0.6-0.2-0.9-0.2c-0.2,0-0.4,0.1-0.6,0.2c-0.1,0.1-0.2,0.2-0.2,0.4c0,0.1,0,0.2,0.1,0.3
		c0,0.1,0.1,0.2,0.3,0.2s0.3,0.2,0.5,0.2c0.4,0.1,0.7,0.3,0.8,0.5C211.5,165.9,211.6,166.1,211.6,166.4z"/>
	<path class="st3" d="M214.8,167.4l-0.5-1.2h-1.6l-0.5,1.2h-0.5l1.6-3.9h0.4l1.5,3.9H214.8z M214.2,165.8l-0.5-1.2
		c-0.1-0.2-0.1-0.3-0.2-0.6c0,0.2-0.1,0.4-0.2,0.6l-0.5,1.2H214.2z"/>
	<path class="st3" d="M217.1,167.4h-0.5v-3.5h-1.2v-0.4h2.9v0.4h-1.2V167.4z"/>
	<path class="st3" d="M218.9,167.4v-3.9h0.5v3.9H218.9z"/>
	<path class="st3" d="M222.6,166.4c0,0.3-0.1,0.6-0.4,0.8c-0.2,0.2-0.6,0.3-1,0.3c-0.5,0-0.8-0.1-1.1-0.2v-0.4
		c0.2,0.1,0.3,0.1,0.5,0.2c0.2,0,0.4,0.1,0.6,0.1c0.3,0,0.5-0.1,0.7-0.2c0.2-0.1,0.2-0.3,0.2-0.5c0-0.1,0-0.2-0.1-0.3
		s-0.1-0.2-0.3-0.2c-0.1-0.1-0.3-0.2-0.6-0.2c-0.4-0.1-0.6-0.3-0.8-0.5s-0.2-0.4-0.2-0.7s0.1-0.5,0.3-0.7s0.5-0.3,0.9-0.3
		s0.7,0.1,1.1,0.2l-0.1,0.4c-0.3-0.1-0.6-0.2-0.9-0.2c-0.2,0-0.4,0.1-0.6,0.2c-0.1,0.1-0.2,0.2-0.2,0.4c0,0.1,0,0.2,0.1,0.3
		c0,0.1,0.1,0.2,0.3,0.2s0.3,0.2,0.5,0.2c0.4,0.1,0.7,0.3,0.8,0.5C222.6,165.9,222.6,166.1,222.6,166.4z"/>
	<path class="st3" d="M223.9,167.4h-0.5v-3.9h2.2v0.4h-1.7v1.4h1.6v0.4h-1.6V167.4z"/>
	<path class="st3" d="M228.8,167.4l-0.5-1.2h-1.6l-0.5,1.2h-0.5l1.6-3.9h0.4l1.5,3.9H228.8z M228.1,165.8l-0.5-1.2
		c-0.1-0.2-0.1-0.3-0.2-0.6c0,0.2-0.1,0.4-0.2,0.6l-0.5,1.2H228.1z"/>
	<path class="st3" d="M231.5,163.9c-0.4,0-0.8,0.1-1,0.4c-0.2,0.3-0.4,0.7-0.4,1.2s0.1,0.9,0.4,1.2c0.2,0.3,0.6,0.4,1,0.4
		c0.3,0,0.6,0,0.9-0.1v0.4c-0.3,0.1-0.6,0.2-1,0.2c-0.6,0-1-0.2-1.3-0.5c-0.3-0.4-0.5-0.8-0.5-1.5c0-0.4,0.1-0.8,0.2-1.1
		s0.4-0.5,0.7-0.7s0.6-0.2,1-0.2s0.8,0.1,1.1,0.2l-0.2,0.4C232,163.9,231.7,163.9,231.5,163.9z"/>
	<path class="st3" d="M234.4,167.4H234v-3.5h-1.2v-0.4h2.9v0.4h-1.2v3.5H234.4z"/>
	<path class="st3" d="M239.7,165.5c0,0.6-0.2,1.1-0.5,1.5s-0.8,0.5-1.3,0.5c-0.6,0-1-0.2-1.3-0.5s-0.5-0.9-0.5-1.5s0.2-1.1,0.5-1.5
		s0.8-0.5,1.3-0.5c0.6,0,1,0.2,1.3,0.5S239.7,164.8,239.7,165.5z M236.6,165.5c0,0.5,0.1,0.9,0.3,1.2s0.6,0.4,1,0.4s0.8-0.1,1-0.4
		c0.2-0.3,0.3-0.7,0.3-1.2s-0.1-0.9-0.3-1.2s-0.5-0.4-1-0.4c-0.4,0-0.8,0.1-1,0.4C236.7,164.5,236.6,164.9,236.6,165.5z"/>
	<path class="st3" d="M241,165.8v1.6h-0.5v-3.9h1.1c0.5,0,0.8,0.1,1.1,0.3c0.2,0.2,0.3,0.5,0.3,0.8c0,0.5-0.3,0.9-0.8,1.1l1.1,1.8
		h-0.5l-1-1.6H241V165.8z M241,165.4h0.6c0.3,0,0.6-0.1,0.7-0.2s0.2-0.3,0.2-0.6s-0.1-0.4-0.2-0.6c-0.2-0.1-0.4-0.2-0.7-0.2H241
		V165.4z"/>
	<path class="st3" d="M245,165.5l1-2h0.5l-1.3,2.4v1.5h-0.5v-1.5l-1.3-2.4h0.5L245,165.5z"/>
	<path class="st3" d="M215.5,174l-0.5-1.2h-1.6L213,174h-0.5l1.6-3.9h0.4l1.5,3.9H215.5z M214.9,172.4l-0.5-1.2
		c-0.1-0.2-0.1-0.3-0.2-0.6c0,0.2-0.1,0.4-0.2,0.6l-0.5,1.2H214.9z"/>
	<path class="st3" d="M219.6,174h-0.5l-2.1-3.3l0,0c0,0.4,0,0.7,0,1.1v2.2h-0.4v-3.9h0.5l2.1,3.3l0,0c0,0,0-0.2,0-0.5s0-0.5,0-0.6
		V170h0.4V174z"/>
	<path class="st3" d="M222.9,173c0,0.3-0.1,0.6-0.4,0.8c-0.3,0.2-0.6,0.3-1,0.3c-0.5,0-0.8-0.1-1.1-0.2v-0.4
		c0.2,0.1,0.3,0.1,0.5,0.2c0.2,0,0.4,0.1,0.6,0.1c0.3,0,0.5-0.1,0.7-0.2c0.2-0.1,0.2-0.3,0.2-0.5c0-0.1,0-0.2-0.1-0.3
		s-0.1-0.2-0.3-0.2s-0.3-0.2-0.6-0.2c-0.4-0.1-0.6-0.3-0.8-0.5s-0.2-0.4-0.2-0.7s0.1-0.5,0.3-0.7s0.5-0.3,0.9-0.3s0.7,0.1,1.1,0.2
		l-0.1,0.4c-0.3-0.1-0.6-0.2-0.9-0.2c-0.2,0-0.4,0.1-0.6,0.2c-0.1,0.1-0.2,0.2-0.2,0.4c0,0.1,0,0.2,0.1,0.3s0.1,0.2,0.3,0.2
		c0.1,0.1,0.3,0.2,0.5,0.2c0.4,0.1,0.7,0.3,0.9,0.5C222.8,172.5,222.9,172.7,222.9,173z"/>
	<path class="st3" d="M227.1,174h-0.5l-0.8-2.6c0-0.1-0.1-0.3-0.1-0.4c0-0.2-0.1-0.3-0.1-0.3c0,0.2-0.1,0.5-0.2,0.8l-0.8,2.6h-0.5
		l-1-3.9h0.5l0.6,2.4c0.1,0.3,0.1,0.6,0.2,0.9c0-0.3,0.1-0.6,0.2-1l0.7-2.4h0.5l0.7,2.4c0.1,0.3,0.2,0.6,0.2,0.9
		c0-0.3,0.1-0.6,0.2-0.9l0.6-2.4h0.5L227.1,174z"/>
	<path class="st3" d="M231,174h-2.2v-3.9h2.2v0.4h-1.7v1.3h1.6v0.4h-1.6v1.4h1.7V174z"/>
	<path class="st3" d="M232.3,172.4v1.6h-0.5v-3.9h1.1c0.5,0,0.8,0.1,1.1,0.3c0.2,0.2,0.3,0.5,0.3,0.8c0,0.5-0.3,0.9-0.8,1.1l1.1,1.8
		h-0.5l-1-1.6h-0.8V172.4z M232.3,172h0.6c0.3,0,0.6-0.1,0.7-0.2s0.2-0.3,0.2-0.6s-0.1-0.4-0.2-0.6c-0.2-0.1-0.4-0.2-0.7-0.2h-0.6
		V172z"/>
</g>
<g>
	<path class="st3" d="M261.8,165.4c0,0.6-0.2,1.1-0.5,1.5c-0.4,0.3-0.9,0.5-1.5,0.5h-1.1v-3.9h1.2c0.6,0,1.1,0.2,1.4,0.5
		C261.6,164.4,261.8,164.8,261.8,165.4z M261.3,165.5c0-0.5-0.1-0.9-0.4-1.2s-0.6-0.4-1.1-0.4h-0.7v3.1h0.6c0.5,0,1-0.1,1.2-0.4
		C261.1,166.4,261.3,166,261.3,165.5z"/>
	<path class="st3" d="M265.6,163.5v2.5c0,0.4-0.1,0.8-0.4,1.1s-0.6,0.4-1.1,0.4s-0.8-0.1-1.1-0.4s-0.4-0.6-0.4-1.1v-2.5h0.5v2.6
		c0,0.3,0.1,0.6,0.3,0.8c0.2,0.2,0.4,0.3,0.8,0.3c0.3,0,0.6-0.1,0.8-0.3c0.2-0.2,0.3-0.4,0.3-0.8v-2.6H265.6z"/>
	<path class="st3" d="M269.1,164.7c0,0.4-0.1,0.7-0.4,0.9s-0.7,0.3-1.2,0.3H267v1.5h-0.5v-3.9h1
		C268.6,163.5,269.1,163.9,269.1,164.7z M267.1,165.5h0.4c0.4,0,0.7-0.1,0.9-0.2s0.3-0.3,0.3-0.6s-0.1-0.5-0.3-0.6
		c-0.2-0.1-0.4-0.2-0.8-0.2h-0.5V165.5z"/>
	<path class="st3" d="M269.9,167.4v-3.9h0.5v3.5h1.7v0.4H269.9z"/>
	<path class="st3" d="M272.8,167.4v-3.9h0.5v3.9H272.8z"/>
	<path class="st3" d="M276,163.9c-0.4,0-0.8,0.1-1,0.4s-0.4,0.7-0.4,1.2s0.1,0.9,0.4,1.2c0.2,0.3,0.6,0.4,1,0.4c0.3,0,0.6,0,0.9-0.1
		v0.4c-0.3,0.1-0.6,0.2-1,0.2c-0.6,0-1-0.2-1.3-0.5c-0.3-0.4-0.5-0.8-0.5-1.5c0-0.4,0.1-0.8,0.2-1.1s0.4-0.5,0.7-0.7
		c0.3-0.2,0.6-0.2,1-0.2s0.8,0.1,1.1,0.2l-0.2,0.4C276.6,163.9,276.3,163.9,276,163.9z"/>
	<path class="st3" d="M280.3,167.4l-0.5-1.2h-1.6l-0.5,1.2h-0.5l1.6-3.9h0.4l1.5,3.9H280.3z M279.6,165.8l-0.5-1.2
		c-0.1-0.2-0.1-0.3-0.2-0.6c0,0.2-0.1,0.4-0.2,0.6l-0.5,1.2H279.6z"/>
	<path class="st3" d="M282.5,167.4H282v-3.5h-1.2v-0.4h2.9v0.4h-1.2L282.5,167.4L282.5,167.4z"/>
	<path class="st3" d="M286.5,167.4h-2.2v-3.9h2.2v0.4h-1.7v1.3h1.6v0.4h-1.6v1.4h1.7V167.4z"/>
	<path class="st3" d="M261.5,172.4v1.6H261v-3.9h1.1c0.5,0,0.8,0.1,1.1,0.3c0.2,0.2,0.3,0.5,0.3,0.8c0,0.5-0.3,0.9-0.8,1.1l1.1,1.8
		h-0.5l-1-1.6h-0.8V172.4z M261.5,172h0.6c0.3,0,0.6-0.1,0.7-0.2s0.2-0.3,0.2-0.6s-0.1-0.4-0.2-0.6c-0.2-0.1-0.4-0.2-0.7-0.2h-0.6
		V172z"/>
	<path class="st3" d="M266.7,174h-2.2v-3.9h2.2v0.4H265v1.3h1.6v0.4H265v1.4h1.7V174z"/>
	<path class="st3" d="M270.9,172.1c0,0.5-0.1,0.9-0.3,1.3s-0.5,0.6-0.9,0.7l0.9,1H270l-0.8-0.9h-0.1c-0.6,0-1-0.2-1.3-0.5
		c-0.3-0.4-0.5-0.9-0.5-1.5s0.2-1.1,0.5-1.5s0.8-0.5,1.3-0.5c0.6,0,1,0.2,1.3,0.5C270.8,170.9,270.9,171.4,270.9,172.1z
		 M267.8,172.1c0,0.5,0.1,0.9,0.3,1.2c0.2,0.3,0.6,0.4,1,0.4s0.8-0.1,1-0.4c0.2-0.3,0.3-0.7,0.3-1.2s-0.1-0.9-0.3-1.2
		c-0.2-0.3-0.5-0.4-1-0.4c-0.4,0-0.8,0.1-1,0.4C267.9,171.1,267.8,171.5,267.8,172.1z"/>
	<path class="st3" d="M274.8,170.1v2.5c0,0.4-0.1,0.8-0.4,1.1s-0.6,0.4-1.1,0.4s-0.8-0.1-1.1-0.4s-0.4-0.6-0.4-1.1v-2.5h0.5v2.6
		c0,0.3,0.1,0.6,0.3,0.8c0.2,0.2,0.4,0.3,0.8,0.3c0.3,0,0.6-0.1,0.8-0.3c0.2-0.2,0.3-0.4,0.3-0.8v-2.6H274.8z"/>
	<path class="st3" d="M278,174h-2.2v-3.9h2.2v0.4h-1.7v1.3h1.6v0.4h-1.6v1.4h1.7V174z"/>
	<path class="st3" d="M281.1,173c0,0.3-0.1,0.6-0.4,0.8s-0.6,0.3-1,0.3c-0.5,0-0.8-0.1-1.1-0.2v-0.4c0.2,0.1,0.3,0.1,0.5,0.2
		c0.2,0,0.4,0.1,0.6,0.1c0.3,0,0.5-0.1,0.7-0.2c0.2-0.1,0.2-0.3,0.2-0.5c0-0.1,0-0.2-0.1-0.3s-0.1-0.2-0.3-0.2s-0.3-0.2-0.6-0.2
		c-0.4-0.1-0.6-0.3-0.8-0.5c-0.2-0.2-0.2-0.4-0.2-0.7s0.1-0.5,0.3-0.7s0.5-0.3,0.9-0.3s0.7,0.1,1.1,0.2l-0.1,0.4
		c-0.3-0.1-0.6-0.2-0.9-0.2c-0.2,0-0.4,0.1-0.6,0.2c-0.1,0.1-0.2,0.2-0.2,0.4c0,0.1,0,0.2,0.1,0.3s0.1,0.2,0.3,0.2
		c0.1,0.1,0.3,0.2,0.5,0.2c0.4,0.1,0.7,0.3,0.9,0.5C281,172.5,281.1,172.7,281.1,173z"/>
	<path class="st3" d="M283.1,174h-0.5v-3.5h-1.2v-0.4h2.9v0.4h-1.2L283.1,174L283.1,174z"/>
</g>
<g>
	<path class="st3" d="M315.2,167.4h-0.5l-2.1-3.3l0,0c0,0.4,0,0.7,0,1.1v2.2h-0.4v-3.9h0.5l2.1,3.3l0,0c0,0,0-0.2,0-0.5s0-0.5,0-0.6
		v-2.3h0.4V167.4z"/>
	<path class="st3" d="M319.7,165.5c0,0.6-0.2,1.1-0.5,1.5s-0.8,0.5-1.3,0.5c-0.6,0-1-0.2-1.3-0.5s-0.5-0.9-0.5-1.5s0.2-1.1,0.5-1.5
		s0.8-0.5,1.3-0.5c0.6,0,1,0.2,1.3,0.5C319.6,164.3,319.7,164.8,319.7,165.5z M316.6,165.5c0,0.5,0.1,0.9,0.3,1.2
		c0.2,0.3,0.6,0.4,1,0.4s0.8-0.1,1-0.4c0.2-0.3,0.3-0.7,0.3-1.2s-0.1-0.9-0.3-1.2c-0.2-0.3-0.5-0.4-1-0.4c-0.4,0-0.8,0.1-1,0.4
		C316.7,164.5,316.6,164.9,316.6,165.5z"/>
	<path class="st3" d="M321.8,167.4h-0.5v-3.5h-1.2v-0.4h2.9v0.4h-1.2L321.8,167.4L321.8,167.4z"/>
	<path class="st3" d="M307.1,172h1.3v1.9c-0.2,0.1-0.4,0.1-0.6,0.2s-0.5,0.1-0.7,0.1c-0.6,0-1.1-0.2-1.4-0.5s-0.5-0.8-0.5-1.5
		c0-0.4,0.1-0.8,0.2-1.1c0.2-0.3,0.4-0.5,0.7-0.7c0.3-0.2,0.7-0.2,1.1-0.2s0.8,0.1,1.2,0.2l-0.2,0.4c-0.4-0.2-0.7-0.2-1-0.2
		c-0.5,0-0.9,0.1-1.1,0.4c-0.3,0.3-0.4,0.7-0.4,1.2s0.1,0.9,0.4,1.2s0.6,0.4,1.1,0.4c0.3,0,0.5,0,0.8-0.1v-1.2h-0.9V172z"/>
	<path class="st3" d="M309.8,172.4v1.6h-0.5v-3.9h1.1c0.5,0,0.8,0.1,1.1,0.3c0.2,0.2,0.3,0.5,0.3,0.8c0,0.5-0.3,0.9-0.8,1.1l1.1,1.8
		h-0.5l-1-1.6h-0.8V172.4z M309.8,172h0.6c0.3,0,0.6-0.1,0.7-0.2s0.2-0.3,0.2-0.6s-0.1-0.4-0.2-0.6c-0.2-0.1-0.4-0.2-0.7-0.2h-0.6
		V172z"/>
	<path class="st3" d="M315.2,174l-0.5-1.2h-1.6l-0.5,1.2h-0.5l1.6-3.9h0.4l1.5,3.9H315.2z M314.6,172.4l-0.5-1.2
		c-0.1-0.2-0.1-0.3-0.2-0.6c0,0.2-0.1,0.4-0.2,0.6l-0.5,1.2H314.6z"/>
	<path class="st3" d="M319.3,174h-0.5l-2.1-3.3l0,0c0,0.4,0,0.7,0,1.1v2.2h-0.4v-3.9h0.5l2.1,3.3l0,0c0,0,0-0.2,0-0.5s0-0.5,0-0.6
		V170h0.4V174z"/>
	<path class="st3" d="M321.6,174h-0.5v-3.5h-1.2v-0.4h2.9v0.4h-1.2L321.6,174L321.6,174z"/>
	<path class="st3" d="M325.6,174h-2.2v-3.9h2.2v0.4h-1.7v1.3h1.6v0.4h-1.6v1.4h1.7V174z"/>
	<path class="st3" d="M329.6,172c0,0.6-0.2,1.1-0.5,1.5c-0.4,0.3-0.9,0.5-1.5,0.5h-1.1v-3.9h1.2c0.6,0,1.1,0.2,1.4,0.5
		C329.4,171,329.6,171.4,329.6,172z M329.1,172.1c0-0.5-0.1-0.9-0.4-1.2s-0.6-0.4-1.1-0.4h-0.7v3.1h0.6c0.5,0,1-0.1,1.2-0.4
		C329,173,329.1,172.6,329.1,172.1z"/>
</g>
<g>
	<path class="st3" d="M30.6,69.6c0,0.6-0.2,1.1-0.5,1.5s-0.8,0.5-1.3,0.5c-0.6,0-1-0.2-1.3-0.5c-0.3-0.4-0.5-0.9-0.5-1.5
		s0.2-1.1,0.5-1.5s0.8-0.5,1.3-0.5c0.6,0,1,0.2,1.3,0.5C30.5,68.5,30.6,69,30.6,69.6z M27.5,69.6c0,0.5,0.1,0.9,0.3,1.2
		s0.6,0.4,1,0.4s0.8-0.1,1-0.4s0.3-0.7,0.3-1.2s-0.1-0.9-0.3-1.2s-0.5-0.4-1-0.4c-0.4,0-0.8,0.1-1,0.4S27.5,69.1,27.5,69.6z"/>
	<path class="st3" d="M34.6,71.5h-0.5L32,68.2l0,0c0,0.4,0,0.7,0,1.1v2.2h-0.4v-3.9H32l2.1,3.3l0,0c0,0,0-0.2,0-0.5s0-0.5,0-0.6
		v-2.3h0.4L34.6,71.5L34.6,71.5z"/>
	<path class="st3" d="M35.3,70.3v-0.4h1.3v0.4H35.3z"/>
	<path class="st3" d="M38.6,71.5h-0.5V68h-1.2v-0.4h2.9V68h-1.2V71.5z"/>
	<path class="st3" d="M40.5,71.5v-3.9H41v3.9H40.5z"/>
	<path class="st3" d="M43.7,71.5L42.4,68l0,0c0,0.3,0,0.6,0,1v2.5H42v-3.9h0.7l1.2,3.2l0,0l1.3-3.2h0.7v3.9h-0.5V69
		c0-0.3,0-0.6,0-0.9l0,0l-1.3,3.5L43.7,71.5L43.7,71.5z"/>
	<path class="st3" d="M49.2,71.5H47v-3.9h2.2V68h-1.7v1.3h1.6v0.4h-1.6v1.4h1.7V71.5z"/>
	<path class="st3" d="M53.9,71.5l-0.5-1.2h-1.6l-0.5,1.2h-0.5l1.6-3.9h0.4l1.5,3.9H53.9z M53.3,69.9l-0.5-1.2
		c-0.1-0.2-0.1-0.3-0.2-0.6c0,0.2-0.1,0.4-0.2,0.6L52,69.9H53.3z"/>
	<path class="st3" d="M58,71.5h-0.5l-2.1-3.3l0,0c0,0.4,0,0.7,0,1.1v2.2H55v-3.9h0.5l2.1,3.3l0,0c0,0,0-0.2,0-0.5s0-0.5,0-0.6v-2.3
		H58V71.5z"/>
	<path class="st3" d="M61.3,70.5c0,0.3-0.1,0.6-0.4,0.8s-0.6,0.3-1,0.3c-0.5,0-0.8-0.1-1.1-0.2V71c0.2,0.1,0.3,0.1,0.5,0.2
		c0.2,0,0.4,0.1,0.6,0.1c0.3,0,0.5-0.1,0.7-0.2s0.2-0.3,0.2-0.5c0-0.1,0-0.2-0.1-0.3S60.6,70,60.5,70c-0.1-0.1-0.3-0.2-0.6-0.2
		c-0.4-0.1-0.6-0.3-0.8-0.5s-0.2-0.4-0.2-0.7c0-0.3,0.1-0.5,0.3-0.7s0.5-0.3,0.9-0.3s0.7,0.1,1.1,0.2l-0.1,0.4
		c-0.4-0.2-0.7-0.2-1-0.2c-0.2,0-0.4,0.1-0.6,0.2c-0.1,0.1-0.2,0.2-0.2,0.4c0,0.1,0,0.2,0.1,0.3c0,0.1,0.1,0.2,0.3,0.2
		c0.1,0.1,0.3,0.2,0.5,0.2c0.4,0.1,0.7,0.3,0.9,0.5C61.2,70,61.3,70.2,61.3,70.5z"/>
	<path class="st3" d="M65.5,71.5H65l-0.8-2.6c0-0.1-0.1-0.3-0.1-0.4c0-0.2-0.1-0.3-0.1-0.3c0,0.2-0.1,0.5-0.2,0.8L63,71.6h-0.5
		l-1-3.9H62l0.6,2.4c0.1,0.3,0.1,0.6,0.2,0.9c0-0.3,0.1-0.6,0.2-1l0.7-2.4h0.5l0.7,2.4c0.1,0.3,0.2,0.6,0.2,0.9
		c0-0.3,0.1-0.6,0.2-0.9l0.6-2.4h0.5L65.5,71.5z"/>
	<path class="st3" d="M69.4,71.5h-2.2v-3.9h2.2V68h-1.7v1.3h1.6v0.4h-1.6v1.4h1.7V71.5z"/>
	<path class="st3" d="M70.7,69.9v1.6h-0.5v-3.9h1.1c0.5,0,0.8,0.1,1.1,0.3c0.2,0.2,0.3,0.5,0.3,0.8c0,0.5-0.3,0.9-0.8,1.1l1.1,1.8
		h-0.5l-1-1.6h-0.8V69.9z M70.7,69.5h0.6c0.3,0,0.6-0.1,0.7-0.2s0.2-0.3,0.2-0.6c0-0.3-0.1-0.4-0.2-0.6c-0.2-0.1-0.4-0.2-0.7-0.2
		h-0.6V69.5z"/>
</g>
</svg>
