<?xml version="1.0" encoding="utf-8"?>
<!-- Generator: Adobe Illustrator 25.0.0, SVG Export Plug-In . SVG Version: 6.00 Build 0)  -->
<svg version="1.1" id="Layer_1" xmlns="http://www.w3.org/2000/svg" xmlns:xlink="http://www.w3.org/1999/xlink" x="0px" y="0px"
	 viewBox="0 0 360 182" style="enable-background:new 0 0 360 182;" xml:space="preserve">
<style type="text/css">
	.st0{fill:#FFFFFF;}
	.st1{clip-path:url(#SVGID_2_);fill:#FFFFFF;}
	.st2{clip-path:url(#SVGID_4_);fill:#FFFFFF;}
	.st3{fill:#87E08A;}
	.st4{clip-path:url(#SVGID_6_);fill:#FFFFFF;}
	.st5{clip-path:url(#SVGID_8_);fill:#FFFFFF;}
	.st6{clip-path:url(#SVGID_10_);fill:#FFFFFF;}
	.st7{clip-path:url(#SVGID_12_);fill:#FFFFFF;}
	.st8{fill:#2163FF;}
	.st9{fill:#03051F;}
	.st10{clip-path:url(#SVGID_14_);fill:#2163FF;}
	.st11{clip-path:url(#SVGID_16_);fill:#2163FF;}
	.st12{clip-path:url(#SVGID_18_);fill:#87E08A;}
	.st13{clip-path:url(#SVGID_20_);fill:#2163FF;}
	.st14{clip-path:url(#SVGID_22_);fill:#87E08A;}
	.st15{clip-path:url(#SVGID_24_);fill:#03051F;}
	.st16{clip-path:url(#SVGID_26_);fill:#03051F;}
	.st17{clip-path:url(#SVGID_28_);fill:#03051F;}
	.st18{clip-path:url(#SVGID_30_);fill:#03051F;}
	.st19{clip-path:url(#SVGID_32_);fill:#03051F;}
	.st20{clip-path:url(#SVGID_34_);fill:#03051F;}
	.st21{fill:#231F20;}
</style>
<polyline class="st0" points="360,181 360,1 0,1 0,181 "/>
<g>
	<defs>
		<polyline id="SVGID_1_" points="360,181 360,1 0,1 0,181 		"/>
	</defs>
	<clipPath id="SVGID_2_">
		<use xlink:href="#SVGID_1_"  style="overflow:visible;"/>
	</clipPath>
	<path class="st1" d="M28.6,71.5l-0.4-1c0-0.1-0.1-0.3-0.2-0.5c0,0.1-0.1,0.3-0.1,0.5l-0.4,1H28.6z M29.1,72.9l-0.4-1h-1.3l-0.4,1
		h-0.4l1.3-3.3h0.3l1.3,3.3H29.1z"/>
</g>
<polygon class="st0" points="31.2,72.9 30.8,72.9 30.8,69.9 29.7,69.9 29.7,69.6 32.2,69.6 32.2,69.9 31.2,69.9 "/>
<g>
	<defs>
		<polyline id="SVGID_3_" points="360,181 360,1 0,1 0,181 		"/>
	</defs>
	<clipPath id="SVGID_4_">
		<use xlink:href="#SVGID_3_"  style="overflow:visible;"/>
	</clipPath>
	<path class="st2" d="M33.3,71.2h0.5c0.3,0,0.5-0.1,0.6-0.2c0.1-0.1,0.2-0.3,0.2-0.5c0-0.2-0.1-0.4-0.2-0.5
		c-0.1-0.1-0.3-0.1-0.6-0.1h-0.5V71.2z M33.3,71.5v1.4h-0.4v-3.3h0.9c0.4,0,0.7,0.1,0.9,0.2c0.2,0.2,0.3,0.4,0.3,0.7
		c0,0.4-0.2,0.7-0.7,0.9l0.9,1.5h-0.5l-0.8-1.4H33.3z"/>
	<path class="st2" d="M37.4,71.5l-0.4-1c0-0.1-0.1-0.3-0.2-0.5c0,0.1-0.1,0.3-0.1,0.5l-0.4,1H37.4z M37.9,72.9l-0.4-1h-1.3l-0.4,1
		h-0.4l1.3-3.3h0.3l1.3,3.3H37.9z"/>
	<path class="st2" d="M40.8,72c0,0.3-0.1,0.5-0.3,0.7c-0.2,0.2-0.5,0.2-0.9,0.2c-0.4,0-0.7,0-0.9-0.1v-0.4c0.1,0.1,0.3,0.1,0.4,0.1
		c0.2,0,0.3,0,0.5,0c0.3,0,0.4,0,0.6-0.1c0.1-0.1,0.2-0.2,0.2-0.4c0-0.1,0-0.2-0.1-0.3c0-0.1-0.1-0.1-0.2-0.2
		c-0.1-0.1-0.3-0.1-0.5-0.2c-0.3-0.1-0.5-0.2-0.7-0.4c-0.1-0.1-0.2-0.3-0.2-0.6c0-0.3,0.1-0.5,0.3-0.6c0.2-0.1,0.4-0.2,0.8-0.2
		c0.3,0,0.6,0.1,0.9,0.2l-0.1,0.3c-0.3-0.1-0.5-0.2-0.8-0.2c-0.2,0-0.4,0-0.5,0.1c-0.1,0.1-0.2,0.2-0.2,0.4c0,0.1,0,0.2,0.1,0.3
		c0,0.1,0.1,0.1,0.2,0.2c0.1,0.1,0.3,0.1,0.5,0.2c0.3,0.1,0.6,0.3,0.7,0.4C40.8,71.6,40.8,71.8,40.8,72"/>
	<path class="st2" d="M43.2,71.5l-0.4-1c0-0.1-0.1-0.3-0.2-0.5c0,0.1-0.1,0.3-0.1,0.5l-0.4,1H43.2z M43.7,72.9l-0.4-1H42l-0.4,1
		h-0.4l1.3-3.3h0.3l1.3,3.3H43.7z"/>
	<path class="st2" d="M47,71.2c0-0.4-0.1-0.7-0.3-1c-0.2-0.2-0.5-0.3-1-0.3h-0.6v2.6h0.5c0.5,0,0.8-0.1,1-0.3S47,71.6,47,71.2
		 M47.4,71.2c0,0.5-0.1,1-0.4,1.2c-0.3,0.3-0.7,0.4-1.3,0.4h-0.9v-3.3h1c0.5,0,0.9,0.1,1.2,0.4C47.2,70.3,47.4,70.7,47.4,71.2"/>
	<path class="st2" d="M48.5,71.2c0,0.4,0.1,0.8,0.3,1c0.2,0.2,0.5,0.3,0.8,0.3c0.4,0,0.6-0.1,0.8-0.3c0.2-0.2,0.3-0.6,0.3-1
		c0-0.4-0.1-0.8-0.3-1c-0.2-0.2-0.5-0.3-0.8-0.3c-0.4,0-0.6,0.1-0.8,0.3C48.6,70.5,48.5,70.8,48.5,71.2 M51.1,71.2
		c0,0.5-0.1,0.9-0.4,1.2c-0.3,0.3-0.6,0.4-1.1,0.4c-0.5,0-0.9-0.1-1.1-0.4c-0.3-0.3-0.4-0.7-0.4-1.2c0-0.5,0.1-0.9,0.4-1.2
		c0.3-0.3,0.6-0.4,1.1-0.4c0.5,0,0.8,0.2,1.1,0.4C51,70.3,51.1,70.7,51.1,71.2"/>
</g>
<rect x="20.5" y="62.6" class="st3" width="22.9" height="2.6"/>
<g>
	<defs>
		<polyline id="SVGID_5_" points="360,181 360,1 0,1 0,181 		"/>
	</defs>
	<clipPath id="SVGID_6_">
		<use xlink:href="#SVGID_5_"  style="overflow:visible;"/>
	</clipPath>
	<path class="st4" d="M27.5,91.8H28c0.3,0,0.5-0.1,0.6-0.2c0.1-0.1,0.2-0.3,0.2-0.5c0-0.2-0.1-0.4-0.2-0.5c-0.1-0.1-0.3-0.1-0.6-0.1
		h-0.5V91.8z M27.5,92.2v1.4h-0.4v-3.3H28c0.4,0,0.7,0.1,0.9,0.2s0.3,0.4,0.3,0.7c0,0.4-0.2,0.7-0.7,0.9l0.9,1.5h-0.5l-0.8-1.4H27.5
		z"/>
</g>
<polygon class="st0" points="31.9,93.5 30.1,93.5 30.1,90.2 31.9,90.2 31.9,90.6 30.5,90.6 30.5,91.6 31.8,91.6 31.8,92 30.5,92 
	30.5,93.2 31.9,93.2 "/>
<g>
	<defs>
		<polyline id="SVGID_7_" points="360,181 360,1 0,1 0,181 		"/>
	</defs>
	<clipPath id="SVGID_8_">
		<use xlink:href="#SVGID_7_"  style="overflow:visible;"/>
	</clipPath>
	<path class="st5" d="M34.7,92.7c0,0.3-0.1,0.5-0.3,0.7c-0.2,0.2-0.5,0.2-0.9,0.2c-0.4,0-0.7-0.1-0.9-0.2V93
		c0.1,0.1,0.3,0.1,0.4,0.1c0.2,0,0.3,0,0.5,0c0.3,0,0.4,0,0.6-0.1c0.1-0.1,0.2-0.2,0.2-0.4c0-0.1,0-0.2-0.1-0.3
		c0-0.1-0.1-0.1-0.2-0.2c-0.1-0.1-0.3-0.1-0.5-0.2c-0.3-0.1-0.5-0.2-0.7-0.4c-0.1-0.1-0.2-0.3-0.2-0.6c0-0.3,0.1-0.5,0.3-0.6
		c0.2-0.1,0.4-0.2,0.8-0.2c0.3,0,0.6,0.1,0.9,0.2l-0.1,0.3c-0.3-0.1-0.5-0.2-0.8-0.2c-0.2,0-0.4,0-0.5,0.1C33.1,90.8,33,90.9,33,91
		c0,0.1,0,0.2,0.1,0.3c0,0.1,0.1,0.1,0.2,0.2c0.1,0.1,0.3,0.1,0.5,0.2c0.3,0.1,0.6,0.3,0.7,0.4C34.6,92.2,34.7,92.4,34.7,92.7"/>
	<path class="st5" d="M35.9,91.9h0.3c0.3,0,0.6-0.1,0.7-0.2c0.2-0.1,0.2-0.3,0.2-0.5c0-0.2-0.1-0.4-0.2-0.5
		c-0.1-0.1-0.4-0.2-0.7-0.2h-0.4V91.9z M37.6,91.2c0,0.3-0.1,0.6-0.3,0.8c-0.2,0.2-0.5,0.3-1,0.3h-0.4v1.3h-0.4v-3.3h0.8
		C37.2,90.2,37.6,90.6,37.6,91.2"/>
	<path class="st5" d="M38.7,91.9c0,0.4,0.1,0.8,0.3,1c0.2,0.2,0.5,0.3,0.8,0.3c0.4,0,0.6-0.1,0.8-0.3c0.2-0.2,0.3-0.6,0.3-1
		c0-0.4-0.1-0.8-0.3-1c-0.2-0.2-0.5-0.3-0.8-0.3c-0.4,0-0.6,0.1-0.8,0.3C38.8,91.1,38.7,91.4,38.7,91.9 M41.3,91.9
		c0,0.5-0.1,0.9-0.4,1.2c-0.3,0.3-0.6,0.4-1.1,0.4c-0.5,0-0.9-0.1-1.1-0.4c-0.3-0.3-0.4-0.7-0.4-1.2c0-0.5,0.1-0.9,0.4-1.2
		c0.3-0.3,0.6-0.4,1.1-0.4c0.5,0,0.8,0.2,1.1,0.4C41.2,90.9,41.3,91.4,41.3,91.9"/>
	<path class="st5" d="M44.1,92.7c0,0.3-0.1,0.5-0.3,0.7c-0.2,0.2-0.5,0.2-0.9,0.2c-0.4,0-0.7-0.1-0.9-0.2V93
		c0.1,0.1,0.3,0.1,0.4,0.1c0.2,0,0.3,0,0.5,0c0.3,0,0.4,0,0.6-0.1c0.1-0.1,0.2-0.2,0.2-0.4c0-0.1,0-0.2-0.1-0.3
		c0-0.1-0.1-0.1-0.2-0.2c-0.1-0.1-0.3-0.1-0.5-0.2c-0.3-0.1-0.5-0.2-0.7-0.4C42.1,91.5,42,91.3,42,91c0-0.3,0.1-0.5,0.3-0.6
		c0.2-0.1,0.4-0.2,0.8-0.2c0.3,0,0.6,0.1,0.9,0.2l-0.1,0.3c-0.3-0.1-0.5-0.2-0.8-0.2c-0.2,0-0.4,0-0.5,0.1c-0.1,0.1-0.2,0.2-0.2,0.4
		c0,0.1,0,0.2,0.1,0.3c0,0.1,0.1,0.1,0.2,0.2c0.1,0.1,0.3,0.1,0.5,0.2c0.3,0.1,0.6,0.3,0.7,0.4C44,92.2,44.1,92.4,44.1,92.7"/>
</g>
<polygon class="st0" points="45.9,93.5 45.5,93.5 45.5,90.6 44.5,90.6 44.5,90.2 47,90.2 47,90.6 45.9,90.6 "/>
<g>
	<defs>
		<polyline id="SVGID_9_" points="360,181 360,1 0,1 0,181 		"/>
	</defs>
	<clipPath id="SVGID_10_">
		<use xlink:href="#SVGID_9_"  style="overflow:visible;"/>
	</clipPath>
	<path class="st6" d="M49.2,92.1l-0.4-1c0-0.1-0.1-0.3-0.2-0.5c0,0.1-0.1,0.3-0.1,0.5l-0.4,1H49.2z M49.7,93.5l-0.4-1H48l-0.4,1
		h-0.4l1.3-3.3h0.3l1.3,3.3H49.7z"/>
	<path class="st6" d="M54.6,93.5h-0.4l-1.8-2.7h0c0,0.3,0,0.6,0,0.9v1.9h-0.4v-3.3h0.4l1.8,2.7h0c0,0,0-0.2,0-0.4c0-0.2,0-0.4,0-0.5
		v-1.9h0.4V93.5z"/>
	<path class="st6" d="M55.9,91.9c0,0.4,0.1,0.8,0.3,1c0.2,0.2,0.5,0.3,0.8,0.3c0.4,0,0.6-0.1,0.8-0.3c0.2-0.2,0.3-0.6,0.3-1
		c0-0.4-0.1-0.8-0.3-1c-0.2-0.2-0.5-0.3-0.8-0.3c-0.4,0-0.6,0.1-0.8,0.3C56,91.1,55.9,91.4,55.9,91.9 M58.6,91.9
		c0,0.5-0.1,0.9-0.4,1.2c-0.3,0.3-0.6,0.4-1.1,0.4c-0.5,0-0.9-0.1-1.1-0.4c-0.3-0.3-0.4-0.7-0.4-1.2c0-0.5,0.1-0.9,0.4-1.2
		c0.3-0.3,0.6-0.4,1.1-0.4c0.5,0,0.8,0.2,1.1,0.4C58.4,90.9,58.6,91.4,58.6,91.9"/>
	<path class="st6" d="M61.2,91.9h0.3c0.3,0,0.6-0.1,0.7-0.2c0.2-0.1,0.2-0.3,0.2-0.5c0-0.2-0.1-0.4-0.2-0.5
		c-0.1-0.1-0.4-0.2-0.7-0.2h-0.4V91.9z M62.9,91.2c0,0.3-0.1,0.6-0.3,0.8c-0.2,0.2-0.6,0.3-1,0.3h-0.4v1.3h-0.4v-3.3h0.8
		C62.5,90.2,62.9,90.6,62.9,91.2"/>
	<path class="st6" d="M64.2,91.8h0.5c0.3,0,0.5-0.1,0.6-0.2c0.1-0.1,0.2-0.3,0.2-0.5c0-0.2-0.1-0.4-0.2-0.5
		c-0.1-0.1-0.3-0.1-0.6-0.1h-0.5V91.8z M64.2,92.2v1.4h-0.4v-3.3h0.9c0.4,0,0.7,0.1,0.9,0.2s0.3,0.4,0.3,0.7c0,0.4-0.2,0.7-0.7,0.9
		l0.9,1.5h-0.5l-0.8-1.4H64.2z"/>
	<path class="st6" d="M68.3,92.1l-0.4-1c0-0.1-0.1-0.3-0.2-0.5c0,0.1-0.1,0.3-0.1,0.5l-0.4,1H68.3z M68.9,93.5l-0.4-1h-1.3l-0.4,1
		h-0.4l1.3-3.3H68l1.3,3.3H68.9z"/>
</g>
<polygon class="st0" points="71.9,93.5 69.6,93.5 69.6,93.2 71.3,90.6 69.7,90.6 69.7,90.2 71.8,90.2 71.8,90.5 70.1,93.2 
	71.9,93.2 "/>
<g>
	<defs>
		<polyline id="SVGID_11_" points="360,181 360,1 0,1 0,181 		"/>
	</defs>
	<clipPath id="SVGID_12_">
		<use xlink:href="#SVGID_11_"  style="overflow:visible;"/>
	</clipPath>
	<path class="st7" d="M72.9,91.9c0,0.4,0.1,0.8,0.3,1c0.2,0.2,0.5,0.3,0.8,0.3c0.4,0,0.6-0.1,0.8-0.3c0.2-0.2,0.3-0.6,0.3-1
		c0-0.4-0.1-0.8-0.3-1c-0.2-0.2-0.5-0.3-0.8-0.3c-0.4,0-0.6,0.1-0.8,0.3C73,91.1,72.9,91.4,72.9,91.9 M75.5,91.9
		c0,0.5-0.1,0.9-0.4,1.2c-0.3,0.3-0.6,0.4-1.1,0.4c-0.5,0-0.9-0.1-1.1-0.4s-0.4-0.7-0.4-1.2c0-0.5,0.1-0.9,0.4-1.2
		c0.3-0.3,0.6-0.4,1.1-0.4c0.5,0,0.8,0.2,1.1,0.4C75.4,90.9,75.5,91.4,75.5,91.9"/>
</g>
<rect x="20.5" y="82.8" class="st8" width="22.9" height="2.6"/>
<rect x="86.4" y="158.3" class="st9" width="166.1" height="0.2"/>
<g>
	<defs>
		<polyline id="SVGID_13_" points="360,181 360,1 0,1 0,181 		"/>
	</defs>
	<clipPath id="SVGID_14_">
		<use xlink:href="#SVGID_13_"  style="overflow:visible;"/>
	</clipPath>
	<path class="st10" d="M220.8,147.7v-0.8c0-0.1,0-0.3,0-0.6c0-0.3,0-0.4,0-0.5h0c-0.1,0.2-0.2,0.4-0.3,0.5l-0.9,1.4H220.8z
		 M222.4,148.5h-0.6v1h-1v-1h-2.1v-0.7l2.2-3.2h1v3.1h0.6V148.5z"/>
</g>
<rect x="218.6" y="149.9" class="st8" width="4" height="0.3"/>
<rect x="218.6" y="154" class="st8" width="17.8" height="4.3"/>
<rect x="167.6" y="115.1" class="st8" width="17.8" height="43.3"/>
<rect x="167.6" y="97.8" class="st3" width="17.8" height="17.3"/>
<rect x="113" y="41.5" class="st8" width="17.8" height="116.8"/>
<rect x="113" y="11.2" class="st3" width="17.8" height="30.3"/>
<g>
	<defs>
		<polyline id="SVGID_15_" points="360,181 360,1 0,1 0,181 		"/>
	</defs>
	<clipPath id="SVGID_16_">
		<use xlink:href="#SVGID_15_"  style="overflow:visible;"/>
	</clipPath>
	<path class="st11" d="M105.1,45.2c0.2,0,0.4-0.1,0.5-0.2c0.1-0.2,0.2-0.4,0.2-0.6c0-0.2-0.1-0.4-0.2-0.6c-0.1-0.1-0.3-0.2-0.5-0.2
		c-0.2,0-0.4,0.1-0.5,0.2c-0.2,0.1-0.2,0.3-0.2,0.5c0,0.3,0.1,0.5,0.2,0.7C104.7,45.1,104.9,45.2,105.1,45.2 M103.3,43.9
		c0-1,0.2-1.7,0.6-2.2c0.4-0.5,1-0.7,1.9-0.7c0.3,0,0.5,0,0.7,0.1v0.8c-0.2,0-0.4-0.1-0.6-0.1c-0.4,0-0.7,0.1-0.9,0.2
		c-0.2,0.1-0.4,0.3-0.5,0.5c-0.1,0.2-0.2,0.5-0.2,0.9h0c0.2-0.4,0.6-0.6,1.1-0.6c0.4,0,0.8,0.1,1,0.4c0.3,0.3,0.4,0.7,0.4,1.2
		c0,0.5-0.1,1-0.4,1.3c-0.3,0.3-0.7,0.5-1.2,0.5c-0.4,0-0.7-0.1-1-0.3c-0.3-0.2-0.5-0.4-0.6-0.7C103.4,44.7,103.3,44.4,103.3,43.9"
		/>
	<path class="st11" d="M109.1,42.8c0.5,0,0.9,0.1,1.1,0.4c0.3,0.3,0.4,0.6,0.4,1.1c0,0.6-0.2,1-0.5,1.3c-0.3,0.3-0.8,0.4-1.5,0.4
		c-0.6,0-1-0.1-1.3-0.3v-0.9c0.2,0.1,0.4,0.2,0.6,0.2c0.2,0.1,0.5,0.1,0.7,0.1c0.6,0,1-0.3,1-0.8c0-0.5-0.3-0.8-1-0.8
		c-0.1,0-0.3,0-0.4,0c-0.1,0-0.3,0-0.4,0.1l-0.4-0.2l0.2-2.5h2.7v0.9h-1.8l-0.1,1l0.1,0C108.7,42.8,108.9,42.8,109.1,42.8"/>
</g>
<rect x="103" y="46.4" class="st8" width="8" height="0.3"/>
<g>
	<defs>
		<polyline id="SVGID_17_" points="360,181 360,1 0,1 0,181 		"/>
	</defs>
	<clipPath id="SVGID_18_">
		<use xlink:href="#SVGID_17_"  style="overflow:visible;"/>
	</clipPath>
	<path class="st12" d="M106.3,15.1h-3.5v-0.7l1.2-1.3c0.4-0.4,0.6-0.6,0.7-0.8c0.1-0.1,0.2-0.3,0.2-0.4c0-0.1,0.1-0.3,0.1-0.4
		c0-0.2-0.1-0.3-0.2-0.4c-0.1-0.1-0.3-0.1-0.4-0.1c-0.2,0-0.4,0-0.6,0.1c-0.2,0.1-0.4,0.2-0.6,0.4l-0.6-0.7c0.2-0.2,0.4-0.4,0.6-0.4
		c0.2-0.1,0.3-0.2,0.5-0.2c0.2,0,0.4-0.1,0.6-0.1c0.3,0,0.6,0.1,0.8,0.2s0.4,0.3,0.6,0.5c0.1,0.2,0.2,0.4,0.2,0.7
		c0,0.2,0,0.4-0.1,0.6c-0.1,0.2-0.2,0.4-0.4,0.6s-0.5,0.5-0.9,0.9l-0.6,0.6v0h2.2V15.1z"/>
	<path class="st12" d="M107.8,12.6c0,0.6,0.1,1,0.2,1.3c0.1,0.3,0.3,0.4,0.5,0.4c0.2,0,0.4-0.1,0.5-0.4s0.2-0.7,0.2-1.3
		c0-0.6-0.1-1-0.2-1.3c-0.1-0.3-0.3-0.4-0.5-0.4c-0.2,0-0.4,0.1-0.5,0.4C107.9,11.5,107.8,12,107.8,12.6 M110.2,12.6
		c0,0.9-0.1,1.5-0.4,1.9c-0.3,0.4-0.7,0.6-1.3,0.6c-0.6,0-1-0.2-1.3-0.6c-0.3-0.4-0.4-1.1-0.4-1.9c0-0.9,0.1-1.5,0.4-1.9
		c0.3-0.4,0.7-0.6,1.3-0.6c0.6,0,1,0.2,1.3,0.7S110.2,11.7,110.2,12.6"/>
</g>
<rect x="102.5" y="15.4" class="st3" width="8" height="0.3"/>
<g>
	<defs>
		<polyline id="SVGID_19_" points="360,181 360,1 0,1 0,181 		"/>
	</defs>
	<clipPath id="SVGID_20_">
		<use xlink:href="#SVGID_19_"  style="overflow:visible;"/>
	</clipPath>
	<path class="st13" d="M163.3,120.7h-3.5V120l1.2-1.3c0.4-0.4,0.6-0.6,0.7-0.8c0.1-0.1,0.2-0.3,0.2-0.4c0-0.1,0.1-0.3,0.1-0.4
		c0-0.2-0.1-0.3-0.2-0.4c-0.1-0.1-0.3-0.1-0.4-0.1c-0.2,0-0.4,0-0.6,0.1c-0.2,0.1-0.4,0.2-0.6,0.4l-0.6-0.7c0.2-0.2,0.4-0.4,0.6-0.4
		c0.2-0.1,0.3-0.2,0.5-0.2c0.2,0,0.4-0.1,0.6-0.1c0.3,0,0.6,0.1,0.8,0.2c0.2,0.1,0.4,0.3,0.6,0.5c0.1,0.2,0.2,0.4,0.2,0.7
		c0,0.2,0,0.4-0.1,0.6c-0.1,0.2-0.2,0.4-0.4,0.6c-0.2,0.2-0.5,0.5-0.9,0.9l-0.6,0.6v0h2.2V120.7z"/>
</g>
<rect x="159.5" y="121.1" class="st8" width="4" height="0.3"/>
<g>
	<defs>
		<polyline id="SVGID_21_" points="360,181 360,1 0,1 0,181 		"/>
	</defs>
	<clipPath id="SVGID_22_">
		<use xlink:href="#SVGID_21_"  style="overflow:visible;"/>
	</clipPath>
	<path class="st14" d="M161.6,99.7c0.5,0,0.9,0.1,1.1,0.4c0.3,0.3,0.4,0.6,0.4,1.1c0,0.6-0.2,1-0.5,1.3c-0.3,0.3-0.8,0.4-1.5,0.4
		c-0.6,0-1-0.1-1.3-0.3v-0.9c0.2,0.1,0.4,0.2,0.6,0.2c0.2,0.1,0.5,0.1,0.7,0.1c0.6,0,1-0.3,1-0.8c0-0.5-0.3-0.8-1-0.8
		c-0.1,0-0.3,0-0.4,0c-0.1,0-0.3,0-0.4,0.1l-0.4-0.2l0.2-2.5h2.7v0.9h-1.8l-0.1,1l0.1,0C161.2,99.7,161.4,99.7,161.6,99.7"/>
</g>
<rect x="159.5" y="103.2" class="st3" width="4" height="0.3"/>
<g>
	<defs>
		<polyline id="SVGID_23_" points="360,181 360,1 0,1 0,181 		"/>
	</defs>
	<clipPath id="SVGID_24_">
		<use xlink:href="#SVGID_23_"  style="overflow:visible;"/>
	</clipPath>
	<path class="st15" d="M28.6,71.5l-0.4-1c0-0.1-0.1-0.3-0.2-0.5c0,0.1-0.1,0.3-0.1,0.5l-0.4,1H28.6z M29.1,72.9l-0.4-1h-1.3l-0.4,1
		h-0.4l1.3-3.3h0.3l1.3,3.3H29.1z"/>
</g>
<polygon class="st9" points="31.2,72.9 30.8,72.9 30.8,69.9 29.7,69.9 29.7,69.6 32.2,69.6 32.2,69.9 31.2,69.9 "/>
<g>
	<defs>
		<polyline id="SVGID_25_" points="360,181 360,1 0,1 0,181 		"/>
	</defs>
	<clipPath id="SVGID_26_">
		<use xlink:href="#SVGID_25_"  style="overflow:visible;"/>
	</clipPath>
	<path class="st16" d="M33.3,71.2h0.5c0.3,0,0.5-0.1,0.6-0.2c0.1-0.1,0.2-0.3,0.2-0.5c0-0.2-0.1-0.4-0.2-0.5
		c-0.1-0.1-0.3-0.1-0.6-0.1h-0.5V71.2z M33.3,71.5v1.4h-0.4v-3.3h0.9c0.4,0,0.7,0.1,0.9,0.2c0.2,0.2,0.3,0.4,0.3,0.7
		c0,0.4-0.2,0.7-0.7,0.9l0.9,1.5h-0.5l-0.8-1.4H33.3z"/>
	<path class="st16" d="M37.4,71.5l-0.4-1c0-0.1-0.1-0.3-0.2-0.5c0,0.1-0.1,0.3-0.1,0.5l-0.4,1H37.4z M37.9,72.9l-0.4-1h-1.3l-0.4,1
		h-0.4l1.3-3.3h0.3l1.3,3.3H37.9z"/>
	<path class="st16" d="M40.8,72c0,0.3-0.1,0.5-0.3,0.7c-0.2,0.2-0.5,0.2-0.9,0.2c-0.4,0-0.7,0-0.9-0.1v-0.4c0.1,0.1,0.3,0.1,0.4,0.1
		c0.2,0,0.3,0,0.5,0c0.3,0,0.4,0,0.6-0.1c0.1-0.1,0.2-0.2,0.2-0.4c0-0.1,0-0.2-0.1-0.3c0-0.1-0.1-0.1-0.2-0.2
		c-0.1-0.1-0.3-0.1-0.5-0.2c-0.3-0.1-0.5-0.2-0.7-0.4c-0.1-0.1-0.2-0.3-0.2-0.6c0-0.3,0.1-0.5,0.3-0.6c0.2-0.1,0.4-0.2,0.8-0.2
		c0.3,0,0.6,0.1,0.9,0.2l-0.1,0.3c-0.3-0.1-0.5-0.2-0.8-0.2c-0.2,0-0.4,0-0.5,0.1c-0.1,0.1-0.2,0.2-0.2,0.4c0,0.1,0,0.2,0.1,0.3
		c0,0.1,0.1,0.1,0.2,0.2c0.1,0.1,0.3,0.1,0.5,0.2c0.3,0.1,0.6,0.3,0.7,0.4C40.8,71.6,40.8,71.8,40.8,72"/>
	<path class="st16" d="M43.2,71.5l-0.4-1c0-0.1-0.1-0.3-0.2-0.5c0,0.1-0.1,0.3-0.1,0.5l-0.4,1H43.2z M43.7,72.9l-0.4-1H42l-0.4,1
		h-0.4l1.3-3.3h0.3l1.3,3.3H43.7z"/>
	<path class="st16" d="M47,71.2c0-0.4-0.1-0.7-0.3-1c-0.2-0.2-0.5-0.3-1-0.3h-0.6v2.6h0.5c0.5,0,0.8-0.1,1-0.3S47,71.6,47,71.2
		 M47.4,71.2c0,0.5-0.1,1-0.4,1.2c-0.3,0.3-0.7,0.4-1.3,0.4h-0.9v-3.3h1c0.5,0,0.9,0.1,1.2,0.4C47.2,70.3,47.4,70.7,47.4,71.2"/>
	<path class="st16" d="M48.5,71.2c0,0.4,0.1,0.8,0.3,1c0.2,0.2,0.5,0.3,0.8,0.3c0.4,0,0.6-0.1,0.8-0.3c0.2-0.2,0.3-0.6,0.3-1
		c0-0.4-0.1-0.8-0.3-1c-0.2-0.2-0.5-0.3-0.8-0.3c-0.4,0-0.6,0.1-0.8,0.3C48.6,70.5,48.5,70.8,48.5,71.2 M51.1,71.2
		c0,0.5-0.1,0.9-0.4,1.2c-0.3,0.3-0.6,0.4-1.1,0.4c-0.5,0-0.9-0.1-1.1-0.4c-0.3-0.3-0.4-0.7-0.4-1.2c0-0.5,0.1-0.9,0.4-1.2
		c0.3-0.3,0.6-0.4,1.1-0.4c0.5,0,0.8,0.2,1.1,0.4C51,70.3,51.1,70.7,51.1,71.2"/>
</g>
<rect x="20.5" y="62.6" class="st3" width="22.9" height="2.6"/>
<g>
	<defs>
		<polyline id="SVGID_27_" points="360,181 360,1 0,1 0,181 		"/>
	</defs>
	<clipPath id="SVGID_28_">
		<use xlink:href="#SVGID_27_"  style="overflow:visible;"/>
	</clipPath>
	<path class="st17" d="M27.5,91.8H28c0.3,0,0.5-0.1,0.6-0.2c0.1-0.1,0.2-0.3,0.2-0.5c0-0.2-0.1-0.4-0.2-0.5
		c-0.1-0.1-0.3-0.1-0.6-0.1h-0.5V91.8z M27.5,92.2v1.4h-0.4v-3.3H28c0.4,0,0.7,0.1,0.9,0.2s0.3,0.4,0.3,0.7c0,0.4-0.2,0.7-0.7,0.9
		l0.9,1.5h-0.5l-0.8-1.4H27.5z"/>
</g>
<polygon class="st9" points="31.9,93.5 30.1,93.5 30.1,90.2 31.9,90.2 31.9,90.6 30.5,90.6 30.5,91.6 31.8,91.6 31.8,92 30.5,92 
	30.5,93.2 31.9,93.2 "/>
<g>
	<defs>
		<polyline id="SVGID_29_" points="360,181 360,1 0,1 0,181 		"/>
	</defs>
	<clipPath id="SVGID_30_">
		<use xlink:href="#SVGID_29_"  style="overflow:visible;"/>
	</clipPath>
	<path class="st18" d="M34.7,92.7c0,0.3-0.1,0.5-0.3,0.7c-0.2,0.2-0.5,0.2-0.9,0.2c-0.4,0-0.7-0.1-0.9-0.2V93
		c0.1,0.1,0.3,0.1,0.4,0.1c0.2,0,0.3,0,0.5,0c0.3,0,0.4,0,0.6-0.1c0.1-0.1,0.2-0.2,0.2-0.4c0-0.1,0-0.2-0.1-0.3
		c0-0.1-0.1-0.1-0.2-0.2c-0.1-0.1-0.3-0.1-0.5-0.2c-0.3-0.1-0.5-0.2-0.7-0.4c-0.1-0.1-0.2-0.3-0.2-0.6c0-0.3,0.1-0.5,0.3-0.6
		c0.2-0.1,0.4-0.2,0.8-0.2c0.3,0,0.6,0.1,0.9,0.2l-0.1,0.3c-0.3-0.1-0.5-0.2-0.8-0.2c-0.2,0-0.4,0-0.5,0.1C33.1,90.8,33,90.9,33,91
		c0,0.1,0,0.2,0.1,0.3c0,0.1,0.1,0.1,0.2,0.2c0.1,0.1,0.3,0.1,0.5,0.2c0.3,0.1,0.6,0.3,0.7,0.4C34.6,92.2,34.7,92.4,34.7,92.7"/>
	<path class="st18" d="M35.9,91.9h0.3c0.3,0,0.6-0.1,0.7-0.2c0.2-0.1,0.2-0.3,0.2-0.5c0-0.2-0.1-0.4-0.2-0.5
		c-0.1-0.1-0.4-0.2-0.7-0.2h-0.4V91.9z M37.6,91.2c0,0.3-0.1,0.6-0.3,0.8c-0.2,0.2-0.5,0.3-1,0.3h-0.4v1.3h-0.4v-3.3h0.8
		C37.2,90.2,37.6,90.6,37.6,91.2"/>
	<path class="st18" d="M38.7,91.9c0,0.4,0.1,0.8,0.3,1c0.2,0.2,0.5,0.3,0.8,0.3c0.4,0,0.6-0.1,0.8-0.3c0.2-0.2,0.3-0.6,0.3-1
		c0-0.4-0.1-0.8-0.3-1c-0.2-0.2-0.5-0.3-0.8-0.3c-0.4,0-0.6,0.1-0.8,0.3C38.8,91.1,38.7,91.4,38.7,91.9 M41.3,91.9
		c0,0.5-0.1,0.9-0.4,1.2c-0.3,0.3-0.6,0.4-1.1,0.4c-0.5,0-0.9-0.1-1.1-0.4c-0.3-0.3-0.4-0.7-0.4-1.2c0-0.5,0.1-0.9,0.4-1.2
		c0.3-0.3,0.6-0.4,1.1-0.4c0.5,0,0.8,0.2,1.1,0.4C41.2,90.9,41.3,91.4,41.3,91.9"/>
	<path class="st18" d="M44.1,92.7c0,0.3-0.1,0.5-0.3,0.7c-0.2,0.2-0.5,0.2-0.9,0.2c-0.4,0-0.7-0.1-0.9-0.2V93
		c0.1,0.1,0.3,0.1,0.4,0.1c0.2,0,0.3,0,0.5,0c0.3,0,0.4,0,0.6-0.1c0.1-0.1,0.2-0.2,0.2-0.4c0-0.1,0-0.2-0.1-0.3
		c0-0.1-0.1-0.1-0.2-0.2c-0.1-0.1-0.3-0.1-0.5-0.2c-0.3-0.1-0.5-0.2-0.7-0.4C42.1,91.5,42,91.3,42,91c0-0.3,0.1-0.5,0.3-0.6
		c0.2-0.1,0.4-0.2,0.8-0.2c0.3,0,0.6,0.1,0.9,0.2l-0.1,0.3c-0.3-0.1-0.5-0.2-0.8-0.2c-0.2,0-0.4,0-0.5,0.1c-0.1,0.1-0.2,0.2-0.2,0.4
		c0,0.1,0,0.2,0.1,0.3c0,0.1,0.1,0.1,0.2,0.2c0.1,0.1,0.3,0.1,0.5,0.2c0.3,0.1,0.6,0.3,0.7,0.4C44,92.2,44.1,92.4,44.1,92.7"/>
</g>
<polygon class="st9" points="45.9,93.5 45.5,93.5 45.5,90.6 44.5,90.6 44.5,90.2 47,90.2 47,90.6 45.9,90.6 "/>
<g>
	<defs>
		<polyline id="SVGID_31_" points="360,181 360,1 0,1 0,181 		"/>
	</defs>
	<clipPath id="SVGID_32_">
		<use xlink:href="#SVGID_31_"  style="overflow:visible;"/>
	</clipPath>
	<path class="st19" d="M49.2,92.1l-0.4-1c0-0.1-0.1-0.3-0.2-0.5c0,0.1-0.1,0.3-0.1,0.5l-0.4,1H49.2z M49.7,93.5l-0.4-1H48l-0.4,1
		h-0.4l1.3-3.3h0.3l1.3,3.3H49.7z"/>
	<path class="st19" d="M54.6,93.5h-0.4l-1.8-2.7h0c0,0.3,0,0.6,0,0.9v1.9h-0.4v-3.3h0.4l1.8,2.7h0c0,0,0-0.2,0-0.4
		c0-0.2,0-0.4,0-0.5v-1.9h0.4V93.5z"/>
	<path class="st19" d="M55.9,91.9c0,0.4,0.1,0.8,0.3,1c0.2,0.2,0.5,0.3,0.8,0.3c0.4,0,0.6-0.1,0.8-0.3c0.2-0.2,0.3-0.6,0.3-1
		c0-0.4-0.1-0.8-0.3-1c-0.2-0.2-0.5-0.3-0.8-0.3c-0.4,0-0.6,0.1-0.8,0.3C56,91.1,55.9,91.4,55.9,91.9 M58.6,91.9
		c0,0.5-0.1,0.9-0.4,1.2c-0.3,0.3-0.6,0.4-1.1,0.4c-0.5,0-0.9-0.1-1.1-0.4c-0.3-0.3-0.4-0.7-0.4-1.2c0-0.5,0.1-0.9,0.4-1.2
		c0.3-0.3,0.6-0.4,1.1-0.4c0.5,0,0.8,0.2,1.1,0.4C58.4,90.9,58.6,91.4,58.6,91.9"/>
	<path class="st19" d="M61.2,91.9h0.3c0.3,0,0.6-0.1,0.7-0.2c0.2-0.1,0.2-0.3,0.2-0.5c0-0.2-0.1-0.4-0.2-0.5
		c-0.1-0.1-0.4-0.2-0.7-0.2h-0.4V91.9z M62.9,91.2c0,0.3-0.1,0.6-0.3,0.8c-0.2,0.2-0.6,0.3-1,0.3h-0.4v1.3h-0.4v-3.3h0.8
		C62.5,90.2,62.9,90.6,62.9,91.2"/>
	<path class="st19" d="M64.2,91.8h0.5c0.3,0,0.5-0.1,0.6-0.2c0.1-0.1,0.2-0.3,0.2-0.5c0-0.2-0.1-0.4-0.2-0.5
		c-0.1-0.1-0.3-0.1-0.6-0.1h-0.5V91.8z M64.2,92.2v1.4h-0.4v-3.3h0.9c0.4,0,0.7,0.1,0.9,0.2s0.3,0.4,0.3,0.7c0,0.4-0.2,0.7-0.7,0.9
		l0.9,1.5h-0.5l-0.8-1.4H64.2z"/>
	<path class="st19" d="M68.3,92.1l-0.4-1c0-0.1-0.1-0.3-0.2-0.5c0,0.1-0.1,0.3-0.1,0.5l-0.4,1H68.3z M68.9,93.5l-0.4-1h-1.3l-0.4,1
		h-0.4l1.3-3.3H68l1.3,3.3H68.9z"/>
</g>
<polygon class="st9" points="71.9,93.5 69.6,93.5 69.6,93.2 71.3,90.6 69.7,90.6 69.7,90.2 71.8,90.2 71.8,90.5 70.1,93.2 
	71.9,93.2 "/>
<g>
	<defs>
		<polyline id="SVGID_33_" points="360,181 360,1 0,1 0,181 		"/>
	</defs>
	<clipPath id="SVGID_34_">
		<use xlink:href="#SVGID_33_"  style="overflow:visible;"/>
	</clipPath>
	<path class="st20" d="M72.9,91.9c0,0.4,0.1,0.8,0.3,1c0.2,0.2,0.5,0.3,0.8,0.3c0.4,0,0.6-0.1,0.8-0.3c0.2-0.2,0.3-0.6,0.3-1
		c0-0.4-0.1-0.8-0.3-1c-0.2-0.2-0.5-0.3-0.8-0.3c-0.4,0-0.6,0.1-0.8,0.3C73,91.1,72.9,91.4,72.9,91.9 M75.5,91.9
		c0,0.5-0.1,0.9-0.4,1.2c-0.3,0.3-0.6,0.4-1.1,0.4c-0.5,0-0.9-0.1-1.1-0.4s-0.4-0.7-0.4-1.2c0-0.5,0.1-0.9,0.4-1.2
		c0.3-0.3,0.6-0.4,1.1-0.4c0.5,0,0.8,0.2,1.1,0.4C75.4,90.9,75.5,91.4,75.5,91.9"/>
</g>
<rect x="20.5" y="82.8" class="st8" width="22.9" height="2.6"/>
<g>
	<defs>
		<polyline id="SVGID_35_" points="360,181 360,1 0,1 0,181 		"/>
	</defs>
	<clipPath id="SVGID_36_">
		<use xlink:href="#SVGID_35_"  style="overflow:visible;"/>
	</clipPath>
</g>
<g>
	<defs>
		<polyline id="SVGID_37_" points="360,181 360,1 0,1 0,181 		"/>
	</defs>
	<clipPath id="SVGID_38_">
		<use xlink:href="#SVGID_37_"  style="overflow:visible;"/>
	</clipPath>
</g>
<g>
	<defs>
		<polyline id="SVGID_39_" points="360,181 360,1 0,1 0,181 		"/>
	</defs>
	<clipPath id="SVGID_40_">
		<use xlink:href="#SVGID_39_"  style="overflow:visible;"/>
	</clipPath>
</g>
<g>
	<defs>
		<polyline id="SVGID_41_" points="360,181 360,1 0,1 0,181 		"/>
	</defs>
	<clipPath id="SVGID_42_">
		<use xlink:href="#SVGID_41_"  style="overflow:visible;"/>
	</clipPath>
</g>
<g>
	<defs>
		<polyline id="SVGID_43_" points="360,181 360,1 0,1 0,181 		"/>
	</defs>
	<clipPath id="SVGID_44_">
		<use xlink:href="#SVGID_43_"  style="overflow:visible;"/>
	</clipPath>
</g>
<g>
	<defs>
		<polyline id="SVGID_45_" points="360,181 360,1 0,1 0,181 		"/>
	</defs>
	<clipPath id="SVGID_46_">
		<use xlink:href="#SVGID_45_"  style="overflow:visible;"/>
	</clipPath>
</g>
<g>
	<defs>
		<polyline id="SVGID_47_" points="360,181 360,1 0,1 0,181 		"/>
	</defs>
	<clipPath id="SVGID_48_">
		<use xlink:href="#SVGID_47_"  style="overflow:visible;"/>
	</clipPath>
</g>
<g>
	<defs>
		<polyline id="SVGID_49_" points="360,181 360,1 0,1 0,181 		"/>
	</defs>
	<clipPath id="SVGID_50_">
		<use xlink:href="#SVGID_49_"  style="overflow:visible;"/>
	</clipPath>
</g>
<g>
	<defs>
		<polyline id="SVGID_51_" points="360,181 360,1 0,1 0,181 		"/>
	</defs>
	<clipPath id="SVGID_52_">
		<use xlink:href="#SVGID_51_"  style="overflow:visible;"/>
	</clipPath>
</g>
<g>
	<defs>
		<polyline id="SVGID_53_" points="360,181 360,1 0,1 0,181 		"/>
	</defs>
	<clipPath id="SVGID_54_">
		<use xlink:href="#SVGID_53_"  style="overflow:visible;"/>
	</clipPath>
</g>
<g>
	<defs>
		<polyline id="SVGID_55_" points="360,181 360,1 0,1 0,181 		"/>
	</defs>
	<clipPath id="SVGID_56_">
		<use xlink:href="#SVGID_55_"  style="overflow:visible;"/>
	</clipPath>
</g>
<g>
	<defs>
		<polyline id="SVGID_57_" points="360,181 360,1 0,1 0,181 		"/>
	</defs>
	<clipPath id="SVGID_58_">
		<use xlink:href="#SVGID_57_"  style="overflow:visible;"/>
	</clipPath>
</g>
<g>
	<defs>
		<polyline id="SVGID_59_" points="360,181 360,1 0,1 0,181 		"/>
	</defs>
	<clipPath id="SVGID_60_">
		<use xlink:href="#SVGID_59_"  style="overflow:visible;"/>
	</clipPath>
</g>
<g>
	<defs>
		<polyline id="SVGID_61_" points="360,181 360,1 0,1 0,181 		"/>
	</defs>
	<clipPath id="SVGID_62_">
		<use xlink:href="#SVGID_61_"  style="overflow:visible;"/>
	</clipPath>
</g>
<rect x="86.4" y="158.3" class="st9" width="166.1" height="0.2"/>
<g>
	<path class="st21" d="M111.4,166l-0.4-1.1h-1.4L109,166h-0.4l1.4-3.6h0.3l1.4,3.6H111.4z M110.8,164.5l-0.4-1.1
		c-0.1-0.1-0.1-0.3-0.2-0.5c0,0.2-0.1,0.3-0.2,0.5l-0.4,1.1H110.8z"/>
	<path class="st21" d="M115.1,166h-0.5l-2-3h0c0,0.4,0,0.7,0,1v2h-0.4v-3.6h0.5l1.9,3h0c0,0,0-0.2,0-0.4c0-0.2,0-0.4,0-0.5v-2h0.4
		V166z"/>
	<path class="st21" d="M118.1,165.1c0,0.3-0.1,0.6-0.3,0.7s-0.5,0.3-0.9,0.3c-0.4,0-0.7-0.1-1-0.2v-0.4c0.1,0.1,0.3,0.1,0.5,0.1
		c0.2,0,0.3,0.1,0.5,0.1c0.3,0,0.5-0.1,0.6-0.2c0.1-0.1,0.2-0.3,0.2-0.4c0-0.1,0-0.2-0.1-0.3c0-0.1-0.1-0.2-0.2-0.2
		c-0.1-0.1-0.3-0.1-0.5-0.2c-0.3-0.1-0.6-0.3-0.7-0.4c-0.1-0.2-0.2-0.4-0.2-0.6c0-0.3,0.1-0.5,0.3-0.7c0.2-0.2,0.5-0.2,0.8-0.2
		c0.4,0,0.7,0.1,1,0.2l-0.1,0.4c-0.3-0.1-0.6-0.2-0.9-0.2c-0.2,0-0.4,0-0.5,0.1c-0.1,0.1-0.2,0.2-0.2,0.4c0,0.1,0,0.2,0.1,0.3
		c0,0.1,0.1,0.2,0.2,0.2c0.1,0.1,0.3,0.1,0.5,0.2c0.4,0.1,0.6,0.3,0.8,0.4C118,164.7,118.1,164.9,118.1,165.1z"/>
	<path class="st21" d="M121.9,166h-0.4l-0.7-2.4c0-0.1-0.1-0.2-0.1-0.4s-0.1-0.3-0.1-0.3c0,0.2-0.1,0.5-0.2,0.7l-0.7,2.4h-0.4
		l-0.9-3.6h0.4l0.6,2.2c0.1,0.3,0.1,0.6,0.2,0.8c0-0.3,0.1-0.6,0.2-0.9l0.6-2.2h0.4l0.7,2.2c0.1,0.3,0.1,0.5,0.2,0.9
		c0-0.2,0.1-0.5,0.2-0.8l0.6-2.2h0.4L121.9,166z"/>
	<path class="st21" d="M125.4,166h-2v-3.6h2v0.4h-1.6v1.1h1.5v0.4h-1.5v1.3h1.6V166z"/>
	<path class="st21" d="M126.6,164.6v1.5h-0.4v-3.6h1c0.4,0,0.8,0.1,1,0.3c0.2,0.2,0.3,0.4,0.3,0.8c0,0.5-0.2,0.8-0.7,1l1,1.6h-0.5
		l-0.9-1.5H126.6z M126.6,164.2h0.6c0.3,0,0.5-0.1,0.6-0.2c0.1-0.1,0.2-0.3,0.2-0.5c0-0.2-0.1-0.4-0.2-0.5c-0.1-0.1-0.4-0.2-0.7-0.2
		h-0.5V164.2z"/>
	<path class="st21" d="M131.3,166h-2v-3.6h2v0.4h-1.6v1.1h1.5v0.4h-1.5v1.3h1.6V166z"/>
	<path class="st21" d="M134.9,164.2c0,0.6-0.2,1-0.5,1.4c-0.3,0.3-0.8,0.5-1.4,0.5h-1v-3.6h1.1c0.6,0,1,0.2,1.3,0.5
		S134.9,163.7,134.9,164.2z M134.5,164.2c0-0.5-0.1-0.8-0.4-1.1c-0.2-0.2-0.6-0.4-1-0.4h-0.6v2.9h0.5c0.5,0,0.9-0.1,1.1-0.4
		S134.5,164.7,134.5,164.2z"/>
</g>
<g>
	<path class="st21" d="M158.9,162.5v2.3c0,0.4-0.1,0.7-0.4,1c-0.2,0.2-0.6,0.3-1,0.3s-0.8-0.1-1-0.4c-0.2-0.2-0.4-0.6-0.4-1v-2.3
		h0.4v2.3c0,0.3,0.1,0.5,0.2,0.7c0.2,0.2,0.4,0.2,0.7,0.2c0.3,0,0.5-0.1,0.7-0.2c0.2-0.2,0.2-0.4,0.2-0.7v-2.3H158.9z"/>
	<path class="st21" d="M162.6,166h-0.5l-2-3h0c0,0.4,0,0.7,0,1v2h-0.4v-3.6h0.5l1.9,3h0c0,0,0-0.2,0-0.4c0-0.2,0-0.4,0-0.5v-2h0.4
		V166z"/>
	<path class="st21" d="M165.6,165.1c0,0.3-0.1,0.6-0.3,0.7s-0.5,0.3-0.9,0.3c-0.4,0-0.7-0.1-1-0.2v-0.4c0.1,0.1,0.3,0.1,0.5,0.1
		c0.2,0,0.3,0.1,0.5,0.1c0.3,0,0.5-0.1,0.6-0.2c0.1-0.1,0.2-0.3,0.2-0.4c0-0.1,0-0.2-0.1-0.3c0-0.1-0.1-0.2-0.2-0.2
		c-0.1-0.1-0.3-0.1-0.5-0.2c-0.3-0.1-0.6-0.3-0.7-0.4c-0.1-0.2-0.2-0.4-0.2-0.6c0-0.3,0.1-0.5,0.3-0.7c0.2-0.2,0.5-0.2,0.8-0.2
		c0.4,0,0.7,0.1,1,0.2l-0.1,0.4c-0.3-0.1-0.6-0.2-0.9-0.2c-0.2,0-0.4,0-0.5,0.1c-0.1,0.1-0.2,0.2-0.2,0.4c0,0.1,0,0.2,0.1,0.3
		c0,0.1,0.1,0.2,0.2,0.2c0.1,0.1,0.3,0.1,0.5,0.2c0.4,0.1,0.6,0.3,0.8,0.4C165.5,164.7,165.6,164.9,165.6,165.1z"/>
	<path class="st21" d="M168.6,166l-0.4-1.1h-1.4l-0.4,1.1h-0.4l1.4-3.6h0.3l1.4,3.6H168.6z M168,164.5l-0.4-1.1
		c-0.1-0.1-0.1-0.3-0.2-0.5c0,0.2-0.1,0.3-0.2,0.5l-0.4,1.1H168z"/>
	<path class="st21" d="M170.6,166h-0.4v-3.2h-1.1v-0.4h2.7v0.4h-1.1V166z"/>
	<path class="st21" d="M172.3,166v-3.6h0.4v3.6H172.3z"/>
	<path class="st21" d="M175.7,165.1c0,0.3-0.1,0.6-0.3,0.7s-0.5,0.3-0.9,0.3c-0.4,0-0.7-0.1-1-0.2v-0.4c0.1,0.1,0.3,0.1,0.5,0.1
		c0.2,0,0.3,0.1,0.5,0.1c0.3,0,0.5-0.1,0.6-0.2c0.1-0.1,0.2-0.3,0.2-0.4c0-0.1,0-0.2-0.1-0.3c0-0.1-0.1-0.2-0.2-0.2
		c-0.1-0.1-0.3-0.1-0.5-0.2c-0.3-0.1-0.6-0.3-0.7-0.4c-0.1-0.2-0.2-0.4-0.2-0.6c0-0.3,0.1-0.5,0.3-0.7c0.2-0.2,0.5-0.2,0.8-0.2
		c0.4,0,0.7,0.1,1,0.2l-0.1,0.4c-0.3-0.1-0.6-0.2-0.9-0.2c-0.2,0-0.4,0-0.5,0.1c-0.1,0.1-0.2,0.2-0.2,0.4c0,0.1,0,0.2,0.1,0.3
		c0,0.1,0.1,0.2,0.2,0.2c0.1,0.1,0.3,0.1,0.5,0.2c0.4,0.1,0.6,0.3,0.8,0.4C175.6,164.7,175.7,164.9,175.7,165.1z"/>
	<path class="st21" d="M176.8,166h-0.4v-3.6h2v0.4h-1.6v1.3h1.5v0.4h-1.5V166z"/>
	<path class="st21" d="M181.2,166l-0.4-1.1h-1.4l-0.4,1.1h-0.4l1.4-3.6h0.3l1.4,3.6H181.2z M180.7,164.5l-0.4-1.1
		c-0.1-0.1-0.1-0.3-0.2-0.5c0,0.2-0.1,0.3-0.2,0.5l-0.4,1.1H180.7z"/>
	<path class="st21" d="M183.7,162.8c-0.4,0-0.7,0.1-0.9,0.4c-0.2,0.3-0.3,0.6-0.3,1.1c0,0.5,0.1,0.8,0.3,1.1
		c0.2,0.3,0.5,0.4,0.9,0.4c0.2,0,0.5,0,0.9-0.1v0.4c-0.2,0.1-0.6,0.1-0.9,0.1c-0.5,0-0.9-0.2-1.2-0.5c-0.3-0.3-0.4-0.8-0.4-1.4
		c0-0.4,0.1-0.7,0.2-1c0.1-0.3,0.3-0.5,0.6-0.6c0.3-0.2,0.6-0.2,0.9-0.2c0.4,0,0.7,0.1,1,0.2l-0.2,0.4
		C184.2,162.9,184,162.8,183.7,162.8z"/>
	<path class="st21" d="M186.4,166H186v-3.2h-1.1v-0.4h2.7v0.4h-1.1V166z"/>
	<path class="st21" d="M191.2,164.3c0,0.6-0.1,1-0.4,1.3s-0.7,0.5-1.2,0.5c-0.5,0-0.9-0.2-1.2-0.5c-0.3-0.3-0.4-0.8-0.4-1.4
		c0-0.6,0.1-1,0.4-1.4c0.3-0.3,0.7-0.5,1.2-0.5c0.5,0,0.9,0.2,1.2,0.5C191,163.2,191.2,163.7,191.2,164.3z M188.3,164.3
		c0,0.5,0.1,0.8,0.3,1.1c0.2,0.2,0.5,0.4,0.9,0.4c0.4,0,0.7-0.1,0.9-0.4c0.2-0.2,0.3-0.6,0.3-1.1c0-0.5-0.1-0.8-0.3-1.1
		s-0.5-0.4-0.9-0.4c-0.4,0-0.7,0.1-0.9,0.4C188.4,163.4,188.3,163.8,188.3,164.3z"/>
	<path class="st21" d="M192.4,164.6v1.5H192v-3.6h1c0.4,0,0.8,0.1,1,0.3c0.2,0.2,0.3,0.4,0.3,0.8c0,0.5-0.2,0.8-0.7,1l1,1.6H194
		l-0.9-1.5H192.4z M192.4,164.2h0.6c0.3,0,0.5-0.1,0.6-0.2c0.1-0.1,0.2-0.3,0.2-0.5c0-0.2-0.1-0.4-0.2-0.5c-0.1-0.1-0.4-0.2-0.7-0.2
		h-0.5V164.2z"/>
	<path class="st21" d="M196,164.3l1-1.8h0.4l-1.2,2.2v1.4h-0.4v-1.4l-1.2-2.2h0.5L196,164.3z"/>
	<path class="st21" d="M169.2,172l-0.4-1.1h-1.4l-0.4,1.1h-0.4l1.4-3.6h0.3l1.4,3.6H169.2z M168.6,170.5l-0.4-1.1
		c-0.1-0.1-0.1-0.3-0.2-0.5c0,0.2-0.1,0.3-0.2,0.5l-0.4,1.1H168.6z"/>
	<path class="st21" d="M172.9,172h-0.5l-2-3h0c0,0.4,0,0.7,0,1v2h-0.4v-3.6h0.5l1.9,3h0c0,0,0-0.2,0-0.4c0-0.2,0-0.4,0-0.5v-2h0.4
		V172z"/>
	<path class="st21" d="M175.9,171.1c0,0.3-0.1,0.6-0.3,0.7s-0.5,0.3-0.9,0.3c-0.4,0-0.7-0.1-1-0.2v-0.4c0.1,0.1,0.3,0.1,0.5,0.1
		c0.2,0,0.3,0.1,0.5,0.1c0.3,0,0.5-0.1,0.6-0.2c0.1-0.1,0.2-0.3,0.2-0.4c0-0.1,0-0.2-0.1-0.3c0-0.1-0.1-0.2-0.2-0.2
		c-0.1-0.1-0.3-0.1-0.5-0.2c-0.3-0.1-0.6-0.3-0.7-0.4c-0.1-0.2-0.2-0.4-0.2-0.6c0-0.3,0.1-0.5,0.3-0.7c0.2-0.2,0.5-0.2,0.8-0.2
		c0.4,0,0.7,0.1,1,0.2l-0.1,0.4c-0.3-0.1-0.6-0.2-0.9-0.2c-0.2,0-0.4,0-0.5,0.1c-0.1,0.1-0.2,0.2-0.2,0.4c0,0.1,0,0.2,0.1,0.3
		c0,0.1,0.1,0.2,0.2,0.2c0.1,0.1,0.3,0.1,0.5,0.2c0.4,0.1,0.6,0.3,0.8,0.4C175.8,170.7,175.9,170.9,175.9,171.1z"/>
	<path class="st21" d="M179.7,172h-0.4l-0.7-2.4c0-0.1-0.1-0.2-0.1-0.4s-0.1-0.3-0.1-0.3c0,0.2-0.1,0.5-0.2,0.7l-0.7,2.4h-0.4
		l-0.9-3.6h0.4l0.6,2.2c0.1,0.3,0.1,0.6,0.2,0.8c0-0.3,0.1-0.6,0.2-0.9l0.6-2.2h0.4l0.7,2.2c0.1,0.3,0.1,0.5,0.2,0.9
		c0-0.2,0.1-0.5,0.2-0.8l0.6-2.2h0.4L179.7,172z"/>
	<path class="st21" d="M183.2,172h-2v-3.6h2v0.4h-1.6v1.1h1.5v0.4h-1.5v1.3h1.6V172z"/>
	<path class="st21" d="M184.4,170.6v1.5H184v-3.6h1c0.4,0,0.8,0.1,1,0.3c0.2,0.2,0.3,0.4,0.3,0.8c0,0.5-0.2,0.8-0.7,1l1,1.6H186
		l-0.9-1.5H184.4z M184.4,170.2h0.6c0.3,0,0.5-0.1,0.6-0.2c0.1-0.1,0.2-0.3,0.2-0.5c0-0.2-0.1-0.4-0.2-0.5c-0.1-0.1-0.4-0.2-0.7-0.2
		h-0.5V170.2z"/>
</g>
<g>
	<path class="st21" d="M212.8,164.6v1.5h-0.4v-3.6h1c0.4,0,0.8,0.1,1,0.3c0.2,0.2,0.3,0.4,0.3,0.8c0,0.5-0.2,0.8-0.7,1l1,1.6h-0.5
		l-0.9-1.5H212.8z M212.8,164.2h0.6c0.3,0,0.5-0.1,0.6-0.2c0.1-0.1,0.2-0.3,0.2-0.5c0-0.2-0.1-0.4-0.2-0.5c-0.1-0.1-0.4-0.2-0.7-0.2
		h-0.5V164.2z"/>
	<path class="st21" d="M217.5,166h-2v-3.6h2v0.4h-1.6v1.1h1.5v0.4h-1.5v1.3h1.6V166z"/>
	<path class="st21" d="M218.7,166h-0.4v-3.6h2v0.4h-1.6v1.3h1.5v0.4h-1.5V166z"/>
	<path class="st21" d="M222.8,166h-2v-3.6h2v0.4h-1.6v1.1h1.5v0.4h-1.5v1.3h1.6V166z"/>
	<path class="st21" d="M224,164.6v1.5h-0.4v-3.6h1c0.4,0,0.8,0.1,1,0.3c0.2,0.2,0.3,0.4,0.3,0.8c0,0.5-0.2,0.8-0.7,1l1,1.6h-0.5
		l-0.9-1.5H224z M224,164.2h0.6c0.3,0,0.5-0.1,0.6-0.2c0.1-0.1,0.2-0.3,0.2-0.5c0-0.2-0.1-0.4-0.2-0.5c-0.1-0.1-0.4-0.2-0.7-0.2H224
		V164.2z"/>
	<path class="st21" d="M227.1,164.6v1.5h-0.4v-3.6h1c0.4,0,0.8,0.1,1,0.3c0.2,0.2,0.3,0.4,0.3,0.8c0,0.5-0.2,0.8-0.7,1l1,1.6h-0.5
		l-0.9-1.5H227.1z M227.1,164.2h0.6c0.3,0,0.5-0.1,0.6-0.2c0.1-0.1,0.2-0.3,0.2-0.5c0-0.2-0.1-0.4-0.2-0.5c-0.1-0.1-0.4-0.2-0.7-0.2
		h-0.5V164.2z"/>
	<path class="st21" d="M232.1,166l-0.4-1.1h-1.4l-0.4,1.1h-0.4l1.4-3.6h0.3l1.4,3.6H232.1z M231.5,164.5l-0.4-1.1
		c-0.1-0.1-0.1-0.3-0.2-0.5c0,0.2-0.1,0.3-0.2,0.5l-0.4,1.1H231.5z"/>
	<path class="st21" d="M233,166v-3.6h0.4v3.2h1.6v0.4H233z"/>
	<path class="st21" d="M238,166h-0.4v-3.2h-1.1v-0.4h2.7v0.4H238V166z"/>
	<path class="st21" d="M242.7,164.3c0,0.6-0.1,1-0.4,1.3c-0.3,0.3-0.7,0.5-1.2,0.5c-0.5,0-0.9-0.2-1.2-0.5c-0.3-0.3-0.4-0.8-0.4-1.4
		c0-0.6,0.1-1,0.4-1.4c0.3-0.3,0.7-0.5,1.2-0.5c0.5,0,0.9,0.2,1.2,0.5C242.6,163.2,242.7,163.7,242.7,164.3z M239.9,164.3
		c0,0.5,0.1,0.8,0.3,1.1s0.5,0.4,0.9,0.4c0.4,0,0.7-0.1,0.9-0.4c0.2-0.2,0.3-0.6,0.3-1.1c0-0.5-0.1-0.8-0.3-1.1
		c-0.2-0.2-0.5-0.4-0.9-0.4c-0.4,0-0.7,0.1-0.9,0.4C240,163.4,239.9,163.8,239.9,164.3z"/>
	<path class="st21" d="M208.3,172l-0.4-1.1h-1.4L206,172h-0.4l1.4-3.6h0.3l1.4,3.6H208.3z M207.8,170.5l-0.4-1.1
		c-0.1-0.1-0.1-0.3-0.2-0.5c0,0.2-0.1,0.3-0.2,0.5l-0.4,1.1H207.8z"/>
	<path class="st21" d="M212,172h-0.5l-2-3h0c0,0.4,0,0.7,0,1v2h-0.4v-3.6h0.5l1.9,3h0c0,0,0-0.2,0-0.4c0-0.2,0-0.4,0-0.5v-2h0.4V172
		z"/>
	<path class="st21" d="M216.1,170.3c0,0.6-0.1,1-0.4,1.3s-0.7,0.5-1.2,0.5c-0.5,0-0.9-0.2-1.2-0.5c-0.3-0.3-0.4-0.8-0.4-1.4
		c0-0.6,0.1-1,0.4-1.4c0.3-0.3,0.7-0.5,1.2-0.5c0.5,0,0.9,0.2,1.2,0.5C216,169.2,216.1,169.7,216.1,170.3z M213.3,170.3
		c0,0.5,0.1,0.8,0.3,1.1c0.2,0.2,0.5,0.4,0.9,0.4c0.4,0,0.7-0.1,0.9-0.4c0.2-0.2,0.3-0.6,0.3-1.1c0-0.5-0.1-0.8-0.3-1.1
		s-0.5-0.4-0.9-0.4c-0.4,0-0.7,0.1-0.9,0.4C213.4,169.4,213.3,169.8,213.3,170.3z"/>
	<path class="st21" d="M218,172h-0.4v-3.2h-1.1v-0.4h2.7v0.4H218V172z"/>
	<path class="st21" d="M222.4,172H222v-1.7h-1.9v1.7h-0.4v-3.6h0.4v1.5h1.9v-1.5h0.4V172z"/>
	<path class="st21" d="M225.4,172h-2v-3.6h2v0.4h-1.6v1.1h1.5v0.4h-1.5v1.3h1.6V172z"/>
	<path class="st21" d="M226.6,170.6v1.5h-0.4v-3.6h1c0.4,0,0.8,0.1,1,0.3c0.2,0.2,0.3,0.4,0.3,0.8c0,0.5-0.2,0.8-0.7,1l1,1.6h-0.5
		l-0.9-1.5H226.6z M226.6,170.2h0.6c0.3,0,0.5-0.1,0.6-0.2c0.1-0.1,0.2-0.3,0.2-0.5c0-0.2-0.1-0.4-0.2-0.5c-0.1-0.1-0.4-0.2-0.7-0.2
		h-0.5V170.2z"/>
	<path class="st21" d="M232.8,172l-0.4-1.1h-1.4l-0.4,1.1H230l1.4-3.6h0.3l1.4,3.6H232.8z M232.2,170.5l-0.4-1.1
		c-0.1-0.1-0.1-0.3-0.2-0.5c0,0.2-0.1,0.3-0.2,0.5l-0.4,1.1H232.2z"/>
	<path class="st21" d="M235.3,170.2h1.2v1.7c-0.2,0.1-0.4,0.1-0.6,0.1c-0.2,0-0.4,0-0.7,0c-0.5,0-1-0.2-1.3-0.5
		c-0.3-0.3-0.5-0.8-0.5-1.4c0-0.4,0.1-0.7,0.2-1c0.1-0.3,0.4-0.5,0.6-0.6c0.3-0.1,0.6-0.2,1-0.2c0.4,0,0.7,0.1,1.1,0.2l-0.2,0.4
		c-0.3-0.1-0.6-0.2-0.9-0.2c-0.4,0-0.8,0.1-1,0.4s-0.4,0.6-0.4,1.1c0,0.5,0.1,0.8,0.4,1.1c0.2,0.2,0.6,0.4,1,0.4
		c0.2,0,0.5,0,0.7-0.1v-1.1h-0.8V170.2z"/>
	<path class="st21" d="M239.3,172h-2v-3.6h2v0.4h-1.6v1.1h1.5v0.4h-1.5v1.3h1.6V172z"/>
	<path class="st21" d="M242.9,172h-0.5l-2-3h0c0,0.4,0,0.7,0,1v2h-0.4v-3.6h0.5l1.9,3h0c0,0,0-0.2,0-0.4c0-0.2,0-0.4,0-0.5v-2h0.4
		V172z"/>
	<path class="st21" d="M245.4,168.8c-0.4,0-0.7,0.1-0.9,0.4c-0.2,0.3-0.3,0.6-0.3,1.1c0,0.5,0.1,0.8,0.3,1.1
		c0.2,0.3,0.5,0.4,0.9,0.4c0.2,0,0.5,0,0.9-0.1v0.4c-0.2,0.1-0.6,0.1-0.9,0.1c-0.5,0-0.9-0.2-1.2-0.5c-0.3-0.3-0.4-0.8-0.4-1.4
		c0-0.4,0.1-0.7,0.2-1c0.1-0.3,0.3-0.5,0.6-0.6c0.3-0.2,0.6-0.2,0.9-0.2c0.4,0,0.7,0.1,1,0.2l-0.2,0.4
		C246,168.9,245.7,168.8,245.4,168.8z"/>
	<path class="st21" d="M248,170.3l1-1.8h0.4l-1.2,2.2v1.4h-0.4v-1.4l-1.2-2.2h0.5L248,170.3z"/>
</g>
<rect x="24.4" y="66.9" class="st0" width="54.8" height="8.6"/>
<rect x="24.4" y="87.6" class="st0" width="54.8" height="8.6"/>
<g>
	<path class="st21" d="M29.9,71.1c0,0.6-0.1,1-0.4,1.3c-0.3,0.3-0.7,0.5-1.2,0.5c-0.5,0-0.9-0.2-1.2-0.5c-0.3-0.3-0.4-0.8-0.4-1.4
		c0-0.6,0.1-1,0.4-1.4c0.3-0.3,0.7-0.5,1.2-0.5c0.5,0,0.9,0.2,1.2,0.5S29.9,70.5,29.9,71.1z M27.1,71.1c0,0.5,0.1,0.9,0.3,1.1
		c0.2,0.2,0.5,0.4,0.9,0.4c0.4,0,0.7-0.1,0.9-0.4s0.3-0.6,0.3-1.1c0-0.5-0.1-0.8-0.3-1.1c-0.2-0.2-0.5-0.4-0.9-0.4
		c-0.4,0-0.7,0.1-0.9,0.4C27.2,70.2,27.1,70.6,27.1,71.1z"/>
	<path class="st21" d="M32.7,69.3h0.4l-1.3,3.6h-0.4l-1.3-3.6h0.4l0.8,2.3c0.1,0.3,0.2,0.5,0.2,0.8c0.1-0.3,0.1-0.5,0.2-0.8
		L32.7,69.3z"/>
	<path class="st21" d="M35.7,72.9h-2v-3.6h2v0.4h-1.6v1.1h1.5v0.4h-1.5v1.3h1.6V72.9z"/>
	<path class="st21" d="M36.9,71.4v1.5h-0.4v-3.6h1c0.4,0,0.8,0.1,1,0.3c0.2,0.2,0.3,0.4,0.3,0.8c0,0.5-0.2,0.8-0.7,1l1,1.6h-0.5
		l-0.9-1.5H36.9z M36.9,71h0.6c0.3,0,0.5-0.1,0.6-0.2c0.1-0.1,0.2-0.3,0.2-0.5c0-0.2-0.1-0.4-0.2-0.5c-0.1-0.1-0.4-0.2-0.7-0.2h-0.5
		V71z"/>
	<path class="st21" d="M42.4,71c0,0.6-0.2,1-0.5,1.4c-0.3,0.3-0.8,0.5-1.4,0.5h-1v-3.6h1.1c0.6,0,1,0.2,1.3,0.5S42.4,70.5,42.4,71z
		 M42,71.1c0-0.5-0.1-0.8-0.4-1.1c-0.2-0.2-0.6-0.4-1-0.4H40v2.9h0.5c0.5,0,0.9-0.1,1.1-0.4C41.8,71.9,42,71.5,42,71.1z"/>
	<path class="st21" d="M45.9,69.3v2.3c0,0.4-0.1,0.7-0.4,1s-0.6,0.3-1,0.3s-0.8-0.1-1-0.4c-0.2-0.2-0.4-0.6-0.4-1v-2.3h0.4v2.3
		c0,0.3,0.1,0.5,0.2,0.7s0.4,0.2,0.7,0.2c0.3,0,0.5-0.1,0.7-0.2c0.2-0.2,0.2-0.4,0.2-0.7v-2.3H45.9z"/>
	<path class="st21" d="M48.8,72.9h-2v-3.6h2v0.4h-1.6v1.1h1.5v0.4h-1.5v1.3h1.6V72.9z"/>
</g>
<g>
	<path class="st21" d="M29.9,91.7c0,0.6-0.1,1-0.4,1.3c-0.3,0.3-0.7,0.5-1.2,0.5c-0.5,0-0.9-0.2-1.2-0.5c-0.3-0.3-0.4-0.8-0.4-1.4
		c0-0.6,0.1-1,0.4-1.4c0.3-0.3,0.7-0.5,1.2-0.5c0.5,0,0.9,0.2,1.2,0.5S29.9,91.2,29.9,91.7z M27.1,91.7c0,0.5,0.1,0.9,0.3,1.1
		c0.2,0.2,0.5,0.4,0.9,0.4c0.4,0,0.7-0.1,0.9-0.4s0.3-0.6,0.3-1.1c0-0.5-0.1-0.8-0.3-1.1c-0.2-0.2-0.5-0.4-0.9-0.4
		c-0.4,0-0.7,0.1-0.9,0.4C27.2,90.9,27.1,91.3,27.1,91.7z"/>
	<path class="st21" d="M33.5,93.5H33l-2-3h0c0,0.4,0,0.7,0,1v2h-0.4V90h0.5l1.9,3h0c0,0,0-0.2,0-0.4s0-0.4,0-0.5v-2h0.4V93.5z"/>
	<path class="st21" d="M34.2,92.4V92h1.2v0.4H34.2z"/>
	<path class="st21" d="M37.2,93.5h-0.4v-3.2h-1.1V90h2.7v0.4h-1.1V93.5z"/>
	<path class="st21" d="M38.8,93.5V90h0.4v3.6H38.8z"/>
	<path class="st21" d="M41.8,93.5l-1.2-3.2h0c0,0.3,0,0.5,0,0.9v2.3h-0.4V90h0.6l1.1,2.9h0l1.1-2.9h0.6v3.6h-0.4v-2.3
		c0-0.3,0-0.6,0-0.9h0l-1.2,3.2H41.8z"/>
	<path class="st21" d="M46.7,93.5h-2V90h2v0.4h-1.6v1.1h1.5v0.4h-1.5v1.3h1.6V93.5z"/>
	<path class="st21" d="M51.1,93.5l-0.4-1.1h-1.4l-0.4,1.1h-0.4l1.4-3.6h0.3l1.4,3.6H51.1z M50.5,92l-0.4-1.1
		c-0.1-0.1-0.1-0.3-0.2-0.5c0,0.2-0.1,0.3-0.2,0.5L49.3,92H50.5z"/>
	<path class="st21" d="M54.8,93.5h-0.5l-2-3h0c0,0.4,0,0.7,0,1v2H52V90h0.5l1.9,3h0c0,0,0-0.2,0-0.4s0-0.4,0-0.5v-2h0.4V93.5z"/>
	<path class="st21" d="M57.8,92.6c0,0.3-0.1,0.6-0.3,0.7s-0.5,0.3-0.9,0.3c-0.4,0-0.7-0.1-1-0.2V93c0.1,0.1,0.3,0.1,0.5,0.1
		c0.2,0,0.3,0.1,0.5,0.1c0.3,0,0.5-0.1,0.6-0.2c0.1-0.1,0.2-0.3,0.2-0.4c0-0.1,0-0.2-0.1-0.3c0-0.1-0.1-0.2-0.2-0.2
		c-0.1-0.1-0.3-0.1-0.5-0.2c-0.3-0.1-0.6-0.3-0.7-0.4c-0.1-0.2-0.2-0.4-0.2-0.6c0-0.3,0.1-0.5,0.3-0.7s0.5-0.2,0.8-0.2
		c0.4,0,0.7,0.1,1,0.2l-0.1,0.4c-0.3-0.1-0.6-0.2-0.9-0.2c-0.2,0-0.4,0-0.5,0.1S56,90.6,56,90.8c0,0.1,0,0.2,0.1,0.3
		c0,0.1,0.1,0.2,0.2,0.2c0.1,0.1,0.3,0.1,0.5,0.2c0.4,0.1,0.6,0.3,0.8,0.4C57.7,92.1,57.8,92.3,57.8,92.6z"/>
	<path class="st21" d="M61.6,93.5h-0.4l-0.7-2.4c0-0.1-0.1-0.2-0.1-0.4s-0.1-0.3-0.1-0.3c0,0.2-0.1,0.5-0.2,0.7l-0.7,2.4H59L58.1,90
		h0.4l0.6,2.2c0.1,0.3,0.1,0.6,0.2,0.8c0-0.3,0.1-0.6,0.2-0.9l0.6-2.2h0.4l0.7,2.2c0.1,0.3,0.1,0.5,0.2,0.9c0-0.2,0.1-0.5,0.2-0.8
		l0.6-2.2h0.4L61.6,93.5z"/>
	<path class="st21" d="M65.1,93.5h-2V90h2v0.4h-1.6v1.1H65v0.4h-1.5v1.3h1.6V93.5z"/>
	<path class="st21" d="M66.3,92v1.5h-0.4V90h1c0.4,0,0.8,0.1,1,0.3c0.2,0.2,0.3,0.4,0.3,0.8c0,0.5-0.2,0.8-0.7,1l1,1.6h-0.5L67.1,92
		H66.3z M66.3,91.7h0.6c0.3,0,0.5-0.1,0.6-0.2c0.1-0.1,0.2-0.3,0.2-0.5c0-0.2-0.1-0.4-0.2-0.5c-0.1-0.1-0.4-0.2-0.7-0.2h-0.5V91.7z"
		/>
</g>
</svg>
