<?xml version="1.0" encoding="utf-8"?>
<!-- Generator: Adobe Illustrator 25.0.0, SVG Export Plug-In . SVG Version: 6.00 Build 0)  -->
<svg version="1.1" id="Layer_1" xmlns="http://www.w3.org/2000/svg" xmlns:xlink="http://www.w3.org/1999/xlink" x="0px" y="0px"
	 viewBox="0 0 1374.4 900" style="enable-background:new 0 0 1374.4 900;" xml:space="preserve">
<style type="text/css">
	.st0{fill:#030420;}
	.st1{fill:#7095F1;}
	.st2{fill:#B7A1FF;}
	.st3{fill:#87E0D4;}
	.st4{fill:#1EBF70;}
	.st5{fill:#755285;}
	.st6{fill:#87E089;}
	.st7{fill:#2E2F46;}
	.st8{fill:#C7F64A;}
	.st9{fill:#FFFFFF;}
	.st10{fill:#F2F2F2;}
	.st11{enable-background:new    ;}
	.st12{fill:none;stroke:#030420;stroke-miterlimit:10;}
</style>
<g id="Pedidos_exploratórios">
	<g id="p_706.9986308165106">
		<path class="st0" d="M597.8,653.5c-76.6,0-148.5-29.8-202.7-84c-54.2-54.2-84-126.1-84-202.7c0-76.6,29.8-148.6,84-202.7
			c54.1-54.1,126.1-84,202.7-84c76.6,0,148.6,29.8,202.7,84c54.2,54.1,84,126.1,84,202.7c0,76.6-29.8,148.6-84,202.7
			C746.3,623.7,674.3,653.5,597.8,653.5z M597.8,81.2c-157.5,0-285.7,128.2-285.7,285.7c0,157.5,128.2,285.7,285.7,285.7
			c157.5,0,285.7-128.2,285.7-285.7C883.4,209.3,755.3,81.2,597.8,81.2z"/>
	</g>
</g>
<g id="Respondido">
	<g id="p_557.9476016495668">
		<path class="st1" d="M461.5,520.2c-75.7,0-137-61.3-137-137s61.3-137,137-137l0,0c75.7,0,137,61.3,137,137
			C598.6,458.9,537.2,520.2,461.5,520.2L461.5,520.2z"/>
	</g>
</g>
<g id="Sem_resposta">
	<g id="p_710.1719904261832">
		<path class="st2" d="M740.7,515.8c-73.2,0-132.5-59.3-132.5-132.5s59.3-132.5,132.5-132.5c73.2,0,132.5,59.3,132.5,132.5
			C873.3,456.4,813.9,515.8,740.7,515.8C740.8,515.8,740.8,515.8,740.7,515.8z"/>
	</g>
</g>
<g id="Site_com_problema">
	<g id="p_705.4095388193854">
		<path class="st3" d="M604.8,643.2c-45.2,0-81.8-36.6-81.8-81.8s36.6-81.8,81.8-81.8c45.2,0,81.8,36.6,81.8,81.8
			C686.6,606.5,650,643.1,604.8,643.2C604.8,643.2,604.8,643.2,604.8,643.2z"/>
	</g>
</g>
<g id="Indicação_de_outro_órgão">
	<g id="p_510.993936970466">
		<path class="st4" d="M604.5,292.5c-35.2,0-63.7-28.5-63.7-63.7s28.5-63.7,63.7-63.7l0,0c35.2,0,63.7,28.5,63.7,63.7
			S639.7,292.5,604.5,292.5z"/>
	</g>
</g>
<g id="Resposta_insatisfatória">
	<g id="p_413.271730337416">
		<path class="st5" d="M483,237.7c-31.7,0-57.4-25.7-57.4-57.4s25.7-57.4,57.4-57.4l0,0l0,0c31.7,0,57.4,25.7,57.4,57.4
			S514.7,237.7,483,237.7z"/>
	</g>
</g>
<g id="Pedido_em_duplicidade">
	<g id="p_549.7749246847181">
		<path class="st6" d="M725.4,241.6c-30.1,0-54.4-24.4-54.4-54.4s24.4-54.4,54.4-54.4s54.4,24.4,54.4,54.4c0,0,0,0,0,0
			C779.8,217.2,755.5,241.6,725.4,241.6C725.4,241.6,725.4,241.6,725.4,241.6z"/>
	</g>
</g>
<g id="Sem_e-SIC">
	<g id="p_612.6856447562853">
		<path class="st7" d="M475.6,605c-20.9,0-37.7-17-37.7-37.8c0-20.9,17-37.7,37.8-37.7c20.8,0,37.7,16.9,37.7,37.8
			C513.4,588.1,496.5,605,475.6,605C475.6,605,475.6,605,475.6,605z"/>
	</g>
</g>
<g id="Indeferido">
	<g id="p_724.0371442255536">
		<path class="st8" d="M716,565.5c-11.6,0-21-9.4-21.1-20.9c0-11.6,9.4-21,20.9-21c11.6,0,21,9.4,21.1,20.9c0,0,0,0,0,0
			C737,556.1,727.6,565.5,716,565.5z"/>
	</g>
</g>
<g>
	<g>
		<path class="st0" d="M452.6,389.4h-3.7v-10l0-1.7l0.1-1.8c-0.6,0.6-1,1-1.3,1.2l-2,1.6l-1.8-2.2l5.6-4.5h3V389.4z"/>
		<path class="st0" d="M459.1,389.4l6.5-14.2h-8.6V372h12.5v2.3l-6.6,15H459.1z"/>
		<path class="st0" d="M480.4,389.4h-3.7v-10l0-1.7l0.1-1.8c-0.6,0.6-1,1-1.3,1.2l-2,1.6l-1.8-2.2l5.6-4.5h3V389.4z"/>
		<path class="st0" d="M442.5,391.8v-1.2h41.6v1.2H442.5z"/>
	</g>
</g>
<g>
	<g>
		<path class="st0" d="M731.8,389.4h-3.7v-10l0-1.7l0.1-1.8c-0.6,0.6-1,1-1.3,1.2l-2,1.6l-1.8-2.2l5.6-4.5h3V389.4z"/>
		<path class="st0" d="M736.5,382c0-3.4,0.7-6,2.2-7.7c1.5-1.7,3.6-2.5,6.5-2.5c1,0,1.8,0.1,2.3,0.2v2.9c-0.7-0.2-1.4-0.2-2.1-0.2
			c-1.3,0-2.3,0.2-3.1,0.6c-0.8,0.4-1.4,0.9-1.8,1.7c-0.4,0.7-0.6,1.8-0.7,3.2h0.2c0.8-1.3,2-2,3.8-2c1.6,0,2.8,0.5,3.6,1.5
			c0.9,1,1.3,2.3,1.3,4c0,1.9-0.5,3.3-1.6,4.4c-1,1.1-2.5,1.6-4.3,1.6c-1.3,0-2.4-0.3-3.4-0.9c-1-0.6-1.7-1.5-2.2-2.6
			C736.8,385,736.5,383.6,736.5,382z M742.8,386.7c0.8,0,1.4-0.3,1.8-0.8s0.6-1.3,0.6-2.2c0-0.8-0.2-1.5-0.6-2
			c-0.4-0.5-1-0.7-1.8-0.7c-0.7,0-1.4,0.2-1.9,0.7c-0.5,0.5-0.8,1-0.8,1.7c0,0.9,0.2,1.7,0.7,2.4C741.4,386.4,742,386.7,742.8,386.7
			z"/>
		<path class="st0" d="M762.6,380.7c0,3-0.5,5.3-1.5,6.7c-1,1.5-2.5,2.2-4.6,2.2c-2,0-3.5-0.8-4.5-2.3s-1.5-3.7-1.5-6.7
			c0-3.1,0.5-5.3,1.5-6.8c1-1.5,2.5-2.2,4.6-2.2c2,0,3.5,0.8,4.5,2.3C762.1,375.5,762.6,377.8,762.6,380.7z M754.1,380.7
			c0,2.1,0.2,3.7,0.6,4.6c0.4,0.9,1,1.4,1.9,1.4c0.9,0,1.5-0.5,1.9-1.4c0.4-0.9,0.6-2.5,0.6-4.6c0-2.1-0.2-3.7-0.6-4.6
			c-0.4-0.9-1-1.4-1.8-1.4c-0.9,0-1.5,0.5-1.9,1.4C754.3,377,754.1,378.6,754.1,380.7z"/>
		<path class="st0" d="M721.8,391.8v-1.2h41.6v1.2H721.8z"/>
	</g>
</g>
<g>
	<g>
		<path class="st0" d="M594,560.1c0-3.4,0.7-6,2.2-7.7c1.5-1.7,3.6-2.5,6.5-2.5c1,0,1.8,0.1,2.3,0.2v2.9c-0.7-0.2-1.4-0.2-2.1-0.2
			c-1.3,0-2.3,0.2-3.1,0.6s-1.4,0.9-1.8,1.7c-0.4,0.7-0.6,1.8-0.7,3.2h0.2c0.8-1.3,2-2,3.8-2c1.6,0,2.8,0.5,3.6,1.5
			c0.9,1,1.3,2.3,1.3,4c0,1.9-0.5,3.3-1.6,4.4c-1,1.1-2.5,1.6-4.3,1.6c-1.3,0-2.4-0.3-3.4-0.9c-1-0.6-1.7-1.5-2.2-2.6
			C594.2,563.1,594,561.7,594,560.1z M600.3,564.8c0.8,0,1.4-0.3,1.8-0.8c0.4-0.5,0.6-1.3,0.6-2.2c0-0.8-0.2-1.5-0.6-2
			c-0.4-0.5-1-0.7-1.8-0.7c-0.7,0-1.4,0.2-1.9,0.7c-0.5,0.5-0.8,1-0.8,1.7c0,0.9,0.2,1.7,0.7,2.4
			C598.9,564.5,599.5,564.8,600.3,564.8z"/>
		<path class="st0" d="M617.1,567.5h-3.7v-10l0-1.7l0.1-1.8c-0.6,0.6-1,1-1.3,1.2l-2,1.6l-1.8-2.2l5.6-4.5h3V567.5z"/>
		<path class="st0" d="M593.1,569.9v-1.2h27.8v1.2H593.1z"/>
	</g>
</g>
<g>
	<g>
		<path class="st0" d="M603,221.4c0,1.1-0.3,2-1,2.8c-0.7,0.8-1.6,1.3-2.8,1.6v0.1c1.4,0.2,2.5,0.6,3.2,1.3c0.7,0.7,1.1,1.6,1.1,2.7
			c0,1.7-0.6,3-1.8,3.9c-1.2,0.9-2.9,1.4-5.2,1.4c-1.9,0-3.6-0.3-5-0.9v-3.1c0.7,0.3,1.4,0.6,2.2,0.8s1.6,0.3,2.4,0.3
			c1.2,0,2.1-0.2,2.7-0.6c0.6-0.4,0.9-1.1,0.9-2c0-0.8-0.3-1.4-1-1.7c-0.7-0.3-1.7-0.5-3.2-0.5h-1.3v-2.8h1.3c1.3,0,2.3-0.2,3-0.5
			c0.6-0.4,0.9-1,0.9-1.8c0-1.3-0.8-2-2.5-2c-0.6,0-1.1,0.1-1.7,0.3c-0.6,0.2-1.2,0.5-2,1l-1.7-2.5c1.6-1.1,3.5-1.7,5.7-1.7
			c1.8,0,3.2,0.4,4.3,1.1C602.4,219.1,603,220.1,603,221.4z"/>
		<path class="st0" d="M607.1,234.9l6.5-14.2h-8.6v-3.1h12.5v2.3l-6.6,15H607.1z"/>
		<path class="st0" d="M590.5,237.4v-1.2h27.8v1.2H590.5z"/>
	</g>
</g>
<g>
	<g>
		<path class="st9" d="M481.5,172.9c0,1.1-0.3,2-1,2.8c-0.7,0.8-1.6,1.3-2.8,1.6v0.1c1.4,0.2,2.5,0.6,3.2,1.3
			c0.7,0.7,1.1,1.6,1.1,2.7c0,1.7-0.6,3-1.8,3.9c-1.2,0.9-2.9,1.4-5.2,1.4c-1.9,0-3.6-0.3-5-0.9v-3.1c0.7,0.3,1.4,0.6,2.2,0.8
			s1.6,0.3,2.4,0.3c1.2,0,2.1-0.2,2.7-0.6c0.6-0.4,0.9-1.1,0.9-2c0-0.8-0.3-1.4-1-1.7c-0.7-0.3-1.7-0.5-3.2-0.5h-1.3v-2.8h1.3
			c1.3,0,2.3-0.2,3-0.5c0.6-0.4,0.9-1,0.9-1.8c0-1.3-0.8-2-2.5-2c-0.6,0-1.1,0.1-1.7,0.3c-0.6,0.2-1.2,0.5-2,1l-1.7-2.5
			c1.6-1.1,3.5-1.7,5.7-1.7c1.8,0,3.2,0.4,4.3,1.1C480.9,170.6,481.5,171.6,481.5,172.9z"/>
		<path class="st9" d="M495.9,177.7c0,3-0.5,5.3-1.5,6.7c-1,1.5-2.5,2.2-4.6,2.2c-2,0-3.5-0.8-4.5-2.3c-1-1.5-1.5-3.7-1.5-6.7
			c0-3.1,0.5-5.3,1.5-6.8c1-1.5,2.5-2.2,4.6-2.2c2,0,3.5,0.8,4.5,2.3C495.4,172.5,495.9,174.8,495.9,177.7z M487.4,177.7
			c0,2.1,0.2,3.7,0.6,4.6c0.4,0.9,1,1.4,1.9,1.4c0.9,0,1.5-0.5,1.9-1.4c0.4-0.9,0.6-2.5,0.6-4.6c0-2.1-0.2-3.7-0.6-4.6
			c-0.4-0.9-1-1.4-1.8-1.4c-0.9,0-1.5,0.5-1.9,1.4C487.6,174,487.4,175.6,487.4,177.7z"/>
		<path class="st9" d="M469,188.8v-1.2h27.8v1.2H469z"/>
	</g>
</g>
<g>
	<g>
		<path class="st0" d="M724.6,193.3h-12.1v-2.6l4.4-4.4c1.3-1.3,2.1-2.2,2.5-2.7s0.7-1,0.9-1.4c0.2-0.4,0.3-0.9,0.3-1.4
			c0-0.7-0.2-1.2-0.6-1.6c-0.4-0.3-0.9-0.5-1.5-0.5c-0.7,0-1.3,0.2-2,0.5c-0.6,0.3-1.3,0.7-2,1.3l-2-2.4c0.9-0.7,1.6-1.2,2.1-1.5
			c0.6-0.3,1.2-0.5,1.8-0.7s1.4-0.2,2.2-0.2c1.1,0,2,0.2,2.9,0.6c0.8,0.4,1.5,1,1.9,1.7c0.5,0.7,0.7,1.5,0.7,2.4
			c0,0.8-0.1,1.5-0.4,2.2c-0.3,0.7-0.7,1.4-1.3,2.2c-0.6,0.7-1.6,1.8-3.1,3.1L717,190v0.2h7.6V193.3z"/>
		<path class="st0" d="M728,193.3l6.5-14.2H726v-3.1h12.5v2.3l-6.6,15H728z"/>
		<path class="st0" d="M711.5,195.7v-1.2h27.8v1.2H711.5z"/>
	</g>
</g>
<g>
	<g>
		<path class="st10" d="M474.4,571.8h-2.8v-7.6l0-1.2l0-1.4c-0.5,0.5-0.8,0.8-1,0.9l-1.5,1.2l-1.3-1.7l4.2-3.3h2.3V571.8z"/>
		<path class="st10" d="M486.6,561.7c0,0.8-0.2,1.5-0.7,2.1c-0.5,0.6-1.2,1-2.1,1.2v0.1c1.1,0.1,1.9,0.5,2.4,1
			c0.5,0.5,0.8,1.2,0.8,2.1c0,1.3-0.5,2.2-1.4,2.9c-0.9,0.7-2.2,1-3.9,1c-1.4,0-2.7-0.2-3.8-0.7V569c0.5,0.3,1.1,0.5,1.7,0.6
			c0.6,0.2,1.2,0.2,1.8,0.2c0.9,0,1.6-0.2,2-0.5s0.7-0.8,0.7-1.5c0-0.6-0.2-1-0.8-1.3c-0.5-0.3-1.3-0.4-2.4-0.4h-1v-2.1h1
			c1,0,1.8-0.1,2.2-0.4c0.5-0.3,0.7-0.7,0.7-1.4c0-1-0.6-1.5-1.9-1.5c-0.4,0-0.9,0.1-1.3,0.2c-0.4,0.1-0.9,0.4-1.5,0.7l-1.3-1.9
			c1.2-0.9,2.6-1.3,4.3-1.3c1.4,0,2.4,0.3,3.2,0.8C486.2,560,486.6,560.7,486.6,561.7z"/>
		<path class="st10" d="M466.8,573.7v-0.9h20.9v0.9H466.8z"/>
	</g>
</g>
<g>
	<g>
		<path class="st0" d="M717.2,548h-1.6v2.7H713V548h-5.6v-1.9l5.7-8.4h2.5v8.2h1.6V548z M713,545.8v-2.2c0-0.4,0-0.9,0-1.6
			c0-0.7,0.1-1.1,0.1-1.2H713c-0.2,0.5-0.5,1-0.8,1.4l-2.4,3.6H713z"/>
		<path class="st0" d="M707.1,552.5v-0.9h10.4v0.9H707.1z"/>
	</g>
</g>
<g id="Pedidos_Google">
	<g id="p_939.1026008473722">
		<path class="st0" d="M1098.3,572L1098.3,572c-113.1,0-205.2-92-205.2-205.1c0-54.8,21.3-106.3,60.1-145
			c38.7-38.7,90.2-60.1,145-60.1c113.1,0,205.2,92,205.2,205.1C1303.4,479.9,1211.4,571.9,1098.3,572z M1098.3,162.7
			c-112.6,0.1-204.1,91.6-204.1,204.1c0,112.5,91.6,204.1,204.1,204.1h0c112.5,0,204.1-91.6,204.1-204.1
			C1302.4,254.3,1210.8,162.7,1098.3,162.7z"/>
	</g>
</g>
<g id="Respondido-2">
	<g id="p_837.7020816179811">
		<path class="st1" d="M1010.8,475.9c-53.3-0.5-96.1-44.2-95.6-97.6c0.5-52.6,43-95.1,95.6-95.6l0,0c53.3-0.5,97,42.3,97.6,95.6
			c0.5,53.3-42.3,97-95.6,97.6C1012.1,475.9,1011.5,475.9,1010.8,475.9z"/>
	</g>
</g>
<g id="Sem_resposta-2">
	<g id="p_940.2164058449428">
		<path class="st2" d="M1204.8,467c-48.4,0-87.7-39.2-87.7-87.6c0-48.4,39.2-87.7,87.6-87.7c48.4,0,87.7,39.2,87.7,87.6c0,0,0,0,0,0
			C1292.4,427.7,1253.2,467,1204.8,467z"/>
	</g>
</g>
<g id="Resposta_insatisfatória-2">
	<g id="p_942.4396690975328">
		<path class="st5" d="M1115.1,560.7c-31.2,0.4-56.8-24.5-57.2-55.7s24.5-56.8,55.7-57.2c0.5,0,1,0,1.5,0l0,0
			c31.2,0.4,56.1,26,55.7,57.2C1170.3,535.6,1145.7,560.3,1115.1,560.7z"/>
	</g>
</g>
<g id="Site_com_problema-2">
	<g id="p_805.6622192262683">
		<path class="st3" d="M1114.5,314.3c-24.5,0-44.5-19.9-44.5-44.4c0-24.5,19.9-44.5,44.4-44.5s44.5,19.9,44.5,44.4c0,0,0,0,0,0
			C1159,294.4,1139.1,314.3,1114.5,314.3z"/>
	</g>
</g>
<g id="Indeferido-2">
	<g id="p_734.3045558666563">
		<path class="st8" d="M1026.3,273.8c-23.1,0-41.9-18.8-41.9-41.9c0-23.1,18.8-41.9,41.9-41.9c23.1,0,41.9,18.8,41.9,41.9
			c0,0,0,0,0,0C1068.2,255.1,1049.4,273.8,1026.3,273.8L1026.3,273.8z"/>
	</g>
</g>
<g id="Indicação_de_outro_órgão-2">
	<g id="p_875.1859680659007">
		<path class="st4" d="M1028,526.4c-11.6,0-21-9.4-21-21c0-11.6,9.4-21,21-21s21,9.4,21,21l0,0C1049,517,1039.6,526.4,1028,526.4z"
			/>
	</g>
</g>
<g id="Sem_e-SIC-2">
	<g id="p_827.0549477661632">
		<path class="st7" d="M1183.5,284c-8.2,0-14.8-6.7-14.8-14.9s6.7-14.8,14.9-14.8c8.2,0,14.8,6.7,14.8,14.8
			C1198.4,277.3,1191.8,284,1183.5,284C1183.6,284,1183.5,284,1183.5,284z"/>
	</g>
</g>
<g id="Pedido_em_duplicidade-2">
	<g id="p_956.3618255763646">
		<path class="st6" d="M1195,505.9c-8.2,0-14.8-6.6-14.8-14.8s6.6-14.8,14.8-14.8c8.2,0,14.8,6.6,14.8,14.8c0,0,0,0,0,0
			C1209.8,499.3,1203.2,505.9,1195,505.9z"/>
	</g>
</g>
<g>
	<g>
		<path class="st0" d="M1003.8,367.9c1.7,0,3,0.4,4,1.1c1,0.8,1.5,1.8,1.5,3.1c0,0.9-0.2,1.7-0.7,2.4c-0.5,0.7-1.3,1.3-2.4,1.9
			c1.3,0.7,2.2,1.4,2.8,2.2c0.6,0.8,0.8,1.6,0.8,2.5c0,1.4-0.6,2.6-1.7,3.4c-1.1,0.9-2.6,1.3-4.4,1.3c-1.9,0-3.4-0.4-4.5-1.2
			s-1.6-2-1.6-3.4c0-1,0.3-1.9,0.8-2.6c0.5-0.8,1.4-1.4,2.5-2c-1-0.6-1.7-1.3-2.1-2c-0.4-0.7-0.7-1.5-0.7-2.3c0-1.2,0.5-2.2,1.5-3
			C1000.8,368.3,1002.2,367.9,1003.8,367.9z M1001.1,380.8c0,0.7,0.2,1.2,0.7,1.6c0.5,0.4,1.1,0.6,1.9,0.6c0.9,0,1.6-0.2,2-0.6
			s0.7-0.9,0.7-1.5c0-0.5-0.2-1-0.7-1.5s-1.2-1-2.2-1.5C1002,378.7,1001.1,379.6,1001.1,380.8z M1003.8,370.5
			c-0.6,0-1.1,0.2-1.5,0.5c-0.4,0.3-0.6,0.8-0.6,1.3c0,0.5,0.2,0.9,0.5,1.3s0.9,0.8,1.7,1.2c0.8-0.4,1.3-0.7,1.6-1.1
			c0.3-0.4,0.5-0.8,0.5-1.3c0-0.5-0.2-1-0.6-1.3C1004.9,370.7,1004.4,370.5,1003.8,370.5z"/>
		<path class="st0" d="M1018,374.4c1.7,0,3,0.5,4,1.4c1,0.9,1.5,2.2,1.5,3.9c0,1.9-0.6,3.4-1.8,4.5s-2.9,1.6-5.1,1.6
			c-1.9,0-3.5-0.3-4.7-0.9v-3.2c0.6,0.3,1.4,0.6,2.2,0.8s1.6,0.3,2.4,0.3c2.2,0,3.4-0.9,3.4-2.8c0-1.8-1.2-2.6-3.5-2.6
			c-0.4,0-0.9,0-1.4,0.1c-0.5,0.1-0.9,0.2-1.2,0.3l-1.5-0.8l0.7-8.8h9.4v3.1h-6.2l-0.3,3.4l0.4-0.1
			C1016.7,374.4,1017.3,374.4,1018,374.4z"/>
		<path class="st0" d="M996.9,387.9v-1.2h27.8v1.2H996.9z"/>
	</g>
</g>
<g>
	<g>
		<path class="st0" d="M1193.5,385.5l6.5-14.2h-8.6v-3.1h12.5v2.3l-6.6,15H1193.5z"/>
		<path class="st0" d="M1217.7,376.8c0,3-0.5,5.3-1.5,6.7c-1,1.5-2.5,2.2-4.6,2.2c-2,0-3.5-0.8-4.5-2.3c-1-1.5-1.5-3.7-1.5-6.7
			c0-3.1,0.5-5.3,1.5-6.8c1-1.5,2.5-2.2,4.6-2.2c2,0,3.5,0.8,4.5,2.3C1217.2,371.6,1217.7,373.8,1217.7,376.8z M1209.2,376.8
			c0,2.1,0.2,3.7,0.6,4.6c0.4,0.9,1,1.4,1.9,1.4c0.9,0,1.5-0.5,1.9-1.4c0.4-0.9,0.6-2.5,0.6-4.6c0-2.1-0.2-3.7-0.6-4.6
			c-0.4-0.9-1-1.4-1.8-1.4c-0.9,0-1.5,0.5-1.9,1.4C1209.4,373.1,1209.2,374.6,1209.2,376.8z"/>
		<path class="st0" d="M1190.8,387.9v-1.2h27.8v1.2H1190.8z"/>
	</g>
</g>
<g>
	<g>
		<path class="st9" d="M1114.5,510.4h-12.1v-2.6l4.4-4.4c1.3-1.3,2.1-2.2,2.5-2.7s0.7-1,0.9-1.4c0.2-0.4,0.3-0.9,0.3-1.4
			c0-0.7-0.2-1.2-0.6-1.6c-0.4-0.3-0.9-0.5-1.5-0.5c-0.7,0-1.3,0.2-2,0.5c-0.6,0.3-1.3,0.7-2,1.3l-2-2.4c0.9-0.7,1.6-1.2,2.1-1.5
			c0.6-0.3,1.2-0.5,1.8-0.7s1.4-0.2,2.2-0.2c1.1,0,2,0.2,2.9,0.6c0.8,0.4,1.5,1,1.9,1.7c0.5,0.7,0.7,1.5,0.7,2.4
			c0,0.8-0.1,1.5-0.4,2.2c-0.3,0.7-0.7,1.4-1.3,2.2c-0.6,0.7-1.6,1.8-3.1,3.1l-2.2,2.1v0.2h7.6V510.4z"/>
		<path class="st9" d="M1128.3,500.5c0,3.4-0.7,6-2.2,7.7c-1.4,1.7-3.6,2.5-6.5,2.5c-1,0-1.8-0.1-2.3-0.2v-2.9
			c0.7,0.2,1.4,0.2,2.1,0.2c1.2,0,2.2-0.2,3-0.5c0.8-0.4,1.4-0.9,1.8-1.7c0.4-0.8,0.7-1.8,0.7-3.2h-0.1c-0.5,0.7-1,1.3-1.6,1.6
			s-1.4,0.5-2.3,0.5c-1.5,0-2.7-0.5-3.6-1.5c-0.9-1-1.3-2.3-1.3-4c0-1.9,0.5-3.3,1.6-4.4c1.1-1.1,2.5-1.6,4.3-1.6
			c1.3,0,2.4,0.3,3.4,0.9s1.7,1.5,2.2,2.6C1128.1,497.5,1128.3,498.9,1128.3,500.5z M1122.1,495.8c-0.8,0-1.4,0.3-1.8,0.8
			c-0.4,0.5-0.6,1.3-0.6,2.3c0,0.8,0.2,1.5,0.6,2c0.4,0.5,1,0.7,1.8,0.7c0.7,0,1.4-0.2,1.9-0.7s0.8-1,0.8-1.7c0-0.9-0.2-1.7-0.7-2.4
			C1123.5,496.1,1122.8,495.8,1122.1,495.8z"/>
		<path class="st9" d="M1101.4,512.8v-1.2h27.8v1.2H1101.4z"/>
	</g>
</g>
<g>
	<g>
		<path class="st0" d="M1112.5,276h-3.7v-10l0-1.7l0.1-1.8c-0.6,0.6-1,1-1.3,1.2l-2,1.6l-1.8-2.2l5.6-4.5h3V276z"/>
		<path class="st0" d="M1123.3,258.4c1.7,0,3,0.4,4,1.1c1,0.8,1.5,1.8,1.5,3.1c0,0.9-0.2,1.7-0.7,2.4c-0.5,0.7-1.3,1.3-2.4,1.9
			c1.3,0.7,2.2,1.4,2.8,2.2c0.6,0.8,0.8,1.6,0.8,2.5c0,1.4-0.6,2.6-1.7,3.4c-1.1,0.9-2.6,1.3-4.4,1.3c-1.9,0-3.4-0.4-4.5-1.2
			s-1.6-2-1.6-3.4c0-1,0.3-1.9,0.8-2.6c0.5-0.8,1.4-1.4,2.5-2c-1-0.6-1.7-1.3-2.1-2c-0.4-0.7-0.7-1.5-0.7-2.3c0-1.2,0.5-2.2,1.5-3
			C1120.3,258.8,1121.7,258.4,1123.3,258.4z M1120.6,271.4c0,0.7,0.2,1.2,0.7,1.6c0.5,0.4,1.1,0.6,1.9,0.6c0.9,0,1.6-0.2,2-0.6
			s0.7-0.9,0.7-1.5c0-0.5-0.2-1-0.7-1.5s-1.2-1-2.2-1.5C1121.5,269.2,1120.6,270.2,1120.6,271.4z M1123.3,261.1
			c-0.6,0-1.1,0.2-1.5,0.5c-0.4,0.3-0.6,0.8-0.6,1.3c0,0.5,0.2,0.9,0.5,1.3s0.9,0.8,1.7,1.2c0.8-0.4,1.3-0.7,1.6-1.1
			c0.3-0.4,0.5-0.8,0.5-1.3c0-0.5-0.2-1-0.6-1.3C1124.4,261.3,1123.9,261.1,1123.3,261.1z"/>
		<path class="st0" d="M1102.5,278.5v-1.2h27.8v1.2H1102.5z"/>
	</g>
</g>
<g>
	<g>
		<path class="st0" d="M1025,236.5h-2.8V229l0-1.2l0-1.4c-0.5,0.5-0.8,0.8-1,0.9l-1.5,1.2l-1.3-1.7l4.2-3.3h2.3V236.5z"/>
		<path class="st0" d="M1028.5,231c0-2.6,0.5-4.5,1.6-5.8c1.1-1.3,2.7-1.9,4.9-1.9c0.7,0,1.3,0,1.8,0.1v2.2
			c-0.5-0.1-1.1-0.2-1.6-0.2c-0.9,0-1.7,0.1-2.3,0.4c-0.6,0.3-1,0.7-1.3,1.3s-0.5,1.4-0.5,2.4h0.1c0.6-1,1.5-1.5,2.8-1.5
			c1.2,0,2.1,0.4,2.7,1.1c0.7,0.7,1,1.7,1,3c0,1.4-0.4,2.5-1.2,3.3c-0.8,0.8-1.9,1.2-3.3,1.2c-1,0-1.8-0.2-2.5-0.7s-1.3-1.1-1.7-2
			S1028.5,232.2,1028.5,231z M1033.2,234.5c0.6,0,1-0.2,1.4-0.6s0.5-1,0.5-1.7c0-0.6-0.1-1.1-0.4-1.5s-0.7-0.5-1.3-0.5
			c-0.6,0-1,0.2-1.4,0.5c-0.4,0.4-0.6,0.8-0.6,1.3c0,0.7,0.2,1.3,0.6,1.8S1032.7,234.5,1033.2,234.5z"/>
		<path class="st0" d="M1017.4,238.3v-0.9h20.9v0.9H1017.4z"/>
	</g>
</g>
<g>
	<g>
		<path class="st0" d="M1032.7,507.3h-1.6v2.7h-2.7v-2.7h-5.6v-1.9l5.7-8.4h2.5v8.2h1.6V507.3z M1028.5,505.2V503c0-0.4,0-0.9,0-1.6
			c0-0.7,0.1-1.1,0.1-1.2h-0.1c-0.2,0.5-0.5,1-0.8,1.4l-2.4,3.6H1028.5z"/>
		<path class="st0" d="M1022.6,511.9V511h10.4v0.9H1022.6z"/>
	</g>
</g>
<g>
	<g>
		<path class="st10" d="M1188.4,273.8h-9.1v-1.9l3.3-3.3c1-1,1.6-1.7,1.9-2.1s0.5-0.7,0.6-1.1s0.2-0.7,0.2-1c0-0.5-0.1-0.9-0.4-1.2
			s-0.7-0.4-1.2-0.4c-0.5,0-1,0.1-1.5,0.3s-1,0.6-1.5,1l-1.5-1.8c0.6-0.5,1.2-0.9,1.6-1.2c0.4-0.2,0.9-0.4,1.4-0.5
			c0.5-0.1,1.1-0.2,1.7-0.2c0.8,0,1.5,0.1,2.2,0.4s1.1,0.7,1.5,1.3c0.3,0.5,0.5,1.1,0.5,1.8c0,0.6-0.1,1.2-0.3,1.7
			c-0.2,0.5-0.5,1.1-1,1.6s-1.2,1.3-2.3,2.4l-1.7,1.6v0.1h5.7V273.8z"/>
		<path class="st10" d="M1178.5,275.6v-0.9h10.4v0.9H1178.5z"/>
	</g>
</g>
<g>
	<g>
		<path class="st0" d="M1199.8,495.7h-9.1v-1.9l3.3-3.3c1-1,1.6-1.7,1.9-2.1s0.5-0.7,0.6-1.1s0.2-0.7,0.2-1c0-0.5-0.1-0.9-0.4-1.2
			c-0.3-0.3-0.7-0.4-1.2-0.4c-0.5,0-1,0.1-1.5,0.3c-0.5,0.2-1,0.6-1.5,1l-1.5-1.8c0.6-0.5,1.2-0.9,1.6-1.2c0.4-0.2,0.9-0.4,1.4-0.5
			c0.5-0.1,1.1-0.2,1.7-0.2c0.8,0,1.5,0.1,2.2,0.4s1.1,0.7,1.5,1.3c0.3,0.5,0.5,1.1,0.5,1.8c0,0.6-0.1,1.2-0.3,1.7
			c-0.2,0.5-0.5,1.1-1,1.6s-1.2,1.3-2.3,2.4l-1.7,1.6v0.1h5.7V495.7z"/>
		<path class="st0" d="M1189.9,497.5v-0.9h10.4v0.9H1189.9z"/>
	</g>
</g>
<g id="Pedidos_específicos">
	<g id="p_942.7097395324444">
		<path class="st0" d="M909.5,842.5c-67.4,0-122.3-54.9-122.3-122.3c0-67.4,54.9-122.3,122.3-122.3s122.3,54.9,122.3,122.3
			C1031.8,787.6,976.9,842.5,909.5,842.5V842V842.5z M909.5,598.9C909.5,598.9,909.5,598.9,909.5,598.9
			c-66.9,0-121.3,54.4-121.3,121.3c0,66.9,54.4,121.3,121.3,121.3c0,0,0,0,0,0c66.9,0,121.3-54.4,121.3-121.3
			C1030.8,653.3,976.4,598.9,909.5,598.9z"/>
	</g>
</g>
<g id="Respondido-3">
	<g id="p_874.2028532027925">
		<path class="st1" d="M860.4,767.4c-33.7,1.1-61.9-25.4-63-59.1c-1.1-33.7,25.4-61.9,59.1-63c1.3,0,2.6,0,3.8,0l0,0
			c33.7,0.4,60.7,28.1,60.3,61.9C920.3,740.3,893.5,767.1,860.4,767.4L860.4,767.4z"/>
	</g>
</g>
<g id="Sem_resposta-3">
	<g id="p_928.8475218150546">
		<path class="st2" d="M975.7,750.8c-24.5,0-44.5-19.9-44.5-44.4s19.9-44.5,44.4-44.5c24.5,0,44.4,19.9,44.5,44.4
			C1020.1,730.9,1000.3,750.8,975.7,750.8C975.7,750.8,975.7,750.8,975.7,750.8z"/>
	</g>
</g>
<g id="Resposta_insatisfatória-3">
	<g id="p_948.0804371111049">
		<path class="st5" d="M932.7,828.5c-21.6,0.3-39.5-16.9-39.8-38.6c-0.3-21.6,16.9-39.5,38.6-39.8c0.4,0,0.8,0,1.3,0l0,0
			c21.6,0.3,38.9,18.2,38.6,39.8C970.9,811.1,953.9,828.1,932.7,828.5z"/>
	</g>
</g>
<g id="Site_com_problema-3">
	<g id="p_858.4261941276254">
		<path class="st3" d="M929.2,670.2c-8.2,0-14.8-6.6-14.8-14.8c0-8.2,6.6-14.8,14.8-14.8c8.2,0,14.8,6.6,14.8,14.8
			C944,663.5,937.4,670.1,929.2,670.2C929.2,670.2,929.2,670.2,929.2,670.2z"/>
	</g>
</g>
<g id="Indicação_de_outro_órgão-3">
	<g id="p_829.0360772584445">
		<path class="st4" d="M900.3,646c-5.8,0-10.5-4.7-10.5-10.5s4.7-10.5,10.5-10.5c5.8,0,10.5,4.7,10.5,10.5c0,0,0,0,0,0
			C910.8,641.3,906.1,646,900.3,646C900.3,646,900.3,646,900.3,646z"/>
	</g>
</g>
<g id="Indeferido-3">
	<g id="p_867.4537013999949">
		<path class="st8" d="M962,653.6c-5.8,0-10.5-4.7-10.5-10.5c0-5.8,4.7-10.5,10.5-10.5c5.8,0,10.5,4.7,10.5,10.5c0,0,0,0,0,0
			C972.5,648.9,967.8,653.6,962,653.6z"/>
	</g>
</g>
<g>
	<g>
		<path class="st0" d="M858.8,699c0,1.1-0.3,2-1,2.8c-0.7,0.8-1.6,1.3-2.8,1.6v0.1c1.4,0.2,2.5,0.6,3.2,1.3c0.7,0.7,1.1,1.6,1.1,2.7
			c0,1.7-0.6,3-1.8,3.9c-1.2,0.9-2.9,1.4-5.2,1.4c-1.9,0-3.6-0.3-5-0.9v-3.1c0.7,0.3,1.4,0.6,2.2,0.8s1.6,0.3,2.4,0.3
			c1.2,0,2.1-0.2,2.7-0.6c0.6-0.4,0.9-1.1,0.9-2c0-0.8-0.3-1.4-1-1.7c-0.7-0.3-1.7-0.5-3.2-0.5H850v-2.8h1.3c1.3,0,2.3-0.2,3-0.5
			c0.6-0.4,0.9-1,0.9-1.8c0-1.3-0.8-2-2.5-2c-0.6,0-1.1,0.1-1.7,0.3c-0.6,0.2-1.2,0.5-2,1l-1.7-2.5c1.6-1.1,3.5-1.7,5.7-1.7
			c1.8,0,3.2,0.4,4.3,1.1C858.3,696.7,858.8,697.7,858.8,699z"/>
		<path class="st0" d="M873.8,708.9h-2.1v3.6h-3.6v-3.6h-7.4v-2.6l7.6-11.2h3.4V706h2.1V708.9z M868.1,706v-2.9c0-0.5,0-1.2,0.1-2.1
			c0-0.9,0.1-1.5,0.1-1.6h-0.1c-0.3,0.6-0.6,1.3-1.1,1.9l-3.2,4.8H868.1z"/>
		<path class="st0" d="M846.4,714.9v-1.2h27.8v1.2H846.4z"/>
	</g>
</g>
<g>
	<g>
		<path class="st0" d="M973.7,712.5H970v-10l0-1.7l0.1-1.8c-0.6,0.6-1,1-1.3,1.2l-2,1.6l-1.8-2.2l5.6-4.5h3V712.5z"/>
		<path class="st0" d="M984.5,694.9c1.7,0,3,0.4,4,1.1c1,0.8,1.5,1.8,1.5,3.1c0,0.9-0.2,1.7-0.7,2.4c-0.5,0.7-1.3,1.3-2.4,1.9
			c1.3,0.7,2.2,1.4,2.8,2.2c0.6,0.8,0.8,1.6,0.8,2.5c0,1.4-0.6,2.6-1.7,3.4c-1.1,0.9-2.6,1.3-4.4,1.3c-1.9,0-3.4-0.4-4.5-1.2
			c-1.1-0.8-1.6-2-1.6-3.4c0-1,0.3-1.9,0.8-2.6c0.5-0.8,1.4-1.4,2.5-2c-1-0.6-1.7-1.3-2.1-2c-0.4-0.7-0.7-1.5-0.7-2.3
			c0-1.2,0.5-2.2,1.5-3C981.5,695.3,982.8,694.9,984.5,694.9z M981.8,707.9c0,0.7,0.2,1.2,0.7,1.6c0.5,0.4,1.1,0.6,1.9,0.6
			c0.9,0,1.6-0.2,2-0.6s0.7-0.9,0.7-1.5c0-0.5-0.2-1-0.7-1.5s-1.2-1-2.2-1.5C982.6,705.7,981.8,706.7,981.8,707.9z M984.4,697.6
			c-0.6,0-1.1,0.2-1.5,0.5c-0.4,0.3-0.6,0.8-0.6,1.3c0,0.5,0.2,0.9,0.5,1.3s0.9,0.8,1.7,1.2c0.8-0.4,1.3-0.7,1.6-1.1
			s0.5-0.8,0.5-1.3c0-0.5-0.2-1-0.6-1.3C985.6,697.7,985.1,697.6,984.4,697.6z"/>
		<path class="st0" d="M963.6,714.9v-1.2h27.8v1.2H963.6z"/>
	</g>
</g>
<g>
	<g>
		<path class="st9" d="M930.8,795.4h-3.7v-10l0-1.7l0.1-1.8c-0.6,0.6-1,1-1.3,1.2l-2,1.6l-1.8-2.2l5.6-4.5h3V795.4z"/>
		<path class="st9" d="M948.1,791.8H946v3.6h-3.6v-3.6H935v-2.6l7.6-11.2h3.4V789h2.1V791.8z M942.4,789V786c0-0.5,0-1.2,0.1-2.1
			c0-0.9,0.1-1.5,0.1-1.6h-0.1c-0.3,0.6-0.6,1.3-1.1,1.9l-3.2,4.8H942.4z"/>
		<path class="st9" d="M920.7,797.8v-1.2h27.8v1.2H920.7z"/>
	</g>
</g>
<g>
	<g>
		<path class="st0" d="M934,660h-9.1V658l3.3-3.3c1-1,1.6-1.7,1.9-2.1s0.5-0.7,0.6-1.1s0.2-0.7,0.2-1c0-0.5-0.1-0.9-0.4-1.2
			c-0.3-0.3-0.7-0.4-1.2-0.4c-0.5,0-1,0.1-1.5,0.3s-1,0.6-1.5,1l-1.5-1.8c0.6-0.5,1.2-0.9,1.6-1.2c0.4-0.2,0.9-0.4,1.4-0.5
			c0.5-0.1,1.1-0.2,1.7-0.2c0.8,0,1.5,0.1,2.2,0.4s1.1,0.7,1.5,1.3c0.3,0.5,0.5,1.1,0.5,1.8c0,0.6-0.1,1.2-0.3,1.7
			c-0.2,0.5-0.5,1.1-1,1.6s-1.2,1.3-2.3,2.4l-1.7,1.6v0.1h5.7V660z"/>
		<path class="st0" d="M924.2,661.8v-0.9h10.4v0.9H924.2z"/>
	</g>
</g>
<g>
	<g>
		<path class="st0" d="M904.2,640.1h-2.8v-7.6l0-1.2l0-1.4c-0.5,0.5-0.8,0.8-1,0.9l-1.5,1.2l-1.3-1.7l4.2-3.3h2.3V640.1z"/>
		<path class="st0" d="M896.7,642v-0.9h10.4v0.9H896.7z"/>
	</g>
</g>
<g>
	<g>
		<path class="st0" d="M966,647.8h-2.8v-7.6l0-1.2l0-1.4c-0.5,0.5-0.8,0.8-1,0.9l-1.5,1.2l-1.3-1.7l4.2-3.3h2.3V647.8z"/>
		<path class="st0" d="M958.4,649.6v-0.9h10.4v0.9H958.4z"/>
	</g>
</g>
<g class="st11">
	<path class="st0" d="M41.6,365.5L38,356h-0.1c0.1,0.8,0.1,1.6,0.1,2.7v6.8h-1.1v-10.7h1.9l3.4,8.8h0.1l3.4-8.8h1.9v10.7h-1.2v-6.9
		c0-0.8,0-1.7,0.1-2.6h-0.1l-3.7,9.5H41.6z"/>
	<path class="st0" d="M57.7,365.5l-1.3-3.4h-4.3l-1.3,3.4h-1.3l4.2-10.8h1l4.2,10.8H57.7z M56,361l-1.2-3.3
		c-0.2-0.4-0.3-0.9-0.5-1.5c-0.1,0.5-0.3,1-0.5,1.5l-1.3,3.3H56z"/>
	<path class="st0" d="M61.1,365.5v-10.7h1.2v9.6h4.7v1.1H61.1z"/>
	<path class="st0" d="M70.7,365.5h-1.2v-10.7h6v1.1h-4.7v3.9h4.4v1.1h-4.4V365.5z"/>
	<path class="st0" d="M85.9,354.8v6.9c0,1.2-0.4,2.2-1.1,2.9s-1.8,1-3,1s-2.3-0.4-3-1.1c-0.7-0.7-1.1-1.7-1.1-2.9v-6.9h1.2v7
		c0,0.9,0.2,1.6,0.7,2.1s1.2,0.7,2.2,0.7c0.9,0,1.6-0.2,2.1-0.7c0.5-0.5,0.7-1.2,0.7-2.1v-7H85.9z"/>
	<path class="st0" d="M97.7,365.5h-1.4l-5.9-9h-0.1c0.1,1.1,0.1,2,0.1,2.9v6.1h-1.1v-10.7h1.4l5.8,9h0.1c0-0.1,0-0.6-0.1-1.3
		c0-0.7,0-1.2,0-1.5v-6.1h1.2V365.5z"/>
	<path class="st0" d="M105.8,355.8c-1.2,0-2.1,0.4-2.8,1.2c-0.7,0.8-1,1.9-1,3.2c0,1.4,0.3,2.5,1,3.2c0.7,0.8,1.6,1.1,2.8,1.1
		c0.7,0,1.6-0.1,2.6-0.4v1.1c-0.7,0.3-1.7,0.4-2.7,0.4c-1.6,0-2.8-0.5-3.7-1.4c-0.9-1-1.3-2.3-1.3-4.1c0-1.1,0.2-2.1,0.6-2.9
		c0.4-0.8,1-1.5,1.8-1.9s1.7-0.7,2.8-0.7c1.1,0,2.1,0.2,2.9,0.6l-0.5,1.1C107.4,355.9,106.6,355.8,105.8,355.8z"/>
	<path class="st0" d="M114.5,365.5h-1.2v-9.6h-3.4v-1.1h8v1.1h-3.4V365.5z"/>
	<path class="st0" d="M120.1,365.5v-10.7h1.2v10.7H120.1z"/>
	<path class="st0" d="M134.2,360.1c0,1.7-0.4,3.1-1.3,4c-0.9,1-2.1,1.5-3.6,1.5c-1.6,0-2.8-0.5-3.7-1.4c-0.9-1-1.3-2.3-1.3-4.1
		c0-1.7,0.4-3.1,1.3-4.1c0.9-1,2.1-1.4,3.7-1.4c1.5,0,2.7,0.5,3.6,1.5C133.7,357.1,134.2,358.4,134.2,360.1z M125.6,360.1
		c0,1.5,0.3,2.6,0.9,3.3c0.6,0.8,1.5,1.1,2.7,1.1c1.2,0,2.1-0.4,2.7-1.1s0.9-1.8,0.9-3.3c0-1.4-0.3-2.5-0.9-3.3
		c-0.6-0.7-1.5-1.1-2.7-1.1c-1.2,0-2.1,0.4-2.7,1.1C126,357.6,125.6,358.7,125.6,360.1z"/>
	<path class="st0" d="M145.5,365.5h-1.4l-5.9-9h-0.1c0.1,1.1,0.1,2,0.1,2.9v6.1h-1.1v-10.7h1.4l5.8,9h0.1c0-0.1,0-0.6-0.1-1.3
		c0-0.7,0-1.2,0-1.5v-6.1h1.2V365.5z"/>
	<path class="st0" d="M149,365.5v-10.7h1.2v10.7H149z"/>
	<path class="st0" d="M162.2,365.5h-1.4l-5.9-9h-0.1c0.1,1.1,0.1,2,0.1,2.9v6.1h-1.1v-10.7h1.4l5.8,9h0.1c0-0.1,0-0.6-0.1-1.3
		c0-0.7,0-1.2,0-1.5v-6.1h1.2V365.5z"/>
	<path class="st0" d="M170.4,359.9h3.6v5.2c-0.6,0.2-1.1,0.3-1.7,0.4c-0.6,0.1-1.3,0.1-2,0.1c-1.6,0-2.9-0.5-3.8-1.4
		c-0.9-1-1.4-2.3-1.4-4.1c0-1.1,0.2-2.1,0.7-2.9c0.4-0.8,1.1-1.5,1.9-1.9c0.8-0.4,1.8-0.7,3-0.7c1.1,0,2.2,0.2,3.2,0.6l-0.5,1.1
		c-1-0.4-1.9-0.6-2.8-0.6c-1.3,0-2.3,0.4-3.1,1.2s-1.1,1.9-1.1,3.2c0,1.4,0.4,2.5,1.1,3.3s1.7,1.1,3.1,1.1c0.7,0,1.5-0.1,2.2-0.3
		V361h-2.4V359.9z"/>
	<path class="st0" d="M191,365.5h-1.2l-2.2-7.2c-0.1-0.3-0.2-0.7-0.3-1.2c-0.1-0.5-0.2-0.8-0.2-0.9c-0.1,0.6-0.3,1.4-0.5,2.1
		l-2.1,7.1h-1.2l-2.8-10.7h1.3l1.7,6.6c0.2,0.9,0.4,1.8,0.5,2.5c0.1-0.9,0.3-1.8,0.6-2.6l1.9-6.5h1.3l2,6.6c0.2,0.8,0.4,1.6,0.6,2.6
		c0.1-0.7,0.3-1.5,0.5-2.5l1.7-6.6h1.3L191,365.5z"/>
	<path class="st0" d="M202.1,365.5h-6v-10.7h6v1.1h-4.7v3.4h4.4v1.1h-4.4v3.9h4.7V365.5z"/>
	<path class="st0" d="M205.1,354.8h3c1.4,0,2.4,0.2,3.1,0.6c0.6,0.4,1,1.1,1,2c0,0.6-0.2,1.2-0.5,1.6c-0.4,0.4-0.9,0.7-1.5,0.8v0.1
		c1.6,0.3,2.4,1.1,2.4,2.6c0,1-0.3,1.7-1,2.2s-1.6,0.8-2.7,0.8h-3.7V354.8z M206.3,359.4h2.1c0.9,0,1.5-0.1,1.9-0.4
		c0.4-0.3,0.6-0.7,0.6-1.4c0-0.6-0.2-1-0.6-1.3c-0.4-0.3-1.1-0.4-2.1-0.4h-1.8V359.4z M206.3,360.4v4h2.2c0.9,0,1.5-0.2,2-0.5
		c0.4-0.3,0.7-0.9,0.7-1.6c0-0.7-0.2-1.2-0.7-1.5c-0.4-0.3-1.1-0.5-2-0.5H206.3z"/>
	<path class="st0" d="M221.4,362.7c0,0.9-0.3,1.7-1,2.2s-1.6,0.8-2.8,0.8c-1.3,0-2.2-0.2-2.9-0.5V364c0.4,0.2,0.9,0.3,1.4,0.4
		s1,0.2,1.5,0.2c0.8,0,1.5-0.2,1.9-0.5c0.4-0.3,0.6-0.8,0.6-1.3c0-0.4-0.1-0.7-0.2-0.9c-0.1-0.2-0.4-0.5-0.7-0.7s-0.9-0.4-1.6-0.7
		c-1-0.4-1.7-0.8-2.1-1.3c-0.4-0.5-0.6-1.1-0.6-1.9c0-0.8,0.3-1.5,0.9-2s1.4-0.7,2.5-0.7c1.1,0,2,0.2,2.9,0.6l-0.4,1.1
		c-0.9-0.4-1.7-0.6-2.6-0.6c-0.7,0-1.2,0.1-1.5,0.4c-0.4,0.3-0.6,0.7-0.6,1.2c0,0.4,0.1,0.7,0.2,0.9c0.1,0.2,0.4,0.5,0.7,0.7
		c0.3,0.2,0.8,0.4,1.5,0.7c1.1,0.4,1.9,0.8,2.3,1.3C221.2,361.3,221.4,361.9,221.4,362.7z"/>
	<path class="st0" d="M224.2,365.5v-10.7h1.2v10.7H224.2z"/>
	<path class="st0" d="M232.3,365.5H231v-9.6h-3.4v-1.1h8v1.1h-3.4V365.5z"/>
	<path class="st0" d="M243.8,365.5h-6v-10.7h6v1.1h-4.7v3.4h4.4v1.1h-4.4v3.9h4.7V365.5z"/>
	<path class="st0" d="M259.6,352.1c1.3,0,2.3,0.3,3.1,0.9c0.8,0.6,1.2,1.4,1.2,2.3c0,0.7-0.2,1.3-0.6,1.8c-0.4,0.5-1,1-1.8,1.4
		c1,0.5,1.7,1.1,2.1,1.7c0.4,0.6,0.6,1.2,0.6,1.9c0,1.1-0.4,2-1.3,2.6c-0.9,0.7-2,1-3.4,1c-1.5,0-2.6-0.3-3.4-0.9
		c-0.8-0.6-1.2-1.5-1.2-2.6c0-0.8,0.2-1.4,0.6-2c0.4-0.6,1-1.1,1.9-1.6c-0.8-0.5-1.3-1-1.6-1.5s-0.5-1.1-0.5-1.8
		c0-1,0.4-1.7,1.2-2.3C257.3,352.4,258.3,352.1,259.6,352.1z M257.5,362c0,0.5,0.2,0.9,0.5,1.2c0.4,0.3,0.9,0.4,1.5,0.4
		c0.7,0,1.2-0.2,1.6-0.4c0.3-0.3,0.5-0.7,0.5-1.2c0-0.4-0.2-0.8-0.5-1.1c-0.3-0.4-0.9-0.7-1.7-1.1
		C258.2,360.3,257.5,361.1,257.5,362z M259.6,354.1c-0.5,0-0.9,0.1-1.2,0.4c-0.3,0.2-0.4,0.6-0.4,1c0,0.4,0.1,0.7,0.3,1
		c0.2,0.3,0.7,0.6,1.3,0.9c0.6-0.3,1-0.6,1.2-0.9c0.2-0.3,0.4-0.6,0.4-1c0-0.4-0.2-0.7-0.5-1C260.4,354.2,260.1,354.1,259.6,354.1z"
		/>
	<path class="st0" d="M272.6,365.5h-2.8v-7.7l0-1.3l0-1.4c-0.5,0.5-0.8,0.8-1,0.9l-1.5,1.2l-1.4-1.7l4.3-3.4h2.3V365.5z"/>
	<path class="st0" d="M254.3,367.4v-0.9h21.2v0.9H254.3z"/>
</g>
<rect x="0.6" y="332.5" class="st3" width="78.9" height="8.5"/>
<g class="st11">
	<path class="st0" d="M44.1,307.2h-1.4l-5.9-9h-0.1c0.1,1.1,0.1,2,0.1,2.9v6.1h-1.2v-10.7h1.4l5.8,9H43c0-0.1,0-0.6-0.1-1.3
		c0-0.7,0-1.2,0-1.5v-6.1h1.2V307.2z"/>
	<path class="st0" d="M56.9,301.8c0,1.7-0.4,3.1-1.3,4c-0.9,1-2.1,1.5-3.6,1.5c-1.6,0-2.8-0.5-3.7-1.4c-0.9-1-1.3-2.3-1.3-4.1
		c0-1.7,0.4-3.1,1.3-4.1c0.9-1,2.1-1.4,3.7-1.4c1.5,0,2.7,0.5,3.6,1.5C56.5,298.8,56.9,300.1,56.9,301.8z M48.4,301.8
		c0,1.5,0.3,2.6,0.9,3.3c0.6,0.8,1.5,1.1,2.7,1.1c1.2,0,2.1-0.4,2.7-1.1s0.9-1.8,0.9-3.3c0-1.4-0.3-2.5-0.9-3.3
		c-0.6-0.7-1.5-1.1-2.7-1.1c-1.2,0-2.1,0.4-2.7,1.1C48.7,299.3,48.4,300.4,48.4,301.8z"/>
	<path class="st0" d="M71.1,307.2l-1.3-3.4h-4.3l-1.3,3.4h-1.3l4.2-10.8h1l4.2,10.8H71.1z M69.4,302.7l-1.2-3.3
		c-0.2-0.4-0.3-0.9-0.5-1.5c-0.1,0.5-0.3,1-0.5,1.5l-1.3,3.3H69.4z"/>
	<path class="st0" d="M82.8,307.2h-1.4l-5.9-9h-0.1c0.1,1.1,0.1,2,0.1,2.9v6.1h-1.1v-10.7h1.4l5.8,9h0.1c0-0.1,0-0.6-0.1-1.3
		c0-0.7,0-1.2,0-1.5v-6.1h1.2V307.2z"/>
	<path class="st0" d="M92.4,304.3c0,0.9-0.3,1.7-1,2.2s-1.6,0.8-2.8,0.8c-1.3,0-2.2-0.2-2.9-0.5v-1.2c0.4,0.2,0.9,0.3,1.4,0.4
		s1,0.2,1.5,0.2c0.8,0,1.5-0.2,1.9-0.5c0.4-0.3,0.6-0.8,0.6-1.3c0-0.4-0.1-0.7-0.2-0.9c-0.1-0.2-0.4-0.5-0.7-0.7
		c-0.3-0.2-0.9-0.4-1.6-0.7c-1-0.4-1.7-0.8-2.1-1.3c-0.4-0.5-0.6-1.1-0.6-1.9c0-0.8,0.3-1.5,0.9-2s1.4-0.7,2.5-0.7
		c1.1,0,2,0.2,2.9,0.6l-0.4,1.1c-0.9-0.4-1.7-0.6-2.6-0.6c-0.7,0-1.2,0.1-1.5,0.4c-0.4,0.3-0.6,0.7-0.6,1.2c0,0.4,0.1,0.7,0.2,0.9
		c0.1,0.2,0.4,0.5,0.7,0.7c0.3,0.2,0.8,0.4,1.5,0.7c1.1,0.4,1.9,0.8,2.3,1.3C92.2,303,92.4,303.6,92.4,304.3z"/>
	<path class="st0" d="M104.5,307.2h-1.2l-2.2-7.2c-0.1-0.3-0.2-0.7-0.3-1.2c-0.1-0.5-0.2-0.8-0.2-0.9c-0.1,0.6-0.3,1.4-0.5,2.1
		l-2.1,7.1h-1.2l-2.8-10.7h1.3l1.7,6.6c0.2,0.9,0.4,1.8,0.5,2.5c0.1-0.9,0.3-1.8,0.6-2.6l1.9-6.5h1.3l2,6.6c0.2,0.8,0.4,1.6,0.6,2.6
		c0.1-0.7,0.3-1.5,0.5-2.5l1.7-6.6h1.3L104.5,307.2z"/>
	<path class="st0" d="M115.6,307.2h-6v-10.7h6v1.1h-4.7v3.4h4.4v1.1h-4.4v3.9h4.7V307.2z"/>
	<path class="st0" d="M119.8,302.7v4.5h-1.2v-10.7h2.9c1.3,0,2.3,0.3,2.9,0.8c0.6,0.5,0.9,1.3,0.9,2.3c0,1.4-0.7,2.4-2.2,2.9
		l2.9,4.8h-1.5l-2.6-4.5H119.8z M119.8,301.7h1.7c0.9,0,1.5-0.2,1.9-0.5c0.4-0.3,0.6-0.9,0.6-1.6c0-0.7-0.2-1.2-0.6-1.5
		c-0.4-0.3-1.1-0.5-2-0.5h-1.6V301.7z"/>
	<path class="st0" d="M145.9,307.2h-9.3v-2l3.3-3.4c1-1,1.6-1.7,1.9-2.1s0.5-0.8,0.7-1.1c0.1-0.3,0.2-0.7,0.2-1
		c0-0.5-0.1-0.9-0.4-1.2c-0.3-0.3-0.7-0.4-1.2-0.4c-0.5,0-1,0.1-1.5,0.4s-1,0.6-1.5,1l-1.5-1.8c0.7-0.6,1.2-1,1.6-1.2
		c0.4-0.2,0.9-0.4,1.4-0.5s1.1-0.2,1.7-0.2c0.8,0,1.6,0.2,2.2,0.5s1.1,0.7,1.5,1.3c0.4,0.5,0.5,1.2,0.5,1.9c0,0.6-0.1,1.2-0.3,1.7
		c-0.2,0.5-0.5,1.1-1,1.6c-0.5,0.6-1.2,1.4-2.4,2.4l-1.7,1.6v0.1h5.8V307.2z"/>
	<path class="st0" d="M156.8,304.4h-1.6v2.8h-2.7v-2.8h-5.7v-2l5.8-8.6h2.6v8.3h1.6V304.4z M152.5,302.3V300c0-0.4,0-0.9,0-1.6
		c0-0.7,0.1-1.1,0.1-1.2h-0.1c-0.2,0.5-0.5,1-0.8,1.5l-2.4,3.7H152.5z"/>
	<path class="st0" d="M162.4,293.7c1.3,0,2.3,0.3,3.1,0.9c0.8,0.6,1.2,1.4,1.2,2.3c0,0.7-0.2,1.3-0.6,1.8s-1,1-1.8,1.4
		c1,0.5,1.7,1.1,2.1,1.7s0.6,1.2,0.6,1.9c0,1.1-0.4,2-1.3,2.6s-2,1-3.4,1c-1.5,0-2.6-0.3-3.4-0.9c-0.8-0.6-1.2-1.5-1.2-2.6
		c0-0.8,0.2-1.4,0.6-2c0.4-0.6,1-1.1,1.9-1.6c-0.8-0.5-1.3-1-1.6-1.5s-0.5-1.1-0.5-1.8c0-1,0.4-1.7,1.2-2.3
		C160.1,294,161.2,293.7,162.4,293.7z M160.4,303.7c0,0.5,0.2,0.9,0.5,1.2c0.4,0.3,0.9,0.4,1.5,0.4c0.7,0,1.2-0.2,1.6-0.4
		c0.3-0.3,0.5-0.7,0.5-1.2c0-0.4-0.2-0.8-0.5-1.1c-0.3-0.4-0.9-0.7-1.7-1.1C161,302,160.4,302.8,160.4,303.7z M162.4,295.8
		c-0.5,0-0.9,0.1-1.2,0.4s-0.4,0.6-0.4,1c0,0.4,0.1,0.7,0.3,1s0.7,0.6,1.3,0.9c0.6-0.3,1-0.6,1.2-0.9c0.2-0.3,0.4-0.6,0.4-1
		c0-0.4-0.2-0.7-0.5-1C163.3,295.9,162.9,295.8,162.4,295.8z"/>
	<path class="st0" d="M135.9,309.1v-0.9h31.9v0.9H135.9z"/>
</g>
<rect x="0.6" y="275" class="st2" width="77.8" height="8.5"/>
<g class="st11">
	<path class="st0" d="M44.1,712.4h-1.4l-5.9-9h-0.1c0.1,1.1,0.1,2,0.1,2.9v6.1h-1.2v-10.7h1.4l5.8,9H43c0-0.1,0-0.6-0.1-1.3
		c0-0.7,0-1.2,0-1.5v-6.1h1.2V712.4z"/>
	<path class="st0" d="M56.9,707c0,1.7-0.4,3.1-1.3,4c-0.9,1-2.1,1.5-3.6,1.5c-1.6,0-2.8-0.5-3.7-1.4c-0.9-1-1.3-2.3-1.3-4.1
		c0-1.7,0.4-3.1,1.3-4.1c0.9-1,2.1-1.4,3.7-1.4c1.5,0,2.7,0.5,3.6,1.5C56.5,703.9,56.9,705.3,56.9,707z M48.4,707
		c0,1.5,0.3,2.6,0.9,3.3c0.6,0.8,1.5,1.1,2.7,1.1c1.2,0,2.1-0.4,2.7-1.1s0.9-1.8,0.9-3.3c0-1.4-0.3-2.5-0.9-3.3
		c-0.6-0.7-1.5-1.1-2.7-1.1c-1.2,0-2.1,0.4-2.7,1.1C48.7,704.5,48.4,705.6,48.4,707z"/>
	<path class="st0" d="M70.3,712.4h-6v-10.7h6v1.1h-4.7v3.4H70v1.1h-4.4v3.9h4.7V712.4z"/>
	<path class="st0" d="M72.4,708.9v-1.1H76v1.1H72.4z"/>
	<path class="st0" d="M84.7,709.5c0,0.9-0.3,1.7-1,2.2s-1.6,0.8-2.8,0.8c-1.3,0-2.2-0.2-2.9-0.5v-1.2c0.4,0.2,0.9,0.3,1.4,0.4
		s1,0.2,1.5,0.2c0.8,0,1.5-0.2,1.9-0.5c0.4-0.3,0.6-0.8,0.6-1.3c0-0.4-0.1-0.7-0.2-0.9c-0.1-0.2-0.4-0.5-0.7-0.7
		c-0.3-0.2-0.9-0.4-1.6-0.7c-1-0.4-1.7-0.8-2.1-1.3c-0.4-0.5-0.6-1.1-0.6-1.9c0-0.8,0.3-1.5,0.9-2s1.4-0.7,2.5-0.7
		c1.1,0,2,0.2,2.9,0.6l-0.4,1.1c-0.9-0.4-1.7-0.6-2.6-0.6c-0.7,0-1.2,0.1-1.5,0.4c-0.4,0.3-0.6,0.7-0.6,1.2c0,0.4,0.1,0.7,0.2,0.9
		c0.1,0.2,0.4,0.5,0.7,0.7c0.3,0.2,0.8,0.4,1.5,0.7c1.1,0.4,1.9,0.8,2.3,1.3C84.5,708.2,84.7,708.8,84.7,709.5z"/>
	<path class="st0" d="M87.5,712.4v-10.7h1.2v10.7H87.5z"/>
	<path class="st0" d="M96.9,702.6c-1.2,0-2.1,0.4-2.8,1.2c-0.7,0.8-1,1.9-1,3.2c0,1.4,0.3,2.5,1,3.2c0.7,0.8,1.6,1.1,2.8,1.1
		c0.7,0,1.6-0.1,2.6-0.4v1.1c-0.7,0.3-1.7,0.4-2.7,0.4c-1.6,0-2.8-0.5-3.7-1.4c-0.9-1-1.3-2.3-1.3-4.1c0-1.1,0.2-2.1,0.6-2.9
		c0.4-0.8,1-1.5,1.8-1.9c0.8-0.4,1.7-0.7,2.8-0.7c1.1,0,2.1,0.2,2.9,0.6l-0.5,1.1C98.5,702.8,97.7,702.6,96.9,702.6z"/>
	<path class="st0" d="M117.5,712.4h-2.8v-7.7l0-1.3l0-1.4c-0.5,0.5-0.8,0.8-1,0.9l-1.5,1.2l-1.4-1.7l4.3-3.4h2.3V712.4z"/>
	<path class="st0" d="M126,703.9c1.3,0,2.3,0.4,3.1,1.1c0.8,0.7,1.1,1.7,1.1,3c0,1.5-0.5,2.6-1.4,3.4c-0.9,0.8-2.2,1.2-3.9,1.2
		c-1.5,0-2.7-0.2-3.6-0.7v-2.4c0.5,0.3,1,0.5,1.7,0.6c0.6,0.2,1.2,0.2,1.8,0.2c1.7,0,2.6-0.7,2.6-2.1c0-1.3-0.9-2-2.7-2
		c-0.3,0-0.7,0-1.1,0.1c-0.4,0.1-0.7,0.1-0.9,0.2l-1.1-0.6l0.5-6.8h7.2v2.4h-4.7l-0.2,2.6l0.3-0.1C125,703.9,125.5,703.9,126,703.9z
		"/>
	<path class="st0" d="M109.8,714.2v-0.9H131v0.9H109.8z"/>
</g>
<rect x="0.6" y="680.9" class="st7" width="77.8" height="7"/>
<g class="st11">
	<path class="st0" d="M43.8,469.5v6.9c0,1.2-0.4,2.2-1.1,2.9s-1.8,1-3,1s-2.3-0.4-3-1.1c-0.7-0.7-1.1-1.7-1.1-2.9v-6.9h1.2v7
		c0,0.9,0.2,1.6,0.7,2.1s1.2,0.7,2.2,0.7c0.9,0,1.6-0.2,2.1-0.7c0.5-0.5,0.7-1.2,0.7-2.1v-7H43.8z"/>
	<path class="st0" d="M55.6,480.2h-1.4l-5.9-9h-0.1c0.1,1.1,0.1,2,0.1,2.9v6.1h-1.1v-10.7h1.4l5.8,9h0.1c0-0.1,0-0.6-0.1-1.3
		c0-0.7,0-1.2,0-1.5v-6.1h1.2V480.2z"/>
	<path class="st0" d="M65.1,477.4c0,0.9-0.3,1.7-1,2.2s-1.6,0.8-2.8,0.8c-1.3,0-2.2-0.2-2.9-0.5v-1.2c0.4,0.2,0.9,0.3,1.4,0.4
		s1,0.2,1.5,0.2c0.8,0,1.5-0.2,1.9-0.5c0.4-0.3,0.6-0.8,0.6-1.3c0-0.4-0.1-0.7-0.2-0.9c-0.1-0.2-0.4-0.5-0.7-0.7
		c-0.3-0.2-0.9-0.4-1.6-0.7c-1-0.4-1.7-0.8-2.1-1.3c-0.4-0.5-0.6-1.1-0.6-1.9c0-0.8,0.3-1.5,0.9-2s1.4-0.7,2.5-0.7
		c1.1,0,2,0.2,2.9,0.6l-0.4,1.1c-0.9-0.4-1.7-0.6-2.6-0.6c-0.7,0-1.2,0.1-1.5,0.4c-0.4,0.3-0.6,0.7-0.6,1.2c0,0.4,0.1,0.7,0.2,0.9
		c0.1,0.2,0.4,0.5,0.7,0.7c0.3,0.2,0.8,0.4,1.5,0.7c1.1,0.4,1.9,0.8,2.3,1.3C64.9,476.1,65.1,476.7,65.1,477.4z"/>
	<path class="st0" d="M74.7,480.2l-1.3-3.4H69l-1.3,3.4h-1.3l4.2-10.8h1l4.2,10.8H74.7z M72.9,475.7l-1.2-3.3
		c-0.2-0.4-0.3-0.9-0.5-1.5c-0.1,0.5-0.3,1-0.5,1.5l-1.3,3.3H72.9z"/>
	<path class="st0" d="M81.3,480.2h-1.2v-9.6h-3.4v-1.1h8v1.1h-3.4V480.2z"/>
	<path class="st0" d="M86.9,480.2v-10.7h1.2v10.7H86.9z"/>
	<path class="st0" d="M97.7,477.4c0,0.9-0.3,1.7-1,2.2s-1.6,0.8-2.8,0.8c-1.3,0-2.2-0.2-2.9-0.5v-1.2c0.4,0.2,0.9,0.3,1.4,0.4
		s1,0.2,1.5,0.2c0.8,0,1.5-0.2,1.9-0.5c0.4-0.3,0.6-0.8,0.6-1.3c0-0.4-0.1-0.7-0.2-0.9c-0.1-0.2-0.4-0.5-0.7-0.7
		c-0.3-0.2-0.9-0.4-1.6-0.7c-1-0.4-1.7-0.8-2.1-1.3c-0.4-0.5-0.6-1.1-0.6-1.9c0-0.8,0.3-1.5,0.9-2s1.4-0.7,2.5-0.7
		c1.1,0,2,0.2,2.9,0.6l-0.4,1.1c-0.9-0.4-1.7-0.6-2.6-0.6c-0.7,0-1.2,0.1-1.5,0.4c-0.4,0.3-0.6,0.7-0.6,1.2c0,0.4,0.1,0.7,0.2,0.9
		c0.1,0.2,0.4,0.5,0.7,0.7c0.3,0.2,0.8,0.4,1.5,0.7c1.1,0.4,1.9,0.8,2.3,1.3C97.5,476.1,97.7,476.7,97.7,477.4z"/>
	<path class="st0" d="M101.7,480.2h-1.2v-10.7h6v1.1h-4.7v3.9h4.4v1.1h-4.4V480.2z"/>
	<path class="st0" d="M115.5,480.2l-1.3-3.4h-4.3l-1.3,3.4h-1.3l4.2-10.8h1l4.2,10.8H115.5z M113.8,475.7l-1.2-3.3
		c-0.2-0.4-0.3-0.9-0.5-1.5c-0.1,0.5-0.3,1-0.5,1.5l-1.3,3.3H113.8z"/>
	<path class="st0" d="M123.5,470.5c-1.2,0-2.1,0.4-2.8,1.2c-0.7,0.8-1,1.9-1,3.2c0,1.4,0.3,2.5,1,3.2c0.7,0.8,1.6,1.1,2.8,1.1
		c0.7,0,1.6-0.1,2.6-0.4v1.1c-0.7,0.3-1.7,0.4-2.7,0.4c-1.6,0-2.8-0.5-3.7-1.4c-0.9-1-1.3-2.3-1.3-4.1c0-1.1,0.2-2.1,0.6-2.9
		c0.4-0.8,1-1.5,1.8-1.9c0.8-0.4,1.7-0.7,2.8-0.7c1.1,0,2.1,0.2,2.9,0.6l-0.5,1.1C125.1,470.7,124.3,470.5,123.5,470.5z"/>
	<path class="st0" d="M132.2,480.2H131v-9.6h-3.4v-1.1h8v1.1h-3.4V480.2z"/>
	<path class="st0" d="M147.1,474.9c0,1.7-0.4,3.1-1.3,4c-0.9,1-2.1,1.5-3.6,1.5c-1.6,0-2.8-0.5-3.7-1.4c-0.9-1-1.3-2.3-1.3-4.1
		c0-1.7,0.4-3.1,1.3-4.1c0.9-1,2.1-1.4,3.7-1.4c1.5,0,2.7,0.5,3.6,1.5C146.7,471.8,147.1,473.2,147.1,474.9z M138.6,474.9
		c0,1.5,0.3,2.6,0.9,3.3c0.6,0.8,1.5,1.1,2.7,1.1c1.2,0,2.1-0.4,2.7-1.1s0.9-1.8,0.9-3.3c0-1.4-0.3-2.5-0.9-3.3
		c-0.6-0.7-1.5-1.1-2.7-1.1c-1.2,0-2.1,0.4-2.7,1.1C138.9,472.4,138.6,473.4,138.6,474.9z"/>
	<path class="st0" d="M151.3,475.8v4.5h-1.2v-10.7h2.9c1.3,0,2.3,0.3,2.9,0.8c0.6,0.5,0.9,1.3,0.9,2.3c0,1.4-0.7,2.4-2.2,2.9
		l2.9,4.8h-1.5l-2.6-4.5H151.3z M151.3,474.7h1.7c0.9,0,1.5-0.2,1.9-0.5c0.4-0.3,0.6-0.9,0.6-1.6c0-0.7-0.2-1.2-0.6-1.5
		c-0.4-0.3-1.1-0.5-2-0.5h-1.6V474.7z"/>
	<path class="st0" d="M162.7,474.9l2.9-5.4h1.3l-3.6,6.6v4.2H162v-4.1l-3.6-6.6h1.4L162.7,474.9z"/>
	<path class="st0" d="M180.1,480.2l-1.3-3.4h-4.3l-1.3,3.4h-1.3l4.2-10.8h1l4.2,10.8H180.1z M178.4,475.7l-1.2-3.3
		c-0.2-0.4-0.3-0.9-0.5-1.5c-0.1,0.5-0.3,1-0.5,1.5l-1.3,3.3H178.4z"/>
	<path class="st0" d="M191.8,480.2h-1.4l-5.9-9h-0.1c0.1,1.1,0.1,2,0.1,2.9v6.1h-1.2v-10.7h1.4l5.8,9h0.1c0-0.1,0-0.6-0.1-1.3
		c0-0.7,0-1.2,0-1.5v-6.1h1.2V480.2z"/>
	<path class="st0" d="M201.4,477.4c0,0.9-0.3,1.7-1,2.2s-1.6,0.8-2.8,0.8c-1.3,0-2.2-0.2-2.9-0.5v-1.2c0.4,0.2,0.9,0.3,1.4,0.4
		s1,0.2,1.5,0.2c0.8,0,1.5-0.2,1.9-0.5c0.4-0.3,0.6-0.8,0.6-1.3c0-0.4-0.1-0.7-0.2-0.9c-0.1-0.2-0.4-0.5-0.7-0.7
		c-0.3-0.2-0.9-0.4-1.6-0.7c-1-0.4-1.7-0.8-2.1-1.3c-0.4-0.5-0.6-1.1-0.6-1.9c0-0.8,0.3-1.5,0.9-2s1.4-0.7,2.5-0.7
		c1.1,0,2,0.2,2.9,0.6l-0.4,1.1c-0.9-0.4-1.7-0.6-2.6-0.6c-0.7,0-1.2,0.1-1.5,0.4c-0.4,0.3-0.6,0.7-0.6,1.2c0,0.4,0.1,0.7,0.2,0.9
		c0.1,0.2,0.4,0.5,0.7,0.7c0.3,0.2,0.8,0.4,1.5,0.7c1.1,0.4,1.9,0.8,2.3,1.3C201.2,476.1,201.4,476.7,201.4,477.4z"/>
	<path class="st0" d="M213.5,480.2h-1.2l-2.2-7.2c-0.1-0.3-0.2-0.7-0.3-1.2c-0.1-0.5-0.2-0.8-0.2-0.9c-0.1,0.6-0.3,1.4-0.5,2.1
		l-2.1,7.1h-1.2l-2.8-10.7h1.3l1.7,6.6c0.2,0.9,0.4,1.8,0.5,2.5c0.1-0.9,0.3-1.8,0.6-2.6l1.9-6.5h1.3l2,6.6c0.2,0.8,0.4,1.6,0.6,2.6
		c0.1-0.7,0.3-1.5,0.5-2.5l1.7-6.6h1.3L213.5,480.2z"/>
	<path class="st0" d="M224.6,480.2h-6v-10.7h6v1.1h-4.7v3.4h4.4v1.1h-4.4v3.9h4.7V480.2z"/>
	<path class="st0" d="M228.8,475.8v4.5h-1.2v-10.7h2.9c1.3,0,2.3,0.3,2.9,0.8c0.6,0.5,0.9,1.3,0.9,2.3c0,1.4-0.7,2.4-2.2,2.9
		l2.9,4.8h-1.5l-2.6-4.5H228.8z M228.8,474.7h1.7c0.9,0,1.5-0.2,1.9-0.5c0.4-0.3,0.6-0.9,0.6-1.6c0-0.7-0.2-1.2-0.6-1.5
		c-0.4-0.3-1.1-0.5-2-0.5h-1.6V474.7z"/>
	<path class="st0" d="M247,480.2l5-10.9h-6.5V467h9.5v1.8l-5,11.5H247z"/>
	<path class="st0" d="M265.1,469.9c0,0.8-0.3,1.5-0.8,2.1c-0.5,0.6-1.2,1-2.1,1.2v0.1c1.1,0.1,1.9,0.5,2.4,1
		c0.6,0.5,0.8,1.2,0.8,2.1c0,1.3-0.5,2.3-1.4,3c-0.9,0.7-2.2,1.1-4,1.1c-1.4,0-2.7-0.2-3.8-0.7v-2.4c0.5,0.3,1.1,0.5,1.7,0.6
		c0.6,0.2,1.2,0.2,1.8,0.2c0.9,0,1.6-0.2,2.1-0.5c0.4-0.3,0.7-0.8,0.7-1.5c0-0.6-0.3-1.1-0.8-1.3s-1.3-0.4-2.4-0.4h-1v-2.2h1
		c1,0,1.8-0.1,2.3-0.4s0.7-0.7,0.7-1.4c0-1-0.6-1.5-1.9-1.5c-0.4,0-0.9,0.1-1.3,0.2c-0.5,0.1-1,0.4-1.5,0.8l-1.3-1.9
		c1.2-0.9,2.7-1.3,4.3-1.3c1.4,0,2.5,0.3,3.3,0.8C264.7,468.2,265.1,468.9,265.1,469.9z"/>
	<path class="st0" d="M244.9,482.1v-0.9h21.2v0.9H244.9z"/>
</g>
<rect x="0.6" y="449.6" class="st5" width="77.8" height="8.5"/>
<g class="st11">
	<path class="st0" d="M42.4,421.9l-1.3-3.4h-4.3l-1.3,3.4h-1.3l4.2-10.8h1l4.2,10.8H42.4z M40.7,417.4l-1.2-3.3
		c-0.2-0.4-0.3-0.9-0.5-1.5c-0.1,0.5-0.3,1-0.5,1.5l-1.3,3.3H40.7z"/>
	<path class="st0" d="M54.1,421.9h-1.4l-5.9-9h-0.1c0.1,1.1,0.1,2,0.1,2.9v6.1h-1.2v-10.7h1.4l5.8,9h0.1c0-0.1,0-0.6-0.1-1.3
		c0-0.7,0-1.2,0-1.5v-6.1h1.2V421.9z"/>
	<path class="st0" d="M63.7,419.1c0,0.9-0.3,1.7-1,2.2s-1.6,0.8-2.8,0.8c-1.3,0-2.2-0.2-2.9-0.5v-1.2c0.4,0.2,0.9,0.3,1.4,0.4
		s1,0.2,1.5,0.2c0.8,0,1.5-0.2,1.9-0.5c0.4-0.3,0.6-0.8,0.6-1.3c0-0.4-0.1-0.7-0.2-0.9c-0.1-0.2-0.4-0.5-0.7-0.7
		c-0.3-0.2-0.9-0.4-1.6-0.7c-1-0.4-1.7-0.8-2.1-1.3c-0.4-0.5-0.6-1.1-0.6-1.9c0-0.8,0.3-1.5,0.9-2s1.4-0.7,2.5-0.7
		c1.1,0,2,0.2,2.9,0.6l-0.4,1.1c-0.9-0.4-1.7-0.6-2.6-0.6c-0.7,0-1.2,0.1-1.5,0.4c-0.4,0.3-0.6,0.7-0.6,1.2c0,0.4,0.1,0.7,0.2,0.9
		c0.1,0.2,0.4,0.5,0.7,0.7c0.3,0.2,0.8,0.4,1.5,0.7c1.1,0.4,1.9,0.8,2.3,1.3C63.5,417.8,63.7,418.3,63.7,419.1z"/>
	<path class="st0" d="M75.8,421.9h-1.2l-2.2-7.2c-0.1-0.3-0.2-0.7-0.3-1.2c-0.1-0.5-0.2-0.8-0.2-0.9c-0.1,0.6-0.3,1.4-0.5,2.1
		l-2.1,7.1h-1.2l-2.8-10.7h1.3l1.7,6.6c0.2,0.9,0.4,1.8,0.5,2.5c0.1-0.9,0.3-1.8,0.6-2.6l1.9-6.5h1.3l2,6.6c0.2,0.8,0.4,1.6,0.6,2.6
		c0.1-0.7,0.3-1.5,0.5-2.5l1.7-6.6h1.3L75.8,421.9z"/>
	<path class="st0" d="M86.9,421.9h-6v-10.7h6v1.1h-4.7v3.4h4.4v1.1h-4.4v3.9h4.7V421.9z"/>
	<path class="st0" d="M91.1,417.5v4.5h-1.2v-10.7h2.9c1.3,0,2.3,0.3,2.9,0.8c0.6,0.5,0.9,1.3,0.9,2.3c0,1.4-0.7,2.4-2.2,2.9l2.9,4.8
		H96l-2.6-4.5H91.1z M91.1,416.4h1.7c0.9,0,1.5-0.2,1.9-0.5c0.4-0.3,0.6-0.9,0.6-1.6c0-0.7-0.2-1.2-0.6-1.5c-0.4-0.3-1.1-0.5-2-0.5
		h-1.6V416.4z"/>
	<path class="st0" d="M105.7,421.9h-6v-10.7h6v1.1H101v3.4h4.4v1.1H101v3.9h4.7V421.9z"/>
	<path class="st0" d="M117.2,416.5c0,1.8-0.5,3.1-1.4,4.1c-1,0.9-2.3,1.4-4.1,1.4h-3v-10.7h3.3c1.7,0,3,0.5,3.9,1.4
		C116.8,413.5,117.2,414.8,117.2,416.5z M115.9,416.5c0-1.4-0.4-2.4-1.1-3.2c-0.7-0.7-1.7-1.1-3.1-1.1h-1.8v8.6h1.5
		c1.5,0,2.6-0.4,3.3-1.1C115.5,419,115.9,417.9,115.9,416.5z"/>
	<path class="st0" d="M137.7,421.9h-9.3v-2l3.3-3.4c1-1,1.6-1.7,1.9-2.1s0.5-0.8,0.7-1.1s0.2-0.7,0.2-1c0-0.5-0.1-0.9-0.4-1.2
		c-0.3-0.3-0.7-0.4-1.2-0.4c-0.5,0-1,0.1-1.5,0.4s-1,0.6-1.5,1l-1.5-1.8c0.7-0.6,1.2-1,1.6-1.2c0.4-0.2,0.9-0.4,1.4-0.5
		c0.5-0.1,1.1-0.2,1.7-0.2c0.8,0,1.6,0.2,2.2,0.5s1.1,0.7,1.5,1.3c0.4,0.5,0.5,1.2,0.5,1.9c0,0.6-0.1,1.2-0.3,1.7
		c-0.2,0.5-0.5,1.1-1,1.6c-0.5,0.6-1.2,1.4-2.4,2.4l-1.7,1.6v0.1h5.8V421.9z"/>
	<path class="st0" d="M148.3,414.3c0,2.6-0.6,4.6-1.7,5.9s-2.8,1.9-5,1.9c-0.8,0-1.4,0-1.8-0.1v-2.3c0.5,0.1,1,0.2,1.6,0.2
		c0.9,0,1.7-0.1,2.3-0.4c0.6-0.3,1.1-0.7,1.4-1.3c0.3-0.6,0.5-1.4,0.6-2.4h-0.1c-0.4,0.6-0.8,1-1.2,1.2c-0.5,0.2-1,0.3-1.7,0.3
		c-1.2,0-2.1-0.4-2.7-1.1c-0.7-0.7-1-1.8-1-3.1c0-1.4,0.4-2.5,1.2-3.4c0.8-0.8,1.9-1.2,3.3-1.2c1,0,1.8,0.2,2.6,0.7
		c0.7,0.5,1.3,1.1,1.7,2S148.3,413.1,148.3,414.3z M143.5,410.7c-0.6,0-1,0.2-1.4,0.6c-0.3,0.4-0.5,1-0.5,1.7c0,0.6,0.1,1.2,0.4,1.5
		c0.3,0.4,0.7,0.6,1.4,0.6c0.6,0,1.1-0.2,1.5-0.6c0.4-0.4,0.6-0.8,0.6-1.3c0-0.7-0.2-1.3-0.6-1.8C144.5,411,144.1,410.7,143.5,410.7
		z"/>
	<path class="st0" d="M158.9,415.3c0,2.3-0.4,4-1.1,5.1s-1.9,1.7-3.5,1.7c-1.5,0-2.7-0.6-3.5-1.7c-0.8-1.2-1.2-2.8-1.2-5.1
		c0-2.3,0.4-4.1,1.1-5.2s1.9-1.7,3.5-1.7c1.5,0,2.7,0.6,3.5,1.7C158.5,411.3,158.9,413,158.9,415.3z M152.4,415.3
		c0,1.6,0.1,2.8,0.4,3.5s0.8,1.1,1.4,1.1c0.7,0,1.1-0.4,1.4-1.1c0.3-0.7,0.4-1.9,0.4-3.5c0-1.6-0.1-2.8-0.4-3.5
		c-0.3-0.7-0.8-1.1-1.4-1.1c-0.7,0-1.1,0.4-1.4,1.1C152.5,412.5,152.4,413.7,152.4,415.3z"/>
	<path class="st0" d="M127.7,423.8v-0.9h31.9v0.9H127.7z"/>
</g>
<rect x="0.6" y="392" class="st1" width="77.8" height="8.5"/>
<g class="st11">
	<path class="st0" d="M44.3,589.9c0,1.8-0.5,3.1-1.4,4.1c-1,0.9-2.3,1.4-4.1,1.4h-3v-10.7H39c1.7,0,3,0.5,3.9,1.4
		C43.8,586.9,44.3,588.2,44.3,589.9z M42.9,589.9c0-1.4-0.4-2.4-1.1-3.2c-0.7-0.7-1.7-1.1-3.1-1.1H37v8.6h1.5c1.5,0,2.6-0.4,3.3-1.1
		C42.6,592.4,42.9,591.4,42.9,589.9z"/>
	<path class="st0" d="M55.3,584.6v6.9c0,1.2-0.4,2.2-1.1,2.9s-1.8,1-3,1s-2.3-0.4-3-1.1c-0.7-0.7-1.1-1.7-1.1-2.9v-6.9h1.2v7
		c0,0.9,0.2,1.6,0.7,2.1s1.2,0.7,2.2,0.7c0.9,0,1.6-0.2,2.1-0.7c0.5-0.5,0.7-1.2,0.7-2.1v-7H55.3z"/>
	<path class="st0" d="M65.5,587.8c0,1.1-0.4,1.9-1.1,2.5c-0.7,0.6-1.8,0.9-3.2,0.9H60v4.2h-1.2v-10.7h2.8
		C64.2,584.6,65.5,585.7,65.5,587.8z M60,590.1h1.1c1.1,0,1.9-0.2,2.4-0.5s0.7-0.9,0.7-1.7c0-0.7-0.2-1.2-0.7-1.6s-1.2-0.5-2.2-0.5
		H60V590.1z"/>
	<path class="st0" d="M68.3,595.3v-10.7h1.2v9.6h4.7v1.1H68.3z"/>
	<path class="st0" d="M76.7,595.3v-10.7H78v10.7H76.7z"/>
	<path class="st0" d="M86.1,585.6c-1.2,0-2.1,0.4-2.8,1.2c-0.7,0.8-1,1.9-1,3.2c0,1.4,0.3,2.5,1,3.2c0.7,0.8,1.6,1.1,2.8,1.1
		c0.7,0,1.6-0.1,2.6-0.4v1.1c-0.7,0.3-1.7,0.4-2.7,0.4c-1.6,0-2.8-0.5-3.7-1.4c-0.9-1-1.3-2.3-1.3-4.1c0-1.1,0.2-2.1,0.6-2.9
		c0.4-0.8,1-1.5,1.8-1.9c0.8-0.4,1.7-0.7,2.8-0.7c1.1,0,2.1,0.2,2.9,0.6l-0.5,1.1C87.7,585.8,86.9,585.6,86.1,585.6z"/>
	<path class="st0" d="M98.3,595.3l-1.3-3.4h-4.3l-1.3,3.4h-1.3l4.2-10.8h1l4.2,10.8H98.3z M96.5,590.8l-1.2-3.3
		c-0.2-0.4-0.3-0.9-0.5-1.5c-0.1,0.5-0.3,1-0.5,1.5l-1.3,3.3H96.5z"/>
	<path class="st0" d="M104.9,595.3h-1.2v-9.6h-3.4v-1.1h8v1.1h-3.4V595.3z"/>
	<path class="st0" d="M116.5,595.3h-6v-10.7h6v1.1h-4.7v3.4h4.4v1.1h-4.4v3.9h4.7V595.3z"/>
	<path class="st0" d="M125.1,590.9v4.5h-1.2v-10.7h2.9c1.3,0,2.3,0.3,2.9,0.8c0.6,0.5,0.9,1.3,0.9,2.3c0,1.4-0.7,2.4-2.2,2.9
		l2.9,4.8H130l-2.6-4.5H125.1z M125.1,589.8h1.7c0.9,0,1.5-0.2,1.9-0.5c0.4-0.3,0.6-0.9,0.6-1.6c0-0.7-0.2-1.2-0.6-1.5
		c-0.4-0.3-1.1-0.5-2-0.5h-1.6V589.8z"/>
	<path class="st0" d="M139.7,595.3h-6v-10.7h6v1.1H135v3.4h4.4v1.1H135v3.9h4.7V595.3z"/>
	<path class="st0" d="M152,590c0,1.4-0.3,2.5-0.8,3.4s-1.3,1.5-2.3,1.8l2.5,2.7h-1.8l-2.1-2.4l-0.4,0c-1.6,0-2.8-0.5-3.7-1.4
		c-0.9-1-1.3-2.3-1.3-4.1c0-1.7,0.4-3.1,1.3-4.1c0.9-1,2.1-1.4,3.7-1.4c1.5,0,2.7,0.5,3.6,1.5C151.5,586.9,152,588.3,152,590z
		 M143.4,590c0,1.5,0.3,2.6,0.9,3.3c0.6,0.8,1.5,1.1,2.7,1.1c1.2,0,2.1-0.4,2.7-1.1s0.9-1.8,0.9-3.3c0-1.4-0.3-2.5-0.9-3.3
		c-0.6-0.7-1.5-1.1-2.7-1.1c-1.2,0-2.1,0.4-2.7,1.1C143.8,587.5,143.4,588.5,143.4,590z"/>
	<path class="st0" d="M163,584.6v6.9c0,1.2-0.4,2.2-1.1,2.9s-1.8,1-3,1s-2.3-0.4-3-1.1c-0.7-0.7-1.1-1.7-1.1-2.9v-6.9h1.2v7
		c0,0.9,0.2,1.6,0.7,2.1s1.2,0.7,2.2,0.7c0.9,0,1.6-0.2,2.1-0.7c0.5-0.5,0.7-1.2,0.7-2.1v-7H163z"/>
	<path class="st0" d="M172.4,595.3h-6v-10.7h6v1.1h-4.7v3.4h4.4v1.1h-4.4v3.9h4.7V595.3z"/>
	<path class="st0" d="M181.4,592.5c0,0.9-0.3,1.7-1,2.2s-1.6,0.8-2.8,0.8c-1.3,0-2.2-0.2-2.9-0.5v-1.2c0.4,0.2,0.9,0.3,1.4,0.4
		s1,0.2,1.5,0.2c0.8,0,1.5-0.2,1.9-0.5c0.4-0.3,0.6-0.8,0.6-1.3c0-0.4-0.1-0.7-0.2-0.9c-0.1-0.2-0.4-0.5-0.7-0.7
		c-0.3-0.2-0.9-0.4-1.6-0.7c-1-0.4-1.7-0.8-2.1-1.3c-0.4-0.5-0.6-1.1-0.6-1.9c0-0.8,0.3-1.5,0.9-2s1.4-0.7,2.5-0.7
		c1.1,0,2,0.2,2.9,0.6l-0.4,1.1c-0.9-0.4-1.7-0.6-2.6-0.6c-0.7,0-1.2,0.1-1.5,0.4c-0.4,0.3-0.6,0.7-0.6,1.2c0,0.4,0.1,0.7,0.2,0.9
		c0.1,0.2,0.4,0.5,0.7,0.7c0.3,0.2,0.8,0.4,1.5,0.7c1.1,0.4,1.9,0.8,2.3,1.3C181.2,591.2,181.4,591.8,181.4,592.5z"/>
	<path class="st0" d="M187.5,595.3h-1.2v-9.6h-3.4v-1.1h8v1.1h-3.4V595.3z"/>
	<path class="st0" d="M210.6,595.3h-9.3v-2l3.3-3.4c1-1,1.6-1.7,1.9-2.1s0.5-0.8,0.7-1.1s0.2-0.7,0.2-1c0-0.5-0.1-0.9-0.4-1.2
		c-0.3-0.3-0.7-0.4-1.2-0.4c-0.5,0-1,0.1-1.5,0.4s-1,0.6-1.5,1l-1.5-1.8c0.7-0.6,1.2-1,1.6-1.2c0.4-0.2,0.9-0.4,1.4-0.5
		c0.5-0.1,1.1-0.2,1.7-0.2c0.8,0,1.6,0.2,2.2,0.5s1.1,0.7,1.5,1.3c0.4,0.5,0.5,1.2,0.5,1.9c0,0.6-0.1,1.2-0.3,1.7
		c-0.2,0.5-0.5,1.1-1,1.6c-0.5,0.6-1.2,1.4-2.4,2.4l-1.7,1.6v0.1h5.8V595.3z"/>
	<path class="st0" d="M221.2,587.7c0,2.6-0.6,4.6-1.7,5.9s-2.8,1.9-5,1.9c-0.8,0-1.4,0-1.8-0.1v-2.3c0.5,0.1,1,0.2,1.6,0.2
		c0.9,0,1.7-0.1,2.3-0.4c0.6-0.3,1.1-0.7,1.4-1.3c0.3-0.6,0.5-1.4,0.6-2.4h-0.1c-0.4,0.6-0.8,1-1.2,1.2c-0.5,0.2-1,0.3-1.7,0.3
		c-1.2,0-2.1-0.4-2.7-1.1c-0.7-0.7-1-1.8-1-3.1c0-1.4,0.4-2.5,1.2-3.4c0.8-0.8,1.9-1.2,3.3-1.2c1,0,1.8,0.2,2.6,0.7
		c0.7,0.5,1.3,1.1,1.7,2S221.2,586.5,221.2,587.7z M216.4,584.2c-0.6,0-1,0.2-1.4,0.6c-0.3,0.4-0.5,1-0.5,1.7c0,0.6,0.1,1.2,0.4,1.5
		c0.3,0.4,0.7,0.6,1.4,0.6c0.6,0,1.1-0.2,1.5-0.6c0.4-0.4,0.6-0.8,0.6-1.3c0-0.7-0.2-1.3-0.6-1.8C217.4,584.4,217,584.2,216.4,584.2
		z"/>
	<path class="st0" d="M200.6,597.2v-0.9h21.2v0.9H200.6z"/>
</g>
<rect x="0.6" y="566.2" class="st6" width="77.8" height="8.5"/>
<g class="st11">
	<path class="st0" d="M37,532.6v4.5h-1.2v-10.7h2.9c1.3,0,2.3,0.3,2.9,0.8s0.9,1.3,0.9,2.3c0,1.4-0.7,2.4-2.2,2.9l2.9,4.8h-1.5
		l-2.6-4.5H37z M37,531.5h1.7c0.9,0,1.5-0.2,1.9-0.5c0.4-0.3,0.6-0.9,0.6-1.6c0-0.7-0.2-1.2-0.6-1.5c-0.4-0.3-1.1-0.5-2-0.5H37
		V531.5z"/>
	<path class="st0" d="M51.5,537h-6v-10.7h6v1.1h-4.7v3.4h4.4v1.1h-4.4v3.9h4.7V537z"/>
	<path class="st0" d="M55.7,537h-1.2v-10.7h6v1.1h-4.7v3.9h4.4v1.1h-4.4V537z"/>
	<path class="st0" d="M68.8,537h-6v-10.7h6v1.1h-4.7v3.4h4.4v1.1h-4.4v3.9h4.7V537z"/>
	<path class="st0" d="M73,532.6v4.5h-1.2v-10.7h2.9c1.3,0,2.3,0.3,2.9,0.8s0.9,1.3,0.9,2.3c0,1.4-0.7,2.4-2.2,2.9l2.9,4.8h-1.5
		l-2.6-4.5H73z M73,531.5h1.7c0.9,0,1.5-0.2,1.9-0.5c0.4-0.3,0.6-0.9,0.6-1.6c0-0.7-0.2-1.2-0.6-1.5c-0.4-0.3-1.1-0.5-2-0.5H73
		V531.5z"/>
	<path class="st0" d="M82.8,532.6v4.5h-1.2v-10.7h2.9c1.3,0,2.3,0.3,2.9,0.8s0.9,1.3,0.9,2.3c0,1.4-0.7,2.4-2.2,2.9l2.9,4.8h-1.5
		l-2.6-4.5H82.8z M82.8,531.5h1.7c0.9,0,1.5-0.2,1.9-0.5c0.4-0.3,0.6-0.9,0.6-1.6c0-0.7-0.2-1.2-0.6-1.5c-0.4-0.3-1.1-0.5-2-0.5
		h-1.6V531.5z"/>
	<path class="st0" d="M98.2,537l-1.3-3.4h-4.3l-1.3,3.4H90l4.2-10.8h1l4.2,10.8H98.2z M96.5,532.5l-1.2-3.3
		c-0.2-0.4-0.3-0.9-0.5-1.5c-0.1,0.5-0.3,1-0.5,1.5l-1.3,3.3H96.5z"/>
	<path class="st0" d="M101.5,537v-10.7h1.2v9.6h4.7v1.1H101.5z"/>
	<path class="st0" d="M117.7,537h-1.2v-9.6H113v-1.1h8v1.1h-3.4V537z"/>
	<path class="st0" d="M132.6,531.7c0,1.7-0.4,3.1-1.3,4c-0.9,1-2.1,1.5-3.6,1.5c-1.6,0-2.8-0.5-3.7-1.4c-0.9-1-1.3-2.3-1.3-4.1
		c0-1.7,0.4-3.1,1.3-4.1c0.9-1,2.1-1.4,3.7-1.4c1.5,0,2.7,0.5,3.6,1.5C132.1,528.6,132.6,530,132.6,531.7z M124,531.7
		c0,1.5,0.3,2.6,0.9,3.3c0.6,0.8,1.5,1.1,2.7,1.1c1.2,0,2.1-0.4,2.7-1.1s0.9-1.8,0.9-3.3c0-1.4-0.3-2.5-0.9-3.3
		c-0.6-0.7-1.5-1.1-2.7-1.1c-1.2,0-2.1,0.4-2.7,1.1C124.3,529.1,124,530.2,124,531.7z"/>
	<path class="st0" d="M146.8,537l-1.3-3.4h-4.3l-1.3,3.4h-1.3l4.2-10.8h1L148,537H146.8z M145,532.5l-1.2-3.3
		c-0.2-0.4-0.3-0.9-0.5-1.5c-0.1,0.5-0.3,1-0.5,1.5l-1.3,3.3H145z"/>
	<path class="st0" d="M158.5,537H157l-5.9-9h-0.1c0.1,1.1,0.1,2,0.1,2.9v6.1h-1.1v-10.7h1.4l5.8,9h0.1c0-0.1,0-0.6-0.1-1.3
		c0-0.7,0-1.2,0-1.5v-6.1h1.2V537z"/>
	<path class="st0" d="M171.3,531.7c0,1.7-0.4,3.1-1.3,4c-0.9,1-2.1,1.5-3.6,1.5c-1.6,0-2.8-0.5-3.7-1.4c-0.9-1-1.3-2.3-1.3-4.1
		c0-1.7,0.4-3.1,1.3-4.1c0.9-1,2.1-1.4,3.7-1.4c1.5,0,2.7,0.5,3.6,1.5C170.9,528.6,171.3,530,171.3,531.7z M162.8,531.7
		c0,1.5,0.3,2.6,0.9,3.3c0.6,0.8,1.5,1.1,2.7,1.1c1.2,0,2.1-0.4,2.7-1.1s0.9-1.8,0.9-3.3c0-1.4-0.3-2.5-0.9-3.3
		c-0.6-0.7-1.5-1.1-2.7-1.1c-1.2,0-2.1,0.4-2.7,1.1C163.1,529.1,162.8,530.2,162.8,531.7z"/>
	<path class="st0" d="M177.6,537h-1.2v-9.6h-3.4v-1.1h8v1.1h-3.4V537z"/>
	<path class="st0" d="M191.3,537H190v-5h-5.6v5h-1.2v-10.7h1.2v4.6h5.6v-4.6h1.2V537z"/>
	<path class="st0" d="M200.8,537h-6v-10.7h6v1.1H196v3.4h4.4v1.1H196v3.9h4.7V537z"/>
	<path class="st0" d="M205,532.6v4.5h-1.2v-10.7h2.9c1.3,0,2.3,0.3,2.9,0.8s0.9,1.3,0.9,2.3c0,1.4-0.7,2.4-2.2,2.9l2.9,4.8h-1.5
		l-2.6-4.5H205z M205,531.5h1.7c0.9,0,1.5-0.2,1.9-0.5c0.4-0.3,0.6-0.9,0.6-1.6c0-0.7-0.2-1.2-0.6-1.5c-0.4-0.3-1.1-0.5-2-0.5H205
		V531.5z"/>
	<path class="st0" d="M224.8,537l-1.3-3.4h-4.3l-1.3,3.4h-1.3l4.2-10.8h1l4.2,10.8H224.8z M223.1,532.5l-1.2-3.3
		c-0.2-0.4-0.3-0.9-0.5-1.5c-0.1,0.5-0.3,1-0.5,1.5l-1.3,3.3H223.1z"/>
	<path class="st0" d="M232.8,531.4h3.6v5.2c-0.6,0.2-1.1,0.3-1.7,0.4c-0.6,0.1-1.3,0.1-2,0.1c-1.6,0-2.9-0.5-3.8-1.4
		c-0.9-1-1.4-2.3-1.4-4.1c0-1.1,0.2-2.1,0.7-2.9c0.4-0.8,1.1-1.5,1.9-1.9c0.8-0.4,1.8-0.7,3-0.7c1.1,0,2.2,0.2,3.2,0.6l-0.5,1.1
		c-1-0.4-1.9-0.6-2.8-0.6c-1.3,0-2.3,0.4-3.1,1.2s-1.1,1.9-1.1,3.2c0,1.4,0.4,2.5,1.1,3.3s1.7,1.1,3.1,1.1c0.7,0,1.5-0.1,2.2-0.3
		v-3.3h-2.4V531.4z"/>
	<path class="st0" d="M245.6,537h-6v-10.7h6v1.1h-4.7v3.4h4.4v1.1h-4.4v3.9h4.7V537z"/>
	<path class="st0" d="M256.9,537h-1.4l-5.9-9h-0.1c0.1,1.1,0.1,2,0.1,2.9v6.1h-1.1v-10.7h1.4l5.8,9h0.1c0-0.1,0-0.6-0.1-1.3
		c0-0.7,0-1.2,0-1.5v-6.1h1.2V537z"/>
	<path class="st0" d="M265,527.3c-1.2,0-2.1,0.4-2.8,1.2c-0.7,0.8-1,1.9-1,3.2c0,1.4,0.3,2.5,1,3.2c0.7,0.8,1.6,1.1,2.8,1.1
		c0.7,0,1.6-0.1,2.6-0.4v1.1c-0.7,0.3-1.7,0.4-2.7,0.4c-1.6,0-2.8-0.5-3.7-1.4c-0.9-1-1.3-2.3-1.3-4.1c0-1.1,0.2-2.1,0.6-2.9
		c0.4-0.8,1-1.5,1.8-1.9s1.7-0.7,2.8-0.7c1.1,0,2.1,0.2,2.9,0.6l-0.5,1.1C266.7,527.5,265.9,527.3,265,527.3z"/>
	<path class="st0" d="M273.2,531.7l2.9-5.4h1.3l-3.6,6.6v4.2h-1.3v-4.1l-3.6-6.6h1.4L273.2,531.7z"/>
	<path class="st0" d="M297.3,534.3h-1.6v2.8H293v-2.8h-5.7v-2l5.8-8.6h2.6v8.3h1.6V534.3z M293,532.1v-2.3c0-0.4,0-0.9,0-1.6
		c0-0.7,0.1-1.1,0.1-1.2H293c-0.2,0.5-0.5,1-0.8,1.5l-2.4,3.7H293z"/>
	<path class="st0" d="M307.6,537h-9.3v-2l3.3-3.4c1-1,1.6-1.7,1.9-2.1s0.5-0.8,0.7-1.1c0.1-0.3,0.2-0.7,0.2-1c0-0.5-0.1-0.9-0.4-1.2
		c-0.3-0.3-0.7-0.4-1.2-0.4c-0.5,0-1,0.1-1.5,0.4s-1,0.6-1.5,1l-1.5-1.8c0.7-0.6,1.2-1,1.6-1.2c0.4-0.2,0.9-0.4,1.4-0.5
		c0.5-0.1,1.1-0.2,1.7-0.2c0.8,0,1.6,0.2,2.2,0.5s1.1,0.7,1.5,1.3s0.5,1.2,0.5,1.9c0,0.6-0.1,1.2-0.3,1.7c-0.2,0.5-0.5,1.1-1,1.6
		c-0.5,0.6-1.2,1.4-2.4,2.4l-1.7,1.6v0.1h5.8V537z"/>
	<path class="st0" d="M287,538.9V538h21.2v0.9H287z"/>
</g>
<rect x="0.6" y="508.6" class="st4" width="77.8" height="8.5"/>
<g class="st11">
	<path class="st0" d="M44.1,652.5h-1.4l-5.9-9h-0.1c0.1,1.1,0.1,2,0.1,2.9v6.1h-1.2v-10.7h1.4l5.8,9H43c0-0.1,0-0.6-0.1-1.3
		c0-0.7,0-1.2,0-1.5v-6.1h1.2V652.5z"/>
	<path class="st0" d="M56.9,647.2c0,1.7-0.4,3.1-1.3,4c-0.9,1-2.1,1.5-3.6,1.5c-1.6,0-2.8-0.5-3.7-1.4c-0.9-1-1.3-2.3-1.3-4.1
		c0-1.7,0.4-3.1,1.3-4.1c0.9-1,2.1-1.4,3.7-1.4c1.5,0,2.7,0.5,3.6,1.5C56.5,644.1,56.9,645.4,56.9,647.2z M48.4,647.2
		c0,1.5,0.3,2.6,0.9,3.3c0.6,0.8,1.5,1.1,2.7,1.1c1.2,0,2.1-0.4,2.7-1.1s0.9-1.8,0.9-3.3c0-1.4-0.3-2.5-0.9-3.3
		c-0.6-0.7-1.5-1.1-2.7-1.1c-1.2,0-2.1,0.4-2.7,1.1C48.7,644.6,48.4,645.7,48.4,647.2z"/>
	<path class="st0" d="M63.2,652.5h-1.2v-9.6h-3.4v-1.1h8v1.1h-3.4V652.5z"/>
	<path class="st0" d="M77.9,646.9h3.6v5.2c-0.6,0.2-1.1,0.3-1.7,0.4c-0.6,0.1-1.3,0.1-2,0.1c-1.6,0-2.9-0.5-3.8-1.4
		c-0.9-1-1.4-2.3-1.4-4.1c0-1.1,0.2-2.1,0.7-2.9c0.4-0.8,1.1-1.5,1.9-1.9c0.8-0.4,1.8-0.7,3-0.7c1.1,0,2.2,0.2,3.2,0.6l-0.5,1.1
		c-1-0.4-1.9-0.6-2.8-0.6c-1.3,0-2.3,0.4-3.1,1.2s-1.1,1.9-1.1,3.2c0,1.4,0.4,2.5,1.1,3.3c0.7,0.7,1.7,1.1,3.1,1.1
		c0.7,0,1.5-0.1,2.2-0.3V648h-2.4V646.9z"/>
	<path class="st0" d="M86,648.1v4.5h-1.2v-10.7h2.9c1.3,0,2.3,0.3,2.9,0.8c0.6,0.5,0.9,1.3,0.9,2.3c0,1.4-0.7,2.4-2.2,2.9l2.9,4.8
		h-1.5l-2.6-4.5H86z M86,647h1.7c0.9,0,1.5-0.2,1.9-0.5c0.4-0.3,0.6-0.9,0.6-1.6c0-0.7-0.2-1.2-0.6-1.5c-0.4-0.3-1.1-0.5-2-0.5H86
		V647z"/>
	<path class="st0" d="M101.3,652.5l-1.3-3.4h-4.3l-1.3,3.4h-1.3l4.2-10.8h1l4.2,10.8H101.3z M99.6,648l-1.2-3.3
		c-0.2-0.4-0.3-0.9-0.5-1.5c-0.1,0.5-0.3,1-0.5,1.5l-1.3,3.3H99.6z"/>
	<path class="st0" d="M113,652.5h-1.4l-5.9-9h-0.1c0.1,1.1,0.1,2,0.1,2.9v6.1h-1.2v-10.7h1.4l5.8,9h0.1c0-0.1,0-0.6-0.1-1.3
		c0-0.7,0-1.2,0-1.5v-6.1h1.2V652.5z"/>
	<path class="st0" d="M119.9,652.5h-1.2v-9.6h-3.4v-1.1h8v1.1h-3.4V652.5z"/>
	<path class="st0" d="M131.4,652.5h-6v-10.7h6v1.1h-4.7v3.4h4.4v1.1h-4.4v3.9h4.7V652.5z"/>
	<path class="st0" d="M142.9,647.1c0,1.8-0.5,3.1-1.4,4.1c-1,0.9-2.3,1.4-4.1,1.4h-3v-10.7h3.3c1.7,0,3,0.5,3.9,1.4
		C142.5,644.1,142.9,645.4,142.9,647.1z M141.6,647.1c0-1.4-0.4-2.4-1.1-3.2c-0.7-0.7-1.7-1.1-3.1-1.1h-1.8v8.6h1.5
		c1.5,0,2.6-0.4,3.3-1.1C141.2,649.6,141.6,648.5,141.6,647.1z"/>
	<path class="st0" d="M163.4,652.5h-9.3v-2l3.3-3.4c1-1,1.6-1.7,1.9-2.1s0.5-0.8,0.7-1.1c0.1-0.3,0.2-0.7,0.2-1
		c0-0.5-0.1-0.9-0.4-1.2c-0.3-0.3-0.7-0.4-1.2-0.4c-0.5,0-1,0.1-1.5,0.4s-1,0.6-1.5,1l-1.5-1.8c0.7-0.6,1.2-1,1.6-1.2
		c0.4-0.2,0.9-0.4,1.4-0.5s1.1-0.2,1.7-0.2c0.8,0,1.6,0.2,2.2,0.5s1.1,0.7,1.5,1.3c0.4,0.5,0.5,1.2,0.5,1.9c0,0.6-0.1,1.2-0.3,1.7
		c-0.2,0.5-0.5,1.1-1,1.6c-0.5,0.6-1.2,1.4-2.4,2.4l-1.7,1.6v0.1h5.8V652.5z"/>
	<path class="st0" d="M171.7,652.5h-2.8v-7.7l0-1.3l0-1.4c-0.5,0.5-0.8,0.8-1,0.9l-1.5,1.2l-1.4-1.7l4.3-3.4h2.3V652.5z"/>
	<path class="st0" d="M153.4,654.4v-0.9h21.2v0.9H153.4z"/>
</g>
<rect x="0.6" y="624.9" class="st8" width="77.8" height="8"/>
<g class="st11">
	<path d="M793.6,70.3h-6.3V59h6.3v1.2h-5v3.6h4.7V65h-4.7v4.2h5V70.3z"/>
	<path d="M803.6,70.3h-1.5l-3-5l-3.1,5h-1.4l3.8-5.9l-3.5-5.4h1.5l2.8,4.5L802,59h1.4l-3.5,5.4L803.6,70.3z"/>
	<path d="M812.4,62.3c0,1.1-0.4,2-1.2,2.6c-0.8,0.6-1.9,0.9-3.4,0.9h-1.3v4.5h-1.3V59h2.9C811,59,812.4,60.1,812.4,62.3z
		 M806.6,64.7h1.2c1.2,0,2-0.2,2.5-0.6c0.5-0.4,0.8-1,0.8-1.8c0-0.7-0.2-1.3-0.7-1.7s-1.3-0.5-2.3-0.5h-1.5V64.7z"/>
	<path d="M814.8,70.3V59h1.3v10.1h5v1.2H814.8z"/>
	<path d="M832.8,64.6c0,1.8-0.5,3.2-1.4,4.3s-2.2,1.6-3.8,1.6c-1.7,0-3-0.5-3.9-1.5c-0.9-1-1.4-2.5-1.4-4.3c0-1.8,0.5-3.3,1.4-4.3
		c0.9-1,2.2-1.5,3.9-1.5c1.6,0,2.9,0.5,3.8,1.5C832.4,61.4,832.8,62.8,832.8,64.6z M823.8,64.6c0,1.5,0.3,2.7,1,3.5
		c0.7,0.8,1.6,1.2,2.8,1.2c1.3,0,2.2-0.4,2.8-1.2c0.6-0.8,1-2,1-3.5c0-1.5-0.3-2.7-1-3.5c-0.6-0.8-1.6-1.2-2.8-1.2
		c-1.3,0-2.2,0.4-2.9,1.2C824.2,62,823.8,63.1,823.8,64.6z"/>
	<path d="M836.7,65.6v4.7h-1.3V59h3.1c1.4,0,2.4,0.3,3.1,0.8s1,1.3,1,2.4c0,1.5-0.8,2.5-2.3,3l3.1,5.1h-1.6l-2.7-4.7H836.7z
		 M836.7,64.5h1.8c0.9,0,1.6-0.2,2-0.6c0.4-0.4,0.6-0.9,0.6-1.7c0-0.7-0.2-1.3-0.7-1.6c-0.4-0.3-1.1-0.5-2.1-0.5h-1.7V64.5z"/>
	<path d="M852.3,70.3l-1.4-3.6h-4.5l-1.4,3.6h-1.3l4.5-11.4h1.1l4.5,11.4H852.3z M850.5,65.5l-1.3-3.5c-0.2-0.4-0.3-1-0.5-1.6
		c-0.1,0.5-0.3,1-0.5,1.6l-1.3,3.5H850.5z"/>
	<path d="M858.7,70.3h-1.3V60.2h-3.6V59h8.5v1.2h-3.6V70.3z"/>
	<path d="M873.8,64.6c0,1.8-0.5,3.2-1.4,4.3s-2.2,1.6-3.8,1.6c-1.7,0-3-0.5-3.9-1.5c-0.9-1-1.4-2.5-1.4-4.3c0-1.8,0.5-3.3,1.4-4.3
		c0.9-1,2.2-1.5,3.9-1.5c1.6,0,2.9,0.5,3.8,1.5C873.3,61.4,873.8,62.8,873.8,64.6z M864.8,64.6c0,1.5,0.3,2.7,1,3.5
		c0.7,0.8,1.6,1.2,2.8,1.2c1.3,0,2.2-0.4,2.8-1.2c0.6-0.8,1-2,1-3.5c0-1.5-0.3-2.7-1-3.5c-0.6-0.8-1.6-1.2-2.8-1.2
		c-1.3,0-2.2,0.4-2.9,1.2C865.1,62,864.8,63.1,864.8,64.6z"/>
	<path d="M877.6,65.6v4.7h-1.3V59h3.1c1.4,0,2.4,0.3,3.1,0.8s1,1.3,1,2.4c0,1.5-0.8,2.5-2.3,3l3.1,5.1h-1.6l-2.7-4.7H877.6z
		 M877.6,64.5h1.8c0.9,0,1.6-0.2,2-0.6s0.7-0.9,0.7-1.7c0-0.7-0.2-1.3-0.7-1.6c-0.4-0.3-1.1-0.5-2.1-0.5h-1.7V64.5z"/>
	<path d="M889,64.6l3-5.7h1.4l-3.8,6.9v4.4h-1.3V66l-3.8-7h1.4L889,64.6z"/>
</g>
<g class="st11">
	<path d="M788.6,84.6v4.7h-1.3V78h3.1c1.4,0,2.4,0.3,3.1,0.8s1,1.3,1,2.4c0,1.5-0.8,2.5-2.3,3l3.1,5.1h-1.6l-2.7-4.7H788.6z
		 M788.6,83.5h1.8c0.9,0,1.6-0.2,2-0.6c0.4-0.4,0.6-0.9,0.6-1.7c0-0.7-0.2-1.3-0.7-1.6c-0.4-0.3-1.1-0.5-2.1-0.5h-1.7V83.5z"/>
	<path d="M803.4,89.3h-6.3V78h6.3v1.2h-5v3.6h4.7V84h-4.7v4.2h5V89.3z"/>
	<path d="M815.7,83.7c0,1.5-0.3,2.7-0.9,3.6s-1.4,1.6-2.5,2l2.7,2.8h-1.9l-2.2-2.6l-0.4,0c-1.7,0-3-0.5-3.9-1.5
		c-0.9-1-1.4-2.5-1.4-4.3c0-1.8,0.5-3.3,1.4-4.3c0.9-1,2.2-1.5,3.9-1.5c1.6,0,2.9,0.5,3.8,1.5C815.3,80.4,815.7,81.8,815.7,83.7z
		 M806.7,83.7c0,1.5,0.3,2.7,1,3.5c0.7,0.8,1.6,1.2,2.8,1.2c1.3,0,2.2-0.4,2.8-1.2c0.6-0.8,1-2,1-3.5c0-1.5-0.3-2.7-1-3.5
		c-0.6-0.8-1.6-1.2-2.8-1.2c-1.3,0-2.2,0.4-2.9,1.2C807,81,806.7,82.1,806.7,83.7z"/>
	<path d="M826.8,78v7.3c0,1.3-0.4,2.3-1.2,3c-0.8,0.7-1.8,1.1-3.2,1.1c-1.4,0-2.4-0.4-3.2-1.1c-0.7-0.7-1.1-1.8-1.1-3.1V78h1.3v7.4
		c0,0.9,0.3,1.7,0.8,2.2c0.5,0.5,1.3,0.8,2.3,0.8c1,0,1.7-0.3,2.2-0.8c0.5-0.5,0.8-1.2,0.8-2.2V78H826.8z"/>
	<path d="M836.1,89.3h-6.3V78h6.3v1.2h-5v3.6h4.7V84h-4.7v4.2h5V89.3z"/>
	<path d="M845,86.3c0,1-0.4,1.8-1.1,2.3c-0.7,0.6-1.7,0.8-2.9,0.8c-1.3,0-2.4-0.2-3.1-0.5v-1.3c0.5,0.2,1,0.4,1.5,0.5
		c0.5,0.1,1.1,0.2,1.6,0.2c0.9,0,1.5-0.2,2-0.5c0.4-0.3,0.7-0.8,0.7-1.4c0-0.4-0.1-0.7-0.2-1c-0.2-0.2-0.4-0.5-0.8-0.7
		c-0.4-0.2-0.9-0.5-1.7-0.7c-1.1-0.4-1.8-0.8-2.3-1.3c-0.5-0.5-0.7-1.2-0.7-2c0-0.9,0.3-1.6,1-2.1c0.7-0.5,1.5-0.8,2.6-0.8
		c1.1,0,2.2,0.2,3.1,0.6l-0.4,1.1c-0.9-0.4-1.8-0.6-2.7-0.6c-0.7,0-1.2,0.1-1.6,0.4c-0.4,0.3-0.6,0.7-0.6,1.2c0,0.4,0.1,0.7,0.2,1
		s0.4,0.5,0.7,0.7c0.3,0.2,0.9,0.4,1.6,0.7c1.2,0.4,2,0.9,2.4,1.4C844.8,84.9,845,85.5,845,86.3z"/>
	<path d="M850.8,89.3h-1.3V79.2h-3.6V78h8.5v1.2h-3.6V89.3z"/>
	<path d="M862.5,86.3c0,1-0.4,1.8-1.1,2.3c-0.7,0.6-1.7,0.8-2.9,0.8c-1.3,0-2.4-0.2-3.1-0.5v-1.3c0.5,0.2,1,0.4,1.5,0.5
		c0.5,0.1,1.1,0.2,1.6,0.2c0.9,0,1.5-0.2,2-0.5c0.4-0.3,0.7-0.8,0.7-1.4c0-0.4-0.1-0.7-0.2-1c-0.2-0.2-0.4-0.5-0.8-0.7
		s-0.9-0.5-1.7-0.7c-1.1-0.4-1.8-0.8-2.3-1.3c-0.5-0.5-0.7-1.2-0.7-2c0-0.9,0.3-1.6,1-2.1c0.7-0.5,1.5-0.8,2.6-0.8
		c1.1,0,2.2,0.2,3.1,0.6l-0.4,1.1c-0.9-0.4-1.8-0.6-2.7-0.6c-0.7,0-1.2,0.1-1.6,0.4c-0.4,0.3-0.6,0.7-0.6,1.2c0,0.4,0.1,0.7,0.2,1
		s0.4,0.5,0.7,0.7c0.3,0.2,0.9,0.4,1.6,0.7c1.2,0.4,2,0.9,2.4,1.4C862.2,84.9,862.5,85.5,862.5,86.3z"/>
</g>
<g>
	<path class="st0" d="M794.3,101c1.6,0,2.8,0.4,3.8,1.3c0.9,0.9,1.4,2.1,1.4,3.6c0,1.8-0.6,3.2-1.7,4.2s-2.7,1.5-4.8,1.5
		c-1.8,0-3.3-0.3-4.4-0.9v-3c0.6,0.3,1.3,0.6,2,0.8c0.8,0.2,1.5,0.3,2.2,0.3c2.1,0,3.1-0.9,3.1-2.6c0-1.6-1.1-2.5-3.3-2.5
		c-0.4,0-0.8,0-1.3,0.1c-0.5,0.1-0.9,0.2-1.2,0.3l-1.4-0.7l0.6-8.3h8.8V98h-5.8l-0.3,3.2l0.4-0.1C793,101,793.6,101,794.3,101z"/>
	<path class="st0" d="M812.6,103.2c0,2.8-0.5,4.9-1.4,6.3c-0.9,1.4-2.4,2-4.3,2c-1.9,0-3.3-0.7-4.2-2.1s-1.4-3.5-1.4-6.2
		c0-2.9,0.5-5,1.4-6.3c0.9-1.4,2.4-2,4.3-2c1.9,0,3.3,0.7,4.3,2.1C812.2,98.4,812.6,100.5,812.6,103.2z M804.7,103.2
		c0,2,0.2,3.4,0.5,4.3c0.3,0.9,0.9,1.3,1.7,1.3c0.8,0,1.4-0.4,1.7-1.3c0.4-0.9,0.5-2.3,0.5-4.3c0-2-0.2-3.4-0.5-4.3
		c-0.4-0.9-0.9-1.3-1.7-1.3c-0.8,0-1.4,0.4-1.7,1.3C804.9,99.8,804.7,101.3,804.7,103.2z"/>
	<path class="st0" d="M825.1,98.8c0,1-0.3,1.9-0.9,2.6c-0.6,0.7-1.5,1.2-2.6,1.5v0.1c1.3,0.2,2.3,0.6,3,1.2c0.7,0.6,1,1.5,1,2.6
		c0,1.6-0.6,2.8-1.7,3.7s-2.8,1.3-4.9,1.3c-1.8,0-3.3-0.3-4.7-0.9v-2.9c0.6,0.3,1.3,0.6,2.1,0.8c0.8,0.2,1.5,0.3,2.2,0.3
		c1.1,0,2-0.2,2.5-0.6c0.5-0.4,0.8-1,0.8-1.9c0-0.8-0.3-1.3-0.9-1.6s-1.6-0.5-3-0.5h-1.2v-2.6h1.3c1.3,0,2.2-0.2,2.8-0.5
		c0.6-0.3,0.9-0.9,0.9-1.7c0-1.2-0.8-1.8-2.3-1.8c-0.5,0-1.1,0.1-1.6,0.3c-0.6,0.2-1.2,0.5-1.8,0.9l-1.6-2.4
		c1.5-1.1,3.3-1.6,5.3-1.6c1.7,0,3,0.3,4,1S825.1,97.5,825.1,98.8z"/>
	<path class="st0" d="M787.4,113.7v-1.1h39v1.1H787.4z"/>
</g>
<line class="st12" x1="771.1" y1="69.5" x2="728.5" y2="112.1"/>
<g class="st11">
	<path d="M1270.6,149.8l-1.4-3.6h-4.5l-1.4,3.6h-1.3l4.5-11.4h1.1l4.5,11.4H1270.6z M1268.8,145l-1.3-3.5c-0.2-0.4-0.3-1-0.5-1.6
		c-0.1,0.5-0.3,1-0.5,1.6l-1.3,3.5H1268.8z"/>
	<path d="M1282.6,144c0,1.9-0.5,3.3-1.5,4.3c-1,1-2.5,1.5-4.4,1.5h-3.1v-11.3h3.5c1.8,0,3.1,0.5,4.1,1.5
		C1282.1,140.9,1282.6,142.3,1282.6,144z M1281.2,144.1c0-1.5-0.4-2.6-1.1-3.3s-1.8-1.1-3.3-1.1h-1.9v9h1.6c1.6,0,2.7-0.4,3.5-1.2
		C1280.8,146.7,1281.2,145.6,1281.2,144.1z"/>
	<path d="M1291.6,138.5h1.4l-4.1,11.3h-1.3l-4.1-11.3h1.4l2.6,7.3c0.3,0.8,0.5,1.7,0.7,2.5c0.2-0.8,0.4-1.7,0.7-2.5L1291.6,138.5z"
		/>
	<path d="M1301.6,149.8l-1.4-3.6h-4.5l-1.4,3.6h-1.3l4.5-11.4h1.1l4.4,11.4H1301.6z M1299.8,145l-1.3-3.5c-0.2-0.4-0.3-1-0.5-1.6
		c-0.1,0.5-0.3,1-0.5,1.6l-1.3,3.5H1299.8z"/>
	<path d="M1313.4,149.8h-1.5l-6.2-9.5h-0.1c0.1,1.1,0.1,2.1,0.1,3.1v6.4h-1.2v-11.3h1.5l6.2,9.5h0.1c0-0.1,0-0.6-0.1-1.3
		s0-1.3,0-1.6v-6.5h1.2V149.8z"/>
	<path d="M1321.4,139.5c-1.2,0-2.2,0.4-2.9,1.2s-1.1,2-1.1,3.4c0,1.5,0.3,2.6,1,3.4c0.7,0.8,1.7,1.2,3,1.2c0.8,0,1.7-0.1,2.7-0.4
		v1.2c-0.8,0.3-1.8,0.4-2.9,0.4c-1.7,0-3-0.5-3.9-1.5c-0.9-1-1.4-2.4-1.4-4.3c0-1.2,0.2-2.2,0.7-3.1c0.4-0.9,1.1-1.6,1.9-2
		c0.8-0.5,1.8-0.7,2.9-0.7c1.2,0,2.2,0.2,3.1,0.7l-0.6,1.1C1323.1,139.7,1322.2,139.5,1321.4,139.5z"/>
	<path d="M1332.8,149.8h-6.3v-11.3h6.3v1.2h-5v3.6h4.7v1.2h-4.7v4.2h5V149.8z"/>
	<path d="M1344.4,144c0,1.9-0.5,3.3-1.5,4.3c-1,1-2.5,1.5-4.4,1.5h-3.1v-11.3h3.5c1.8,0,3.1,0.5,4.1,1.5
		C1343.9,140.9,1344.4,142.3,1344.4,144z M1343,144.1c0-1.5-0.4-2.6-1.1-3.3s-1.8-1.1-3.3-1.1h-1.9v9h1.6c1.6,0,2.7-0.4,3.5-1.2
		S1343,145.6,1343,144.1z"/>
</g>
<g class="st11">
</g>
<g>
	<path d="M1264.8,161v4.7h-1.3v-11.3h3.1c1.4,0,2.4,0.3,3.1,0.8s1,1.3,1,2.4c0,1.5-0.8,2.5-2.3,3l3.1,5.1h-1.6l-2.7-4.7H1264.8z
		 M1264.8,159.8h1.8c0.9,0,1.6-0.2,2-0.6c0.4-0.4,0.6-0.9,0.6-1.7c0-0.7-0.2-1.3-0.7-1.6s-1.1-0.5-2.1-0.5h-1.7V159.8z"/>
	<path d="M1279.6,165.7h-6.3v-11.3h6.3v1.2h-5v3.6h4.7v1.2h-4.7v4.2h5V165.7z"/>
	<path d="M1291.9,160c0,1.5-0.3,2.7-0.9,3.6c-0.6,1-1.4,1.6-2.5,2l2.7,2.8h-1.9l-2.2-2.6l-0.4,0c-1.7,0-3-0.5-3.9-1.5
		c-0.9-1-1.4-2.5-1.4-4.3c0-1.8,0.5-3.3,1.4-4.3c0.9-1,2.2-1.5,3.9-1.5c1.6,0,2.9,0.5,3.8,1.5C1291.5,156.8,1291.9,158.2,1291.9,160
		z M1282.9,160c0,1.5,0.3,2.7,1,3.5s1.6,1.2,2.8,1.2c1.3,0,2.2-0.4,2.8-1.2c0.6-0.8,1-2,1-3.5c0-1.5-0.3-2.7-1-3.5
		c-0.6-0.8-1.6-1.2-2.8-1.2c-1.3,0-2.2,0.4-2.9,1.2C1283.3,157.3,1282.9,158.5,1282.9,160z"/>
	<path d="M1303,154.3v7.3c0,1.3-0.4,2.3-1.2,3c-0.8,0.7-1.8,1.1-3.2,1.1c-1.4,0-2.4-0.4-3.2-1.1s-1.1-1.8-1.1-3.1v-7.3h1.3v7.4
		c0,0.9,0.3,1.7,0.8,2.2s1.3,0.8,2.3,0.8c1,0,1.7-0.3,2.2-0.8c0.5-0.5,0.8-1.2,0.8-2.2v-7.4H1303z"/>
	<path d="M1312.3,165.7h-6.3v-11.3h6.3v1.2h-5v3.6h4.7v1.2h-4.7v4.2h5V165.7z"/>
	<path d="M1321.2,162.7c0,1-0.4,1.8-1.1,2.3c-0.7,0.6-1.7,0.8-2.9,0.8c-1.3,0-2.4-0.2-3.1-0.5V164c0.5,0.2,1,0.4,1.5,0.5
		c0.5,0.1,1.1,0.2,1.6,0.2c0.9,0,1.5-0.2,2-0.5c0.4-0.3,0.7-0.8,0.7-1.4c0-0.4-0.1-0.7-0.2-1c-0.2-0.2-0.4-0.5-0.8-0.7
		c-0.4-0.2-0.9-0.5-1.7-0.7c-1.1-0.4-1.8-0.8-2.3-1.3s-0.7-1.2-0.7-2c0-0.9,0.3-1.6,1-2.1c0.7-0.5,1.5-0.8,2.6-0.8
		c1.1,0,2.2,0.2,3.1,0.6l-0.4,1.1c-0.9-0.4-1.8-0.6-2.7-0.6c-0.7,0-1.2,0.1-1.6,0.4c-0.4,0.3-0.6,0.7-0.6,1.2c0,0.4,0.1,0.7,0.2,1
		s0.4,0.5,0.7,0.7c0.3,0.2,0.9,0.4,1.6,0.7c1.2,0.4,2,0.9,2.4,1.4C1321,161.2,1321.2,161.9,1321.2,162.7z"/>
	<path d="M1327,165.7h-1.3v-10.1h-3.6v-1.2h8.5v1.2h-3.6V165.7z"/>
	<path d="M1338.7,162.7c0,1-0.4,1.8-1.1,2.3c-0.7,0.6-1.7,0.8-2.9,0.8c-1.3,0-2.4-0.2-3.1-0.5V164c0.5,0.2,1,0.4,1.5,0.5
		c0.5,0.1,1.1,0.2,1.6,0.2c0.9,0,1.5-0.2,2-0.5c0.4-0.3,0.7-0.8,0.7-1.4c0-0.4-0.1-0.7-0.2-1c-0.2-0.2-0.4-0.5-0.8-0.7
		c-0.4-0.2-0.9-0.5-1.7-0.7c-1.1-0.4-1.8-0.8-2.3-1.3c-0.5-0.5-0.7-1.2-0.7-2c0-0.9,0.3-1.6,1-2.1c0.7-0.5,1.5-0.8,2.6-0.8
		c1.1,0,2.2,0.2,3.1,0.6l-0.4,1.1c-0.9-0.4-1.8-0.6-2.7-0.6c-0.7,0-1.2,0.1-1.6,0.4c-0.4,0.3-0.6,0.7-0.6,1.2c0,0.4,0.1,0.7,0.2,1
		s0.4,0.5,0.7,0.7s0.9,0.4,1.6,0.7c1.2,0.4,2,0.9,2.4,1.4C1338.5,161.2,1338.7,161.9,1338.7,162.7z"/>
</g>
<g>
	<path class="st0" d="M1275.9,190.9h-11.4v-2.4l4.1-4.1c1.2-1.2,2-2.1,2.4-2.6s0.6-0.9,0.8-1.3s0.2-0.8,0.2-1.3
		c0-0.7-0.2-1.1-0.5-1.5c-0.4-0.3-0.8-0.5-1.4-0.5c-0.6,0-1.2,0.1-1.8,0.4c-0.6,0.3-1.2,0.7-1.9,1.2l-1.9-2.2c0.8-0.7,1.5-1.2,2-1.4
		c0.5-0.3,1.1-0.5,1.7-0.7s1.3-0.2,2.1-0.2c1,0,1.9,0.2,2.7,0.6c0.8,0.4,1.4,0.9,1.8,1.6c0.4,0.7,0.6,1.4,0.6,2.3
		c0,0.7-0.1,1.5-0.4,2.1c-0.3,0.7-0.7,1.3-1.2,2c-0.6,0.7-1.5,1.7-2.9,2.9l-2.1,2v0.2h7.1V190.9z"/>
	<path class="st0" d="M1288.9,190.9h-11.4v-2.4l4.1-4.1c1.2-1.2,2-2.1,2.4-2.6s0.6-0.9,0.8-1.3s0.2-0.8,0.2-1.3
		c0-0.7-0.2-1.1-0.5-1.5c-0.4-0.3-0.8-0.5-1.4-0.5c-0.6,0-1.2,0.1-1.8,0.4c-0.6,0.3-1.2,0.7-1.9,1.2l-1.9-2.2c0.8-0.7,1.5-1.2,2-1.4
		c0.5-0.3,1.1-0.5,1.7-0.7s1.3-0.2,2.1-0.2c1,0,1.9,0.2,2.7,0.6c0.8,0.4,1.4,0.9,1.8,1.6c0.4,0.7,0.6,1.4,0.6,2.3
		c0,0.7-0.1,1.5-0.4,2.1c-0.3,0.7-0.7,1.3-1.2,2c-0.6,0.7-1.5,1.7-2.9,2.9l-2.1,2v0.2h7.1V190.9z"/>
	<path class="st0" d="M1290.5,184c0-3.2,0.7-5.6,2-7.2c1.4-1.6,3.4-2.4,6.1-2.4c0.9,0,1.7,0.1,2.2,0.2v2.7c-0.7-0.1-1.3-0.2-2-0.2
		c-1.2,0-2.1,0.2-2.9,0.5c-0.7,0.4-1.3,0.9-1.7,1.6c-0.4,0.7-0.6,1.7-0.7,3h0.1c0.7-1.3,1.9-1.9,3.5-1.9c1.5,0,2.6,0.5,3.4,1.4
		c0.8,0.9,1.2,2.2,1.2,3.8c0,1.7-0.5,3.1-1.5,4.1c-1,1-2.3,1.5-4.1,1.5c-1.2,0-2.2-0.3-3.1-0.8c-0.9-0.6-1.6-1.4-2.1-2.4
		C1290.7,186.8,1290.5,185.5,1290.5,184z M1296.3,188.4c0.7,0,1.3-0.2,1.7-0.7c0.4-0.5,0.6-1.2,0.6-2.1c0-0.8-0.2-1.4-0.6-1.9
		s-0.9-0.7-1.7-0.7c-0.7,0-1.3,0.2-1.8,0.7c-0.5,0.5-0.7,1-0.7,1.6c0,0.9,0.2,1.6,0.7,2.2C1295,188.1,1295.6,188.4,1296.3,188.4z"/>
	<path class="st0" d="M1263.6,193.2V192h39v1.1H1263.6z"/>
</g>
<line class="st12" x1="1247.4" y1="149.1" x2="1204.8" y2="191.6"/>
<g class="st11">
	<path d="M1084.6,622.4c0,1-0.4,1.8-1.1,2.3c-0.7,0.6-1.7,0.8-2.9,0.8c-1.3,0-2.4-0.2-3.1-0.5v-1.3c0.5,0.2,1,0.4,1.5,0.5
		c0.5,0.1,1.1,0.2,1.6,0.2c0.9,0,1.5-0.2,2-0.5c0.4-0.3,0.7-0.8,0.7-1.4c0-0.4-0.1-0.7-0.2-1c-0.2-0.2-0.4-0.5-0.8-0.7
		s-0.9-0.5-1.7-0.7c-1.1-0.4-1.8-0.8-2.3-1.3c-0.5-0.5-0.7-1.2-0.7-2c0-0.9,0.3-1.6,1-2.1c0.7-0.5,1.5-0.8,2.6-0.8
		c1.1,0,2.2,0.2,3.1,0.6l-0.4,1.1c-0.9-0.4-1.8-0.6-2.7-0.6c-0.7,0-1.2,0.1-1.6,0.4c-0.4,0.3-0.6,0.7-0.6,1.2c0,0.4,0.1,0.7,0.2,1
		s0.4,0.5,0.7,0.7c0.3,0.2,0.9,0.4,1.6,0.7c1.2,0.4,2,0.9,2.4,1.4C1084.4,621,1084.6,621.7,1084.6,622.4z"/>
	<path d="M1094.1,617.4c0,1.1-0.4,2-1.2,2.6c-0.8,0.6-1.9,0.9-3.4,0.9h-1.3v4.5h-1.3v-11.3h2.9
		C1092.7,614.1,1094.1,615.2,1094.1,617.4z M1088.2,619.9h1.2c1.2,0,2-0.2,2.5-0.6c0.5-0.4,0.8-1,0.8-1.8c0-0.7-0.2-1.3-0.7-1.7
		s-1.3-0.5-2.3-0.5h-1.5V619.9z"/>
	<path d="M1102.8,625.5h-6.3v-11.3h6.3v1.2h-5v3.6h4.7v1.2h-4.7v4.2h5V625.5z"/>
	<path d="M1110.1,615.2c-1.2,0-2.2,0.4-2.9,1.2s-1.1,2-1.1,3.4c0,1.5,0.3,2.6,1,3.4c0.7,0.8,1.7,1.2,3,1.2c0.8,0,1.7-0.1,2.7-0.4
		v1.2c-0.8,0.3-1.8,0.4-2.9,0.4c-1.7,0-3-0.5-3.9-1.5c-0.9-1-1.4-2.4-1.4-4.3c0-1.2,0.2-2.2,0.7-3.1c0.4-0.9,1.1-1.6,1.9-2
		s1.8-0.7,2.9-0.7c1.2,0,2.2,0.2,3.1,0.7l-0.6,1.1C1111.8,615.4,1111,615.2,1110.1,615.2z"/>
	<path d="M1115.3,625.5v-11.3h1.3v11.3H1115.3z"/>
	<path d="M1121,625.5h-1.3v-11.3h6.3v1.2h-5v4.1h4.7v1.2h-4.7V625.5z"/>
	<path d="M1127.9,625.5v-11.3h1.3v11.3H1127.9z"/>
	<path d="M1137.2,615.2c-1.2,0-2.2,0.4-2.9,1.2s-1.1,2-1.1,3.4c0,1.5,0.3,2.6,1,3.4c0.7,0.8,1.7,1.2,3,1.2c0.8,0,1.7-0.1,2.7-0.4
		v1.2c-0.8,0.3-1.8,0.4-2.9,0.4c-1.7,0-3-0.5-3.9-1.5c-0.9-1-1.4-2.4-1.4-4.3c0-1.2,0.2-2.2,0.7-3.1c0.4-0.9,1.1-1.6,1.9-2
		s1.8-0.7,2.9-0.7c1.2,0,2.2,0.2,3.1,0.7l-0.6,1.1C1138.9,615.4,1138,615.2,1137.2,615.2z"/>
</g>
<g class="st11">
	<path d="M1079.5,639.8v4.7h-1.3v-11.3h3.1c1.4,0,2.4,0.3,3.1,0.8s1,1.3,1,2.4c0,1.5-0.8,2.5-2.3,3l3.1,5.1h-1.6l-2.7-4.7H1079.5z
		 M1079.5,638.6h1.8c0.9,0,1.6-0.2,2-0.6s0.7-0.9,0.7-1.7c0-0.7-0.2-1.3-0.7-1.6c-0.4-0.3-1.1-0.5-2.1-0.5h-1.7V638.6z"/>
	<path d="M1094.3,644.5h-6.3v-11.3h6.3v1.2h-5v3.6h4.7v1.2h-4.7v4.2h5V644.5z"/>
	<path d="M1106.7,638.8c0,1.5-0.3,2.7-0.9,3.6s-1.4,1.6-2.5,2l2.7,2.8h-1.9l-2.2-2.6l-0.4,0c-1.7,0-3-0.5-3.9-1.5
		c-0.9-1-1.4-2.5-1.4-4.3c0-1.8,0.5-3.3,1.4-4.3c0.9-1,2.2-1.5,3.9-1.5c1.6,0,2.9,0.5,3.8,1.5C1106.2,635.6,1106.7,637,1106.7,638.8
		z M1097.7,638.8c0,1.5,0.3,2.7,1,3.5c0.7,0.8,1.6,1.2,2.8,1.2c1.3,0,2.2-0.4,2.8-1.2c0.6-0.8,1-2,1-3.5c0-1.5-0.3-2.7-1-3.5
		c-0.6-0.8-1.6-1.2-2.8-1.2c-1.3,0-2.2,0.4-2.9,1.2C1098,636.1,1097.7,637.3,1097.7,638.8z"/>
	<path d="M1117.7,633.2v7.3c0,1.3-0.4,2.3-1.2,3c-0.8,0.7-1.8,1.1-3.2,1.1s-2.4-0.4-3.2-1.1c-0.7-0.7-1.1-1.8-1.1-3.1v-7.3h1.3v7.4
		c0,0.9,0.3,1.7,0.8,2.2s1.3,0.8,2.3,0.8c1,0,1.7-0.3,2.2-0.8c0.5-0.5,0.8-1.2,0.8-2.2v-7.4H1117.7z"/>
	<path d="M1127,644.5h-6.3v-11.3h6.3v1.2h-5v3.6h4.7v1.2h-4.7v4.2h5V644.5z"/>
	<path d="M1135.9,641.5c0,1-0.4,1.8-1.1,2.3c-0.7,0.6-1.7,0.8-2.9,0.8c-1.3,0-2.4-0.2-3.1-0.5v-1.3c0.5,0.2,1,0.4,1.5,0.5
		c0.5,0.1,1.1,0.2,1.6,0.2c0.9,0,1.5-0.2,2-0.5c0.4-0.3,0.7-0.8,0.7-1.4c0-0.4-0.1-0.7-0.2-1c-0.2-0.2-0.4-0.5-0.8-0.7
		s-0.9-0.5-1.7-0.7c-1.1-0.4-1.8-0.8-2.3-1.3c-0.5-0.5-0.7-1.2-0.7-2c0-0.9,0.3-1.6,1-2.1c0.7-0.5,1.5-0.8,2.6-0.8
		c1.1,0,2.2,0.2,3.1,0.6l-0.4,1.1c-0.9-0.4-1.8-0.6-2.7-0.6c-0.7,0-1.2,0.1-1.6,0.4c-0.4,0.3-0.6,0.7-0.6,1.2c0,0.4,0.1,0.7,0.2,1
		s0.4,0.5,0.7,0.7c0.3,0.2,0.9,0.4,1.6,0.7c1.2,0.4,2,0.9,2.4,1.4C1135.7,640.1,1135.9,640.7,1135.9,641.5z"/>
	<path d="M1141.7,644.5h-1.3v-10.1h-3.6v-1.2h8.5v1.2h-3.6V644.5z"/>
	<path d="M1153.4,641.5c0,1-0.4,1.8-1.1,2.3c-0.7,0.6-1.7,0.8-2.9,0.8c-1.3,0-2.4-0.2-3.1-0.5v-1.3c0.5,0.2,1,0.4,1.5,0.5
		c0.5,0.1,1.1,0.2,1.6,0.2c0.9,0,1.5-0.2,2-0.5c0.4-0.3,0.7-0.8,0.7-1.4c0-0.4-0.1-0.7-0.2-1c-0.2-0.2-0.4-0.5-0.8-0.7
		c-0.4-0.2-0.9-0.5-1.7-0.7c-1.1-0.4-1.8-0.8-2.3-1.3c-0.5-0.5-0.7-1.2-0.7-2c0-0.9,0.3-1.6,1-2.1c0.7-0.5,1.5-0.8,2.6-0.8
		c1.1,0,2.2,0.2,3.1,0.6l-0.4,1.1c-0.9-0.4-1.8-0.6-2.7-0.6c-0.7,0-1.2,0.1-1.6,0.4c-0.4,0.3-0.6,0.7-0.6,1.2c0,0.4,0.1,0.7,0.2,1
		s0.4,0.5,0.7,0.7c0.3,0.2,0.9,0.4,1.6,0.7c1.2,0.4,2,0.9,2.4,1.4C1153.2,640.1,1153.4,640.7,1153.4,641.5z"/>
</g>
<g>
	<path class="st0" d="M1080.9,666.5l6.1-13.4h-8v-2.9h11.7v2.2l-6.2,14.1H1080.9z"/>
	<path class="st0" d="M1103.6,658.4c0,2.8-0.5,4.9-1.4,6.3c-0.9,1.4-2.4,2-4.3,2c-1.9,0-3.3-0.7-4.2-2.1s-1.4-3.5-1.4-6.2
		c0-2.9,0.5-5,1.4-6.3c0.9-1.4,2.4-2,4.3-2c1.9,0,3.3,0.7,4.3,2.1C1103.1,653.6,1103.6,655.7,1103.6,658.4z M1095.6,658.4
		c0,2,0.2,3.4,0.5,4.3s0.9,1.3,1.7,1.3c0.8,0,1.4-0.4,1.7-1.3s0.5-2.3,0.5-4.3c0-2-0.2-3.4-0.5-4.3c-0.4-0.9-0.9-1.3-1.7-1.3
		c-0.8,0-1.4,0.4-1.7,1.3C1095.8,655,1095.6,656.4,1095.6,658.4z"/>
	<path class="st0" d="M1078.4,668.8v-1.1h26v1.1H1078.4z"/>
</g>
<line class="st12" x1="1062.1" y1="624.7" x2="1019.5" y2="667.3"/>
</svg>
