<?xml version="1.0" encoding="utf-8"?>
<!-- Generator: Adobe Illustrator 25.0.0, SVG Export Plug-In . SVG Version: 6.00 Build 0)  -->
<svg version="1.1" id="Layer_1" xmlns="http://www.w3.org/2000/svg" xmlns:xlink="http://www.w3.org/1999/xlink" x="0px" y="0px"
	 viewBox="0 0 360 182" style="enable-background:new 0 0 360 182;" xml:space="preserve">
<style type="text/css">
	.st0{clip-path:url(#SVGID_2_);fill:#03051F;}
	.st1{fill:#03051F;}
	.st2{clip-path:url(#SVGID_4_);fill:#03051F;}
	.st3{fill:#87E08A;}
	.st4{clip-path:url(#SVGID_6_);fill:#03051F;}
	.st5{clip-path:url(#SVGID_8_);fill:#03051F;}
	.st6{clip-path:url(#SVGID_10_);fill:#03051F;}
	.st7{clip-path:url(#SVGID_12_);fill:#03051F;}
	.st8{fill:#2163FF;}
	.st9{fill:#2154ED;}
	.st10{clip-path:url(#SVGID_40_);fill:#2154ED;}
	.st11{clip-path:url(#SVGID_42_);fill:#2154ED;}
	.st12{clip-path:url(#SVGID_44_);fill:#87E08A;}
	.st13{clip-path:url(#SVGID_46_);fill:#2154ED;}
	.st14{clip-path:url(#SVGID_48_);fill:#2154ED;}
	.st15{fill:#231F20;}
	.st16{fill:#FFFFFF;}
</style>
<g>
	<defs>
		<polyline id="SVGID_1_" points="360,181 360,1 0,1 0,181 		"/>
	</defs>
	<clipPath id="SVGID_2_">
		<use xlink:href="#SVGID_1_"  style="overflow:visible;"/>
	</clipPath>
	<path class="st0" d="M28.6,51.3l-0.4-1c0-0.1-0.1-0.3-0.2-0.5c0,0.1-0.1,0.3-0.1,0.5l-0.4,1H28.6z M29.1,52.6l-0.4-1h-1.3l-0.4,1
		h-0.4l1.3-3.3h0.3l1.3,3.3H29.1z"/>
</g>
<polygon class="st1" points="31.1,52.6 30.7,52.6 30.7,49.7 29.7,49.7 29.7,49.4 32.1,49.4 32.1,49.7 31.1,49.7 "/>
<g>
	<defs>
		<polyline id="SVGID_3_" points="360,181 360,1 0,1 0,181 		"/>
	</defs>
	<clipPath id="SVGID_4_">
		<use xlink:href="#SVGID_3_"  style="overflow:visible;"/>
	</clipPath>
	<path class="st2" d="M33.2,51h0.5c0.3,0,0.5-0.1,0.6-0.2c0.1-0.1,0.2-0.3,0.2-0.5c0-0.2-0.1-0.4-0.2-0.5c-0.1-0.1-0.3-0.1-0.6-0.1
		h-0.5V51z M33.2,51.3v1.4h-0.4v-3.3h0.9c0.4,0,0.7,0.1,0.9,0.2c0.2,0.2,0.3,0.4,0.3,0.7c0,0.4-0.2,0.7-0.7,0.9l0.9,1.5h-0.4
		l-0.8-1.4H33.2z"/>
	<path class="st2" d="M37.3,51.3l-0.4-1c0-0.1-0.1-0.3-0.2-0.5c0,0.1-0.1,0.3-0.1,0.5l-0.4,1H37.3z M37.9,52.6l-0.4-1h-1.3l-0.4,1
		h-0.4l1.3-3.3H37l1.3,3.3H37.9z"/>
	<path class="st2" d="M40.7,51.8c0,0.3-0.1,0.5-0.3,0.7c-0.2,0.2-0.5,0.2-0.8,0.2c-0.4,0-0.7,0-0.9-0.1v-0.4
		c0.1,0.1,0.3,0.1,0.4,0.1c0.2,0,0.3,0,0.5,0c0.3,0,0.4,0,0.6-0.1c0.1-0.1,0.2-0.2,0.2-0.4c0-0.1,0-0.2-0.1-0.3
		c0-0.1-0.1-0.1-0.2-0.2c-0.1-0.1-0.3-0.1-0.5-0.2c-0.3-0.1-0.5-0.2-0.7-0.4c-0.1-0.1-0.2-0.3-0.2-0.6c0-0.3,0.1-0.5,0.3-0.6
		c0.2-0.1,0.4-0.2,0.7-0.2c0.3,0,0.6,0.1,0.9,0.2l-0.1,0.3c-0.3-0.1-0.5-0.2-0.8-0.2c-0.2,0-0.4,0-0.5,0.1s-0.2,0.2-0.2,0.4
		c0,0.1,0,0.2,0.1,0.3c0,0.1,0.1,0.1,0.2,0.2c0.1,0.1,0.2,0.1,0.5,0.2c0.3,0.1,0.6,0.3,0.7,0.4C40.7,51.4,40.7,51.6,40.7,51.8"/>
	<path class="st2" d="M43.1,51.3l-0.4-1c0-0.1-0.1-0.3-0.2-0.5c0,0.1-0.1,0.3-0.1,0.5l-0.4,1H43.1z M43.6,52.6l-0.4-1h-1.3l-0.4,1
		h-0.4l1.3-3.3h0.3l1.3,3.3H43.6z"/>
	<path class="st2" d="M46.8,51c0-0.4-0.1-0.7-0.3-1c-0.2-0.2-0.5-0.3-1-0.3H45v2.6h0.5c0.5,0,0.8-0.1,1-0.3
		C46.7,51.8,46.8,51.4,46.8,51 M47.2,51c0,0.5-0.1,1-0.4,1.2c-0.3,0.3-0.7,0.4-1.3,0.4h-0.9v-3.3h1c0.5,0,0.9,0.1,1.2,0.4
		C47.1,50.1,47.2,50.5,47.2,51"/>
	<path class="st2" d="M48.4,51c0,0.4,0.1,0.8,0.3,1c0.2,0.2,0.5,0.3,0.8,0.3c0.4,0,0.6-0.1,0.8-0.3c0.2-0.2,0.3-0.6,0.3-1
		c0-0.4-0.1-0.8-0.3-1c-0.2-0.2-0.5-0.3-0.8-0.3c-0.4,0-0.6,0.1-0.8,0.3C48.5,50.2,48.4,50.6,48.4,51 M51,51c0,0.5-0.1,0.9-0.4,1.2
		c-0.3,0.3-0.6,0.4-1.1,0.4c-0.5,0-0.9-0.1-1.1-0.4C48.1,52,48,51.5,48,51c0-0.5,0.1-0.9,0.4-1.2c0.3-0.3,0.6-0.4,1.1-0.4
		c0.5,0,0.8,0.1,1.1,0.4C50.8,50.1,51,50.5,51,51"/>
</g>
<rect x="20.5" y="42.4" class="st3" width="22.8" height="2.6"/>
<g>
	<defs>
		<polyline id="SVGID_5_" points="360,181 360,1 0,1 0,181 		"/>
	</defs>
	<clipPath id="SVGID_6_">
		<use xlink:href="#SVGID_5_"  style="overflow:visible;"/>
	</clipPath>
	<path class="st4" d="M27.4,71.5h0.5c0.3,0,0.5-0.1,0.6-0.2c0.1-0.1,0.2-0.3,0.2-0.5c0-0.2-0.1-0.4-0.2-0.5
		c-0.1-0.1-0.3-0.1-0.6-0.1h-0.5V71.5z M27.4,71.8v1.4H27v-3.3h0.9c0.4,0,0.7,0.1,0.9,0.2s0.3,0.4,0.3,0.7c0,0.4-0.2,0.7-0.7,0.9
		l0.9,1.5h-0.4l-0.8-1.4H27.4z"/>
</g>
<polygon class="st1" points="31.9,73.2 30,73.2 30,69.9 31.9,69.9 31.9,70.3 30.4,70.3 30.4,71.3 31.8,71.3 31.8,71.7 30.4,71.7 
	30.4,72.9 31.9,72.9 "/>
<g>
	<defs>
		<polyline id="SVGID_7_" points="360,181 360,1 0,1 0,181 		"/>
	</defs>
	<clipPath id="SVGID_8_">
		<use xlink:href="#SVGID_7_"  style="overflow:visible;"/>
	</clipPath>
	<path class="st5" d="M34.6,72.3c0,0.3-0.1,0.5-0.3,0.7c-0.2,0.2-0.5,0.2-0.8,0.2c-0.4,0-0.7,0-0.9-0.1v-0.4
		c0.1,0.1,0.3,0.1,0.4,0.1c0.2,0,0.3,0,0.5,0c0.3,0,0.4,0,0.6-0.1c0.1-0.1,0.2-0.2,0.2-0.4c0-0.1,0-0.2-0.1-0.3
		c0-0.1-0.1-0.1-0.2-0.2c-0.1-0.1-0.3-0.1-0.5-0.2c-0.3-0.1-0.5-0.2-0.7-0.4c-0.1-0.1-0.2-0.3-0.2-0.6c0-0.3,0.1-0.5,0.3-0.6
		c0.2-0.1,0.4-0.2,0.7-0.2c0.3,0,0.6,0.1,0.9,0.2l-0.1,0.3c-0.3-0.1-0.5-0.2-0.8-0.2c-0.2,0-0.4,0-0.5,0.1C33,70.4,33,70.6,33,70.7
		c0,0.1,0,0.2,0.1,0.3c0,0.1,0.1,0.1,0.2,0.2c0.1,0.1,0.2,0.1,0.5,0.2c0.3,0.1,0.6,0.3,0.7,0.4C34.5,71.9,34.6,72.1,34.6,72.3"/>
	<path class="st5" d="M35.8,71.6h0.3c0.3,0,0.6-0.1,0.7-0.2c0.1-0.1,0.2-0.3,0.2-0.5c0-0.2-0.1-0.4-0.2-0.5
		c-0.1-0.1-0.4-0.2-0.7-0.2h-0.4V71.6z M37.5,70.9c0,0.3-0.1,0.6-0.3,0.8c-0.2,0.2-0.5,0.3-1,0.3h-0.4v1.3h-0.4v-3.3h0.8
		C37.1,69.9,37.5,70.3,37.5,70.9"/>
	<path class="st5" d="M38.6,71.6c0,0.4,0.1,0.8,0.3,1c0.2,0.2,0.5,0.3,0.8,0.3c0.4,0,0.6-0.1,0.8-0.3c0.2-0.2,0.3-0.6,0.3-1
		c0-0.4-0.1-0.8-0.3-1c-0.2-0.2-0.5-0.3-0.8-0.3c-0.4,0-0.6,0.1-0.8,0.3C38.7,70.8,38.6,71.1,38.6,71.6 M41.2,71.6
		c0,0.5-0.1,0.9-0.4,1.2c-0.3,0.3-0.6,0.4-1.1,0.4c-0.5,0-0.9-0.1-1.1-0.4c-0.3-0.3-0.4-0.7-0.4-1.2c0-0.5,0.1-0.9,0.4-1.2
		c0.3-0.3,0.6-0.4,1.1-0.4c0.5,0,0.8,0.1,1.1,0.4C41.1,70.6,41.2,71,41.2,71.6"/>
	<path class="st5" d="M43.9,72.3c0,0.3-0.1,0.5-0.3,0.7c-0.2,0.2-0.5,0.2-0.8,0.2c-0.4,0-0.7,0-0.9-0.1v-0.4
		c0.1,0.1,0.3,0.1,0.4,0.1c0.2,0,0.3,0,0.5,0c0.3,0,0.4,0,0.6-0.1c0.1-0.1,0.2-0.2,0.2-0.4c0-0.1,0-0.2-0.1-0.3
		c0-0.1-0.1-0.1-0.2-0.2c-0.1-0.1-0.3-0.1-0.5-0.2c-0.3-0.1-0.5-0.2-0.7-0.4c-0.1-0.1-0.2-0.3-0.2-0.6c0-0.3,0.1-0.5,0.3-0.6
		c0.2-0.1,0.4-0.2,0.7-0.2c0.3,0,0.6,0.1,0.9,0.2l-0.1,0.3c-0.3-0.1-0.5-0.2-0.8-0.2c-0.2,0-0.4,0-0.5,0.1c-0.1,0.1-0.2,0.2-0.2,0.4
		c0,0.1,0,0.2,0.1,0.3c0,0.1,0.1,0.1,0.2,0.2c0.1,0.1,0.2,0.1,0.5,0.2c0.3,0.1,0.6,0.3,0.7,0.4C43.9,71.9,43.9,72.1,43.9,72.3"/>
</g>
<polygon class="st1" points="45.8,73.2 45.4,73.2 45.4,70.3 44.4,70.3 44.4,69.9 46.8,69.9 46.8,70.3 45.8,70.3 "/>
<g>
	<defs>
		<polyline id="SVGID_9_" points="360,181 360,1 0,1 0,181 		"/>
	</defs>
	<clipPath id="SVGID_10_">
		<use xlink:href="#SVGID_9_"  style="overflow:visible;"/>
	</clipPath>
	<path class="st6" d="M49,71.8l-0.4-1c0-0.1-0.1-0.3-0.2-0.5c0,0.1-0.1,0.3-0.1,0.5l-0.4,1H49z M49.5,73.2l-0.4-1h-1.3l-0.4,1H47
		l1.3-3.3h0.3l1.3,3.3H49.5z"/>
	<path class="st6" d="M54.5,73.2H54l-1.8-2.7h0c0,0.3,0,0.6,0,0.9v1.9h-0.4v-3.3h0.4l1.8,2.7h0c0,0,0-0.2,0-0.4c0-0.2,0-0.4,0-0.5
		v-1.9h0.4V73.2z"/>
	<path class="st6" d="M55.8,71.6c0,0.4,0.1,0.8,0.3,1c0.2,0.2,0.5,0.3,0.8,0.3c0.4,0,0.6-0.1,0.8-0.3c0.2-0.2,0.3-0.6,0.3-1
		c0-0.4-0.1-0.8-0.3-1c-0.2-0.2-0.5-0.3-0.8-0.3c-0.4,0-0.6,0.1-0.8,0.3C55.9,70.8,55.8,71.1,55.8,71.6 M58.4,71.6
		c0,0.5-0.1,0.9-0.4,1.2c-0.3,0.3-0.6,0.4-1.1,0.4c-0.5,0-0.9-0.1-1.1-0.4c-0.3-0.3-0.4-0.7-0.4-1.2c0-0.5,0.1-0.9,0.4-1.2
		c0.3-0.3,0.6-0.4,1.1-0.4c0.5,0,0.8,0.1,1.1,0.4C58.2,70.6,58.4,71,58.4,71.6"/>
	<path class="st6" d="M61,71.6h0.3c0.3,0,0.6-0.1,0.7-0.2c0.2-0.1,0.2-0.3,0.2-0.5c0-0.2-0.1-0.4-0.2-0.5c-0.1-0.1-0.4-0.2-0.7-0.2
		H61V71.6z M62.7,70.9c0,0.3-0.1,0.6-0.3,0.8c-0.2,0.2-0.5,0.3-1,0.3H61v1.3h-0.4v-3.3h0.8C62.3,69.9,62.7,70.3,62.7,70.9"/>
	<path class="st6" d="M64,71.5h0.5c0.3,0,0.5-0.1,0.6-0.2c0.1-0.1,0.2-0.3,0.2-0.5c0-0.2-0.1-0.4-0.2-0.5c-0.1-0.1-0.3-0.1-0.6-0.1
		H64V71.5z M64,71.8v1.4h-0.4v-3.3h0.9c0.4,0,0.7,0.1,0.9,0.2c0.2,0.2,0.3,0.4,0.3,0.7c0,0.4-0.2,0.7-0.7,0.9l0.9,1.5h-0.4l-0.8-1.4
		H64z"/>
	<path class="st6" d="M68.1,71.8l-0.4-1c0-0.1-0.1-0.3-0.2-0.5c0,0.1-0.1,0.3-0.1,0.5l-0.4,1H68.1z M68.6,73.2l-0.4-1h-1.3l-0.4,1
		h-0.4l1.3-3.3h0.3l1.3,3.3H68.6z"/>
</g>
<polygon class="st1" points="71.6,73.2 69.4,73.2 69.4,72.9 71.1,70.3 69.4,70.3 69.4,69.9 71.6,69.9 71.6,70.2 69.8,72.9 
	71.6,72.9 "/>
<g>
	<defs>
		<polyline id="SVGID_11_" points="360,181 360,1 0,1 0,181 		"/>
	</defs>
	<clipPath id="SVGID_12_">
		<use xlink:href="#SVGID_11_"  style="overflow:visible;"/>
	</clipPath>
	<path class="st7" d="M72.7,71.6c0,0.4,0.1,0.8,0.3,1c0.2,0.2,0.5,0.3,0.8,0.3c0.4,0,0.6-0.1,0.8-0.3c0.2-0.2,0.3-0.6,0.3-1
		c0-0.4-0.1-0.8-0.3-1c-0.2-0.2-0.5-0.3-0.8-0.3c-0.4,0-0.6,0.1-0.8,0.3C72.8,70.8,72.7,71.1,72.7,71.6 M75.3,71.6
		c0,0.5-0.1,0.9-0.4,1.2c-0.3,0.3-0.6,0.4-1.1,0.4c-0.5,0-0.9-0.1-1.1-0.4c-0.3-0.3-0.4-0.7-0.4-1.2c0-0.5,0.1-0.9,0.4-1.2
		c0.3-0.3,0.6-0.4,1.1-0.4c0.5,0,0.8,0.1,1.1,0.4C75.1,70.6,75.3,71,75.3,71.6"/>
</g>
<rect x="20.5" y="62.6" class="st8" width="22.8" height="2.6"/>
<rect x="215.6" y="152.8" class="st9" width="17.7" height="4.3"/>
<rect x="164.9" y="114.2" class="st9" width="17.7" height="42.9"/>
<rect x="164.9" y="97.1" class="st3" width="17.7" height="17.2"/>
<rect x="110.5" y="41.3" class="st9" width="17.7" height="115.8"/>
<rect x="110.5" y="11.3" class="st3" width="17.7" height="30"/>
<g>
	<defs>
		<polyline id="SVGID_13_" points="360,181 360,1 0,1 0,181 		"/>
	</defs>
	<clipPath id="SVGID_14_">
		<use xlink:href="#SVGID_13_"  style="overflow:visible;"/>
	</clipPath>
</g>
<g>
	<defs>
		<polyline id="SVGID_15_" points="360,181 360,1 0,1 0,181 		"/>
	</defs>
	<clipPath id="SVGID_16_">
		<use xlink:href="#SVGID_15_"  style="overflow:visible;"/>
	</clipPath>
</g>
<g>
	<defs>
		<polyline id="SVGID_17_" points="360,181 360,1 0,1 0,181 		"/>
	</defs>
	<clipPath id="SVGID_18_">
		<use xlink:href="#SVGID_17_"  style="overflow:visible;"/>
	</clipPath>
</g>
<g>
	<defs>
		<polyline id="SVGID_19_" points="360,181 360,1 0,1 0,181 		"/>
	</defs>
	<clipPath id="SVGID_20_">
		<use xlink:href="#SVGID_19_"  style="overflow:visible;"/>
	</clipPath>
</g>
<g>
	<defs>
		<polyline id="SVGID_21_" points="360,181 360,1 0,1 0,181 		"/>
	</defs>
	<clipPath id="SVGID_22_">
		<use xlink:href="#SVGID_21_"  style="overflow:visible;"/>
	</clipPath>
</g>
<g>
	<defs>
		<polyline id="SVGID_23_" points="360,181 360,1 0,1 0,181 		"/>
	</defs>
	<clipPath id="SVGID_24_">
		<use xlink:href="#SVGID_23_"  style="overflow:visible;"/>
	</clipPath>
</g>
<g>
	<defs>
		<polyline id="SVGID_25_" points="360,181 360,1 0,1 0,181 		"/>
	</defs>
	<clipPath id="SVGID_26_">
		<use xlink:href="#SVGID_25_"  style="overflow:visible;"/>
	</clipPath>
</g>
<g>
	<defs>
		<polyline id="SVGID_27_" points="360,181 360,1 0,1 0,181 		"/>
	</defs>
	<clipPath id="SVGID_28_">
		<use xlink:href="#SVGID_27_"  style="overflow:visible;"/>
	</clipPath>
</g>
<g>
	<defs>
		<polyline id="SVGID_29_" points="360,181 360,1 0,1 0,181 		"/>
	</defs>
	<clipPath id="SVGID_30_">
		<use xlink:href="#SVGID_29_"  style="overflow:visible;"/>
	</clipPath>
</g>
<g>
	<defs>
		<polyline id="SVGID_31_" points="360,181 360,1 0,1 0,181 		"/>
	</defs>
	<clipPath id="SVGID_32_">
		<use xlink:href="#SVGID_31_"  style="overflow:visible;"/>
	</clipPath>
</g>
<g>
	<defs>
		<polyline id="SVGID_33_" points="360,181 360,1 0,1 0,181 		"/>
	</defs>
	<clipPath id="SVGID_34_">
		<use xlink:href="#SVGID_33_"  style="overflow:visible;"/>
	</clipPath>
</g>
<g>
	<defs>
		<polyline id="SVGID_35_" points="360,181 360,1 0,1 0,181 		"/>
	</defs>
	<clipPath id="SVGID_36_">
		<use xlink:href="#SVGID_35_"  style="overflow:visible;"/>
	</clipPath>
</g>
<g>
	<defs>
		<polyline id="SVGID_37_" points="360,181 360,1 0,1 0,181 		"/>
	</defs>
	<clipPath id="SVGID_38_">
		<use xlink:href="#SVGID_37_"  style="overflow:visible;"/>
	</clipPath>
</g>
<g>
	<defs>
		<polyline id="SVGID_39_" points="360,181 360,1 0,1 0,181 		"/>
	</defs>
	<clipPath id="SVGID_40_">
		<use xlink:href="#SVGID_39_"  style="overflow:visible;"/>
	</clipPath>
	<path class="st10" d="M105,47h-3.5v-0.7l1.2-1.3c0.4-0.4,0.6-0.6,0.7-0.8c0.1-0.1,0.2-0.3,0.2-0.4c0.1-0.1,0.1-0.3,0.1-0.4
		c0-0.2-0.1-0.3-0.2-0.4c-0.1-0.1-0.3-0.1-0.4-0.1c-0.2,0-0.4,0-0.6,0.1c-0.2,0.1-0.4,0.2-0.6,0.4l-0.6-0.7c0.2-0.2,0.4-0.4,0.6-0.4
		c0.2-0.1,0.3-0.2,0.5-0.2c0.2,0,0.4-0.1,0.6-0.1c0.3,0,0.6,0.1,0.8,0.2c0.2,0.1,0.4,0.3,0.6,0.5c0.1,0.2,0.2,0.4,0.2,0.7
		c0,0.2,0,0.4-0.1,0.6c-0.1,0.2-0.2,0.4-0.4,0.6c-0.2,0.2-0.5,0.5-0.9,0.9l-0.6,0.6v0h2.2V47z"/>
</g>
<polygon class="st9" points="106,47 107.8,43 105.4,43 105.4,42.1 108.9,42.1 108.9,42.7 107.1,47 "/>
<rect x="101.2" y="47.4" class="st9" width="7.9" height="0.3"/>
<polygon class="st3" points="105.8,14.9 107.7,10.9 105.2,10.9 105.2,10 108.8,10 108.8,10.7 106.9,14.9 "/>
<rect x="105.1" y="15.3" class="st3" width="4" height="0.3"/>
<g>
	<defs>
		<polyline id="SVGID_41_" points="360,181 360,1 0,1 0,181 		"/>
	</defs>
	<clipPath id="SVGID_42_">
		<use xlink:href="#SVGID_41_"  style="overflow:visible;"/>
	</clipPath>
	<path class="st11" d="M158.1,119h-1v-2.9l0-0.5l0-0.5c-0.2,0.2-0.3,0.3-0.4,0.3l-0.6,0.5l-0.5-0.6l1.6-1.3h0.9V119z"/>
	<path class="st11" d="M160.5,116.5c0,0.6,0.1,1,0.2,1.3c0.1,0.3,0.3,0.4,0.5,0.4c0.2,0,0.4-0.1,0.5-0.4c0.1-0.3,0.2-0.7,0.2-1.3
		c0-0.6-0.1-1-0.2-1.3c-0.1-0.3-0.3-0.4-0.5-0.4c-0.2,0-0.4,0.1-0.5,0.4C160.5,115.4,160.5,115.9,160.5,116.5 M162.9,116.5
		c0,0.9-0.1,1.5-0.4,1.9c-0.3,0.4-0.7,0.6-1.3,0.6c-0.6,0-1-0.2-1.3-0.6c-0.3-0.4-0.4-1.1-0.4-1.9c0-0.9,0.1-1.5,0.4-1.9
		c0.3-0.4,0.7-0.6,1.3-0.6c0.6,0,1,0.2,1.3,0.7C162.8,115,162.9,115.6,162.9,116.5"/>
</g>
<rect x="155.2" y="119.3" class="st9" width="7.9" height="0.3"/>
<g>
	<defs>
		<polyline id="SVGID_43_" points="360,181 360,1 0,1 0,181 		"/>
	</defs>
	<clipPath id="SVGID_44_">
		<use xlink:href="#SVGID_43_"  style="overflow:visible;"/>
	</clipPath>
	<path class="st12" d="M160.6,100.5v-0.8c0-0.1,0-0.3,0-0.6c0-0.3,0-0.4,0-0.5h0c-0.1,0.2-0.2,0.4-0.3,0.5l-0.9,1.4H160.6z
		 M162.2,101.3h-0.6v1h-1v-1h-2.1v-0.7l2.2-3.2h1v3.1h0.6V101.3z"/>
</g>
<rect x="158.4" y="102.6" class="st3" width="4" height="0.3"/>
<g>
	<defs>
		<polyline id="SVGID_45_" points="360,181 360,1 0,1 0,181 		"/>
	</defs>
	<clipPath id="SVGID_46_">
		<use xlink:href="#SVGID_45_"  style="overflow:visible;"/>
	</clipPath>
	<path class="st13" d="M214.1,149.1h-1v-2.9l0-0.5l0-0.5c-0.2,0.2-0.3,0.3-0.4,0.3l-0.6,0.5l-0.5-0.6l1.6-1.3h0.9V149.1z"/>
</g>
<rect x="211.3" y="149.4" class="st9" width="4" height="0.3"/>
<g>
	<defs>
		<polyline id="SVGID_47_" points="360,181 360,1 0,1 0,181 		"/>
	</defs>
	<clipPath id="SVGID_48_">
		<use xlink:href="#SVGID_47_"  style="overflow:visible;"/>
	</clipPath>
	<path class="st14" d="M221.9,152.9c0-3.5-2.8-6.3-6.3-6.3v-0.3c3.7,0,6.6,3,6.6,6.6L221.9,152.9z"/>
</g>
<rect x="91.1" y="157" class="st1" width="165.3" height="0.2"/>
<g>
	<path class="st15" d="M108.8,166.6l-0.4-1.1h-1.4l-0.4,1.1h-0.4l1.4-3.6h0.3l1.4,3.6H108.8z M108.3,165.1l-0.4-1.1
		c-0.1-0.1-0.1-0.3-0.2-0.5c0,0.2-0.1,0.3-0.2,0.5l-0.4,1.1H108.3z"/>
	<path class="st15" d="M112.5,166.6h-0.5l-2-3h0c0,0.4,0,0.7,0,1v2h-0.4V163h0.5l1.9,3h0c0,0,0-0.2,0-0.4c0-0.2,0-0.4,0-0.5v-2h0.4
		V166.6z"/>
	<path class="st15" d="M115.5,165.6c0,0.3-0.1,0.6-0.3,0.7s-0.5,0.3-0.9,0.3c-0.4,0-0.7-0.1-1-0.2v-0.4c0.1,0.1,0.3,0.1,0.5,0.1
		c0.2,0,0.3,0.1,0.5,0.1c0.3,0,0.5-0.1,0.6-0.2c0.1-0.1,0.2-0.3,0.2-0.4c0-0.1,0-0.2-0.1-0.3c0-0.1-0.1-0.2-0.2-0.2
		c-0.1-0.1-0.3-0.1-0.5-0.2c-0.3-0.1-0.6-0.3-0.7-0.4c-0.1-0.2-0.2-0.4-0.2-0.6c0-0.3,0.1-0.5,0.3-0.7c0.2-0.2,0.5-0.2,0.8-0.2
		c0.4,0,0.7,0.1,1,0.2l-0.1,0.4c-0.3-0.1-0.6-0.2-0.9-0.2c-0.2,0-0.4,0-0.5,0.1c-0.1,0.1-0.2,0.2-0.2,0.4c0,0.1,0,0.2,0.1,0.3
		c0,0.1,0.1,0.2,0.2,0.2c0.1,0.1,0.3,0.1,0.5,0.2c0.4,0.1,0.6,0.3,0.8,0.4C115.5,165.2,115.5,165.4,115.5,165.6z"/>
	<path class="st15" d="M119.4,166.6H119l-0.7-2.4c0-0.1-0.1-0.2-0.1-0.4s-0.1-0.3-0.1-0.3c0,0.2-0.1,0.5-0.2,0.7l-0.7,2.4h-0.4
		l-0.9-3.6h0.4l0.6,2.2c0.1,0.3,0.1,0.6,0.2,0.8c0-0.3,0.1-0.6,0.2-0.9l0.6-2.2h0.4l0.7,2.2c0.1,0.3,0.1,0.5,0.2,0.9
		c0-0.2,0.1-0.5,0.2-0.8l0.6-2.2h0.4L119.4,166.6z"/>
	<path class="st15" d="M122.9,166.6h-2V163h2v0.4h-1.6v1.1h1.5v0.4h-1.5v1.3h1.6V166.6z"/>
	<path class="st15" d="M124.1,165.1v1.5h-0.4V163h1c0.4,0,0.8,0.1,1,0.3c0.2,0.2,0.3,0.4,0.3,0.8c0,0.5-0.2,0.8-0.7,1l1,1.6h-0.5
		l-0.9-1.5H124.1z M124.1,164.7h0.6c0.3,0,0.5-0.1,0.6-0.2c0.1-0.1,0.2-0.3,0.2-0.5c0-0.2-0.1-0.4-0.2-0.5c-0.1-0.1-0.4-0.2-0.7-0.2
		h-0.5V164.7z"/>
	<path class="st15" d="M128.7,166.6h-2V163h2v0.4h-1.6v1.1h1.5v0.4h-1.5v1.3h1.6V166.6z"/>
	<path class="st15" d="M132.4,164.8c0,0.6-0.2,1-0.5,1.4c-0.3,0.3-0.8,0.5-1.4,0.5h-1V163h1.1c0.6,0,1,0.2,1.3,0.5
		S132.4,164.2,132.4,164.8z M131.9,164.8c0-0.5-0.1-0.8-0.4-1.1c-0.2-0.2-0.6-0.4-1-0.4H130v2.9h0.5c0.5,0,0.9-0.1,1.1-0.4
		S131.9,165.2,131.9,164.8z"/>
</g>
<g>
	<path class="st15" d="M156.1,163v2.3c0,0.4-0.1,0.7-0.4,1c-0.2,0.2-0.6,0.3-1,0.3s-0.8-0.1-1-0.4c-0.2-0.2-0.4-0.6-0.4-1V163h0.4
		v2.3c0,0.3,0.1,0.5,0.2,0.7c0.2,0.2,0.4,0.2,0.7,0.2c0.3,0,0.5-0.1,0.7-0.2c0.2-0.2,0.2-0.4,0.2-0.7V163H156.1z"/>
	<path class="st15" d="M159.8,166.6h-0.5l-2-3h0c0,0.4,0,0.7,0,1v2H157V163h0.5l1.9,3h0c0,0,0-0.2,0-0.4c0-0.2,0-0.4,0-0.5v-2h0.4
		V166.6z"/>
	<path class="st15" d="M162.8,165.6c0,0.3-0.1,0.6-0.3,0.7s-0.5,0.3-0.9,0.3c-0.4,0-0.7-0.1-1-0.2v-0.4c0.1,0.1,0.3,0.1,0.5,0.1
		c0.2,0,0.3,0.1,0.5,0.1c0.3,0,0.5-0.1,0.6-0.2c0.1-0.1,0.2-0.3,0.2-0.4c0-0.1,0-0.2-0.1-0.3c0-0.1-0.1-0.2-0.2-0.2
		c-0.1-0.1-0.3-0.1-0.5-0.2c-0.3-0.1-0.6-0.3-0.7-0.4c-0.1-0.2-0.2-0.4-0.2-0.6c0-0.3,0.1-0.5,0.3-0.7c0.2-0.2,0.5-0.2,0.8-0.2
		c0.4,0,0.7,0.1,1,0.2l-0.1,0.4c-0.3-0.1-0.6-0.2-0.9-0.2c-0.2,0-0.4,0-0.5,0.1c-0.1,0.1-0.2,0.2-0.2,0.4c0,0.1,0,0.2,0.1,0.3
		c0,0.1,0.1,0.2,0.2,0.2c0.1,0.1,0.3,0.1,0.5,0.2c0.4,0.1,0.6,0.3,0.8,0.4C162.8,165.2,162.8,165.4,162.8,165.6z"/>
	<path class="st15" d="M165.8,166.6l-0.4-1.1h-1.4l-0.4,1.1h-0.4l1.4-3.6h0.3l1.4,3.6H165.8z M165.2,165.1l-0.4-1.1
		c-0.1-0.1-0.1-0.3-0.2-0.5c0,0.2-0.1,0.3-0.2,0.5l-0.4,1.1H165.2z"/>
	<path class="st15" d="M167.8,166.6h-0.4v-3.2h-1.1V163h2.7v0.4h-1.1V166.6z"/>
	<path class="st15" d="M169.5,166.6V163h0.4v3.6H169.5z"/>
	<path class="st15" d="M172.9,165.6c0,0.3-0.1,0.6-0.3,0.7s-0.5,0.3-0.9,0.3c-0.4,0-0.7-0.1-1-0.2v-0.4c0.1,0.1,0.3,0.1,0.5,0.1
		c0.2,0,0.3,0.1,0.5,0.1c0.3,0,0.5-0.1,0.6-0.2c0.1-0.1,0.2-0.3,0.2-0.4c0-0.1,0-0.2-0.1-0.3c0-0.1-0.1-0.2-0.2-0.2
		c-0.1-0.1-0.3-0.1-0.5-0.2c-0.3-0.1-0.6-0.3-0.7-0.4c-0.1-0.2-0.2-0.4-0.2-0.6c0-0.3,0.1-0.5,0.3-0.7c0.2-0.2,0.5-0.2,0.8-0.2
		c0.4,0,0.7,0.1,1,0.2l-0.1,0.4c-0.3-0.1-0.6-0.2-0.9-0.2c-0.2,0-0.4,0-0.5,0.1c-0.1,0.1-0.2,0.2-0.2,0.4c0,0.1,0,0.2,0.1,0.3
		c0,0.1,0.1,0.2,0.2,0.2c0.1,0.1,0.3,0.1,0.5,0.2c0.4,0.1,0.6,0.3,0.8,0.4C172.8,165.2,172.9,165.4,172.9,165.6z"/>
	<path class="st15" d="M174,166.6h-0.4V163h2v0.4H174v1.3h1.5v0.4H174V166.6z"/>
	<path class="st15" d="M178.4,166.6l-0.4-1.1h-1.4l-0.4,1.1h-0.4l1.4-3.6h0.3l1.4,3.6H178.4z M177.9,165.1l-0.4-1.1
		c-0.1-0.1-0.1-0.3-0.2-0.5c0,0.2-0.1,0.3-0.2,0.5l-0.4,1.1H177.9z"/>
	<path class="st15" d="M180.9,163.3c-0.4,0-0.7,0.1-0.9,0.4c-0.2,0.3-0.3,0.6-0.3,1.1c0,0.5,0.1,0.8,0.3,1.1
		c0.2,0.3,0.5,0.4,0.9,0.4c0.2,0,0.5,0,0.9-0.1v0.4c-0.2,0.1-0.6,0.1-0.9,0.1c-0.5,0-0.9-0.2-1.2-0.5c-0.3-0.3-0.4-0.8-0.4-1.4
		c0-0.4,0.1-0.7,0.2-1c0.1-0.3,0.3-0.5,0.6-0.6c0.3-0.2,0.6-0.2,0.9-0.2c0.4,0,0.7,0.1,1,0.2l-0.2,0.4
		C181.4,163.4,181.2,163.3,180.9,163.3z"/>
	<path class="st15" d="M183.6,166.6h-0.4v-3.2h-1.1V163h2.7v0.4h-1.1V166.6z"/>
	<path class="st15" d="M188.4,164.8c0,0.6-0.1,1-0.4,1.3s-0.7,0.5-1.2,0.5c-0.5,0-0.9-0.2-1.2-0.5c-0.3-0.3-0.4-0.8-0.4-1.4
		c0-0.6,0.1-1,0.4-1.4c0.3-0.3,0.7-0.5,1.2-0.5c0.5,0,0.9,0.2,1.2,0.5C188.2,163.8,188.4,164.2,188.4,164.8z M185.5,164.8
		c0,0.5,0.1,0.8,0.3,1.1c0.2,0.2,0.5,0.4,0.9,0.4c0.4,0,0.7-0.1,0.9-0.4c0.2-0.2,0.3-0.6,0.3-1.1c0-0.5-0.1-0.8-0.3-1.1
		s-0.5-0.4-0.9-0.4c-0.4,0-0.7,0.1-0.9,0.4C185.6,163.9,185.5,164.3,185.5,164.8z"/>
	<path class="st15" d="M189.6,165.1v1.5h-0.4V163h1c0.4,0,0.8,0.1,1,0.3c0.2,0.2,0.3,0.4,0.3,0.8c0,0.5-0.2,0.8-0.7,1l1,1.6h-0.5
		l-0.9-1.5H189.6z M189.6,164.7h0.6c0.3,0,0.5-0.1,0.6-0.2c0.1-0.1,0.2-0.3,0.2-0.5c0-0.2-0.1-0.4-0.2-0.5c-0.1-0.1-0.4-0.2-0.7-0.2
		h-0.5V164.7z"/>
	<path class="st15" d="M193.2,164.8l1-1.8h0.4l-1.2,2.2v1.4H193v-1.4l-1.2-2.2h0.5L193.2,164.8z"/>
	<path class="st15" d="M166.4,172.6l-0.4-1.1h-1.4l-0.4,1.1h-0.4l1.4-3.6h0.3l1.4,3.6H166.4z M165.8,171.1l-0.4-1.1
		c-0.1-0.1-0.1-0.3-0.2-0.5c0,0.2-0.1,0.3-0.2,0.5l-0.4,1.1H165.8z"/>
	<path class="st15" d="M170.1,172.6h-0.5l-2-3h0c0,0.4,0,0.7,0,1v2h-0.4V169h0.5l1.9,3h0c0,0,0-0.2,0-0.4c0-0.2,0-0.4,0-0.5v-2h0.4
		V172.6z"/>
	<path class="st15" d="M173.1,171.6c0,0.3-0.1,0.6-0.3,0.7s-0.5,0.3-0.9,0.3c-0.4,0-0.7-0.1-1-0.2v-0.4c0.1,0.1,0.3,0.1,0.5,0.1
		c0.2,0,0.3,0.1,0.5,0.1c0.3,0,0.5-0.1,0.6-0.2c0.1-0.1,0.2-0.3,0.2-0.4c0-0.1,0-0.2-0.1-0.3c0-0.1-0.1-0.2-0.2-0.2
		c-0.1-0.1-0.3-0.1-0.5-0.2c-0.3-0.1-0.6-0.3-0.7-0.4c-0.1-0.2-0.2-0.4-0.2-0.6c0-0.3,0.1-0.5,0.3-0.7c0.2-0.2,0.5-0.2,0.8-0.2
		c0.4,0,0.7,0.1,1,0.2l-0.1,0.4c-0.3-0.1-0.6-0.2-0.9-0.2c-0.2,0-0.4,0-0.5,0.1c-0.1,0.1-0.2,0.2-0.2,0.4c0,0.1,0,0.2,0.1,0.3
		c0,0.1,0.1,0.2,0.2,0.2c0.1,0.1,0.3,0.1,0.5,0.2c0.4,0.1,0.6,0.3,0.8,0.4C173,171.2,173.1,171.4,173.1,171.6z"/>
	<path class="st15" d="M176.9,172.6h-0.4l-0.7-2.4c0-0.1-0.1-0.2-0.1-0.4s-0.1-0.3-0.1-0.3c0,0.2-0.1,0.5-0.2,0.7l-0.7,2.4h-0.4
		l-0.9-3.6h0.4l0.6,2.2c0.1,0.3,0.1,0.6,0.2,0.8c0-0.3,0.1-0.6,0.2-0.9l0.6-2.2h0.4l0.7,2.2c0.1,0.3,0.1,0.5,0.2,0.9
		c0-0.2,0.1-0.5,0.2-0.8l0.6-2.2h0.4L176.9,172.6z"/>
	<path class="st15" d="M180.4,172.6h-2V169h2v0.4h-1.6v1.1h1.5v0.4h-1.5v1.3h1.6V172.6z"/>
	<path class="st15" d="M181.6,171.1v1.5h-0.4V169h1c0.4,0,0.8,0.1,1,0.3c0.2,0.2,0.3,0.4,0.3,0.8c0,0.5-0.2,0.8-0.7,1l1,1.6h-0.5
		l-0.9-1.5H181.6z M181.6,170.7h0.6c0.3,0,0.5-0.1,0.6-0.2c0.1-0.1,0.2-0.3,0.2-0.5c0-0.2-0.1-0.4-0.2-0.5c-0.1-0.1-0.4-0.2-0.7-0.2
		h-0.5V170.7z"/>
</g>
<g>
	<path class="st15" d="M209.8,165.1v1.5h-0.4V163h1c0.4,0,0.8,0.1,1,0.3c0.2,0.2,0.3,0.4,0.3,0.8c0,0.5-0.2,0.8-0.7,1l1,1.6h-0.5
		l-0.9-1.5H209.8z M209.8,164.7h0.6c0.3,0,0.5-0.1,0.6-0.2c0.1-0.1,0.2-0.3,0.2-0.5c0-0.2-0.1-0.4-0.2-0.5c-0.1-0.1-0.4-0.2-0.7-0.2
		h-0.5V164.7z"/>
	<path class="st15" d="M214.5,166.6h-2V163h2v0.4h-1.6v1.1h1.5v0.4h-1.5v1.3h1.6V166.6z"/>
	<path class="st15" d="M215.7,166.6h-0.4V163h2v0.4h-1.6v1.3h1.5v0.4h-1.5V166.6z"/>
	<path class="st15" d="M219.8,166.6h-2V163h2v0.4h-1.6v1.1h1.5v0.4h-1.5v1.3h1.6V166.6z"/>
	<path class="st15" d="M221,165.1v1.5h-0.4V163h1c0.4,0,0.8,0.1,1,0.3c0.2,0.2,0.3,0.4,0.3,0.8c0,0.5-0.2,0.8-0.7,1l1,1.6h-0.5
		l-0.9-1.5H221z M221,164.7h0.6c0.3,0,0.5-0.1,0.6-0.2c0.1-0.1,0.2-0.3,0.2-0.5c0-0.2-0.1-0.4-0.2-0.5c-0.1-0.1-0.4-0.2-0.7-0.2H221
		V164.7z"/>
	<path class="st15" d="M224.1,165.1v1.5h-0.4V163h1c0.4,0,0.8,0.1,1,0.3c0.2,0.2,0.3,0.4,0.3,0.8c0,0.5-0.2,0.8-0.7,1l1,1.6h-0.5
		l-0.9-1.5H224.1z M224.1,164.7h0.6c0.3,0,0.5-0.1,0.6-0.2c0.1-0.1,0.2-0.3,0.2-0.5c0-0.2-0.1-0.4-0.2-0.5c-0.1-0.1-0.4-0.2-0.7-0.2
		h-0.5V164.7z"/>
	<path class="st15" d="M229,166.6l-0.4-1.1h-1.4l-0.4,1.1h-0.4l1.4-3.6h0.3l1.4,3.6H229z M228.5,165.1L228,164
		c-0.1-0.1-0.1-0.3-0.2-0.5c0,0.2-0.1,0.3-0.2,0.5l-0.4,1.1H228.5z"/>
	<path class="st15" d="M230,166.6V163h0.4v3.2h1.6v0.4H230z"/>
	<path class="st15" d="M234.9,166.6h-0.4v-3.2h-1.1V163h2.7v0.4h-1.1V166.6z"/>
	<path class="st15" d="M239.7,164.8c0,0.6-0.1,1-0.4,1.3s-0.7,0.5-1.2,0.5c-0.5,0-0.9-0.2-1.2-0.5c-0.3-0.3-0.4-0.8-0.4-1.4
		c0-0.6,0.1-1,0.4-1.4c0.3-0.3,0.7-0.5,1.2-0.5c0.5,0,0.9,0.2,1.2,0.5C239.6,163.8,239.7,164.2,239.7,164.8z M236.9,164.8
		c0,0.5,0.1,0.8,0.3,1.1c0.2,0.2,0.5,0.4,0.9,0.4c0.4,0,0.7-0.1,0.9-0.4c0.2-0.2,0.3-0.6,0.3-1.1c0-0.5-0.1-0.8-0.3-1.1
		s-0.5-0.4-0.9-0.4c-0.4,0-0.7,0.1-0.9,0.4C237,163.9,236.9,164.3,236.9,164.8z"/>
	<path class="st15" d="M205.3,172.6l-0.4-1.1h-1.4l-0.4,1.1h-0.4l1.4-3.6h0.3l1.4,3.6H205.3z M204.7,171.1l-0.4-1.1
		c-0.1-0.1-0.1-0.3-0.2-0.5c0,0.2-0.1,0.3-0.2,0.5l-0.4,1.1H204.7z"/>
	<path class="st15" d="M209,172.6h-0.5l-2-3h0c0,0.4,0,0.7,0,1v2h-0.4V169h0.5l1.9,3h0c0,0,0-0.2,0-0.4c0-0.2,0-0.4,0-0.5v-2h0.4
		V172.6z"/>
	<path class="st15" d="M213.1,170.8c0,0.6-0.1,1-0.4,1.3c-0.3,0.3-0.7,0.5-1.2,0.5c-0.5,0-0.9-0.2-1.2-0.5c-0.3-0.3-0.4-0.8-0.4-1.4
		c0-0.6,0.1-1,0.4-1.4c0.3-0.3,0.7-0.5,1.2-0.5c0.5,0,0.9,0.2,1.2,0.5C212.9,169.8,213.1,170.2,213.1,170.8z M210.2,170.8
		c0,0.5,0.1,0.8,0.3,1.1s0.5,0.4,0.9,0.4c0.4,0,0.7-0.1,0.9-0.4c0.2-0.2,0.3-0.6,0.3-1.1c0-0.5-0.1-0.8-0.3-1.1
		c-0.2-0.2-0.5-0.4-0.9-0.4c-0.4,0-0.7,0.1-0.9,0.4C210.3,169.9,210.2,170.3,210.2,170.8z"/>
	<path class="st15" d="M215,172.6h-0.4v-3.2h-1.1V169h2.7v0.4H215V172.6z"/>
	<path class="st15" d="M219.4,172.6h-0.4v-1.7h-1.9v1.7h-0.4V169h0.4v1.5h1.9V169h0.4V172.6z"/>
	<path class="st15" d="M222.3,172.6h-2V169h2v0.4h-1.6v1.1h1.5v0.4h-1.5v1.3h1.6V172.6z"/>
	<path class="st15" d="M223.5,171.1v1.5h-0.4V169h1c0.4,0,0.8,0.1,1,0.3c0.2,0.2,0.3,0.4,0.3,0.8c0,0.5-0.2,0.8-0.7,1l1,1.6h-0.5
		l-0.9-1.5H223.5z M223.5,170.7h0.6c0.3,0,0.5-0.1,0.6-0.2c0.1-0.1,0.2-0.3,0.2-0.5c0-0.2-0.1-0.4-0.2-0.5c-0.1-0.1-0.4-0.2-0.7-0.2
		h-0.5V170.7z"/>
	<path class="st15" d="M229.8,172.6l-0.4-1.1h-1.4l-0.4,1.1H227l1.4-3.6h0.3l1.4,3.6H229.8z M229.2,171.1l-0.4-1.1
		c-0.1-0.1-0.1-0.3-0.2-0.5c0,0.2-0.1,0.3-0.2,0.5l-0.4,1.1H229.2z"/>
	<path class="st15" d="M232.2,170.7h1.2v1.7c-0.2,0.1-0.4,0.1-0.6,0.1c-0.2,0-0.4,0-0.7,0c-0.5,0-1-0.2-1.3-0.5
		c-0.3-0.3-0.5-0.8-0.5-1.4c0-0.4,0.1-0.7,0.2-1c0.1-0.3,0.4-0.5,0.6-0.6c0.3-0.1,0.6-0.2,1-0.2c0.4,0,0.7,0.1,1.1,0.2l-0.2,0.4
		c-0.3-0.1-0.6-0.2-0.9-0.2c-0.4,0-0.8,0.1-1,0.4s-0.4,0.6-0.4,1.1c0,0.5,0.1,0.8,0.4,1.1s0.6,0.4,1,0.4c0.2,0,0.5,0,0.7-0.1v-1.1
		h-0.8V170.7z"/>
	<path class="st15" d="M236.3,172.6h-2V169h2v0.4h-1.6v1.1h1.5v0.4h-1.5v1.3h1.6V172.6z"/>
	<path class="st15" d="M239.9,172.6h-0.5l-2-3h0c0,0.4,0,0.7,0,1v2h-0.4V169h0.5l1.9,3h0c0,0,0-0.2,0-0.4c0-0.2,0-0.4,0-0.5v-2h0.4
		V172.6z"/>
	<path class="st15" d="M242.4,169.3c-0.4,0-0.7,0.1-0.9,0.4c-0.2,0.3-0.3,0.6-0.3,1.1c0,0.5,0.1,0.8,0.3,1.1
		c0.2,0.3,0.5,0.4,0.9,0.4c0.2,0,0.5,0,0.9-0.1v0.4c-0.2,0.1-0.6,0.1-0.9,0.1c-0.5,0-0.9-0.2-1.2-0.5c-0.3-0.3-0.4-0.8-0.4-1.4
		c0-0.4,0.1-0.7,0.2-1c0.1-0.3,0.3-0.5,0.6-0.6c0.3-0.2,0.6-0.2,0.9-0.2c0.4,0,0.7,0.1,1,0.2l-0.2,0.4
		C242.9,169.4,242.7,169.3,242.4,169.3z"/>
	<path class="st15" d="M244.9,170.8l1-1.8h0.4l-1.2,2.2v1.4h-0.4v-1.4l-1.2-2.2h0.5L244.9,170.8z"/>
</g>
<rect x="20.5" y="46.4" class="st16" width="56" height="9.2"/>
<rect x="20.5" y="67" class="st16" width="56" height="9.2"/>
<g>
	<path class="st15" d="M29.9,50.9c0,0.6-0.1,1-0.4,1.3c-0.3,0.3-0.7,0.5-1.2,0.5c-0.5,0-0.9-0.2-1.2-0.5c-0.3-0.3-0.4-0.8-0.4-1.4
		c0-0.6,0.1-1,0.4-1.4c0.3-0.3,0.7-0.5,1.2-0.5c0.5,0,0.9,0.2,1.2,0.5S29.9,50.3,29.9,50.9z M27.1,50.9c0,0.5,0.1,0.9,0.3,1.1
		c0.2,0.2,0.5,0.4,0.9,0.4c0.4,0,0.7-0.1,0.9-0.4s0.3-0.6,0.3-1.1c0-0.5-0.1-0.8-0.3-1.1c-0.2-0.2-0.5-0.4-0.9-0.4
		c-0.4,0-0.7,0.1-0.9,0.4C27.2,50,27.1,50.4,27.1,50.9z"/>
	<path class="st15" d="M32.8,49.1h0.4l-1.3,3.6h-0.4l-1.3-3.6h0.4l0.8,2.3c0.1,0.3,0.2,0.5,0.2,0.8c0.1-0.3,0.1-0.5,0.2-0.8
		L32.8,49.1z"/>
	<path class="st15" d="M35.7,52.6h-2v-3.6h2v0.4h-1.6v1.1h1.5V51h-1.5v1.3h1.6V52.6z"/>
	<path class="st15" d="M36.9,51.2v1.5h-0.4v-3.6h1c0.4,0,0.8,0.1,1,0.3c0.2,0.2,0.3,0.4,0.3,0.8c0,0.5-0.2,0.8-0.7,1l1,1.6h-0.5
		l-0.9-1.5H36.9z M36.9,50.8h0.6c0.3,0,0.5-0.1,0.6-0.2c0.1-0.1,0.2-0.3,0.2-0.5c0-0.2-0.1-0.4-0.2-0.5c-0.1-0.1-0.4-0.2-0.7-0.2
		h-0.5V50.8z"/>
	<path class="st15" d="M42.4,50.8c0,0.6-0.2,1-0.5,1.4c-0.3,0.3-0.8,0.5-1.4,0.5h-1v-3.6h1.1c0.6,0,1,0.2,1.3,0.5
		S42.4,50.3,42.4,50.8z M42,50.8c0-0.5-0.1-0.8-0.4-1.1c-0.2-0.2-0.6-0.4-1-0.4H40v2.9h0.5c0.5,0,0.9-0.1,1.1-0.4
		C41.9,51.7,42,51.3,42,50.8z"/>
	<path class="st15" d="M45.9,49.1v2.3c0,0.4-0.1,0.7-0.4,1s-0.6,0.3-1,0.3s-0.8-0.1-1-0.4c-0.2-0.2-0.4-0.6-0.4-1v-2.3h0.4v2.3
		c0,0.3,0.1,0.5,0.2,0.7s0.4,0.2,0.7,0.2c0.3,0,0.5-0.1,0.7-0.2c0.2-0.2,0.2-0.4,0.2-0.7v-2.3H45.9z"/>
	<path class="st15" d="M48.9,52.6h-2v-3.6h2v0.4h-1.6v1.1h1.5V51h-1.5v1.3h1.6V52.6z"/>
</g>
<g>
	<path class="st15" d="M29.9,71.7c0,0.6-0.1,1-0.4,1.3c-0.3,0.3-0.7,0.5-1.2,0.5c-0.5,0-0.9-0.2-1.2-0.5c-0.3-0.3-0.4-0.8-0.4-1.4
		c0-0.6,0.1-1,0.4-1.4c0.3-0.3,0.7-0.5,1.2-0.5c0.5,0,0.9,0.2,1.2,0.5S29.9,71.1,29.9,71.7z M27.1,71.7c0,0.5,0.1,0.9,0.3,1.1
		c0.2,0.2,0.5,0.4,0.9,0.4c0.4,0,0.7-0.1,0.9-0.4s0.3-0.6,0.3-1.1c0-0.5-0.1-0.8-0.3-1.1c-0.2-0.2-0.5-0.4-0.9-0.4
		c-0.4,0-0.7,0.1-0.9,0.4C27.2,70.9,27.1,71.2,27.1,71.7z"/>
	<path class="st15" d="M33.5,73.5H33l-2-3h0c0,0.4,0,0.7,0,1v2h-0.4v-3.6h0.5l1.9,3h0c0,0,0-0.2,0-0.4c0-0.2,0-0.4,0-0.5v-2h0.4
		V73.5z"/>
	<path class="st15" d="M34.2,72.3V72h1.2v0.4H34.2z"/>
	<path class="st15" d="M37.2,73.5h-0.4v-3.2h-1.1v-0.4h2.7v0.4h-1.1V73.5z"/>
	<path class="st15" d="M38.9,73.5v-3.6h0.4v3.6H38.9z"/>
	<path class="st15" d="M41.9,73.5l-1.2-3.2h0c0,0.3,0,0.5,0,0.9v2.3h-0.4v-3.6h0.6l1.1,2.9h0l1.1-2.9h0.6v3.6h-0.4v-2.3
		c0-0.3,0-0.6,0-0.9h0l-1.2,3.2H41.9z"/>
	<path class="st15" d="M46.8,73.5h-2v-3.6h2v0.4h-1.6v1.1h1.5v0.4h-1.5v1.3h1.6V73.5z"/>
	<path class="st15" d="M51.1,73.5l-0.4-1.1h-1.4l-0.4,1.1h-0.4l1.4-3.6h0.3l1.4,3.6H51.1z M50.5,72l-0.4-1.1
		c-0.1-0.1-0.1-0.3-0.2-0.5c0,0.2-0.1,0.3-0.2,0.5L49.4,72H50.5z"/>
	<path class="st15" d="M54.8,73.5h-0.5l-2-3h0c0,0.4,0,0.7,0,1v2H52v-3.6h0.5l1.9,3h0c0,0,0-0.2,0-0.4c0-0.2,0-0.4,0-0.5v-2h0.4
		V73.5z"/>
	<path class="st15" d="M57.8,72.5c0,0.3-0.1,0.6-0.3,0.7s-0.5,0.3-0.9,0.3c-0.4,0-0.7-0.1-1-0.2V73c0.1,0.1,0.3,0.1,0.5,0.1
		s0.3,0.1,0.5,0.1c0.3,0,0.5-0.1,0.6-0.2c0.1-0.1,0.2-0.3,0.2-0.4c0-0.1,0-0.2-0.1-0.3c0-0.1-0.1-0.2-0.2-0.2
		c-0.1-0.1-0.3-0.1-0.5-0.2c-0.3-0.1-0.6-0.3-0.7-0.4c-0.1-0.2-0.2-0.4-0.2-0.6c0-0.3,0.1-0.5,0.3-0.7s0.5-0.2,0.8-0.2
		c0.4,0,0.7,0.1,1,0.2l-0.1,0.4c-0.3-0.1-0.6-0.2-0.9-0.2c-0.2,0-0.4,0-0.5,0.1S56,70.6,56,70.8c0,0.1,0,0.2,0.1,0.3
		c0,0.1,0.1,0.2,0.2,0.2c0.1,0.1,0.3,0.1,0.5,0.2c0.4,0.1,0.6,0.3,0.8,0.4C57.7,72.1,57.8,72.3,57.8,72.5z"/>
	<path class="st15" d="M61.7,73.5h-0.4l-0.7-2.4c0-0.1-0.1-0.2-0.1-0.4s-0.1-0.3-0.1-0.3c0,0.2-0.1,0.5-0.2,0.7l-0.7,2.4h-0.4
		l-0.9-3.6h0.4l0.6,2.2c0.1,0.3,0.1,0.6,0.2,0.8c0-0.3,0.1-0.6,0.2-0.9l0.6-2.2h0.4l0.7,2.2c0.1,0.3,0.1,0.5,0.2,0.9
		c0-0.2,0.1-0.5,0.2-0.8l0.6-2.2h0.4L61.7,73.5z"/>
	<path class="st15" d="M65.2,73.5h-2v-3.6h2v0.4h-1.6v1.1h1.5v0.4h-1.5v1.3h1.6V73.5z"/>
	<path class="st15" d="M66.4,72v1.5H66v-3.6h1c0.4,0,0.8,0.1,1,0.3c0.2,0.2,0.3,0.4,0.3,0.8c0,0.5-0.2,0.8-0.7,1l1,1.6H68L67.1,72
		H66.4z M66.4,71.7h0.6c0.3,0,0.5-0.1,0.6-0.2c0.1-0.1,0.2-0.3,0.2-0.5c0-0.2-0.1-0.4-0.2-0.5c-0.1-0.1-0.4-0.2-0.7-0.2h-0.5V71.7z"
		/>
</g>
</svg>
