<svg xmlns="http://www.w3.org/2000/svg" viewBox="0 0 1920 962.56"><defs><style>.cls-1,.cls-6{fill:#03051f;}.cls-2,.cls-9{fill:none;stroke:#fff;stroke-miterlimit:10;}.cls-2{stroke-width:0.68px;}.cls-3{font-size:19.02px;}.cls-3,.cls-7,.cls-8{fill:#fff;}.cls-3,.cls-8{font-family:OpenSans, Open Sans;}.cls-4{fill:#2263ff;}.cls-5{fill:#87e089;}.cls-6,.cls-7{font-size:27.35px;font-family:OpenSans-Bold, Open Sans;font-weight:700;text-decoration:underline;}.cls-8{font-size:18px;letter-spacing:0.04em;}.cls-9{stroke-width:0.95px;}</style></defs><g id="Layer_2" data-name="Layer 2"><rect class="cls-1" x="0.81" y="1.48" width="1918.38" height="967.88"/><line class="cls-2" x1="226.3" y1="-4.94" x2="226.3" y2="911.73"/><text class="cls-3" transform="translate(512.87 775.24)">PIAUÍ</text><text class="cls-3" transform="translate(617.94 775.24)">RIO DE JANEIRO</text><text class="cls-3" transform="translate(808.43 775.24)">AMAPÁ</text><text class="cls-3" transform="translate(940.6 775.24)">AMAZONAS</text><text class="cls-3" transform="translate(1102.2 775.24)">ALAGOAS</text><text class="cls-3" transform="translate(1274.15 775.24)">ACRE</text><text class="cls-3" transform="translate(1381.29 775.24)">MATO GROSSO</text><text class="cls-3" transform="translate(1534.91 775.24)">PERNAMBUCO</text><rect class="cls-4" x="503.72" y="383.06" width="69.88" height="352.23"/><rect class="cls-5" x="503.72" y="131.47" width="69.88" height="251.59"/><text class="cls-6" transform="translate(515.72 374.23)">5</text><text class="cls-7" transform="translate(515.72 725.18)">7</text><rect class="cls-4" x="959.26" y="483.69" width="69.88" height="251.59"/><rect class="cls-5" x="959.26" y="332.74" width="69.88" height="150.95"/><text class="cls-7" transform="translate(971.97 725.18)">5</text><text class="cls-6" transform="translate(971.97 474.92)">3</text><rect class="cls-4" x="655.56" y="232.1" width="69.88" height="503.18"/><rect class="cls-5" x="655.56" y="181.78" width="69.88" height="50.32"/><text class="cls-7" transform="translate(670.29 725.18)">10</text><text class="cls-6" transform="translate(670.3 222.35)">1</text><rect class="cls-4" x="1111.1" y="534.01" width="69.88" height="201.27"/><rect class="cls-5" x="1111.1" y="483.69" width="69.88" height="50.32"/><text class="cls-7" transform="translate(1127.48 725.18)">4</text><text class="cls-6" transform="translate(1127.48 525.59)">1</text><rect class="cls-4" x="1414.79" y="684.97" width="69.88" height="50.32"/><rect class="cls-5" x="1414.79" y="634.65" width="69.88" height="50.32"/><text class="cls-7" transform="translate(1428.22 725.18)">1</text><text class="cls-6" transform="translate(1428.22 672.73)">1</text><rect class="cls-4" x="1566.78" y="685.18" width="69.59" height="50.11"/><rect class="cls-5" x="1566.78" y="635.07" width="69.59" height="50.11"/><text class="cls-7" transform="translate(1576.67 726.38)">1</text><text class="cls-6" transform="translate(1576.67 676.33)">1</text><rect class="cls-4" x="807.41" y="332.74" width="69.88" height="402.55"/><rect class="cls-5" x="807.41" y="232.1" width="69.88" height="100.64"/><text class="cls-7" transform="translate(824.87 725.18)">8</text><text class="cls-6" transform="translate(824.87 323.68)">2</text><rect class="cls-4" x="1262.95" y="584.33" width="69.88" height="150.95"/><rect class="cls-5" x="1262.95" y="483.69" width="69.88" height="100.64"/><text class="cls-7" transform="translate(1269.68 725.18)">3</text><text class="cls-6" transform="translate(1269.68 575.37)">2</text><text class="cls-8" transform="translate(250.3 349.24)">ATRASADO</text><rect class="cls-5" x="226.3" y="309.06" width="90" height="10.2"/><text class="cls-8" transform="translate(250.3 430.27)">RESPOSTA NO PRAZO</text><rect class="cls-4" x="226.3" y="388.35" width="90" height="10.2"/><line class="cls-9" x1="416.57" y1="735.28" x2="1707.7" y2="735.28"/></g></svg>