<?xml version="1.0" encoding="utf-8"?>
<!-- Generator: Adobe Illustrator 25.0.0, SVG Export Plug-In . SVG Version: 6.00 Build 0)  -->
<svg version="1.1" id="Layer_1" xmlns="http://www.w3.org/2000/svg" xmlns:xlink="http://www.w3.org/1999/xlink" x="0px" y="0px"
	 viewBox="0 0 360 182" style="enable-background:new 0 0 360 182;" xml:space="preserve">
<style type="text/css">
	.st0{fill:#FFFFFF;}
	.st1{clip-path:url(#SVGID_2_);fill:#2154ED;}
	.st2{clip-path:url(#SVGID_4_);fill:#87E08A;}
	.st3{clip-path:url(#SVGID_6_);fill:#FFFFFF;}
	.st4{clip-path:url(#SVGID_8_);fill:#2154ED;}
	.st5{clip-path:url(#SVGID_10_);fill:#87E08A;}
	.st6{clip-path:url(#SVGID_12_);fill:#2154ED;}
	.st7{clip-path:url(#SVGID_14_);fill:#2154ED;}
	.st8{clip-path:url(#SVGID_16_);fill:#2154ED;}
	.st9{clip-path:url(#SVGID_18_);fill:#2154ED;}
	.st10{clip-path:url(#SVGID_20_);fill:#2154ED;}
	.st11{clip-path:url(#SVGID_22_);fill:#2154ED;}
	.st12{fill:#2154ED;}
	.st13{fill:#87E08A;}
	.st14{clip-path:url(#SVGID_24_);fill:#87E08A;}
	.st15{clip-path:url(#SVGID_26_);fill:#87E08A;}
	.st16{clip-path:url(#SVGID_28_);fill:#87E08A;}
	.st17{clip-path:url(#SVGID_30_);fill:#87E08A;}
	.st18{clip-path:url(#SVGID_32_);fill:#87E08A;}
</style>
<rect y="0" class="st0" width="360" height="182"/>
<g>
	<g>
		<defs>
			<rect id="SVGID_1_" y="0" width="360" height="182"/>
		</defs>
		<clipPath id="SVGID_2_">
			<use xlink:href="#SVGID_1_"  style="overflow:visible;"/>
		</clipPath>
		<path class="st1" d="M197.3,97.5l-66.8-15.4c7.3-31.5,34.5-53.2,66.8-53.2V97.5z"/>
	</g>
	<g>
		<defs>
			<rect id="SVGID_3_" y="0" width="360" height="182"/>
		</defs>
		<clipPath id="SVGID_4_">
			<use xlink:href="#SVGID_3_"  style="overflow:visible;"/>
		</clipPath>
		<path class="st2" d="M197.3,97.5V28.9c37.9,0,68.6,30.7,68.6,68.6s-30.7,68.6-68.6,68.6s-68.6-30.7-68.6-68.6
			c0-5.2,0.6-10.4,1.8-15.4L197.3,97.5z"/>
	</g>
	<g>
		<defs>
			<rect id="SVGID_5_" y="0" width="360" height="182"/>
		</defs>
		<clipPath id="SVGID_6_">
			<use xlink:href="#SVGID_5_"  style="overflow:visible;"/>
		</clipPath>
		<path class="st3" d="M197.3,33.7c35.2,0,63.8,28.6,63.8,63.8s-28.6,63.8-63.8,63.8s-63.8-28.6-63.8-63.8S162.1,33.7,197.3,33.7"/>
	</g>
	<g>
		<defs>
			<rect id="SVGID_7_" y="0" width="360" height="182"/>
		</defs>
		<clipPath id="SVGID_8_">
			<use xlink:href="#SVGID_7_"  style="overflow:visible;"/>
		</clipPath>
		<path class="st4" d="M195,32.3h-0.2c0-6.2-5-11.3-11.3-11.3v-0.2C189.8,20.8,195,26,195,32.3"/>
	</g>
	<g>
		<defs>
			<rect id="SVGID_9_" y="0" width="360" height="182"/>
		</defs>
		<clipPath id="SVGID_10_">
			<use xlink:href="#SVGID_9_"  style="overflow:visible;"/>
		</clipPath>
		<path class="st5" d="M256.2,154.9c-6.3,0-11.5-5.2-11.5-11.5h0.2c0,6.2,5.1,11.3,11.3,11.3V154.9z"/>
	</g>
	<g>
		<defs>
			<rect id="SVGID_11_" y="0" width="360" height="182"/>
		</defs>
		<clipPath id="SVGID_12_">
			<use xlink:href="#SVGID_11_"  style="overflow:visible;"/>
		</clipPath>
		<path class="st6" d="M152,22.8h-4.8v-1l1.7-1.7c0.5-0.5,0.8-0.9,1-1.1s0.3-0.4,0.3-0.6c0.1-0.2,0.1-0.3,0.1-0.5
			c0-0.3-0.1-0.5-0.2-0.6c-0.2-0.1-0.4-0.2-0.6-0.2c-0.3,0-0.5,0.1-0.8,0.2s-0.5,0.3-0.8,0.5l-0.8-0.9c0.3-0.3,0.6-0.5,0.8-0.6
			s0.5-0.2,0.7-0.3c0.2-0.1,0.6-0.1,0.9-0.1c0.4,0,0.8,0.1,1.1,0.2c0.3,0.2,0.6,0.4,0.8,0.7c0.2,0.3,0.3,0.6,0.3,1
			c0,0.3-0.1,0.6-0.2,0.9c-0.1,0.3-0.3,0.6-0.5,0.8c-0.2,0.3-0.6,0.7-1.2,1.2l-0.9,0.8v0.1h3L152,22.8L152,22.8z"/>
	</g>
	<g>
		<defs>
			<rect id="SVGID_13_" y="0" width="360" height="182"/>
		</defs>
		<clipPath id="SVGID_14_">
			<use xlink:href="#SVGID_13_"  style="overflow:visible;"/>
		</clipPath>
		<path class="st7" d="M156.2,22.8h-1.4v-3.9v-0.6v-0.7c-0.2,0.2-0.4,0.4-0.5,0.5l-0.8,0.6l-0.7-0.9L155,16h1.2V22.8z"/>
	</g>
	<g>
		<defs>
			<rect id="SVGID_15_" y="0" width="360" height="182"/>
		</defs>
		<clipPath id="SVGID_16_">
			<use xlink:href="#SVGID_15_"  style="overflow:visible;"/>
		</clipPath>
		<path class="st8" d="M159.9,21.8c-0.2,0.6-0.4,1.4-0.8,2.2h-1c0.2-0.8,0.4-1.6,0.5-2.3L159.9,21.8L159.9,21.8z"/>
	</g>
	<g>
		<defs>
			<rect id="SVGID_17_" y="0" width="360" height="182"/>
		</defs>
		<clipPath id="SVGID_18_">
			<use xlink:href="#SVGID_17_"  style="overflow:visible;"/>
		</clipPath>
		<path class="st9" d="M165.4,17.5c0,0.4-0.1,0.8-0.4,1.1c-0.3,0.3-0.6,0.5-1.1,0.6l0,0c0.6,0.1,1,0.2,1.2,0.5
			c0.3,0.3,0.4,0.6,0.4,1.1c0,0.7-0.2,1.2-0.7,1.5c-0.5,0.4-1.2,0.5-2,0.5c-0.7,0-1.4-0.1-2-0.4v-1.2c0.3,0.1,0.6,0.2,0.9,0.3
			c0.3,0.1,0.6,0.1,0.9,0.1c0.5,0,0.8-0.1,1.1-0.2c0.2-0.2,0.3-0.4,0.3-0.8c0-0.3-0.1-0.5-0.4-0.7c-0.3-0.1-0.7-0.2-1.2-0.2h-0.5
			v-1.1h0.5c0.5,0,0.9-0.1,1.2-0.2c0.2-0.1,0.4-0.4,0.4-0.7c0-0.5-0.3-0.8-1-0.8c-0.2,0-0.5,0-0.7,0.1s-0.5,0.2-0.8,0.4l-0.7-1
			c0.6-0.4,1.4-0.7,2.2-0.7c0.7,0,1.3,0.1,1.7,0.4C165.2,16.6,165.4,17,165.4,17.5"/>
	</g>
	<g>
		<defs>
			<rect id="SVGID_19_" y="0" width="360" height="182"/>
		</defs>
		<clipPath id="SVGID_20_">
			<use xlink:href="#SVGID_19_"  style="overflow:visible;"/>
		</clipPath>
		<path class="st10" d="M168.8,21.7c0.3,0,0.5-0.1,0.7-0.3c0.2-0.2,0.2-0.5,0.2-0.9c0-0.3-0.1-0.6-0.2-0.8c-0.2-0.2-0.4-0.3-0.7-0.3
			s-0.5,0.1-0.7,0.3c-0.2,0.2-0.3,0.4-0.3,0.7c0,0.4,0.1,0.7,0.3,0.9C168.2,21.6,168.5,21.7,168.8,21.7 M166.3,19.9
			c0-1.3,0.3-2.4,0.9-3c0.6-0.7,1.4-1,2.6-1c0.4,0,0.7,0,0.9,0.1v1.2c-0.3-0.1-0.6-0.1-0.8-0.1c-0.5,0-0.9,0.1-1.2,0.2
			s-0.5,0.4-0.7,0.7c-0.2,0.3-0.2,0.7-0.3,1.2h0.1c0.3-0.5,0.8-0.8,1.5-0.8c0.6,0,1.1,0.2,1.4,0.6c0.3,0.4,0.5,0.9,0.5,1.6
			s-0.2,1.3-0.6,1.7c-0.4,0.4-1,0.6-1.7,0.6c-0.5,0-0.9-0.1-1.3-0.3c-0.4-0.2-0.7-0.6-0.9-1C166.4,21.1,166.3,20.5,166.3,19.9"/>
	</g>
	<g>
		<defs>
			<rect id="SVGID_21_" y="0" width="360" height="182"/>
		</defs>
		<clipPath id="SVGID_22_">
			<use xlink:href="#SVGID_21_"  style="overflow:visible;"/>
		</clipPath>
		<path class="st11" d="M177.7,20.7c0,0.4,0,0.7,0.1,0.9c0.1,0.2,0.2,0.3,0.3,0.3c0.3,0,0.4-0.4,0.4-1.2c0-0.8-0.1-1.2-0.4-1.2
			c-0.2,0-0.3,0.1-0.3,0.3C177.7,20,177.7,20.3,177.7,20.7 M179.7,20.7c0,0.7-0.1,1.2-0.4,1.6c-0.3,0.4-0.7,0.5-1.2,0.5
			s-0.9-0.2-1.2-0.6s-0.4-0.9-0.4-1.6c0-1.4,0.5-2.1,1.6-2.1c0.5,0,0.9,0.2,1.2,0.6C179.6,19.5,179.7,20,179.7,20.7 M178.2,16
			l-3.8,6.8h-1.1l3.8-6.8C177.1,16,178.2,16,178.2,16z M172.9,18c0,0.4,0,0.7,0.1,0.9c0.1,0.2,0.2,0.3,0.3,0.3
			c0.3,0,0.4-0.4,0.4-1.2c0-0.8-0.2-1.2-0.4-1.2s-0.3,0.1-0.3,0.3C172.9,17.3,172.9,17.6,172.9,18 M175,18c0,0.7-0.1,1.3-0.4,1.6
			c-0.3,0.4-0.7,0.5-1.2,0.5s-0.9-0.2-1.2-0.6s-0.4-0.9-0.4-1.6c0-1.4,0.5-2.1,1.6-2.1c0.5,0,0.9,0.2,1.2,0.6
			C174.8,16.8,175,17.3,175,18"/>
	</g>
</g>
<rect x="146.9" y="23.3" class="st12" width="33.2" height="0.5"/>
<polygon class="st13" points="258.8,157.5 261.4,151.9 258,151.9 258,150.7 262.9,150.7 262.9,151.6 260.3,157.5 "/>
<g>
	<g>
		<defs>
			<rect id="SVGID_23_" y="0" width="360" height="182"/>
		</defs>
		<clipPath id="SVGID_24_">
			<use xlink:href="#SVGID_23_"  style="overflow:visible;"/>
		</clipPath>
		<path class="st14" d="M265.9,151.7c-0.2,0-0.4,0.1-0.6,0.2c-0.2,0.1-0.2,0.3-0.2,0.5s0.1,0.4,0.2,0.5s0.3,0.3,0.7,0.5
			c0.3-0.1,0.5-0.3,0.6-0.4s0.2-0.3,0.2-0.5s-0.1-0.4-0.2-0.5C266.4,151.7,266.2,151.7,265.9,151.7 M264.9,155.7
			c0,0.3,0.1,0.5,0.3,0.6c0.2,0.1,0.4,0.2,0.8,0.2s0.6-0.1,0.8-0.2c0.2-0.2,0.3-0.4,0.3-0.6c0-0.2-0.1-0.4-0.3-0.6
			c-0.2-0.2-0.5-0.4-0.9-0.6C265.2,154.9,264.9,155.2,264.9,155.7 M265.9,150.6c0.7,0,1.2,0.1,1.6,0.4c0.4,0.3,0.6,0.7,0.6,1.2
			c0,0.3-0.1,0.7-0.3,0.9s-0.5,0.5-0.9,0.7c0.5,0.3,0.9,0.6,1.1,0.9c0.2,0.3,0.3,0.6,0.3,1c0,0.6-0.2,1-0.7,1.4
			c-0.4,0.3-1,0.5-1.7,0.5s-1.3-0.2-1.8-0.5c-0.4-0.3-0.6-0.8-0.6-1.3c0-0.4,0.1-0.7,0.3-1s0.5-0.6,1-0.8c-0.4-0.2-0.7-0.5-0.8-0.8
			c-0.2-0.3-0.3-0.6-0.3-0.9c0-0.5,0.2-0.9,0.6-1.2C264.8,150.8,265.3,150.6,265.9,150.6"/>
	</g>
	<g>
		<defs>
			<rect id="SVGID_25_" y="0" width="360" height="182"/>
		</defs>
		<clipPath id="SVGID_26_">
			<use xlink:href="#SVGID_25_"  style="overflow:visible;"/>
		</clipPath>
		<path class="st15" d="M270.8,156.5c-0.2,0.6-0.4,1.4-0.8,2.2h-1c0.2-0.8,0.4-1.6,0.5-2.3h1.3V156.5z"/>
	</g>
	<g>
		<defs>
			<rect id="SVGID_27_" y="0" width="360" height="182"/>
		</defs>
		<clipPath id="SVGID_28_">
			<use xlink:href="#SVGID_27_"  style="overflow:visible;"/>
		</clipPath>
		<path class="st16" d="M274.2,156.5c0.3,0,0.5-0.1,0.7-0.3s0.2-0.5,0.2-0.9c0-0.3-0.1-0.6-0.2-0.8s-0.4-0.3-0.7-0.3
			c-0.3,0-0.5,0.1-0.7,0.3s-0.3,0.4-0.3,0.7c0,0.4,0.1,0.7,0.3,0.9C273.7,156.3,273.9,156.5,274.2,156.5 M271.8,154.6
			c0-1.3,0.3-2.4,0.9-3c0.6-0.7,1.4-1,2.6-1c0.4,0,0.7,0,0.9,0.1v1.2c-0.3-0.1-0.5-0.1-0.8-0.1c-0.5,0-0.9,0.1-1.2,0.2
			c-0.3,0.1-0.5,0.4-0.7,0.7s-0.2,0.7-0.3,1.2h0.1c0.3-0.5,0.8-0.8,1.5-0.8c0.6,0,1.1,0.2,1.4,0.6c0.3,0.4,0.5,0.9,0.5,1.6
			c0,0.7-0.2,1.3-0.6,1.7s-1,0.6-1.7,0.6c-0.5,0-0.9-0.1-1.3-0.4c-0.4-0.2-0.7-0.6-0.9-1C271.9,155.8,271.8,155.3,271.8,154.6"/>
	</g>
	<g>
		<defs>
			<rect id="SVGID_29_" y="0" width="360" height="182"/>
		</defs>
		<clipPath id="SVGID_30_">
			<use xlink:href="#SVGID_29_"  style="overflow:visible;"/>
		</clipPath>
		<path class="st17" d="M280,155v-1.2c0-0.2,0-0.5,0-0.8c0-0.4,0-0.6,0-0.6l0,0c-0.1,0.3-0.3,0.5-0.4,0.7l-1.2,1.9L280,155L280,155z
			 M282.2,156.1h-0.8v1.4H280v-1.4h-2.9v-1l3-4.4h1.3v4.3h0.8L282.2,156.1L282.2,156.1z"/>
	</g>
	<g>
		<defs>
			<rect id="SVGID_31_" y="0" width="360" height="182"/>
		</defs>
		<clipPath id="SVGID_32_">
			<use xlink:href="#SVGID_31_"  style="overflow:visible;"/>
		</clipPath>
		<path class="st18" d="M288.6,155.5c0,0.4,0,0.7,0.1,0.9s0.2,0.3,0.3,0.3c0.3,0,0.4-0.4,0.4-1.2s-0.1-1.2-0.4-1.2
			c-0.2,0-0.3,0.1-0.3,0.3C288.6,154.8,288.6,155.1,288.6,155.5 M290.7,155.5c0,0.7-0.1,1.2-0.4,1.6c-0.3,0.4-0.7,0.5-1.2,0.5
			s-0.9-0.2-1.2-0.6c-0.3-0.4-0.4-0.9-0.4-1.6c0-1.4,0.5-2.1,1.6-2.1c0.5,0,0.9,0.2,1.2,0.6C290.5,154.3,290.7,154.8,290.7,155.5
			 M289.1,150.7l-3.8,6.8h-1.1l3.8-6.8H289.1z M283.8,152.7c0,0.4,0,0.7,0.1,0.9s0.2,0.3,0.3,0.3c0.3,0,0.4-0.4,0.4-1.2
			s-0.1-1.2-0.4-1.2c-0.2,0-0.3,0.1-0.3,0.3C283.8,152.1,283.8,152.4,283.8,152.7 M285.9,152.7c0,0.7-0.1,1.3-0.4,1.6
			c-0.3,0.4-0.7,0.5-1.2,0.5s-0.9-0.2-1.2-0.6c-0.3-0.4-0.4-0.9-0.4-1.6c0-1.4,0.5-2.1,1.6-2.1c0.5,0,0.9,0.2,1.2,0.6
			C285.7,151.5,285.9,152.1,285.9,152.7"/>
	</g>
</g>
<rect x="257.8" y="158" class="st13" width="33.2" height="0.5"/>
<rect x="20" y="93.1" class="st13" width="22.1" height="2.7"/>
<rect x="20" y="69.5" class="st12" width="22.1" height="2.7"/>
<g>
	<path d="M25.8,76.9v2.2c0,0.8,0.4,1.2,0.9,1.2s0.9-0.4,0.9-1.2v-2.2h0.5v2.2c0,1.1-0.6,1.6-1.4,1.6s-1.3-0.4-1.3-1.6v-2.2H25.8z"/>
	<path d="M28.9,80.6v-3.7h0.5l1.2,1.9c0.3,0.4,0.5,0.8,0.7,1.2l0,0c0-0.5-0.1-0.9-0.1-1.5V77h0.5v3.7h-0.5l-1.2-2
		c-0.3-0.4-0.5-0.8-0.7-1.2l0,0c0,0.5,0,0.9,0,1.5v1.6H28.9z"/>
	<path d="M33,76.9v3.7h-0.5v-3.7H33z"/>
	<path d="M33.9,76.9c0.3,0,0.6-0.1,1-0.1c0.7,0,1.2,0.2,1.5,0.5s0.5,0.7,0.5,1.3c0,0.6-0.2,1.1-0.5,1.4s-0.9,0.5-1.6,0.5
		c-0.3,0-0.6,0-0.9,0V76.9z M34.3,80.2c0.1,0,0.3,0,0.5,0c1,0,1.6-0.6,1.6-1.6c0-0.9-0.5-1.4-1.5-1.4c-0.2,0-0.4,0-0.6,0V80.2z"/>
	<path d="M39.4,78.9H38v1.3h1.6v0.4h-2.1v-3.7h2v0.4H38v1.2h1.4V78.9z"/>
	<path d="M40.2,80.6v-3.7h0.5l1.2,1.9c0.3,0.4,0.5,0.8,0.7,1.2l0,0c0-0.5-0.1-0.9-0.1-1.5V77H43v3.7h-0.5l-1.2-1.9
		c-0.3-0.4-0.5-0.8-0.7-1.2l0,0c0,0.5,0,0.9,0,1.5v1.6L40.2,80.6L40.2,80.6z"/>
	<path d="M44.6,77.3h-1.1v-0.4h2.7v0.4H45v3.3h-0.5L44.6,77.3L44.6,77.3z"/>
	<path d="M47.1,76.9v3.7h-0.5v-3.7H47.1z"/>
	<path d="M47.9,76.9h2v0.4h-1.5v1.2h1.4v0.4h-1.4v1.7h-0.5V76.9z"/>
	<path d="M51.1,76.9v3.7h-0.5v-3.7H51.1z"/>
	<path d="M53.8,78.9h-1.4v1.3H54v0.4h-2.1v-3.7h2v0.4h-1.5v1.2h1.4C53.8,78.5,53.8,78.9,53.8,78.9z"/>
	<path d="M54.6,76.9c0.3,0,0.6-0.1,1-0.1c0.7,0,1.2,0.2,1.5,0.5s0.5,0.7,0.5,1.3c0,0.6-0.2,1.1-0.5,1.4s-0.9,0.5-1.6,0.5
		c-0.3,0-0.6,0-0.9,0V76.9z M55.1,80.2c0.1,0,0.3,0,0.5,0c1,0,1.6-0.6,1.6-1.6c0-0.9-0.5-1.4-1.5-1.4c-0.2,0-0.4,0-0.6,0V80.2z"/>
	<path d="M62.6,78.7c0,1.3-0.8,2-1.7,2c-1,0-1.7-0.8-1.7-1.9c0-1.2,0.7-1.9,1.7-1.9C61.9,76.8,62.6,77.6,62.6,78.7z M59.7,78.8
		c0,0.8,0.4,1.5,1.2,1.5s1.2-0.7,1.2-1.5c0-0.7-0.4-1.5-1.2-1.5C60.1,77.2,59.7,78,59.7,78.8z"/>
	<path d="M63.2,76.9c0.2,0,0.6-0.1,0.9-0.1c0.5,0,0.8,0.1,1.1,0.3c0.2,0.2,0.3,0.4,0.3,0.7c0,0.5-0.3,0.8-0.7,0.9l0,0
		c0.3,0.1,0.5,0.4,0.5,0.7c0.1,0.5,0.2,0.9,0.3,1h-0.5C65,80.3,65,80,64.9,79.5s-0.3-0.7-0.7-0.7h-0.5v1.6h-0.5L63.2,76.9L63.2,76.9
		z M63.7,78.6h0.5c0.5,0,0.8-0.3,0.8-0.7c0-0.5-0.3-0.7-0.9-0.7c-0.2,0-0.4,0-0.5,0v1.4H63.7z"/>
	<path d="M28.5,85.6c0-0.5-0.1-1.1-0.1-1.6l0,0c-0.1,0.4-0.3,0.9-0.5,1.4l-0.7,1.8h-0.4l-0.6-1.8c-0.2-0.5-0.3-1-0.4-1.4l0,0
		c0,0.5,0,1.1-0.1,1.6l-0.1,1.6h-0.5l0.3-3.7H26l0.6,1.8c0.2,0.5,0.3,0.9,0.4,1.2l0,0c0.1-0.4,0.2-0.8,0.4-1.2l0.7-1.8h0.6l0.2,3.7
		h-0.5L28.5,85.6z"/>
	<path d="M30.3,86l-0.4,1.2h-0.5l1.3-3.7h0.6l1.3,3.7H32L31.6,86H30.3z M31.5,85.7l-0.4-1.1c-0.1-0.2-0.1-0.5-0.2-0.7l0,0
		c-0.1,0.2-0.1,0.4-0.2,0.7l-0.4,1.1H31.5z"/>
	<path d="M33.1,83.5h0.5v3.3h1.6v0.4h-2.1V83.5z"/>
	<path d="M35.7,83.5h2v0.4h-1.5v1.2h1.4v0.4h-1.4v1.7h-0.5V83.5z"/>
	<path d="M38.9,83.5v2.2c0,0.8,0.4,1.2,0.9,1.2s0.9-0.4,0.9-1.2v-2.2h0.5v2.2c0,1.1-0.6,1.6-1.4,1.6c-0.8,0-1.3-0.4-1.3-1.6v-2.2
		H38.9z"/>
	<path d="M41.9,87.2v-3.7h0.5l1.2,1.9c0.3,0.4,0.5,0.8,0.7,1.2l0,0c0-0.5-0.1-0.9-0.1-1.5v-1.5h0.5v3.7h-0.5L43,85.4
		c-0.3-0.4-0.5-0.8-0.7-1.2l0,0c0,0.5,0,0.9,0,1.5v1.6L41.9,87.2L41.9,87.2z"/>
	<path d="M48.1,87.1c-0.2,0.1-0.5,0.2-1,0.2c-1,0-1.8-0.7-1.8-1.9c0-1.2,0.8-1.9,1.9-1.9c0.5,0,0.8,0.1,0.9,0.2L48,84
		c-0.2-0.1-0.4-0.2-0.7-0.2c-0.9,0-1.4,0.6-1.4,1.5s0.5,1.5,1.4,1.5c0.3,0,0.6-0.1,0.8-0.2V87.1z"/>
	<path d="M49.6,83.9h-1.1v-0.4h2.7v0.4h-1.1v3.3h-0.5C49.6,87.2,49.6,83.9,49.6,83.9z"/>
	<path d="M52.1,83.5v3.7h-0.5v-3.7H52.1z"/>
	<path d="M56.1,85.3c0,1.3-0.8,2-1.7,2c-1,0-1.7-0.8-1.7-1.9c0-1.2,0.7-1.9,1.7-1.9C55.5,83.4,56.1,84.2,56.1,85.3z M53.2,85.4
		c0,0.8,0.4,1.5,1.2,1.5s1.2-0.7,1.2-1.5c0-0.7-0.4-1.5-1.2-1.5C53.6,83.8,53.2,84.6,53.2,85.4z"/>
	<path d="M56.7,87.2v-3.7h0.5l1.2,1.9c0.3,0.4,0.5,0.8,0.7,1.2l0,0c0-0.5-0.1-0.9-0.1-1.5v-1.5h0.5v3.7H59l-1.2-1.9
		c-0.3-0.4-0.5-0.8-0.7-1.2l0,0c0,0.5,0,0.9,0,1.5v1.6L56.7,87.2L56.7,87.2z"/>
	<path d="M60.8,83.5v3.7h-0.5v-3.7H60.8z"/>
	<path d="M61.7,87.2v-3.7h0.5l1.2,1.9c0.3,0.4,0.5,0.8,0.7,1.2l0,0c0-0.5-0.1-0.9-0.1-1.5v-1.5h0.5v3.7H64l-1.2-1.9
		c-0.3-0.4-0.5-0.8-0.7-1.2l0,0c0,0.5,0,0.9,0,1.5v1.6L61.7,87.2L61.7,87.2z"/>
	<path d="M68.1,87c-0.2,0.1-0.6,0.2-1.1,0.2c-0.6,0-1-0.1-1.4-0.5c-0.3-0.3-0.5-0.8-0.5-1.4c0-1.1,0.8-1.9,2-1.9
		c0.4,0,0.8,0.1,0.9,0.2L67.9,84c-0.2-0.1-0.4-0.2-0.8-0.2c-0.9,0-1.5,0.6-1.5,1.5s0.6,1.5,1.4,1.5c0.3,0,0.5,0,0.6-0.1v-1.1h-0.8
		v-0.4H68V87H68.1z"/>
	<path d="M71.9,85.5h-1.4v1.3h1.6v0.4H70v-3.7h2v0.4h-1.5v1.2h1.4V85.5z"/>
	<path d="M73.8,85.5v0.4h-1.4v-0.4H73.8z"/>
	<path d="M74.3,86.6c0.2,0.1,0.5,0.2,0.9,0.2c0.5,0,0.8-0.3,0.8-0.6c0-0.3-0.2-0.5-0.7-0.7c-0.6-0.2-1-0.5-1-1c0-0.6,0.5-1,1.2-1
		c0.4,0,0.7,0.1,0.8,0.2L76.2,84c-0.1-0.1-0.4-0.2-0.7-0.2c-0.5,0-0.7,0.3-0.7,0.6c0,0.3,0.2,0.5,0.7,0.7c0.6,0.2,0.9,0.5,0.9,1.1
		s-0.4,1.1-1.3,1.1c-0.4,0-0.7-0.1-0.9-0.2L74.3,86.6z"/>
	<path d="M77.6,83.5v3.7h-0.5v-3.7H77.6z"/>
	<path d="M81,87.1c-0.2,0.1-0.5,0.2-1,0.2c-1,0-1.8-0.7-1.8-1.9c0-1.2,0.8-1.9,1.9-1.9c0.5,0,0.8,0.1,0.9,0.2L80.9,84
		c-0.2-0.1-0.4-0.2-0.7-0.2c-0.9,0-1.4,0.6-1.4,1.5s0.5,1.5,1.4,1.5c0.3,0,0.6-0.1,0.8-0.2L81,87.1z"/>
</g>
<g>
	<path d="M25.4,100.6c0.2,0,0.5-0.1,0.9-0.1c0.5,0,0.8,0.1,1,0.3c0.2,0.2,0.3,0.4,0.3,0.8c0,0.3-0.1,0.6-0.3,0.8
		c-0.3,0.3-0.7,0.4-1.1,0.4c-0.1,0-0.3,0-0.4,0v1.5h-0.5v-3.7H25.4z M25.8,102.4c0.1,0,0.2,0,0.4,0c0.6,0,0.9-0.3,0.9-0.8
		s-0.3-0.7-0.9-0.7c-0.2,0-0.4,0-0.5,0v1.5H25.8z"/>
	<path d="M31.5,102.4c0,1.3-0.8,2-1.7,2c-1,0-1.7-0.8-1.7-1.9c0-1.2,0.7-1.9,1.7-1.9C30.8,100.5,31.5,101.3,31.5,102.4z M28.6,102.5
		c0,0.8,0.4,1.5,1.2,1.5c0.8,0,1.2-0.7,1.2-1.5c0-0.7-0.4-1.5-1.2-1.5C29,100.9,28.6,101.7,28.6,102.5z"/>
	<path d="M32,103.7c0.2,0.1,0.5,0.2,0.9,0.2c0.5,0,0.8-0.3,0.8-0.6c0-0.3-0.2-0.5-0.7-0.7c-0.6-0.2-1-0.5-1-1c0-0.6,0.5-1,1.2-1
		c0.4,0,0.7,0.1,0.8,0.2l-0.1,0.4c-0.1-0.1-0.4-0.2-0.7-0.2c-0.5,0-0.7,0.3-0.7,0.6c0,0.3,0.2,0.5,0.7,0.7c0.6,0.2,0.9,0.5,0.9,1.1
		s-0.4,1.1-1.3,1.1c-0.4,0-0.7-0.1-0.9-0.2L32,103.7z"/>
	<path d="M34.7,103.7c0.2,0.1,0.5,0.2,0.9,0.2c0.5,0,0.8-0.3,0.8-0.6c0-0.3-0.2-0.5-0.7-0.7c-0.6-0.2-1-0.5-1-1c0-0.6,0.5-1,1.2-1
		c0.4,0,0.7,0.1,0.8,0.2l-0.1,0.4c-0.1-0.1-0.4-0.2-0.7-0.2c-0.5,0-0.7,0.3-0.7,0.6c0,0.3,0.2,0.5,0.7,0.7c0.6,0.2,0.9,0.5,0.9,1.1
		s-0.4,1.1-1.3,1.1c-0.4,0-0.7-0.1-0.9-0.2L34.7,103.7z"/>
	<path d="M38,100.6v3.7h-0.5v-3.7H38z"/>
	<path d="M38.8,100.6c0.2,0,0.5-0.1,0.9-0.1c0.5,0,0.8,0.1,1,0.3c0.2,0.1,0.3,0.4,0.3,0.7c0,0.4-0.2,0.7-0.6,0.8l0,0
		c0.4,0.1,0.8,0.4,0.8,0.9c0,0.3-0.1,0.6-0.3,0.7c-0.3,0.2-0.7,0.3-1.3,0.3c-0.3,0-0.6,0-0.7,0v-3.6H38.8z M39.3,102.2h0.4
		c0.5,0,0.8-0.3,0.8-0.6c0-0.4-0.3-0.6-0.8-0.6c-0.2,0-0.3,0-0.4,0V102.2z M39.3,103.9c0.1,0,0.2,0,0.4,0c0.5,0,1-0.2,1-0.7
		s-0.4-0.7-1-0.7h-0.4V103.9z"/>
	<path d="M41.8,100.6h0.5v3.3h1.6v0.4h-2.1V100.6z"/>
	<path d="M46.3,102.6h-1.4v1.3h1.6v0.4h-2.1v-3.7h2v0.4h-1.5v1.2h1.4V102.6z"/>
	<path d="M48.7,101h-1.1v-0.4h2.7v0.4h-1.1v3.3h-0.5C48.7,104.3,48.7,101,48.7,101z"/>
	<path d="M53.8,102.4c0,1.3-0.8,2-1.7,2c-1,0-1.7-0.8-1.7-1.9c0-1.2,0.7-1.9,1.7-1.9C53.1,100.5,53.8,101.3,53.8,102.4z M50.9,102.5
		c0,0.8,0.4,1.5,1.2,1.5s1.2-0.7,1.2-1.5c0-0.7-0.4-1.5-1.2-1.5C51.3,100.9,50.9,101.7,50.9,102.5z"/>
	<path d="M58.2,104.2c-0.2,0.1-0.5,0.2-1,0.2c-1,0-1.8-0.7-1.8-1.9c0-1.2,0.8-1.9,1.9-1.9c0.5,0,0.8,0.1,0.9,0.2l-0.1,0.4
		c-0.2-0.1-0.4-0.2-0.7-0.2c-0.9,0-1.4,0.6-1.4,1.5s0.5,1.5,1.4,1.5c0.3,0,0.6-0.1,0.8-0.2L58.2,104.2z"/>
	<path d="M61.8,102.4c0,1.3-0.8,2-1.7,2c-1,0-1.7-0.8-1.7-1.9c0-1.2,0.7-1.9,1.7-1.9C61.2,100.5,61.8,101.3,61.8,102.4z M58.9,102.5
		c0,0.8,0.4,1.5,1.2,1.5s1.2-0.7,1.2-1.5c0-0.7-0.4-1.5-1.2-1.5C59.3,100.9,58.9,101.7,58.9,102.5z"/>
	<path d="M65.6,102.7c0-0.5-0.1-1.1-0.1-1.6l0,0c-0.1,0.4-0.3,0.9-0.5,1.4l-0.7,1.8H64l-0.6-1.8c-0.2-0.5-0.3-1-0.4-1.4l0,0
		c0,0.5,0,1.1-0.1,1.6l-0.1,1.6h-0.5l0.3-3.7h0.6l0.6,1.8c0.2,0.5,0.3,0.9,0.4,1.2l0,0c0.1-0.4,0.2-0.8,0.4-1.2l0.7-1.8h0.6l0.2,3.7
		h-0.5L65.6,102.7z"/>
	<path d="M66.9,100.6c0.2,0,0.5-0.1,0.9-0.1c0.5,0,0.8,0.1,1,0.3c0.2,0.2,0.3,0.4,0.3,0.8c0,0.3-0.1,0.6-0.3,0.8
		c-0.3,0.3-0.7,0.4-1.1,0.4c-0.1,0-0.3,0-0.4,0v1.5h-0.5L66.9,100.6L66.9,100.6z M67.3,102.4c0.1,0,0.2,0,0.4,0
		c0.6,0,0.9-0.3,0.9-0.8s-0.3-0.7-0.9-0.7c-0.2,0-0.4,0-0.5,0L67.3,102.4L67.3,102.4z"/>
	<path d="M69.8,100.6h0.5v3.3h1.6v0.4h-2.1V100.6z"/>
	<path d="M74.3,102.6h-1.4v1.3h1.6v0.4h-2.1v-3.7h2v0.4h-1.5v1.2h1.4V102.6z"/>
	<path d="M75.9,101h-1.1v-0.4h2.7v0.4h-1.1v3.3h-0.5V101z"/>
	<path d="M79.8,102.6h-1.4v1.3H80v0.4h-2.1v-3.7h2v0.4h-1.5v1.2h1.4V102.6z"/>
	<path d="M82.4,103.1l-0.4,1.2h-0.5l1.3-3.7h0.6l1.3,3.7h-0.5l-0.4-1.2H82.4z M83.6,102.8l-0.4-1.1c-0.1-0.2-0.1-0.5-0.2-0.7l0,0
		c-0.1,0.2-0.1,0.4-0.2,0.7l-0.4,1.1H83.6z"/>
	<path d="M85.2,104.3v-3.7h0.5l1.2,1.9c0.3,0.4,0.5,0.8,0.7,1.2l0,0c0-0.5-0.1-0.9-0.1-1.5v-1.5H88v3.7h-0.5l-1.2-1.9
		c-0.3-0.4-0.5-0.8-0.7-1.2l0,0c0,0.5,0,0.9,0,1.5v1.6L85.2,104.3L85.2,104.3z"/>
	<path d="M88.8,100.6c0.3,0,0.6-0.1,1-0.1c0.7,0,1.2,0.2,1.5,0.5s0.5,0.7,0.5,1.3c0,0.6-0.2,1.1-0.5,1.4s-0.9,0.5-1.6,0.5
		c-0.3,0-0.6,0-0.9,0V100.6z M89.3,103.9c0.1,0,0.3,0,0.5,0c1,0,1.6-0.6,1.6-1.6c0-0.9-0.5-1.4-1.5-1.4c-0.2,0-0.4,0-0.6,0V103.9z"
		/>
	<path d="M25.4,107.2h2v0.4h-1.5v1.2h1.4v0.4h-1.4v1.7h-0.5V107.2z"/>
	<path d="M31.2,109c0,1.3-0.8,2-1.7,2c-1,0-1.7-0.8-1.7-1.9c0-1.2,0.7-1.9,1.7-1.9C30.6,107.1,31.2,107.9,31.2,109z M28.3,109.1
		c0,0.8,0.4,1.5,1.2,1.5c0.8,0,1.2-0.7,1.2-1.5c0-0.7-0.4-1.5-1.2-1.5C28.7,107.5,28.3,108.3,28.3,109.1z"/>
	<path d="M31.8,107.2h0.5v3.3h1.6v0.4h-2.1C31.8,110.9,31.8,107.2,31.8,107.2z"/>
	<path d="M34.4,107.2h0.5v3.3h1.6v0.4h-2.1V107.2z"/>
	<path d="M40,109c0,1.3-0.8,2-1.7,2c-1,0-1.7-0.8-1.7-1.9c0-1.2,0.7-1.9,1.7-1.9C39.3,107.1,40,107.9,40,109z M37.1,109.1
		c0,0.8,0.4,1.5,1.2,1.5s1.2-0.7,1.2-1.5c0-0.7-0.4-1.5-1.2-1.5C37.5,107.5,37.1,108.3,37.1,109.1z"/>
	<path d="M41.2,110.9l-0.9-3.7h0.5l0.4,1.9c0.1,0.5,0.2,0.9,0.3,1.3l0,0c0.1-0.4,0.2-0.8,0.3-1.3l0.5-1.9h0.5l0.5,1.9
		c0.1,0.4,0.2,0.9,0.3,1.3l0,0c0.1-0.4,0.2-0.8,0.3-1.3l0.5-1.9h0.5l-1,3.7h-0.5l-0.5-1.9c-0.1-0.5-0.2-0.8-0.2-1.2l0,0
		c-0.1,0.4-0.1,0.7-0.3,1.2l-0.5,1.9H41.2z"/>
	<path d="M46.4,107.2h2v0.4h-1.5v1.2h1.4v0.4h-1.4v1.7h-0.5V107.2z"/>
	<path d="M52.3,109c0,1.3-0.8,2-1.7,2c-1,0-1.7-0.8-1.7-1.9c0-1.2,0.7-1.9,1.7-1.9C51.6,107.1,52.3,107.9,52.3,109z M49.4,109.1
		c0,0.8,0.4,1.5,1.2,1.5s1.2-0.7,1.2-1.5c0-0.7-0.4-1.5-1.2-1.5C49.8,107.5,49.4,108.3,49.4,109.1z"/>
	<path d="M53.4,107.2v3.7h-0.5v-3.7H53.4z"/>
	<path d="M54.8,109.7l-0.4,1.2h-0.5l1.3-3.7h0.6l1.3,3.7h-0.5l-0.4-1.2H54.8z M56,109.4l-0.4-1.1c-0.1-0.2-0.1-0.5-0.2-0.7l0,0
		c-0.1,0.2-0.1,0.4-0.2,0.7l-0.4,1.1H56z"/>
	<path d="M58.7,107.2c0.2,0,0.6-0.1,0.9-0.1c0.5,0,0.8,0.1,1.1,0.3c0.2,0.2,0.3,0.4,0.3,0.7c0,0.5-0.3,0.8-0.7,0.9l0,0
		c0.3,0.1,0.5,0.4,0.5,0.7c0.1,0.5,0.2,0.9,0.3,1h-0.5c-0.1-0.1-0.1-0.4-0.2-0.9c-0.1-0.5-0.3-0.7-0.7-0.7h-0.5v1.6h-0.5
		C58.7,110.7,58.7,107.2,58.7,107.2z M59.2,108.9h0.5c0.5,0,0.8-0.3,0.8-0.7c0-0.5-0.3-0.7-0.9-0.7c-0.2,0-0.4,0-0.5,0v1.4H59.2z"/>
	<path d="M63.6,109.2h-1.4v1.3h1.6v0.4h-2.1v-3.7h2v0.4h-1.5v1.2h1.4V109.2z"/>
	<path d="M67.5,111.4c-0.5-0.1-1-0.3-1.4-0.4c-0.1,0-0.2-0.1-0.2-0.1c-0.9,0-1.6-0.7-1.6-1.9c0-1.2,0.7-2,1.7-2s1.7,0.8,1.7,1.9
		c0,1-0.4,1.6-1.1,1.8l0,0c0.4,0.1,0.8,0.2,1.1,0.2L67.5,111.4z M67.1,109c0-0.7-0.4-1.5-1.2-1.5c-0.8,0-1.2,0.7-1.2,1.5
		s0.4,1.5,1.2,1.5C66.6,110.6,67.1,109.9,67.1,109z"/>
	<path d="M68.7,107.2v2.2c0,0.8,0.4,1.2,0.9,1.2s0.9-0.4,0.9-1.2v-2.2H71v2.2c0,1.1-0.6,1.6-1.4,1.6s-1.3-0.4-1.3-1.6v-2.2H68.7z"/>
	<path d="M73.7,109.2h-1.4v1.3h1.6v0.4h-2.1v-3.7h2v0.4h-1.5v1.2h1.4V109.2z"/>
	<path d="M74.4,110.3c0.2,0.1,0.5,0.2,0.9,0.2c0.5,0,0.8-0.3,0.8-0.6c0-0.3-0.2-0.5-0.7-0.7c-0.6-0.2-1-0.5-1-1c0-0.6,0.5-1,1.2-1
		c0.4,0,0.7,0.1,0.8,0.2l-0.1,0.4c-0.1-0.1-0.4-0.2-0.7-0.2c-0.5,0-0.7,0.3-0.7,0.6c0,0.3,0.2,0.5,0.7,0.7c0.6,0.2,0.9,0.5,0.9,1.1
		s-0.4,1.1-1.3,1.1c-0.4,0-0.7-0.1-0.9-0.2L74.4,110.3z"/>
	<path d="M77.9,107.6h-1.1v-0.4h2.7v0.4h-1.1v3.3h-0.5V107.6z"/>
</g>
</svg>
