<svg xmlns="http://www.w3.org/2000/svg" viewBox="0 0 1920 876.61"><defs><style>.cls-1{fill:#03051f;}.cls-2{font-size:18px;letter-spacing:0.04em;}.cls-2,.cls-8{fill:#fff;font-family:OpenSans, Open Sans;}.cls-3,.cls-7{fill:#87e089;}.cls-4,.cls-6{fill:#2263ff;}.cls-5{fill:none;stroke:#fff;stroke-miterlimit:10;stroke-width:0.68px;}.cls-6,.cls-7{font-size:27.35px;font-family:OpenSans-Bold, Open Sans;font-weight:700;text-decoration:underline;}.cls-8{font-size:18.67px;}</style></defs><g id="Layer_2" data-name="Layer 2"><rect class="cls-1" x="1.37" y="0.08" width="1921.58" height="882.79"/><text class="cls-2" transform="translate(528.97 373.83)">ATRASADO</text><rect class="cls-3" x="504.97" y="333.65" width="90" height="10.2"/><text class="cls-2" transform="translate(528.97 454.86)">RESPOSTA NO PRAZO</text><rect class="cls-4" x="504.97" y="412.94" width="90" height="10.2"/><line class="cls-5" x1="763.58" y1="709.24" x2="1415.03" y2="709.24"/><text class="cls-6" transform="translate(1281.98 674.6)">4</text><rect class="cls-4" x="1281.98" y="692.26" width="69.88" height="16.98"/><rect class="cls-4" x="1082.13" y="539.48" width="69.88" height="169.75"/><rect class="cls-3" x="1082.13" y="471.58" width="69.88" height="67.9"/><rect class="cls-4" x="867.89" y="250.9" width="69.88" height="458.34"/><rect class="cls-3" x="867.89" y="132.07" width="69.88" height="118.83"/><text class="cls-6" transform="translate(828.75 268.46)">65</text><text class="cls-7" transform="translate(826.75 147.03)">20</text><text class="cls-6" transform="translate(1050.39 561.67)">2</text><text class="cls-7" transform="translate(1050.28 491.51)">5</text><line class="cls-5" x1="504.97" y1="-22.66" x2="504.97" y2="893.85"/><text class="cls-2" transform="translate(528.97 373.83)">ATRASADO</text><rect class="cls-3" x="504.97" y="333.65" width="90" height="10.2"/><text class="cls-2" transform="translate(528.97 454.86)">RESPOSTA NO PRAZO</text><rect class="cls-4" x="504.97" y="412.94" width="90" height="10.2"/><text class="cls-8" transform="translate(843.34 739.38)">RESPONDIDO</text><text class="cls-8" transform="translate(1071.91 739.38)">RESPOSTA<tspan x="-28.25" y="22.4" xml:space="preserve"> INSATISFATÓRIA</tspan></text><text class="cls-8" transform="translate(1260.12 740.15)">INDICAÇÃO DE <tspan x="-0.95" y="22.4">OUTRO ÓRGÃO</tspan></text><line class="cls-5" x1="763.58" y1="709.24" x2="1415.03" y2="709.24"/></g></svg>