<svg id="Layer_1" data-name="Layer 1" xmlns="http://www.w3.org/2000/svg" viewBox="0 0 768 975.21"><defs><style>.cls-1,.cls-6{fill:#030420;}.cls-2,.cls-6,.cls-7{font-size:26px;}.cls-2,.cls-5,.cls-7{fill:#fff;}.cls-2{font-family:OpenSans, Open Sans;letter-spacing:0.04em;}.cls-3{fill:#83e084;}.cls-4{fill:#1a5dff;}.cls-5{font-size:25px;}.cls-5,.cls-6,.cls-7{font-family:OpenSans-Bold, Open Sans;font-weight:700;}.cls-6,.cls-7{text-decoration:underline;}.cls-8,.cls-9{fill:none;stroke:#fff;stroke-miterlimit:10;}.cls-8{stroke-width:0.81px;}.cls-9{stroke-width:0.54px;}</style></defs><rect class="cls-1" x="-2" y="1.79" width="770" height="1122.71"/><text class="cls-2" transform="translate(84.86 176.6)">ATRASADO</text><rect class="cls-3" x="57.49" y="125.85" width="102.66" height="11.63"/><text class="cls-2" transform="translate(305.73 176.36)">RESPOSTA NO PRAZO</text><rect class="cls-4" x="278.35" y="123.39" width="102.66" height="11.63"/><text class="cls-5" transform="translate(50.52 829.76)">PI</text><text class="cls-5" transform="translate(141.67 829.76)">RJ</text><text class="cls-5" transform="translate(223.8 829.76)">AP</text><text class="cls-5" transform="translate(311.92 829.76)">AM</text><text class="cls-5" transform="translate(404.21 829.76)">AL</text><text class="cls-5" transform="translate(492.02 829.76)">AC</text><text class="cls-5" transform="translate(577.72 829.76)">MT</text><text class="cls-5" transform="translate(670.03 829.76)">PE</text><rect class="cls-4" x="47.64" y="506.15" width="40.56" height="291.59"/><rect class="cls-3" x="47.64" y="297.87" width="40.56" height="208.28"/><text class="cls-6" transform="translate(57.57 499.84)">5</text><text class="cls-7" transform="translate(57.57 790.37)">7</text><rect class="cls-4" x="312.05" y="589.46" width="40.56" height="208.28"/><rect class="cls-3" x="312.05" y="464.49" width="40.56" height="124.97"/><text class="cls-7" transform="translate(317.56 790.37)">5</text><text class="cls-6" transform="translate(317.56 583.2)">3</text><rect class="cls-4" x="135.78" y="381.18" width="40.56" height="416.55"/><rect class="cls-3" x="135.78" y="339.53" width="40.56" height="41.66"/><text class="cls-7" transform="translate(143.87 790.37)">10</text><text class="cls-6" transform="translate(143.87 374.11)">1</text><rect class="cls-4" x="400.19" y="631.12" width="40.56" height="166.62"/><rect class="cls-3" x="400.19" y="589.46" width="40.56" height="41.66"/><text class="cls-7" transform="translate(409.9 790.37)">4</text><text class="cls-6" transform="translate(409.9 625.14)">1</text><rect class="cls-4" x="576.46" y="756.08" width="40.56" height="41.66"/><rect class="cls-3" x="576.46" y="714.43" width="40.56" height="41.66"/><text class="cls-7" transform="translate(583.49 790.37)">1</text><text class="cls-6" transform="translate(583.49 746.95)">1</text><rect class="cls-4" x="664.69" y="756.25" width="40.39" height="41.48"/><rect class="cls-3" x="664.69" y="714.77" width="40.39" height="41.48"/><text class="cls-7" transform="translate(671.71 791.37)">1</text><text class="cls-6" transform="translate(671.71 749.93)">1</text><rect class="cls-4" x="223.91" y="464.49" width="40.56" height="333.24"/><rect class="cls-3" x="223.91" y="381.18" width="40.56" height="83.31"/><text class="cls-7" transform="translate(229.33 790.37)">8</text><text class="cls-6" transform="translate(229.33 458)">2</text><rect class="cls-4" x="488.33" y="672.77" width="40.56" height="124.97"/><rect class="cls-3" x="488.33" y="589.46" width="40.56" height="83.31"/><text class="cls-7" transform="translate(496.53 790.37)">3</text><text class="cls-6" transform="translate(496.53 666.35)">2</text><line class="cls-8" x1="15.78" y1="797.74" x2="741.5" y2="797.74"/><line class="cls-9" x1="-8.54" y1="960.29" x2="768" y2="960.29"/></svg>