<svg id="Layer_1" data-name="Layer 1" xmlns="http://www.w3.org/2000/svg" viewBox="0 0 768 1075.01"><defs><style>.cls-1{fill:#030420;}.cls-2,.cls-8,.cls-9{fill:none;stroke-miterlimit:10;}.cls-2,.cls-9{stroke:#fff;}.cls-2{stroke-width:0.54px;}.cls-3,.cls-6{fill:#1c4ef0;}.cls-4,.cls-7{fill:#83e084;}.cls-5{font-size:20px;}.cls-10,.cls-11,.cls-5{fill:#fff;}.cls-10,.cls-5{font-family:OpenSans, Open Sans;}.cls-6,.cls-7{font-size:32px;font-family:OpenSans-Bold, Open Sans;font-weight:700;text-decoration:underline;}.cls-8{stroke:#1c4ef0;stroke-width:1.3px;}.cls-9{stroke-width:0.73px;}.cls-10{font-size:24px;letter-spacing:0.04em;}.cls-12{fill:#1a5dff;}</style></defs><rect class="cls-1" x="-59.69" y="-19.26" width="889.92" height="1347.39"/><line class="cls-2" x1="-8.54" y1="1052.06" x2="768" y2="1052.06"/><rect class="cls-3" x="559.36" y="855.52" width="75.49" height="18.26"/><rect class="cls-3" x="343.5" y="691.15" width="75.49" height="182.62"/><rect class="cls-4" x="343.5" y="618.11" width="75.49" height="73.05"/><rect class="cls-3" x="112.08" y="380.7" width="75.49" height="493.08"/><rect class="cls-4" x="112.08" y="252.86" width="75.49" height="127.84"/><text class="cls-5" transform="translate(86.09 909.17)">RESPONDIDO</text><text class="cls-5" transform="translate(332.85 909.17)">RESPOSTA<tspan x="-30.27" y="24" xml:space="preserve"> INSATISFATÓRIA</tspan></text><text class="cls-5" transform="translate(525.59 910.16)">INDICAÇÃO DE <tspan x="-1.02" y="24">OUTRO ÓRGÃO</tspan></text><text class="cls-6" transform="translate(72.57 405.99)">27</text><text class="cls-7" transform="translate(88.79 269.41)">7</text><text class="cls-6" transform="translate(302.45 712.22)">10</text><text class="cls-7" transform="translate(315.86 641.31)">4</text><text class="cls-6" transform="translate(540.98 840.51)">1</text><path class="cls-8" d="M559.36,828.3A27.6,27.6,0,0,1,587,855.9"/><line class="cls-9" x1="49.94" y1="873.78" x2="706.08" y2="873.78"/><text class="cls-10" transform="translate(119.57 169.06)">ATRASADO</text><rect class="cls-4" x="90.9" y="118.16" width="107.52" height="12.19"/><path class="cls-11" d="M330.72,164v7.12h-2V154h4.72a7.43,7.43,0,0,1,4.68,1.21,4.35,4.35,0,0,1,1.51,3.63,4.54,4.54,0,0,1-3.46,4.59l4.67,7.7h-2.36L334.31,164Zm0-1.71h2.74a4.74,4.74,0,0,0,3.11-.84,3.12,3.12,0,0,0,1-2.52,2.84,2.84,0,0,0-1-2.44,5.47,5.47,0,0,0-3.23-.75h-2.6Z"/><path class="cls-11" d="M354.18,171.13h-9.6V154h9.6v1.77h-7.59v5.52h7.13v1.76h-7.13v6.3h7.59Z"/><path class="cls-11" d="M368.66,166.57A4.21,4.21,0,0,1,367,170.1a7.2,7.2,0,0,1-4.48,1.27,11.22,11.22,0,0,1-4.7-.79v-1.92a11.9,11.9,0,0,0,2.3.7,12.34,12.34,0,0,0,2.47.26,5,5,0,0,0,3-.76,2.47,2.47,0,0,0,1-2.1,2.7,2.7,0,0,0-.36-1.46,3.33,3.33,0,0,0-1.2-1.05,17,17,0,0,0-2.56-1.09,8.21,8.21,0,0,1-3.43-2,4.48,4.48,0,0,1-1-3.06,3.84,3.84,0,0,1,1.49-3.16,6.26,6.26,0,0,1,4-1.17,11.8,11.8,0,0,1,4.72.94l-.63,1.73a10.77,10.77,0,0,0-4.14-.89,4,4,0,0,0-2.48.68,2.25,2.25,0,0,0-.9,1.89,2.89,2.89,0,0,0,.33,1.46,3,3,0,0,0,1.12,1,13.38,13.38,0,0,0,2.39,1.05,9.54,9.54,0,0,1,3.73,2.06A4.09,4.09,0,0,1,368.66,166.57Z"/><path class="cls-11" d="M384.06,159a4.78,4.78,0,0,1-1.79,4,8,8,0,0,1-5.1,1.4h-2v6.74h-2V154h4.46Q384.06,154,384.06,159Zm-8.91,3.69H377a6.75,6.75,0,0,0,3.85-.85,3.17,3.17,0,0,0,1.19-2.75,3,3,0,0,0-1.12-2.53,5.92,5.92,0,0,0-3.49-.83h-2.23Z"/><path class="cls-11" d="M403.56,162.54a9.43,9.43,0,0,1-2.09,6.47,7.36,7.36,0,0,1-5.81,2.36,7.48,7.48,0,0,1-5.87-2.32,9.51,9.51,0,0,1-2.06-6.53A9.38,9.38,0,0,1,389.8,156a7.51,7.51,0,0,1,5.88-2.3,7.33,7.33,0,0,1,5.79,2.34A9.41,9.41,0,0,1,403.56,162.54Zm-13.71,0a8.07,8.07,0,0,0,1.49,5.28,6.1,6.1,0,0,0,8.64,0,8.26,8.26,0,0,0,1.46-5.29A8.14,8.14,0,0,0,400,157.3a5.24,5.24,0,0,0-4.31-1.79,5.31,5.31,0,0,0-4.34,1.8A8,8,0,0,0,389.85,162.54Z"/><path class="cls-11" d="M418.07,166.57a4.19,4.19,0,0,1-1.65,3.53,7.19,7.19,0,0,1-4.47,1.27,11.31,11.31,0,0,1-4.71-.79v-1.92a13,13,0,0,0,4.78,1,5,5,0,0,0,3-.76,2.45,2.45,0,0,0,1-2.1,2.7,2.7,0,0,0-.35-1.46,3.33,3.33,0,0,0-1.2-1.05,18,18,0,0,0-2.56-1.09,8.19,8.19,0,0,1-3.44-2,4.53,4.53,0,0,1-1-3.06,3.82,3.82,0,0,1,1.5-3.16,6.23,6.23,0,0,1,4-1.17,11.77,11.77,0,0,1,4.72.94l-.62,1.73a10.77,10.77,0,0,0-4.14-.89,4.07,4.07,0,0,0-2.49.68,2.27,2.27,0,0,0-.89,1.89,2.89,2.89,0,0,0,.33,1.46,3,3,0,0,0,1.11,1,13.21,13.21,0,0,0,2.4,1.05,9.56,9.56,0,0,1,3.72,2.06A4.06,4.06,0,0,1,418.07,166.57Z"/><path class="cls-11" d="M427.85,171.13h-2V155.77H420.4V154h12.9v1.77h-5.45Z"/><path class="cls-11" d="M447.67,171.13l-2.14-5.45h-6.9l-2.12,5.45h-2l6.8-17.2H443l6.77,17.2Zm-2.77-7.24-2-5.31c-.26-.67-.52-1.5-.8-2.47a22,22,0,0,1-.74,2.47l-2,5.31Z"/><path class="cls-11" d="M342.16,199.93h-2.28l-9.41-14.38h-.09c.12,1.69.19,3.24.19,4.64v9.74h-1.85V182.8H331l9.38,14.32h.09c0-.21-.05-.89-.1-2s-.08-2-.06-2.46V182.8h1.87Z"/><path class="cls-11" d="M362.79,191.34a9.43,9.43,0,0,1-2.09,6.47,7.36,7.36,0,0,1-5.81,2.36,7.45,7.45,0,0,1-5.86-2.32,11.27,11.27,0,0,1,0-13,7.54,7.54,0,0,1,5.89-2.3,7.35,7.35,0,0,1,5.79,2.34A9.41,9.41,0,0,1,362.79,191.34Zm-13.71,0a8.13,8.13,0,0,0,1.49,5.28,6.1,6.1,0,0,0,8.64,0,10.25,10.25,0,0,0,0-10.53,5.22,5.22,0,0,0-4.3-1.79,5.31,5.31,0,0,0-4.35,1.8A8,8,0,0,0,349.08,191.34Z"/><path class="cls-11" d="M385.73,187.79a4.78,4.78,0,0,1-1.79,4,8,8,0,0,1-5.1,1.4h-2v6.74h-2V182.8h4.46Q385.73,182.8,385.73,187.79Zm-8.91,3.69h1.8a6.73,6.73,0,0,0,3.85-.85,3.17,3.17,0,0,0,1.19-2.75,3,3,0,0,0-1.12-2.53,5.92,5.92,0,0,0-3.49-.83h-2.23Z"/><path class="cls-11" d="M392.29,192.81v7.12h-2V182.8H395a7.43,7.43,0,0,1,4.68,1.21,4.35,4.35,0,0,1,1.51,3.63,4.54,4.54,0,0,1-3.46,4.59l4.68,7.7h-2.37l-4.17-7.12Zm0-1.71H395a4.73,4.73,0,0,0,3.1-.84,3.12,3.12,0,0,0,1-2.52,2.86,2.86,0,0,0-1-2.45,5.47,5.47,0,0,0-3.23-.75h-2.61Z"/><path class="cls-11" d="M417,199.93l-2.14-5.45h-6.89l-2.12,5.45h-2l6.81-17.2h1.68l6.77,17.2Zm-2.76-7.24-2-5.31c-.26-.67-.53-1.5-.8-2.47a24.28,24.28,0,0,1-.74,2.47l-2,5.31Z"/><path class="cls-11" d="M432.8,199.93H421v-1.56l9.13-13.78h-8.85V182.8h11.28v1.56l-9.13,13.77h9.39Z"/><path class="cls-11" d="M452,191.34a9.38,9.38,0,0,1-2.09,6.47,7.34,7.34,0,0,1-5.8,2.36,7.47,7.47,0,0,1-5.87-2.32,11.27,11.27,0,0,1,0-13,7.55,7.55,0,0,1,5.89-2.3,7.35,7.35,0,0,1,5.79,2.34A9.41,9.41,0,0,1,452,191.34Zm-13.71,0a8.13,8.13,0,0,0,1.49,5.28,6.11,6.11,0,0,0,8.65,0,8.26,8.26,0,0,0,1.46-5.29,8.14,8.14,0,0,0-1.46-5.24,5.22,5.22,0,0,0-4.3-1.79,5.31,5.31,0,0,0-4.35,1.8A8,8,0,0,0,438.32,191.34Z"/><rect class="cls-12" x="297.68" y="118.16" width="107.52" height="12.19"/></svg>