<svg xmlns="http://www.w3.org/2000/svg" viewBox="0 0 1920 913.46"><defs><style>.cls-1{fill:#03051f;}.cls-2{font-size:18px;letter-spacing:0.04em;}.cls-2,.cls-7{fill:#fff;font-family:OpenSans, Open Sans;}.cls-3,.cls-9{fill:#87e089;}.cls-4{fill:#2263ff;}.cls-10,.cls-5{fill:none;stroke-miterlimit:10;}.cls-5{stroke:#fff;stroke-width:0.68px;}.cls-6,.cls-8{fill:#2255ed;}.cls-7{font-size:18.67px;}.cls-8,.cls-9{font-size:27.35px;font-family:OpenSans-Bold, Open Sans;font-weight:700;text-decoration:underline;}.cls-10{stroke:#2255ed;stroke-width:1.2px;}</style></defs><g id="Layer_2" data-name="Layer 2"><rect class="cls-1" x="0.37" y="0.54" width="1921.58" height="912.92"/><text class="cls-2" transform="translate(519.13 318.27)">ATRASADO</text><rect class="cls-3" x="495.13" y="278.09" width="90" height="10.2"/><text class="cls-2" transform="translate(519.13 399.29)">RESPOSTA NO PRAZO</text><rect class="cls-4" x="495.13" y="357.38" width="90" height="10.2"/><line class="cls-5" x1="495.28" x2="495.28" y2="913.46"/><rect class="cls-6" x="1264.05" y="713.22" width="69.88" height="16.91"/><rect class="cls-6" x="1064.2" y="561.05" width="69.88" height="169.07"/><rect class="cls-3" x="1064.2" y="493.43" width="69.88" height="67.63"/><rect class="cls-6" x="849.96" y="273.63" width="69.88" height="456.49"/><rect class="cls-3" x="849.96" y="155.28" width="69.88" height="118.35"/><text class="cls-7" transform="translate(825.41 765.37)">RESPONDIDO</text><text class="cls-7" transform="translate(1053.98 765.37)">RESPOSTA<tspan x="-28.25" y="22.4" xml:space="preserve"> INSATISFATÓRIA</tspan></text><text class="cls-7" transform="translate(1232.24 766.14)">INDICAÇÃO DE <tspan x="-0.95" y="22.4">OUTRO ÓRGÃO</tspan></text><text class="cls-8" transform="translate(813.38 296.12)">27</text><text class="cls-9" transform="translate(828.39 169.69)">7</text><text class="cls-8" transform="translate(1026.2 579.64)">10</text><text class="cls-9" transform="translate(1038.62 513.99)">4</text><text class="cls-8" transform="translate(1247.03 698.4)">1</text><path class="cls-10" d="M1264.05,688a25.55,25.55,0,0,1,25.55,25.56"/><line class="cls-5" x1="773.42" y1="730.13" x2="1424.87" y2="730.13"/></g></svg>