<?xml version="1.0" encoding="utf-8"?>
<svg viewBox="10.02 73.893 1065.723 616.034" xmlns="http://www.w3.org/2000/svg">
  <defs>
    <style>.cls-1{fill:#030420;}.cls-15,.cls-2,.cls-3{fill:none;stroke-miterlimit:10;}.cls-15,.cls-2{stroke:#fff;}.cls-2{stroke-width:0.25px;}.cls-3{stroke:#000;}.cls-17,.cls-4{fill:#f73848;}.cls-19,.cls-5{fill:#de4d4a;}.cls-20,.cls-6{fill:#f57f4e;}.cls-21,.cls-7{fill:#f5a034;}.cls-8{fill:#fed382;}.cls-9{fill:#edd391;}.cls-10,.cls-23{fill:#fee1d4;}.cls-11{fill:#edfdb6;}.cls-12,.cls-16,.cls-26,.cls-27,.cls-28{fill:#fff;}.cls-13,.cls-24{fill:#3d60d9;}.cls-14,.cls-25{fill:#9fe79f;}.cls-16{font-size:22.79px;}.cls-16,.cls-27,.cls-28{font-family:OpenSans-Bold, Open Sans;font-weight:700;}.cls-16,.cls-27{text-decoration:underline;}.cls-17,.cls-19,.cls-20,.cls-21,.cls-23,.cls-24,.cls-25,.cls-26{font-size:19px;font-family:OpenSans, Open Sans;}.cls-17,.cls-24,.cls-26{letter-spacing:0.04em;}.cls-18,.cls-19,.cls-20,.cls-21,.cls-23,.cls-25{letter-spacing:0.04em;}.cls-19,.cls-20,.cls-21,.cls-22,.cls-26{isolation:isolate;}.cls-27{font-size:21.96px;}.cls-28{font-size:20px;letter-spacing:0.04em;}.cls-29{opacity:0.28;}</style>
  </defs>
  <g id="Layer_1" data-name="Layer 1">
    <rect id="backgorund" class="cls-1" x="-643.57" width="1919.18" height="739.27"/>
  </g>
  <g id="Layer_2" data-name="Layer 2">
    <line class="cls-2" x1="291.63" y1="645.07" x2="978.7" y2="645.07"/>
    <line class="cls-2" x1="291.63" y1="601.02" x2="978.7" y2="601.02"/>
    <line class="cls-2" x1="291.63" y1="556.97" x2="978.7" y2="556.97"/>
    <line class="cls-2" x1="291.63" y1="512.92" x2="978.7" y2="512.92"/>
    <line class="cls-2" x1="291.63" y1="468.6" x2="978.7" y2="468.6"/>
    <line class="cls-2" x1="291.63" y1="424.07" x2="978.7" y2="424.07"/>
    <line class="cls-2" x1="291.63" y1="380.02" x2="978.7" y2="380.02"/>
    <line class="cls-2" x1="291.63" y1="335.96" x2="978.7" y2="335.96"/>
    <line class="cls-2" x1="291.63" y1="291.91" x2="978.7" y2="291.91"/>
    <line class="cls-2" x1="291.63" y1="247.09" x2="978.7" y2="247.09"/>
    <line class="cls-2" x1="291.63" y1="200.22" x2="978.7" y2="200.22"/>
    <line class="cls-3" x1="291.63" y1="169.55" x2="306.7" y2="169.55"/>
    <rect class="cls-4" x="311.63" y="181.23" width="197.74" height="44.05"/>
    <rect class="cls-5" x="509.37" y="226.06" width="192.8" height="44.05"/>
    <rect class="cls-6" x="702.17" y="270.89" width="64.27" height="44.05"/>
    <rect class="cls-7" x="766.44" y="314.94" width="61.79" height="44.05"/>
    <rect class="cls-8" x="828.23" y="358.99" width="42.02" height="44.05"/>
    <rect class="cls-9" x="870.25" y="403.04" width="24.72" height="44.05"/>
    <rect class="cls-10" x="894.97" y="447.58" width="17.3" height="44.05"/>
    <rect class="cls-11" x="912.27" y="491.89" width="14.83" height="44.05"/>
    <rect class="cls-12" x="927.1" y="535.94" width="4.94" height="44.05"/>
    <rect class="cls-13" x="932.05" y="579.99" width="4.94" height="44.05"/>
    <rect class="cls-14" x="936.99" y="624.04" width="4.94" height="44.05"/>
    <polyline class="cls-15" points="941.93 148.63 941.93 119.53 311.63 119.53 311.63 148.63"/>
    <text class="cls-16" transform="translate(995.95 209.31)" style="white-space: pre;">31,6%</text>
    <text class="cls-16" transform="translate(995.95 252.97)" style="white-space: pre;">30%</text>
    <text class="cls-16" transform="translate(995.95 297.85)" style="white-space: pre;">10,3%</text>
    <text class="cls-16" transform="translate(995.95 341.8)" style="white-space: pre;">9,9%</text>
    <text class="cls-16" transform="translate(995.95 383.61)" style="white-space: pre;">6,7%</text>
    <text class="cls-16" transform="translate(995.95 429.39)" style="white-space: pre;">3,9%</text>
    <text class="cls-16" transform="translate(995.95 470.23)" style="white-space: pre;">2,8%</text>
    <text class="cls-16" transform="translate(995.95 517.1)" style="white-space: pre;">2,4%</text>
    <text class="cls-16" transform="translate(995.95 565.12)" style="white-space: pre;">0,8%</text>
    <text class="cls-16" transform="translate(995.95 608.93)" style="white-space: pre;">0,8%</text>
    <text class="cls-16" transform="translate(995.95 649.47)" style="white-space: pre;">0,8%</text>
    <text class="cls-17" transform="translate(61.2 197.92)" style="white-space: pre;">MONITORAMENTO DO <tspan class="cls-18"><tspan x="33.62" y="20">FLUXO DE PESSOAS</tspan></tspan></text>
    <text class="cls-19" transform="translate(139.86 251.97)" style="white-space: pre;">TELEMEDICINA</text>
    <text class="cls-20" transform="translate(29.86 297.8)" style="white-space: pre;">TEMPERATURA CORPORAL</text>
    <text class="cls-21" transform="translate(45.37 340.85)" style="white-space: pre;">EVOLUÇÃO DA COVID-19</text>
    <g class="cls-22">
      <path class="cls-8" d="M123.14,368.26v5.64h-1.58V360.33h3.74a5.87,5.87,0,0,1,3.7,1,3.45,3.45,0,0,1,1.2,2.88,3.61,3.61,0,0,1-2.74,3.63l3.7,6.1h-1.88L126,368.26Zm0-1.36h2.18a3.76,3.76,0,0,0,2.45-.66,2.44,2.44,0,0,0,.79-2,2.27,2.27,0,0,0-.8-1.94,4.3,4.3,0,0,0-2.56-.59h-2.06Z"/>
      <path class="cls-8" d="M142.68,373.9,141,369.58h-5.46l-1.68,4.32h-1.6l5.38-13.62H139l5.36,13.62Zm-2.19-5.74-1.58-4.2c-.21-.53-.42-1.18-.64-2a16.58,16.58,0,0,1-.58,2l-1.6,4.2Z"/>
      <path class="cls-8" d="M154.65,370.29a3.33,3.33,0,0,1-1.31,2.79,5.66,5.66,0,0,1-3.54,1,8.82,8.82,0,0,1-3.73-.62v-1.52a10.6,10.6,0,0,0,1.83.56,10.11,10.11,0,0,0,2,.2,3.94,3.94,0,0,0,2.38-.6,1.94,1.94,0,0,0,.8-1.66,2.14,2.14,0,0,0-.28-1.16,2.74,2.74,0,0,0-.95-.83,13.78,13.78,0,0,0-2-.86,6.38,6.38,0,0,1-2.71-1.61,3.48,3.48,0,0,1-.82-2.42,3,3,0,0,1,1.18-2.49,4.94,4.94,0,0,1,3.13-.93,9.35,9.35,0,0,1,3.74.74l-.49,1.37a8.5,8.5,0,0,0-3.28-.7,3.18,3.18,0,0,0-2,.54,1.77,1.77,0,0,0-.71,1.49,2.34,2.34,0,0,0,.26,1.16,2.47,2.47,0,0,0,.89.82,10.6,10.6,0,0,0,1.89.83,7.59,7.59,0,0,1,3,1.63A3.22,3.22,0,0,1,154.65,370.29Z"/>
      <path class="cls-8" d="M162.39,373.9H160.8V361.73h-4.31v-1.4H166.7v1.4h-4.31Z"/>
      <path class="cls-8" d="M171.1,368.26v5.64h-1.59V360.33h3.74a5.85,5.85,0,0,1,3.7,1,3.45,3.45,0,0,1,1.2,2.88,3.6,3.6,0,0,1-2.74,3.63l3.7,6.1h-1.87l-3.3-5.64Zm0-1.36h2.17a3.77,3.77,0,0,0,2.46-.66,2.47,2.47,0,0,0,.78-2,2.24,2.24,0,0,0-.8-1.94,4.28,4.28,0,0,0-2.55-.59H171.1Z"/>
      <path class="cls-8" d="M189.67,373.9h-7.6V360.33h7.6v1.4h-6v4.37h5.64v1.4h-5.64v5h6Z"/>
      <path class="cls-8" d="M202,373.9l-1.69-4.32h-5.46l-1.68,4.32h-1.6L197,360.28h1.33l5.36,13.62Zm-2.19-5.74-1.58-4.2c-.21-.53-.42-1.18-.64-2a16.58,16.58,0,0,1-.58,2l-1.6,4.2Z"/>
      <path class="cls-8" d="M212.32,373.9l-4.63-12h-.07c.09,1,.13,2.09.13,3.4v8.63h-1.46V360.33h2.38L213,371.52h.07l4.35-11.19h2.37V373.9H218.2v-8.74c0-1,0-2.09.13-3.27h-.08l-4.66,12Z"/>
      <path class="cls-8" d="M231.87,373.9h-7.59V360.33h7.59v1.4h-6v4.37h5.65v1.4h-5.65v5h6Z"/>
      <path class="cls-8" d="M246.3,373.9h-1.81L237,362.51H237c.1,1.34.15,2.56.15,3.68v7.71h-1.46V360.33h1.78l7.43,11.34h.07c0-.17,0-.7-.08-1.61s-.06-1.55,0-1.94v-7.79h1.48Z"/>
      <path class="cls-8" d="M255,373.9h-1.59V361.73H249.1v-1.4h10.21v1.4H255Z"/>
      <path class="cls-8" d="M274,367.1a7.47,7.47,0,0,1-1.65,5.12,6.72,6.72,0,0,1-9.25,0,7.51,7.51,0,0,1-1.63-5.17,7.4,7.4,0,0,1,1.64-5.14,6,6,0,0,1,4.66-1.82A5.81,5.81,0,0,1,272.3,362,7.42,7.42,0,0,1,274,367.1Zm-10.86,0a6.47,6.47,0,0,0,1.18,4.18,4.2,4.2,0,0,0,3.43,1.42,4.14,4.14,0,0,0,3.42-1.42,8.14,8.14,0,0,0,0-8.34,4.13,4.13,0,0,0-3.4-1.41,4.26,4.26,0,0,0-3.45,1.42A6.39,6.39,0,0,0,263.09,367.1Z"/>
      <path class="cls-8" d="M156.66,387a6.83,6.83,0,0,1-1.83,5.13,7.29,7.29,0,0,1-5.27,1.78h-3.78V380.33H150a6.7,6.7,0,0,1,4.94,1.76A6.62,6.62,0,0,1,156.66,387ZM155,387a5.46,5.46,0,0,0-1.34-4,5.38,5.38,0,0,0-4-1.34h-2.3v10.83h1.93a5.89,5.89,0,0,0,4.25-1.38A5.5,5.5,0,0,0,155,387Z"/>
      <path class="cls-8" d="M168.05,393.9h-7.59V380.33h7.59v1.4h-6v4.37h5.65v1.4H162v5h6Z"/>
      <path class="cls-8" d="M183.39,381.55a4.48,4.48,0,0,0-3.55,1.49,6,6,0,0,0-1.3,4.08,6.14,6.14,0,0,0,1.25,4.11,4.47,4.47,0,0,0,3.58,1.45,12.26,12.26,0,0,0,3.25-.51v1.38a9.9,9.9,0,0,1-3.49.53,5.91,5.91,0,0,1-4.65-1.82,7.45,7.45,0,0,1-1.63-5.16,8.21,8.21,0,0,1,.78-3.68,5.7,5.7,0,0,1,2.28-2.43,6.88,6.88,0,0,1,3.5-.85,8.44,8.44,0,0,1,3.74.78l-.67,1.35A7.26,7.26,0,0,0,183.39,381.55Z"/>
      <path class="cls-8" d="M202.18,387.1a7.47,7.47,0,0,1-1.65,5.12,6.72,6.72,0,0,1-9.25,0,7.51,7.51,0,0,1-1.63-5.17,7.4,7.4,0,0,1,1.64-5.14,6,6,0,0,1,4.66-1.82,5.81,5.81,0,0,1,4.58,1.86A7.42,7.42,0,0,1,202.18,387.1Zm-10.85,0a6.47,6.47,0,0,0,1.17,4.18,4.2,4.2,0,0,0,3.43,1.42,4.14,4.14,0,0,0,3.42-1.42,8.14,8.14,0,0,0,0-8.34,4.12,4.12,0,0,0-3.4-1.41A4.26,4.26,0,0,0,192.5,383,6.39,6.39,0,0,0,191.33,387.1Z"/>
      <path class="cls-8" d="M216.62,393.9h-1.81l-7.44-11.39h-.08c.1,1.34.15,2.56.15,3.68v7.71H206V380.33h1.79l7.42,11.34h.08c0-.17,0-.7-.09-1.61s-.05-1.55,0-1.94v-7.79h1.48Z"/>
      <path class="cls-8" d="M225.32,393.9h-1.58V381.73h-4.32v-1.4h10.22v1.4h-4.32Z"/>
      <path class="cls-8" d="M241,393.9l-1.69-4.32h-5.46l-1.68,4.32h-1.6L236,380.28h1.33l5.36,13.62Zm-2.19-5.74-1.58-4.2c-.21-.53-.42-1.18-.64-2a16.58,16.58,0,0,1-.58,2l-1.6,4.2Z"/>
      <path class="cls-8" d="M249.48,393.9H247.9V381.73h-4.32v-1.4H253.8v1.4h-4.32Z"/>
      <path class="cls-8" d="M268.43,387.1a7.47,7.47,0,0,1-1.65,5.12,6.71,6.71,0,0,1-9.24,0,8.92,8.92,0,0,1,0-10.31,6,6,0,0,1,4.66-1.82,5.8,5.8,0,0,1,4.58,1.86A7.42,7.42,0,0,1,268.43,387.1Zm-10.85,0a6.41,6.41,0,0,0,1.18,4.18,4.83,4.83,0,0,0,6.84,0,8.14,8.14,0,0,0,0-8.34,4.12,4.12,0,0,0-3.4-1.41,4.22,4.22,0,0,0-3.44,1.42A6.34,6.34,0,0,0,257.58,387.1Z"/>
      <path class="cls-8" d="M279.92,390.29a3.32,3.32,0,0,1-1.3,2.79,5.66,5.66,0,0,1-3.54,1,8.82,8.82,0,0,1-3.73-.62v-1.52a10.76,10.76,0,0,0,1.82.56,10.19,10.19,0,0,0,2,.2,4,4,0,0,0,2.39-.6,2,2,0,0,0,.8-1.66,2.14,2.14,0,0,0-.29-1.16,2.65,2.65,0,0,0-.95-.83,13.57,13.57,0,0,0-2-.86,6.42,6.42,0,0,1-2.72-1.61,3.52,3.52,0,0,1-.81-2.42,3,3,0,0,1,1.18-2.49,4.92,4.92,0,0,1,3.13-.93,9.39,9.39,0,0,1,3.74.74l-.5,1.37a8.46,8.46,0,0,0-3.28-.7,3.15,3.15,0,0,0-2,.54,1.74,1.74,0,0,0-.71,1.49,2.34,2.34,0,0,0,.26,1.16,2.43,2.43,0,0,0,.88.82,10.76,10.76,0,0,0,1.9.83,7.53,7.53,0,0,1,2.94,1.63A3.22,3.22,0,0,1,279.92,390.29Z"/>
    </g>
    <g class="cls-22">
      <path class="cls-9" d="M123.67,422h-1.59V408.38h7.59v1.41h-6v5h5.64v1.4h-5.64Z"/>
      <path class="cls-9" d="M144.52,415.15a7.41,7.41,0,0,1-1.66,5.12,5.82,5.82,0,0,1-4.6,1.86,5.9,5.9,0,0,1-4.64-1.83,7.49,7.49,0,0,1-1.63-5.17,7.4,7.4,0,0,1,1.64-5.14,5.94,5.94,0,0,1,4.65-1.82,5.82,5.82,0,0,1,4.59,1.86A7.42,7.42,0,0,1,144.52,415.15Zm-10.86,0a6.41,6.41,0,0,0,1.18,4.18,4.19,4.19,0,0,0,3.42,1.42,4.14,4.14,0,0,0,3.42-1.42,8.09,8.09,0,0,0,0-8.33,4.12,4.12,0,0,0-3.41-1.42,4.21,4.21,0,0,0-3.44,1.43A6.31,6.31,0,0,0,133.66,415.15Z"/>
      <path class="cls-9" d="M149.9,416.31V422h-1.58V408.38h3.73a5.9,5.9,0,0,1,3.71,1,3.46,3.46,0,0,1,1.19,2.88,3.6,3.6,0,0,1-2.74,3.63l3.7,6.1H156l-3.3-5.64Zm0-1.36h2.17a3.77,3.77,0,0,0,2.46-.66,2.47,2.47,0,0,0,.78-2,2.26,2.26,0,0,0-.79-1.94,4.32,4.32,0,0,0-2.56-.59H149.9Z"/>
      <path class="cls-9" d="M171.52,422h-1.81l-7.45-11.39h-.07c.1,1.34.15,2.57.15,3.68V422h-1.46V408.38h1.79l7.42,11.34h.08c0-.17,0-.7-.09-1.61s-.06-1.55,0-1.94v-7.79h1.48Z"/>
      <path class="cls-9" d="M183.62,422H176V408.38h7.59v1.41h-6v4.36h5.65v1.4h-5.65v5h6Z"/>
      <path class="cls-9" d="M193.24,409.6a4.48,4.48,0,0,0-3.55,1.49,6,6,0,0,0-1.3,4.08,6.14,6.14,0,0,0,1.25,4.11,4.47,4.47,0,0,0,3.58,1.45,12.26,12.26,0,0,0,3.25-.51v1.38a9.92,9.92,0,0,1-3.5.53,5.93,5.93,0,0,1-4.64-1.81,7.49,7.49,0,0,1-1.64-5.17,8.24,8.24,0,0,1,.79-3.68,5.68,5.68,0,0,1,2.27-2.43,6.93,6.93,0,0,1,3.5-.85A8.49,8.49,0,0,1,197,409l-.67,1.35A7.26,7.26,0,0,0,193.24,409.6Z"/>
      <path class="cls-9" d="M200.2,422V408.38h1.59V422Z"/>
      <path class="cls-9" d="M212.32,422l-4.63-12h-.07c.09,1,.13,2.09.13,3.4V422h-1.46V408.38h2.38L213,419.57h.07l4.35-11.19h2.37V422h-1.59v-8.74c0-1,.05-2.09.14-3.27h-.08l-4.66,12Z"/>
      <path class="cls-9" d="M231.87,422h-7.59V408.38h7.59v1.41h-6v4.36h5.65v1.4h-5.65v5h6Z"/>
      <path class="cls-9" d="M246.3,422h-1.81L237,410.56H237c.1,1.34.15,2.57.15,3.68V422h-1.46V408.38h1.78l7.43,11.34h.07c0-.17,0-.7-.08-1.61s-.06-1.55-.05-1.94v-7.79h1.49Z"/>
      <path class="cls-9" d="M255,422h-1.59V409.79H249.1v-1.41h10.21v1.41H255Z"/>
      <path class="cls-9" d="M274,415.15a7.41,7.41,0,0,1-1.66,5.12,5.82,5.82,0,0,1-4.59,1.86,5.91,5.91,0,0,1-4.65-1.83,7.49,7.49,0,0,1-1.63-5.17,7.4,7.4,0,0,1,1.64-5.14,5.94,5.94,0,0,1,4.65-1.82A5.82,5.82,0,0,1,272.3,410,7.42,7.42,0,0,1,274,415.15Zm-10.86,0a6.47,6.47,0,0,0,1.18,4.18,4.2,4.2,0,0,0,3.43,1.42,4.15,4.15,0,0,0,3.42-1.42,6.49,6.49,0,0,0,1.15-4.18,6.42,6.42,0,0,0-1.15-4.15,4.12,4.12,0,0,0-3.41-1.42,4.23,4.23,0,0,0-3.44,1.43A6.36,6.36,0,0,0,263.09,415.15Z"/>
      <path class="cls-9" d="M120.67,435a6.81,6.81,0,0,1-1.83,5.13,7.22,7.22,0,0,1-5.26,1.78H109.8V428.38H114a6.68,6.68,0,0,1,4.93,1.76A6.58,6.58,0,0,1,120.67,435Zm-1.67,0a5.46,5.46,0,0,0-1.34-4,5.4,5.4,0,0,0-4-1.34h-2.3v10.83h1.92a5.9,5.9,0,0,0,4.26-1.38A5.5,5.5,0,0,0,119,435.09Z"/>
      <path class="cls-9" d="M132.07,442h-7.59V428.38h7.59v1.41h-6v4.36h5.65v1.4h-5.65v5h6Z"/>
      <path class="cls-9" d="M141.57,442V428.38h1.59V442Z"/>
      <path class="cls-9" d="M158.3,442h-1.81L149,430.56H149c.1,1.34.15,2.57.15,3.68V442h-1.46V428.38h1.79l7.42,11.34H157c0-.17,0-.7-.09-1.61s-.06-1.55,0-1.94v-7.79h1.48Z"/>
      <path class="cls-9" d="M164.39,442h-1.58V428.38h7.59v1.41h-6v5H170v1.4h-5.65Z"/>
      <path class="cls-9" d="M185.24,435.15a7.45,7.45,0,0,1-1.65,5.12,6.72,6.72,0,0,1-9.25,0,7.49,7.49,0,0,1-1.63-5.17,7.4,7.4,0,0,1,1.64-5.14,6,6,0,0,1,4.66-1.82,5.81,5.81,0,0,1,4.58,1.86A7.42,7.42,0,0,1,185.24,435.15Zm-10.85,0a6.47,6.47,0,0,0,1.17,4.18,4.2,4.2,0,0,0,3.43,1.42,4.14,4.14,0,0,0,3.42-1.42,6.49,6.49,0,0,0,1.15-4.18,6.42,6.42,0,0,0-1.15-4.15,4.1,4.1,0,0,0-3.4-1.42,4.23,4.23,0,0,0-3.45,1.43A6.36,6.36,0,0,0,174.39,435.15Z"/>
      <path class="cls-9" d="M190.63,436.31V442H189V428.38h3.74a5.87,5.87,0,0,1,3.7,1,3.47,3.47,0,0,1,1.2,2.88,3.6,3.6,0,0,1-2.74,3.63l3.7,6.1h-1.87l-3.3-5.64Zm0-1.36h2.17a3.79,3.79,0,0,0,2.46-.66,2.47,2.47,0,0,0,.78-2,2.27,2.27,0,0,0-.8-1.94,4.3,4.3,0,0,0-2.56-.59h-2.05Z"/>
      <path class="cls-9" d="M207.63,442l-4.62-12h-.08c.09,1,.13,2.09.13,3.4V442H201.6V428.38H204l4.31,11.19h.08l4.35-11.19h2.36V442h-1.58v-8.74c0-1,0-2.09.13-3.27h-.07l-4.66,12Z"/>
      <path class="cls-9" d="M228.16,442l-1.7-4.32H221L219.32,442h-1.6l5.39-13.62h1.33L229.79,442ZM226,436.21l-1.59-4.2c-.2-.53-.41-1.18-.63-2a16.76,16.76,0,0,1-.59,2l-1.6,4.2Z"/>
      <path class="cls-9" d="M238.26,429.6a4.48,4.48,0,0,0-3.54,1.49,6,6,0,0,0-1.3,4.08,6.14,6.14,0,0,0,1.25,4.11,4.47,4.47,0,0,0,3.58,1.45,12.26,12.26,0,0,0,3.25-.51v1.38a9.92,9.92,0,0,1-3.5.53,5.93,5.93,0,0,1-4.64-1.81,7.49,7.49,0,0,1-1.64-5.17,8.24,8.24,0,0,1,.79-3.68,5.68,5.68,0,0,1,2.27-2.43,6.9,6.9,0,0,1,3.5-.85A8.49,8.49,0,0,1,242,429l-.67,1.35A7.3,7.3,0,0,0,238.26,429.6Zm1.15,15a1.6,1.6,0,0,1-.71,1.39,3.72,3.72,0,0,1-2.11.49,5.11,5.11,0,0,1-.9-.08v-1a6.78,6.78,0,0,0,1,.07,2.57,2.57,0,0,0,1.12-.19.68.68,0,0,0,.37-.68.75.75,0,0,0-.37-.65,3.69,3.69,0,0,0-1.38-.4l.82-1.65h1l-.52,1.06C238.85,443.26,239.41,443.79,239.41,444.63Z"/>
      <path class="cls-9" d="M257.06,435.15a7.41,7.41,0,0,1-1.66,5.12,5.82,5.82,0,0,1-4.6,1.86,5.9,5.9,0,0,1-4.64-1.83,7.49,7.49,0,0,1-1.63-5.17,7.4,7.4,0,0,1,1.64-5.14,5.94,5.94,0,0,1,4.65-1.82,5.82,5.82,0,0,1,4.59,1.86A7.42,7.42,0,0,1,257.06,435.15Zm-10.86,0a6.41,6.41,0,0,0,1.18,4.18,4.19,4.19,0,0,0,3.42,1.42,4.14,4.14,0,0,0,3.42-1.42,8.09,8.09,0,0,0,0-8.33,4.12,4.12,0,0,0-3.41-1.42,4.21,4.21,0,0,0-3.44,1.43A6.31,6.31,0,0,0,246.2,435.15Zm5.94-7.87a2,2,0,0,1-.79-.17c-.25-.12-.5-.24-.75-.38l-.7-.38a1.41,1.41,0,0,0-.66-.17.87.87,0,0,0-.7.27,1.92,1.92,0,0,0-.37.85h-.92a3.24,3.24,0,0,1,.66-1.76,1.74,1.74,0,0,1,1.39-.63,2,2,0,0,1,.83.17,6.73,6.73,0,0,1,.76.38l.7.38a1.42,1.42,0,0,0,.63.17.83.83,0,0,0,.68-.27,2.19,2.19,0,0,0,.36-.85h.93a3.27,3.27,0,0,1-.65,1.76A1.73,1.73,0,0,1,252.14,427.28Z"/>
      <path class="cls-9" d="M268.45,442h-7.59V428.38h7.59v1.41h-6v4.36h5.65v1.4h-5.65v5h6Z"/>
      <path class="cls-9" d="M279.92,438.34a3.32,3.32,0,0,1-1.3,2.79,5.66,5.66,0,0,1-3.54,1,8.82,8.82,0,0,1-3.73-.62V440a9.92,9.92,0,0,0,1.82.56,10.11,10.11,0,0,0,2,.2,4,4,0,0,0,2.39-.6,2,2,0,0,0,.8-1.66,2.14,2.14,0,0,0-.29-1.16,2.65,2.65,0,0,0-.95-.83,13.57,13.57,0,0,0-2-.86,6.42,6.42,0,0,1-2.72-1.61,3.52,3.52,0,0,1-.81-2.42,3,3,0,0,1,1.18-2.49,4.92,4.92,0,0,1,3.13-.93,9.39,9.39,0,0,1,3.74.74l-.5,1.37a8.65,8.65,0,0,0-3.28-.7,3.15,3.15,0,0,0-2,.54,1.74,1.74,0,0,0-.71,1.49,2.24,2.24,0,0,0,.26,1.16,2.43,2.43,0,0,0,.88.82,10.43,10.43,0,0,0,1.9.83,7.4,7.4,0,0,1,2.94,1.64A3.18,3.18,0,0,1,279.92,438.34Z"/>
    </g>
    <g class="cls-22">
      <text class="cls-23" transform="translate(10.02 475.94)" style="white-space: pre;">IDENTIFICAÇÃO DE PESSOAS</text>
    </g>
    <g class="cls-22">
      <path class="cls-11" d="M140.46,500.19a6.86,6.86,0,0,1-1.84,5.14,7.26,7.26,0,0,1-5.26,1.77h-3.78V493.54h4.18a6.71,6.71,0,0,1,4.93,1.75A6.6,6.6,0,0,1,140.46,500.19Zm-1.68.06a5.46,5.46,0,0,0-1.34-4,5.36,5.36,0,0,0-4-1.35h-2.3v10.84h1.92a5.86,5.86,0,0,0,4.26-1.39A5.46,5.46,0,0,0,138.78,500.25Z"/>
      <path class="cls-11" d="M144.26,507.1V493.54h1.58V507.1Z"/>
      <path class="cls-11" d="M156.33,500H161v6.59a13.8,13.8,0,0,1-2.2.52,16.43,16.43,0,0,1-2.59.18,6.27,6.27,0,0,1-4.81-1.83,7.21,7.21,0,0,1-1.73-5.14,7.8,7.8,0,0,1,.85-3.7,5.77,5.77,0,0,1,2.46-2.43,8,8,0,0,1,3.75-.84,10.36,10.36,0,0,1,4.07.79l-.62,1.4a9.09,9.09,0,0,0-3.55-.78,5.09,5.09,0,0,0-3.88,1.47,5.67,5.67,0,0,0-1.4,4.09,5.84,5.84,0,0,0,1.35,4.17,5.2,5.2,0,0,0,4,1.42,11.66,11.66,0,0,0,2.77-.33v-4.17h-3Z"/>
      <path class="cls-11" d="M165,507.1V493.54h1.58V507.1Z"/>
      <path class="cls-11" d="M175.27,507.1h-1.58V494.94h-4.32v-1.4h10.22v1.4h-4.32Z"/>
      <path class="cls-11" d="M191,507.1l-1.69-4.31h-5.46l-1.68,4.31h-1.6l5.38-13.61h1.33l5.36,13.61Zm-2.19-5.73-1.58-4.2c-.21-.53-.42-1.19-.64-2a17.15,17.15,0,0,1-.58,2l-1.6,4.2Z"/>
      <path class="cls-11" d="M195.24,507.1V493.54h1.58v12.14h6v1.42Z"/>
      <path class="cls-11" d="M205.91,507.1V493.54h1.58V507.1Z"/>
      <path class="cls-11" d="M220.24,507.1h-9.36v-1.23L218.11,495h-7v-1.42H220v1.23l-7.23,10.91h7.43Z"/>
      <path class="cls-11" d="M232.21,507.1l-1.7-4.31h-5.46l-1.68,4.31h-1.6l5.39-13.61h1.33l5.36,13.61ZM230,501.37l-1.59-4.2c-.2-.53-.41-1.19-.63-2a17.35,17.35,0,0,1-.59,2l-1.6,4.2Z"/>
      <path class="cls-11" d="M242.32,494.76a4.48,4.48,0,0,0-3.55,1.48,6,6,0,0,0-1.3,4.08,6.15,6.15,0,0,0,1.25,4.12,4.5,4.5,0,0,0,3.58,1.45,12.26,12.26,0,0,0,3.25-.51v1.38a10.15,10.15,0,0,1-3.5.53,5.93,5.93,0,0,1-4.64-1.82,7.46,7.46,0,0,1-1.63-5.17,8.19,8.19,0,0,1,.78-3.67,5.64,5.64,0,0,1,2.28-2.43,6.88,6.88,0,0,1,3.5-.85,8.47,8.47,0,0,1,3.74.78l-.67,1.35A7.26,7.26,0,0,0,242.32,494.76Zm1.14,15a1.61,1.61,0,0,1-.71,1.39,3.8,3.8,0,0,1-2.11.49,5.11,5.11,0,0,1-.9-.08v-1a5.59,5.59,0,0,0,1,.08,2.69,2.69,0,0,0,1.12-.19.69.69,0,0,0,.37-.69.74.74,0,0,0-.36-.64,3.82,3.82,0,0,0-1.39-.4l.82-1.66h1l-.51,1.07C242.9,508.41,243.46,509,243.46,509.79Z"/>
      <path class="cls-11" d="M257.85,507.1l-1.7-4.31h-5.46L249,507.1h-1.6l5.39-13.61h1.33l5.36,13.61Zm-3.06-14.66a1.92,1.92,0,0,1-.78-.17q-.39-.18-.75-.39l-.71-.38a1.54,1.54,0,0,0-.66-.17.89.89,0,0,0-.7.28,2,2,0,0,0-.37.85h-.91a3.17,3.17,0,0,1,.66-1.76,1.69,1.69,0,0,1,1.38-.64,2.16,2.16,0,0,1,.83.17,7.69,7.69,0,0,1,.76.38l.7.38a1.39,1.39,0,0,0,.64.18.84.84,0,0,0,.68-.28,2.06,2.06,0,0,0,.36-.85h.92a3.24,3.24,0,0,1-.65,1.76A1.73,1.73,0,0,1,254.79,492.44Zm.87,8.93-1.59-4.2c-.2-.53-.41-1.19-.63-2a17.35,17.35,0,0,1-.59,2l-1.6,4.2Z"/>
      <path class="cls-11" d="M274,500.3a7.41,7.41,0,0,1-1.66,5.12,5.79,5.79,0,0,1-4.59,1.87,5.91,5.91,0,0,1-4.65-1.83,7.51,7.51,0,0,1-1.63-5.17,7.4,7.4,0,0,1,1.64-5.14,5.94,5.94,0,0,1,4.65-1.82,5.84,5.84,0,0,1,4.59,1.85A7.45,7.45,0,0,1,274,500.3Zm-10.86,0a6.45,6.45,0,0,0,1.18,4.18,4.83,4.83,0,0,0,6.85,0,6.52,6.52,0,0,0,1.15-4.19,6.45,6.45,0,0,0-1.15-4.15,4.14,4.14,0,0,0-3.41-1.41,4.22,4.22,0,0,0-3.44,1.42A6.38,6.38,0,0,0,263.09,500.3Z"/>
      <path class="cls-11" d="M67.36,520.19a6.85,6.85,0,0,1-1.83,5.14,7.27,7.27,0,0,1-5.27,1.77H56.49V513.54h4.18a6.71,6.71,0,0,1,4.93,1.75A6.6,6.6,0,0,1,67.36,520.19Zm-1.67.06a5.46,5.46,0,0,0-1.34-4,5.36,5.36,0,0,0-4-1.35h-2.3v10.84H60a5.86,5.86,0,0,0,4.26-1.39A5.46,5.46,0,0,0,65.69,520.25Z"/>
      <path class="cls-11" d="M78.76,527.1H71.17V513.54h7.59v1.4h-6v4.37H78.4v1.39H72.75v5h6Z"/>
      <path class="cls-11" d="M96,523.5a3.33,3.33,0,0,1-1.31,2.79,5.66,5.66,0,0,1-3.54,1,9,9,0,0,1-3.72-.62v-1.52a9.68,9.68,0,0,0,1.82.55,9.4,9.4,0,0,0,2,.21,3.94,3.94,0,0,0,2.38-.6,2,2,0,0,0,.81-1.67,2.11,2.11,0,0,0-.29-1.15,2.56,2.56,0,0,0-1-.83,12.58,12.58,0,0,0-2-.86,6.52,6.52,0,0,1-2.72-1.61,3.55,3.55,0,0,1-.82-2.42,3,3,0,0,1,1.19-2.5,5,5,0,0,1,3.13-.92,9.13,9.13,0,0,1,3.73.74l-.49,1.37a8.46,8.46,0,0,0-3.28-.7,3.27,3.27,0,0,0-2,.53,1.78,1.78,0,0,0-.7,1.5,2.2,2.2,0,0,0,.26,1.15,2.37,2.37,0,0,0,.88.83,10.6,10.6,0,0,0,1.89.83,7.51,7.51,0,0,1,3,1.63A3.2,3.2,0,0,1,96,523.5Z"/>
      <path class="cls-11" d="M107.09,527.1H99.5V513.54h7.59v1.4h-6v4.37h5.65v1.39h-5.65v5h6Z"/>
      <path class="cls-11" d="M112.46,521.46v5.64h-1.59V513.54h3.74a5.85,5.85,0,0,1,3.7,1,3.43,3.43,0,0,1,1.2,2.87,3.6,3.6,0,0,1-2.74,3.64l3.7,6.09H118.6l-3.3-5.64Zm0-1.35h2.17a3.77,3.77,0,0,0,2.46-.66,2.48,2.48,0,0,0,.78-2,2.23,2.23,0,0,0-.8-1.94,4.27,4.27,0,0,0-2.55-.6h-2.06Z"/>
      <path class="cls-11" d="M131.21,513.54h1.71L128,527.1h-1.57l-4.88-13.56h1.68l3.13,8.78a24.51,24.51,0,0,1,.85,2.94,26.14,26.14,0,0,1,.88-3Z"/>
      <path class="cls-11" d="M135.55,527.1V513.54h1.59V527.1Z"/>
      <path class="cls-11" d="M147.47,514.76a4.48,4.48,0,0,0-3.55,1.48,7.25,7.25,0,0,0,0,8.2,4.48,4.48,0,0,0,3.57,1.45,12.2,12.2,0,0,0,3.25-.51v1.38a10.09,10.09,0,0,1-3.49.53,5.94,5.94,0,0,1-4.65-1.82,7.46,7.46,0,0,1-1.63-5.17,8.06,8.06,0,0,1,.79-3.67A5.62,5.62,0,0,1,144,514.2a6.9,6.9,0,0,1,3.5-.85,8.41,8.41,0,0,1,3.74.78l-.67,1.35A7.26,7.26,0,0,0,147.47,514.76Zm1.15,15a1.6,1.6,0,0,1-.72,1.39,3.78,3.78,0,0,1-2.11.49,5.08,5.08,0,0,1-.89-.08v-1a5.5,5.5,0,0,0,1,.08,2.64,2.64,0,0,0,1.11-.19.69.69,0,0,0,.38-.69.73.73,0,0,0-.37-.64,3.75,3.75,0,0,0-1.38-.4l.82-1.66h1l-.51,1.07Q148.62,528.53,148.62,529.79Z"/>
      <path class="cls-11" d="M166.26,520.3a7.45,7.45,0,0,1-1.65,5.12,5.81,5.81,0,0,1-4.6,1.87,5.89,5.89,0,0,1-4.64-1.83,8.92,8.92,0,0,1,0-10.31,6,6,0,0,1,4.66-1.82,5.82,5.82,0,0,1,4.58,1.85A7.45,7.45,0,0,1,166.26,520.3Zm-10.85,0a6.39,6.39,0,0,0,1.18,4.18,4.82,4.82,0,0,0,6.84,0,8.11,8.11,0,0,0,0-8.34,4.85,4.85,0,0,0-6.85,0A6.33,6.33,0,0,0,155.41,520.3Z"/>
      <path class="cls-11" d="M177.75,523.5a3.32,3.32,0,0,1-1.3,2.79,5.66,5.66,0,0,1-3.54,1,9,9,0,0,1-3.73-.62v-1.52a9.91,9.91,0,0,0,1.82.55,9.47,9.47,0,0,0,2,.21,4,4,0,0,0,2.39-.6,2,2,0,0,0,.8-1.67,2.11,2.11,0,0,0-.29-1.15,2.56,2.56,0,0,0-1-.83,12.58,12.58,0,0,0-2-.86,6.52,6.52,0,0,1-2.72-1.61,3.54,3.54,0,0,1-.81-2.42,3,3,0,0,1,1.18-2.5,5,5,0,0,1,3.13-.92,9.22,9.22,0,0,1,3.74.74l-.5,1.37a8.42,8.42,0,0,0-3.28-.7,3.22,3.22,0,0,0-2,.53,1.76,1.76,0,0,0-.71,1.5,2.3,2.3,0,0,0,.26,1.15,2.45,2.45,0,0,0,.88.83,10.76,10.76,0,0,0,1.9.83,7.66,7.66,0,0,1,2.95,1.63A3.24,3.24,0,0,1,177.75,523.5Z"/>
      <path class="cls-11" d="M195.66,517.49a3.79,3.79,0,0,1-1.41,3.17,6.43,6.43,0,0,1-4,1.11H188.6v5.33H187V513.54h3.53Q195.67,513.54,195.66,517.49Zm-7.06,2.93H190a5.35,5.35,0,0,0,3.05-.68,2.51,2.51,0,0,0,.94-2.17,2.35,2.35,0,0,0-.89-2,4.62,4.62,0,0,0-2.75-.66H188.6Z"/>
      <path class="cls-11" d="M209.56,513.54v8.78a4.75,4.75,0,0,1-1.41,3.64,5.39,5.39,0,0,1-3.86,1.33,5.19,5.19,0,0,1-3.81-1.34,4.92,4.92,0,0,1-1.35-3.67v-8.74h1.59v8.85a3.5,3.5,0,0,0,.93,2.61,3.79,3.79,0,0,0,2.74.91A3.62,3.62,0,0,0,207,525a3.51,3.51,0,0,0,.93-2.62v-8.83ZM203,512.22a20.62,20.62,0,0,0,1.78-2.81h1.88v.2a13.82,13.82,0,0,1-1.22,1.48,14.34,14.34,0,0,1-1.41,1.37h-1Z"/>
      <path class="cls-11" d="M213.93,513.54h3.85a7.28,7.28,0,0,1,3.92.81,2.84,2.84,0,0,1,1.21,2.55,3,3,0,0,1-.68,2,3.22,3.22,0,0,1-2,1v.1q3.11.53,3.11,3.24a3.48,3.48,0,0,1-1.24,2.84,5.26,5.26,0,0,1-3.45,1h-4.75Zm1.58,5.81h2.61a4.23,4.23,0,0,0,2.41-.53,2,2,0,0,0,.74-1.76,1.79,1.79,0,0,0-.82-1.65,5.12,5.12,0,0,0-2.61-.51h-2.33Zm0,1.33v5.08h2.84a4,4,0,0,0,2.49-.64,2.34,2.34,0,0,0,.83-2,2.08,2.08,0,0,0-.85-1.85,4.56,4.56,0,0,0-2.6-.6Z"/>
      <path class="cls-11" d="M227.06,527.1V513.54h1.58v12.14h6v1.42Z"/>
      <path class="cls-11" d="M237.72,527.1V513.54h1.59V527.1Z"/>
      <path class="cls-11" d="M249.64,514.76a4.48,4.48,0,0,0-3.55,1.48,7.21,7.21,0,0,0,0,8.2,4.47,4.47,0,0,0,3.57,1.45,12.2,12.2,0,0,0,3.25-.51v1.38a10.09,10.09,0,0,1-3.49.53,5.94,5.94,0,0,1-4.65-1.82,7.46,7.46,0,0,1-1.63-5.17,8.06,8.06,0,0,1,.79-3.67,5.62,5.62,0,0,1,2.27-2.43,6.9,6.9,0,0,1,3.5-.85,8.41,8.41,0,0,1,3.74.78l-.67,1.35A7.26,7.26,0,0,0,249.64,514.76Z"/>
      <path class="cls-11" d="M268.43,520.3a7.45,7.45,0,0,1-1.65,5.12,5.81,5.81,0,0,1-4.6,1.87,5.89,5.89,0,0,1-4.64-1.83,8.92,8.92,0,0,1,0-10.31,6,6,0,0,1,4.66-1.82,5.82,5.82,0,0,1,4.58,1.85A7.45,7.45,0,0,1,268.43,520.3Zm-10.85,0a6.39,6.39,0,0,0,1.18,4.18,4.82,4.82,0,0,0,6.84,0,6.52,6.52,0,0,0,1.15-4.19,6.45,6.45,0,0,0-1.15-4.15,4.12,4.12,0,0,0-3.4-1.41,4.19,4.19,0,0,0-3.44,1.42A6.33,6.33,0,0,0,257.58,520.3Z"/>
      <path class="cls-11" d="M279.92,523.5a3.32,3.32,0,0,1-1.3,2.79,5.66,5.66,0,0,1-3.54,1,9,9,0,0,1-3.73-.62v-1.52a9.91,9.91,0,0,0,1.82.55,9.4,9.4,0,0,0,2,.21,4,4,0,0,0,2.39-.6,2,2,0,0,0,.8-1.67,2.11,2.11,0,0,0-.29-1.15,2.56,2.56,0,0,0-.95-.83,12.58,12.58,0,0,0-2-.86,6.52,6.52,0,0,1-2.72-1.61,3.54,3.54,0,0,1-.81-2.42,3,3,0,0,1,1.18-2.5,5,5,0,0,1,3.13-.92,9.22,9.22,0,0,1,3.74.74l-.5,1.37a8.46,8.46,0,0,0-3.28-.7,3.22,3.22,0,0,0-2,.53,1.76,1.76,0,0,0-.71,1.5,2.2,2.2,0,0,0,.26,1.15,2.45,2.45,0,0,0,.88.83,10.43,10.43,0,0,0,1.9.83,7.53,7.53,0,0,1,2.94,1.63A3.2,3.2,0,0,1,279.92,523.5Z"/>
    </g>
    <text class="cls-24" transform="translate(111.1 604.76)" style="white-space: pre;">NÃO INFORMADO</text>
    <g class="cls-22">
      <text class="cls-25" transform="translate(102.89 646.07)" style="white-space: pre;">ARMAZENAMENTO</text>
    </g>
    <text class="cls-26" transform="translate(109.48 556.97)" style="white-space: pre;">USO DE MÁSCARA</text>
    <rect class="cls-1" x="542.98" y="102.91" width="125.59" height="33.24"/>
    <text class="cls-27" transform="translate(553.83 124.02)" style="white-space: pre;">TOTAL 253</text>
    <text class="cls-28" transform="translate(80.43 142.83)" style="white-space: pre;">FUNCIONALIDADE</text>
    <g class="cls-29" transform="matrix(1, 0, 0, 1, -1.764999, 18.990005)">
      <path class="cls-12" d="M282,140v-6.05l-6.3,6.05V129.64h-4.53V140l-6.3-6.05V140l8.57,7.81Z"/>
    </g>
  </g>
</svg>