<?xml version="1.0" encoding="utf-8"?>
<!-- Generator: Adobe Illustrator 25.0.0, SVG Export Plug-In . SVG Version: 6.00 Build 0)  -->
<svg version="1.1" id="Layer_1" xmlns="http://www.w3.org/2000/svg" xmlns:xlink="http://www.w3.org/1999/xlink" x="0px" y="0px"
	 viewBox="0 0 360 182" style="enable-background:new 0 0 360 182;" xml:space="preserve">
<style type="text/css">
	.st0{fill:#030521;}
	.st1{fill:#F73847;}
	.st2{fill:#DE4D4A;}
	.st3{fill:#F5804F;}
	.st4{fill:#F5A133;}
	.st5{fill:#FFB033;}
	.st6{fill:#CFA64A;}
	.st7{fill:#4F4F61;}
	.st8{fill:#82828F;}
	.st9{fill:#3D61D9;}
	.st10{fill:#9EE89E;}
	.st11{clip-path:url(#SVGID_2_);fill:#030521;}
	.st12{clip-path:url(#SVGID_4_);fill:#030521;}
	.st13{clip-path:url(#SVGID_6_);fill:#030521;}
	.st14{clip-path:url(#SVGID_8_);fill:#030521;}
	.st15{clip-path:url(#SVGID_10_);fill:#030521;}
	.st16{clip-path:url(#SVGID_12_);fill:#030521;}
	.st17{clip-path:url(#SVGID_14_);fill:#030521;}
	.st18{clip-path:url(#SVGID_16_);fill:#030521;}
	.st19{clip-path:url(#SVGID_18_);fill:#030521;}
	.st20{clip-path:url(#SVGID_20_);fill:#030521;}
	.st21{clip-path:url(#SVGID_22_);fill:#030521;}
	.st22{clip-path:url(#SVGID_24_);fill:#030521;}
	.st23{fill:#FFFFFF;}
	.st24{clip-path:url(#SVGID_130_);fill:#030521;}
	.st25{clip-path:url(#SVGID_132_);fill:#030521;}
	.st26{clip-path:url(#SVGID_134_);fill:#030521;}
	.st27{fill:#231F20;}
</style>
<rect x="109.7" y="162.7" class="st0" width="186.3" height="0.1"/>
<rect x="109.7" y="150.7" class="st0" width="186.3" height="0.1"/>
<rect x="109.7" y="138.8" class="st0" width="186.4" height="0.1"/>
<rect x="109.7" y="126.8" class="st0" width="186.4" height="0.1"/>
<rect x="109.7" y="114.8" class="st0" width="186.3" height="0.1"/>
<rect x="109.7" y="102.7" class="st0" width="186.3" height="0.1"/>
<rect x="109.7" y="90.8" class="st0" width="186.3" height="0.1"/>
<rect x="109.7" y="78.8" class="st0" width="186.3" height="0.1"/>
<rect x="109.7" y="66.9" class="st0" width="186.3" height="0.1"/>
<rect x="109.7" y="54.7" class="st0" width="186.3" height="0.1"/>
<rect x="109.7" y="42" class="st0" width="186.3" height="0.1"/>
<rect x="115.1" y="36.9" class="st1" width="53.6" height="11.9"/>
<rect x="168.7" y="49" class="st2" width="52.3" height="11.9"/>
<rect x="221" y="61.2" class="st3" width="17.4" height="11.9"/>
<rect x="238.5" y="73.2" class="st4" width="16.8" height="11.9"/>
<rect x="255.2" y="85.1" class="st5" width="11.4" height="11.9"/>
<rect x="266.6" y="97" class="st6" width="6.7" height="11.9"/>
<rect x="273.3" y="109.1" class="st0" width="4.7" height="11.9"/>
<rect x="278.2" y="120.8" class="st7" width="3.8" height="11.9"/>
<rect x="278" y="126.8" class="st0" width="4" height="0.1"/>
<path class="st8" d="M283.4,133.1H282v5.7h1.3V133.1z M283.4,138.8H282v6.2h1.3V138.8z"/>
<rect x="282" y="138.8" class="st0" width="1.3" height="0.1"/>
<rect x="283.4" y="145" class="st9" width="1.3" height="11.9"/>
<rect x="284.7" y="157" class="st10" width="1.3" height="11.9"/>
<polygon class="st0" points="286.2,30.8 285.9,30.8 285.9,23 115.2,23 115.2,30.8 115,30.8 115,22.7 286.2,22.7 "/>
<g>
	<defs>
		<rect id="SVGID_1_" x="-27.3" y="10.8" width="407.2" height="165.8"/>
	</defs>
	<clipPath id="SVGID_2_">
		<use xlink:href="#SVGID_1_"  style="overflow:visible;"/>
	</clipPath>
	<path class="st11" d="M303.9,41.1c0,0.3-0.1,0.5-0.2,0.7c-0.2,0.2-0.4,0.3-0.7,0.4v0c0.4,0,0.6,0.2,0.8,0.3
		c0.2,0.2,0.3,0.4,0.3,0.7c0,0.4-0.2,0.8-0.5,1c-0.3,0.2-0.7,0.4-1.3,0.4c-0.5,0-0.9-0.1-1.3-0.2v-0.8c0.2,0.1,0.4,0.2,0.6,0.2
		c0.2,0.1,0.4,0.1,0.6,0.1c0.3,0,0.5-0.1,0.7-0.2c0.1-0.1,0.2-0.3,0.2-0.5c0-0.2-0.1-0.4-0.3-0.4c-0.2-0.1-0.4-0.1-0.8-0.1h-0.3
		v-0.7h0.3c0.3,0,0.6,0,0.8-0.1c0.2-0.1,0.2-0.2,0.2-0.5c0-0.3-0.2-0.5-0.6-0.5c-0.1,0-0.3,0-0.4,0.1c-0.1,0-0.3,0.1-0.5,0.2
		l-0.4-0.6c0.4-0.3,0.9-0.4,1.4-0.4c0.5,0,0.8,0.1,1.1,0.3C303.7,40.5,303.9,40.8,303.9,41.1"/>
	<path class="st11" d="M306.8,44.5h-0.9V42l0-0.4l0-0.5c-0.2,0.2-0.3,0.3-0.3,0.3l-0.5,0.4l-0.5-0.6l1.4-1.1h0.8V44.5z"/>
	<path class="st11" d="M309.2,43.9c-0.1,0.4-0.3,0.9-0.5,1.4H308c0.1-0.5,0.2-1,0.3-1.5L309.2,43.9L309.2,43.9z"/>
	<path class="st11" d="M311.4,43.8c0.2,0,0.4-0.1,0.5-0.2c0.1-0.1,0.2-0.3,0.2-0.6c0-0.2,0-0.4-0.1-0.5c-0.1-0.1-0.2-0.2-0.5-0.2
		c-0.2,0-0.4,0.1-0.5,0.2s-0.2,0.3-0.2,0.4c0,0.2,0.1,0.4,0.2,0.6C311,43.7,311.2,43.8,311.4,43.8 M309.8,42.6
		c0-0.9,0.2-1.5,0.6-1.9c0.4-0.4,0.9-0.6,1.7-0.6c0.3,0,0.4,0,0.6,0v0.7c-0.2,0-0.4-0.1-0.5-0.1c-0.3,0-0.6,0-0.8,0.1
		c-0.2,0.1-0.4,0.2-0.5,0.4c-0.1,0.2-0.2,0.5-0.2,0.8h0c0.2-0.3,0.5-0.5,1-0.5c0.4,0,0.7,0.1,0.9,0.4c0.2,0.2,0.3,0.6,0.3,1
		c0,0.5-0.1,0.8-0.4,1.1c-0.3,0.3-0.6,0.4-1.1,0.4c-0.3,0-0.6-0.1-0.9-0.2c-0.2-0.2-0.4-0.4-0.6-0.7C309.8,43.4,309.8,43,309.8,42.6
		"/>
	<path class="st11" d="M317.1,43.2c0,0.3,0,0.4,0.1,0.6c0,0.1,0.1,0.2,0.2,0.2c0.2,0,0.3-0.3,0.3-0.8c0-0.5-0.1-0.8-0.3-0.8
		c-0.1,0-0.2,0.1-0.2,0.2C317.2,42.7,317.1,42.9,317.1,43.2 M318.5,43.2c0,0.5-0.1,0.8-0.3,1c-0.2,0.2-0.4,0.3-0.8,0.3
		c-0.3,0-0.6-0.1-0.8-0.4c-0.2-0.2-0.3-0.6-0.3-1c0-0.9,0.3-1.4,1-1.4c0.3,0,0.6,0.1,0.8,0.4C318.4,42.4,318.5,42.7,318.5,43.2
		 M317.5,40.1l-2.4,4.4h-0.7l2.4-4.4H317.5z M314,41.4c0,0.3,0,0.4,0.1,0.6c0,0.1,0.1,0.2,0.2,0.2c0.2,0,0.3-0.3,0.3-0.8
		c0-0.5-0.1-0.8-0.3-0.8c-0.1,0-0.2,0.1-0.2,0.2C314.1,41,314,41.2,314,41.4 M315.4,41.4c0,0.5-0.1,0.8-0.3,1
		c-0.2,0.2-0.4,0.3-0.8,0.3c-0.3,0-0.6-0.1-0.8-0.4c-0.2-0.2-0.3-0.6-0.3-1c0-0.9,0.3-1.4,1-1.4c0.3,0,0.6,0.1,0.8,0.4
		S315.4,41,315.4,41.4"/>
</g>
<rect x="300.7" y="44.8" class="st0" width="17.9" height="0.3"/>
<g>
	<defs>
		<rect id="SVGID_3_" x="-27.3" y="10.8" width="407.2" height="165.8"/>
	</defs>
	<clipPath id="SVGID_4_">
		<use xlink:href="#SVGID_3_"  style="overflow:visible;"/>
	</clipPath>
	<path class="st12" d="M303.9,52.9c0,0.3-0.1,0.5-0.2,0.7c-0.2,0.2-0.4,0.3-0.7,0.4v0c0.4,0,0.6,0.2,0.8,0.3
		c0.2,0.2,0.3,0.4,0.3,0.7c0,0.4-0.2,0.8-0.5,1c-0.3,0.2-0.7,0.4-1.3,0.4c-0.5,0-0.9-0.1-1.3-0.2v-0.8c0.2,0.1,0.4,0.2,0.6,0.2
		c0.2,0.1,0.4,0.1,0.6,0.1c0.3,0,0.5-0.1,0.7-0.2c0.1-0.1,0.2-0.3,0.2-0.5c0-0.2-0.1-0.4-0.3-0.4c-0.2-0.1-0.4-0.1-0.8-0.1h-0.3
		v-0.7h0.3c0.3,0,0.6,0,0.8-0.1c0.2-0.1,0.2-0.2,0.2-0.5c0-0.3-0.2-0.5-0.6-0.5c-0.1,0-0.3,0-0.4,0.1c-0.1,0-0.3,0.1-0.5,0.3
		l-0.4-0.6c0.4-0.3,0.9-0.4,1.4-0.4c0.5,0,0.8,0.1,1.1,0.3C303.7,52.3,303.9,52.6,303.9,52.9"/>
	<path class="st12" d="M305.4,54.1c0,0.5,0,0.9,0.1,1.2c0.1,0.2,0.2,0.4,0.5,0.4c0.2,0,0.4-0.1,0.5-0.4c0.1-0.2,0.1-0.6,0.1-1.2
		c0-0.5,0-0.9-0.1-1.2c-0.1-0.2-0.3-0.4-0.5-0.4c-0.2,0-0.4,0.1-0.5,0.4C305.4,53.2,305.4,53.6,305.4,54.1 M307.6,54.1
		c0,0.8-0.1,1.3-0.4,1.7c-0.3,0.4-0.6,0.6-1.2,0.6c-0.5,0-0.9-0.2-1.2-0.6c-0.3-0.4-0.4-0.9-0.4-1.7c0-0.8,0.1-1.4,0.4-1.7
		c0.3-0.4,0.6-0.6,1.2-0.6c0.5,0,0.9,0.2,1.2,0.6C307.4,52.8,307.6,53.4,307.6,54.1"/>
	<path class="st12" d="M311.8,55c0,0.3,0,0.4,0.1,0.6c0,0.1,0.1,0.2,0.2,0.2c0.2,0,0.3-0.3,0.3-0.8c0-0.5-0.1-0.8-0.3-0.8
		c-0.1,0-0.2,0.1-0.2,0.2C311.8,54.6,311.8,54.8,311.8,55 M313.2,55c0,0.5-0.1,0.8-0.3,1c-0.2,0.2-0.4,0.3-0.8,0.3
		c-0.3,0-0.6-0.1-0.8-0.4c-0.2-0.2-0.3-0.6-0.3-1c0-0.9,0.3-1.4,1-1.4c0.3,0,0.6,0.1,0.8,0.4C313.1,54.2,313.2,54.6,313.2,55
		 M312.1,51.9l-2.4,4.4H309l2.4-4.4H312.1z M308.7,53.3c0,0.3,0,0.4,0.1,0.6c0,0.1,0.1,0.2,0.2,0.2c0.2,0,0.3-0.3,0.3-0.8
		c0-0.5-0.1-0.8-0.3-0.8c-0.1,0-0.2,0.1-0.2,0.2C308.7,52.8,308.7,53,308.7,53.3 M310.1,53.3c0,0.5-0.1,0.8-0.3,1
		c-0.2,0.2-0.4,0.3-0.8,0.3c-0.3,0-0.6-0.1-0.8-0.4c-0.2-0.2-0.3-0.6-0.3-1c0-0.9,0.3-1.4,1-1.4c0.3,0,0.6,0.1,0.8,0.4
		S310.1,52.8,310.1,53.3"/>
</g>
<rect x="300.7" y="56.7" class="st0" width="12.6" height="0.3"/>
<g>
	<defs>
		<rect id="SVGID_5_" x="-27.3" y="10.8" width="407.2" height="165.8"/>
	</defs>
	<clipPath id="SVGID_6_">
		<use xlink:href="#SVGID_5_"  style="overflow:visible;"/>
	</clipPath>
	<path class="st13" d="M303.3,68.5h-0.9V66l0-0.4l0-0.5c-0.2,0.2-0.3,0.3-0.3,0.3l-0.5,0.4l-0.5-0.6l1.4-1.1h0.8V68.5z"/>
	<path class="st13" d="M305.4,66.3c0,0.5,0,0.9,0.1,1.2c0.1,0.2,0.2,0.4,0.5,0.4c0.2,0,0.4-0.1,0.5-0.4c0.1-0.2,0.1-0.6,0.1-1.2
		c0-0.5,0-0.9-0.1-1.2c-0.1-0.2-0.3-0.4-0.5-0.4c-0.2,0-0.4,0.1-0.5,0.4C305.4,65.4,305.4,65.8,305.4,66.3 M307.6,66.3
		c0,0.8-0.1,1.3-0.4,1.7c-0.3,0.4-0.6,0.6-1.2,0.6c-0.5,0-0.9-0.2-1.2-0.6c-0.3-0.4-0.4-0.9-0.4-1.7c0-0.8,0.1-1.4,0.4-1.7
		c0.3-0.4,0.6-0.6,1.2-0.6c0.5,0,0.9,0.2,1.2,0.6C307.4,65,307.6,65.6,307.6,66.3"/>
	<path class="st13" d="M309.2,67.9c-0.1,0.4-0.3,0.9-0.5,1.4H308c0.1-0.5,0.2-1,0.3-1.5L309.2,67.9L309.2,67.9z"/>
	<path class="st13" d="M312.7,65.1c0,0.3-0.1,0.5-0.3,0.7c-0.2,0.2-0.4,0.3-0.7,0.4v0c0.4,0,0.6,0.2,0.8,0.3
		c0.2,0.2,0.3,0.4,0.3,0.7c0,0.4-0.2,0.8-0.5,1c-0.3,0.2-0.7,0.4-1.3,0.4c-0.5,0-0.9-0.1-1.3-0.2v-0.8c0.2,0.1,0.4,0.2,0.6,0.2
		c0.2,0.1,0.4,0.1,0.6,0.1c0.3,0,0.5-0.1,0.7-0.2c0.1-0.1,0.2-0.3,0.2-0.5c0-0.2-0.1-0.4-0.3-0.4c-0.2-0.1-0.4-0.1-0.8-0.1h-0.3
		v-0.7h0.3c0.3,0,0.6,0,0.8-0.1c0.2-0.1,0.2-0.2,0.2-0.5c0-0.3-0.2-0.5-0.6-0.5c-0.1,0-0.3,0-0.4,0.1c-0.1,0-0.3,0.1-0.5,0.3
		l-0.4-0.6c0.4-0.3,0.9-0.4,1.4-0.4c0.5,0,0.8,0.1,1.1,0.3C312.6,64.5,312.7,64.8,312.7,65.1"/>
	<path class="st13" d="M317.1,67.2c0,0.3,0,0.4,0.1,0.6c0,0.1,0.1,0.2,0.2,0.2c0.2,0,0.3-0.3,0.3-0.8c0-0.5-0.1-0.8-0.3-0.8
		c-0.1,0-0.2,0.1-0.2,0.2C317.2,66.7,317.1,66.9,317.1,67.2 M318.5,67.2c0,0.5-0.1,0.8-0.3,1c-0.2,0.2-0.4,0.3-0.8,0.3
		c-0.3,0-0.6-0.1-0.8-0.4c-0.2-0.2-0.3-0.6-0.3-1c0-0.9,0.3-1.4,1-1.4c0.3,0,0.6,0.1,0.8,0.4S318.5,66.7,318.5,67.2 M317.5,64.1
		l-2.4,4.4h-0.7l2.4-4.4H317.5z M314,65.4c0,0.3,0,0.4,0.1,0.6c0,0.1,0.1,0.2,0.2,0.2c0.2,0,0.3-0.3,0.3-0.8c0-0.5-0.1-0.8-0.3-0.8
		c-0.1,0-0.2,0.1-0.2,0.2C314.1,65,314,65.2,314,65.4 M315.4,65.4c0,0.5-0.1,0.8-0.3,1c-0.2,0.2-0.4,0.3-0.8,0.3
		c-0.3,0-0.6-0.1-0.8-0.4c-0.2-0.2-0.3-0.6-0.3-1c0-0.9,0.3-1.4,1-1.4c0.3,0,0.6,0.1,0.8,0.4C315.3,64.6,315.4,65,315.4,65.4"/>
</g>
<rect x="300.7" y="68.8" class="st0" width="17.9" height="0.3"/>
<g>
	<defs>
		<rect id="SVGID_7_" x="-27.3" y="10.8" width="407.2" height="165.8"/>
	</defs>
	<clipPath id="SVGID_8_">
		<use xlink:href="#SVGID_7_"  style="overflow:visible;"/>
	</clipPath>
	<path class="st14" d="M302.4,76.7c-0.2,0-0.3,0.1-0.5,0.2c-0.1,0.1-0.2,0.3-0.2,0.6c0,0.2,0,0.4,0.1,0.5c0.1,0.1,0.2,0.2,0.4,0.2
		c0.2,0,0.4-0.1,0.5-0.2c0.1-0.1,0.2-0.3,0.2-0.4c0-0.2-0.1-0.4-0.2-0.6C302.8,76.8,302.6,76.7,302.4,76.7 M304,77.9
		c0,0.9-0.2,1.5-0.5,1.9c-0.4,0.4-0.9,0.6-1.7,0.6c-0.3,0-0.5,0-0.6,0v-0.7c0.2,0,0.3,0.1,0.5,0.1c0.3,0,0.6,0,0.8-0.1
		c0.2-0.1,0.4-0.2,0.5-0.4c0.1-0.2,0.2-0.5,0.2-0.8h0c-0.1,0.2-0.3,0.3-0.4,0.4c-0.2,0.1-0.3,0.1-0.6,0.1c-0.4,0-0.7-0.1-0.9-0.4
		c-0.2-0.2-0.3-0.6-0.3-1c0-0.5,0.1-0.8,0.4-1.1c0.3-0.3,0.6-0.4,1.1-0.4c0.3,0,0.6,0.1,0.9,0.2c0.2,0.2,0.4,0.4,0.6,0.7
		C304,77.2,304,77.5,304,77.9"/>
	<path class="st14" d="M305.6,79.8c-0.1,0.4-0.3,0.9-0.5,1.4h-0.7c0.1-0.5,0.2-1,0.3-1.5L305.6,79.8L305.6,79.8z"/>
	<path class="st14" d="M307.8,76.7c-0.2,0-0.3,0.1-0.5,0.2c-0.1,0.1-0.2,0.3-0.2,0.6c0,0.2,0,0.4,0.1,0.5c0.1,0.1,0.2,0.2,0.4,0.2
		c0.2,0,0.4-0.1,0.5-0.2c0.1-0.1,0.2-0.3,0.2-0.4c0-0.2-0.1-0.4-0.2-0.6C308.1,76.8,308,76.7,307.8,76.7 M309.4,77.9
		c0,0.9-0.2,1.5-0.5,1.9c-0.4,0.4-0.9,0.6-1.7,0.6c-0.3,0-0.5,0-0.6,0v-0.7c0.2,0,0.3,0.1,0.5,0.1c0.3,0,0.6,0,0.8-0.1
		c0.2-0.1,0.4-0.2,0.5-0.4c0.1-0.2,0.2-0.5,0.2-0.8h0c-0.1,0.2-0.3,0.3-0.4,0.4c-0.2,0.1-0.3,0.1-0.6,0.1c-0.4,0-0.7-0.1-0.9-0.4
		c-0.2-0.2-0.3-0.6-0.3-1c0-0.5,0.1-0.8,0.4-1.1c0.3-0.3,0.6-0.4,1.1-0.4c0.3,0,0.6,0.1,0.9,0.2c0.2,0.2,0.4,0.4,0.6,0.7
		C309.3,77.2,309.4,77.5,309.4,77.9"/>
	<path class="st14" d="M313.6,79.1c0,0.3,0,0.4,0.1,0.6c0,0.1,0.1,0.2,0.2,0.2c0.2,0,0.3-0.3,0.3-0.8c0-0.5-0.1-0.8-0.3-0.8
		c-0.1,0-0.2,0.1-0.2,0.2C313.6,78.7,313.6,78.9,313.6,79.1 M314.9,79.1c0,0.5-0.1,0.8-0.3,1c-0.2,0.2-0.4,0.3-0.8,0.3
		c-0.3,0-0.6-0.1-0.8-0.4c-0.2-0.2-0.3-0.6-0.3-1c0-0.9,0.3-1.4,1-1.4c0.3,0,0.6,0.1,0.8,0.4C314.9,78.3,314.9,78.7,314.9,79.1
		 M313.9,76l-2.4,4.4h-0.7l2.4-4.4H313.9z M310.5,77.3c0,0.3,0,0.4,0.1,0.6c0,0.1,0.1,0.2,0.2,0.2c0.2,0,0.3-0.3,0.3-0.8
		c0-0.5-0.1-0.8-0.3-0.8c-0.1,0-0.2,0.1-0.2,0.2C310.5,76.9,310.5,77.1,310.5,77.3 M311.9,77.3c0,0.5-0.1,0.8-0.3,1
		c-0.2,0.2-0.4,0.3-0.8,0.3c-0.3,0-0.6-0.1-0.8-0.4c-0.2-0.2-0.3-0.6-0.3-1c0-0.9,0.3-1.4,1-1.4c0.3,0,0.6,0.1,0.8,0.4
		S311.9,76.9,311.9,77.3"/>
</g>
<rect x="300.7" y="80.8" class="st0" width="14.4" height="0.3"/>
<g>
	<defs>
		<rect id="SVGID_9_" x="-27.3" y="10.8" width="407.2" height="165.8"/>
	</defs>
	<clipPath id="SVGID_10_">
		<use xlink:href="#SVGID_9_"  style="overflow:visible;"/>
	</clipPath>
	<path class="st15" d="M302.5,91.1c0.2,0,0.4-0.1,0.5-0.2c0.1-0.1,0.2-0.3,0.2-0.6c0-0.2,0-0.4-0.1-0.5c-0.1-0.1-0.2-0.2-0.5-0.2
		c-0.2,0-0.4,0.1-0.5,0.2c-0.1,0.1-0.2,0.3-0.2,0.4c0,0.2,0.1,0.4,0.2,0.6S302.3,91.1,302.5,91.1 M300.9,89.9c0-0.9,0.2-1.5,0.6-1.9
		c0.4-0.4,0.9-0.6,1.7-0.6c0.3,0,0.4,0,0.6,0v0.7c-0.2,0-0.4-0.1-0.5-0.1c-0.3,0-0.6,0-0.8,0.1c-0.2,0.1-0.4,0.2-0.5,0.4
		c-0.1,0.2-0.2,0.5-0.2,0.8h0c0.2-0.3,0.5-0.5,1-0.5c0.4,0,0.7,0.1,0.9,0.4c0.2,0.2,0.3,0.6,0.3,1c0,0.5-0.1,0.8-0.4,1.1
		c-0.3,0.3-0.6,0.4-1.1,0.4c-0.3,0-0.6-0.1-0.9-0.2c-0.2-0.2-0.4-0.4-0.6-0.7C301,90.7,300.9,90.3,300.9,89.9"/>
	<path class="st15" d="M305.6,91.1c-0.1,0.4-0.3,0.9-0.5,1.4h-0.7c0.1-0.5,0.2-1,0.3-1.5L305.6,91.1L305.6,91.1z"/>
</g>
<polygon class="st0" points="306.7,91.8 308.4,88.2 306.2,88.2 306.2,87.4 309.4,87.4 309.4,88 307.7,91.8 "/>
<g>
	<defs>
		<rect id="SVGID_11_" x="-27.3" y="10.8" width="407.2" height="165.8"/>
	</defs>
	<clipPath id="SVGID_12_">
		<use xlink:href="#SVGID_11_"  style="overflow:visible;"/>
	</clipPath>
	<path class="st16" d="M313.6,90.5c0,0.3,0,0.4,0.1,0.6c0,0.1,0.1,0.2,0.2,0.2c0.2,0,0.3-0.3,0.3-0.8c0-0.5-0.1-0.8-0.3-0.8
		c-0.1,0-0.2,0.1-0.2,0.2C313.6,90,313.6,90.2,313.6,90.5 M314.9,90.4c0,0.5-0.1,0.8-0.3,1c-0.2,0.2-0.4,0.3-0.8,0.3
		c-0.3,0-0.6-0.1-0.8-0.4c-0.2-0.2-0.3-0.6-0.3-1c0-0.9,0.3-1.4,1-1.4c0.3,0,0.6,0.1,0.8,0.4S314.9,90,314.9,90.4 M313.9,87.4
		l-2.4,4.4h-0.7l2.4-4.4H313.9z M310.5,88.7c0,0.3,0,0.4,0.1,0.6c0,0.1,0.1,0.2,0.2,0.2c0.2,0,0.3-0.3,0.3-0.8
		c0-0.5-0.1-0.8-0.3-0.8c-0.1,0-0.2,0.1-0.2,0.2C310.5,88.2,310.5,88.4,310.5,88.7 M311.9,88.7c0,0.5-0.1,0.8-0.3,1
		c-0.2,0.2-0.4,0.3-0.8,0.3c-0.3,0-0.6-0.1-0.8-0.4c-0.2-0.2-0.3-0.6-0.3-1c0-0.9,0.3-1.4,1-1.4c0.3,0,0.6,0.1,0.8,0.4
		S311.9,88.2,311.9,88.7"/>
</g>
<rect x="300.7" y="92.1" class="st0" width="14.4" height="0.3"/>
<g>
	<defs>
		<rect id="SVGID_13_" x="-27.3" y="10.8" width="407.2" height="165.8"/>
	</defs>
	<clipPath id="SVGID_14_">
		<use xlink:href="#SVGID_13_"  style="overflow:visible;"/>
	</clipPath>
	<path class="st17" d="M303.9,100.8c0,0.3-0.1,0.5-0.2,0.7c-0.2,0.2-0.4,0.3-0.7,0.4v0c0.4,0,0.6,0.2,0.8,0.3
		c0.2,0.2,0.3,0.4,0.3,0.7c0,0.4-0.2,0.8-0.5,1c-0.3,0.2-0.7,0.4-1.3,0.4c-0.5,0-0.9-0.1-1.3-0.2v-0.8c0.2,0.1,0.4,0.2,0.6,0.2
		c0.2,0.1,0.4,0.1,0.6,0.1c0.3,0,0.5-0.1,0.7-0.2c0.1-0.1,0.2-0.3,0.2-0.5c0-0.2-0.1-0.4-0.3-0.4s-0.4-0.1-0.8-0.1h-0.3v-0.7h0.3
		c0.3,0,0.6,0,0.8-0.1c0.2-0.1,0.2-0.2,0.2-0.5c0-0.3-0.2-0.5-0.6-0.5c-0.1,0-0.3,0-0.4,0.1c-0.1,0-0.3,0.1-0.5,0.3l-0.4-0.6
		c0.4-0.3,0.9-0.4,1.4-0.4c0.5,0,0.8,0.1,1.1,0.3C303.7,100.2,303.9,100.4,303.9,100.8"/>
	<path class="st17" d="M305.6,103.5c-0.1,0.4-0.3,0.9-0.5,1.4h-0.7c0.1-0.5,0.2-1,0.3-1.5L305.6,103.5L305.6,103.5z"/>
	<path class="st17" d="M307.8,100.5c-0.2,0-0.3,0.1-0.5,0.2c-0.1,0.1-0.2,0.3-0.2,0.6c0,0.2,0,0.4,0.1,0.5c0.1,0.1,0.2,0.2,0.4,0.2
		c0.2,0,0.4-0.1,0.5-0.2c0.1-0.1,0.2-0.3,0.2-0.4c0-0.2-0.1-0.4-0.2-0.6C308.1,100.6,308,100.5,307.8,100.5 M309.4,101.7
		c0,0.9-0.2,1.5-0.5,1.9c-0.4,0.4-0.9,0.6-1.7,0.6c-0.3,0-0.5,0-0.6,0v-0.7c0.2,0,0.3,0.1,0.5,0.1c0.3,0,0.6,0,0.8-0.1
		c0.2-0.1,0.4-0.2,0.5-0.4c0.1-0.2,0.2-0.5,0.2-0.8h0c-0.1,0.2-0.3,0.3-0.4,0.4c-0.2,0.1-0.3,0.1-0.6,0.1c-0.4,0-0.7-0.1-0.9-0.4
		c-0.2-0.2-0.3-0.6-0.3-1c0-0.5,0.1-0.8,0.4-1.1c0.3-0.3,0.6-0.4,1.1-0.4c0.3,0,0.6,0.1,0.9,0.2c0.2,0.2,0.4,0.4,0.6,0.7
		C309.3,100.9,309.4,101.3,309.4,101.7"/>
	<path class="st17" d="M313.6,102.9c0,0.3,0,0.4,0.1,0.6c0,0.1,0.1,0.2,0.2,0.2c0.2,0,0.3-0.3,0.3-0.8c0-0.5-0.1-0.8-0.3-0.8
		c-0.1,0-0.2,0.1-0.2,0.2C313.6,102.4,313.6,102.6,313.6,102.9 M314.9,102.9c0,0.5-0.1,0.8-0.3,1c-0.2,0.2-0.4,0.3-0.8,0.3
		c-0.3,0-0.6-0.1-0.8-0.4c-0.2-0.2-0.3-0.6-0.3-1c0-0.9,0.3-1.4,1-1.4c0.3,0,0.6,0.1,0.8,0.4C314.9,102.1,314.9,102.4,314.9,102.9
		 M313.9,99.8l-2.4,4.4h-0.7l2.4-4.4H313.9z M310.5,101.1c0,0.3,0,0.4,0.1,0.6c0,0.1,0.1,0.2,0.2,0.2c0.2,0,0.3-0.3,0.3-0.8
		c0-0.5-0.1-0.8-0.3-0.8c-0.1,0-0.2,0.1-0.2,0.2C310.5,100.7,310.5,100.9,310.5,101.1 M311.9,101.1c0,0.5-0.1,0.8-0.3,1
		c-0.2,0.2-0.4,0.3-0.8,0.3c-0.3,0-0.6-0.1-0.8-0.4s-0.3-0.6-0.3-1c0-0.9,0.3-1.4,1-1.4c0.3,0,0.6,0.1,0.8,0.4
		C311.8,100.3,311.9,100.7,311.9,101.1"/>
</g>
<rect x="300.7" y="104.5" class="st0" width="14.4" height="0.3"/>
<g>
	<defs>
		<rect id="SVGID_15_" x="-27.3" y="10.8" width="407.2" height="165.8"/>
	</defs>
	<clipPath id="SVGID_16_">
		<use xlink:href="#SVGID_15_"  style="overflow:visible;"/>
	</clipPath>
	<path class="st18" d="M304,115.3H301v-0.6l1.1-1.1c0.3-0.3,0.5-0.6,0.6-0.7c0.1-0.1,0.2-0.3,0.2-0.4c0-0.1,0.1-0.2,0.1-0.3
		c0-0.2,0-0.3-0.1-0.4c-0.1-0.1-0.2-0.1-0.4-0.1c-0.2,0-0.3,0-0.5,0.1c-0.2,0.1-0.3,0.2-0.5,0.3l-0.5-0.6c0.2-0.2,0.4-0.3,0.5-0.4
		c0.1-0.1,0.3-0.1,0.5-0.2s0.4-0.1,0.6-0.1c0.3,0,0.5,0.1,0.7,0.2c0.2,0.1,0.4,0.2,0.5,0.4c0.1,0.2,0.2,0.4,0.2,0.6
		c0,0.2,0,0.4-0.1,0.6c-0.1,0.2-0.2,0.4-0.3,0.5c-0.1,0.2-0.4,0.5-0.8,0.8l-0.6,0.5v0h1.9V115.3z"/>
	<path class="st18" d="M305.6,114.6c-0.1,0.4-0.3,0.9-0.5,1.4h-0.7c0.1-0.5,0.2-1,0.3-1.5L305.6,114.6L305.6,114.6z"/>
	<path class="st18" d="M307.8,111.5c-0.2,0-0.3,0-0.4,0.1c-0.1,0.1-0.1,0.2-0.1,0.3c0,0.1,0,0.2,0.1,0.3c0.1,0.1,0.2,0.2,0.4,0.3
		c0.2-0.1,0.3-0.2,0.4-0.3c0.1-0.1,0.1-0.2,0.1-0.3c0-0.1,0-0.2-0.2-0.3C308.1,111.5,308,111.5,307.8,111.5 M307.1,114.1
		c0,0.2,0.1,0.3,0.2,0.4c0.1,0.1,0.3,0.1,0.5,0.1c0.2,0,0.4-0.1,0.5-0.1c0.1-0.1,0.2-0.2,0.2-0.4c0-0.1-0.1-0.3-0.2-0.4
		c-0.1-0.1-0.3-0.2-0.6-0.4C307.3,113.5,307.1,113.8,307.1,114.1 M307.8,110.8c0.4,0,0.8,0.1,1,0.3c0.3,0.2,0.4,0.5,0.4,0.8
		c0,0.2-0.1,0.4-0.2,0.6c-0.1,0.2-0.3,0.3-0.6,0.5c0.3,0.2,0.6,0.4,0.7,0.6c0.1,0.2,0.2,0.4,0.2,0.6c0,0.4-0.1,0.7-0.4,0.9
		c-0.3,0.2-0.7,0.3-1.1,0.3c-0.5,0-0.9-0.1-1.1-0.3c-0.3-0.2-0.4-0.5-0.4-0.9c0-0.3,0.1-0.5,0.2-0.7s0.3-0.4,0.6-0.5
		c-0.3-0.2-0.4-0.3-0.5-0.5c-0.1-0.2-0.2-0.4-0.2-0.6c0-0.3,0.1-0.6,0.4-0.8C307,110.9,307.4,110.8,307.8,110.8"/>
	<path class="st18" d="M313.6,113.9c0,0.3,0,0.4,0.1,0.6c0,0.1,0.1,0.2,0.2,0.2c0.2,0,0.3-0.3,0.3-0.8c0-0.5-0.1-0.8-0.3-0.8
		c-0.1,0-0.2,0.1-0.2,0.2C313.6,113.5,313.6,113.7,313.6,113.9 M314.9,113.9c0,0.5-0.1,0.8-0.3,1c-0.2,0.2-0.4,0.3-0.8,0.3
		c-0.3,0-0.6-0.1-0.8-0.4c-0.2-0.2-0.3-0.6-0.3-1c0-0.9,0.3-1.4,1-1.4c0.3,0,0.6,0.1,0.8,0.4C314.9,113.2,314.9,113.5,314.9,113.9
		 M313.9,110.9l-2.4,4.4h-0.7l2.4-4.4H313.9z M310.5,112.2c0,0.3,0,0.4,0.1,0.6c0,0.1,0.1,0.2,0.2,0.2c0.2,0,0.3-0.3,0.3-0.8
		c0-0.5-0.1-0.8-0.3-0.8c-0.1,0-0.2,0.1-0.2,0.2C310.5,111.7,310.5,111.9,310.5,112.2 M311.9,112.2c0,0.5-0.1,0.8-0.3,1
		c-0.2,0.2-0.4,0.3-0.8,0.3c-0.3,0-0.6-0.1-0.8-0.4s-0.3-0.6-0.3-1c0-0.9,0.3-1.4,1-1.4c0.3,0,0.6,0.1,0.8,0.4
		C311.8,111.4,311.9,111.7,311.9,112.2"/>
</g>
<rect x="300.7" y="115.6" class="st0" width="14.4" height="0.3"/>
<g>
	<defs>
		<rect id="SVGID_17_" x="-27.3" y="10.8" width="407.2" height="165.8"/>
	</defs>
	<clipPath id="SVGID_18_">
		<use xlink:href="#SVGID_17_"  style="overflow:visible;"/>
	</clipPath>
	<path class="st19" d="M304,128H301v-0.7l1.1-1.1c0.3-0.3,0.5-0.6,0.6-0.7c0.1-0.1,0.2-0.2,0.2-0.4c0-0.1,0.1-0.2,0.1-0.3
		c0-0.2,0-0.3-0.1-0.4c-0.1-0.1-0.2-0.1-0.4-0.1c-0.2,0-0.3,0-0.5,0.1c-0.2,0.1-0.3,0.2-0.5,0.3l-0.5-0.6c0.2-0.2,0.4-0.3,0.5-0.4
		c0.1-0.1,0.3-0.1,0.5-0.2c0.2,0,0.4-0.1,0.6-0.1c0.3,0,0.5,0,0.7,0.2c0.2,0.1,0.4,0.2,0.5,0.4c0.1,0.2,0.2,0.4,0.2,0.6
		c0,0.2,0,0.4-0.1,0.6c-0.1,0.2-0.2,0.4-0.3,0.5c-0.1,0.2-0.4,0.5-0.8,0.8l-0.6,0.5v0h1.9V128z"/>
	<path class="st19" d="M305.6,127.3c-0.1,0.4-0.3,0.9-0.5,1.4h-0.7c0.1-0.5,0.2-1,0.3-1.5L305.6,127.3L305.6,127.3z"/>
	<path class="st19" d="M308,126.3v-0.7c0-0.1,0-0.3,0-0.5c0-0.2,0-0.4,0-0.4h0c-0.1,0.2-0.2,0.3-0.3,0.5l-0.8,1.2H308z M309.5,127.1
		h-0.5v0.9H308v-0.9h-1.9v-0.6l1.9-2.8h0.9v2.8h0.5V127.1z"/>
	<path class="st19" d="M313.6,126.7c0,0.3,0,0.4,0.1,0.6c0,0.1,0.1,0.2,0.2,0.2c0.2,0,0.3-0.3,0.3-0.8c0-0.5-0.1-0.8-0.3-0.8
		c-0.1,0-0.2,0.1-0.2,0.2C313.6,126.2,313.6,126.4,313.6,126.7 M314.9,126.7c0,0.5-0.1,0.8-0.3,1c-0.2,0.2-0.4,0.3-0.8,0.3
		c-0.3,0-0.6-0.1-0.8-0.4c-0.2-0.2-0.3-0.6-0.3-1c0-0.9,0.3-1.4,1-1.4c0.3,0,0.6,0.1,0.8,0.4S314.9,126.2,314.9,126.7 M313.9,123.6
		l-2.4,4.4h-0.7l2.4-4.4H313.9z M310.5,124.9c0,0.3,0,0.4,0.1,0.6c0,0.1,0.1,0.2,0.2,0.2c0.2,0,0.3-0.3,0.3-0.8
		c0-0.5-0.1-0.8-0.3-0.8c-0.1,0-0.2,0.1-0.2,0.2C310.5,124.4,310.5,124.6,310.5,124.9 M311.9,124.9c0,0.5-0.1,0.8-0.3,1
		c-0.2,0.2-0.4,0.3-0.8,0.3c-0.3,0-0.6-0.1-0.8-0.4c-0.2-0.2-0.3-0.6-0.3-1c0-0.9,0.3-1.4,1-1.4c0.3,0,0.6,0.1,0.8,0.4
		C311.8,124.1,311.9,124.4,311.9,124.9"/>
</g>
<rect x="300.7" y="128.3" class="st0" width="14.4" height="0.3"/>
<g>
	<defs>
		<rect id="SVGID_19_" x="-27.3" y="10.8" width="407.2" height="165.8"/>
	</defs>
	<clipPath id="SVGID_20_">
		<use xlink:href="#SVGID_19_"  style="overflow:visible;"/>
	</clipPath>
	<path class="st20" d="M301.9,138.8c0,0.5,0,0.9,0.1,1.2c0.1,0.2,0.2,0.4,0.5,0.4c0.2,0,0.4-0.1,0.5-0.4c0.1-0.2,0.1-0.6,0.1-1.2
		c0-0.5,0-0.9-0.1-1.2c-0.1-0.2-0.3-0.4-0.5-0.4c-0.2,0-0.4,0.1-0.5,0.4C301.9,137.9,301.9,138.3,301.9,138.8 M304,138.8
		c0,0.8-0.1,1.3-0.4,1.7c-0.3,0.4-0.6,0.6-1.2,0.6c-0.5,0-0.9-0.2-1.2-0.6c-0.3-0.4-0.4-0.9-0.4-1.7c0-0.8,0.1-1.4,0.4-1.7
		c0.2-0.4,0.6-0.6,1.2-0.6c0.5,0,0.9,0.2,1.2,0.6C303.9,137.5,304,138.1,304,138.8"/>
	<path class="st20" d="M305.6,140.4c-0.1,0.4-0.3,0.9-0.5,1.4h-0.7c0.1-0.5,0.2-1,0.3-1.5L305.6,140.4L305.6,140.4z"/>
	<path class="st20" d="M307.8,137.2c-0.2,0-0.3,0-0.4,0.1c-0.1,0.1-0.1,0.2-0.1,0.3c0,0.1,0,0.2,0.1,0.3c0.1,0.1,0.2,0.2,0.4,0.3
		c0.2-0.1,0.3-0.2,0.4-0.3c0.1-0.1,0.1-0.2,0.1-0.3c0-0.1,0-0.2-0.2-0.3C308.1,137.3,308,137.2,307.8,137.2 M307.1,139.8
		c0,0.2,0.1,0.3,0.2,0.4c0.1,0.1,0.3,0.1,0.5,0.1c0.2,0,0.4,0,0.5-0.1c0.1-0.1,0.2-0.2,0.2-0.4c0-0.1-0.1-0.3-0.2-0.4
		c-0.1-0.1-0.3-0.2-0.6-0.4C307.3,139.3,307.1,139.5,307.1,139.8 M307.8,136.5c0.4,0,0.8,0.1,1,0.3c0.3,0.2,0.4,0.5,0.4,0.8
		c0,0.2-0.1,0.4-0.2,0.6s-0.3,0.3-0.6,0.5c0.3,0.2,0.6,0.4,0.7,0.6s0.2,0.4,0.2,0.6c0,0.4-0.1,0.7-0.4,0.9c-0.3,0.2-0.7,0.3-1.1,0.3
		c-0.5,0-0.9-0.1-1.1-0.3c-0.3-0.2-0.4-0.5-0.4-0.9c0-0.3,0.1-0.5,0.2-0.7c0.1-0.2,0.3-0.4,0.6-0.5c-0.3-0.2-0.4-0.3-0.5-0.5
		c-0.1-0.2-0.2-0.4-0.2-0.6c0-0.3,0.1-0.6,0.4-0.8C307,136.6,307.4,136.5,307.8,136.5"/>
	<path class="st20" d="M313.6,139.7c0,0.3,0,0.4,0.1,0.6c0,0.1,0.1,0.2,0.2,0.2c0.2,0,0.3-0.3,0.3-0.8c0-0.5-0.1-0.8-0.3-0.8
		c-0.1,0-0.2,0.1-0.2,0.2C313.6,139.2,313.6,139.4,313.6,139.7 M314.9,139.7c0,0.5-0.1,0.8-0.3,1c-0.2,0.2-0.4,0.3-0.8,0.3
		c-0.3,0-0.6-0.1-0.8-0.4s-0.3-0.6-0.3-1c0-0.9,0.3-1.4,1-1.4c0.3,0,0.6,0.1,0.8,0.4C314.9,138.9,314.9,139.2,314.9,139.7
		 M313.9,136.6l-2.4,4.4h-0.7l2.4-4.4H313.9z M310.5,137.9c0,0.3,0,0.4,0.1,0.6c0,0.1,0.1,0.2,0.2,0.2c0.2,0,0.3-0.3,0.3-0.8
		c0-0.5-0.1-0.8-0.3-0.8c-0.1,0-0.2,0.1-0.2,0.2C310.5,137.5,310.5,137.7,310.5,137.9 M311.9,137.9c0,0.5-0.1,0.8-0.3,1
		c-0.2,0.2-0.4,0.3-0.8,0.3c-0.3,0-0.6-0.1-0.8-0.4c-0.2-0.2-0.3-0.6-0.3-1c0-0.9,0.3-1.4,1-1.4c0.3,0,0.6,0.1,0.8,0.4
		S311.9,137.5,311.9,137.9"/>
</g>
<rect x="300.7" y="141.3" class="st0" width="14.4" height="0.3"/>
<g>
	<defs>
		<rect id="SVGID_21_" x="-27.3" y="10.8" width="407.2" height="165.8"/>
	</defs>
	<clipPath id="SVGID_22_">
		<use xlink:href="#SVGID_21_"  style="overflow:visible;"/>
	</clipPath>
	<path class="st21" d="M301.9,150.7c0,0.5,0,0.9,0.1,1.2c0.1,0.2,0.2,0.4,0.5,0.4c0.2,0,0.4-0.1,0.5-0.4c0.1-0.2,0.1-0.6,0.1-1.2
		c0-0.5,0-0.9-0.1-1.2c-0.1-0.2-0.3-0.4-0.5-0.4c-0.2,0-0.4,0.1-0.5,0.4C301.9,149.8,301.9,150.1,301.9,150.7 M304,150.7
		c0,0.8-0.1,1.3-0.4,1.7c-0.3,0.4-0.6,0.6-1.2,0.6c-0.5,0-0.9-0.2-1.2-0.6c-0.3-0.4-0.4-0.9-0.4-1.7c0-0.8,0.1-1.4,0.4-1.7
		c0.2-0.4,0.6-0.6,1.2-0.6c0.5,0,0.9,0.2,1.2,0.6C303.9,149.4,304,149.9,304,150.7"/>
	<path class="st21" d="M305.6,152.2c-0.1,0.4-0.3,0.9-0.5,1.4h-0.7c0.1-0.5,0.2-1,0.3-1.5L305.6,152.2L305.6,152.2z"/>
	<path class="st21" d="M307.8,149.1c-0.2,0-0.3,0-0.4,0.1c-0.1,0.1-0.1,0.2-0.1,0.3c0,0.1,0,0.2,0.1,0.3c0.1,0.1,0.2,0.2,0.4,0.3
		c0.2-0.1,0.3-0.2,0.4-0.3c0.1-0.1,0.1-0.2,0.1-0.3c0-0.1,0-0.2-0.2-0.3C308.1,149.1,308,149.1,307.8,149.1 M307.1,151.7
		c0,0.2,0.1,0.3,0.2,0.4c0.1,0.1,0.3,0.1,0.5,0.1c0.2,0,0.4-0.1,0.5-0.1c0.1-0.1,0.2-0.2,0.2-0.4c0-0.1-0.1-0.3-0.2-0.4
		c-0.1-0.1-0.3-0.2-0.6-0.4C307.3,151.2,307.1,151.4,307.1,151.7 M307.8,148.4c0.4,0,0.8,0.1,1,0.3c0.3,0.2,0.4,0.5,0.4,0.8
		c0,0.2-0.1,0.4-0.2,0.6c-0.1,0.2-0.3,0.3-0.6,0.5c0.3,0.2,0.6,0.4,0.7,0.6c0.1,0.2,0.2,0.4,0.2,0.6c0,0.4-0.1,0.7-0.4,0.9
		c-0.3,0.2-0.7,0.3-1.1,0.3c-0.5,0-0.9-0.1-1.1-0.3c-0.3-0.2-0.4-0.5-0.4-0.9c0-0.3,0.1-0.5,0.2-0.7c0.1-0.2,0.3-0.4,0.6-0.5
		c-0.3-0.2-0.4-0.3-0.5-0.5c-0.1-0.2-0.2-0.4-0.2-0.6c0-0.3,0.1-0.6,0.4-0.8C307,148.5,307.4,148.4,307.8,148.4"/>
	<path class="st21" d="M313.6,151.6c0,0.3,0,0.4,0.1,0.6c0,0.1,0.1,0.2,0.2,0.2c0.2,0,0.3-0.3,0.3-0.8c0-0.5-0.1-0.8-0.3-0.8
		c-0.1,0-0.2,0.1-0.2,0.2C313.6,151.1,313.6,151.3,313.6,151.6 M314.9,151.6c0,0.5-0.1,0.8-0.3,1c-0.2,0.2-0.4,0.3-0.8,0.3
		c-0.3,0-0.6-0.1-0.8-0.4c-0.2-0.2-0.3-0.6-0.3-1c0-0.9,0.3-1.4,1-1.4c0.3,0,0.6,0.1,0.8,0.4C314.9,150.8,314.9,151.1,314.9,151.6
		 M313.9,148.5l-2.4,4.4h-0.7l2.4-4.4H313.9z M310.5,149.8c0,0.3,0,0.4,0.1,0.6c0,0.1,0.1,0.2,0.2,0.2c0.2,0,0.3-0.3,0.3-0.8
		c0-0.5-0.1-0.8-0.3-0.8c-0.1,0-0.2,0.1-0.2,0.2C310.5,149.4,310.5,149.5,310.5,149.8 M311.9,149.8c0,0.5-0.1,0.8-0.3,1
		c-0.2,0.2-0.4,0.3-0.8,0.3c-0.3,0-0.6-0.1-0.8-0.4s-0.3-0.6-0.3-1c0-0.9,0.3-1.4,1-1.4c0.3,0,0.6,0.1,0.8,0.4
		C311.8,149,311.9,149.4,311.9,149.8"/>
</g>
<rect x="300.7" y="153.2" class="st0" width="14.4" height="0.3"/>
<g>
	<defs>
		<rect id="SVGID_23_" x="-27.3" y="10.8" width="407.2" height="165.8"/>
	</defs>
	<clipPath id="SVGID_24_">
		<use xlink:href="#SVGID_23_"  style="overflow:visible;"/>
	</clipPath>
	<path class="st22" d="M301.9,161.7c0,0.5,0,0.9,0.1,1.2c0.1,0.2,0.2,0.4,0.5,0.4c0.2,0,0.4-0.1,0.5-0.4c0.1-0.2,0.1-0.6,0.1-1.2
		c0-0.5,0-0.9-0.1-1.2c-0.1-0.2-0.3-0.4-0.5-0.4c-0.2,0-0.4,0.1-0.5,0.4C301.9,160.8,301.9,161.1,301.9,161.7 M304,161.7
		c0,0.8-0.1,1.3-0.4,1.7c-0.3,0.4-0.6,0.6-1.2,0.6c-0.5,0-0.9-0.2-1.2-0.6c-0.3-0.4-0.4-0.9-0.4-1.7c0-0.8,0.1-1.4,0.4-1.7
		c0.2-0.4,0.6-0.6,1.2-0.6c0.5,0,0.9,0.2,1.2,0.6C303.9,160.4,304,160.9,304,161.7"/>
	<path class="st22" d="M305.6,163.2c-0.1,0.4-0.3,0.9-0.5,1.4h-0.7c0.1-0.5,0.2-1,0.3-1.5L305.6,163.2L305.6,163.2z"/>
	<path class="st22" d="M307.8,160.1c-0.2,0-0.3,0-0.4,0.1c-0.1,0.1-0.1,0.2-0.1,0.3c0,0.1,0,0.2,0.1,0.3c0.1,0.1,0.2,0.2,0.4,0.3
		c0.2-0.1,0.3-0.2,0.4-0.3c0.1-0.1,0.1-0.2,0.1-0.3c0-0.1,0-0.2-0.2-0.3C308.1,160.1,308,160.1,307.8,160.1 M307.1,162.7
		c0,0.2,0.1,0.3,0.2,0.4c0.1,0.1,0.3,0.1,0.5,0.1c0.2,0,0.4-0.1,0.5-0.1c0.1-0.1,0.2-0.2,0.2-0.4c0-0.1-0.1-0.3-0.2-0.4
		c-0.1-0.1-0.3-0.2-0.6-0.4C307.3,162.2,307.1,162.4,307.1,162.7 M307.8,159.4c0.4,0,0.8,0.1,1,0.3c0.3,0.2,0.4,0.5,0.4,0.8
		c0,0.2-0.1,0.4-0.2,0.6s-0.3,0.3-0.6,0.5c0.3,0.2,0.6,0.4,0.7,0.6s0.2,0.4,0.2,0.6c0,0.4-0.1,0.7-0.4,0.9c-0.3,0.2-0.7,0.3-1.1,0.3
		c-0.5,0-0.9-0.1-1.1-0.3c-0.3-0.2-0.4-0.5-0.4-0.9c0-0.3,0.1-0.5,0.2-0.7c0.1-0.2,0.3-0.4,0.6-0.5c-0.3-0.2-0.4-0.3-0.5-0.5
		c-0.1-0.2-0.2-0.4-0.2-0.6c0-0.3,0.1-0.6,0.4-0.8C307,159.5,307.4,159.4,307.8,159.4"/>
	<path class="st22" d="M313.6,162.6c0,0.3,0,0.4,0.1,0.6c0,0.1,0.1,0.2,0.2,0.2c0.2,0,0.3-0.3,0.3-0.8c0-0.5-0.1-0.8-0.3-0.8
		c-0.1,0-0.2,0.1-0.2,0.2C313.6,162.1,313.6,162.3,313.6,162.6 M314.9,162.6c0,0.5-0.1,0.8-0.3,1c-0.2,0.2-0.4,0.3-0.8,0.3
		c-0.3,0-0.6-0.1-0.8-0.4c-0.2-0.2-0.3-0.6-0.3-1c0-0.9,0.3-1.4,1-1.4c0.3,0,0.6,0.1,0.8,0.4C314.9,161.8,314.9,162.1,314.9,162.6
		 M313.9,159.5l-2.4,4.4h-0.7l2.4-4.4H313.9z M310.5,160.8c0,0.3,0,0.4,0.1,0.6c0,0.1,0.1,0.2,0.2,0.2c0.2,0,0.3-0.3,0.3-0.8
		c0-0.5-0.1-0.8-0.3-0.8c-0.1,0-0.2,0.1-0.2,0.2C310.5,160.4,310.5,160.5,310.5,160.8 M311.9,160.8c0,0.5-0.1,0.8-0.3,1
		c-0.2,0.2-0.4,0.3-0.8,0.3c-0.3,0-0.6-0.1-0.8-0.4c-0.2-0.2-0.3-0.6-0.3-1c0-0.9,0.3-1.4,1-1.4c0.3,0,0.6,0.1,0.8,0.4
		S311.9,160.3,311.9,160.8"/>
</g>
<rect x="300.7" y="164.2" class="st0" width="14.4" height="0.3"/>
<g>
	<defs>
		<rect id="SVGID_25_" x="-27.3" y="10.8" width="407.2" height="165.8"/>
	</defs>
	<clipPath id="SVGID_26_">
		<use xlink:href="#SVGID_25_"  style="overflow:visible;"/>
	</clipPath>
</g>
<g>
	<defs>
		<rect id="SVGID_27_" x="-27.3" y="10.8" width="407.2" height="165.8"/>
	</defs>
	<clipPath id="SVGID_28_">
		<use xlink:href="#SVGID_27_"  style="overflow:visible;"/>
	</clipPath>
</g>
<g>
	<defs>
		<rect id="SVGID_29_" x="-27.3" y="10.8" width="407.2" height="165.8"/>
	</defs>
	<clipPath id="SVGID_30_">
		<use xlink:href="#SVGID_29_"  style="overflow:visible;"/>
	</clipPath>
</g>
<g>
	<defs>
		<rect id="SVGID_31_" x="-27.3" y="10.8" width="407.2" height="165.8"/>
	</defs>
	<clipPath id="SVGID_32_">
		<use xlink:href="#SVGID_31_"  style="overflow:visible;"/>
	</clipPath>
</g>
<g>
	<defs>
		<rect id="SVGID_33_" x="-27.3" y="10.8" width="407.2" height="165.8"/>
	</defs>
	<clipPath id="SVGID_34_">
		<use xlink:href="#SVGID_33_"  style="overflow:visible;"/>
	</clipPath>
</g>
<g>
	<defs>
		<rect id="SVGID_35_" x="-27.3" y="10.8" width="407.2" height="165.8"/>
	</defs>
	<clipPath id="SVGID_36_">
		<use xlink:href="#SVGID_35_"  style="overflow:visible;"/>
	</clipPath>
</g>
<g>
	<defs>
		<rect id="SVGID_37_" x="-27.3" y="10.8" width="407.2" height="165.8"/>
	</defs>
	<clipPath id="SVGID_38_">
		<use xlink:href="#SVGID_37_"  style="overflow:visible;"/>
	</clipPath>
</g>
<g>
	<defs>
		<rect id="SVGID_39_" x="-27.3" y="10.8" width="407.2" height="165.8"/>
	</defs>
	<clipPath id="SVGID_40_">
		<use xlink:href="#SVGID_39_"  style="overflow:visible;"/>
	</clipPath>
</g>
<g>
	<defs>
		<rect id="SVGID_41_" x="-27.3" y="10.8" width="407.2" height="165.8"/>
	</defs>
	<clipPath id="SVGID_42_">
		<use xlink:href="#SVGID_41_"  style="overflow:visible;"/>
	</clipPath>
</g>
<g>
	<defs>
		<rect id="SVGID_43_" x="-27.3" y="10.8" width="407.2" height="165.8"/>
	</defs>
	<clipPath id="SVGID_44_">
		<use xlink:href="#SVGID_43_"  style="overflow:visible;"/>
	</clipPath>
</g>
<g>
	<defs>
		<rect id="SVGID_45_" x="-27.3" y="10.8" width="407.2" height="165.8"/>
	</defs>
	<clipPath id="SVGID_46_">
		<use xlink:href="#SVGID_45_"  style="overflow:visible;"/>
	</clipPath>
</g>
<g>
	<defs>
		<rect id="SVGID_47_" x="-27.3" y="10.8" width="407.2" height="165.8"/>
	</defs>
	<clipPath id="SVGID_48_">
		<use xlink:href="#SVGID_47_"  style="overflow:visible;"/>
	</clipPath>
</g>
<g>
	<defs>
		<rect id="SVGID_49_" x="-27.3" y="10.8" width="407.2" height="165.8"/>
	</defs>
	<clipPath id="SVGID_50_">
		<use xlink:href="#SVGID_49_"  style="overflow:visible;"/>
	</clipPath>
</g>
<g>
	<defs>
		<rect id="SVGID_51_" x="-27.3" y="10.8" width="407.2" height="165.8"/>
	</defs>
	<clipPath id="SVGID_52_">
		<use xlink:href="#SVGID_51_"  style="overflow:visible;"/>
	</clipPath>
</g>
<g>
	<defs>
		<rect id="SVGID_53_" x="-27.3" y="10.8" width="407.2" height="165.8"/>
	</defs>
	<clipPath id="SVGID_54_">
		<use xlink:href="#SVGID_53_"  style="overflow:visible;"/>
	</clipPath>
</g>
<g>
	<defs>
		<rect id="SVGID_55_" x="-27.3" y="10.8" width="407.2" height="165.8"/>
	</defs>
	<clipPath id="SVGID_56_">
		<use xlink:href="#SVGID_55_"  style="overflow:visible;"/>
	</clipPath>
</g>
<g>
	<defs>
		<rect id="SVGID_57_" x="-27.3" y="10.8" width="407.2" height="165.8"/>
	</defs>
	<clipPath id="SVGID_58_">
		<use xlink:href="#SVGID_57_"  style="overflow:visible;"/>
	</clipPath>
</g>
<g>
	<defs>
		<rect id="SVGID_59_" x="-27.3" y="10.8" width="407.2" height="165.8"/>
	</defs>
	<clipPath id="SVGID_60_">
		<use xlink:href="#SVGID_59_"  style="overflow:visible;"/>
	</clipPath>
</g>
<g>
	<defs>
		<rect id="SVGID_61_" x="-27.3" y="10.8" width="407.2" height="165.8"/>
	</defs>
	<clipPath id="SVGID_62_">
		<use xlink:href="#SVGID_61_"  style="overflow:visible;"/>
	</clipPath>
</g>
<g>
	<defs>
		<rect id="SVGID_63_" x="-27.3" y="10.8" width="407.2" height="165.8"/>
	</defs>
	<clipPath id="SVGID_64_">
		<use xlink:href="#SVGID_63_"  style="overflow:visible;"/>
	</clipPath>
</g>
<g>
	<defs>
		<rect id="SVGID_65_" x="-27.3" y="10.8" width="407.2" height="165.8"/>
	</defs>
	<clipPath id="SVGID_66_">
		<use xlink:href="#SVGID_65_"  style="overflow:visible;"/>
	</clipPath>
</g>
<g>
	<defs>
		<rect id="SVGID_67_" x="-27.3" y="10.8" width="407.2" height="165.8"/>
	</defs>
	<clipPath id="SVGID_68_">
		<use xlink:href="#SVGID_67_"  style="overflow:visible;"/>
	</clipPath>
</g>
<g>
	<defs>
		<rect id="SVGID_69_" x="-27.3" y="10.8" width="407.2" height="165.8"/>
	</defs>
	<clipPath id="SVGID_70_">
		<use xlink:href="#SVGID_69_"  style="overflow:visible;"/>
	</clipPath>
</g>
<g>
	<defs>
		<rect id="SVGID_71_" x="-27.3" y="10.8" width="407.2" height="165.8"/>
	</defs>
	<clipPath id="SVGID_72_">
		<use xlink:href="#SVGID_71_"  style="overflow:visible;"/>
	</clipPath>
</g>
<g>
	<defs>
		<rect id="SVGID_73_" x="-27.3" y="10.8" width="407.2" height="165.8"/>
	</defs>
	<clipPath id="SVGID_74_">
		<use xlink:href="#SVGID_73_"  style="overflow:visible;"/>
	</clipPath>
</g>
<g>
	<defs>
		<rect id="SVGID_75_" x="-27.3" y="10.8" width="407.2" height="165.8"/>
	</defs>
	<clipPath id="SVGID_76_">
		<use xlink:href="#SVGID_75_"  style="overflow:visible;"/>
	</clipPath>
</g>
<g>
	<defs>
		<rect id="SVGID_77_" x="-27.3" y="10.8" width="407.2" height="165.8"/>
	</defs>
	<clipPath id="SVGID_78_">
		<use xlink:href="#SVGID_77_"  style="overflow:visible;"/>
	</clipPath>
</g>
<g>
	<defs>
		<rect id="SVGID_79_" x="-27.3" y="10.8" width="407.2" height="165.8"/>
	</defs>
	<clipPath id="SVGID_80_">
		<use xlink:href="#SVGID_79_"  style="overflow:visible;"/>
	</clipPath>
</g>
<g>
	<defs>
		<rect id="SVGID_81_" x="-27.3" y="10.8" width="407.2" height="165.8"/>
	</defs>
	<clipPath id="SVGID_82_">
		<use xlink:href="#SVGID_81_"  style="overflow:visible;"/>
	</clipPath>
</g>
<g>
	<defs>
		<rect id="SVGID_83_" x="-27.3" y="10.8" width="407.2" height="165.8"/>
	</defs>
	<clipPath id="SVGID_84_">
		<use xlink:href="#SVGID_83_"  style="overflow:visible;"/>
	</clipPath>
</g>
<g>
	<defs>
		<rect id="SVGID_85_" x="-27.3" y="10.8" width="407.2" height="165.8"/>
	</defs>
	<clipPath id="SVGID_86_">
		<use xlink:href="#SVGID_85_"  style="overflow:visible;"/>
	</clipPath>
</g>
<g>
	<defs>
		<rect id="SVGID_87_" x="-27.3" y="10.8" width="407.2" height="165.8"/>
	</defs>
	<clipPath id="SVGID_88_">
		<use xlink:href="#SVGID_87_"  style="overflow:visible;"/>
	</clipPath>
</g>
<g>
	<defs>
		<rect id="SVGID_89_" x="-27.3" y="10.8" width="407.2" height="165.8"/>
	</defs>
	<clipPath id="SVGID_90_">
		<use xlink:href="#SVGID_89_"  style="overflow:visible;"/>
	</clipPath>
</g>
<g>
	<defs>
		<rect id="SVGID_91_" x="-27.3" y="10.8" width="407.2" height="165.8"/>
	</defs>
	<clipPath id="SVGID_92_">
		<use xlink:href="#SVGID_91_"  style="overflow:visible;"/>
	</clipPath>
</g>
<g>
	<defs>
		<rect id="SVGID_93_" x="-27.3" y="10.8" width="407.2" height="165.8"/>
	</defs>
	<clipPath id="SVGID_94_">
		<use xlink:href="#SVGID_93_"  style="overflow:visible;"/>
	</clipPath>
</g>
<g>
	<defs>
		<rect id="SVGID_95_" x="-27.3" y="10.8" width="407.2" height="165.8"/>
	</defs>
	<clipPath id="SVGID_96_">
		<use xlink:href="#SVGID_95_"  style="overflow:visible;"/>
	</clipPath>
</g>
<g>
	<defs>
		<rect id="SVGID_97_" x="-27.3" y="10.8" width="407.2" height="165.8"/>
	</defs>
	<clipPath id="SVGID_98_">
		<use xlink:href="#SVGID_97_"  style="overflow:visible;"/>
	</clipPath>
</g>
<g>
	<defs>
		<rect id="SVGID_99_" x="-27.3" y="10.8" width="407.2" height="165.8"/>
	</defs>
	<clipPath id="SVGID_100_">
		<use xlink:href="#SVGID_99_"  style="overflow:visible;"/>
	</clipPath>
</g>
<g>
	<defs>
		<rect id="SVGID_101_" x="-27.3" y="10.8" width="407.2" height="165.8"/>
	</defs>
	<clipPath id="SVGID_102_">
		<use xlink:href="#SVGID_101_"  style="overflow:visible;"/>
	</clipPath>
</g>
<g>
	<defs>
		<rect id="SVGID_103_" x="-27.3" y="10.8" width="407.2" height="165.8"/>
	</defs>
	<clipPath id="SVGID_104_">
		<use xlink:href="#SVGID_103_"  style="overflow:visible;"/>
	</clipPath>
</g>
<g>
	<defs>
		<rect id="SVGID_105_" x="-27.3" y="10.8" width="407.2" height="165.8"/>
	</defs>
	<clipPath id="SVGID_106_">
		<use xlink:href="#SVGID_105_"  style="overflow:visible;"/>
	</clipPath>
</g>
<g>
	<defs>
		<rect id="SVGID_107_" x="-27.3" y="10.8" width="407.2" height="165.8"/>
	</defs>
	<clipPath id="SVGID_108_">
		<use xlink:href="#SVGID_107_"  style="overflow:visible;"/>
	</clipPath>
</g>
<g>
	<defs>
		<rect id="SVGID_109_" x="-27.3" y="10.8" width="407.2" height="165.8"/>
	</defs>
	<clipPath id="SVGID_110_">
		<use xlink:href="#SVGID_109_"  style="overflow:visible;"/>
	</clipPath>
</g>
<g>
	<defs>
		<rect id="SVGID_111_" x="-27.3" y="10.8" width="407.2" height="165.8"/>
	</defs>
	<clipPath id="SVGID_112_">
		<use xlink:href="#SVGID_111_"  style="overflow:visible;"/>
	</clipPath>
</g>
<g>
	<defs>
		<rect id="SVGID_113_" x="-27.3" y="10.8" width="407.2" height="165.8"/>
	</defs>
	<clipPath id="SVGID_114_">
		<use xlink:href="#SVGID_113_"  style="overflow:visible;"/>
	</clipPath>
</g>
<g>
	<defs>
		<rect id="SVGID_115_" x="-27.3" y="10.8" width="407.2" height="165.8"/>
	</defs>
	<clipPath id="SVGID_116_">
		<use xlink:href="#SVGID_115_"  style="overflow:visible;"/>
	</clipPath>
</g>
<g>
	<defs>
		<rect id="SVGID_117_" x="-27.3" y="10.8" width="407.2" height="165.8"/>
	</defs>
	<clipPath id="SVGID_118_">
		<use xlink:href="#SVGID_117_"  style="overflow:visible;"/>
	</clipPath>
</g>
<g>
	<defs>
		<rect id="SVGID_119_" x="-27.3" y="10.8" width="407.2" height="165.8"/>
	</defs>
	<clipPath id="SVGID_120_">
		<use xlink:href="#SVGID_119_"  style="overflow:visible;"/>
	</clipPath>
</g>
<g>
	<defs>
		<rect id="SVGID_121_" x="-27.3" y="10.8" width="407.2" height="165.8"/>
	</defs>
	<clipPath id="SVGID_122_">
		<use xlink:href="#SVGID_121_"  style="overflow:visible;"/>
	</clipPath>
</g>
<g>
	<defs>
		<rect id="SVGID_123_" x="-27.3" y="10.8" width="407.2" height="165.8"/>
	</defs>
	<clipPath id="SVGID_124_">
		<use xlink:href="#SVGID_123_"  style="overflow:visible;"/>
	</clipPath>
</g>
<g>
	<defs>
		<rect id="SVGID_125_" x="-27.3" y="10.8" width="407.2" height="165.8"/>
	</defs>
	<clipPath id="SVGID_126_">
		<use xlink:href="#SVGID_125_"  style="overflow:visible;"/>
	</clipPath>
</g>
<g>
	<defs>
		<rect id="SVGID_127_" x="-27.3" y="10.8" width="407.2" height="165.8"/>
	</defs>
	<clipPath id="SVGID_128_">
		<use xlink:href="#SVGID_127_"  style="overflow:visible;"/>
	</clipPath>
</g>
<rect x="177.9" y="18.4" class="st23" width="34.1" height="9"/>
<polygon class="st0" points="183,24.1 182.1,24.1 182.1,20.6 180.9,20.6 180.9,19.8 184.1,19.8 184.1,20.6 183,20.6 "/>
<g>
	<defs>
		<rect id="SVGID_129_" x="-27.3" y="10.8" width="407.2" height="165.8"/>
	</defs>
	<clipPath id="SVGID_130_">
		<use xlink:href="#SVGID_129_"  style="overflow:visible;"/>
	</clipPath>
	<path class="st24" d="M185.5,22c0,0.5,0.1,0.8,0.3,1.1c0.2,0.2,0.4,0.4,0.8,0.4c0.7,0,1.1-0.5,1.1-1.4c0-1-0.4-1.4-1.1-1.4
		c-0.4,0-0.6,0.1-0.8,0.4C185.6,21.1,185.5,21.5,185.5,22 M188.6,22c0,0.7-0.2,1.2-0.5,1.6c-0.3,0.4-0.8,0.6-1.5,0.6
		c-0.6,0-1.2-0.2-1.5-0.6c-0.3-0.4-0.5-0.9-0.5-1.6c0-0.7,0.2-1.2,0.5-1.6c0.3-0.4,0.9-0.6,1.5-0.6c0.7,0,1.2,0.2,1.5,0.6
		C188.5,20.7,188.6,21.3,188.6,22"/>
</g>
<polygon class="st0" points="191.2,24.1 190.3,24.1 190.3,20.6 189.1,20.6 189.1,19.8 192.3,19.8 192.3,20.6 191.2,20.6 "/>
<g>
	<defs>
		<rect id="SVGID_131_" x="-27.3" y="10.8" width="407.2" height="165.8"/>
	</defs>
	<clipPath id="SVGID_132_">
		<use xlink:href="#SVGID_131_"  style="overflow:visible;"/>
	</clipPath>
	<path class="st25" d="M195.1,22.3c-0.3-0.9-0.4-1.4-0.5-1.6c0-0.1-0.1-0.2-0.1-0.3c-0.1,0.2-0.2,0.9-0.5,1.8H195.1z M195.6,24.1
		l-0.3-1h-1.6l-0.3,1h-1l1.5-4.3h1.1l1.5,4.3H195.6z"/>
</g>
<polygon class="st0" points="197.1,24.1 197.1,19.8 198,19.8 198,23.4 199.7,23.4 199.7,24.1 "/>
<g>
	<defs>
		<rect id="SVGID_133_" x="-27.3" y="10.8" width="407.2" height="165.8"/>
	</defs>
	<clipPath id="SVGID_134_">
		<use xlink:href="#SVGID_133_"  style="overflow:visible;"/>
	</clipPath>
	<path class="st26" d="M204.7,24.1h-3v-0.6l1.1-1.1c0.3-0.3,0.5-0.5,0.6-0.7c0.1-0.1,0.2-0.2,0.2-0.3c0-0.1,0.1-0.2,0.1-0.3
		c0-0.2,0-0.3-0.1-0.4c-0.1-0.1-0.2-0.1-0.4-0.1c-0.2,0-0.3,0-0.5,0.1c-0.2,0.1-0.3,0.2-0.5,0.3l-0.5-0.6c0.2-0.2,0.4-0.3,0.5-0.4
		c0.1-0.1,0.3-0.1,0.5-0.2c0.2,0,0.3-0.1,0.5-0.1c0.3,0,0.5,0,0.7,0.1c0.2,0.1,0.4,0.2,0.5,0.4c0.1,0.2,0.2,0.4,0.2,0.6
		c0,0.2,0,0.4-0.1,0.6c-0.1,0.2-0.2,0.3-0.3,0.5c-0.1,0.2-0.4,0.4-0.8,0.8l-0.5,0.5v0h1.9V24.1z"/>
	<path class="st26" d="M206.6,21.4c0.4,0,0.7,0.1,1,0.3c0.2,0.2,0.4,0.5,0.4,0.9c0,0.5-0.1,0.8-0.4,1.1c-0.3,0.3-0.7,0.4-1.3,0.4
		c-0.5,0-0.9-0.1-1.1-0.2v-0.8c0.2,0.1,0.3,0.1,0.5,0.2c0.2,0.1,0.4,0.1,0.6,0.1c0.5,0,0.8-0.2,0.8-0.7c0-0.4-0.3-0.6-0.9-0.6
		c-0.1,0-0.2,0-0.3,0c-0.1,0-0.2,0-0.3,0.1l-0.4-0.2l0.2-2.2h2.3v0.8h-1.5l-0.1,0.8l0.1,0C206.3,21.4,206.5,21.4,206.6,21.4"/>
	<path class="st26" d="M211.3,20.8c0,0.3-0.1,0.5-0.2,0.7c-0.2,0.2-0.4,0.3-0.7,0.4v0c0.3,0,0.6,0.1,0.8,0.3
		c0.2,0.2,0.3,0.4,0.3,0.7c0,0.4-0.1,0.7-0.4,1c-0.3,0.2-0.7,0.3-1.3,0.3c-0.5,0-0.9-0.1-1.2-0.2v-0.8c0.2,0.1,0.3,0.2,0.5,0.2
		c0.2,0.1,0.4,0.1,0.6,0.1c0.3,0,0.5-0.1,0.7-0.2c0.1-0.1,0.2-0.3,0.2-0.5c0-0.2-0.1-0.3-0.2-0.4c-0.2-0.1-0.4-0.1-0.8-0.1h-0.3
		v-0.7h0.3c0.3,0,0.6,0,0.7-0.1c0.2-0.1,0.2-0.2,0.2-0.4c0-0.3-0.2-0.5-0.6-0.5c-0.1,0-0.3,0-0.4,0.1c-0.1,0-0.3,0.1-0.5,0.2
		l-0.4-0.6c0.4-0.3,0.8-0.4,1.4-0.4c0.4,0,0.8,0.1,1,0.3C211.2,20.2,211.3,20.5,211.3,20.8"/>
</g>
<rect x="180.8" y="24.4" class="st0" width="30.9" height="0.3"/>
<g>
	<defs>
		<rect id="SVGID_135_" x="-27.3" y="10.8" width="407.2" height="165.8"/>
	</defs>
	<clipPath id="SVGID_136_">
		<use xlink:href="#SVGID_135_"  style="overflow:visible;"/>
	</clipPath>
</g>
<g>
	<defs>
		<rect id="SVGID_137_" x="-27.3" y="10.8" width="407.2" height="165.8"/>
	</defs>
	<clipPath id="SVGID_138_">
		<use xlink:href="#SVGID_137_"  style="overflow:visible;"/>
	</clipPath>
</g>
<g>
	<defs>
		<rect id="SVGID_139_" x="-27.3" y="10.8" width="407.2" height="165.8"/>
	</defs>
	<clipPath id="SVGID_140_">
		<use xlink:href="#SVGID_139_"  style="overflow:visible;"/>
	</clipPath>
</g>
<g>
	<path class="st27" d="M62.3,29.2h-0.7v-3.6h2v0.6h-1.3v0.9h1.2v0.6h-1.2V29.2z"/>
	<path class="st27" d="M67.2,25.6v2.3c0,0.3-0.1,0.5-0.2,0.7c-0.1,0.2-0.3,0.4-0.5,0.5s-0.5,0.2-0.8,0.2c-0.5,0-0.8-0.1-1.1-0.4
		c-0.3-0.2-0.4-0.6-0.4-1v-2.3h0.8v2.2c0,0.3,0.1,0.5,0.2,0.6s0.3,0.2,0.5,0.2c0.2,0,0.4-0.1,0.5-0.2c0.1-0.1,0.2-0.3,0.2-0.6v-2.2
		H67.2z"/>
	<path class="st27" d="M71.3,29.2h-1l-1.6-2.7h0c0,0.5,0,0.8,0,1v1.7h-0.7v-3.6h1l1.6,2.7h0c0-0.5,0-0.8,0-1v-1.7h0.7V29.2z"/>
	<path class="st27" d="M73.7,26.2c-0.3,0-0.5,0.1-0.7,0.3c-0.2,0.2-0.2,0.5-0.2,0.9c0,0.8,0.3,1.2,0.9,1.2c0.3,0,0.6-0.1,0.9-0.2
		v0.6c-0.3,0.1-0.6,0.2-1,0.2c-0.5,0-0.9-0.2-1.2-0.5C72.2,28.5,72,28,72,27.4c0-0.4,0.1-0.7,0.2-1c0.1-0.3,0.3-0.5,0.6-0.6
		c0.3-0.1,0.5-0.2,0.9-0.2c0.3,0,0.7,0.1,1,0.3l-0.2,0.6c-0.1-0.1-0.3-0.1-0.4-0.2S73.8,26.2,73.7,26.2z"/>
	<path class="st27" d="M75.4,29.2v-3.6h0.8v3.6H75.4z"/>
	<path class="st27" d="M80.3,27.4c0,0.6-0.1,1-0.4,1.4s-0.7,0.5-1.3,0.5s-1-0.2-1.3-0.5s-0.4-0.8-0.4-1.4s0.1-1,0.4-1.4
		c0.3-0.3,0.7-0.5,1.3-0.5s1,0.2,1.3,0.5C80.1,26.4,80.3,26.8,80.3,27.4z M77.7,27.4c0,0.4,0.1,0.7,0.2,0.9s0.4,0.3,0.7,0.3
		c0.6,0,0.9-0.4,0.9-1.2c0-0.8-0.3-1.2-0.9-1.2c-0.3,0-0.5,0.1-0.7,0.3C77.7,26.7,77.7,27,77.7,27.4z"/>
	<path class="st27" d="M84.2,29.2h-1l-1.6-2.7h0c0,0.5,0,0.8,0,1v1.7H81v-3.6h1l1.6,2.7h0c0-0.5,0-0.8,0-1v-1.7h0.7V29.2z"/>
	<path class="st27" d="M87.3,29.2L87,28.3h-1.3l-0.3,0.8h-0.8l1.3-3.6h0.9l1.3,3.6H87.3z M86.8,27.7c-0.2-0.8-0.4-1.2-0.4-1.3
		c0-0.1-0.1-0.2-0.1-0.2c-0.1,0.2-0.2,0.7-0.5,1.5H86.8z"/>
	<path class="st27" d="M88.5,29.2v-3.6h0.8v2.9h1.4v0.6H88.5z"/>
	<path class="st27" d="M91.3,29.2v-3.6h0.8v3.6H91.3z"/>
	<path class="st27" d="M96,27.4c0,0.6-0.2,1-0.5,1.4c-0.3,0.3-0.8,0.5-1.4,0.5h-1v-3.6h1.1c0.6,0,1,0.2,1.4,0.5S96,26.8,96,27.4z
		 M95.2,27.4c0-0.8-0.3-1.1-1-1.1h-0.4v2.3h0.3C94.8,28.6,95.2,28.2,95.2,27.4z"/>
	<path class="st27" d="M98.9,29.2l-0.3-0.8h-1.3l-0.3,0.8h-0.8l1.3-3.6h0.9l1.3,3.6H98.9z M98.4,27.7c-0.2-0.8-0.4-1.2-0.4-1.3
		c0-0.1-0.1-0.2-0.1-0.2c-0.1,0.2-0.2,0.7-0.5,1.5H98.4z"/>
	<path class="st27" d="M103.1,27.4c0,0.6-0.2,1-0.5,1.4c-0.3,0.3-0.8,0.5-1.4,0.5h-1v-3.6h1.1c0.6,0,1,0.2,1.4,0.5
		S103.1,26.8,103.1,27.4z M102.3,27.4c0-0.8-0.3-1.1-1-1.1h-0.4v2.3h0.3C102,28.6,102.3,28.2,102.3,27.4z"/>
</g>
<g>
	<path class="st1" d="M13.7,44.3l-1-3h0c0,0.4,0,0.9,0,1.2v1.7h-0.5v-3.6H13l1,2.8h0l1-2.8h0.8v3.6h-0.6v-1.8c0-0.2,0-0.4,0-0.7
		c0-0.3,0-0.5,0-0.5h0l-1.1,3H13.7z"/>
	<path class="st1" d="M19.9,42.5c0,0.6-0.1,1-0.4,1.4c-0.3,0.3-0.7,0.5-1.2,0.5c-0.5,0-1-0.2-1.2-0.5c-0.3-0.3-0.4-0.8-0.4-1.4
		s0.1-1,0.4-1.4c0.3-0.3,0.7-0.5,1.2-0.5c0.5,0,0.9,0.2,1.2,0.5S19.9,42,19.9,42.5z M17.2,42.5c0,0.4,0.1,0.8,0.3,1
		c0.2,0.2,0.4,0.3,0.8,0.3c0.3,0,0.6-0.1,0.8-0.3c0.2-0.2,0.3-0.6,0.3-1c0-0.4-0.1-0.8-0.3-1c-0.2-0.2-0.4-0.3-0.8-0.3
		c-0.4,0-0.6,0.1-0.8,0.3C17.3,41.8,17.2,42.1,17.2,42.5z"/>
	<path class="st1" d="M23.7,44.3h-0.7l-1.8-2.8h0l0,0.2c0,0.3,0,0.6,0,0.8v1.9h-0.5v-3.6h0.7l1.8,2.8h0c0,0,0-0.2,0-0.4
		c0-0.2,0-0.4,0-0.6v-1.9h0.5V44.3z"/>
	<path class="st1" d="M24.6,44.3v-3.6h0.6v3.6H24.6z"/>
	<path class="st1" d="M27.4,44.3h-0.6v-3.1h-1v-0.5h2.7v0.5h-1V44.3z"/>
	<path class="st1" d="M32.1,42.5c0,0.6-0.1,1-0.4,1.4c-0.3,0.3-0.7,0.5-1.2,0.5c-0.5,0-1-0.2-1.2-0.5c-0.3-0.3-0.4-0.8-0.4-1.4
		s0.1-1,0.4-1.4c0.3-0.3,0.7-0.5,1.2-0.5c0.5,0,0.9,0.2,1.2,0.5S32.1,42,32.1,42.5z M29.4,42.5c0,0.4,0.1,0.8,0.3,1
		c0.2,0.2,0.4,0.3,0.8,0.3c0.3,0,0.6-0.1,0.8-0.3c0.2-0.2,0.3-0.6,0.3-1c0-0.4-0.1-0.8-0.3-1c-0.2-0.2-0.4-0.3-0.8-0.3
		c-0.4,0-0.6,0.1-0.8,0.3C29.5,41.8,29.4,42.1,29.4,42.5z"/>
	<path class="st1" d="M33.5,42.9v1.4h-0.6v-3.6h1c0.5,0,0.8,0.1,1,0.3s0.3,0.4,0.3,0.8c0,0.4-0.2,0.8-0.7,0.9l1,1.6h-0.7l-0.9-1.4
		H33.5z M33.5,42.4h0.4c0.3,0,0.5-0.1,0.6-0.2s0.2-0.3,0.2-0.4c0-0.2-0.1-0.3-0.2-0.4s-0.3-0.1-0.6-0.1h-0.4V42.4z"/>
	<path class="st1" d="M38.1,44.3h-2v-3.6h2v0.5h-1.4v1H38v0.5h-1.3v1.1h1.4V44.3z"/>
	<path class="st1" d="M42.1,42.5c0,0.6-0.1,1-0.4,1.4c-0.3,0.3-0.7,0.5-1.2,0.5c-0.5,0-1-0.2-1.2-0.5c-0.3-0.3-0.4-0.8-0.4-1.4
		s0.1-1,0.4-1.4c0.3-0.3,0.7-0.5,1.2-0.5c0.5,0,0.9,0.2,1.2,0.5S42.1,42,42.1,42.5z M39.3,42.5c0,0.4,0.1,0.8,0.3,1
		c0.2,0.2,0.4,0.3,0.8,0.3c0.3,0,0.6-0.1,0.8-0.3c0.2-0.2,0.3-0.6,0.3-1c0-0.4-0.1-0.8-0.3-1c-0.2-0.2-0.4-0.3-0.8-0.3
		c-0.4,0-0.6,0.1-0.8,0.3C39.4,41.8,39.3,42.1,39.3,42.5z"/>
	<path class="st1" d="M47,42.5c0,0.6-0.2,1-0.5,1.4c-0.3,0.3-0.8,0.5-1.4,0.5h-1v-3.6h1.1c0.6,0,1,0.2,1.3,0.5S47,42,47,42.5z
		 M46.4,42.5c0-0.9-0.4-1.3-1.2-1.3h-0.5v2.6h0.4C46,43.8,46.4,43.4,46.4,42.5z"/>
	<path class="st1" d="M49.8,44.3h-2v-3.6h2v0.5h-1.4v1h1.3v0.5h-1.3v1.1h1.4V44.3z"/>
	<path class="st1" d="M50.6,44.3v-3.6h0.6v3.1h1.5v0.5H50.6z"/>
	<path class="st1" d="M55.2,44.3h-0.6v-3.6h2v0.5h-1.4v1.1h1.3v0.5h-1.3V44.3z"/>
	<path class="st1" d="M57.2,44.3v-3.6h0.6v3.1h1.5v0.5H57.2z"/>
	<path class="st1" d="M62.8,40.8v2.3c0,0.3-0.1,0.5-0.2,0.7c-0.1,0.2-0.3,0.3-0.5,0.5c-0.2,0.1-0.5,0.2-0.8,0.2
		c-0.4,0-0.8-0.1-1-0.4s-0.4-0.6-0.4-1v-2.3h0.6V43c0,0.3,0.1,0.5,0.2,0.7s0.3,0.2,0.6,0.2c0.6,0,0.8-0.3,0.8-0.9v-2.3H62.8z"/>
	<path class="st1" d="M63.2,45.3c-0.2,0-0.3,0-0.4-0.1v-0.5c0.1,0,0.3,0.1,0.4,0.1c0.3,0,0.5-0.2,0.5-0.6v-3.5h0.6v3.4
		c0,0.4-0.1,0.6-0.3,0.8C63.8,45.2,63.5,45.3,63.2,45.3z"/>
	<path class="st1" d="M68.3,42.5c0,0.6-0.1,1-0.4,1.4c-0.3,0.3-0.7,0.5-1.2,0.5c-0.5,0-1-0.2-1.2-0.5c-0.3-0.3-0.4-0.8-0.4-1.4
		s0.1-1,0.4-1.4c0.3-0.3,0.7-0.5,1.2-0.5c0.5,0,0.9,0.2,1.2,0.5S68.3,42,68.3,42.5z M65.6,42.5c0,0.4,0.1,0.8,0.3,1
		c0.2,0.2,0.4,0.3,0.8,0.3c0.3,0,0.6-0.1,0.8-0.3c0.2-0.2,0.3-0.6,0.3-1c0-0.4-0.1-0.8-0.3-1c-0.2-0.2-0.4-0.3-0.8-0.3
		c-0.4,0-0.6,0.1-0.8,0.3C65.7,41.8,65.6,42.1,65.6,42.5z"/>
	<path class="st1" d="M73.3,42.5c0,0.6-0.2,1-0.5,1.4c-0.3,0.3-0.8,0.5-1.4,0.5h-1v-3.6h1.1c0.6,0,1,0.2,1.3,0.5S73.3,42,73.3,42.5z
		 M72.7,42.5c0-0.9-0.4-1.3-1.2-1.3H71v2.6h0.4C72.3,43.8,72.7,43.4,72.7,42.5z"/>
	<path class="st1" d="M76.1,44.3h-2v-3.6h2v0.5h-1.4v1H76v0.5h-1.3v1.1h1.4V44.3z"/>
	<path class="st1" d="M80.5,41.8c0,0.4-0.1,0.7-0.4,0.9s-0.6,0.3-1,0.3h-0.4v1.3h-0.6v-3.6h1c0.4,0,0.8,0.1,1,0.3
		C80.4,41.2,80.5,41.5,80.5,41.8z M78.7,42.5H79c0.3,0,0.5-0.1,0.7-0.2s0.2-0.3,0.2-0.5c0-0.2-0.1-0.4-0.2-0.5s-0.3-0.2-0.6-0.2
		h-0.4V42.5z"/>
	<path class="st1" d="M83.2,44.3h-2v-3.6h2v0.5h-1.4v1h1.3v0.5h-1.3v1.1h1.4V44.3z"/>
	<path class="st1" d="M84.6,42.9v1.4H84v-3.6h1c0.5,0,0.8,0.1,1,0.3s0.3,0.4,0.3,0.8c0,0.4-0.2,0.8-0.7,0.9l1,1.6H86l-0.9-1.4H84.6z
		 M84.6,42.4H85c0.3,0,0.5-0.1,0.6-0.2s0.2-0.3,0.2-0.4c0-0.2-0.1-0.3-0.2-0.4s-0.3-0.1-0.6-0.1h-0.4V42.4z"/>
	<path class="st1" d="M89.3,43.4c0,0.3-0.1,0.6-0.3,0.7s-0.5,0.3-0.9,0.3s-0.7-0.1-1-0.2v-0.6c0.2,0.1,0.3,0.1,0.5,0.2
		c0.2,0,0.4,0.1,0.5,0.1c0.2,0,0.4,0,0.5-0.1c0.1-0.1,0.2-0.2,0.2-0.4c0-0.1-0.1-0.2-0.2-0.3s-0.3-0.2-0.6-0.3
		c-0.3-0.1-0.6-0.3-0.7-0.5S87,41.9,87,41.7c0-0.3,0.1-0.5,0.3-0.7s0.5-0.3,0.9-0.3c0.3,0,0.7,0.1,1,0.2L89,41.4
		c-0.3-0.1-0.6-0.2-0.8-0.2c-0.2,0-0.3,0-0.4,0.1c-0.1,0.1-0.1,0.2-0.1,0.3c0,0.1,0,0.2,0.1,0.2c0,0.1,0.1,0.1,0.2,0.2
		s0.3,0.1,0.5,0.2c0.3,0.1,0.5,0.2,0.6,0.3s0.2,0.2,0.3,0.3S89.3,43.2,89.3,43.4z"/>
	<path class="st1" d="M93.1,42.5c0,0.6-0.1,1-0.4,1.4c-0.3,0.3-0.7,0.5-1.2,0.5c-0.5,0-1-0.2-1.2-0.5c-0.3-0.3-0.4-0.8-0.4-1.4
		s0.1-1,0.4-1.4c0.3-0.3,0.7-0.5,1.2-0.5c0.5,0,0.9,0.2,1.2,0.5S93.1,42,93.1,42.5z M90.4,42.5c0,0.4,0.1,0.8,0.3,1
		c0.2,0.2,0.4,0.3,0.8,0.3c0.3,0,0.6-0.1,0.8-0.3c0.2-0.2,0.3-0.6,0.3-1c0-0.4-0.1-0.8-0.3-1c-0.2-0.2-0.4-0.3-0.8-0.3
		c-0.4,0-0.6,0.1-0.8,0.3C90.5,41.8,90.4,42.1,90.4,42.5z"/>
	<path class="st1" d="M96.9,44.3h-0.7l-1.8-2.8h0l0,0.2c0,0.3,0,0.6,0,0.8v1.9h-0.5v-3.6h0.7l1.8,2.8h0c0,0,0-0.2,0-0.4
		c0-0.2,0-0.4,0-0.6v-1.9h0.5V44.3z"/>
	<path class="st1" d="M100,44.3l-0.4-1h-1.4l-0.3,1h-0.6l1.3-3.6h0.6l1.3,3.6H100z M99.5,42.8l-0.3-1c0-0.1-0.1-0.2-0.1-0.3
		c0-0.1-0.1-0.2-0.1-0.3c0,0.2-0.1,0.4-0.2,0.7l-0.3,0.9H99.5z"/>
	<path class="st1" d="M103.2,43.4c0,0.3-0.1,0.6-0.3,0.7s-0.5,0.3-0.9,0.3s-0.7-0.1-1-0.2v-0.6c0.2,0.1,0.3,0.1,0.5,0.2
		c0.2,0,0.4,0.1,0.5,0.1c0.2,0,0.4,0,0.5-0.1c0.1-0.1,0.2-0.2,0.2-0.4c0-0.1-0.1-0.2-0.2-0.3s-0.3-0.2-0.6-0.3
		c-0.3-0.1-0.6-0.3-0.7-0.5s-0.2-0.4-0.2-0.6c0-0.3,0.1-0.5,0.3-0.7s0.5-0.3,0.9-0.3c0.3,0,0.7,0.1,1,0.2l-0.2,0.5
		c-0.3-0.1-0.6-0.2-0.8-0.2c-0.2,0-0.3,0-0.4,0.1c-0.1,0.1-0.1,0.2-0.1,0.3c0,0.1,0,0.2,0.1,0.2c0,0.1,0.1,0.1,0.2,0.2
		s0.3,0.1,0.5,0.2c0.3,0.1,0.5,0.2,0.6,0.3s0.2,0.2,0.3,0.3S103.2,43.2,103.2,43.4z"/>
</g>
<g>
	<path class="st2" d="M69.5,56.5h-0.6v-3.1h-1v-0.5h2.7v0.5h-1V56.5z"/>
	<path class="st2" d="M73.1,56.5h-2v-3.6h2v0.5h-1.4v1H73v0.5h-1.3V56h1.4V56.5z"/>
	<path class="st2" d="M73.9,56.5v-3.6h0.6V56H76v0.5H73.9z"/>
	<path class="st2" d="M78.6,56.5h-2v-3.6h2v0.5h-1.4v1h1.3v0.5h-1.3V56h1.4V56.5z"/>
	<path class="st2" d="M80.9,56.5l-1-3h0c0,0.4,0,0.9,0,1.2v1.7h-0.5v-3.6h0.8l1,2.8h0l1-2.8H83v3.6h-0.6v-1.8c0-0.2,0-0.4,0-0.7
		c0-0.3,0-0.5,0-0.5h0l-1.1,3H80.9z"/>
	<path class="st2" d="M86,56.5h-2v-3.6h2v0.5h-1.4v1h1.3v0.5h-1.3V56H86V56.5z"/>
	<path class="st2" d="M89.7,54.7c0,0.6-0.2,1-0.5,1.4c-0.3,0.3-0.8,0.5-1.4,0.5h-1v-3.6h1.1c0.6,0,1,0.2,1.3,0.5
		S89.7,54.1,89.7,54.7z M89,54.7c0-0.9-0.4-1.3-1.2-1.3h-0.5V56h0.4C88.6,56,89,55.6,89,54.7z"/>
	<path class="st2" d="M90.4,56.5v-3.6H91v3.6H90.4z"/>
	<path class="st2" d="M93.5,53.4c-0.3,0-0.6,0.1-0.8,0.4s-0.3,0.6-0.3,1c0,0.4,0.1,0.8,0.3,1c0.2,0.2,0.5,0.3,0.8,0.3
		c0.2,0,0.3,0,0.4,0c0.1,0,0.3-0.1,0.4-0.1v0.5c-0.3,0.1-0.6,0.2-1,0.2c-0.5,0-0.9-0.2-1.2-0.5c-0.3-0.3-0.4-0.8-0.4-1.4
		c0-0.4,0.1-0.7,0.2-1c0.1-0.3,0.3-0.5,0.6-0.6s0.6-0.2,0.9-0.2c0.4,0,0.7,0.1,1,0.2l-0.2,0.5c-0.1-0.1-0.2-0.1-0.4-0.2
		C93.8,53.4,93.6,53.4,93.5,53.4z"/>
	<path class="st2" d="M95.1,56.5v-3.6h0.6v3.6H95.1z"/>
	<path class="st2" d="M99.6,56.5h-0.7l-1.8-2.8h0l0,0.2c0,0.3,0,0.6,0,0.8v1.9h-0.5v-3.6h0.7l1.8,2.8h0c0,0,0-0.2,0-0.4
		c0-0.2,0-0.4,0-0.6v-1.9h0.5V56.5z"/>
	<path class="st2" d="M102.8,56.5l-0.4-1h-1.4l-0.3,1h-0.6l1.3-3.6h0.6l1.3,3.6H102.8z M102.3,55l-0.3-1c0-0.1-0.1-0.2-0.1-0.3
		c0-0.1-0.1-0.2-0.1-0.3c0,0.2-0.1,0.4-0.2,0.7l-0.3,0.9H102.3z"/>
</g>
<g>
	<path class="st3" d="M41.6,68.6h-0.6v-3.1h-1v-0.5h2.7v0.5h-1V68.6z"/>
	<path class="st3" d="M45.3,68.6h-2v-3.6h2v0.5h-1.4v1h1.3V67h-1.3v1.1h1.4V68.6z"/>
	<path class="st3" d="M47.6,68.6l-1-3h0c0,0.4,0,0.9,0,1.2v1.7H46v-3.6h0.8l1,2.8h0l1-2.8h0.8v3.6h-0.6v-1.8c0-0.2,0-0.4,0-0.7
		c0-0.3,0-0.5,0-0.5h0l-1.1,3H47.6z"/>
	<path class="st3" d="M53,66.2c0,0.4-0.1,0.7-0.4,0.9s-0.6,0.3-1,0.3h-0.4v1.3h-0.6v-3.6h1c0.4,0,0.8,0.1,1,0.3
		C52.9,65.5,53,65.8,53,66.2z M51.2,66.8h0.3c0.3,0,0.5-0.1,0.7-0.2s0.2-0.3,0.2-0.5c0-0.2-0.1-0.4-0.2-0.5s-0.3-0.2-0.6-0.2h-0.4
		V66.8z"/>
	<path class="st3" d="M55.7,68.6h-2v-3.6h2v0.5h-1.4v1h1.3V67h-1.3v1.1h1.4V68.6z"/>
	<path class="st3" d="M57.1,67.2v1.4h-0.6v-3.6h1c0.5,0,0.8,0.1,1,0.3s0.3,0.4,0.3,0.8c0,0.4-0.2,0.8-0.7,0.9l1,1.6h-0.7l-0.9-1.4
		H57.1z M57.1,66.7h0.4c0.3,0,0.5-0.1,0.6-0.2s0.2-0.3,0.2-0.4c0-0.2-0.1-0.3-0.2-0.4s-0.3-0.1-0.6-0.1h-0.4V66.7z"/>
	<path class="st3" d="M61.9,68.6l-0.4-1h-1.4l-0.3,1h-0.6l1.3-3.6h0.6l1.3,3.6H61.9z M61.4,67.2l-0.3-1c0-0.1-0.1-0.2-0.1-0.3
		c0-0.1-0.1-0.2-0.1-0.3c0,0.2-0.1,0.4-0.2,0.7l-0.3,0.9H61.4z"/>
	<path class="st3" d="M64.2,68.6h-0.6v-3.1h-1v-0.5h2.7v0.5h-1V68.6z"/>
	<path class="st3" d="M68.6,65.1v2.3c0,0.3-0.1,0.5-0.2,0.7c-0.1,0.2-0.3,0.3-0.5,0.5c-0.2,0.1-0.5,0.2-0.8,0.2
		c-0.4,0-0.8-0.1-1-0.4s-0.4-0.6-0.4-1v-2.3h0.6v2.3c0,0.3,0.1,0.5,0.2,0.7s0.3,0.2,0.6,0.2c0.6,0,0.8-0.3,0.8-0.9v-2.3H68.6z"/>
	<path class="st3" d="M70.1,67.2v1.4h-0.6v-3.6h1c0.5,0,0.8,0.1,1,0.3s0.3,0.4,0.3,0.8c0,0.4-0.2,0.8-0.7,0.9l1,1.6h-0.7l-0.9-1.4
		H70.1z M70.1,66.7h0.4c0.3,0,0.5-0.1,0.6-0.2s0.2-0.3,0.2-0.4c0-0.2-0.1-0.3-0.2-0.4s-0.3-0.1-0.6-0.1h-0.4V66.7z"/>
	<path class="st3" d="M75,68.6l-0.4-1h-1.4l-0.3,1h-0.6l1.3-3.6h0.6l1.3,3.6H75z M74.4,67.2l-0.3-1c0-0.1-0.1-0.2-0.1-0.3
		c0-0.1-0.1-0.2-0.1-0.3c0,0.2-0.1,0.4-0.2,0.7l-0.3,0.9H74.4z"/>
	<path class="st3" d="M78.9,65.5c-0.3,0-0.6,0.1-0.8,0.4s-0.3,0.6-0.3,1c0,0.4,0.1,0.8,0.3,1c0.2,0.2,0.5,0.3,0.8,0.3
		c0.2,0,0.3,0,0.4,0c0.1,0,0.3-0.1,0.4-0.1v0.5c-0.3,0.1-0.6,0.2-1,0.2c-0.5,0-0.9-0.2-1.2-0.5c-0.3-0.3-0.4-0.8-0.4-1.4
		c0-0.4,0.1-0.7,0.2-1c0.1-0.3,0.3-0.5,0.6-0.6s0.6-0.2,0.9-0.2c0.4,0,0.7,0.1,1,0.2l-0.2,0.5c-0.1-0.1-0.2-0.1-0.4-0.2
		C79.2,65.5,79,65.5,78.9,65.5z"/>
	<path class="st3" d="M83.7,66.9c0,0.6-0.1,1-0.4,1.4c-0.3,0.3-0.7,0.5-1.2,0.5c-0.5,0-1-0.2-1.2-0.5c-0.3-0.3-0.4-0.8-0.4-1.4
		s0.1-1,0.4-1.4c0.3-0.3,0.7-0.5,1.2-0.5c0.5,0,0.9,0.2,1.2,0.5S83.7,66.3,83.7,66.9z M81,66.9c0,0.4,0.1,0.8,0.3,1
		c0.2,0.2,0.4,0.3,0.8,0.3c0.3,0,0.6-0.1,0.8-0.3c0.2-0.2,0.3-0.6,0.3-1c0-0.4-0.1-0.8-0.3-1c-0.2-0.2-0.4-0.3-0.8-0.3
		c-0.4,0-0.6,0.1-0.8,0.3C81.1,66.1,81,66.4,81,66.9z"/>
	<path class="st3" d="M85,67.2v1.4h-0.6v-3.6h1c0.5,0,0.8,0.1,1,0.3s0.3,0.4,0.3,0.8c0,0.4-0.2,0.8-0.7,0.9l1,1.6h-0.7l-0.9-1.4H85z
		 M85,66.7h0.4c0.3,0,0.5-0.1,0.6-0.2s0.2-0.3,0.2-0.4c0-0.2-0.1-0.3-0.2-0.4s-0.3-0.1-0.6-0.1H85V66.7z"/>
	<path class="st3" d="M90,66.2c0,0.4-0.1,0.7-0.4,0.9s-0.6,0.3-1,0.3h-0.4v1.3h-0.6v-3.6h1c0.4,0,0.8,0.1,1,0.3
		C89.9,65.5,90,65.8,90,66.2z M88.2,66.8h0.3c0.3,0,0.5-0.1,0.7-0.2s0.2-0.3,0.2-0.5c0-0.2-0.1-0.4-0.2-0.5s-0.3-0.2-0.6-0.2h-0.4
		V66.8z"/>
	<path class="st3" d="M93.9,66.9c0,0.6-0.1,1-0.4,1.4c-0.3,0.3-0.7,0.5-1.2,0.5c-0.5,0-1-0.2-1.2-0.5c-0.3-0.3-0.4-0.8-0.4-1.4
		s0.1-1,0.4-1.4c0.3-0.3,0.7-0.5,1.2-0.5c0.5,0,0.9,0.2,1.2,0.5S93.9,66.3,93.9,66.9z M91.2,66.9c0,0.4,0.1,0.8,0.3,1
		c0.2,0.2,0.4,0.3,0.8,0.3c0.3,0,0.6-0.1,0.8-0.3c0.2-0.2,0.3-0.6,0.3-1c0-0.4-0.1-0.8-0.3-1c-0.2-0.2-0.4-0.3-0.8-0.3
		c-0.4,0-0.6,0.1-0.8,0.3C91.3,66.1,91.2,66.4,91.2,66.9z"/>
	<path class="st3" d="M95.2,67.2v1.4h-0.6v-3.6h1c0.5,0,0.8,0.1,1,0.3s0.3,0.4,0.3,0.8c0,0.4-0.2,0.8-0.7,0.9l1,1.6h-0.7l-0.9-1.4
		H95.2z M95.2,66.7h0.4c0.3,0,0.5-0.1,0.6-0.2s0.2-0.3,0.2-0.4c0-0.2-0.1-0.3-0.2-0.4s-0.3-0.1-0.6-0.1h-0.4V66.7z"/>
	<path class="st3" d="M100.1,68.6l-0.4-1h-1.4l-0.3,1h-0.6l1.3-3.6h0.6l1.3,3.6H100.1z M99.6,67.2l-0.3-1c0-0.1-0.1-0.2-0.1-0.3
		c0-0.1-0.1-0.2-0.1-0.3c0,0.2-0.1,0.4-0.2,0.7l-0.3,0.9H99.6z"/>
	<path class="st3" d="M101.2,68.6v-3.6h0.6v3.1h1.5v0.5H101.2z"/>
</g>
<g>
	<path class="st4" d="M42.6,80.6h-2V77h2v0.5h-1.4v1h1.3V79h-1.3v1.1h1.4V80.6z"/>
	<path class="st4" d="M45.4,77H46l-1.2,3.6h-0.6L42.9,77h0.6l0.7,2.2c0,0.1,0.1,0.2,0.1,0.4c0,0.2,0.1,0.3,0.1,0.4
		c0-0.1,0.1-0.3,0.1-0.4s0.1-0.3,0.1-0.4L45.4,77z"/>
	<path class="st4" d="M49.6,78.8c0,0.6-0.1,1-0.4,1.4c-0.3,0.3-0.7,0.5-1.2,0.5c-0.5,0-1-0.2-1.2-0.5c-0.3-0.3-0.4-0.8-0.4-1.4
		s0.1-1,0.4-1.4C47,77.1,47.4,77,48,77c0.5,0,0.9,0.2,1.2,0.5S49.6,78.2,49.6,78.8z M46.9,78.8c0,0.4,0.1,0.8,0.3,1
		c0.2,0.2,0.4,0.3,0.8,0.3c0.3,0,0.6-0.1,0.8-0.3c0.2-0.2,0.3-0.6,0.3-1c0-0.4-0.1-0.8-0.3-1c-0.2-0.2-0.4-0.3-0.8-0.3
		c-0.4,0-0.6,0.1-0.8,0.3C47,78,46.9,78.4,46.9,78.8z"/>
	<path class="st4" d="M50.4,80.6V77H51v3.1h1.5v0.5H50.4z"/>
	<path class="st4" d="M55.9,77v2.3c0,0.3-0.1,0.5-0.2,0.7c-0.1,0.2-0.3,0.3-0.5,0.5c-0.2,0.1-0.5,0.2-0.8,0.2c-0.4,0-0.8-0.1-1-0.4
		s-0.4-0.6-0.4-1V77h0.6v2.3c0,0.3,0.1,0.5,0.2,0.7s0.3,0.2,0.6,0.2c0.6,0,0.8-0.3,0.8-0.9V77H55.9z"/>
	<path class="st4" d="M58.4,77.5c-0.3,0-0.6,0.1-0.8,0.4s-0.3,0.6-0.3,1c0,0.4,0.1,0.8,0.3,1c0.2,0.2,0.5,0.3,0.8,0.3
		c0.2,0,0.3,0,0.4,0c0.1,0,0.3-0.1,0.4-0.1v0.5c-0.3,0.1-0.6,0.2-1,0.2c-0.5,0-0.9-0.2-1.2-0.5c-0.3-0.3-0.4-0.8-0.4-1.4
		c0-0.4,0.1-0.7,0.2-1c0.1-0.3,0.3-0.5,0.6-0.6S58,77,58.4,77c0.4,0,0.7,0.1,1,0.2l-0.2,0.5c-0.1-0.1-0.2-0.1-0.4-0.2
		C58.6,77.5,58.5,77.5,58.4,77.5z"/>
	<path class="st4" d="M60,80.6V77h0.6v3.6H60z"/>
	<path class="st4" d="M64.7,78.8c0,0.6-0.1,1-0.4,1.4c-0.3,0.3-0.7,0.5-1.2,0.5c-0.5,0-1-0.2-1.2-0.5c-0.3-0.3-0.4-0.8-0.4-1.4
		s0.1-1,0.4-1.4c0.3-0.3,0.7-0.5,1.2-0.5c0.5,0,0.9,0.2,1.2,0.5S64.7,78.2,64.7,78.8z M62,78.8c0,0.4,0.1,0.8,0.3,1
		c0.2,0.2,0.4,0.3,0.8,0.3c0.3,0,0.6-0.1,0.8-0.3c0.2-0.2,0.3-0.6,0.3-1c0-0.4-0.1-0.8-0.3-1c-0.2-0.2-0.4-0.3-0.8-0.3
		c-0.4,0-0.6,0.1-0.8,0.3C62.1,78,62,78.4,62,78.8z M62.7,76.7L62.7,76.7c0.1-0.2,0.2-0.3,0.3-0.4c0.1-0.1,0.2-0.3,0.2-0.4h0.7V76
		c-0.1,0.1-0.2,0.2-0.4,0.4c-0.2,0.2-0.3,0.3-0.4,0.4H62.7z"/>
	<path class="st4" d="M68.4,80.6h-0.7L66,77.8h0l0,0.2c0,0.3,0,0.6,0,0.8v1.9h-0.5V77h0.7l1.8,2.8h0c0,0,0-0.2,0-0.4
		c0-0.2,0-0.4,0-0.6V77h0.5V80.6z"/>
	<path class="st4" d="M73.6,78.8c0,0.6-0.2,1-0.5,1.4c-0.3,0.3-0.8,0.5-1.4,0.5h-1V77h1.1c0.6,0,1,0.2,1.3,0.5S73.6,78.2,73.6,78.8z
		 M73,78.8c0-0.9-0.4-1.3-1.2-1.3h-0.5v2.6h0.4C72.5,80.1,73,79.7,73,78.8z"/>
	<path class="st4" d="M76.4,80.6h-2V77h2v0.5h-1.4v1h1.3V79h-1.3v1.1h1.4V80.6z"/>
	<path class="st4" d="M77.1,80.6V77h0.6v3.1h1.5v0.5H77.1z"/>
	<path class="st4" d="M82.7,77.5c-0.3,0-0.6,0.1-0.8,0.4s-0.3,0.6-0.3,1c0,0.4,0.1,0.8,0.3,1c0.2,0.2,0.5,0.3,0.8,0.3
		c0.2,0,0.3,0,0.4,0c0.1,0,0.3-0.1,0.4-0.1v0.5c-0.3,0.1-0.6,0.2-1,0.2c-0.5,0-0.9-0.2-1.2-0.5c-0.3-0.3-0.4-0.8-0.4-1.4
		c0-0.4,0.1-0.7,0.2-1c0.1-0.3,0.3-0.5,0.6-0.6s0.6-0.2,0.9-0.2c0.4,0,0.7,0.1,1,0.2l-0.2,0.5c-0.1-0.1-0.2-0.1-0.4-0.2
		C83,77.5,82.8,77.5,82.7,77.5z"/>
	<path class="st4" d="M87.5,78.8c0,0.6-0.1,1-0.4,1.4c-0.3,0.3-0.7,0.5-1.2,0.5c-0.5,0-1-0.2-1.2-0.5c-0.3-0.3-0.4-0.8-0.4-1.4
		s0.1-1,0.4-1.4c0.3-0.3,0.7-0.5,1.2-0.5c0.5,0,0.9,0.2,1.2,0.5S87.5,78.2,87.5,78.8z M84.8,78.8c0,0.4,0.1,0.8,0.3,1
		c0.2,0.2,0.4,0.3,0.8,0.3c0.3,0,0.6-0.1,0.8-0.3c0.2-0.2,0.3-0.6,0.3-1c0-0.4-0.1-0.8-0.3-1c-0.2-0.2-0.4-0.3-0.8-0.3
		c-0.4,0-0.6,0.1-0.8,0.3C84.8,78,84.8,78.4,84.8,78.8z"/>
	<path class="st4" d="M90.3,77h0.6l-1.2,3.6H89L87.8,77h0.6l0.7,2.2c0,0.1,0.1,0.2,0.1,0.4c0,0.2,0.1,0.3,0.1,0.4
		c0-0.1,0.1-0.3,0.1-0.4s0.1-0.3,0.1-0.4L90.3,77z"/>
	<path class="st4" d="M91.4,80.6V77h0.6v3.6H91.4z"/>
	<path class="st4" d="M95.8,78.8c0,0.6-0.2,1-0.5,1.4c-0.3,0.3-0.8,0.5-1.4,0.5h-1V77H94c0.6,0,1,0.2,1.3,0.5S95.8,78.2,95.8,78.8z
		 M95.2,78.8c0-0.9-0.4-1.3-1.2-1.3h-0.5v2.6h0.4C94.7,80.1,95.2,79.7,95.2,78.8z"/>
	<path class="st4" d="M96.3,79.5V79h1.3v0.5H96.3z"/>
	<path class="st4" d="M99.6,80.6H99v-2.3c0-0.3,0-0.5,0-0.7c0,0-0.1,0.1-0.1,0.1c-0.1,0-0.2,0.2-0.5,0.4l-0.3-0.4l1-0.8h0.5V80.6z"
		/>
	<path class="st4" d="M103.2,78.5c0,0.7-0.1,1.2-0.4,1.6s-0.7,0.5-1.3,0.5c-0.2,0-0.4,0-0.5,0v-0.5c0.1,0,0.3,0.1,0.4,0.1
		c0.4,0,0.7-0.1,0.9-0.3s0.3-0.5,0.3-1h0c-0.1,0.1-0.2,0.3-0.3,0.3c-0.1,0.1-0.3,0.1-0.5,0.1c-0.3,0-0.6-0.1-0.7-0.3
		s-0.3-0.5-0.3-0.8c0-0.4,0.1-0.7,0.3-0.9c0.2-0.2,0.5-0.3,0.9-0.3c0.3,0,0.5,0.1,0.7,0.2s0.3,0.3,0.4,0.5
		C103.1,77.9,103.2,78.2,103.2,78.5z M101.9,77.5c-0.2,0-0.4,0.1-0.5,0.2c-0.1,0.1-0.2,0.3-0.2,0.5c0,0.2,0,0.4,0.1,0.5
		c0.1,0.1,0.2,0.2,0.4,0.2c0.2,0,0.4-0.1,0.5-0.2s0.2-0.3,0.2-0.4c0-0.1,0-0.3-0.1-0.4c-0.1-0.1-0.1-0.2-0.2-0.3
		S102.1,77.5,101.9,77.5z"/>
</g>
<g>
	<path class="st5" d="M43.6,91.1v1.4H43V89h1c0.5,0,0.8,0.1,1,0.3s0.3,0.4,0.3,0.8c0,0.4-0.2,0.8-0.7,0.9l1,1.6H45l-0.9-1.4H43.6z
		 M43.6,90.6H44c0.3,0,0.5-0.1,0.6-0.2s0.2-0.3,0.2-0.4c0-0.2-0.1-0.3-0.2-0.4s-0.3-0.1-0.6-0.1h-0.4V90.6z"/>
	<path class="st5" d="M48.4,92.5l-0.4-1h-1.4l-0.3,1h-0.6L47,89h0.6l1.3,3.6H48.4z M47.9,91l-0.3-1c0-0.1-0.1-0.2-0.1-0.3
		c0-0.1-0.1-0.2-0.1-0.3c0,0.2-0.1,0.4-0.2,0.7L46.8,91H47.9z"/>
	<path class="st5" d="M51.5,91.6c0,0.3-0.1,0.6-0.3,0.7s-0.5,0.3-0.9,0.3s-0.7-0.1-1-0.2v-0.6c0.2,0.1,0.3,0.1,0.5,0.2
		c0.2,0,0.4,0.1,0.5,0.1c0.2,0,0.4,0,0.5-0.1c0.1-0.1,0.2-0.2,0.2-0.4c0-0.1-0.1-0.2-0.2-0.3s-0.3-0.2-0.6-0.3
		c-0.3-0.1-0.6-0.3-0.7-0.5s-0.2-0.4-0.2-0.6c0-0.3,0.1-0.5,0.3-0.7s0.5-0.3,0.9-0.3c0.3,0,0.7,0.1,1,0.2l-0.2,0.5
		c-0.3-0.1-0.6-0.2-0.8-0.2c-0.2,0-0.3,0-0.4,0.1c-0.1,0.1-0.1,0.2-0.1,0.3c0,0.1,0,0.2,0.1,0.2c0,0.1,0.1,0.1,0.2,0.2
		s0.3,0.1,0.5,0.2c0.3,0.1,0.5,0.2,0.6,0.3s0.2,0.2,0.3,0.3S51.5,91.4,51.5,91.6z"/>
	<path class="st5" d="M53.5,92.5h-0.6v-3.1h-1V89h2.7v0.5h-1V92.5z"/>
	<path class="st5" d="M55.6,91.1v1.4h-0.6V89h1c0.5,0,0.8,0.1,1,0.3s0.3,0.4,0.3,0.8c0,0.4-0.2,0.8-0.7,0.9l1,1.6h-0.7l-0.9-1.4
		H55.6z M55.6,90.6H56c0.3,0,0.5-0.1,0.6-0.2s0.2-0.3,0.2-0.4c0-0.2-0.1-0.3-0.2-0.4s-0.3-0.1-0.6-0.1h-0.4V90.6z"/>
	<path class="st5" d="M60.3,92.5h-2V89h2v0.5h-1.4v1h1.3v0.5h-1.3V92h1.4V92.5z"/>
	<path class="st5" d="M64.2,90.8c0,0.6-0.1,1-0.4,1.4c-0.3,0.3-0.7,0.5-1.2,0.5c-0.5,0-1-0.2-1.2-0.5c-0.3-0.3-0.4-0.8-0.4-1.4
		s0.1-1,0.4-1.4c0.3-0.3,0.7-0.5,1.2-0.5c0.5,0,0.9,0.2,1.2,0.5S64.2,90.2,64.2,90.8z M61.5,90.8c0,0.4,0.1,0.8,0.3,1
		c0.2,0.2,0.4,0.3,0.8,0.3c0.3,0,0.6-0.1,0.8-0.3c0.2-0.2,0.3-0.6,0.3-1c0-0.4-0.1-0.8-0.3-1c-0.2-0.2-0.4-0.3-0.8-0.3
		c-0.4,0-0.6,0.1-0.8,0.3C61.6,90,61.5,90.3,61.5,90.8z"/>
	<path class="st5" d="M69.2,90.7c0,0.6-0.2,1-0.5,1.4c-0.3,0.3-0.8,0.5-1.4,0.5h-1V89h1.1c0.6,0,1,0.2,1.3,0.5S69.2,90.2,69.2,90.7z
		 M68.6,90.7c0-0.9-0.4-1.3-1.2-1.3h-0.5v2.6h0.4C68.1,92.1,68.6,91.6,68.6,90.7z"/>
	<path class="st5" d="M72,92.5h-2V89h2v0.5h-1.4v1h1.3v0.5h-1.3V92H72V92.5z"/>
	<path class="st5" d="M75.6,89.4c-0.3,0-0.6,0.1-0.8,0.4s-0.3,0.6-0.3,1c0,0.4,0.1,0.8,0.3,1c0.2,0.2,0.5,0.3,0.8,0.3
		c0.2,0,0.3,0,0.4,0c0.1,0,0.3-0.1,0.4-0.1v0.5c-0.3,0.1-0.6,0.2-1,0.2c-0.5,0-0.9-0.2-1.2-0.5c-0.3-0.3-0.4-0.8-0.4-1.4
		c0-0.4,0.1-0.7,0.2-1c0.1-0.3,0.3-0.5,0.6-0.6s0.6-0.2,0.9-0.2c0.4,0,0.7,0.1,1,0.2l-0.2,0.5c-0.1-0.1-0.2-0.1-0.4-0.2
		C75.8,89.4,75.7,89.4,75.6,89.4z"/>
	<path class="st5" d="M80.4,90.8c0,0.6-0.1,1-0.4,1.4c-0.3,0.3-0.7,0.5-1.2,0.5c-0.5,0-1-0.2-1.2-0.5c-0.3-0.3-0.4-0.8-0.4-1.4
		s0.1-1,0.4-1.4c0.3-0.3,0.7-0.5,1.2-0.5c0.5,0,0.9,0.2,1.2,0.5S80.4,90.2,80.4,90.8z M77.6,90.8c0,0.4,0.1,0.8,0.3,1
		c0.2,0.2,0.4,0.3,0.8,0.3c0.3,0,0.6-0.1,0.8-0.3c0.2-0.2,0.3-0.6,0.3-1c0-0.4-0.1-0.8-0.3-1c-0.2-0.2-0.4-0.3-0.8-0.3
		c-0.4,0-0.6,0.1-0.8,0.3C77.7,90,77.6,90.3,77.6,90.8z"/>
	<path class="st5" d="M84.1,92.5h-0.7l-1.8-2.8h0l0,0.2c0,0.3,0,0.6,0,0.8v1.9h-0.5V89h0.7l1.8,2.8h0c0,0,0-0.2,0-0.4
		c0-0.2,0-0.4,0-0.6V89h0.5V92.5z"/>
	<path class="st5" d="M86.3,92.5h-0.6v-3.1h-1V89h2.7v0.5h-1V92.5z"/>
	<path class="st5" d="M90.1,92.5l-0.4-1h-1.4l-0.3,1h-0.6l1.3-3.6h0.6l1.3,3.6H90.1z M89.6,91l-0.3-1c0-0.1-0.1-0.2-0.1-0.3
		c0-0.1-0.1-0.2-0.1-0.3c0,0.2-0.1,0.4-0.2,0.7L88.5,91H89.6z"/>
	<path class="st5" d="M92.7,89.4c-0.3,0-0.6,0.1-0.8,0.4s-0.3,0.6-0.3,1c0,0.4,0.1,0.8,0.3,1c0.2,0.2,0.5,0.3,0.8,0.3
		c0.2,0,0.3,0,0.4,0c0.1,0,0.3-0.1,0.4-0.1v0.5c-0.3,0.1-0.6,0.2-1,0.2c-0.5,0-0.9-0.2-1.2-0.5c-0.3-0.3-0.4-0.8-0.4-1.4
		c0-0.4,0.1-0.7,0.2-1c0.1-0.3,0.3-0.5,0.6-0.6s0.6-0.2,0.9-0.2c0.4,0,0.7,0.1,1,0.2l-0.2,0.5c-0.1-0.1-0.2-0.1-0.4-0.2
		C93,89.4,92.9,89.4,92.7,89.4z"/>
	<path class="st5" d="M95.6,92.5H95v-3.1h-1V89h2.7v0.5h-1V92.5z"/>
	<path class="st5" d="M100.4,90.8c0,0.6-0.1,1-0.4,1.4c-0.3,0.3-0.7,0.5-1.2,0.5c-0.5,0-1-0.2-1.2-0.5c-0.3-0.3-0.4-0.8-0.4-1.4
		s0.1-1,0.4-1.4c0.3-0.3,0.7-0.5,1.2-0.5c0.5,0,0.9,0.2,1.2,0.5S100.4,90.2,100.4,90.8z M97.6,90.8c0,0.4,0.1,0.8,0.3,1
		c0.2,0.2,0.4,0.3,0.8,0.3c0.3,0,0.6-0.1,0.8-0.3c0.2-0.2,0.3-0.6,0.3-1c0-0.4-0.1-0.8-0.3-1c-0.2-0.2-0.4-0.3-0.8-0.3
		c-0.4,0-0.6,0.1-0.8,0.3C97.7,90,97.6,90.3,97.6,90.8z"/>
	<path class="st5" d="M103.2,91.6c0,0.3-0.1,0.6-0.3,0.7s-0.5,0.3-0.9,0.3s-0.7-0.1-1-0.2v-0.6c0.2,0.1,0.3,0.1,0.5,0.2
		c0.2,0,0.4,0.1,0.5,0.1c0.2,0,0.4,0,0.5-0.1c0.1-0.1,0.2-0.2,0.2-0.4c0-0.1-0.1-0.2-0.2-0.3s-0.3-0.2-0.6-0.3
		c-0.3-0.1-0.6-0.3-0.7-0.5s-0.2-0.4-0.2-0.6c0-0.3,0.1-0.5,0.3-0.7s0.5-0.3,0.9-0.3c0.3,0,0.7,0.1,1,0.2l-0.2,0.5
		c-0.3-0.1-0.6-0.2-0.8-0.2c-0.2,0-0.3,0-0.4,0.1c-0.1,0.1-0.1,0.2-0.1,0.3c0,0.1,0,0.2,0.1,0.2c0,0.1,0.1,0.1,0.2,0.2
		s0.3,0.1,0.5,0.2c0.3,0.1,0.5,0.2,0.6,0.3s0.2,0.2,0.3,0.3S103.2,91.4,103.2,91.6z"/>
</g>
<g>
	<path class="st6" d="M24.9,103.5c0,0.3-0.1,0.6-0.3,0.7s-0.5,0.3-0.9,0.3s-0.7-0.1-1-0.2v-0.6c0.2,0.1,0.3,0.1,0.5,0.2
		c0.2,0,0.4,0.1,0.5,0.1c0.2,0,0.4,0,0.5-0.1c0.1-0.1,0.2-0.2,0.2-0.4c0-0.1-0.1-0.2-0.2-0.3s-0.3-0.2-0.6-0.3
		c-0.3-0.1-0.6-0.3-0.7-0.5c-0.1-0.2-0.2-0.4-0.2-0.6c0-0.3,0.1-0.5,0.3-0.7s0.5-0.3,0.9-0.3c0.3,0,0.7,0.1,1,0.2l-0.2,0.5
		c-0.3-0.1-0.6-0.2-0.8-0.2c-0.2,0-0.3,0-0.4,0.1s-0.1,0.2-0.1,0.3c0,0.1,0,0.2,0.1,0.2c0,0.1,0.1,0.1,0.2,0.2s0.3,0.1,0.5,0.2
		c0.3,0.1,0.5,0.2,0.6,0.3c0.1,0.1,0.2,0.2,0.3,0.3C24.9,103.2,24.9,103.4,24.9,103.5z"/>
	<path class="st6" d="M28.4,100.9v2.3c0,0.3-0.1,0.5-0.2,0.7c-0.1,0.2-0.3,0.3-0.5,0.5c-0.2,0.1-0.5,0.2-0.8,0.2
		c-0.4,0-0.8-0.1-1-0.4s-0.4-0.6-0.4-1v-2.3h0.6v2.3c0,0.3,0.1,0.5,0.2,0.7c0.1,0.1,0.3,0.2,0.6,0.2c0.6,0,0.8-0.3,0.8-0.9v-2.3
		H28.4z"/>
	<path class="st6" d="M30.8,104.5l-1-3h0c0,0.4,0,0.9,0,1.2v1.7h-0.5v-3.6h0.8l1,2.8h0l1-2.8H33v3.6h-0.6v-1.8c0-0.2,0-0.4,0-0.7
		c0-0.3,0-0.5,0-0.5h0l-1.1,3H30.8z"/>
	<path class="st6" d="M33.9,104.5v-3.6h0.6v3.6H33.9z"/>
	<path class="st6" d="M38.4,104.5h-0.7l-1.8-2.8h0l0,0.2c0,0.3,0,0.6,0,0.8v1.9h-0.5v-3.6h0.7l1.8,2.8h0c0,0,0-0.2,0-0.4
		c0-0.2,0-0.4,0-0.6v-1.9h0.5V104.5z"/>
	<path class="st6" d="M39.3,104.5v-3.6h0.6v3.6H39.3z"/>
	<path class="st6" d="M42.9,103.5c0,0.3-0.1,0.6-0.3,0.7s-0.5,0.3-0.9,0.3s-0.7-0.1-1-0.2v-0.6c0.2,0.1,0.3,0.1,0.5,0.2
		c0.2,0,0.4,0.1,0.5,0.1c0.2,0,0.4,0,0.5-0.1c0.1-0.1,0.2-0.2,0.2-0.4c0-0.1-0.1-0.2-0.2-0.3s-0.3-0.2-0.6-0.3
		c-0.3-0.1-0.6-0.3-0.7-0.5c-0.1-0.2-0.2-0.4-0.2-0.6c0-0.3,0.1-0.5,0.3-0.7s0.5-0.3,0.9-0.3c0.3,0,0.7,0.1,1,0.2l-0.2,0.5
		c-0.3-0.1-0.6-0.2-0.8-0.2c-0.2,0-0.3,0-0.4,0.1s-0.1,0.2-0.1,0.3c0,0.1,0,0.2,0.1,0.2c0,0.1,0.1,0.1,0.2,0.2s0.3,0.1,0.5,0.2
		c0.3,0.1,0.5,0.2,0.6,0.3c0.1,0.1,0.2,0.2,0.3,0.3C42.9,103.2,42.9,103.4,42.9,103.5z"/>
	<path class="st6" d="M44.8,104.5h-0.6v-3.1h-1v-0.5h2.7v0.5h-1V104.5z"/>
	<path class="st6" d="M47,103.1v1.4h-0.6v-3.6h1c0.5,0,0.8,0.1,1,0.3c0.2,0.2,0.3,0.4,0.3,0.8c0,0.4-0.2,0.8-0.7,0.9l1,1.6h-0.7
		l-0.9-1.4H47z M47,102.6h0.4c0.3,0,0.5-0.1,0.6-0.2c0.1-0.1,0.2-0.3,0.2-0.4c0-0.2-0.1-0.3-0.2-0.4s-0.3-0.1-0.6-0.1H47V102.6z"/>
	<path class="st6" d="M52.8,102.7c0,0.6-0.1,1-0.4,1.4c-0.3,0.3-0.7,0.5-1.2,0.5c-0.5,0-1-0.2-1.2-0.5c-0.3-0.3-0.4-0.8-0.4-1.4
		c0-0.6,0.1-1,0.4-1.4c0.3-0.3,0.7-0.5,1.2-0.5c0.5,0,0.9,0.2,1.2,0.5C52.7,101.7,52.8,102.1,52.8,102.7z M50.1,102.7
		c0,0.4,0.1,0.8,0.3,1c0.2,0.2,0.4,0.3,0.8,0.3c0.3,0,0.6-0.1,0.8-0.3c0.2-0.2,0.3-0.6,0.3-1c0-0.4-0.1-0.8-0.3-1
		c-0.2-0.2-0.4-0.3-0.8-0.3c-0.4,0-0.6,0.1-0.8,0.3C50.2,101.9,50.1,102.3,50.1,102.7z"/>
	<path class="st6" d="M57.8,102.7c0,0.6-0.2,1-0.5,1.4s-0.8,0.5-1.4,0.5h-1v-3.6H56c0.6,0,1,0.2,1.3,0.5
		C57.6,101.7,57.8,102.1,57.8,102.7z M57.2,102.7c0-0.9-0.4-1.3-1.2-1.3h-0.5v2.6h0.4C56.7,104,57.2,103.6,57.2,102.7z"/>
	<path class="st6" d="M60.6,104.5h-2v-3.6h2v0.5h-1.4v1h1.3v0.5h-1.3v1.1h1.4V104.5z"/>
	<path class="st6" d="M62.6,104.5v-3.6h0.6v3.6H62.6z"/>
	<path class="st6" d="M67.1,104.5h-0.7l-1.8-2.8h0l0,0.2c0,0.3,0,0.6,0,0.8v1.9h-0.5v-3.6h0.7l1.8,2.8h0c0,0,0-0.2,0-0.4
		c0-0.2,0-0.4,0-0.6v-1.9h0.5V104.5z"/>
	<path class="st6" d="M68.7,104.5h-0.6v-3.6h2v0.5h-1.4v1.1H70v0.5h-1.3V104.5z"/>
	<path class="st6" d="M73.9,102.7c0,0.6-0.1,1-0.4,1.4c-0.3,0.3-0.7,0.5-1.2,0.5c-0.5,0-1-0.2-1.2-0.5c-0.3-0.3-0.4-0.8-0.4-1.4
		c0-0.6,0.1-1,0.4-1.4c0.3-0.3,0.7-0.5,1.2-0.5c0.5,0,0.9,0.2,1.2,0.5C73.8,101.7,73.9,102.1,73.9,102.7z M71.2,102.7
		c0,0.4,0.1,0.8,0.3,1c0.2,0.2,0.4,0.3,0.8,0.3c0.3,0,0.6-0.1,0.8-0.3c0.2-0.2,0.3-0.6,0.3-1c0-0.4-0.1-0.8-0.3-1
		c-0.2-0.2-0.4-0.3-0.8-0.3c-0.4,0-0.6,0.1-0.8,0.3C71.3,101.9,71.2,102.3,71.2,102.7z"/>
	<path class="st6" d="M75.3,103.1v1.4h-0.6v-3.6h1c0.5,0,0.8,0.1,1,0.3c0.2,0.2,0.3,0.4,0.3,0.8c0,0.4-0.2,0.8-0.7,0.9l1,1.6h-0.7
		l-0.9-1.4H75.3z M75.3,102.6h0.4c0.3,0,0.5-0.1,0.6-0.2c0.1-0.1,0.2-0.3,0.2-0.4c0-0.2-0.1-0.3-0.2-0.4s-0.3-0.1-0.6-0.1h-0.4
		V102.6z"/>
	<path class="st6" d="M79.4,104.5l-1-3h0c0,0.4,0,0.9,0,1.2v1.7h-0.5v-3.6h0.8l1,2.8h0l1-2.8h0.8v3.6H81v-1.8c0-0.2,0-0.4,0-0.7
		c0-0.3,0-0.5,0-0.5h0l-1.1,3H79.4z"/>
	<path class="st6" d="M84.7,104.5l-0.4-1H83l-0.3,1H82l1.3-3.6H84l1.3,3.6H84.7z M84.2,103l-0.3-1c0-0.1-0.1-0.2-0.1-0.3
		c0-0.1-0.1-0.2-0.1-0.3c0,0.2-0.1,0.4-0.2,0.7l-0.3,0.9H84.2z"/>
	<path class="st6" d="M87.3,101.4c-0.3,0-0.6,0.1-0.8,0.4c-0.2,0.2-0.3,0.6-0.3,1c0,0.4,0.1,0.8,0.3,1c0.2,0.2,0.5,0.3,0.8,0.3
		c0.2,0,0.3,0,0.4,0c0.1,0,0.3-0.1,0.4-0.1v0.5c-0.3,0.1-0.6,0.2-1,0.2c-0.5,0-0.9-0.2-1.2-0.5c-0.3-0.3-0.4-0.8-0.4-1.4
		c0-0.4,0.1-0.7,0.2-1c0.1-0.3,0.3-0.5,0.6-0.6c0.3-0.1,0.6-0.2,0.9-0.2c0.4,0,0.7,0.1,1,0.2l-0.2,0.5c-0.1-0.1-0.2-0.1-0.4-0.2
		C87.6,101.4,87.5,101.4,87.3,101.4z"/>
	<path class="st6" d="M89,104.5v-3.6h0.6v3.6H89z"/>
	<path class="st6" d="M93.7,102.7c0,0.6-0.1,1-0.4,1.4c-0.3,0.3-0.7,0.5-1.2,0.5c-0.5,0-1-0.2-1.2-0.5c-0.3-0.3-0.4-0.8-0.4-1.4
		c0-0.6,0.1-1,0.4-1.4c0.3-0.3,0.7-0.5,1.2-0.5c0.5,0,0.9,0.2,1.2,0.5C93.5,101.7,93.7,102.1,93.7,102.7z M90.9,102.7
		c0,0.4,0.1,0.8,0.3,1c0.2,0.2,0.4,0.3,0.8,0.3c0.3,0,0.6-0.1,0.8-0.3c0.2-0.2,0.3-0.6,0.3-1c0-0.4-0.1-0.8-0.3-1
		c-0.2-0.2-0.4-0.3-0.8-0.3c-0.4,0-0.6,0.1-0.8,0.3C91,101.9,90.9,102.3,90.9,102.7z"/>
	<path class="st6" d="M97.4,104.5h-0.7l-1.8-2.8h0l0,0.2c0,0.3,0,0.6,0,0.8v1.9h-0.5v-3.6h0.7l1.8,2.8h0c0,0,0-0.2,0-0.4
		c0-0.2,0-0.4,0-0.6v-1.9h0.5V104.5z"/>
	<path class="st6" d="M100.4,104.5h-2v-3.6h2v0.5h-1.4v1h1.3v0.5h-1.3v1.1h1.4V104.5z"/>
	<path class="st6" d="M103.2,103.5c0,0.3-0.1,0.6-0.3,0.7s-0.5,0.3-0.9,0.3s-0.7-0.1-1-0.2v-0.6c0.2,0.1,0.3,0.1,0.5,0.2
		c0.2,0,0.4,0.1,0.5,0.1c0.2,0,0.4,0,0.5-0.1c0.1-0.1,0.2-0.2,0.2-0.4c0-0.1-0.1-0.2-0.2-0.3s-0.3-0.2-0.6-0.3
		c-0.3-0.1-0.6-0.3-0.7-0.5c-0.1-0.2-0.2-0.4-0.2-0.6c0-0.3,0.1-0.5,0.3-0.7s0.5-0.3,0.9-0.3c0.3,0,0.7,0.1,1,0.2l-0.2,0.5
		c-0.3-0.1-0.6-0.2-0.8-0.2c-0.2,0-0.3,0-0.4,0.1s-0.1,0.2-0.1,0.3c0,0.1,0,0.2,0.1,0.2c0,0.1,0.1,0.1,0.2,0.2s0.3,0.1,0.5,0.2
		c0.3,0.1,0.5,0.2,0.6,0.3c0.1,0.1,0.2,0.2,0.3,0.3C103.2,103.2,103.2,103.4,103.2,103.5z"/>
</g>
<g>
	<path class="st0" d="M29.6,116.6V113h0.6v3.6H29.6z"/>
	<path class="st0" d="M34.1,114.8c0,0.6-0.2,1-0.5,1.4c-0.3,0.3-0.8,0.5-1.4,0.5h-1V113h1.1c0.6,0,1,0.2,1.3,0.5
		C33.9,113.8,34.1,114.2,34.1,114.8z M33.4,114.8c0-0.9-0.4-1.3-1.2-1.3h-0.5v2.6h0.4C33,116.1,33.4,115.6,33.4,114.8z"/>
	<path class="st0" d="M36.8,116.6h-2V113h2v0.5h-1.4v1h1.3v0.5h-1.3v1.1h1.4V116.6z"/>
	<path class="st0" d="M40.6,116.6h-0.7l-1.8-2.8h0l0,0.2c0,0.3,0,0.6,0,0.8v1.9h-0.5V113h0.7l1.8,2.8h0c0,0,0-0.2,0-0.4s0-0.4,0-0.6
		V113h0.5V116.6z"/>
	<path class="st0" d="M42.8,116.6h-0.6v-3.1h-1V113h2.7v0.5h-1V116.6z"/>
	<path class="st0" d="M44.4,116.6V113h0.6v3.6H44.4z"/>
	<path class="st0" d="M46.5,116.6h-0.6V113h2v0.5h-1.4v1.1h1.3v0.5h-1.3V116.6z"/>
	<path class="st0" d="M48.6,116.6V113h0.6v3.6H48.6z"/>
	<path class="st0" d="M51.6,113.4c-0.3,0-0.6,0.1-0.8,0.4c-0.2,0.2-0.3,0.6-0.3,1c0,0.4,0.1,0.8,0.3,1c0.2,0.2,0.5,0.3,0.8,0.3
		c0.2,0,0.3,0,0.4,0s0.3-0.1,0.4-0.1v0.5c-0.3,0.1-0.6,0.2-1,0.2c-0.5,0-0.9-0.2-1.2-0.5s-0.4-0.8-0.4-1.4c0-0.4,0.1-0.7,0.2-1
		c0.1-0.3,0.3-0.5,0.6-0.6c0.3-0.1,0.6-0.2,0.9-0.2c0.4,0,0.7,0.1,1,0.2l-0.2,0.5c-0.1-0.1-0.2-0.1-0.4-0.2
		C51.9,113.5,51.7,113.4,51.6,113.4z"/>
	<path class="st0" d="M55.5,116.6l-0.4-1h-1.4l-0.3,1h-0.6l1.3-3.6h0.6l1.3,3.6H55.5z M54.9,115.1l-0.3-1c0-0.1-0.1-0.2-0.1-0.3
		c0-0.1-0.1-0.2-0.1-0.3c0,0.2-0.1,0.4-0.2,0.7l-0.3,0.9H54.9z"/>
	<path class="st0" d="M58.1,113.4c-0.3,0-0.6,0.1-0.8,0.4c-0.2,0.2-0.3,0.6-0.3,1c0,0.4,0.1,0.8,0.3,1c0.2,0.2,0.5,0.3,0.8,0.3
		c0.2,0,0.3,0,0.4,0s0.3-0.1,0.4-0.1v0.5c-0.3,0.1-0.6,0.2-1,0.2c-0.5,0-0.9-0.2-1.2-0.5s-0.4-0.8-0.4-1.4c0-0.4,0.1-0.7,0.2-1
		c0.1-0.3,0.3-0.5,0.6-0.6c0.3-0.1,0.6-0.2,0.9-0.2c0.4,0,0.7,0.1,1,0.2l-0.2,0.5c-0.1-0.1-0.2-0.1-0.4-0.2
		C58.4,113.5,58.2,113.4,58.1,113.4z"/>
	<path class="st0" d="M59.7,116.6V113h0.6v3.6H59.7z"/>
	<path class="st0" d="M64.4,114.8c0,0.6-0.1,1-0.4,1.4c-0.3,0.3-0.7,0.5-1.2,0.5c-0.5,0-1-0.2-1.2-0.5c-0.3-0.3-0.4-0.8-0.4-1.4
		c0-0.6,0.1-1,0.4-1.4c0.3-0.3,0.7-0.5,1.2-0.5c0.5,0,0.9,0.2,1.2,0.5C64.3,113.7,64.4,114.2,64.4,114.8z M61.7,114.8
		c0,0.4,0.1,0.8,0.3,1c0.2,0.2,0.4,0.3,0.8,0.3c0.3,0,0.6-0.1,0.8-0.3c0.2-0.2,0.3-0.6,0.3-1c0-0.4-0.1-0.8-0.3-1
		c-0.2-0.2-0.4-0.3-0.8-0.3c-0.4,0-0.6,0.1-0.8,0.3C61.8,114,61.7,114.3,61.7,114.8z M62.4,112.7L62.4,112.7
		c0.1-0.2,0.2-0.3,0.3-0.4c0.1-0.1,0.2-0.3,0.2-0.4h0.7v0.1c-0.1,0.1-0.2,0.2-0.4,0.4c-0.2,0.2-0.3,0.3-0.4,0.4H62.4z"/>
	<path class="st0" d="M68.2,116.6h-0.7l-1.8-2.8h0l0,0.2c0,0.3,0,0.6,0,0.8v1.9h-0.5V113h0.7l1.8,2.8h0c0,0,0-0.2,0-0.4s0-0.4,0-0.6
		V113h0.5V116.6z"/>
	<path class="st0" d="M73.3,114.8c0,0.6-0.2,1-0.5,1.4c-0.3,0.3-0.8,0.5-1.4,0.5h-1V113h1.1c0.6,0,1,0.2,1.3,0.5
		C73.1,113.8,73.3,114.2,73.3,114.8z M72.7,114.8c0-0.9-0.4-1.3-1.2-1.3H71v2.6h0.4C72.3,116.1,72.7,115.6,72.7,114.8z"/>
	<path class="st0" d="M76.1,116.6h-2V113h2v0.5h-1.4v1H76v0.5h-1.3v1.1h1.4V116.6z"/>
	<path class="st0" d="M80.5,114.1c0,0.4-0.1,0.7-0.4,0.9c-0.2,0.2-0.6,0.3-1,0.3h-0.4v1.3h-0.6V113h1c0.4,0,0.8,0.1,1,0.3
		C80.4,113.5,80.5,113.7,80.5,114.1z M78.7,114.7H79c0.3,0,0.5-0.1,0.7-0.2c0.1-0.1,0.2-0.3,0.2-0.5c0-0.2-0.1-0.4-0.2-0.5
		c-0.1-0.1-0.3-0.2-0.6-0.2h-0.4V114.7z"/>
	<path class="st0" d="M83.2,116.6h-2V113h2v0.5h-1.4v1h1.3v0.5h-1.3v1.1h1.4V116.6z"/>
	<path class="st0" d="M84.6,115.1v1.4H84V113h1c0.5,0,0.8,0.1,1,0.3c0.2,0.2,0.3,0.4,0.3,0.8c0,0.4-0.2,0.8-0.7,1l1,1.6H86l-0.9-1.4
		H84.6z M84.6,114.7H85c0.3,0,0.5,0,0.6-0.2c0.1-0.1,0.2-0.2,0.2-0.4c0-0.2-0.1-0.3-0.2-0.4s-0.3-0.1-0.6-0.1h-0.4V114.7z"/>
	<path class="st0" d="M89.3,115.6c0,0.3-0.1,0.6-0.3,0.7s-0.5,0.3-0.9,0.3s-0.7-0.1-1-0.2v-0.6c0.2,0.1,0.3,0.1,0.5,0.2
		c0.2,0,0.4,0.1,0.5,0.1c0.2,0,0.4,0,0.5-0.1c0.1-0.1,0.2-0.2,0.2-0.4c0-0.1-0.1-0.2-0.2-0.3s-0.3-0.2-0.6-0.3
		c-0.3-0.1-0.6-0.3-0.7-0.5c-0.1-0.2-0.2-0.4-0.2-0.6c0-0.3,0.1-0.5,0.3-0.7s0.5-0.3,0.9-0.3c0.3,0,0.7,0.1,1,0.2l-0.2,0.5
		c-0.3-0.1-0.6-0.2-0.8-0.2c-0.2,0-0.3,0-0.4,0.1c-0.1,0.1-0.1,0.2-0.1,0.3c0,0.1,0,0.2,0.1,0.2c0,0.1,0.1,0.1,0.2,0.2
		s0.3,0.1,0.5,0.2c0.3,0.1,0.5,0.2,0.6,0.3c0.1,0.1,0.2,0.2,0.3,0.3C89.2,115.3,89.3,115.4,89.3,115.6z"/>
	<path class="st0" d="M93.1,114.8c0,0.6-0.1,1-0.4,1.4c-0.3,0.3-0.7,0.5-1.2,0.5c-0.5,0-1-0.2-1.2-0.5c-0.3-0.3-0.4-0.8-0.4-1.4
		c0-0.6,0.1-1,0.4-1.4c0.3-0.3,0.7-0.5,1.2-0.5c0.5,0,0.9,0.2,1.2,0.5C93,113.7,93.1,114.2,93.1,114.8z M90.4,114.8
		c0,0.4,0.1,0.8,0.3,1c0.2,0.2,0.4,0.3,0.8,0.3c0.3,0,0.6-0.1,0.8-0.3c0.2-0.2,0.3-0.6,0.3-1c0-0.4-0.1-0.8-0.3-1
		c-0.2-0.2-0.4-0.3-0.8-0.3c-0.4,0-0.6,0.1-0.8,0.3C90.5,114,90.4,114.3,90.4,114.8z"/>
	<path class="st0" d="M96.9,116.6h-0.7l-1.8-2.8h0l0,0.2c0,0.3,0,0.6,0,0.8v1.9h-0.5V113h0.7l1.8,2.8h0c0,0,0-0.2,0-0.4s0-0.4,0-0.6
		V113h0.5V116.6z"/>
	<path class="st0" d="M100,116.6l-0.4-1h-1.4l-0.3,1h-0.6l1.3-3.6h0.6l1.3,3.6H100z M99.5,115.1l-0.3-1c0-0.1-0.1-0.2-0.1-0.3
		c0-0.1-0.1-0.2-0.1-0.3c0,0.2-0.1,0.4-0.2,0.7l-0.3,0.9H99.5z"/>
	<path class="st0" d="M103.2,115.6c0,0.3-0.1,0.6-0.3,0.7s-0.5,0.3-0.9,0.3s-0.7-0.1-1-0.2v-0.6c0.2,0.1,0.3,0.1,0.5,0.2
		c0.2,0,0.4,0.1,0.5,0.1c0.2,0,0.4,0,0.5-0.1c0.1-0.1,0.2-0.2,0.2-0.4c0-0.1-0.1-0.2-0.2-0.3s-0.3-0.2-0.6-0.3
		c-0.3-0.1-0.6-0.3-0.7-0.5c-0.1-0.2-0.2-0.4-0.2-0.6c0-0.3,0.1-0.5,0.3-0.7s0.5-0.3,0.9-0.3c0.3,0,0.7,0.1,1,0.2l-0.2,0.5
		c-0.3-0.1-0.6-0.2-0.8-0.2c-0.2,0-0.3,0-0.4,0.1c-0.1,0.1-0.1,0.2-0.1,0.3c0,0.1,0,0.2,0.1,0.2c0,0.1,0.1,0.1,0.2,0.2
		s0.3,0.1,0.5,0.2c0.3,0.1,0.5,0.2,0.6,0.3c0.1,0.1,0.2,0.2,0.3,0.3C103.2,115.3,103.2,115.4,103.2,115.6z"/>
</g>
<g>
	<path class="st7" d="M8,126.5c0,0.6-0.2,1-0.5,1.4s-0.8,0.5-1.4,0.5h-1v-3.6h1.1c0.6,0,1,0.2,1.3,0.5C7.9,125.5,8,125.9,8,126.5z
		 M7.4,126.5c0-0.9-0.4-1.3-1.2-1.3H5.7v2.6h0.4C7,127.8,7.4,127.4,7.4,126.5z"/>
	<path class="st7" d="M8.8,128.3v-3.6h0.6v3.6H8.8z"/>
	<path class="st7" d="M11.8,126.3h1.3v1.8c-0.2,0.1-0.4,0.1-0.6,0.1c-0.2,0-0.4,0-0.6,0c-0.5,0-1-0.2-1.2-0.5
		c-0.3-0.3-0.4-0.8-0.4-1.4c0-0.6,0.2-1,0.5-1.3c0.3-0.3,0.8-0.5,1.4-0.5c0.4,0,0.7,0.1,1.1,0.2l-0.2,0.5c-0.3-0.1-0.6-0.2-0.9-0.2
		c-0.4,0-0.7,0.1-0.9,0.4s-0.3,0.6-0.3,1c0,0.4,0.1,0.8,0.3,1c0.2,0.2,0.5,0.3,0.9,0.3c0.2,0,0.4,0,0.6-0.1v-0.9h-0.7V126.3z"/>
	<path class="st7" d="M14,128.3v-3.6h0.6v3.6H14z"/>
	<path class="st7" d="M16.7,128.3h-0.6v-3.1h-1v-0.5h2.7v0.5h-1V128.3z"/>
	<path class="st7" d="M20.5,128.3l-0.4-1h-1.4l-0.3,1h-0.6l1.3-3.6h0.6l1.3,3.6H20.5z M20,126.8l-0.3-1c0-0.1-0.1-0.2-0.1-0.3
		c0-0.1-0.1-0.2-0.1-0.3c0,0.2-0.1,0.4-0.2,0.7l-0.3,0.9H20z"/>
	<path class="st7" d="M21.6,128.3v-3.6h0.6v3.1h1.5v0.5H21.6z"/>
	<path class="st7" d="M24.3,128.3v-3.6h0.6v3.6H24.3z"/>
	<path class="st7" d="M28.1,128.3h-2.6v-0.4l1.8-2.7h-1.8v-0.5h2.5v0.4l-1.8,2.7h1.9V128.3z"/>
	<path class="st7" d="M31,128.3l-0.4-1h-1.4l-0.3,1h-0.6l1.3-3.6h0.6l1.3,3.6H31z M30.4,126.8l-0.3-1c0-0.1-0.1-0.2-0.1-0.3
		c0-0.1-0.1-0.2-0.1-0.3c0,0.2-0.1,0.4-0.2,0.7l-0.3,0.9H30.4z"/>
	<path class="st7" d="M33.6,125.2c-0.3,0-0.6,0.1-0.8,0.4c-0.2,0.2-0.3,0.6-0.3,1c0,0.4,0.1,0.8,0.3,1c0.2,0.2,0.5,0.3,0.8,0.3
		c0.2,0,0.3,0,0.4,0c0.1,0,0.3-0.1,0.4-0.1v0.5c-0.3,0.1-0.6,0.2-1,0.2c-0.5,0-0.9-0.2-1.2-0.5c-0.3-0.3-0.4-0.8-0.4-1.4
		c0-0.4,0.1-0.7,0.2-1c0.1-0.3,0.3-0.5,0.6-0.6c0.3-0.1,0.6-0.2,0.9-0.2c0.4,0,0.7,0.1,1,0.2l-0.2,0.5c-0.1-0.1-0.2-0.1-0.4-0.2
		C33.8,125.2,33.7,125.2,33.6,125.2z"/>
	<path class="st7" d="M35.2,128.3v-3.6h0.6v3.6H35.2z"/>
	<path class="st7" d="M39.9,126.5c0,0.6-0.1,1-0.4,1.4c-0.3,0.3-0.7,0.5-1.2,0.5c-0.5,0-1-0.2-1.2-0.5c-0.3-0.3-0.4-0.8-0.4-1.4
		c0-0.6,0.1-1,0.4-1.4c0.3-0.3,0.7-0.5,1.2-0.5c0.5,0,0.9,0.2,1.2,0.5C39.8,125.5,39.9,125.9,39.9,126.5z M37.2,126.5
		c0,0.4,0.1,0.8,0.3,1c0.2,0.2,0.4,0.3,0.8,0.3c0.3,0,0.6-0.1,0.8-0.3c0.2-0.2,0.3-0.6,0.3-1c0-0.4-0.1-0.8-0.3-1
		c-0.2-0.2-0.4-0.3-0.8-0.3c-0.4,0-0.6,0.1-0.8,0.3C37.3,125.7,37.2,126.1,37.2,126.5z M37.9,124.4L37.9,124.4
		c0.1-0.2,0.2-0.3,0.3-0.4c0.1-0.1,0.2-0.3,0.2-0.4h0.7v0.1c-0.1,0.1-0.2,0.2-0.4,0.4c-0.2,0.2-0.3,0.3-0.4,0.4H37.9z"/>
	<path class="st7" d="M43.6,128.3h-0.7l-1.8-2.8h0l0,0.2c0,0.3,0,0.6,0,0.8v1.9h-0.5v-3.6h0.7l1.8,2.8h0c0,0,0-0.2,0-0.4
		c0-0.2,0-0.4,0-0.6v-1.9h0.5V128.3z"/>
	<path class="st7" d="M48.8,126.5c0,0.6-0.2,1-0.5,1.4s-0.8,0.5-1.4,0.5h-1v-3.6H47c0.6,0,1,0.2,1.3,0.5
		C48.6,125.5,48.8,125.9,48.8,126.5z M48.2,126.5c0-0.9-0.4-1.3-1.2-1.3h-0.5v2.6h0.4C47.7,127.8,48.2,127.4,48.2,126.5z"/>
	<path class="st7" d="M51.6,128.3h-2v-3.6h2v0.5h-1.4v1h1.3v0.5h-1.3v1.1h1.4V128.3z"/>
	<path class="st7" d="M55.7,127.3c0,0.3-0.1,0.6-0.3,0.7s-0.5,0.3-0.9,0.3s-0.7-0.1-1-0.2v-0.6c0.2,0.1,0.3,0.1,0.5,0.2
		c0.2,0,0.4,0.1,0.5,0.1c0.2,0,0.4,0,0.5-0.1c0.1-0.1,0.2-0.2,0.2-0.4c0-0.1-0.1-0.2-0.2-0.3s-0.3-0.2-0.6-0.3
		c-0.3-0.1-0.6-0.3-0.7-0.5c-0.1-0.2-0.2-0.4-0.2-0.6c0-0.3,0.1-0.5,0.3-0.7s0.5-0.3,0.9-0.3c0.3,0,0.7,0.1,1,0.2l-0.2,0.5
		c-0.3-0.1-0.6-0.2-0.8-0.2c-0.2,0-0.3,0-0.4,0.1s-0.1,0.2-0.1,0.3c0,0.1,0,0.2,0.1,0.2c0,0.1,0.1,0.1,0.2,0.2s0.3,0.1,0.5,0.2
		c0.3,0.1,0.5,0.2,0.6,0.3c0.1,0.1,0.2,0.2,0.3,0.3C55.7,127,55.7,127.1,55.7,127.3z"/>
	<path class="st7" d="M58.4,128.3h-2v-3.6h2v0.5H57v1h1.3v0.5H57v1.1h1.4V128.3z"/>
	<path class="st7" d="M59.8,126.9v1.4h-0.6v-3.6h1c0.5,0,0.8,0.1,1,0.3c0.2,0.2,0.3,0.4,0.3,0.8c0,0.4-0.2,0.8-0.7,0.9l1,1.6h-0.7
		l-0.9-1.4H59.8z M59.8,126.4h0.4c0.3,0,0.5-0.1,0.6-0.2c0.1-0.1,0.2-0.3,0.2-0.4c0-0.2-0.1-0.3-0.2-0.4s-0.3-0.1-0.6-0.1h-0.4
		V126.4z"/>
	<path class="st7" d="M64.4,124.7H65l-1.2,3.6h-0.6l-1.2-3.6h0.6l0.7,2.2c0,0.1,0.1,0.2,0.1,0.4s0.1,0.3,0.1,0.4
		c0-0.1,0.1-0.3,0.1-0.4c0-0.2,0.1-0.3,0.1-0.4L64.4,124.7z"/>
	<path class="st7" d="M65.5,128.3v-3.6h0.6v3.6H65.5z"/>
	<path class="st7" d="M68.5,125.2c-0.3,0-0.6,0.1-0.8,0.4c-0.2,0.2-0.3,0.6-0.3,1c0,0.4,0.1,0.8,0.3,1c0.2,0.2,0.5,0.3,0.8,0.3
		c0.2,0,0.3,0,0.4,0c0.1,0,0.3-0.1,0.4-0.1v0.5c-0.3,0.1-0.6,0.2-1,0.2c-0.5,0-0.9-0.2-1.2-0.5c-0.3-0.3-0.4-0.8-0.4-1.4
		c0-0.4,0.1-0.7,0.2-1c0.1-0.3,0.3-0.5,0.6-0.6c0.3-0.1,0.6-0.2,0.9-0.2c0.4,0,0.7,0.1,1,0.2l-0.2,0.5c-0.1-0.1-0.2-0.1-0.4-0.2
		C68.8,125.2,68.7,125.2,68.5,125.2z"/>
	<path class="st7" d="M70.2,128.3v-3.6h0.6v3.6H70.2z"/>
	<path class="st7" d="M74.9,126.5c0,0.6-0.1,1-0.4,1.4c-0.3,0.3-0.7,0.5-1.2,0.5c-0.5,0-1-0.2-1.2-0.5c-0.3-0.3-0.4-0.8-0.4-1.4
		c0-0.6,0.1-1,0.4-1.4c0.3-0.3,0.7-0.5,1.2-0.5c0.5,0,0.9,0.2,1.2,0.5C74.7,125.5,74.9,125.9,74.9,126.5z M72.2,126.5
		c0,0.4,0.1,0.8,0.3,1c0.2,0.2,0.4,0.3,0.8,0.3c0.3,0,0.6-0.1,0.8-0.3c0.2-0.2,0.3-0.6,0.3-1c0-0.4-0.1-0.8-0.3-1
		c-0.2-0.2-0.4-0.3-0.8-0.3c-0.4,0-0.6,0.1-0.8,0.3C72.2,125.7,72.2,126.1,72.2,126.5z"/>
	<path class="st7" d="M77.7,127.3c0,0.3-0.1,0.6-0.3,0.7s-0.5,0.3-0.9,0.3s-0.7-0.1-1-0.2v-0.6c0.2,0.1,0.3,0.1,0.5,0.2
		c0.2,0,0.4,0.1,0.5,0.1c0.2,0,0.4,0,0.5-0.1c0.1-0.1,0.2-0.2,0.2-0.4c0-0.1-0.1-0.2-0.2-0.3s-0.3-0.2-0.6-0.3
		c-0.3-0.1-0.6-0.3-0.7-0.5c-0.1-0.2-0.2-0.4-0.2-0.6c0-0.3,0.1-0.5,0.3-0.7s0.5-0.3,0.9-0.3c0.3,0,0.7,0.1,1,0.2l-0.2,0.5
		c-0.3-0.1-0.6-0.2-0.8-0.2c-0.2,0-0.3,0-0.4,0.1s-0.1,0.2-0.1,0.3c0,0.1,0,0.2,0.1,0.2c0,0.1,0.1,0.1,0.2,0.2s0.3,0.1,0.5,0.2
		c0.3,0.1,0.5,0.2,0.6,0.3c0.1,0.1,0.2,0.2,0.3,0.3C77.7,127,77.7,127.1,77.7,127.3z"/>
	<path class="st7" d="M82.1,125.8c0,0.4-0.1,0.7-0.4,0.9c-0.2,0.2-0.6,0.3-1,0.3h-0.4v1.3h-0.6v-3.6h1c0.4,0,0.8,0.1,1,0.3
		C81.9,125.2,82.1,125.4,82.1,125.8z M80.3,126.5h0.3c0.3,0,0.5-0.1,0.7-0.2c0.1-0.1,0.2-0.3,0.2-0.5c0-0.2-0.1-0.4-0.2-0.5
		c-0.1-0.1-0.3-0.2-0.6-0.2h-0.4V126.5z"/>
	<path class="st7" d="M85.6,124.7v2.3c0,0.3-0.1,0.5-0.2,0.7c-0.1,0.2-0.3,0.3-0.5,0.5c-0.2,0.1-0.5,0.2-0.8,0.2
		c-0.4,0-0.8-0.1-1-0.4s-0.4-0.6-0.4-1v-2.3h0.6v2.3c0,0.3,0.1,0.5,0.2,0.7c0.1,0.1,0.3,0.2,0.6,0.2c0.6,0,0.8-0.3,0.8-0.9v-2.3
		H85.6z M83.8,124.4L83.8,124.4c0.1-0.2,0.2-0.3,0.3-0.4c0.1-0.1,0.2-0.3,0.2-0.4H85v0.1c-0.1,0.1-0.2,0.2-0.4,0.4
		c-0.2,0.2-0.3,0.3-0.4,0.4H83.8z"/>
	<path class="st7" d="M86.5,124.7h1.1c0.5,0,0.8,0.1,1.1,0.2c0.2,0.1,0.3,0.4,0.3,0.7c0,0.2-0.1,0.4-0.2,0.5
		c-0.1,0.1-0.3,0.2-0.5,0.3v0c0.3,0,0.4,0.1,0.6,0.3c0.1,0.1,0.2,0.3,0.2,0.6c0,0.3-0.1,0.6-0.3,0.8c-0.2,0.2-0.5,0.3-0.9,0.3h-1.3
		V124.7z M87.1,126.2h0.6c0.2,0,0.4,0,0.5-0.1s0.2-0.2,0.2-0.4c0-0.2-0.1-0.3-0.2-0.4c-0.1-0.1-0.3-0.1-0.6-0.1h-0.5V126.2z
		 M87.1,126.7v1.1h0.6c0.2,0,0.4,0,0.6-0.1c0.1-0.1,0.2-0.2,0.2-0.4c0-0.2-0.1-0.3-0.2-0.4c-0.1-0.1-0.3-0.1-0.6-0.1H87.1z"/>
	<path class="st7" d="M89.8,128.3v-3.6h0.6v3.1h1.5v0.5H89.8z"/>
	<path class="st7" d="M92.5,128.3v-3.6h0.6v3.6H92.5z"/>
	<path class="st7" d="M95.5,125.2c-0.3,0-0.6,0.1-0.8,0.4c-0.2,0.2-0.3,0.6-0.3,1c0,0.4,0.1,0.8,0.3,1c0.2,0.2,0.5,0.3,0.8,0.3
		c0.2,0,0.3,0,0.4,0c0.1,0,0.3-0.1,0.4-0.1v0.5c-0.3,0.1-0.6,0.2-1,0.2c-0.5,0-0.9-0.2-1.2-0.5c-0.3-0.3-0.4-0.8-0.4-1.4
		c0-0.4,0.1-0.7,0.2-1c0.1-0.3,0.3-0.5,0.6-0.6c0.3-0.1,0.6-0.2,0.9-0.2c0.4,0,0.7,0.1,1,0.2l-0.2,0.5c-0.1-0.1-0.2-0.1-0.4-0.2
		C95.8,125.2,95.7,125.2,95.5,125.2z"/>
	<path class="st7" d="M100.4,126.5c0,0.6-0.1,1-0.4,1.4c-0.3,0.3-0.7,0.5-1.2,0.5c-0.5,0-1-0.2-1.2-0.5c-0.3-0.3-0.4-0.8-0.4-1.4
		c0-0.6,0.1-1,0.4-1.4c0.3-0.3,0.7-0.5,1.2-0.5c0.5,0,0.9,0.2,1.2,0.5C100.2,125.5,100.4,125.9,100.4,126.5z M97.6,126.5
		c0,0.4,0.1,0.8,0.3,1c0.2,0.2,0.4,0.3,0.8,0.3c0.3,0,0.6-0.1,0.8-0.3c0.2-0.2,0.3-0.6,0.3-1c0-0.4-0.1-0.8-0.3-1
		c-0.2-0.2-0.4-0.3-0.8-0.3c-0.4,0-0.6,0.1-0.8,0.3C97.7,125.7,97.6,126.1,97.6,126.5z"/>
	<path class="st7" d="M103.2,127.3c0,0.3-0.1,0.6-0.3,0.7s-0.5,0.3-0.9,0.3s-0.7-0.1-1-0.2v-0.6c0.2,0.1,0.3,0.1,0.5,0.2
		c0.2,0,0.4,0.1,0.5,0.1c0.2,0,0.4,0,0.5-0.1c0.1-0.1,0.2-0.2,0.2-0.4c0-0.1-0.1-0.2-0.2-0.3s-0.3-0.2-0.6-0.3
		c-0.3-0.1-0.6-0.3-0.7-0.5c-0.1-0.2-0.2-0.4-0.2-0.6c0-0.3,0.1-0.5,0.3-0.7s0.5-0.3,0.9-0.3c0.3,0,0.7,0.1,1,0.2l-0.2,0.5
		c-0.3-0.1-0.6-0.2-0.8-0.2c-0.2,0-0.3,0-0.4,0.1s-0.1,0.2-0.1,0.3c0,0.1,0,0.2,0.1,0.2c0,0.1,0.1,0.1,0.2,0.2s0.3,0.1,0.5,0.2
		c0.3,0.1,0.5,0.2,0.6,0.3c0.1,0.1,0.2,0.2,0.3,0.3C103.2,127,103.2,127.1,103.2,127.3z"/>
</g>
<g>
	<path class="st8" d="M63.6,137v2.3c0,0.3-0.1,0.5-0.2,0.7c-0.1,0.2-0.3,0.3-0.5,0.5c-0.2,0.1-0.5,0.2-0.8,0.2c-0.4,0-0.8-0.1-1-0.4
		s-0.4-0.6-0.4-1V137h0.6v2.3c0,0.3,0.1,0.5,0.2,0.7c0.1,0.1,0.3,0.2,0.6,0.2c0.6,0,0.8-0.3,0.8-0.9V137H63.6z"/>
	<path class="st8" d="M66.5,139.6c0,0.3-0.1,0.6-0.3,0.7s-0.5,0.3-0.9,0.3s-0.7-0.1-1-0.2v-0.6c0.2,0.1,0.3,0.1,0.5,0.2
		c0.2,0,0.4,0.1,0.5,0.1c0.2,0,0.4,0,0.5-0.1c0.1-0.1,0.2-0.2,0.2-0.4c0-0.1-0.1-0.2-0.2-0.3s-0.3-0.2-0.6-0.3
		c-0.3-0.1-0.6-0.3-0.7-0.5c-0.1-0.2-0.2-0.4-0.2-0.6c0-0.3,0.1-0.5,0.3-0.7s0.5-0.3,0.9-0.3c0.3,0,0.7,0.1,1,0.2l-0.2,0.5
		c-0.3-0.1-0.6-0.2-0.8-0.2c-0.2,0-0.3,0-0.4,0.1s-0.1,0.2-0.1,0.3c0,0.1,0,0.2,0.1,0.2c0,0.1,0.1,0.1,0.2,0.2s0.3,0.1,0.5,0.2
		c0.3,0.1,0.5,0.2,0.6,0.3c0.1,0.1,0.2,0.2,0.3,0.3C66.5,139.3,66.5,139.4,66.5,139.6z"/>
	<path class="st8" d="M70.4,138.7c0,0.6-0.1,1-0.4,1.4c-0.3,0.3-0.7,0.5-1.2,0.5c-0.5,0-1-0.2-1.2-0.5c-0.3-0.3-0.4-0.8-0.4-1.4
		c0-0.6,0.1-1,0.4-1.4c0.3-0.3,0.7-0.5,1.2-0.5c0.5,0,0.9,0.2,1.2,0.5C70.3,137.7,70.4,138.2,70.4,138.7z M67.7,138.7
		c0,0.4,0.1,0.8,0.3,1c0.2,0.2,0.4,0.3,0.8,0.3c0.3,0,0.6-0.1,0.8-0.3c0.2-0.2,0.3-0.6,0.3-1c0-0.4-0.1-0.8-0.3-1
		c-0.2-0.2-0.4-0.3-0.8-0.3c-0.4,0-0.6,0.1-0.8,0.3C67.8,138,67.7,138.3,67.7,138.7z"/>
	<path class="st8" d="M75.4,138.7c0,0.6-0.2,1-0.5,1.4s-0.8,0.5-1.4,0.5h-1V137h1.1c0.6,0,1,0.2,1.3,0.5
		C75.2,137.7,75.4,138.2,75.4,138.7z M74.8,138.7c0-0.9-0.4-1.3-1.2-1.3h-0.5v2.6h0.4C74.3,140,74.8,139.6,74.8,138.7z"/>
	<path class="st8" d="M78.2,140.5h-2V137h2v0.5h-1.4v1h1.3v0.5h-1.3v1.1h1.4V140.5z"/>
	<path class="st8" d="M81.8,140.5l-1-3h0c0,0.4,0,0.9,0,1.2v1.7h-0.5V137h0.8l1,2.8h0l1-2.8h0.8v3.6h-0.6v-1.8c0-0.2,0-0.4,0-0.7
		c0-0.3,0-0.5,0-0.5h0l-1.1,3H81.8z"/>
	<path class="st8" d="M87.1,140.5l-0.4-1h-1.4l-0.3,1h-0.6l1.3-3.6h0.6l1.3,3.6H87.1z M86.5,139l-0.3-1c0-0.1-0.1-0.2-0.1-0.3
		c0-0.1-0.1-0.2-0.1-0.3c0,0.2-0.1,0.4-0.2,0.7l-0.3,0.9H86.5z M85.7,136.7L85.7,136.7c0.1-0.2,0.2-0.3,0.3-0.4
		c0.1-0.1,0.2-0.3,0.2-0.4h0.7v0.1c-0.1,0.1-0.2,0.2-0.4,0.4c-0.2,0.2-0.3,0.3-0.4,0.4H85.7z"/>
	<path class="st8" d="M90.2,139.6c0,0.3-0.1,0.6-0.3,0.7s-0.5,0.3-0.9,0.3s-0.7-0.1-1-0.2v-0.6c0.2,0.1,0.3,0.1,0.5,0.2
		c0.2,0,0.4,0.1,0.5,0.1c0.2,0,0.4,0,0.5-0.1c0.1-0.1,0.2-0.2,0.2-0.4c0-0.1-0.1-0.2-0.2-0.3s-0.3-0.2-0.6-0.3
		c-0.3-0.1-0.6-0.3-0.7-0.5c-0.1-0.2-0.2-0.4-0.2-0.6c0-0.3,0.1-0.5,0.3-0.7s0.5-0.3,0.9-0.3c0.3,0,0.7,0.1,1,0.2l-0.2,0.5
		c-0.3-0.1-0.6-0.2-0.8-0.2c-0.2,0-0.3,0-0.4,0.1s-0.1,0.2-0.1,0.3c0,0.1,0,0.2,0.1,0.2c0,0.1,0.1,0.1,0.2,0.2s0.3,0.1,0.5,0.2
		c0.3,0.1,0.5,0.2,0.6,0.3c0.1,0.1,0.2,0.2,0.3,0.3C90.2,139.3,90.2,139.4,90.2,139.6z"/>
	<path class="st8" d="M92.4,137.4c-0.3,0-0.6,0.1-0.8,0.4c-0.2,0.2-0.3,0.6-0.3,1c0,0.4,0.1,0.8,0.3,1c0.2,0.2,0.5,0.3,0.8,0.3
		c0.2,0,0.3,0,0.4,0c0.1,0,0.3-0.1,0.4-0.1v0.5c-0.3,0.1-0.6,0.2-1,0.2c-0.5,0-0.9-0.2-1.2-0.5c-0.3-0.3-0.4-0.8-0.4-1.4
		c0-0.4,0.1-0.7,0.2-1c0.1-0.3,0.3-0.5,0.6-0.6c0.3-0.1,0.6-0.2,0.9-0.2c0.4,0,0.7,0.1,1,0.2l-0.2,0.5c-0.1-0.1-0.2-0.1-0.4-0.2
		C92.7,137.4,92.6,137.4,92.4,137.4z"/>
	<path class="st8" d="M96.3,140.5l-0.4-1h-1.4l-0.3,1h-0.6l1.3-3.6h0.6l1.3,3.6H96.3z M95.8,139l-0.3-1c0-0.1-0.1-0.2-0.1-0.3
		c0-0.1-0.1-0.2-0.1-0.3c0,0.2-0.1,0.4-0.2,0.7l-0.3,0.9H95.8z"/>
	<path class="st8" d="M98,139.1v1.4h-0.6V137h1c0.5,0,0.8,0.1,1,0.3c0.2,0.2,0.3,0.4,0.3,0.8c0,0.4-0.2,0.8-0.7,0.9l1,1.6h-0.7
		l-0.9-1.4H98z M98,138.6h0.4c0.3,0,0.5-0.1,0.6-0.2c0.1-0.1,0.2-0.3,0.2-0.4c0-0.2-0.1-0.3-0.2-0.4s-0.3-0.1-0.6-0.1H98V138.6z"/>
	<path class="st8" d="M102.8,140.5l-0.4-1h-1.4l-0.3,1h-0.6l1.3-3.6h0.6l1.3,3.6H102.8z M102.3,139l-0.3-1c0-0.1-0.1-0.2-0.1-0.3
		c0-0.1-0.1-0.2-0.1-0.3c0,0.2-0.1,0.4-0.2,0.7l-0.3,0.9H102.3z"/>
</g>
<g>
	<path class="st9" d="M67.6,152.5h-0.7l-1.8-2.8h0l0,0.2c0,0.3,0,0.6,0,0.8v1.9h-0.5v-3.6h0.7l1.8,2.8h0c0,0,0-0.2,0-0.4
		s0-0.4,0-0.6v-1.9h0.5V152.5z"/>
	<path class="st9" d="M71.7,150.7c0,0.6-0.1,1-0.4,1.4c-0.3,0.3-0.7,0.5-1.2,0.5c-0.5,0-1-0.2-1.2-0.5c-0.3-0.3-0.4-0.8-0.4-1.4
		c0-0.6,0.1-1,0.4-1.4c0.3-0.3,0.7-0.5,1.2-0.5c0.5,0,0.9,0.2,1.2,0.5C71.5,149.7,71.7,150.1,71.7,150.7z M69,150.7
		c0,0.4,0.1,0.8,0.3,1c0.2,0.2,0.4,0.3,0.8,0.3c0.3,0,0.6-0.1,0.8-0.3c0.2-0.2,0.3-0.6,0.3-1c0-0.4-0.1-0.8-0.3-1
		c-0.2-0.2-0.4-0.3-0.8-0.3c-0.4,0-0.6,0.1-0.8,0.3C69,149.9,69,150.3,69,150.7z"/>
	<path class="st9" d="M73.7,152.5v-3.6h0.6v3.6H73.7z"/>
	<path class="st9" d="M78.2,152.5h-0.7l-1.8-2.8h0l0,0.2c0,0.3,0,0.6,0,0.8v1.9h-0.5v-3.6H76l1.8,2.8h0c0,0,0-0.2,0-0.4s0-0.4,0-0.6
		v-1.9h0.5V152.5z"/>
	<path class="st9" d="M79.8,152.5h-0.6v-3.6h2v0.5h-1.4v1.1h1.3v0.5h-1.3V152.5z"/>
	<path class="st9" d="M85,150.7c0,0.6-0.1,1-0.4,1.4c-0.3,0.3-0.7,0.5-1.2,0.5c-0.5,0-1-0.2-1.2-0.5c-0.3-0.3-0.4-0.8-0.4-1.4
		c0-0.6,0.1-1,0.4-1.4c0.3-0.3,0.7-0.5,1.2-0.5c0.5,0,0.9,0.2,1.2,0.5C84.9,149.7,85,150.1,85,150.7z M82.3,150.7
		c0,0.4,0.1,0.8,0.3,1c0.2,0.2,0.4,0.3,0.8,0.3c0.3,0,0.6-0.1,0.8-0.3c0.2-0.2,0.3-0.6,0.3-1c0-0.4-0.1-0.8-0.3-1
		c-0.2-0.2-0.4-0.3-0.8-0.3c-0.4,0-0.6,0.1-0.8,0.3C82.4,149.9,82.3,150.3,82.3,150.7z"/>
	<path class="st9" d="M86.4,151.1v1.4h-0.6v-3.6h1c0.5,0,0.8,0.1,1,0.3c0.2,0.2,0.3,0.4,0.3,0.8c0,0.4-0.2,0.8-0.7,1l1,1.6h-0.7
		l-0.9-1.4H86.4z M86.4,150.6h0.4c0.3,0,0.5,0,0.6-0.2c0.1-0.1,0.2-0.2,0.2-0.4c0-0.2-0.1-0.3-0.2-0.4s-0.3-0.1-0.6-0.1h-0.4V150.6z
		"/>
	<path class="st9" d="M90.5,152.5l-1-3h0c0,0.4,0,0.9,0,1.2v1.7H89v-3.6h0.8l1,2.8h0l1-2.8h0.8v3.6h-0.6v-1.8c0-0.2,0-0.4,0-0.7
		c0-0.3,0-0.5,0-0.5h0l-1.1,3H90.5z"/>
	<path class="st9" d="M95.8,152.5l-0.4-1h-1.4l-0.3,1h-0.6l1.3-3.6h0.6l1.3,3.6H95.8z M95.3,151l-0.3-1c0-0.1-0.1-0.2-0.1-0.3
		c0-0.1-0.1-0.2-0.1-0.3c0,0.2-0.1,0.4-0.2,0.7l-0.3,0.9H95.3z"/>
	<path class="st9" d="M99.8,150.7c0,0.6-0.2,1-0.5,1.4c-0.3,0.3-0.8,0.5-1.4,0.5h-1v-3.6H98c0.6,0,1,0.2,1.3,0.5
		C99.6,149.7,99.8,150.1,99.8,150.7z M99.2,150.7c0-0.9-0.4-1.3-1.2-1.3h-0.5v2.6h0.4C98.8,152,99.2,151.6,99.2,150.7z"/>
	<path class="st9" d="M102.8,152.5l-0.4-1h-1.4l-0.3,1h-0.6l1.3-3.6h0.6l1.3,3.6H102.8z M102.3,151l-0.3-1c0-0.1-0.1-0.2-0.1-0.3
		c0-0.1-0.1-0.2-0.1-0.3c0,0.2-0.1,0.4-0.2,0.7l-0.3,0.9H102.3z"/>
</g>
<g>
	<path class="st10" d="M59.4,164.4l-0.4-1h-1.4l-0.3,1h-0.6l1.3-3.6h0.6l1.3,3.6H59.4z M58.8,162.9l-0.3-1c0-0.1-0.1-0.2-0.1-0.3
		c0-0.1-0.1-0.2-0.1-0.3c0,0.2-0.1,0.4-0.2,0.7l-0.3,0.9H58.8z"/>
	<path class="st10" d="M60.4,164.4v-3.6H61v3.1h1.5v0.5H60.4z"/>
	<path class="st10" d="M64.7,164.4l-1-3h0c0,0.4,0,0.9,0,1.2v1.7h-0.5v-3.6H64l1,2.8h0l1-2.8h0.8v3.6h-0.6v-1.8c0-0.2,0-0.4,0-0.7
		c0-0.3,0-0.5,0-0.5h0l-1.1,3H64.7z"/>
	<path class="st10" d="M70,164.4l-0.4-1h-1.4l-0.3,1h-0.6l1.3-3.6h0.6l1.3,3.6H70z M69.5,162.9l-0.3-1c0-0.1-0.1-0.2-0.1-0.3
		c0-0.1-0.1-0.2-0.1-0.3c0,0.2-0.1,0.4-0.2,0.7l-0.3,0.9H69.5z"/>
	<path class="st10" d="M72.6,161.3c-0.3,0-0.6,0.1-0.8,0.4c-0.2,0.2-0.3,0.6-0.3,1c0,0.4,0.1,0.8,0.3,1c0.2,0.2,0.5,0.3,0.8,0.3
		c0.2,0,0.3,0,0.4,0s0.3-0.1,0.4-0.1v0.5c-0.3,0.1-0.6,0.2-1,0.2c-0.5,0-0.9-0.2-1.2-0.5s-0.4-0.8-0.4-1.4c0-0.4,0.1-0.7,0.2-1
		c0.1-0.3,0.3-0.5,0.6-0.6c0.3-0.1,0.6-0.2,0.9-0.2c0.4,0,0.7,0.1,1,0.2l-0.2,0.5c-0.1-0.1-0.2-0.1-0.4-0.2
		C72.9,161.3,72.7,161.3,72.6,161.3z"/>
	<path class="st10" d="M76.3,164.4h-2v-3.6h2v0.5h-1.4v1h1.3v0.5h-1.3v1.1h1.4V164.4z"/>
	<path class="st10" d="M80,164.4h-0.7l-1.8-2.8h0l0,0.2c0,0.3,0,0.6,0,0.8v1.9H77v-3.6h0.7l1.8,2.8h0c0,0,0-0.2,0-0.4s0-0.4,0-0.6
		v-1.9H80V164.4z"/>
	<path class="st10" d="M83.2,164.4l-0.4-1h-1.4l-0.3,1h-0.6l1.3-3.6h0.6l1.3,3.6H83.2z M82.7,162.9l-0.3-1c0-0.1-0.1-0.2-0.1-0.3
		c0-0.1-0.1-0.2-0.1-0.3c0,0.2-0.1,0.4-0.2,0.7l-0.3,0.9H82.7z"/>
	<path class="st10" d="M85.8,164.4l-1-3h0c0,0.4,0,0.9,0,1.2v1.7h-0.5v-3.6h0.8l1,2.8h0l1-2.8h0.8v3.6h-0.6v-1.8c0-0.2,0-0.4,0-0.7
		c0-0.3,0-0.5,0-0.5h0l-1.1,3H85.8z"/>
	<path class="st10" d="M88.9,164.4v-3.6h0.6v3.6H88.9z"/>
	<path class="st10" d="M92.4,164.4h-2v-3.6h2v0.5H91v1h1.3v0.5H91v1.1h1.4V164.4z"/>
	<path class="st10" d="M96.2,164.4h-0.7l-1.8-2.8h0l0,0.2c0,0.3,0,0.6,0,0.8v1.9h-0.5v-3.6h0.7l1.8,2.8h0c0,0,0-0.2,0-0.4
		s0-0.4,0-0.6v-1.9h0.5V164.4z"/>
	<path class="st10" d="M98.3,164.4h-0.6v-3.1h-1v-0.5h2.7v0.5h-1V164.4z"/>
	<path class="st10" d="M103.1,162.6c0,0.6-0.1,1-0.4,1.4c-0.3,0.3-0.7,0.5-1.2,0.5c-0.5,0-1-0.2-1.2-0.5c-0.3-0.3-0.4-0.8-0.4-1.4
		c0-0.6,0.1-1,0.4-1.4c0.3-0.3,0.7-0.5,1.2-0.5c0.5,0,0.9,0.2,1.2,0.5C103,161.6,103.1,162.1,103.1,162.6z M100.4,162.6
		c0,0.4,0.1,0.8,0.3,1c0.2,0.2,0.4,0.3,0.8,0.3c0.3,0,0.6-0.1,0.8-0.3c0.2-0.2,0.3-0.6,0.3-1c0-0.4-0.1-0.8-0.3-1
		c-0.2-0.2-0.4-0.3-0.8-0.3c-0.4,0-0.6,0.1-0.8,0.3C100.5,161.9,100.4,162.2,100.4,162.6z"/>
</g>
</svg>
