<?xml version="1.0" encoding="utf-8"?>
<!-- Generator: Adobe Illustrator 25.0.0, SVG Export Plug-In . SVG Version: 6.00 Build 0)  -->
<svg version="1.1" id="Layer_1" xmlns="http://www.w3.org/2000/svg" xmlns:xlink="http://www.w3.org/1999/xlink" x="0px" y="0px"
	 viewBox="0 0 360 182" style="enable-background:new 0 0 360 182;" xml:space="preserve">
<style type="text/css">
	.st0{fill:#FFFFFF;}
	.st1{clip-path:url(#SVGID_2_);}
	.st2{fill:#2163FF;}
	.st3{clip-path:url(#SVGID_4_);}
	.st4{fill:#87E08A;}
	.st5{clip-path:url(#SVGID_6_);}
	.st6{clip-path:url(#SVGID_8_);}
	.st7{clip-path:url(#SVGID_10_);}
	.st8{clip-path:url(#SVGID_12_);}
	.st9{clip-path:url(#SVGID_14_);}
	.st10{clip-path:url(#SVGID_16_);}
	.st11{clip-path:url(#SVGID_18_);}
	.st12{clip-path:url(#SVGID_20_);}
	.st13{clip-path:url(#SVGID_22_);}
	.st14{clip-path:url(#SVGID_24_);}
	.st15{clip-path:url(#SVGID_26_);}
	.st16{clip-path:url(#SVGID_28_);}
	.st17{clip-path:url(#SVGID_30_);}
	.st18{clip-path:url(#SVGID_32_);}
</style>
<g>
	<g>
		<rect y="0" class="st0" width="360" height="182"/>
	</g>
	<g>
		<g>
			<defs>
				<rect id="SVGID_1_" y="0" width="360" height="182"/>
			</defs>
			<clipPath id="SVGID_2_">
				<use xlink:href="#SVGID_1_"  style="overflow:visible;"/>
			</clipPath>
			<g class="st1">
				<path class="st2" d="M197.3,97.5l-66.8-15.4c7.3-31.5,34.5-53.2,66.8-53.2V97.5z"/>
			</g>
		</g>
		<g>
			<defs>
				<rect id="SVGID_3_" y="0" width="360" height="182"/>
			</defs>
			<clipPath id="SVGID_4_">
				<use xlink:href="#SVGID_3_"  style="overflow:visible;"/>
			</clipPath>
			<g class="st3">
				<path class="st4" d="M197.3,97.5V28.9c37.9,0,68.6,30.7,68.6,68.6s-30.7,68.6-68.6,68.6s-68.6-30.7-68.6-68.6
					c0-5.2,0.6-10.4,1.8-15.4L197.3,97.5z"/>
			</g>
		</g>
		<g>
			<defs>
				<rect id="SVGID_5_" y="0" width="360" height="182"/>
			</defs>
			<clipPath id="SVGID_6_">
				<use xlink:href="#SVGID_5_"  style="overflow:visible;"/>
			</clipPath>
			<g class="st5">
				<path class="st0" d="M197.3,33.7c35.2,0,63.8,28.6,63.8,63.8s-28.6,63.8-63.8,63.8s-63.8-28.6-63.8-63.8S162.1,33.7,197.3,33.7"
					/>
			</g>
		</g>
		<g>
			<defs>
				<rect id="SVGID_7_" y="0" width="360" height="182"/>
			</defs>
			<clipPath id="SVGID_8_">
				<use xlink:href="#SVGID_7_"  style="overflow:visible;"/>
			</clipPath>
			<g class="st6">
				<path class="st2" d="M195,32.3h-0.2c0-6.2-5-11.3-11.3-11.3v-0.2C189.8,20.8,195,26,195,32.3"/>
			</g>
		</g>
		<g>
			<defs>
				<rect id="SVGID_9_" y="0" width="360" height="182"/>
			</defs>
			<clipPath id="SVGID_10_">
				<use xlink:href="#SVGID_9_"  style="overflow:visible;"/>
			</clipPath>
			<g class="st7">
				<path class="st4" d="M256.2,154.9c-6.3,0-11.5-5.2-11.5-11.5h0.2c0,6.2,5.1,11.3,11.3,11.3V154.9z"/>
			</g>
		</g>
		<g>
			<defs>
				<rect id="SVGID_11_" y="0" width="360" height="182"/>
			</defs>
			<clipPath id="SVGID_12_">
				<use xlink:href="#SVGID_11_"  style="overflow:visible;"/>
			</clipPath>
			<g class="st8">
				<path class="st2" d="M152,22.8h-4.8v-1l1.7-1.7c0.5-0.5,0.8-0.9,1-1.1s0.3-0.4,0.3-0.6c0.1-0.2,0.1-0.3,0.1-0.5
					c0-0.3-0.1-0.5-0.2-0.6c-0.2-0.1-0.4-0.2-0.6-0.2c-0.3,0-0.5,0.1-0.8,0.2s-0.5,0.3-0.8,0.5l-0.8-0.9c0.3-0.3,0.6-0.5,0.8-0.6
					s0.5-0.2,0.7-0.3c0.2-0.1,0.6-0.1,0.9-0.1c0.4,0,0.8,0.1,1.1,0.2c0.3,0.2,0.6,0.4,0.8,0.7c0.2,0.3,0.3,0.6,0.3,1
					c0,0.3-0.1,0.6-0.2,0.9c-0.1,0.3-0.3,0.6-0.5,0.8c-0.2,0.3-0.6,0.7-1.2,1.2l-0.9,0.8v0.1h3L152,22.8L152,22.8z"/>
			</g>
		</g>
		<g>
			<defs>
				<rect id="SVGID_13_" y="0" width="360" height="182"/>
			</defs>
			<clipPath id="SVGID_14_">
				<use xlink:href="#SVGID_13_"  style="overflow:visible;"/>
			</clipPath>
			<g class="st9">
				<path class="st2" d="M156.2,22.8h-1.4v-3.9v-0.6v-0.7c-0.2,0.2-0.4,0.4-0.5,0.5l-0.8,0.6l-0.7-0.9L155,16h1.2V22.8z"/>
			</g>
		</g>
		<g>
			<defs>
				<rect id="SVGID_15_" y="0" width="360" height="182"/>
			</defs>
			<clipPath id="SVGID_16_">
				<use xlink:href="#SVGID_15_"  style="overflow:visible;"/>
			</clipPath>
			<g class="st10">
				<path class="st2" d="M159.9,21.8c-0.2,0.6-0.4,1.4-0.8,2.2h-1c0.2-0.8,0.4-1.6,0.5-2.3L159.9,21.8L159.9,21.8z"/>
			</g>
		</g>
		<g>
			<defs>
				<rect id="SVGID_17_" y="0" width="360" height="182"/>
			</defs>
			<clipPath id="SVGID_18_">
				<use xlink:href="#SVGID_17_"  style="overflow:visible;"/>
			</clipPath>
			<g class="st11">
				<path class="st2" d="M165.4,17.5c0,0.4-0.1,0.8-0.4,1.1c-0.3,0.3-0.6,0.5-1.1,0.6l0,0c0.6,0.1,1,0.2,1.2,0.5
					c0.3,0.3,0.4,0.6,0.4,1.1c0,0.7-0.2,1.2-0.7,1.5c-0.5,0.4-1.2,0.5-2,0.5c-0.7,0-1.4-0.1-2-0.4v-1.2c0.3,0.1,0.6,0.2,0.9,0.3
					c0.3,0.1,0.6,0.1,0.9,0.1c0.5,0,0.8-0.1,1.1-0.2c0.2-0.2,0.3-0.4,0.3-0.8c0-0.3-0.1-0.5-0.4-0.7c-0.3-0.1-0.7-0.2-1.2-0.2h-0.5
					v-1.1h0.5c0.5,0,0.9-0.1,1.2-0.2c0.2-0.1,0.4-0.4,0.4-0.7c0-0.5-0.3-0.8-1-0.8c-0.2,0-0.5,0-0.7,0.1s-0.5,0.2-0.8,0.4l-0.7-1
					c0.6-0.4,1.4-0.7,2.2-0.7c0.7,0,1.3,0.1,1.7,0.4C165.2,16.6,165.4,17,165.4,17.5"/>
			</g>
		</g>
		<g>
			<defs>
				<rect id="SVGID_19_" y="0" width="360" height="182"/>
			</defs>
			<clipPath id="SVGID_20_">
				<use xlink:href="#SVGID_19_"  style="overflow:visible;"/>
			</clipPath>
			<g class="st12">
				<path class="st2" d="M168.8,21.7c0.3,0,0.5-0.1,0.7-0.3c0.2-0.2,0.2-0.5,0.2-0.9c0-0.3-0.1-0.6-0.2-0.8
					c-0.2-0.2-0.4-0.3-0.7-0.3s-0.5,0.1-0.7,0.3c-0.2,0.2-0.3,0.4-0.3,0.7c0,0.4,0.1,0.7,0.3,0.9C168.2,21.6,168.5,21.7,168.8,21.7
					 M166.3,19.9c0-1.3,0.3-2.4,0.9-3c0.6-0.7,1.4-1,2.6-1c0.4,0,0.7,0,0.9,0.1v1.2c-0.3-0.1-0.6-0.1-0.8-0.1
					c-0.5,0-0.9,0.1-1.2,0.2s-0.5,0.4-0.7,0.7c-0.2,0.3-0.2,0.7-0.3,1.2h0.1c0.3-0.5,0.8-0.8,1.5-0.8c0.6,0,1.1,0.2,1.4,0.6
					c0.3,0.4,0.5,0.9,0.5,1.6s-0.2,1.3-0.6,1.7c-0.4,0.4-1,0.6-1.7,0.6c-0.5,0-0.9-0.1-1.3-0.3c-0.4-0.2-0.7-0.6-0.9-1
					C166.4,21.1,166.3,20.5,166.3,19.9"/>
			</g>
		</g>
		<g>
			<defs>
				<rect id="SVGID_21_" y="0" width="360" height="182"/>
			</defs>
			<clipPath id="SVGID_22_">
				<use xlink:href="#SVGID_21_"  style="overflow:visible;"/>
			</clipPath>
			<g class="st13">
				<path class="st2" d="M177.7,20.7c0,0.4,0,0.7,0.1,0.9c0.1,0.2,0.2,0.3,0.3,0.3c0.3,0,0.4-0.4,0.4-1.2c0-0.8-0.1-1.2-0.4-1.2
					c-0.2,0-0.3,0.1-0.3,0.3C177.7,20,177.7,20.3,177.7,20.7 M179.7,20.7c0,0.7-0.1,1.2-0.4,1.6c-0.3,0.4-0.7,0.5-1.2,0.5
					s-0.9-0.2-1.2-0.6s-0.4-0.9-0.4-1.6c0-1.4,0.5-2.1,1.6-2.1c0.5,0,0.9,0.2,1.2,0.6C179.6,19.5,179.7,20,179.7,20.7 M178.2,16
					l-3.8,6.8h-1.1l3.8-6.8C177.1,16,178.2,16,178.2,16z M172.9,18c0,0.4,0,0.7,0.1,0.9c0.1,0.2,0.2,0.3,0.3,0.3
					c0.3,0,0.4-0.4,0.4-1.2c0-0.8-0.2-1.2-0.4-1.2s-0.3,0.1-0.3,0.3C172.9,17.3,172.9,17.6,172.9,18 M175,18c0,0.7-0.1,1.3-0.4,1.6
					c-0.3,0.4-0.7,0.5-1.2,0.5s-0.9-0.2-1.2-0.6s-0.4-0.9-0.4-1.6c0-1.4,0.5-2.1,1.6-2.1c0.5,0,0.9,0.2,1.2,0.6
					C174.8,16.8,175,17.3,175,18"/>
			</g>
		</g>
	</g>
	<g>
		<rect x="146.9" y="23.3" class="st2" width="33.2" height="0.5"/>
	</g>
	<g>
		<polygon class="st4" points="258.8,157.5 261.4,151.9 258,151.9 258,150.7 262.9,150.7 262.9,151.6 260.3,157.5 		"/>
	</g>
	<g>
		<g>
			<defs>
				<rect id="SVGID_23_" y="0" width="360" height="182"/>
			</defs>
			<clipPath id="SVGID_24_">
				<use xlink:href="#SVGID_23_"  style="overflow:visible;"/>
			</clipPath>
			<g class="st14">
				<path class="st4" d="M265.9,151.7c-0.2,0-0.4,0.1-0.6,0.2c-0.2,0.1-0.2,0.3-0.2,0.5s0.1,0.4,0.2,0.5s0.3,0.3,0.7,0.5
					c0.3-0.1,0.5-0.3,0.6-0.4s0.2-0.3,0.2-0.5s-0.1-0.4-0.2-0.5C266.4,151.7,266.2,151.7,265.9,151.7 M264.9,155.7
					c0,0.3,0.1,0.5,0.3,0.6c0.2,0.1,0.4,0.2,0.8,0.2s0.6-0.1,0.8-0.2c0.2-0.2,0.3-0.4,0.3-0.6c0-0.2-0.1-0.4-0.3-0.6
					c-0.2-0.2-0.5-0.4-0.9-0.6C265.2,154.9,264.9,155.2,264.9,155.7 M265.9,150.6c0.7,0,1.2,0.1,1.6,0.4c0.4,0.3,0.6,0.7,0.6,1.2
					c0,0.3-0.1,0.7-0.3,0.9s-0.5,0.5-0.9,0.7c0.5,0.3,0.9,0.6,1.1,0.9c0.2,0.3,0.3,0.6,0.3,1c0,0.6-0.2,1-0.7,1.4
					c-0.4,0.3-1,0.5-1.7,0.5s-1.3-0.2-1.8-0.5c-0.4-0.3-0.6-0.8-0.6-1.3c0-0.4,0.1-0.7,0.3-1s0.5-0.6,1-0.8
					c-0.4-0.2-0.7-0.5-0.8-0.8c-0.2-0.3-0.3-0.6-0.3-0.9c0-0.5,0.2-0.9,0.6-1.2C264.8,150.8,265.3,150.6,265.9,150.6"/>
			</g>
		</g>
		<g>
			<defs>
				<rect id="SVGID_25_" y="0" width="360" height="182"/>
			</defs>
			<clipPath id="SVGID_26_">
				<use xlink:href="#SVGID_25_"  style="overflow:visible;"/>
			</clipPath>
			<g class="st15">
				<path class="st4" d="M270.8,156.5c-0.2,0.6-0.4,1.4-0.8,2.2h-1c0.2-0.8,0.4-1.6,0.5-2.3h1.3V156.5z"/>
			</g>
		</g>
		<g>
			<defs>
				<rect id="SVGID_27_" y="0" width="360" height="182"/>
			</defs>
			<clipPath id="SVGID_28_">
				<use xlink:href="#SVGID_27_"  style="overflow:visible;"/>
			</clipPath>
			<g class="st16">
				<path class="st4" d="M274.2,156.5c0.3,0,0.5-0.1,0.7-0.3s0.2-0.5,0.2-0.9c0-0.3-0.1-0.6-0.2-0.8s-0.4-0.3-0.7-0.3
					c-0.3,0-0.5,0.1-0.7,0.3s-0.3,0.4-0.3,0.7c0,0.4,0.1,0.7,0.3,0.9C273.7,156.3,273.9,156.5,274.2,156.5 M271.8,154.6
					c0-1.3,0.3-2.4,0.9-3c0.6-0.7,1.4-1,2.6-1c0.4,0,0.7,0,0.9,0.1v1.2c-0.3-0.1-0.5-0.1-0.8-0.1c-0.5,0-0.9,0.1-1.2,0.2
					c-0.3,0.1-0.5,0.4-0.7,0.7s-0.2,0.7-0.3,1.2h0.1c0.3-0.5,0.8-0.8,1.5-0.8c0.6,0,1.1,0.2,1.4,0.6c0.3,0.4,0.5,0.9,0.5,1.6
					c0,0.7-0.2,1.3-0.6,1.7s-1,0.6-1.7,0.6c-0.5,0-0.9-0.1-1.3-0.4c-0.4-0.2-0.7-0.6-0.9-1C271.9,155.8,271.8,155.3,271.8,154.6"/>
			</g>
		</g>
		<g>
			<defs>
				<rect id="SVGID_29_" y="0" width="360" height="182"/>
			</defs>
			<clipPath id="SVGID_30_">
				<use xlink:href="#SVGID_29_"  style="overflow:visible;"/>
			</clipPath>
			<g class="st17">
				<path class="st4" d="M280,155v-1.2c0-0.2,0-0.5,0-0.8c0-0.4,0-0.6,0-0.6l0,0c-0.1,0.3-0.3,0.5-0.4,0.7l-1.2,1.9L280,155L280,155
					z M282.2,156.1h-0.8v1.4H280v-1.4h-2.9v-1l3-4.4h1.3v4.3h0.8L282.2,156.1L282.2,156.1z"/>
			</g>
		</g>
		<g>
			<defs>
				<rect id="SVGID_31_" y="0" width="360" height="182"/>
			</defs>
			<clipPath id="SVGID_32_">
				<use xlink:href="#SVGID_31_"  style="overflow:visible;"/>
			</clipPath>
			<g class="st18">
				<path class="st4" d="M288.6,155.5c0,0.4,0,0.7,0.1,0.9s0.2,0.3,0.3,0.3c0.3,0,0.4-0.4,0.4-1.2s-0.1-1.2-0.4-1.2
					c-0.2,0-0.3,0.1-0.3,0.3C288.6,154.8,288.6,155.1,288.6,155.5 M290.7,155.5c0,0.7-0.1,1.2-0.4,1.6c-0.3,0.4-0.7,0.5-1.2,0.5
					s-0.9-0.2-1.2-0.6c-0.3-0.4-0.4-0.9-0.4-1.6c0-1.4,0.5-2.1,1.6-2.1c0.5,0,0.9,0.2,1.2,0.6C290.5,154.3,290.7,154.8,290.7,155.5
					 M289.1,150.7l-3.8,6.8h-1.1l3.8-6.8H289.1z M283.8,152.7c0,0.4,0,0.7,0.1,0.9s0.2,0.3,0.3,0.3c0.3,0,0.4-0.4,0.4-1.2
					s-0.1-1.2-0.4-1.2c-0.2,0-0.3,0.1-0.3,0.3C283.8,152.1,283.8,152.4,283.8,152.7 M285.9,152.7c0,0.7-0.1,1.3-0.4,1.6
					c-0.3,0.4-0.7,0.5-1.2,0.5s-0.9-0.2-1.2-0.6c-0.3-0.4-0.4-0.9-0.4-1.6c0-1.4,0.5-2.1,1.6-2.1c0.5,0,0.9,0.2,1.2,0.6
					C285.7,151.5,285.9,152.1,285.9,152.7"/>
			</g>
		</g>
	</g>
	<g>
		<rect x="257.8" y="158" class="st4" width="33.2" height="0.5"/>
	</g>
	<g>
		<rect x="20" y="93.1" class="st4" width="22.1" height="2.7"/>
	</g>
	<g>
		<rect x="20" y="69.5" class="st2" width="22.1" height="2.7"/>
	</g>
	<g>
		<path d="M27.3,78.9h-1.4v1.3h1.6v0.4h-2.1v-3.7h2v0.4h-1.5v1.2h1.4V78.9z"/>
		<path d="M29.2,78.9v0.4h-1.4v-0.4H29.2z"/>
		<path d="M29.7,80c0.2,0.1,0.5,0.2,0.9,0.2c0.5,0,0.8-0.3,0.8-0.6c0-0.3-0.2-0.5-0.7-0.7c-0.6-0.2-1-0.5-1-1c0-0.6,0.5-1,1.2-1
			c0.4,0,0.7,0.1,0.8,0.2l-0.1,0.4c-0.1-0.1-0.4-0.2-0.7-0.2c-0.5,0-0.7,0.3-0.7,0.6c0,0.3,0.2,0.5,0.7,0.7c0.6,0.2,0.9,0.5,0.9,1.1
			s-0.4,1.1-1.3,1.1c-0.4,0-0.7-0.1-0.9-0.2L29.7,80z"/>
		<path d="M33,76.9v3.7h-0.5v-3.7H33z"/>
		<path d="M36.4,80.5c-0.2,0.1-0.5,0.2-1,0.2c-1,0-1.8-0.7-1.8-1.9c0-1.2,0.8-1.9,1.9-1.9c0.5,0,0.8,0.1,0.9,0.2l-0.1,0.4
			c-0.2-0.1-0.4-0.2-0.7-0.2c-0.9,0-1.4,0.6-1.4,1.5s0.5,1.5,1.4,1.5c0.3,0,0.6-0.1,0.8-0.2L36.4,80.5z"/>
		<path d="M38.1,80.6v-3.7h0.5l1.2,1.9c0.3,0.4,0.5,0.8,0.7,1.2l0,0c0-0.5-0.1-0.9-0.1-1.5V77h0.5v3.7h-0.5l-1.2-1.9
			c-0.3-0.4-0.5-0.8-0.7-1.2l0,0c0,0.5,0,0.9,0,1.5v1.6L38.1,80.6L38.1,80.6z"/>
		<path d="M44.9,78.7c0,1.3-0.8,2-1.7,2c-1,0-1.7-0.8-1.7-1.9c0-1.2,0.7-1.9,1.7-1.9C44.3,76.8,44.9,77.6,44.9,78.7z M42.1,78.8
			c0,0.8,0.4,1.5,1.2,1.5s1.2-0.7,1.2-1.5c0-0.7-0.4-1.5-1.2-1.5C42.4,77.2,42.1,78,42.1,78.8z"/>
		<path d="M47.2,76.9v3.7h-0.5v-3.7H47.2z"/>
		<path d="M48,76.9c0.3,0,0.6-0.1,1-0.1c0.7,0,1.2,0.2,1.5,0.5S51,78,51,78.6c0,0.6-0.2,1.1-0.5,1.4s-0.9,0.5-1.6,0.5
			c-0.3,0-0.6,0-0.9,0V76.9z M48.5,80.2c0.1,0,0.3,0,0.5,0c1,0,1.6-0.6,1.6-1.6c0-0.9-0.5-1.4-1.5-1.4c-0.2,0-0.4,0-0.6,0V80.2z"/>
		<path d="M53.6,78.9h-1.4v1.3h1.6v0.4h-2.1v-3.7h2v0.4h-1.5v1.2h1.4V78.9z"/>
		<path d="M54.4,80.6v-3.7h0.5l1.2,1.9c0.3,0.4,0.5,0.8,0.7,1.2l0,0c0-0.5-0.1-0.9-0.1-1.5V77h0.5v3.7h-0.5l-1.2-1.9
			c-0.3-0.4-0.5-0.8-0.7-1.2l0,0c0,0.5,0,0.9,0,1.5v1.6L54.4,80.6L54.4,80.6z"/>
		<path d="M58.7,77.3h-1.1v-0.4h2.7v0.4h-1.1v3.3h-0.5C58.7,80.6,58.7,77.3,58.7,77.3z"/>
		<path d="M61.2,76.9v3.7h-0.5v-3.7H61.2z"/>
		<path d="M62.1,76.9h2v0.4h-1.5v1.2H64v0.4h-1.4v1.7h-0.5V76.9z"/>
		<path d="M65.2,76.9v3.7h-0.5v-3.7H65.2z"/>
		<path d="M68.6,80.5c-0.2,0.1-0.5,0.2-1,0.2c-1,0-1.8-0.7-1.8-1.9c0-1.2,0.8-1.9,1.9-1.9c0.5,0,0.8,0.1,0.9,0.2l-0.1,0.4
			c-0.2-0.1-0.4-0.2-0.7-0.2c-0.9,0-1.4,0.6-1.4,1.5s0.5,1.5,1.4,1.5c0.3,0,0.6-0.1,0.8-0.2L68.6,80.5z"/>
		<path d="M69.9,79.4l-0.4,1.2H69l1.3-3.7h0.6l1.3,3.7h-0.5l-0.4-1.2H69.9z M71.1,79.1L70.7,78c-0.1-0.2-0.1-0.5-0.2-0.7l0,0
			c-0.1,0.2-0.1,0.4-0.2,0.7L70,79.1H71.1z"/>
		<path d="M72.6,76.9c0.3,0,0.6-0.1,1-0.1c0.7,0,1.2,0.2,1.5,0.5s0.5,0.7,0.5,1.3c0,0.6-0.2,1.1-0.5,1.4s-0.9,0.5-1.6,0.5
			c-0.3,0-0.6,0-0.9,0V76.9z M73.1,80.2c0.1,0,0.3,0,0.5,0c1,0,1.6-0.6,1.6-1.6c0-0.9-0.5-1.4-1.5-1.4c-0.2,0-0.4,0-0.6,0V80.2z"/>
		<path d="M79.5,78.7c0,1.3-0.8,2-1.7,2c-1,0-1.7-0.8-1.7-1.9c0-1.2,0.7-1.9,1.7-1.9C78.8,76.8,79.5,77.6,79.5,78.7z M76.6,78.8
			c0,0.8,0.4,1.5,1.2,1.5c0.8,0,1.2-0.7,1.2-1.5c0-0.7-0.4-1.5-1.2-1.5C77,77.2,76.6,78,76.6,78.8z"/>
		<path d="M28.5,85.3c0,1.3-0.8,2-1.7,2c-1,0-1.7-0.8-1.7-1.9c0-1.2,0.7-1.9,1.7-1.9C27.9,83.4,28.5,84.2,28.5,85.3z M25.7,85.4
			c0,0.8,0.4,1.5,1.2,1.5c0.8,0,1.2-0.7,1.2-1.5c0-0.7-0.4-1.5-1.2-1.5C26.1,83.8,25.7,84.6,25.7,85.4z"/>
		<path d="M32.9,87.1c-0.2,0.1-0.5,0.2-1,0.2c-1,0-1.8-0.7-1.8-1.9c0-1.2,0.8-1.9,1.9-1.9c0.5,0,0.8,0.1,0.9,0.2L32.8,84
			c-0.2-0.1-0.4-0.2-0.7-0.2c-0.9,0-1.4,0.6-1.4,1.5s0.5,1.5,1.4,1.5c0.3,0,0.6-0.1,0.8-0.2L32.9,87.1z"/>
		<path d="M36.6,85.3c0,1.3-0.8,2-1.7,2c-1,0-1.7-0.8-1.7-1.9c0-1.2,0.7-1.9,1.7-1.9C35.9,83.4,36.6,84.2,36.6,85.3z M33.7,85.4
			c0,0.8,0.4,1.5,1.2,1.5s1.2-0.7,1.2-1.5c0-0.7-0.4-1.5-1.2-1.5C34.1,83.8,33.7,84.6,33.7,85.4z"/>
		<path d="M37.2,87.2v-3.7h0.5l1.2,1.9c0.3,0.4,0.5,0.8,0.7,1.2l0,0c0-0.5-0.1-0.9-0.1-1.5v-1.5H40v3.7h-0.5l-1.2-1.9
			c-0.3-0.4-0.5-0.8-0.7-1.2l0,0c0,0.5,0,0.9,0,1.5v1.6L37.2,87.2L37.2,87.2z"/>
		<path d="M42,83.5c0.2,0,0.5-0.1,0.9-0.1c0.5,0,0.8,0.1,1,0.3c0.2,0.2,0.3,0.4,0.3,0.8c0,0.3-0.1,0.6-0.3,0.8
			c-0.3,0.3-0.7,0.4-1.1,0.4c-0.1,0-0.3,0-0.4,0v1.5H42V83.5z M42.4,85.3c0.1,0,0.2,0,0.4,0c0.6,0,0.9-0.3,0.9-0.8s-0.3-0.7-0.9-0.7
			c-0.2,0-0.4,0-0.5,0L42.4,85.3L42.4,85.3z"/>
		<path d="M44.9,83.5c0.2,0,0.6-0.1,0.9-0.1c0.5,0,0.8,0.1,1.1,0.3c0.2,0.2,0.3,0.4,0.3,0.7c0,0.5-0.3,0.8-0.7,0.9l0,0
			c0.3,0.1,0.5,0.4,0.5,0.7c0.1,0.5,0.2,0.9,0.3,1h-0.5c-0.1-0.1-0.1-0.4-0.2-0.9c-0.1-0.5-0.3-0.7-0.7-0.7h-0.5V87h-0.5
			C44.9,87,44.9,83.5,44.9,83.5z M45.4,85.2h0.5c0.5,0,0.8-0.3,0.8-0.7c0-0.5-0.3-0.7-0.9-0.7c-0.2,0-0.4,0-0.5,0v1.4H45.4z"/>
		<path d="M51,85.3c0,1.3-0.8,2-1.7,2c-1,0-1.7-0.8-1.7-1.9c0-1.2,0.7-1.9,1.7-1.9C50.4,83.4,51,84.2,51,85.3z M48.2,85.4
			c0,0.8,0.4,1.5,1.2,1.5s1.2-0.7,1.2-1.5c0-0.7-0.4-1.5-1.2-1.5C48.6,83.8,48.2,84.6,48.2,85.4z"/>
		<path d="M51.7,83.5c0.2,0,0.5-0.1,0.9-0.1c0.5,0,0.8,0.1,1,0.3c0.2,0.1,0.3,0.4,0.3,0.7c0,0.4-0.2,0.7-0.6,0.8l0,0
			c0.4,0.1,0.8,0.4,0.8,0.9c0,0.3-0.1,0.6-0.3,0.7c-0.3,0.2-0.7,0.3-1.3,0.3c-0.3,0-0.6,0-0.7,0v-3.6H51.7z M52.1,85.1h0.4
			c0.5,0,0.8-0.3,0.8-0.6c0-0.4-0.3-0.6-0.8-0.6c-0.2,0-0.3,0-0.4,0V85.1z M52.1,86.8c0.1,0,0.2,0,0.4,0c0.5,0,1-0.2,1-0.7
			s-0.4-0.7-1-0.7h-0.4V86.8z"/>
		<path d="M54.6,83.5h0.5v3.3h1.6v0.4h-2.1V83.5z"/>
		<path d="M59.2,85.5h-1.4v1.3h1.6v0.4h-2.1v-3.7h2v0.4h-1.5v1.2h1.4V85.5z"/>
		<path d="M63.1,85.6c0-0.5-0.1-1.1-0.1-1.6l0,0c-0.1,0.4-0.3,0.9-0.5,1.4l-0.7,1.8h-0.4l-0.6-1.8c-0.2-0.5-0.3-1-0.4-1.4l0,0
			c0,0.5,0,1.1-0.1,1.6l-0.1,1.6h-0.5l0.3-3.7h0.6l0.6,1.8c0.2,0.5,0.3,0.9,0.4,1.2l0,0c0.1-0.4,0.2-0.8,0.4-1.2l0.7-1.8h0.6
			l0.2,3.7H63L63.1,85.6z"/>
		<path d="M64.9,86l-0.4,1.2H64l1.3-3.7h0.6l1.3,3.7h-0.5L66.2,86H64.9z M66.1,85.7l-0.4-1.1c-0.1-0.2-0.1-0.5-0.2-0.7l0,0
			c-0.1,0.2-0.1,0.4-0.2,0.7L65,85.7H66.1z"/>
	</g>
	<g>
		<path d="M25.4,100.6c0.2,0,0.5-0.1,0.9-0.1c0.5,0,0.8,0.1,1,0.3c0.2,0.2,0.3,0.4,0.3,0.8c0,0.3-0.1,0.6-0.3,0.8
			c-0.3,0.3-0.7,0.4-1.1,0.4c-0.1,0-0.3,0-0.4,0v1.5h-0.5v-3.7H25.4z M25.8,102.4c0.1,0,0.2,0,0.4,0c0.6,0,0.9-0.3,0.9-0.8
			s-0.3-0.7-0.9-0.7c-0.2,0-0.4,0-0.5,0v1.5H25.8z"/>
		<path d="M31.5,102.4c0,1.3-0.8,2-1.7,2c-1,0-1.7-0.8-1.7-1.9c0-1.2,0.7-1.9,1.7-1.9C30.8,100.5,31.5,101.3,31.5,102.4z
			 M28.6,102.5c0,0.8,0.4,1.5,1.2,1.5c0.8,0,1.2-0.7,1.2-1.5c0-0.7-0.4-1.5-1.2-1.5C29,100.9,28.6,101.7,28.6,102.5z"/>
		<path d="M32,103.7c0.2,0.1,0.5,0.2,0.9,0.2c0.5,0,0.8-0.3,0.8-0.6c0-0.3-0.2-0.5-0.7-0.7c-0.6-0.2-1-0.5-1-1c0-0.6,0.5-1,1.2-1
			c0.4,0,0.7,0.1,0.8,0.2l-0.1,0.4c-0.1-0.1-0.4-0.2-0.7-0.2c-0.5,0-0.7,0.3-0.7,0.6c0,0.3,0.2,0.5,0.7,0.7c0.6,0.2,0.9,0.5,0.9,1.1
			s-0.4,1.1-1.3,1.1c-0.4,0-0.7-0.1-0.9-0.2L32,103.7z"/>
		<path d="M35.3,100.6v3.7h-0.5v-3.7H35.3z"/>
		<path d="M36.1,100.6c0.2,0,0.5-0.1,0.9-0.1c0.5,0,0.8,0.1,1,0.3c0.2,0.1,0.3,0.4,0.3,0.7c0,0.4-0.2,0.7-0.6,0.8l0,0
			c0.4,0.1,0.8,0.4,0.8,0.9c0,0.3-0.1,0.6-0.3,0.7c-0.3,0.2-0.7,0.3-1.3,0.3c-0.3,0-0.6,0-0.7,0v-3.6H36.1z M36.6,102.2H37
			c0.5,0,0.8-0.3,0.8-0.6c0-0.4-0.3-0.6-0.8-0.6c-0.2,0-0.3,0-0.4,0V102.2z M36.6,103.9c0.1,0,0.2,0,0.4,0c0.5,0,1-0.2,1-0.7
			s-0.4-0.7-1-0.7h-0.4V103.9z"/>
		<path d="M39.1,100.6h0.5v3.3h1.6v0.4h-2.1V100.6z"/>
		<path d="M43.6,102.6h-1.4v1.3h1.6v0.4h-2.1v-3.7h2v0.4h-1.5v1.2h1.4V102.6z"/>
		<path d="M48.1,104.2c-0.2,0.1-0.5,0.2-1,0.2c-1,0-1.8-0.7-1.8-1.9c0-1.2,0.8-1.9,1.9-1.9c0.5,0,0.8,0.1,0.9,0.2l-0.1,0.4
			c-0.2-0.1-0.4-0.2-0.7-0.2c-0.9,0-1.4,0.6-1.4,1.5s0.5,1.5,1.4,1.5c0.3,0,0.6-0.1,0.8-0.2L48.1,104.2z"/>
		<path d="M51.8,102.4c0,1.3-0.8,2-1.7,2c-1,0-1.7-0.8-1.7-1.9c0-1.2,0.7-1.9,1.7-1.9C51.1,100.5,51.8,101.3,51.8,102.4z
			 M48.9,102.5c0,0.8,0.4,1.5,1.2,1.5s1.2-0.7,1.2-1.5c0-0.7-0.4-1.5-1.2-1.5C49.3,100.9,48.9,101.7,48.9,102.5z"/>
		<path d="M55.5,102.7c0-0.5-0.1-1.1-0.1-1.6l0,0c-0.1,0.4-0.3,0.9-0.5,1.4l-0.7,1.8H54l-0.6-1.8c-0.2-0.5-0.3-1-0.4-1.4l0,0
			c0,0.5,0,1.1-0.1,1.6l-0.1,1.6h-0.5l0.3-3.7h0.6l0.6,1.8c0.2,0.5,0.3,0.9,0.4,1.2l0,0c0.1-0.4,0.2-0.8,0.4-1.2l0.7-1.8h0.6
			l0.2,3.7h-0.5L55.5,102.7z"/>
		<path d="M56.8,100.6c0.2,0,0.5-0.1,0.9-0.1c0.5,0,0.8,0.1,1,0.3c0.2,0.2,0.3,0.4,0.3,0.8c0,0.3-0.1,0.6-0.3,0.8
			c-0.3,0.3-0.7,0.4-1.1,0.4c-0.1,0-0.3,0-0.4,0v1.5h-0.5L56.8,100.6L56.8,100.6z M57.3,102.4c0.1,0,0.2,0,0.4,0
			c0.6,0,0.9-0.3,0.9-0.8s-0.3-0.7-0.9-0.7c-0.2,0-0.4,0-0.5,0L57.3,102.4L57.3,102.4z"/>
		<path d="M59.8,100.6h0.5v3.3h1.6v0.4h-2.1V100.6z"/>
		<path d="M64.3,102.6h-1.4v1.3h1.6v0.4h-2.1v-3.7h2v0.4h-1.5v1.2h1.4V102.6z"/>
		<path d="M65.9,101h-1.1v-0.4h2.7v0.4h-1.1v3.3h-0.5V101z"/>
		<path d="M68.1,103.1l-0.4,1.2h-0.5l1.3-3.7H69l1.3,3.7h-0.5l-0.4-1.2H68.1z M69.3,102.8l-0.4-1.1c-0.1-0.2-0.1-0.5-0.2-0.7l0,0
			c-0.1,0.2-0.1,0.4-0.2,0.7l-0.4,1.1H69.3z"/>
		<path d="M70.8,100.6c0.2,0,0.6-0.1,0.9-0.1c0.5,0,0.8,0.1,1.1,0.3c0.2,0.2,0.3,0.4,0.3,0.7c0,0.5-0.3,0.8-0.7,0.9l0,0
			c0.3,0.1,0.5,0.4,0.5,0.7c0.1,0.5,0.2,0.9,0.3,1h-0.5c-0.1-0.1-0.1-0.4-0.2-0.9s-0.3-0.7-0.7-0.7h-0.5v1.6h-0.5L70.8,100.6
			L70.8,100.6z M71.3,102.3h0.5c0.5,0,0.8-0.3,0.8-0.7c0-0.5-0.3-0.7-0.9-0.7c-0.2,0-0.4,0-0.5,0L71.3,102.3L71.3,102.3z"/>
		<path d="M75.5,104.3v-1.6l-1.2-2.1h0.5l0.5,1c0.1,0.3,0.3,0.5,0.4,0.8l0,0c0.1-0.2,0.2-0.5,0.4-0.8l0.5-1h0.5l-1.2,2.1v1.6H75.5z"
			/>
		<path d="M28.5,109.3c0-0.5-0.1-1.1-0.1-1.6l0,0c-0.1,0.4-0.3,0.9-0.5,1.4l-0.7,1.8h-0.4l-0.6-1.8c-0.2-0.5-0.3-1-0.4-1.4l0,0
			c0,0.5,0,1.1-0.1,1.6l-0.1,1.6h-0.5l0.3-3.7H26l0.6,1.8c0.2,0.5,0.3,0.9,0.4,1.2l0,0c0.1-0.4,0.2-0.8,0.4-1.2l0.7-1.8h0.6l0.2,3.7
			h-0.5L28.5,109.3z"/>
		<path d="M33,109c0,1.3-0.8,2-1.7,2c-1,0-1.7-0.8-1.7-1.9c0-1.2,0.7-1.9,1.7-1.9C32.3,107.1,33,107.9,33,109z M30.1,109.1
			c0,0.8,0.4,1.5,1.2,1.5s1.2-0.7,1.2-1.5c0-0.7-0.4-1.5-1.2-1.5C30.5,107.5,30.1,108.3,30.1,109.1z"/>
		<path d="M33.6,110.9v-3.7h0.5l1.2,1.9c0.3,0.4,0.5,0.8,0.7,1.2l0,0c0-0.5-0.1-0.9-0.1-1.5v-1.5h0.5v3.7h-0.5l-1.2-1.9
			c-0.3-0.4-0.5-0.8-0.7-1.2l0,0c0,0.5,0,0.9,0,1.5v1.6L33.6,110.9L33.6,110.9z"/>
		<path d="M37.7,107.2v3.7h-0.5v-3.7H37.7z"/>
		<path d="M39.2,107.6h-1.1v-0.4h2.7v0.4h-1.1v3.3h-0.5C39.2,110.9,39.2,107.6,39.2,107.6z"/>
		<path d="M44.3,109c0,1.3-0.8,2-1.7,2c-1,0-1.7-0.8-1.7-1.9c0-1.2,0.7-1.9,1.7-1.9C43.6,107.1,44.3,107.9,44.3,109z M41.4,109.1
			c0,0.8,0.4,1.5,1.2,1.5s1.2-0.7,1.2-1.5c0-0.7-0.4-1.5-1.2-1.5C41.8,107.5,41.4,108.3,41.4,109.1z"/>
		<path d="M44.9,107.2c0.2,0,0.6-0.1,0.9-0.1c0.5,0,0.8,0.1,1.1,0.3c0.2,0.2,0.3,0.4,0.3,0.7c0,0.5-0.3,0.8-0.7,0.9l0,0
			c0.3,0.1,0.5,0.4,0.5,0.7c0.1,0.5,0.2,0.9,0.3,1h-0.5c-0.1-0.1-0.1-0.4-0.2-0.9c-0.1-0.5-0.3-0.7-0.7-0.7h-0.5v1.6h-0.5
			C44.9,110.7,44.9,107.2,44.9,107.2z M45.4,108.9h0.5c0.5,0,0.8-0.3,0.8-0.7c0-0.5-0.3-0.7-0.9-0.7c-0.2,0-0.4,0-0.5,0v1.4H45.4z"
			/>
		<path d="M49.8,109.2h-1.4v1.3H50v0.4h-2.1v-3.7h2v0.4h-1.5v1.2h1.4V109.2z"/>
		<path d="M51.2,109.7l-0.4,1.2h-0.5l1.3-3.7h0.6l1.3,3.7H53l-0.4-1.2H51.2z M52.4,109.4l-0.4-1.1c-0.1-0.2-0.1-0.5-0.2-0.7l0,0
			c-0.1,0.2-0.1,0.4-0.2,0.7l-0.4,1.1H52.4z"/>
		<path d="M53.9,107.2c0.2,0,0.6-0.1,0.9-0.1c0.5,0,0.8,0.1,1.1,0.3c0.2,0.2,0.3,0.4,0.3,0.7c0,0.5-0.3,0.8-0.7,0.9l0,0
			c0.3,0.1,0.5,0.4,0.5,0.7c0.1,0.5,0.2,0.9,0.3,1h-0.5c-0.1-0.1-0.1-0.4-0.2-0.9c-0.1-0.5-0.3-0.7-0.7-0.7h-0.5v1.6h-0.5
			C53.9,110.7,53.9,107.2,53.9,107.2z M54.4,108.9h0.5c0.5,0,0.8-0.3,0.8-0.7c0-0.5-0.3-0.7-0.9-0.7c-0.2,0-0.4,0-0.5,0v1.4H54.4z"
			/>
		<path d="M58,107.2h0.5v3.3h1.6v0.4H58V107.2z"/>
		<path d="M61.2,109.7l-0.4,1.2h-0.5l1.3-3.7h0.6l1.3,3.7H63l-0.4-1.2H61.2z M62.5,109.4l-0.4-1.1c-0.1-0.2-0.1-0.5-0.2-0.7l0,0
			c-0.1,0.2-0.1,0.4-0.2,0.7l-0.4,1.1H62.5z"/>
		<path d="M65.1,110.3c0.2,0.1,0.5,0.2,0.9,0.2c0.5,0,0.8-0.3,0.8-0.6c0-0.3-0.2-0.5-0.7-0.7c-0.6-0.2-1-0.5-1-1c0-0.6,0.5-1,1.2-1
			c0.4,0,0.7,0.1,0.8,0.2l-0.1,0.4c-0.1-0.1-0.4-0.2-0.7-0.2c-0.5,0-0.7,0.3-0.7,0.6c0,0.3,0.2,0.5,0.7,0.7c0.6,0.2,0.9,0.5,0.9,1.1
			s-0.4,1.1-1.3,1.1c-0.4,0-0.7-0.1-0.9-0.2L65.1,110.3z"/>
		<path d="M71,109c0,1.3-0.8,2-1.7,2c-1,0-1.7-0.8-1.7-1.9c0-1.2,0.7-1.9,1.7-1.9C70.4,107.1,71,107.9,71,109z M68.2,109.1
			c0,0.8,0.4,1.5,1.2,1.5c0.8,0,1.2-0.7,1.2-1.5c0-0.7-0.4-1.5-1.2-1.5C68.6,107.5,68.2,108.3,68.2,109.1z"/>
		<path d="M71.7,107.2h0.5v3.3h1.6v0.4h-2.1V107.2z"/>
		<path d="M74.7,107.2v3.7h-0.5v-3.7H74.7z"/>
		<path d="M78.2,110.8c-0.2,0.1-0.5,0.2-1,0.2c-1,0-1.8-0.7-1.8-1.9c0-1.2,0.8-1.9,1.9-1.9c0.5,0,0.8,0.1,0.9,0.2l-0.1,0.4
			c-0.2-0.1-0.4-0.2-0.7-0.2c-0.9,0-1.4,0.6-1.4,1.5s0.5,1.5,1.4,1.5c0.3,0,0.6-0.1,0.8-0.2L78.2,110.8z"/>
		<path d="M79.2,107.2v3.7h-0.5v-3.7H79.2z"/>
		<path d="M80.8,107.6h-1.1v-0.4h2.7v0.4h-1.1v3.3h-0.5V107.6z"/>
		<path d="M83.3,107.2v2.2c0,0.8,0.4,1.2,0.9,1.2s0.9-0.4,0.9-1.2v-2.2h0.5v2.2c0,1.1-0.6,1.6-1.4,1.6s-1.3-0.4-1.3-1.6v-2.2H83.3z"
			/>
		<path d="M86.4,107.2c0.3,0,0.6-0.1,1-0.1c0.7,0,1.2,0.2,1.5,0.5s0.5,0.7,0.5,1.3c0,0.6-0.2,1.1-0.5,1.4s-0.9,0.5-1.6,0.5
			c-0.3,0-0.6,0-0.9,0V107.2z M86.9,110.5c0.1,0,0.3,0,0.5,0c1,0,1.6-0.6,1.6-1.6c0-0.9-0.5-1.4-1.5-1.4c-0.2,0-0.4,0-0.6,0V110.5z"
			/>
		<path d="M91.2,107.2c0.3,0,0.6-0.1,1-0.1c0.7,0,1.2,0.2,1.5,0.5s0.5,0.7,0.5,1.3c0,0.6-0.2,1.1-0.5,1.4s-0.9,0.5-1.6,0.5
			c-0.3,0-0.6,0-0.9,0V107.2z M91.7,110.5c0.1,0,0.3,0,0.5,0c1,0,1.6-0.6,1.6-1.6c0-0.9-0.5-1.4-1.5-1.4c-0.2,0-0.4,0-0.6,0V110.5z"
			/>
		<path d="M96.8,109.2h-1.4v1.3H97v0.4h-2.1v-3.7h2v0.4h-1.5v1.2h1.4V109.2z"/>
		<path d="M98.7,107.2h0.5v3.3h1.6v0.4h-2.1V107.2z"/>
		<path d="M101.9,109.7l-0.4,1.2H101l1.3-3.7h0.6l1.3,3.7h-0.5l-0.4-1.2H101.9z M103.2,109.4l-0.4-1.1c-0.1-0.2-0.1-0.5-0.2-0.7l0,0
			c-0.1,0.2-0.1,0.4-0.2,0.7l-0.4,1.1H103.2z"/>
		<path d="M105.2,107.2v3.7h-0.5v-3.7H105.2z"/>
	</g>
</g>
</svg>
