<?xml version="1.0" encoding="utf-8"?>
<!-- Generator: Adobe Illustrator 25.0.0, SVG Export Plug-In . SVG Version: 6.00 Build 0)  -->
<svg version="1.1" id="Layer_1" xmlns="http://www.w3.org/2000/svg" xmlns:xlink="http://www.w3.org/1999/xlink" x="0px" y="0px"
	 viewBox="0 0 360 182" style="enable-background:new 0 0 360 182;" xml:space="preserve">
<style type="text/css">
	.st0{fill:#2163FF;}
	.st1{fill:#87E08A;}
	.st2{fill:#0E101E;}
</style>
<g>
	<path class="st0" d="M102,51.9h-1.1V49v-0.5V48c-0.2,0.2-0.3,0.3-0.4,0.3l-0.6,0.5l-0.5-0.6l1.6-1.3h0.9L102,51.9L102,51.9z"/>
	<path class="st0" d="M106.7,48c0,0.3-0.1,0.6-0.3,0.8s-0.5,0.4-0.8,0.5l0,0c0.4,0.1,0.7,0.2,0.9,0.4s0.3,0.5,0.3,0.8
		c0,0.5-0.2,0.9-0.5,1.1c-0.3,0.3-0.8,0.4-1.5,0.4c-0.5,0-1-0.1-1.4-0.3v-0.9c0.2,0.1,0.4,0.2,0.6,0.2c0.2,0.1,0.5,0.1,0.7,0.1
		c0.3,0,0.6-0.1,0.8-0.2c0.2-0.1,0.2-0.3,0.2-0.6c0-0.2-0.1-0.4-0.3-0.5c-0.2-0.1-0.5-0.1-0.9-0.1h-0.4v-0.8h0.4
		c0.4,0,0.7-0.1,0.9-0.2c0.2-0.1,0.3-0.3,0.3-0.5c0-0.4-0.2-0.6-0.7-0.6c-0.2,0-0.3,0-0.5,0.1s-0.4,0.2-0.6,0.3l-0.5-0.7
		c0.5-0.3,1-0.5,1.6-0.5c0.5,0,0.9,0.1,1.2,0.3C106.5,47.3,106.7,47.6,106.7,48"/>
	<path class="st0" d="M108.4,49.4c0,0.6,0.1,1.1,0.2,1.3c0.1,0.3,0.3,0.4,0.5,0.4s0.4-0.1,0.5-0.4c0.1-0.3,0.2-0.7,0.2-1.3
		s-0.1-1.1-0.2-1.3s-0.3-0.4-0.5-0.4s-0.4,0.1-0.5,0.4C108.5,48.3,108.4,48.8,108.4,49.4 M110.9,49.4c0,0.9-0.1,1.5-0.4,1.9
		s-0.7,0.6-1.3,0.6c-0.6,0-1-0.2-1.3-0.7c-0.3-0.4-0.4-1.1-0.4-1.9c0-0.9,0.1-1.5,0.4-2c0.3-0.4,0.7-0.6,1.3-0.6
		c0.6,0,1,0.2,1.3,0.7C110.7,47.9,110.9,48.5,110.9,49.4"/>
</g>
<rect x="99.1" y="52.3" class="st0" width="12" height="0.4"/>
<g>
	<path class="st1" d="M103.5,13.4v-0.9c0-0.1,0-0.3,0-0.6s0-0.4,0-0.5l0,0c-0.1,0.2-0.2,0.4-0.3,0.6l-0.9,1.4H103.5z M105.1,14.2
		h-0.6v1h-1v-1h-2.1v-0.7l2.2-3.2h1v3.2h0.6L105.1,14.2L105.1,14.2z"/>
	<path class="st1" d="M108.1,15.2H107v-2.9v-0.5v-0.5c-0.2,0.2-0.3,0.3-0.4,0.3l-0.6,0.5l-0.5-0.6l1.6-1.3h0.9L108.1,15.2
		L108.1,15.2z"/>
</g>
<rect x="101.2" y="15.6" class="st1" width="8" height="0.4"/>
<rect x="112.9" y="45.9" class="st0" width="18" height="112.4"/>
<rect x="112.9" y="10.4" class="st1" width="18" height="35.5"/>
<rect x="214.6" y="145.3" class="st0" width="18" height="13"/>
<rect x="214.6" y="132.4" class="st1" width="18" height="13"/>
<g>
	<path class="st0" d="M209,152.4h-1v-2.9V149v-0.5c-0.2,0.2-0.3,0.3-0.4,0.3l-0.6,0.5l-0.5-0.6l1.6-1.3h0.9V152.4z"/>
	<path class="st0" d="M212.2,149.2c0.5,0,0.9,0.1,1.2,0.4c0.3,0.3,0.4,0.6,0.4,1.1c0,0.6-0.2,1-0.5,1.3s-0.8,0.5-1.5,0.5
		c-0.6,0-1-0.1-1.4-0.3v-0.9c0.2,0.1,0.4,0.2,0.6,0.2c0.2,0.1,0.5,0.1,0.7,0.1c0.6,0,1-0.3,1-0.8s-0.3-0.8-1-0.8c-0.1,0-0.3,0-0.4,0
		c-0.1,0-0.3,0.1-0.4,0.1l-0.4-0.2l0.2-2.6h2.7v0.9h-1.8l-0.1,1h0.1C211.9,149.2,212,149.2,212.2,149.2"/>
</g>
<rect x="206.1" y="152.8" class="st0" width="8" height="0.4"/>
<g>
	<path class="st1" d="M209,131.2h-1v-2.9v-0.5v-0.5c-0.2,0.2-0.3,0.3-0.4,0.3l-0.6,0.5l-0.5-0.6l1.6-1.3h0.9V131.2z"/>
	<path class="st1" d="M212.2,128c0.5,0,0.9,0.1,1.2,0.4c0.3,0.3,0.4,0.6,0.4,1.1c0,0.6-0.2,1-0.5,1.3s-0.8,0.5-1.5,0.5
		c-0.6,0-1-0.1-1.4-0.3v-0.9c0.2,0.1,0.4,0.2,0.6,0.2c0.2,0.1,0.5,0.1,0.7,0.1c0.6,0,1-0.3,1-0.8s-0.3-0.8-1-0.8c-0.1,0-0.3,0-0.4,0
		c-0.1,0-0.3,0-0.4,0.1l-0.4-0.2l0.2-2.6h2.7v0.9h-1.8l-0.1,1h0.1C211.9,128,212,128,212.2,128"/>
</g>
<rect x="206.1" y="131.6" class="st1" width="8" height="0.3"/>
<rect x="160.7" y="128.9" class="st0" width="18" height="29.4"/>
<rect x="160.7" y="126.3" class="st1" width="18" height="2.6"/>
<g>
	<path class="st0" d="M153.8,130.4c0,0.3-0.1,0.6-0.3,0.8s-0.5,0.4-0.8,0.5l0,0c0.4,0,0.7,0.2,0.9,0.4s0.3,0.5,0.3,0.8
		c0,0.5-0.2,0.9-0.5,1.1c-0.4,0.3-0.9,0.4-1.5,0.4c-0.5,0-1-0.1-1.4-0.3v-0.9c0.2,0.1,0.4,0.2,0.6,0.2c0.2,0.1,0.5,0.1,0.7,0.1
		c0.4,0,0.6-0.1,0.8-0.2c0.2-0.1,0.2-0.3,0.2-0.6c0-0.2-0.1-0.4-0.3-0.5s-0.5-0.1-0.9-0.1h-0.4v-0.8h0.4c0.4,0,0.7-0.1,0.9-0.2
		c0.2-0.1,0.3-0.3,0.3-0.5c0-0.4-0.2-0.6-0.7-0.6c-0.2,0-0.3,0-0.5,0.1s-0.4,0.1-0.6,0.3l-0.5-0.7c0.5-0.3,1-0.5,1.6-0.5
		c0.5,0,0.9,0.1,1.2,0.3C153.7,129.8,153.8,130.1,153.8,130.4"/>
	<path class="st0" d="M156.5,132.5v-0.9c0-0.1,0-0.3,0-0.6s0-0.4,0-0.5l0,0c-0.1,0.2-0.2,0.4-0.3,0.5l-0.9,1.4h1.2V132.5z
		 M158.2,133.3h-0.6v1h-1v-1h-2.1v-0.7l2.2-3.2h1v3.2h0.6L158.2,133.3L158.2,133.3z"/>
</g>
<rect x="150.2" y="134.7" class="st0" width="8" height="0.3"/>
<g>
	<path class="st1" d="M158.8,119.7c0,0.3-0.1,0.6-0.3,0.8s-0.5,0.4-0.8,0.5l0,0c0.4,0.1,0.7,0.2,0.9,0.4c0.2,0.2,0.3,0.5,0.3,0.8
		c0,0.5-0.2,0.9-0.5,1.1c-0.4,0.3-0.9,0.4-1.5,0.4c-0.5,0-1-0.1-1.4-0.3v-0.9c0.2,0.1,0.4,0.2,0.6,0.2c0.2,0.1,0.5,0.1,0.7,0.1
		c0.4,0,0.6-0.1,0.8-0.2s0.2-0.3,0.2-0.6c0-0.2-0.1-0.4-0.3-0.5s-0.5-0.1-0.9-0.1h-0.4v-0.8h0.4c0.4,0,0.7-0.1,0.9-0.2
		s0.3-0.3,0.3-0.5c0-0.4-0.2-0.6-0.7-0.6c-0.2,0-0.3,0-0.5,0.1s-0.4,0.2-0.6,0.3l-0.5-0.7c0.5-0.3,1-0.5,1.6-0.5
		c0.5,0,0.9,0.1,1.2,0.3C158.7,119,158.8,119.3,158.8,119.7"/>
</g>
<rect x="155.2" y="124" class="st1" width="4" height="0.3"/>
<rect x="263.5" y="135.8" class="st0" width="18" height="22.5"/>
<rect x="263.5" y="135" class="st1" width="18" height="0.9"/>
<g>
	<path class="st0" d="M256.9,141.5h-3.5v-0.7l1.3-1.3c0.4-0.4,0.6-0.6,0.7-0.8c0.1-0.1,0.2-0.3,0.2-0.4c0.1-0.1,0.1-0.3,0.1-0.4
		c0-0.2-0.1-0.4-0.2-0.4c-0.1-0.1-0.3-0.1-0.4-0.1c-0.2,0-0.4,0-0.6,0.1c-0.2,0.1-0.4,0.2-0.6,0.4l-0.6-0.7c0.2-0.2,0.5-0.4,0.6-0.4
		c0.2-0.1,0.3-0.2,0.5-0.2s0.4-0.1,0.6-0.1c0.3,0,0.6,0.1,0.8,0.2c0.2,0.1,0.4,0.3,0.6,0.5c0.1,0.2,0.2,0.4,0.2,0.7
		c0,0.2,0,0.4-0.1,0.7c-0.1,0.2-0.2,0.4-0.4,0.6c-0.2,0.2-0.5,0.5-0.9,0.9l-0.6,0.6l0,0h2.2L256.9,141.5L256.9,141.5z"/>
	<path class="st0" d="M259.2,140.8c0.2,0,0.4-0.1,0.5-0.2c0.1-0.2,0.2-0.4,0.2-0.6c0-0.2-0.1-0.4-0.2-0.6c-0.1-0.1-0.3-0.2-0.5-0.2
		s-0.4,0.1-0.6,0.2c-0.2,0.1-0.2,0.3-0.2,0.5c0,0.3,0.1,0.5,0.2,0.7C258.8,140.7,259,140.8,259.2,140.8 M257.4,139.4
		c0-1,0.2-1.7,0.6-2.2s1-0.7,1.9-0.7c0.3,0,0.5,0,0.7,0.1v0.8c-0.2,0-0.4-0.1-0.6-0.1c-0.4,0-0.7,0.1-0.9,0.2
		c-0.2,0.1-0.4,0.3-0.5,0.5s-0.2,0.5-0.2,0.9l0,0c0.2-0.4,0.6-0.6,1.1-0.6c0.4,0,0.8,0.1,1.1,0.4c0.3,0.3,0.4,0.7,0.4,1.2
		s-0.2,1-0.5,1.3s-0.7,0.5-1.3,0.5c-0.4,0-0.7-0.1-1-0.3s-0.5-0.4-0.6-0.8C257.5,140.3,257.4,139.9,257.4,139.4"/>
</g>
<rect x="253.1" y="141.9" class="st0" width="8" height="0.3"/>
<g>
	<path class="st1" d="M261.1,133.1H260v-2.9v-0.5v-0.5c-0.2,0.2-0.3,0.3-0.4,0.3L259,130l-0.5-0.6l1.6-1.3h0.9v5H261.1z"/>
</g>
<rect x="258.2" y="133.5" class="st1" width="4" height="0.3"/>
<rect x="308.4" y="155.6" class="st0" width="18" height="2.4"/>
<rect x="308.4" y="154.5" class="st1" width="18" height="0.9"/>
<g>
	<path class="st0" d="M305,153.8c0,0.3-0.1,0.6-0.3,0.8s-0.5,0.4-0.8,0.5l0,0c0.4,0.1,0.7,0.2,0.9,0.4c0.2,0.2,0.3,0.5,0.3,0.8
		c0,0.5-0.2,0.9-0.5,1.1c-0.4,0.3-0.9,0.4-1.5,0.4c-0.5,0-1-0.1-1.4-0.3v-0.9c0.2,0.1,0.4,0.2,0.6,0.2c0.2,0.1,0.5,0.1,0.7,0.1
		c0.4,0,0.6-0.1,0.8-0.2c0.2-0.1,0.3-0.3,0.3-0.6c0-0.2-0.1-0.4-0.3-0.5c-0.2-0.1-0.5-0.1-0.9-0.1h-0.4v-0.8h0.4
		c0.4,0,0.7-0.1,0.9-0.2c0.2-0.1,0.3-0.3,0.3-0.5c0-0.4-0.2-0.6-0.7-0.6c-0.2,0-0.3,0-0.5,0.1s-0.4,0.2-0.6,0.3l-0.5-0.7
		c0.5-0.3,1-0.5,1.6-0.5c0.5,0,0.9,0.1,1.2,0.3C304.8,153.1,305,153.4,305,153.8"/>
</g>
<rect x="301.4" y="158" class="st0" width="4" height="0.4"/>
<g>
	<path class="st1" d="M305.1,149.8H304v-2.9v-0.5v-0.5c-0.2,0.2-0.3,0.3-0.4,0.3l-0.6,0.5l-0.5-0.6l1.6-1.3h0.9v5H305.1z"/>
</g>
<rect x="302.2" y="150.2" class="st1" width="4" height="0.4"/>
<g>
	<path class="st1" d="M312.1,154.6h-0.3c0-3.5-2.9-6.4-6.4-6.4v-0.3C309.1,147.8,312.1,150.9,312.1,154.6"/>
</g>
<rect x="20.5" y="40.4" class="st1" width="23.1" height="2.6"/>
<rect x="20.5" y="60.8" class="st0" width="23.1" height="2.6"/>
<rect x="85" y="158.3" class="st2" width="262.1" height="0.2"/>
<g>
	<path d="M27.7,49.1v1.6h-0.5v-3.9h1.1c0.5,0,0.8,0.1,1.1,0.3c0.2,0.2,0.3,0.5,0.3,0.8c0,0.5-0.3,0.9-0.8,1.1l1.1,1.8h-0.5l-1-1.6
		L27.7,49.1L27.7,49.1z M27.7,48.7h0.6c0.3,0,0.6-0.1,0.7-0.2s0.2-0.3,0.2-0.6s-0.1-0.4-0.2-0.6c-0.2-0.1-0.4-0.2-0.7-0.2h-0.6V48.7
		z"/>
	<path d="M32.8,50.7h-2.2v-3.9h2.2v0.4h-1.7v1.3h1.6v0.4h-1.6v1.4h1.7C32.8,50.3,32.8,50.7,32.8,50.7z"/>
	<path d="M34.9,50.7h-0.5v-3.5h-1.2v-0.4h2.9v0.4h-1.2V50.7z"/>
	<path d="M37.2,49.1v1.6h-0.5v-3.9h1.1c0.5,0,0.8,0.1,1.1,0.3c0.2,0.2,0.3,0.5,0.3,0.8c0,0.5-0.3,0.9-0.8,1.1l1.1,1.8H39l-1-1.6
		L37.2,49.1L37.2,49.1z M37.2,48.7h0.6c0.3,0,0.6-0.1,0.7-0.2s0.2-0.3,0.2-0.6s-0.1-0.4-0.2-0.6c-0.2-0.1-0.4-0.2-0.7-0.2h-0.6V48.7
		z"/>
	<path d="M42.6,50.7l-0.5-1.2h-1.6L40,50.7h-0.5l1.6-3.9h0.4l1.5,3.9H42.6z M42,49.1l-0.5-1.2c-0.1-0.2-0.1-0.3-0.2-0.6
		c0,0.2-0.1,0.4-0.2,0.6l-0.5,1.2H42z"/>
	<path d="M45.8,49.7c0,0.3-0.1,0.6-0.4,0.8s-0.6,0.3-1,0.3c-0.5,0-0.8-0.1-1.1-0.2v-0.4c0.2,0.1,0.3,0.1,0.5,0.2
		c0.2,0,0.4,0.1,0.6,0.1c0.3,0,0.5-0.1,0.7-0.2c0.2-0.1,0.2-0.3,0.2-0.5c0-0.1,0-0.2-0.1-0.3s-0.1-0.2-0.3-0.2
		c-0.1-0.1-0.3-0.2-0.6-0.2c-0.4-0.1-0.6-0.3-0.8-0.5s-0.2-0.4-0.2-0.7s0.1-0.5,0.3-0.7s0.5-0.3,0.9-0.3s0.7,0.1,1.1,0.2l-0.1,0.4
		c-0.3-0.1-0.6-0.2-0.9-0.2c-0.2,0-0.4,0.1-0.6,0.2c-0.1,0.1-0.2,0.2-0.2,0.4c0,0.1,0,0.2,0.1,0.3c0,0.1,0.1,0.2,0.3,0.2
		c0.1,0.1,0.3,0.2,0.5,0.2c0.4,0.1,0.7,0.3,0.9,0.5C45.8,49.2,45.8,49.4,45.8,49.7z"/>
	<path d="M49.1,50.7l-0.5-1.2H47l-0.5,1.2H46l1.6-3.9H48l1.5,3.9H49.1z M48.5,49.1L48,47.8c-0.1-0.2-0.1-0.3-0.2-0.6
		c0,0.2-0.1,0.4-0.2,0.6L47.1,49L48.5,49.1L48.5,49.1z"/>
	<path d="M53.2,48.7c0,0.6-0.2,1.1-0.5,1.5c-0.4,0.3-0.9,0.5-1.5,0.5h-1.1v-3.9h1.2c0.6,0,1.1,0.2,1.4,0.5
		C53.1,47.6,53.2,48.1,53.2,48.7z M52.8,48.7c0-0.5-0.1-0.9-0.4-1.2s-0.6-0.4-1.1-0.4h-0.7v3.1h0.6c0.5,0,1-0.1,1.2-0.4
		C52.6,49.7,52.8,49.3,52.8,48.7z"/>
	<path d="M57.5,48.8c0,0.6-0.2,1.1-0.5,1.5s-0.8,0.5-1.3,0.5c-0.6,0-1-0.2-1.3-0.5c-0.3-0.4-0.5-0.9-0.5-1.5s0.2-1.1,0.5-1.5
		s0.8-0.5,1.3-0.5c0.6,0,1,0.2,1.3,0.5C57.4,47.6,57.5,48.1,57.5,48.8z M54.4,48.8c0,0.5,0.1,0.9,0.3,1.2s0.6,0.4,1,0.4
		s0.8-0.1,1-0.4s0.3-0.7,0.3-1.2s-0.1-0.9-0.3-1.2s-0.5-0.4-1-0.4c-0.4,0-0.8,0.1-1,0.4S54.4,48.2,54.4,48.8z"/>
</g>
<g>
	<path d="M105.3,165.8v1.6h-0.5v-3.9h1.1c0.5,0,0.8,0.1,1.1,0.3c0.2,0.2,0.3,0.5,0.3,0.8c0,0.5-0.3,0.9-0.8,1.1l1.1,1.8h-0.5l-1-1.6
		h-0.8V165.8z M105.3,165.4h0.6c0.3,0,0.6-0.1,0.7-0.2s0.2-0.3,0.2-0.6s-0.1-0.4-0.2-0.6c-0.2-0.1-0.4-0.2-0.7-0.2h-0.6V165.4z"/>
	<path d="M110.5,167.4h-2.2v-3.9h2.2v0.4h-1.7v1.3h1.6v0.4h-1.6v1.4h1.7V167.4z"/>
	<path d="M113.6,166.4c0,0.3-0.1,0.6-0.4,0.8s-0.6,0.3-1,0.3c-0.5,0-0.8-0.1-1.1-0.2v-0.4c0.2,0.1,0.3,0.1,0.5,0.2
		c0.2,0,0.4,0.1,0.6,0.1c0.3,0,0.5-0.1,0.7-0.2c0.2-0.1,0.2-0.3,0.2-0.5c0-0.1,0-0.2-0.1-0.3s-0.1-0.2-0.3-0.2
		c-0.1-0.1-0.3-0.2-0.6-0.2c-0.4-0.1-0.6-0.3-0.8-0.5s-0.2-0.4-0.2-0.7s0.1-0.5,0.3-0.7c0.2-0.2,0.5-0.3,0.9-0.3s0.7,0.1,1.1,0.2
		l-0.1,0.4c-0.3-0.1-0.6-0.2-0.9-0.2c-0.2,0-0.4,0.1-0.6,0.2c-0.1,0.1-0.2,0.2-0.2,0.4c0,0.1,0,0.2,0.1,0.3c0,0.1,0.1,0.2,0.3,0.2
		s0.3,0.2,0.5,0.2c0.4,0.1,0.7,0.3,0.9,0.5S113.6,166.1,113.6,166.4z"/>
	<path d="M116.8,164.7c0,0.4-0.1,0.7-0.4,0.9s-0.7,0.3-1.2,0.3h-0.5v1.5h-0.5v-3.9h1C116.4,163.5,116.8,163.9,116.8,164.7z
		 M114.8,165.5h0.4c0.4,0,0.7-0.1,0.9-0.2c0.2-0.1,0.3-0.3,0.3-0.6s-0.1-0.5-0.3-0.6c-0.2-0.1-0.4-0.2-0.8-0.2h-0.5V165.5z"/>
	<path d="M121.1,165.5c0,0.6-0.2,1.1-0.5,1.5s-0.8,0.5-1.3,0.5c-0.6,0-1-0.2-1.3-0.5c-0.3-0.4-0.5-0.9-0.5-1.5s0.2-1.1,0.5-1.5
		s0.8-0.5,1.3-0.5c0.6,0,1,0.2,1.3,0.5S121.1,164.8,121.1,165.5z M117.9,165.5c0,0.5,0.1,0.9,0.3,1.2c0.2,0.3,0.6,0.4,1,0.4
		s0.8-0.1,1-0.4c0.2-0.3,0.3-0.7,0.3-1.2s-0.1-0.9-0.3-1.2c-0.2-0.3-0.5-0.4-1-0.4c-0.4,0-0.8,0.1-1,0.4
		C118.1,164.5,117.9,164.9,117.9,165.5z"/>
	<path d="M125,167.4h-0.5l-2.1-3.3l0,0c0,0.4,0,0.7,0,1.1v2.2H122v-3.9h0.5l2.1,3.3l0,0c0,0,0-0.2,0-0.5s0-0.5,0-0.6v-2.3h0.4V167.4
		z"/>
	<path d="M129.2,165.4c0,0.6-0.2,1.1-0.5,1.5c-0.4,0.3-0.9,0.5-1.5,0.5h-1.1v-3.9h1.2c0.6,0,1.1,0.2,1.4,0.5
		C129.1,164.4,129.2,164.8,129.2,165.4z M128.7,165.5c0-0.5-0.1-0.9-0.4-1.2s-0.6-0.4-1.1-0.4h-0.7v3.1h0.6c0.5,0,1-0.1,1.2-0.4
		C128.6,166.4,128.7,166,128.7,165.5z"/>
	<path d="M130.1,167.4v-3.9h0.5v3.9H130.1z"/>
	<path d="M134.8,165.4c0,0.6-0.2,1.1-0.5,1.5c-0.4,0.3-0.9,0.5-1.5,0.5h-1.1v-3.9h1.2c0.6,0,1.1,0.2,1.4,0.5
		C134.6,164.4,134.8,164.8,134.8,165.4z M134.3,165.5c0-0.5-0.1-0.9-0.4-1.2s-0.6-0.4-1.1-0.4h-0.7v3.1h0.6c0.5,0,1-0.1,1.2-0.4
		C134.2,166.4,134.3,166,134.3,165.5z"/>
	<path d="M139.1,165.5c0,0.6-0.2,1.1-0.5,1.5s-0.8,0.5-1.3,0.5c-0.6,0-1-0.2-1.3-0.5c-0.3-0.4-0.5-0.9-0.5-1.5s0.2-1.1,0.5-1.5
		s0.8-0.5,1.3-0.5c0.6,0,1,0.2,1.3,0.5C138.9,164.3,139.1,164.8,139.1,165.5z M135.9,165.5c0,0.5,0.1,0.9,0.3,1.2s0.6,0.4,1,0.4
		s0.8-0.1,1-0.4c0.2-0.3,0.3-0.7,0.3-1.2s-0.1-0.9-0.3-1.2s-0.5-0.4-1-0.4c-0.4,0-0.8,0.1-1,0.4C136,164.5,135.9,164.9,135.9,165.5z
		"/>
</g>
<g>
	<path d="M150.2,167.4v-3.9h0.5v3.9H150.2z"/>
	<path d="M154.8,167.4h-0.5l-2.1-3.3l0,0c0,0.4,0,0.7,0,1.1v2.2h-0.4v-3.9h0.5l2.1,3.3l0,0c0,0,0-0.2,0-0.5s0-0.5,0-0.6v-2.3h0.4
		V167.4z"/>
	<path d="M159,165.4c0,0.6-0.2,1.1-0.5,1.5c-0.4,0.3-0.9,0.5-1.5,0.5h-1.1v-3.9h1.2c0.6,0,1.1,0.2,1.4,0.5
		C158.9,164.4,159,164.8,159,165.4z M158.5,165.5c0-0.5-0.1-0.9-0.4-1.2s-0.6-0.4-1.1-0.4h-0.7v3.1h0.6c0.5,0,1-0.1,1.2-0.4
		C158.4,166.4,158.5,166,158.5,165.5z"/>
	<path d="M159.9,167.4v-3.9h0.5v3.9H159.9z"/>
	<path d="M163.1,163.9c-0.4,0-0.8,0.1-1,0.4c-0.2,0.3-0.4,0.7-0.4,1.2s0.1,0.9,0.4,1.2s0.6,0.4,1,0.4c0.3,0,0.6,0,0.9-0.1v0.4
		c-0.3,0.1-0.6,0.2-1,0.2c-0.6,0-1-0.2-1.3-0.5c-0.3-0.4-0.5-0.8-0.5-1.5c0-0.4,0.1-0.8,0.2-1.1s0.4-0.5,0.7-0.7s0.6-0.2,1-0.2
		s0.8,0.1,1.1,0.2l-0.2,0.4C163.7,163.9,163.4,163.9,163.1,163.9z"/>
	<path d="M167.4,167.4l-0.5-1.2h-1.6l-0.5,1.2h-0.5l1.6-3.9h0.4l1.5,3.9H167.4z M166.7,165.8l-0.5-1.2c-0.1-0.2-0.1-0.3-0.2-0.6
		c0,0.2-0.1,0.4-0.2,0.6l-0.5,1.2H166.7z"/>
	<path d="M170.1,163.9c-0.4,0-0.8,0.1-1,0.4c-0.2,0.3-0.4,0.7-0.4,1.2s0.1,0.9,0.4,1.2s0.6,0.4,1,0.4c0.3,0,0.6,0,0.9-0.1v0.4
		c-0.3,0.1-0.6,0.2-1,0.2c-0.6,0-1-0.2-1.3-0.5c-0.3-0.4-0.5-0.8-0.5-1.5c0-0.4,0.1-0.8,0.2-1.1s0.4-0.5,0.7-0.7s0.6-0.2,1-0.2
		s0.8,0.1,1.1,0.2l-0.2,0.4C170.7,163.9,170.4,163.9,170.1,163.9z"/>
	<path d="M171.9,167.4v-3.9h0.5v3.9H171.9z"/>
	<path d="M176.8,165.5c0,0.6-0.2,1.1-0.5,1.5s-0.8,0.5-1.3,0.5c-0.6,0-1-0.2-1.3-0.5c-0.3-0.4-0.5-0.9-0.5-1.5s0.2-1.1,0.5-1.5
		s0.8-0.5,1.3-0.5c0.6,0,1,0.2,1.3,0.5S176.8,164.8,176.8,165.5z M173.7,165.5c0,0.5,0.1,0.9,0.3,1.2s0.6,0.4,1,0.4s0.8-0.1,1-0.4
		c0.2-0.3,0.3-0.7,0.3-1.2s-0.1-0.9-0.3-1.2s-0.5-0.4-1-0.4c-0.4,0-0.8,0.1-1,0.4C173.8,164.5,173.7,164.9,173.7,165.5z
		 M174.6,163.1c0.1-0.1,0.2-0.2,0.3-0.4s0.2-0.3,0.2-0.4h0.5v0.1c-0.1,0.1-0.2,0.3-0.4,0.4c-0.2,0.2-0.3,0.3-0.4,0.4L174.6,163.1
		L174.6,163.1z"/>
	<path d="M180.7,167.4h-0.5l-2.1-3.3l0,0c0,0.4,0,0.7,0,1.1v2.2h-0.4v-3.9h0.5l2.1,3.3l0,0c0,0,0-0.2,0-0.5s0-0.5,0-0.6v-2.3h0.4
		V167.4z"/>
	<path d="M186.4,165.4c0,0.6-0.2,1.1-0.5,1.5c-0.4,0.3-0.9,0.5-1.5,0.5h-1.1v-3.9h1.2c0.6,0,1.1,0.2,1.4,0.5
		C186.2,164.4,186.4,164.8,186.4,165.4z M185.9,165.5c0-0.5-0.1-0.9-0.4-1.2s-0.6-0.4-1.1-0.4h-0.7v3.1h0.6c0.5,0,1-0.1,1.2-0.4
		C185.8,166.4,185.9,166,185.9,165.5z"/>
	<path d="M189.4,167.4h-2.2v-3.9h2.2v0.4h-1.7v1.3h1.6v0.4h-1.6v1.4h1.7V167.4z"/>
	<path d="M148.9,172.1c0,0.6-0.2,1.1-0.5,1.5s-0.8,0.5-1.3,0.5c-0.6,0-1-0.2-1.3-0.5c-0.3-0.4-0.5-0.9-0.5-1.5s0.2-1.1,0.5-1.5
		s0.8-0.5,1.3-0.5c0.6,0,1,0.2,1.3,0.5C148.7,170.9,148.9,171.4,148.9,172.1z M145.8,172.1c0,0.5,0.1,0.9,0.3,1.2s0.6,0.4,1,0.4
		s0.8-0.1,1-0.4c0.2-0.3,0.3-0.7,0.3-1.2s-0.1-0.9-0.3-1.2s-0.5-0.4-1-0.4c-0.4,0-0.8,0.1-1,0.4
		C145.9,171.1,145.8,171.5,145.8,172.1z"/>
	<path d="M151,174h-0.5v-3.5h-1.2v-0.4h2.9v0.4H151V174z"/>
	<path d="M153.3,172.4v1.6h-0.5v-3.9h1.1c0.5,0,0.8,0.1,1.1,0.3s0.3,0.5,0.3,0.8c0,0.5-0.3,0.9-0.8,1.1l1.1,1.8H155l-1-1.6h-0.7
		V172.4z M153.3,172h0.6c0.3,0,0.6-0.1,0.7-0.2s0.2-0.3,0.2-0.6s-0.1-0.4-0.2-0.6c-0.2-0.1-0.4-0.2-0.7-0.2h-0.6V172z"/>
	<path d="M159.6,172.1c0,0.6-0.2,1.1-0.5,1.5s-0.8,0.5-1.3,0.5c-0.6,0-1-0.2-1.3-0.5c-0.3-0.4-0.5-0.9-0.5-1.5s0.2-1.1,0.5-1.5
		s0.8-0.5,1.3-0.5c0.6,0,1,0.2,1.3,0.5C159.5,170.9,159.6,171.4,159.6,172.1z M156.5,172.1c0,0.5,0.1,0.9,0.3,1.2s0.6,0.4,1,0.4
		s0.8-0.1,1-0.4c0.2-0.3,0.3-0.7,0.3-1.2s-0.1-0.9-0.3-1.2s-0.5-0.4-1-0.4c-0.4,0-0.8,0.1-1,0.4
		C156.6,171.1,156.5,171.5,156.5,172.1z"/>
	<path d="M165.3,172.1c0,0.6-0.2,1.1-0.5,1.5s-0.8,0.5-1.3,0.5c-0.6,0-1-0.2-1.3-0.5c-0.3-0.4-0.5-0.9-0.5-1.5s0.2-1.1,0.5-1.5
		s0.8-0.5,1.3-0.5c0.6,0,1,0.2,1.3,0.5C165.2,170.9,165.3,171.4,165.3,172.1z M162.2,172.1c0,0.5,0.1,0.9,0.3,1.2s0.6,0.4,1,0.4
		s0.8-0.1,1-0.4c0.2-0.3,0.3-0.7,0.3-1.2s-0.1-0.9-0.3-1.2s-0.5-0.4-1-0.4c-0.4,0-0.8,0.1-1,0.4
		C162.3,171.1,162.2,171.5,162.2,172.1z"/>
	<path d="M166.7,172.4v1.6h-0.5v-3.9h1.1c0.5,0,0.8,0.1,1.1,0.3s0.3,0.5,0.3,0.8c0,0.5-0.3,0.9-0.8,1.1l1.1,1.8h-0.5l-1-1.6h-0.8
		V172.4z M166.7,172h0.6c0.3,0,0.6-0.1,0.7-0.2s0.2-0.3,0.2-0.6s-0.1-0.4-0.2-0.6c-0.2-0.1-0.4-0.2-0.7-0.2h-0.6V172z"/>
	<path d="M171.3,172h1.3v1.9c-0.2,0.1-0.4,0.1-0.6,0.2s-0.5,0.1-0.7,0.1c-0.6,0-1.1-0.2-1.4-0.5s-0.5-0.8-0.5-1.5
		c0-0.4,0.1-0.8,0.2-1.1c0.2-0.3,0.4-0.5,0.7-0.7s0.7-0.2,1.1-0.2c0.4,0,0.8,0.1,1.2,0.2l-0.2,0.4c-0.4-0.2-0.7-0.2-1-0.2
		c-0.5,0-0.9,0.1-1.1,0.4c-0.3,0.3-0.4,0.7-0.4,1.2s0.1,0.9,0.4,1.2c0.3,0.3,0.6,0.4,1.1,0.4c0.3,0,0.5,0,0.8-0.1v-1.2h-0.9
		L171.3,172L171.3,172z"/>
	<path d="M176.1,174l-0.5-1.2H174l-0.5,1.2H173l1.6-3.9h0.4l1.5,3.9H176.1z M175.4,172.4l-0.5-1.2c-0.1-0.2-0.1-0.3-0.2-0.6
		c0,0.2-0.1,0.4-0.2,0.6l-0.5,1.2H175.4z"/>
	<path d="M180.2,174h-0.5l-2.1-3.3l0,0c0,0.4,0,0.7,0,1.1v2.2h-0.4v-3.9h0.5l2.1,3.3l0,0c0,0,0-0.2,0-0.5s0-0.5,0-0.6V170h0.4V174z"
		/>
	<path d="M181.2,174v-3.9h0.5v3.9H181.2z"/>
	<path d="M185,173c0,0.3-0.1,0.6-0.4,0.8c-0.3,0.2-0.6,0.3-1,0.3c-0.5,0-0.8-0.1-1.1-0.2v-0.4c0.2,0.1,0.3,0.1,0.5,0.2
		c0.2,0,0.4,0.1,0.6,0.1c0.3,0,0.5-0.1,0.7-0.2c0.2-0.1,0.2-0.3,0.2-0.5c0-0.1,0-0.2-0.1-0.3s-0.1-0.2-0.3-0.2s-0.3-0.2-0.6-0.2
		c-0.4-0.1-0.6-0.3-0.8-0.5s-0.2-0.4-0.2-0.7s0.1-0.5,0.3-0.7s0.5-0.3,0.9-0.3s0.7,0.1,1.1,0.2l-0.1,0.4c-0.3-0.1-0.6-0.2-0.9-0.2
		c-0.2,0-0.4,0.1-0.6,0.2c-0.1,0.1-0.2,0.2-0.2,0.4c0,0.1,0,0.2,0.1,0.3s0.1,0.2,0.3,0.2c0.1,0.1,0.3,0.2,0.5,0.2
		c0.4,0.1,0.7,0.3,0.9,0.5C184.9,172.5,185,172.7,185,173z"/>
	<path d="M187.5,174l-1.3-3.5l0,0c0,0.3,0,0.6,0,1v2.5h-0.4v-3.9h0.7l1.2,3.2l0,0l1.3-3.2h0.7v3.9h-0.5v-2.5c0-0.3,0-0.6,0-0.9l0,0
		l-1.3,3.5h-0.4V174z"/>
	<path d="M194.2,172.1c0,0.6-0.2,1.1-0.5,1.5s-0.8,0.5-1.3,0.5c-0.6,0-1-0.2-1.3-0.5s-0.5-0.9-0.5-1.5s0.2-1.1,0.5-1.5
		s0.8-0.5,1.3-0.5c0.6,0,1,0.2,1.3,0.5C194,170.9,194.2,171.4,194.2,172.1z M191,172.1c0,0.5,0.1,0.9,0.3,1.2s0.6,0.4,1,0.4
		s0.8-0.1,1-0.4c0.2-0.3,0.3-0.7,0.3-1.2s-0.1-0.9-0.3-1.2s-0.5-0.4-1-0.4c-0.4,0-0.8,0.1-1,0.4C191.1,171.1,191,171.5,191,172.1z"
		/>
</g>
<g>
	<path d="M209.9,165.8v1.6h-0.5v-3.9h1.1c0.5,0,0.8,0.1,1.1,0.3c0.2,0.2,0.3,0.5,0.3,0.8c0,0.5-0.3,0.9-0.8,1.1l1.1,1.8h-0.5l-1-1.6
		h-0.8V165.8z M209.9,165.4h0.6c0.3,0,0.6-0.1,0.7-0.2s0.2-0.3,0.2-0.6s-0.1-0.4-0.2-0.6s-0.4-0.2-0.7-0.2h-0.6V165.4z"/>
	<path d="M215,167.4h-2.2v-3.9h2.2v0.4h-1.7v1.3h1.6v0.4h-1.6v1.4h1.7V167.4z"/>
	<path d="M218.1,166.4c0,0.3-0.1,0.6-0.4,0.8c-0.2,0.2-0.6,0.3-1,0.3c-0.5,0-0.8-0.1-1.1-0.2v-0.4c0.2,0.1,0.3,0.1,0.5,0.2
		c0.2,0,0.4,0.1,0.6,0.1c0.3,0,0.5-0.1,0.7-0.2c0.2-0.1,0.2-0.3,0.2-0.5c0-0.1,0-0.2-0.1-0.3s-0.1-0.2-0.3-0.2
		c-0.1-0.1-0.3-0.2-0.6-0.2c-0.4-0.1-0.6-0.3-0.8-0.5s-0.2-0.4-0.2-0.7s0.1-0.5,0.3-0.7s0.5-0.3,0.9-0.3s0.7,0.1,1.1,0.2l-0.1,0.4
		c-0.3-0.1-0.6-0.2-0.9-0.2c-0.2,0-0.4,0.1-0.6,0.2c-0.1,0.1-0.2,0.2-0.2,0.4c0,0.1,0,0.2,0.1,0.3c0,0.1,0.1,0.2,0.3,0.2
		s0.3,0.2,0.5,0.2c0.4,0.1,0.7,0.3,0.8,0.5C218,165.9,218.1,166.1,218.1,166.4z"/>
	<path d="M221.4,164.7c0,0.4-0.1,0.7-0.4,0.9s-0.7,0.3-1.2,0.3h-0.5v1.5h-0.5v-3.9h1C220.9,163.5,221.4,163.9,221.4,164.7z
		 M219.4,165.5h0.4c0.4,0,0.7-0.1,0.9-0.2s0.3-0.3,0.3-0.6s-0.1-0.5-0.3-0.6s-0.4-0.2-0.8-0.2h-0.5L219.4,165.5L219.4,165.5z"/>
	<path d="M225.2,163.5v2.5c0,0.4-0.1,0.8-0.4,1.1c-0.3,0.3-0.6,0.4-1.1,0.4s-0.8-0.1-1.1-0.4s-0.4-0.6-0.4-1.1v-2.5h0.5v2.6
		c0,0.3,0.1,0.6,0.3,0.8s0.4,0.3,0.8,0.3c0.3,0,0.6-0.1,0.8-0.3s0.3-0.4,0.3-0.8v-2.6H225.2z"/>
	<path d="M228.4,167.4h-2.2v-3.9h2.2v0.4h-1.7v1.3h1.6v0.4h-1.6v1.4h1.7V167.4z"/>
	<path d="M231.5,166.4c0,0.3-0.1,0.6-0.4,0.8c-0.3,0.2-0.6,0.3-1,0.3c-0.5,0-0.8-0.1-1.1-0.2v-0.4c0.2,0.1,0.3,0.1,0.5,0.2
		c0.2,0,0.4,0.1,0.6,0.1c0.3,0,0.5-0.1,0.7-0.2c0.2-0.1,0.2-0.3,0.2-0.5c0-0.1,0-0.2-0.1-0.3s-0.1-0.2-0.3-0.2
		c-0.1-0.1-0.3-0.2-0.6-0.2c-0.4-0.1-0.6-0.3-0.8-0.5s-0.2-0.4-0.2-0.7s0.1-0.5,0.3-0.7s0.5-0.3,0.9-0.3s0.7,0.1,1.1,0.2l-0.1,0.4
		c-0.3-0.1-0.6-0.2-0.9-0.2c-0.2,0-0.4,0.1-0.6,0.2s-0.2,0.2-0.2,0.4c0,0.1,0,0.2,0.1,0.3s0.1,0.2,0.3,0.2s0.3,0.2,0.5,0.2
		c0.4,0.1,0.7,0.3,0.9,0.5C231.4,165.9,231.5,166.1,231.5,166.4z"/>
	<path d="M233.5,167.4H233v-3.5h-1.2v-0.4h2.9v0.4h-1.2V167.4z"/>
	<path d="M237.8,167.4l-0.5-1.2h-1.6l-0.5,1.2h-0.5l1.6-3.9h0.4l1.5,3.9H237.8z M237.2,165.8l-0.5-1.2c-0.1-0.2-0.1-0.3-0.2-0.6
		c0,0.2-0.1,0.4-0.2,0.6l-0.5,1.2H237.2z"/>
	<path d="M201.5,174v-3.9h0.5v3.9H201.5z"/>
	<path d="M206.1,174h-0.5l-2.1-3.3l0,0c0,0.4,0,0.7,0,1.1v2.2H203v-3.9h0.5l2.1,3.3l0,0c0,0,0-0.2,0-0.5s0-0.5,0-0.6V170h0.4v4
		H206.1z"/>
	<path d="M209.4,173c0,0.3-0.1,0.6-0.4,0.8c-0.2,0.2-0.6,0.3-1,0.3c-0.5,0-0.8-0.1-1.1-0.2v-0.4c0.2,0.1,0.3,0.1,0.5,0.2
		c0.2,0,0.4,0.1,0.6,0.1c0.3,0,0.5-0.1,0.7-0.2c0.2-0.1,0.2-0.3,0.2-0.5c0-0.1,0-0.2-0.1-0.3s-0.1-0.2-0.3-0.2s-0.3-0.2-0.6-0.2
		c-0.4-0.1-0.6-0.3-0.8-0.5s-0.2-0.4-0.2-0.7s0.1-0.5,0.3-0.7s0.5-0.3,0.9-0.3s0.7,0.1,1.1,0.2l-0.1,0.4c-0.3-0.1-0.6-0.2-0.9-0.2
		c-0.2,0-0.4,0.1-0.6,0.2c-0.1,0.1-0.2,0.2-0.2,0.4c0,0.1,0,0.2,0.1,0.3c0,0.1,0.1,0.2,0.3,0.2c0.1,0.1,0.3,0.2,0.5,0.2
		c0.4,0.1,0.7,0.3,0.8,0.5C209.3,172.5,209.4,172.7,209.4,173z"/>
	<path d="M212.6,174l-0.5-1.2h-1.6L210,174h-0.5l1.6-3.9h0.4l1.5,3.9H212.6z M212,172.4l-0.5-1.2c-0.1-0.2-0.1-0.3-0.2-0.6
		c0,0.2-0.1,0.4-0.2,0.6l-0.5,1.2H212z"/>
	<path d="M214.9,174h-0.5v-3.5h-1.2v-0.4h2.9v0.4h-1.2V174z"/>
	<path d="M216.7,174v-3.9h0.5v3.9H216.7z"/>
	<path d="M220.4,173c0,0.3-0.1,0.6-0.4,0.8c-0.2,0.2-0.6,0.3-1,0.3c-0.5,0-0.8-0.1-1.1-0.2v-0.4c0.2,0.1,0.3,0.1,0.5,0.2
		c0.2,0,0.4,0.1,0.6,0.1c0.3,0,0.5-0.1,0.7-0.2c0.2-0.1,0.2-0.3,0.2-0.5c0-0.1,0-0.2-0.1-0.3s-0.1-0.2-0.3-0.2s-0.3-0.2-0.6-0.2
		c-0.4-0.1-0.6-0.3-0.8-0.5s-0.2-0.4-0.2-0.7s0.1-0.5,0.3-0.7s0.5-0.3,0.9-0.3s0.7,0.1,1.1,0.2l-0.1,0.4c-0.3-0.1-0.6-0.2-0.9-0.2
		c-0.2,0-0.4,0.1-0.6,0.2c-0.1,0.1-0.2,0.2-0.2,0.4c0,0.1,0,0.2,0.1,0.3c0,0.1,0.1,0.2,0.3,0.2c0.1,0.1,0.3,0.2,0.5,0.2
		c0.4,0.1,0.7,0.3,0.8,0.5C220.4,172.5,220.4,172.7,220.4,173z"/>
	<path d="M221.7,174h-0.5v-3.9h2.2v0.4h-1.7v1.4h1.6v0.4h-1.6V174z"/>
	<path d="M226.6,174l-0.5-1.2h-1.6L224,174h-0.5l1.6-3.9h0.4l1.5,3.9H226.6z M225.9,172.4l-0.5-1.2c-0.1-0.2-0.1-0.3-0.2-0.6
		c0,0.2-0.1,0.4-0.2,0.6l-0.5,1.2H225.9z"/>
	<path d="M229.2,170.5c-0.4,0-0.8,0.1-1,0.4c-0.2,0.3-0.4,0.7-0.4,1.2s0.1,0.9,0.4,1.2c0.2,0.3,0.6,0.4,1,0.4c0.3,0,0.6,0,0.9-0.1
		v0.4c-0.3,0.1-0.6,0.2-1,0.2c-0.6,0-1-0.2-1.3-0.5c-0.3-0.4-0.5-0.8-0.5-1.5c0-0.4,0.1-0.8,0.2-1.1c0.2-0.3,0.4-0.5,0.7-0.7
		s0.6-0.2,1-0.2s0.8,0.1,1.1,0.2l-0.2,0.4C229.8,170.5,229.5,170.5,229.2,170.5z"/>
	<path d="M232.2,174h-0.5v-3.5h-1.2v-0.4h2.9v0.4h-1.2V174z"/>
	<path d="M237.5,172.1c0,0.6-0.2,1.1-0.5,1.5s-0.8,0.5-1.3,0.5c-0.6,0-1-0.2-1.3-0.5s-0.5-0.9-0.5-1.5s0.2-1.1,0.5-1.5
		s0.8-0.5,1.3-0.5c0.6,0,1,0.2,1.3,0.5C237.3,170.9,237.5,171.4,237.5,172.1z M234.4,172.1c0,0.5,0.1,0.9,0.3,1.2s0.6,0.4,1,0.4
		s0.8-0.1,1-0.4c0.2-0.3,0.3-0.7,0.3-1.2s-0.1-0.9-0.3-1.2s-0.5-0.4-1-0.4c-0.4,0-0.8,0.1-1,0.4
		C234.5,171.1,234.4,171.5,234.4,172.1z M235.3,169.7c0.1-0.1,0.2-0.2,0.3-0.4s0.2-0.3,0.2-0.4h0.5v0.1c-0.1,0.1-0.2,0.3-0.4,0.4
		c-0.2,0.2-0.3,0.3-0.4,0.4L235.3,169.7L235.3,169.7z"/>
	<path d="M238.8,172.4v1.6h-0.5v-3.9h1.1c0.5,0,0.8,0.1,1.1,0.3c0.2,0.2,0.3,0.5,0.3,0.8c0,0.5-0.3,0.9-0.8,1.1l1.1,1.8h-0.5l-1-1.6
		h-0.8V172.4z M238.8,172h0.6c0.3,0,0.6-0.1,0.7-0.2s0.2-0.3,0.2-0.6s-0.1-0.4-0.2-0.6c-0.2-0.1-0.4-0.2-0.7-0.2h-0.6V172z"/>
	<path d="M241.8,174v-3.9h0.5v3.9H241.8z"/>
	<path d="M245.8,174l-0.5-1.2h-1.6l-0.5,1.2h-0.5l1.6-3.9h0.4l1.5,3.9H245.8z M245.1,172.4l-0.5-1.2c-0.1-0.2-0.1-0.3-0.2-0.6
		c0,0.2-0.1,0.4-0.2,0.6l-0.5,1.2H245.1z"/>
</g>
<g>
	<path d="M257,166.4c0,0.3-0.1,0.6-0.4,0.8c-0.2,0.2-0.6,0.3-1,0.3c-0.5,0-0.8-0.1-1.1-0.2v-0.4c0.2,0.1,0.3,0.1,0.5,0.2
		c0.2,0,0.4,0.1,0.6,0.1c0.3,0,0.5-0.1,0.7-0.2c0.2-0.1,0.2-0.3,0.2-0.5c0-0.1,0-0.2-0.1-0.3s-0.1-0.2-0.3-0.2
		c-0.1-0.1-0.3-0.2-0.6-0.2c-0.4-0.1-0.6-0.3-0.8-0.5s-0.2-0.4-0.2-0.7s0.1-0.5,0.3-0.7s0.5-0.3,0.9-0.3c0.4,0,0.7,0.1,1.1,0.2
		l-0.1,0.4c-0.3-0.1-0.6-0.2-0.9-0.2c-0.2,0-0.4,0.1-0.6,0.2c-0.1,0.1-0.2,0.2-0.2,0.4c0,0.1,0,0.2,0.1,0.3c0,0.1,0.1,0.2,0.3,0.2
		s0.3,0.2,0.5,0.2c0.4,0.1,0.7,0.3,0.8,0.5C256.9,165.9,257,166.1,257,166.4z"/>
	<path d="M261.2,165.5c0,0.6-0.2,1.1-0.5,1.5s-0.8,0.5-1.3,0.5c-0.6,0-1-0.2-1.3-0.5s-0.5-0.9-0.5-1.5s0.2-1.1,0.5-1.5
		s0.8-0.5,1.3-0.5c0.6,0,1,0.2,1.3,0.5C261.1,164.3,261.2,164.8,261.2,165.5z M258.1,165.5c0,0.5,0.1,0.9,0.3,1.2
		c0.2,0.3,0.6,0.4,1,0.4s0.8-0.1,1-0.4c0.2-0.3,0.3-0.7,0.3-1.2s-0.1-0.9-0.3-1.2c-0.2-0.3-0.5-0.4-1-0.4c-0.4,0-0.8,0.1-1,0.4
		C258.2,164.5,258.1,164.9,258.1,165.5z"/>
	<path d="M262.1,167.4v-3.9h0.5v3.5h1.7v0.4H262.1z"/>
	<path d="M265,167.4v-3.9h0.5v3.9H265z"/>
	<path d="M268.2,163.9c-0.4,0-0.8,0.1-1,0.4s-0.4,0.7-0.4,1.2s0.1,0.9,0.4,1.2c0.2,0.3,0.6,0.4,1,0.4c0.3,0,0.6,0,0.9-0.1v0.4
		c-0.3,0.1-0.6,0.2-1,0.2c-0.6,0-1-0.2-1.3-0.5c-0.3-0.4-0.5-0.8-0.5-1.5c0-0.4,0.1-0.8,0.2-1.1s0.4-0.5,0.7-0.7
		c0.3-0.2,0.6-0.2,1-0.2s0.8,0.1,1.1,0.2l-0.2,0.4C268.8,163.9,268.5,163.9,268.2,163.9z"/>
	<path d="M270,167.4v-3.9h0.5v3.9H270z"/>
	<path d="M272.7,167.4h-0.5v-3.5H271v-0.4h2.9v0.4h-1.2L272.7,167.4L272.7,167.4z"/>
	<path d="M277.5,163.5v2.5c0,0.4-0.1,0.8-0.4,1.1s-0.6,0.4-1.1,0.4s-0.8-0.1-1.1-0.4s-0.4-0.6-0.4-1.1v-2.5h0.5v2.6
		c0,0.3,0.1,0.6,0.3,0.8c0.2,0.2,0.4,0.3,0.8,0.3c0.3,0,0.6-0.1,0.8-0.3c0.2-0.2,0.3-0.4,0.3-0.8v-2.6H277.5z"/>
	<path d="M281.7,165.4c0,0.6-0.2,1.1-0.5,1.5c-0.4,0.3-0.9,0.5-1.5,0.5h-1.1v-3.9h1.2c0.6,0,1.1,0.2,1.4,0.5
		C281.5,164.4,281.7,164.8,281.7,165.4z M281.2,165.5c0-0.5-0.1-0.9-0.4-1.2s-0.6-0.4-1.1-0.4H279v3.1h0.6c0.5,0,1-0.1,1.2-0.4
		C281.1,166.4,281.2,166,281.2,165.5z"/>
	<path d="M286.2,167.4H284v-3.9h2.2v0.4h-1.7v1.3h1.6v0.4h-1.6v1.4h1.7V167.4z"/>
	<path d="M290.1,167.4h-0.5l-2.1-3.3l0,0c0,0.4,0,0.7,0,1.1v2.2H287v-3.9h0.5l2.1,3.3l0,0c0,0,0-0.2,0-0.5s0-0.5,0-0.6v-2.3h0.4v4
		H290.1z"/>
	<path d="M260,172c0,0.6-0.2,1.1-0.5,1.5c-0.4,0.3-0.9,0.5-1.5,0.5h-1.1v-3.9h1.2c0.6,0,1.1,0.2,1.4,0.5
		C259.9,171,260,171.4,260,172z M259.5,172.1c0-0.5-0.1-0.9-0.4-1.2s-0.6-0.4-1.1-0.4h-0.7v3.1h0.6c0.5,0,1-0.1,1.2-0.4
		C259.4,173,259.5,172.6,259.5,172.1z"/>
	<path d="M263.9,170.1v2.5c0,0.4-0.1,0.8-0.4,1.1s-0.6,0.4-1.1,0.4s-0.8-0.1-1.1-0.4s-0.4-0.6-0.4-1.1v-2.5h0.5v2.6
		c0,0.3,0.1,0.6,0.3,0.8c0.2,0.2,0.4,0.3,0.8,0.3c0.3,0,0.6-0.1,0.8-0.3c0.2-0.2,0.3-0.4,0.3-0.8v-2.6H263.9z"/>
	<path d="M267.4,171.3c0,0.4-0.1,0.7-0.4,0.9s-0.7,0.3-1.2,0.3h-0.5v1.5h-0.5v-3.9h1C266.9,170.1,267.4,170.5,267.4,171.3z
		 M265.4,172.1h0.4c0.4,0,0.7-0.1,0.9-0.2s0.3-0.3,0.3-0.6s-0.1-0.5-0.3-0.6c-0.2-0.1-0.4-0.2-0.8-0.2h-0.5V172.1z"/>
	<path d="M268.2,174v-3.9h0.5v3.5h1.7v0.4H268.2z"/>
	<path d="M271.1,174v-3.9h0.5v3.9H271.1z"/>
	<path d="M274.3,170.5c-0.4,0-0.8,0.1-1,0.4c-0.2,0.3-0.4,0.7-0.4,1.2s0.1,0.9,0.4,1.2c0.2,0.3,0.6,0.4,1,0.4c0.3,0,0.6,0,0.9-0.1
		v0.4c-0.3,0.1-0.6,0.2-1,0.2c-0.6,0-1-0.2-1.3-0.5c-0.3-0.4-0.5-0.8-0.5-1.5c0-0.4,0.1-0.8,0.2-1.1c0.2-0.3,0.4-0.5,0.7-0.7
		c0.3-0.2,0.6-0.2,1-0.2s0.8,0.1,1.1,0.2l-0.2,0.4C274.9,170.5,274.6,170.5,274.3,170.5z"/>
	<path d="M276.1,174v-3.9h0.5v3.9H276.1z"/>
	<path d="M280.7,172c0,0.6-0.2,1.1-0.5,1.5s-0.9,0.5-1.5,0.5h-1.1v-3.9h1.2c0.6,0,1.1,0.2,1.4,0.5C280.6,171,280.7,171.4,280.7,172z
		 M280.3,172.1c0-0.5-0.1-0.9-0.4-1.2s-0.6-0.4-1.1-0.4h-0.7v3.1h0.6c0.5,0,1-0.1,1.2-0.4C280.1,173,280.3,172.6,280.3,172.1z"/>
	<path d="M284.1,174l-0.5-1.2H282l-0.5,1.2H281l1.6-3.9h0.4l1.5,3.9H284.1z M283.5,172.4l-0.5-1.2c-0.1-0.2-0.1-0.3-0.2-0.6
		c0,0.2-0.1,0.4-0.2,0.6l-0.5,1.2H283.5z"/>
	<path d="M288.2,172c0,0.6-0.2,1.1-0.5,1.5s-0.9,0.5-1.5,0.5h-1.1v-3.9h1.2c0.6,0,1.1,0.2,1.4,0.5C288.1,171,288.2,171.4,288.2,172z
		 M287.8,172.1c0-0.5-0.1-0.9-0.4-1.2s-0.6-0.4-1.1-0.4h-0.7v3.1h0.6c0.5,0,1-0.1,1.2-0.4C287.6,173,287.8,172.6,287.8,172.1z"/>
</g>
<g>
	<path d="M306,165.4c0,0.6-0.2,1.1-0.5,1.5c-0.4,0.3-0.9,0.5-1.5,0.5h-1.1v-3.9h1.2c0.6,0,1.1,0.2,1.4,0.5
		C305.8,164.4,306,164.8,306,165.4z M305.5,165.5c0-0.5-0.1-0.9-0.4-1.2s-0.6-0.4-1.1-0.4h-0.7v3.1h0.6c0.5,0,1-0.1,1.2-0.4
		C305.4,166.4,305.5,166,305.5,165.5z"/>
	<path d="M309.1,167.4h-2.2v-3.9h2.2v0.4h-1.7v1.3h1.6v0.4h-1.6v1.4h1.7V167.4z"/>
	<path d="M313,167.4h-0.5l-2.1-3.3l0,0c0,0.4,0,0.7,0,1.1v2.2H310v-3.9h0.5l2.1,3.3l0,0c0,0,0-0.2,0-0.5s0-0.5,0-0.6v-2.3h0.4V167.4
		z"/>
	<path d="M316.3,167.4h-2.2v-3.9h2.2v0.4h-1.7v1.3h1.6v0.4h-1.6v1.4h1.7V167.4z"/>
	<path d="M318.9,165.4h1.3v1.9c-0.2,0.1-0.4,0.1-0.6,0.2c-0.2,0-0.5,0.1-0.7,0.1c-0.6,0-1.1-0.2-1.4-0.5s-0.5-0.8-0.5-1.5
		c0-0.4,0.1-0.8,0.2-1.1c0.2-0.3,0.4-0.5,0.7-0.7c0.3-0.2,0.7-0.2,1.1-0.2s0.8,0.1,1.2,0.2l-0.2,0.4c-0.4-0.2-0.7-0.2-1-0.2
		c-0.5,0-0.9,0.1-1.1,0.4c-0.3,0.3-0.4,0.7-0.4,1.2s0.1,0.9,0.4,1.2s0.6,0.4,1.1,0.4c0.3,0,0.5,0,0.8-0.1v-1.2h-0.9V165.4z"/>
	<path d="M323.6,167.4l-0.5-1.2h-1.6l-0.5,1.2h-0.5l1.6-3.9h0.4l1.5,3.9H323.6z M323,165.8l-0.5-1.2c-0.1-0.2-0.1-0.3-0.2-0.6
		c0,0.2-0.1,0.4-0.2,0.6l-0.5,1.2H323z"/>
	<path d="M327.8,165.4c0,0.6-0.2,1.1-0.5,1.5s-0.9,0.5-1.5,0.5h-1.1v-3.9h1.2c0.6,0,1.1,0.2,1.4,0.5
		C327.6,164.4,327.8,164.8,327.8,165.4z M327.3,165.5c0-0.5-0.1-0.9-0.4-1.2s-0.6-0.4-1.1-0.4h-0.7v3.1h0.6c0.5,0,1-0.1,1.2-0.4
		C327.2,166.4,327.3,166,327.3,165.5z"/>
	<path d="M332.1,165.5c0,0.6-0.2,1.1-0.5,1.5s-0.8,0.5-1.3,0.5c-0.6,0-1-0.2-1.3-0.5s-0.5-0.9-0.5-1.5s0.2-1.1,0.5-1.5
		s0.8-0.5,1.3-0.5c0.6,0,1,0.2,1.3,0.5S332.1,164.8,332.1,165.5z M328.9,165.5c0,0.5,0.1,0.9,0.3,1.2c0.2,0.3,0.6,0.4,1,0.4
		s0.8-0.1,1-0.4c0.2-0.3,0.3-0.7,0.3-1.2s-0.1-0.9-0.3-1.2c-0.2-0.3-0.5-0.4-1-0.4c-0.4,0-0.8,0.1-1,0.4
		C329,164.5,328.9,164.9,328.9,165.5z"/>
</g>
<g>
	<path d="M27.7,69.9v1.6h-0.5v-3.9h1.1c0.5,0,0.8,0.1,1.1,0.3c0.2,0.2,0.3,0.5,0.3,0.8c0,0.5-0.3,0.9-0.8,1.1l1.1,1.8h-0.5l-1-1.6
		h-0.8V69.9z M27.7,69.5h0.6c0.3,0,0.6-0.1,0.7-0.2s0.2-0.3,0.2-0.6c0-0.3-0.1-0.4-0.2-0.6c-0.2-0.1-0.4-0.2-0.7-0.2h-0.6V69.5z"/>
	<path d="M32.8,71.5h-2.2v-3.9h2.2V68h-1.7v1.3h1.6v0.4h-1.6v1.4h1.7C32.8,71.1,32.8,71.5,32.8,71.5z"/>
	<path d="M35.9,70.5c0,0.3-0.1,0.6-0.4,0.8s-0.6,0.3-1,0.3c-0.5,0-0.8-0.1-1.1-0.2V71c0.2,0.1,0.3,0.1,0.5,0.2
		c0.2,0,0.4,0.1,0.6,0.1c0.3,0,0.5-0.1,0.7-0.2s0.2-0.3,0.2-0.5c0-0.1,0-0.2-0.1-0.3S35.2,70,35.1,70c-0.1-0.1-0.3-0.2-0.6-0.2
		c-0.4-0.1-0.6-0.3-0.8-0.5s-0.2-0.4-0.2-0.7c0-0.3,0.1-0.5,0.3-0.7s0.5-0.3,0.9-0.3s0.7,0.1,1.1,0.2l-0.1,0.4
		C35.3,68,35,68,34.7,68c-0.2,0-0.4,0.1-0.6,0.2c-0.1,0.1-0.2,0.2-0.2,0.4c0,0.1,0,0.2,0.1,0.3c0,0.1,0.1,0.2,0.3,0.2
		c0.1,0.1,0.3,0.2,0.5,0.2c0.4,0.1,0.7,0.3,0.9,0.5C35.8,70,35.9,70.2,35.9,70.5z"/>
	<path d="M39.2,68.8c0,0.4-0.1,0.7-0.4,0.9c-0.3,0.2-0.7,0.3-1.2,0.3h-0.5v1.5h-0.5v-3.9h1C38.7,67.6,39.2,68,39.2,68.8z M37.2,69.6
		h0.4c0.4,0,0.7-0.1,0.9-0.2s0.3-0.3,0.3-0.6c0-0.3-0.1-0.5-0.3-0.6C38.3,68.1,38,68,37.7,68h-0.5V69.6z"/>
	<path d="M43,67.6v2.5c0,0.4-0.1,0.8-0.4,1.1c-0.3,0.3-0.6,0.4-1.1,0.4s-0.8-0.1-1.1-0.4s-0.4-0.6-0.4-1v-2.5h0.5v2.6
		c0,0.3,0.1,0.6,0.3,0.8c0.2,0.2,0.4,0.3,0.8,0.3c0.3,0,0.6-0.1,0.8-0.3c0.2-0.2,0.3-0.4,0.3-0.8v-2.6L43,67.6L43,67.6z"/>
	<path d="M46.2,71.5H44v-3.9h2.2V68h-1.7v1.3h1.6v0.4h-1.6v1.4h1.7V71.5z"/>
	<path d="M49.3,70.5c0,0.3-0.1,0.6-0.4,0.8s-0.6,0.3-1,0.3c-0.5,0-0.8-0.1-1.1-0.2V71c0.2,0.1,0.3,0.1,0.5,0.2
		c0.2,0,0.4,0.1,0.6,0.1c0.3,0,0.5-0.1,0.7-0.2s0.2-0.3,0.2-0.5c0-0.1,0-0.2-0.1-0.3S48.6,70,48.5,70c-0.1-0.1-0.3-0.2-0.6-0.2
		c-0.4-0.1-0.6-0.3-0.8-0.5s-0.2-0.4-0.2-0.7c0-0.3,0.1-0.5,0.3-0.7s0.5-0.3,0.9-0.3s0.7,0.1,1.1,0.2l-0.1,0.4
		c-0.4-0.2-0.7-0.2-1-0.2c-0.2,0-0.4,0.1-0.6,0.2c-0.1,0.1-0.2,0.2-0.2,0.4c0,0.1,0,0.2,0.1,0.3c0,0.1,0.1,0.2,0.3,0.2
		c0.1,0.1,0.3,0.2,0.5,0.2c0.4,0.1,0.7,0.3,0.9,0.5C49.2,70,49.3,70.2,49.3,70.5z"/>
	<path d="M51.3,71.5h-0.5V68h-1.2v-0.4h2.9V68h-1.2V71.5z"/>
	<path d="M55.6,71.5l-0.5-1.2h-1.6L53,71.5h-0.5l1.6-3.9h0.4l1.5,3.9H55.6z M55,69.9l-0.5-1.2c-0.1-0.2-0.1-0.3-0.2-0.6
		c0,0.2-0.1,0.4-0.2,0.6l-0.5,1.2H55z"/>
	<path d="M61.2,69.5c0,0.6-0.2,1.1-0.5,1.5c-0.4,0.3-0.9,0.5-1.5,0.5h-1.1v-3.9h1.2c0.6,0,1.1,0.2,1.4,0.5
		C61,68.5,61.2,68.9,61.2,69.5z M60.7,69.6c0-0.5-0.1-0.9-0.4-1.2S59.7,68,59.2,68h-0.7v3.1h0.6c0.5,0,1-0.1,1.2-0.4
		C60.6,70.5,60.7,70.1,60.7,69.6z"/>
	<path d="M64.3,71.5h-2.2v-3.9h2.2V68h-1.7v1.3h1.6v0.4h-1.6v1.4h1.7V71.5z"/>
	<path d="M68.2,71.5h-0.5l-2.1-3.3l0,0c0,0.4,0,0.7,0,1.1v2.2h-0.4v-3.9h0.5l2.1,3.3l0,0c0,0,0-0.2,0-0.5s0-0.5,0-0.6v-2.3h0.4V71.5
		z"/>
	<path d="M70.5,71.5H70V68h-1.2v-0.4h2.9V68h-1.2C70.5,68,70.5,71.5,70.5,71.5z"/>
	<path d="M72.8,69.9v1.6h-0.5v-3.9h1.1c0.5,0,0.8,0.1,1.1,0.3c0.2,0.2,0.3,0.5,0.3,0.8c0,0.5-0.3,0.9-0.8,1.1l1.1,1.8h-0.5l-1-1.6
		h-0.8V69.9z M72.8,69.5h0.6c0.3,0,0.6-0.1,0.7-0.2s0.2-0.3,0.2-0.6c0-0.3-0.1-0.4-0.2-0.6c-0.2-0.1-0.4-0.2-0.7-0.2h-0.6V69.5z"/>
	<path d="M79.1,69.6c0,0.6-0.2,1.1-0.5,1.5s-0.8,0.5-1.3,0.5c-0.6,0-1-0.2-1.3-0.5c-0.3-0.4-0.5-0.9-0.5-1.5s0.2-1.1,0.5-1.5
		s0.8-0.5,1.3-0.5c0.6,0,1,0.2,1.3,0.5C79,68.5,79.1,69,79.1,69.6z M76,69.6c0,0.5,0.1,0.9,0.3,1.2s0.6,0.4,1,0.4s0.8-0.1,1-0.4
		s0.3-0.7,0.3-1.2s-0.1-0.9-0.3-1.2s-0.5-0.4-1-0.4c-0.4,0-0.8,0.1-1,0.4S76,69.1,76,69.6z"/>
	<path d="M30.4,76.1c0,0.6-0.2,1.1-0.5,1.5c-0.4,0.3-0.9,0.5-1.5,0.5h-1.1v-3.9h1.2c0.6,0,1.1,0.2,1.4,0.5
		C30.2,75.1,30.4,75.5,30.4,76.1z M29.9,76.2c0-0.5-0.1-0.9-0.4-1.2s-0.6-0.4-1.1-0.4h-0.7v3.1h0.6c0.5,0,1-0.1,1.2-0.4
		C29.7,77.1,29.9,76.7,29.9,76.2z"/>
	<path d="M33.4,78.1h-2.2v-3.9h2.2v0.4h-1.7v1.3h1.6v0.4h-1.6v1.4h1.7C33.4,77.7,33.4,78.1,33.4,78.1z"/>
	<path d="M34.3,78.1v-3.9h0.5v3.5h1.7v0.4H34.3z"/>
	<path d="M41.1,75.4c0,0.4-0.1,0.7-0.4,0.9c-0.3,0.2-0.7,0.3-1.2,0.3H39v1.5h-0.5v-3.9h1C40.6,74.2,41.1,74.6,41.1,75.4z M39,76.2
		h0.4c0.4,0,0.7-0.1,0.9-0.2s0.3-0.3,0.3-0.6c0-0.3-0.1-0.5-0.3-0.6s-0.4-0.2-0.8-0.2H39V76.2z"/>
	<path d="M41.9,78.1v-3.9h0.5v3.5h1.7v0.4H41.9z"/>
	<path d="M47.2,78.1l-0.5-1.2h-1.6l-0.5,1.2h-0.5l1.6-3.9h0.4l1.5,3.9H47.2z M46.6,76.5l-0.5-1.2C46,75.1,46,75,45.9,74.7
		c0,0.2-0.1,0.4-0.2,0.6l-0.5,1.2H46.6z"/>
	<path d="M50.6,78.1h-2.7v-0.4l2.1-3.2h-2v-0.4h2.6v0.4l-2.1,3.2h2.1C50.6,77.7,50.6,78.1,50.6,78.1z"/>
	<path d="M54.8,76.2c0,0.6-0.2,1.1-0.5,1.5C54,78,53.5,78.2,53,78.2c-0.6,0-1-0.2-1.3-0.5c-0.3-0.4-0.5-0.9-0.5-1.5s0.2-1.1,0.5-1.5
		s0.8-0.5,1.3-0.5c0.6,0,1,0.2,1.3,0.5C54.6,75.1,54.8,75.6,54.8,76.2z M51.6,76.2c0,0.5,0.1,0.9,0.3,1.2s0.6,0.4,1,0.4
		s0.8-0.1,1-0.4s0.3-0.7,0.3-1.2s-0.1-0.9-0.3-1.2s-0.5-0.4-1-0.4c-0.4,0-0.8,0.1-1,0.4S51.6,75.7,51.6,76.2z"/>
</g>
</svg>
