<?xml version="1.0" encoding="utf-8"?>
<!-- Generator: Adobe Illustrator 25.0.0, SVG Export Plug-In . SVG Version: 6.00 Build 0)  -->
<svg version="1.1" id="Layer_1" xmlns="http://www.w3.org/2000/svg" xmlns:xlink="http://www.w3.org/1999/xlink" x="0px" y="0px"
	 viewBox="0 0 360 182" style="enable-background:new 0 0 360 182;" xml:space="preserve">
<style type="text/css">
	.st0{clip-path:url(#SVGID_2_);fill:#03051F;}
	.st1{fill:#03051F;}
	.st2{clip-path:url(#SVGID_4_);fill:#03051F;}
	.st3{fill:#87E08A;}
	.st4{clip-path:url(#SVGID_6_);fill:#03051F;}
	.st5{clip-path:url(#SVGID_8_);fill:#03051F;}
	.st6{clip-path:url(#SVGID_10_);fill:#03051F;}
	.st7{clip-path:url(#SVGID_12_);fill:#03051F;}
	.st8{fill:#2163FF;}
	.st9{fill:#2154ED;}
	.st10{clip-path:url(#SVGID_40_);fill:#2154ED;}
	.st11{clip-path:url(#SVGID_42_);fill:#2154ED;}
	.st12{clip-path:url(#SVGID_44_);fill:#87E08A;}
	.st13{clip-path:url(#SVGID_46_);fill:#2154ED;}
	.st14{clip-path:url(#SVGID_48_);fill:#2154ED;}
	.st15{fill:#231F20;}
	.st16{fill:#FFFFFF;}
</style>
<g>
	<defs>
		<polyline id="SVGID_1_" points="360,181 360,1 0,1 0,181 		"/>
	</defs>
	<clipPath id="SVGID_2_">
		<use xlink:href="#SVGID_1_"  style="overflow:visible;"/>
	</clipPath>
	<path class="st0" d="M28.6,51.3l-0.4-1c0-0.1-0.1-0.3-0.2-0.5c0,0.1-0.1,0.3-0.1,0.5l-0.4,1H28.6z M29.1,52.6l-0.4-1h-1.3l-0.4,1
		h-0.4l1.3-3.3h0.3l1.3,3.3H29.1z"/>
</g>
<polygon class="st1" points="31.1,52.6 30.7,52.6 30.7,49.7 29.7,49.7 29.7,49.4 32.1,49.4 32.1,49.7 31.1,49.7 "/>
<g>
	<defs>
		<polyline id="SVGID_3_" points="360,181 360,1 0,1 0,181 		"/>
	</defs>
	<clipPath id="SVGID_4_">
		<use xlink:href="#SVGID_3_"  style="overflow:visible;"/>
	</clipPath>
	<path class="st2" d="M33.2,51h0.5c0.3,0,0.5-0.1,0.6-0.2c0.1-0.1,0.2-0.3,0.2-0.5c0-0.2-0.1-0.4-0.2-0.5c-0.1-0.1-0.3-0.1-0.6-0.1
		h-0.5V51z M33.2,51.3v1.4h-0.4v-3.3h0.9c0.4,0,0.7,0.1,0.9,0.2c0.2,0.2,0.3,0.4,0.3,0.7c0,0.4-0.2,0.7-0.7,0.9l0.9,1.5h-0.4
		l-0.8-1.4H33.2z"/>
	<path class="st2" d="M37.3,51.3l-0.4-1c0-0.1-0.1-0.3-0.2-0.5c0,0.1-0.1,0.3-0.1,0.5l-0.4,1H37.3z M37.9,52.6l-0.4-1h-1.3l-0.4,1
		h-0.4l1.3-3.3H37l1.3,3.3H37.9z"/>
	<path class="st2" d="M40.7,51.8c0,0.3-0.1,0.5-0.3,0.7c-0.2,0.2-0.5,0.2-0.8,0.2c-0.4,0-0.7,0-0.9-0.1v-0.4
		c0.1,0.1,0.3,0.1,0.4,0.1c0.2,0,0.3,0,0.5,0c0.3,0,0.4,0,0.6-0.1c0.1-0.1,0.2-0.2,0.2-0.4c0-0.1,0-0.2-0.1-0.3
		c0-0.1-0.1-0.1-0.2-0.2c-0.1-0.1-0.3-0.1-0.5-0.2c-0.3-0.1-0.5-0.2-0.7-0.4c-0.1-0.1-0.2-0.3-0.2-0.6c0-0.3,0.1-0.5,0.3-0.6
		c0.2-0.1,0.4-0.2,0.7-0.2c0.3,0,0.6,0.1,0.9,0.2l-0.1,0.3c-0.3-0.1-0.5-0.2-0.8-0.2c-0.2,0-0.4,0-0.5,0.1s-0.2,0.2-0.2,0.4
		c0,0.1,0,0.2,0.1,0.3c0,0.1,0.1,0.1,0.2,0.2c0.1,0.1,0.2,0.1,0.5,0.2c0.3,0.1,0.6,0.3,0.7,0.4C40.7,51.4,40.7,51.6,40.7,51.8"/>
	<path class="st2" d="M43.1,51.3l-0.4-1c0-0.1-0.1-0.3-0.2-0.5c0,0.1-0.1,0.3-0.1,0.5l-0.4,1H43.1z M43.6,52.6l-0.4-1h-1.3l-0.4,1
		h-0.4l1.3-3.3h0.3l1.3,3.3H43.6z"/>
	<path class="st2" d="M46.8,51c0-0.4-0.1-0.7-0.3-1c-0.2-0.2-0.5-0.3-1-0.3H45v2.6h0.5c0.5,0,0.8-0.1,1-0.3
		C46.7,51.8,46.8,51.4,46.8,51 M47.2,51c0,0.5-0.1,1-0.4,1.2c-0.3,0.3-0.7,0.4-1.3,0.4h-0.9v-3.3h1c0.5,0,0.9,0.1,1.2,0.4
		C47.1,50.1,47.2,50.5,47.2,51"/>
	<path class="st2" d="M48.4,51c0,0.4,0.1,0.8,0.3,1c0.2,0.2,0.5,0.3,0.8,0.3c0.4,0,0.6-0.1,0.8-0.3c0.2-0.2,0.3-0.6,0.3-1
		c0-0.4-0.1-0.8-0.3-1c-0.2-0.2-0.5-0.3-0.8-0.3c-0.4,0-0.6,0.1-0.8,0.3C48.5,50.2,48.4,50.6,48.4,51 M51,51c0,0.5-0.1,0.9-0.4,1.2
		c-0.3,0.3-0.6,0.4-1.1,0.4c-0.5,0-0.9-0.1-1.1-0.4C48.1,52,48,51.5,48,51c0-0.5,0.1-0.9,0.4-1.2c0.3-0.3,0.6-0.4,1.1-0.4
		c0.5,0,0.8,0.1,1.1,0.4C50.8,50.1,51,50.5,51,51"/>
</g>
<rect x="20.5" y="42.4" class="st3" width="22.8" height="2.6"/>
<g>
	<defs>
		<polyline id="SVGID_5_" points="360,181 360,1 0,1 0,181 		"/>
	</defs>
	<clipPath id="SVGID_6_">
		<use xlink:href="#SVGID_5_"  style="overflow:visible;"/>
	</clipPath>
	<path class="st4" d="M27.4,71.5h0.5c0.3,0,0.5-0.1,0.6-0.2c0.1-0.1,0.2-0.3,0.2-0.5c0-0.2-0.1-0.4-0.2-0.5
		c-0.1-0.1-0.3-0.1-0.6-0.1h-0.5V71.5z M27.4,71.8v1.4H27v-3.3h0.9c0.4,0,0.7,0.1,0.9,0.2s0.3,0.4,0.3,0.7c0,0.4-0.2,0.7-0.7,0.9
		l0.9,1.5h-0.4l-0.8-1.4H27.4z"/>
</g>
<polygon class="st1" points="31.9,73.2 30,73.2 30,69.9 31.9,69.9 31.9,70.3 30.4,70.3 30.4,71.3 31.8,71.3 31.8,71.7 30.4,71.7 
	30.4,72.9 31.9,72.9 "/>
<g>
	<defs>
		<polyline id="SVGID_7_" points="360,181 360,1 0,1 0,181 		"/>
	</defs>
	<clipPath id="SVGID_8_">
		<use xlink:href="#SVGID_7_"  style="overflow:visible;"/>
	</clipPath>
	<path class="st5" d="M34.6,72.3c0,0.3-0.1,0.5-0.3,0.7c-0.2,0.2-0.5,0.2-0.8,0.2c-0.4,0-0.7,0-0.9-0.1v-0.4
		c0.1,0.1,0.3,0.1,0.4,0.1c0.2,0,0.3,0,0.5,0c0.3,0,0.4,0,0.6-0.1c0.1-0.1,0.2-0.2,0.2-0.4c0-0.1,0-0.2-0.1-0.3
		c0-0.1-0.1-0.1-0.2-0.2c-0.1-0.1-0.3-0.1-0.5-0.2c-0.3-0.1-0.5-0.2-0.7-0.4c-0.1-0.1-0.2-0.3-0.2-0.6c0-0.3,0.1-0.5,0.3-0.6
		c0.2-0.1,0.4-0.2,0.7-0.2c0.3,0,0.6,0.1,0.9,0.2l-0.1,0.3c-0.3-0.1-0.5-0.2-0.8-0.2c-0.2,0-0.4,0-0.5,0.1C33,70.4,33,70.6,33,70.7
		c0,0.1,0,0.2,0.1,0.3c0,0.1,0.1,0.1,0.2,0.2c0.1,0.1,0.2,0.1,0.5,0.2c0.3,0.1,0.6,0.3,0.7,0.4C34.5,71.9,34.6,72.1,34.6,72.3"/>
	<path class="st5" d="M35.8,71.6h0.3c0.3,0,0.6-0.1,0.7-0.2c0.1-0.1,0.2-0.3,0.2-0.5c0-0.2-0.1-0.4-0.2-0.5
		c-0.1-0.1-0.4-0.2-0.7-0.2h-0.4V71.6z M37.5,70.9c0,0.3-0.1,0.6-0.3,0.8c-0.2,0.2-0.5,0.3-1,0.3h-0.4v1.3h-0.4v-3.3h0.8
		C37.1,69.9,37.5,70.3,37.5,70.9"/>
	<path class="st5" d="M38.6,71.6c0,0.4,0.1,0.8,0.3,1c0.2,0.2,0.5,0.3,0.8,0.3c0.4,0,0.6-0.1,0.8-0.3c0.2-0.2,0.3-0.6,0.3-1
		c0-0.4-0.1-0.8-0.3-1c-0.2-0.2-0.5-0.3-0.8-0.3c-0.4,0-0.6,0.1-0.8,0.3C38.7,70.8,38.6,71.1,38.6,71.6 M41.2,71.6
		c0,0.5-0.1,0.9-0.4,1.2c-0.3,0.3-0.6,0.4-1.1,0.4c-0.5,0-0.9-0.1-1.1-0.4c-0.3-0.3-0.4-0.7-0.4-1.2c0-0.5,0.1-0.9,0.4-1.2
		c0.3-0.3,0.6-0.4,1.1-0.4c0.5,0,0.8,0.1,1.1,0.4C41.1,70.6,41.2,71,41.2,71.6"/>
	<path class="st5" d="M43.9,72.3c0,0.3-0.1,0.5-0.3,0.7c-0.2,0.2-0.5,0.2-0.8,0.2c-0.4,0-0.7,0-0.9-0.1v-0.4
		c0.1,0.1,0.3,0.1,0.4,0.1c0.2,0,0.3,0,0.5,0c0.3,0,0.4,0,0.6-0.1c0.1-0.1,0.2-0.2,0.2-0.4c0-0.1,0-0.2-0.1-0.3
		c0-0.1-0.1-0.1-0.2-0.2c-0.1-0.1-0.3-0.1-0.5-0.2c-0.3-0.1-0.5-0.2-0.7-0.4c-0.1-0.1-0.2-0.3-0.2-0.6c0-0.3,0.1-0.5,0.3-0.6
		c0.2-0.1,0.4-0.2,0.7-0.2c0.3,0,0.6,0.1,0.9,0.2l-0.1,0.3c-0.3-0.1-0.5-0.2-0.8-0.2c-0.2,0-0.4,0-0.5,0.1c-0.1,0.1-0.2,0.2-0.2,0.4
		c0,0.1,0,0.2,0.1,0.3c0,0.1,0.1,0.1,0.2,0.2c0.1,0.1,0.2,0.1,0.5,0.2c0.3,0.1,0.6,0.3,0.7,0.4C43.9,71.9,43.9,72.1,43.9,72.3"/>
</g>
<polygon class="st1" points="45.8,73.2 45.4,73.2 45.4,70.3 44.4,70.3 44.4,69.9 46.8,69.9 46.8,70.3 45.8,70.3 "/>
<g>
	<defs>
		<polyline id="SVGID_9_" points="360,181 360,1 0,1 0,181 		"/>
	</defs>
	<clipPath id="SVGID_10_">
		<use xlink:href="#SVGID_9_"  style="overflow:visible;"/>
	</clipPath>
	<path class="st6" d="M49,71.8l-0.4-1c0-0.1-0.1-0.3-0.2-0.5c0,0.1-0.1,0.3-0.1,0.5l-0.4,1H49z M49.5,73.2l-0.4-1h-1.3l-0.4,1H47
		l1.3-3.3h0.3l1.3,3.3H49.5z"/>
	<path class="st6" d="M54.5,73.2H54l-1.8-2.7h0c0,0.3,0,0.6,0,0.9v1.9h-0.4v-3.3h0.4l1.8,2.7h0c0,0,0-0.2,0-0.4c0-0.2,0-0.4,0-0.5
		v-1.9h0.4V73.2z"/>
	<path class="st6" d="M55.8,71.6c0,0.4,0.1,0.8,0.3,1c0.2,0.2,0.5,0.3,0.8,0.3c0.4,0,0.6-0.1,0.8-0.3c0.2-0.2,0.3-0.6,0.3-1
		c0-0.4-0.1-0.8-0.3-1c-0.2-0.2-0.5-0.3-0.8-0.3c-0.4,0-0.6,0.1-0.8,0.3C55.9,70.8,55.8,71.1,55.8,71.6 M58.4,71.6
		c0,0.5-0.1,0.9-0.4,1.2c-0.3,0.3-0.6,0.4-1.1,0.4c-0.5,0-0.9-0.1-1.1-0.4c-0.3-0.3-0.4-0.7-0.4-1.2c0-0.5,0.1-0.9,0.4-1.2
		c0.3-0.3,0.6-0.4,1.1-0.4c0.5,0,0.8,0.1,1.1,0.4C58.2,70.6,58.4,71,58.4,71.6"/>
	<path class="st6" d="M61,71.6h0.3c0.3,0,0.6-0.1,0.7-0.2c0.2-0.1,0.2-0.3,0.2-0.5c0-0.2-0.1-0.4-0.2-0.5c-0.1-0.1-0.4-0.2-0.7-0.2
		H61V71.6z M62.7,70.9c0,0.3-0.1,0.6-0.3,0.8c-0.2,0.2-0.5,0.3-1,0.3H61v1.3h-0.4v-3.3h0.8C62.3,69.9,62.7,70.3,62.7,70.9"/>
	<path class="st6" d="M64,71.5h0.5c0.3,0,0.5-0.1,0.6-0.2c0.1-0.1,0.2-0.3,0.2-0.5c0-0.2-0.1-0.4-0.2-0.5c-0.1-0.1-0.3-0.1-0.6-0.1
		H64V71.5z M64,71.8v1.4h-0.4v-3.3h0.9c0.4,0,0.7,0.1,0.9,0.2c0.2,0.2,0.3,0.4,0.3,0.7c0,0.4-0.2,0.7-0.7,0.9l0.9,1.5h-0.4l-0.8-1.4
		H64z"/>
	<path class="st6" d="M68.1,71.8l-0.4-1c0-0.1-0.1-0.3-0.2-0.5c0,0.1-0.1,0.3-0.1,0.5l-0.4,1H68.1z M68.6,73.2l-0.4-1h-1.3l-0.4,1
		h-0.4l1.3-3.3h0.3l1.3,3.3H68.6z"/>
</g>
<polygon class="st1" points="71.6,73.2 69.4,73.2 69.4,72.9 71.1,70.3 69.4,70.3 69.4,69.9 71.6,69.9 71.6,70.2 69.8,72.9 
	71.6,72.9 "/>
<g>
	<defs>
		<polyline id="SVGID_11_" points="360,181 360,1 0,1 0,181 		"/>
	</defs>
	<clipPath id="SVGID_12_">
		<use xlink:href="#SVGID_11_"  style="overflow:visible;"/>
	</clipPath>
	<path class="st7" d="M72.7,71.6c0,0.4,0.1,0.8,0.3,1c0.2,0.2,0.5,0.3,0.8,0.3c0.4,0,0.6-0.1,0.8-0.3c0.2-0.2,0.3-0.6,0.3-1
		c0-0.4-0.1-0.8-0.3-1c-0.2-0.2-0.5-0.3-0.8-0.3c-0.4,0-0.6,0.1-0.8,0.3C72.8,70.8,72.7,71.1,72.7,71.6 M75.3,71.6
		c0,0.5-0.1,0.9-0.4,1.2c-0.3,0.3-0.6,0.4-1.1,0.4c-0.5,0-0.9-0.1-1.1-0.4c-0.3-0.3-0.4-0.7-0.4-1.2c0-0.5,0.1-0.9,0.4-1.2
		c0.3-0.3,0.6-0.4,1.1-0.4c0.5,0,0.8,0.1,1.1,0.4C75.1,70.6,75.3,71,75.3,71.6"/>
</g>
<rect x="20.5" y="62.6" class="st8" width="22.8" height="2.6"/>
<rect x="215.6" y="152.8" class="st9" width="17.7" height="4.3"/>
<rect x="164.9" y="114.2" class="st9" width="17.7" height="42.9"/>
<rect x="164.9" y="97.1" class="st3" width="17.7" height="17.2"/>
<rect x="110.5" y="41.3" class="st9" width="17.7" height="115.8"/>
<rect x="110.5" y="11.3" class="st3" width="17.7" height="30"/>
<g>
	<defs>
		<polyline id="SVGID_13_" points="360,181 360,1 0,1 0,181 		"/>
	</defs>
	<clipPath id="SVGID_14_">
		<use xlink:href="#SVGID_13_"  style="overflow:visible;"/>
	</clipPath>
</g>
<g>
	<defs>
		<polyline id="SVGID_15_" points="360,181 360,1 0,1 0,181 		"/>
	</defs>
	<clipPath id="SVGID_16_">
		<use xlink:href="#SVGID_15_"  style="overflow:visible;"/>
	</clipPath>
</g>
<g>
	<defs>
		<polyline id="SVGID_17_" points="360,181 360,1 0,1 0,181 		"/>
	</defs>
	<clipPath id="SVGID_18_">
		<use xlink:href="#SVGID_17_"  style="overflow:visible;"/>
	</clipPath>
</g>
<g>
	<defs>
		<polyline id="SVGID_19_" points="360,181 360,1 0,1 0,181 		"/>
	</defs>
	<clipPath id="SVGID_20_">
		<use xlink:href="#SVGID_19_"  style="overflow:visible;"/>
	</clipPath>
</g>
<g>
	<defs>
		<polyline id="SVGID_21_" points="360,181 360,1 0,1 0,181 		"/>
	</defs>
	<clipPath id="SVGID_22_">
		<use xlink:href="#SVGID_21_"  style="overflow:visible;"/>
	</clipPath>
</g>
<g>
	<defs>
		<polyline id="SVGID_23_" points="360,181 360,1 0,1 0,181 		"/>
	</defs>
	<clipPath id="SVGID_24_">
		<use xlink:href="#SVGID_23_"  style="overflow:visible;"/>
	</clipPath>
</g>
<g>
	<defs>
		<polyline id="SVGID_25_" points="360,181 360,1 0,1 0,181 		"/>
	</defs>
	<clipPath id="SVGID_26_">
		<use xlink:href="#SVGID_25_"  style="overflow:visible;"/>
	</clipPath>
</g>
<g>
	<defs>
		<polyline id="SVGID_27_" points="360,181 360,1 0,1 0,181 		"/>
	</defs>
	<clipPath id="SVGID_28_">
		<use xlink:href="#SVGID_27_"  style="overflow:visible;"/>
	</clipPath>
</g>
<g>
	<defs>
		<polyline id="SVGID_29_" points="360,181 360,1 0,1 0,181 		"/>
	</defs>
	<clipPath id="SVGID_30_">
		<use xlink:href="#SVGID_29_"  style="overflow:visible;"/>
	</clipPath>
</g>
<g>
	<defs>
		<polyline id="SVGID_31_" points="360,181 360,1 0,1 0,181 		"/>
	</defs>
	<clipPath id="SVGID_32_">
		<use xlink:href="#SVGID_31_"  style="overflow:visible;"/>
	</clipPath>
</g>
<g>
	<defs>
		<polyline id="SVGID_33_" points="360,181 360,1 0,1 0,181 		"/>
	</defs>
	<clipPath id="SVGID_34_">
		<use xlink:href="#SVGID_33_"  style="overflow:visible;"/>
	</clipPath>
</g>
<g>
	<defs>
		<polyline id="SVGID_35_" points="360,181 360,1 0,1 0,181 		"/>
	</defs>
	<clipPath id="SVGID_36_">
		<use xlink:href="#SVGID_35_"  style="overflow:visible;"/>
	</clipPath>
</g>
<g>
	<defs>
		<polyline id="SVGID_37_" points="360,181 360,1 0,1 0,181 		"/>
	</defs>
	<clipPath id="SVGID_38_">
		<use xlink:href="#SVGID_37_"  style="overflow:visible;"/>
	</clipPath>
</g>
<g>
	<defs>
		<polyline id="SVGID_39_" points="360,181 360,1 0,1 0,181 		"/>
	</defs>
	<clipPath id="SVGID_40_">
		<use xlink:href="#SVGID_39_"  style="overflow:visible;"/>
	</clipPath>
	<path class="st10" d="M105,47h-3.5v-0.7l1.2-1.3c0.4-0.4,0.6-0.6,0.7-0.8c0.1-0.1,0.2-0.3,0.2-0.4c0.1-0.1,0.1-0.3,0.1-0.4
		c0-0.2-0.1-0.3-0.2-0.4c-0.1-0.1-0.3-0.1-0.4-0.1c-0.2,0-0.4,0-0.6,0.1c-0.2,0.1-0.4,0.2-0.6,0.4l-0.6-0.7c0.2-0.2,0.4-0.4,0.6-0.4
		c0.2-0.1,0.3-0.2,0.5-0.2c0.2,0,0.4-0.1,0.6-0.1c0.3,0,0.6,0.1,0.8,0.2c0.2,0.1,0.4,0.3,0.6,0.5c0.1,0.2,0.2,0.4,0.2,0.7
		c0,0.2,0,0.4-0.1,0.6c-0.1,0.2-0.2,0.4-0.4,0.6c-0.2,0.2-0.5,0.5-0.9,0.9l-0.6,0.6v0h2.2V47z"/>
</g>
<polygon class="st9" points="106,47 107.8,43 105.4,43 105.4,42.1 108.9,42.1 108.9,42.7 107.1,47 "/>
<rect x="101.2" y="47.4" class="st9" width="7.9" height="0.3"/>
<polygon class="st3" points="105.8,14.9 107.7,10.9 105.2,10.9 105.2,10 108.8,10 108.8,10.7 106.9,14.9 "/>
<rect x="105.1" y="15.3" class="st3" width="4" height="0.3"/>
<g>
	<defs>
		<polyline id="SVGID_41_" points="360,181 360,1 0,1 0,181 		"/>
	</defs>
	<clipPath id="SVGID_42_">
		<use xlink:href="#SVGID_41_"  style="overflow:visible;"/>
	</clipPath>
	<path class="st11" d="M158.1,119h-1v-2.9l0-0.5l0-0.5c-0.2,0.2-0.3,0.3-0.4,0.3l-0.6,0.5l-0.5-0.6l1.6-1.3h0.9V119z"/>
	<path class="st11" d="M160.5,116.5c0,0.6,0.1,1,0.2,1.3c0.1,0.3,0.3,0.4,0.5,0.4c0.2,0,0.4-0.1,0.5-0.4c0.1-0.3,0.2-0.7,0.2-1.3
		c0-0.6-0.1-1-0.2-1.3c-0.1-0.3-0.3-0.4-0.5-0.4c-0.2,0-0.4,0.1-0.5,0.4C160.5,115.4,160.5,115.9,160.5,116.5 M162.9,116.5
		c0,0.9-0.1,1.5-0.4,1.9c-0.3,0.4-0.7,0.6-1.3,0.6c-0.6,0-1-0.2-1.3-0.6c-0.3-0.4-0.4-1.1-0.4-1.9c0-0.9,0.1-1.5,0.4-1.9
		c0.3-0.4,0.7-0.6,1.3-0.6c0.6,0,1,0.2,1.3,0.7C162.8,115,162.9,115.6,162.9,116.5"/>
</g>
<rect x="155.2" y="119.3" class="st9" width="7.9" height="0.3"/>
<g>
	<defs>
		<polyline id="SVGID_43_" points="360,181 360,1 0,1 0,181 		"/>
	</defs>
	<clipPath id="SVGID_44_">
		<use xlink:href="#SVGID_43_"  style="overflow:visible;"/>
	</clipPath>
	<path class="st12" d="M160.6,100.5v-0.8c0-0.1,0-0.3,0-0.6c0-0.3,0-0.4,0-0.5h0c-0.1,0.2-0.2,0.4-0.3,0.5l-0.9,1.4H160.6z
		 M162.2,101.3h-0.6v1h-1v-1h-2.1v-0.7l2.2-3.2h1v3.1h0.6V101.3z"/>
</g>
<rect x="158.4" y="102.6" class="st3" width="4" height="0.3"/>
<g>
	<defs>
		<polyline id="SVGID_45_" points="360,181 360,1 0,1 0,181 		"/>
	</defs>
	<clipPath id="SVGID_46_">
		<use xlink:href="#SVGID_45_"  style="overflow:visible;"/>
	</clipPath>
	<path class="st13" d="M214.1,149.1h-1v-2.9l0-0.5l0-0.5c-0.2,0.2-0.3,0.3-0.4,0.3l-0.6,0.5l-0.5-0.6l1.6-1.3h0.9V149.1z"/>
</g>
<rect x="211.3" y="149.4" class="st9" width="4" height="0.3"/>
<g>
	<defs>
		<polyline id="SVGID_47_" points="360,181 360,1 0,1 0,181 		"/>
	</defs>
	<clipPath id="SVGID_48_">
		<use xlink:href="#SVGID_47_"  style="overflow:visible;"/>
	</clipPath>
	<path class="st14" d="M221.9,152.9c0-3.5-2.8-6.3-6.3-6.3v-0.3c3.7,0,6.6,3,6.6,6.6L221.9,152.9z"/>
</g>
<rect x="91.1" y="157" class="st1" width="165.3" height="0.2"/>
<g>
	<path class="st15" d="M104.4,165.1v1.5h-0.4V163h1c0.4,0,0.8,0.1,1,0.3c0.2,0.2,0.3,0.4,0.3,0.8c0,0.5-0.2,0.8-0.7,1l1,1.6H106
		l-0.9-1.5H104.4z M104.4,164.7h0.6c0.3,0,0.5-0.1,0.6-0.2c0.1-0.1,0.2-0.3,0.2-0.5c0-0.2-0.1-0.4-0.2-0.5c-0.1-0.1-0.4-0.2-0.7-0.2
		h-0.5V164.7z"/>
	<path class="st15" d="M109,166.6h-2V163h2v0.4h-1.6v1.1h1.5v0.4h-1.5v1.3h1.6V166.6z"/>
	<path class="st15" d="M111.8,165.6c0,0.3-0.1,0.6-0.3,0.7s-0.5,0.3-0.9,0.3c-0.4,0-0.7-0.1-1-0.2v-0.4c0.1,0.1,0.3,0.1,0.5,0.1
		c0.2,0,0.3,0.1,0.5,0.1c0.3,0,0.5-0.1,0.6-0.2c0.1-0.1,0.2-0.3,0.2-0.4c0-0.1,0-0.2-0.1-0.3c0-0.1-0.1-0.2-0.2-0.2
		c-0.1-0.1-0.3-0.1-0.5-0.2c-0.3-0.1-0.6-0.3-0.7-0.4c-0.1-0.2-0.2-0.4-0.2-0.6c0-0.3,0.1-0.5,0.3-0.7c0.2-0.2,0.5-0.2,0.8-0.2
		c0.4,0,0.7,0.1,1,0.2l-0.1,0.4c-0.3-0.1-0.6-0.2-0.9-0.2c-0.2,0-0.4,0-0.5,0.1c-0.1,0.1-0.2,0.2-0.2,0.4c0,0.1,0,0.2,0.1,0.3
		c0,0.1,0.1,0.2,0.2,0.2c0.1,0.1,0.3,0.1,0.5,0.2c0.4,0.1,0.6,0.3,0.8,0.4C111.8,165.2,111.8,165.4,111.8,165.6z"/>
	<path class="st15" d="M114.8,164c0,0.4-0.1,0.6-0.4,0.8c-0.2,0.2-0.6,0.3-1.1,0.3H113v1.4h-0.4V163h0.9
		C114.4,163,114.8,163.4,114.8,164z M113,164.8h0.4c0.4,0,0.6-0.1,0.8-0.2c0.2-0.1,0.2-0.3,0.2-0.6c0-0.2-0.1-0.4-0.2-0.5
		c-0.2-0.1-0.4-0.2-0.7-0.2H113V164.8z"/>
	<path class="st15" d="M118.7,164.8c0,0.6-0.1,1-0.4,1.3c-0.3,0.3-0.7,0.5-1.2,0.5c-0.5,0-0.9-0.2-1.2-0.5c-0.3-0.3-0.4-0.8-0.4-1.4
		c0-0.6,0.1-1,0.4-1.4c0.3-0.3,0.7-0.5,1.2-0.5c0.5,0,0.9,0.2,1.2,0.5C118.5,163.8,118.7,164.2,118.7,164.8z M115.8,164.8
		c0,0.5,0.1,0.8,0.3,1.1c0.2,0.2,0.5,0.4,0.9,0.4c0.4,0,0.7-0.1,0.9-0.4s0.3-0.6,0.3-1.1c0-0.5-0.1-0.8-0.3-1.1
		c-0.2-0.2-0.5-0.4-0.9-0.4c-0.4,0-0.7,0.1-0.9,0.4C115.9,163.9,115.8,164.3,115.8,164.8z"/>
	<path class="st15" d="M122.3,166.6h-0.5l-2-3h0c0,0.4,0,0.7,0,1v2h-0.4V163h0.5l1.9,3h0c0,0,0-0.2,0-0.4c0-0.2,0-0.4,0-0.5v-2h0.4
		V166.6z"/>
	<path class="st15" d="M126.1,164.8c0,0.6-0.2,1-0.5,1.4c-0.3,0.3-0.8,0.5-1.4,0.5h-1V163h1.1c0.6,0,1,0.2,1.3,0.5
		S126.1,164.2,126.1,164.8z M125.6,164.8c0-0.5-0.1-0.8-0.4-1.1c-0.2-0.2-0.6-0.4-1-0.4h-0.6v2.9h0.5c0.5,0,0.9-0.1,1.1-0.4
		S125.6,165.2,125.6,164.8z"/>
	<path class="st15" d="M126.9,166.6V163h0.4v3.6H126.9z"/>
	<path class="st15" d="M131.1,164.8c0,0.6-0.2,1-0.5,1.4c-0.3,0.3-0.8,0.5-1.4,0.5h-1V163h1.1c0.6,0,1,0.2,1.3,0.5
		S131.1,164.2,131.1,164.8z M130.7,164.8c0-0.5-0.1-0.8-0.4-1.1c-0.2-0.2-0.6-0.4-1-0.4h-0.6v2.9h0.5c0.5,0,0.9-0.1,1.1-0.4
		S130.7,165.2,130.7,164.8z"/>
	<path class="st15" d="M135,164.8c0,0.6-0.1,1-0.4,1.3c-0.3,0.3-0.7,0.5-1.2,0.5c-0.5,0-0.9-0.2-1.2-0.5c-0.3-0.3-0.4-0.8-0.4-1.4
		c0-0.6,0.1-1,0.4-1.4c0.3-0.3,0.7-0.5,1.2-0.5c0.5,0,0.9,0.2,1.2,0.5C134.9,163.8,135,164.2,135,164.8z M132.2,164.8
		c0,0.5,0.1,0.8,0.3,1.1c0.2,0.2,0.5,0.4,0.9,0.4c0.4,0,0.7-0.1,0.9-0.4s0.3-0.6,0.3-1.1c0-0.5-0.1-0.8-0.3-1.1
		c-0.2-0.2-0.5-0.4-0.9-0.4c-0.4,0-0.7,0.1-0.9,0.4C132.3,163.9,132.2,164.3,132.2,164.8z"/>
</g>
<g>
	<path class="st15" d="M161.3,165.1v1.5h-0.4V163h1c0.4,0,0.8,0.1,1,0.3c0.2,0.2,0.3,0.4,0.3,0.8c0,0.5-0.2,0.8-0.7,1l1,1.6h-0.5
		l-0.9-1.5H161.3z M161.3,164.7h0.6c0.3,0,0.5-0.1,0.6-0.2c0.1-0.1,0.2-0.3,0.2-0.5c0-0.2-0.1-0.4-0.2-0.5c-0.1-0.1-0.4-0.2-0.7-0.2
		h-0.5V164.7z"/>
	<path class="st15" d="M166,166.6h-2V163h2v0.4h-1.6v1.1h1.5v0.4h-1.5v1.3h1.6V166.6z"/>
	<path class="st15" d="M168.8,165.6c0,0.3-0.1,0.6-0.3,0.7s-0.5,0.3-0.9,0.3c-0.4,0-0.7-0.1-1-0.2v-0.4c0.1,0.1,0.3,0.1,0.5,0.1
		c0.2,0,0.3,0.1,0.5,0.1c0.3,0,0.5-0.1,0.6-0.2c0.1-0.1,0.2-0.3,0.2-0.4c0-0.1,0-0.2-0.1-0.3c0-0.1-0.1-0.2-0.2-0.2
		c-0.1-0.1-0.3-0.1-0.5-0.2c-0.3-0.1-0.6-0.3-0.7-0.4c-0.1-0.2-0.2-0.4-0.2-0.6c0-0.3,0.1-0.5,0.3-0.7c0.2-0.2,0.5-0.2,0.8-0.2
		c0.4,0,0.7,0.1,1,0.2l-0.1,0.4c-0.3-0.1-0.6-0.2-0.9-0.2c-0.2,0-0.4,0-0.5,0.1c-0.1,0.1-0.2,0.2-0.2,0.4c0,0.1,0,0.2,0.1,0.3
		c0,0.1,0.1,0.2,0.2,0.2c0.1,0.1,0.3,0.1,0.5,0.2c0.4,0.1,0.6,0.3,0.8,0.4C168.7,165.2,168.8,165.4,168.8,165.6z"/>
	<path class="st15" d="M171.8,164c0,0.4-0.1,0.6-0.4,0.8c-0.2,0.2-0.6,0.3-1.1,0.3h-0.4v1.4h-0.4V163h0.9
		C171.3,163,171.8,163.4,171.8,164z M169.9,164.8h0.4c0.4,0,0.6-0.1,0.8-0.2c0.2-0.1,0.2-0.3,0.2-0.6c0-0.2-0.1-0.4-0.2-0.5
		c-0.2-0.1-0.4-0.2-0.7-0.2h-0.5V164.8z"/>
	<path class="st15" d="M175.2,163v2.3c0,0.4-0.1,0.7-0.4,1c-0.2,0.2-0.6,0.3-1,0.3s-0.8-0.1-1-0.4c-0.2-0.2-0.4-0.6-0.4-1V163h0.4
		v2.3c0,0.3,0.1,0.5,0.2,0.7c0.2,0.2,0.4,0.2,0.7,0.2c0.3,0,0.5-0.1,0.7-0.2c0.2-0.2,0.2-0.4,0.2-0.7V163H175.2z"/>
	<path class="st15" d="M178.1,166.6h-2V163h2v0.4h-1.6v1.1h1.5v0.4h-1.5v1.3h1.6V166.6z"/>
	<path class="st15" d="M180.9,165.6c0,0.3-0.1,0.6-0.3,0.7s-0.5,0.3-0.9,0.3c-0.4,0-0.7-0.1-1-0.2v-0.4c0.1,0.1,0.3,0.1,0.5,0.1
		c0.2,0,0.3,0.1,0.5,0.1c0.3,0,0.5-0.1,0.6-0.2c0.1-0.1,0.2-0.3,0.2-0.4c0-0.1,0-0.2-0.1-0.3c0-0.1-0.1-0.2-0.2-0.2
		c-0.1-0.1-0.3-0.1-0.5-0.2c-0.3-0.1-0.6-0.3-0.7-0.4c-0.1-0.2-0.2-0.4-0.2-0.6c0-0.3,0.1-0.5,0.3-0.7c0.2-0.2,0.5-0.2,0.8-0.2
		c0.4,0,0.7,0.1,1,0.2l-0.1,0.4c-0.3-0.1-0.6-0.2-0.9-0.2c-0.2,0-0.4,0-0.5,0.1c-0.1,0.1-0.2,0.2-0.2,0.4c0,0.1,0,0.2,0.1,0.3
		c0,0.1,0.1,0.2,0.2,0.2c0.1,0.1,0.3,0.1,0.5,0.2c0.4,0.1,0.6,0.3,0.8,0.4C180.9,165.2,180.9,165.4,180.9,165.6z"/>
	<path class="st15" d="M182.8,166.6h-0.4v-3.2h-1.1V163h2.7v0.4h-1.1V166.6z"/>
	<path class="st15" d="M186.7,166.6l-0.4-1.1h-1.4l-0.4,1.1h-0.4l1.4-3.6h0.3l1.4,3.6H186.7z M186.1,165.1l-0.4-1.1
		c-0.1-0.1-0.1-0.3-0.2-0.5c0,0.2-0.1,0.3-0.2,0.5l-0.4,1.1H186.1z"/>
	<path class="st15" d="M153.6,172.6V169h0.4v3.6H153.6z"/>
	<path class="st15" d="M157.8,172.6h-0.5l-2-3h0c0,0.4,0,0.7,0,1v2H155V169h0.5l1.9,3h0c0,0,0-0.2,0-0.4c0-0.2,0-0.4,0-0.5v-2h0.4
		V172.6z"/>
	<path class="st15" d="M160.8,171.6c0,0.3-0.1,0.6-0.3,0.7s-0.5,0.3-0.9,0.3c-0.4,0-0.7-0.1-1-0.2v-0.4c0.1,0.1,0.3,0.1,0.5,0.1
		c0.2,0,0.3,0.1,0.5,0.1c0.3,0,0.5-0.1,0.6-0.2c0.1-0.1,0.2-0.3,0.2-0.4c0-0.1,0-0.2-0.1-0.3c0-0.1-0.1-0.2-0.2-0.2
		c-0.1-0.1-0.3-0.1-0.5-0.2c-0.3-0.1-0.6-0.3-0.7-0.4c-0.1-0.2-0.2-0.4-0.2-0.6c0-0.3,0.1-0.5,0.3-0.7c0.2-0.2,0.5-0.2,0.8-0.2
		c0.4,0,0.7,0.1,1,0.2l-0.1,0.4c-0.3-0.1-0.6-0.2-0.9-0.2c-0.2,0-0.4,0-0.5,0.1c-0.1,0.1-0.2,0.2-0.2,0.4c0,0.1,0,0.2,0.1,0.3
		c0,0.1,0.1,0.2,0.2,0.2c0.1,0.1,0.3,0.1,0.5,0.2c0.4,0.1,0.6,0.3,0.8,0.4C160.8,171.2,160.8,171.4,160.8,171.6z"/>
	<path class="st15" d="M163.8,172.6l-0.4-1.1h-1.4l-0.4,1.1h-0.4l1.4-3.6h0.3l1.4,3.6H163.8z M163.2,171.1l-0.4-1.1
		c-0.1-0.1-0.1-0.3-0.2-0.5c0,0.2-0.1,0.3-0.2,0.5l-0.4,1.1H163.2z"/>
	<path class="st15" d="M165.8,172.6h-0.4v-3.2h-1.1V169h2.7v0.4h-1.1V172.6z"/>
	<path class="st15" d="M167.5,172.6V169h0.4v3.6H167.5z"/>
	<path class="st15" d="M170.9,171.6c0,0.3-0.1,0.6-0.3,0.7s-0.5,0.3-0.9,0.3c-0.4,0-0.7-0.1-1-0.2v-0.4c0.1,0.1,0.3,0.1,0.5,0.1
		c0.2,0,0.3,0.1,0.5,0.1c0.3,0,0.5-0.1,0.6-0.2c0.1-0.1,0.2-0.3,0.2-0.4c0-0.1,0-0.2-0.1-0.3c0-0.1-0.1-0.2-0.2-0.2
		c-0.1-0.1-0.3-0.1-0.5-0.2c-0.3-0.1-0.6-0.3-0.7-0.4c-0.1-0.2-0.2-0.4-0.2-0.6c0-0.3,0.1-0.5,0.3-0.7c0.2-0.2,0.5-0.2,0.8-0.2
		c0.4,0,0.7,0.1,1,0.2l-0.1,0.4c-0.3-0.1-0.6-0.2-0.9-0.2c-0.2,0-0.4,0-0.5,0.1c-0.1,0.1-0.2,0.2-0.2,0.4c0,0.1,0,0.2,0.1,0.3
		c0,0.1,0.1,0.2,0.2,0.2c0.1,0.1,0.3,0.1,0.5,0.2c0.4,0.1,0.6,0.3,0.8,0.4C170.8,171.2,170.9,171.4,170.9,171.6z"/>
	<path class="st15" d="M172,172.6h-0.4V169h2v0.4H172v1.3h1.5v0.4H172V172.6z"/>
	<path class="st15" d="M176.4,172.6l-0.4-1.1h-1.4l-0.4,1.1h-0.4l1.4-3.6h0.3l1.4,3.6H176.4z M175.9,171.1l-0.4-1.1
		c-0.1-0.1-0.1-0.3-0.2-0.5c0,0.2-0.1,0.3-0.2,0.5l-0.4,1.1H175.9z"/>
	<path class="st15" d="M178.9,169.3c-0.4,0-0.7,0.1-0.9,0.4c-0.2,0.3-0.3,0.6-0.3,1.1c0,0.5,0.1,0.8,0.3,1.1
		c0.2,0.3,0.5,0.4,0.9,0.4c0.2,0,0.5,0,0.9-0.1v0.4c-0.2,0.1-0.6,0.1-0.9,0.1c-0.5,0-0.9-0.2-1.2-0.5c-0.3-0.3-0.4-0.8-0.4-1.4
		c0-0.4,0.1-0.7,0.2-1c0.1-0.3,0.3-0.5,0.6-0.6c0.3-0.2,0.6-0.2,0.9-0.2c0.4,0,0.7,0.1,1,0.2l-0.2,0.4
		C179.4,169.4,179.2,169.3,178.9,169.3z"/>
	<path class="st15" d="M181.6,172.6h-0.4v-3.2h-1.1V169h2.7v0.4h-1.1V172.6z"/>
	<path class="st15" d="M186.4,170.8c0,0.6-0.1,1-0.4,1.3s-0.7,0.5-1.2,0.5c-0.5,0-0.9-0.2-1.2-0.5c-0.3-0.3-0.4-0.8-0.4-1.4
		c0-0.6,0.1-1,0.4-1.4c0.3-0.3,0.7-0.5,1.2-0.5c0.5,0,0.9,0.2,1.2,0.5C186.2,169.8,186.4,170.2,186.4,170.8z M183.5,170.8
		c0,0.5,0.1,0.8,0.3,1.1c0.2,0.2,0.5,0.4,0.9,0.4c0.4,0,0.7-0.1,0.9-0.4c0.2-0.2,0.3-0.6,0.3-1.1c0-0.5-0.1-0.8-0.3-1.1
		s-0.5-0.4-0.9-0.4c-0.4,0-0.7,0.1-0.9,0.4C183.6,169.9,183.5,170.3,183.5,170.8z M184.4,168.7c0.1-0.1,0.2-0.2,0.3-0.4
		c0.1-0.1,0.2-0.3,0.2-0.4h0.5v0.1c-0.1,0.1-0.2,0.2-0.3,0.4c-0.1,0.2-0.3,0.3-0.4,0.4L184.4,168.7L184.4,168.7z"/>
	<path class="st15" d="M187.6,171.1v1.5h-0.4V169h1c0.4,0,0.8,0.1,1,0.3c0.2,0.2,0.3,0.4,0.3,0.8c0,0.5-0.2,0.8-0.7,1l1,1.6h-0.5
		l-0.9-1.5H187.6z M187.6,170.7h0.6c0.3,0,0.5-0.1,0.6-0.2c0.1-0.1,0.2-0.3,0.2-0.5c0-0.2-0.1-0.4-0.2-0.5c-0.1-0.1-0.4-0.2-0.7-0.2
		h-0.5V170.7z"/>
	<path class="st15" d="M190.3,172.6V169h0.4v3.6H190.3z"/>
	<path class="st15" d="M193.9,172.6l-0.4-1.1H192l-0.4,1.1h-0.4l1.4-3.6h0.3l1.4,3.6H193.9z M193.3,171.1l-0.4-1.1
		c-0.1-0.1-0.1-0.3-0.2-0.5c0,0.2-0.1,0.3-0.2,0.5l-0.4,1.1H193.3z"/>
</g>
<g>
	<path class="st15" d="M206.7,166.6V163h0.4v3.6H206.7z"/>
	<path class="st15" d="M210.9,166.6h-0.5l-2-3h0c0,0.4,0,0.7,0,1v2h-0.4V163h0.5l1.9,3h0c0,0,0-0.2,0-0.4c0-0.2,0-0.4,0-0.5v-2h0.4
		V166.6z"/>
	<path class="st15" d="M214.7,164.8c0,0.6-0.2,1-0.5,1.4c-0.3,0.3-0.8,0.5-1.4,0.5h-1V163h1.1c0.6,0,1,0.2,1.3,0.5
		S214.7,164.2,214.7,164.8z M214.3,164.8c0-0.5-0.1-0.8-0.4-1.1c-0.2-0.2-0.6-0.4-1-0.4h-0.6v2.9h0.5c0.5,0,0.9-0.1,1.1-0.4
		S214.3,165.2,214.3,164.8z"/>
	<path class="st15" d="M215.5,166.6V163h0.4v3.6H215.5z"/>
	<path class="st15" d="M218.4,163.3c-0.4,0-0.7,0.1-0.9,0.4c-0.2,0.3-0.3,0.6-0.3,1.1c0,0.5,0.1,0.8,0.3,1.1
		c0.2,0.3,0.5,0.4,0.9,0.4c0.2,0,0.5,0,0.9-0.1v0.4c-0.2,0.1-0.6,0.1-0.9,0.1c-0.5,0-0.9-0.2-1.2-0.5c-0.3-0.3-0.4-0.8-0.4-1.4
		c0-0.4,0.1-0.7,0.2-1c0.1-0.3,0.3-0.5,0.6-0.6c0.3-0.2,0.6-0.2,0.9-0.2c0.4,0,0.7,0.1,1,0.2l-0.2,0.4
		C219,163.4,218.7,163.3,218.4,163.3z"/>
	<path class="st15" d="M222.3,166.6l-0.4-1.1h-1.4l-0.4,1.1h-0.4l1.4-3.6h0.3l1.4,3.6H222.3z M221.7,165.1l-0.4-1.1
		c-0.1-0.1-0.1-0.3-0.2-0.5c0,0.2-0.1,0.3-0.2,0.5l-0.4,1.1H221.7z"/>
	<path class="st15" d="M224.8,163.3c-0.4,0-0.7,0.1-0.9,0.4c-0.2,0.3-0.3,0.6-0.3,1.1c0,0.5,0.1,0.8,0.3,1.1
		c0.2,0.3,0.5,0.4,0.9,0.4c0.2,0,0.5,0,0.9-0.1v0.4c-0.2,0.1-0.6,0.1-0.9,0.1c-0.5,0-0.9-0.2-1.2-0.5c-0.3-0.3-0.4-0.8-0.4-1.4
		c0-0.4,0.1-0.7,0.2-1c0.1-0.3,0.3-0.5,0.6-0.6c0.3-0.2,0.6-0.2,0.9-0.2c0.4,0,0.7,0.1,1,0.2l-0.2,0.4
		C225.3,163.4,225,163.3,224.8,163.3z"/>
	<path class="st15" d="M226.4,166.6V163h0.4v3.6H226.4z"/>
	<path class="st15" d="M230.9,164.8c0,0.6-0.1,1-0.4,1.3c-0.3,0.3-0.7,0.5-1.2,0.5c-0.5,0-0.9-0.2-1.2-0.5c-0.3-0.3-0.4-0.8-0.4-1.4
		c0-0.6,0.1-1,0.4-1.4c0.3-0.3,0.7-0.5,1.2-0.5c0.5,0,0.9,0.2,1.2,0.5C230.7,163.8,230.9,164.2,230.9,164.8z M228,164.8
		c0,0.5,0.1,0.8,0.3,1.1s0.5,0.4,0.9,0.4c0.4,0,0.7-0.1,0.9-0.4c0.2-0.2,0.3-0.6,0.3-1.1c0-0.5-0.1-0.8-0.3-1.1
		c-0.2-0.2-0.5-0.4-0.9-0.4c-0.4,0-0.7,0.1-0.9,0.4C228.1,163.9,228,164.3,228,164.8z M228.9,162.7c0.1-0.1,0.2-0.2,0.3-0.4
		c0.1-0.1,0.2-0.3,0.2-0.4h0.5v0.1c-0.1,0.1-0.2,0.2-0.3,0.4c-0.1,0.2-0.3,0.3-0.4,0.4L228.9,162.7L228.9,162.7z"/>
	<path class="st15" d="M234.5,166.6H234l-2-3h0c0,0.4,0,0.7,0,1v2h-0.4V163h0.5l1.9,3h0c0,0,0-0.2,0-0.4c0-0.2,0-0.4,0-0.5v-2h0.4
		V166.6z"/>
	<path class="st15" d="M239.6,164.8c0,0.6-0.2,1-0.5,1.4c-0.3,0.3-0.8,0.5-1.4,0.5h-1V163h1.1c0.6,0,1,0.2,1.3,0.5
		S239.6,164.2,239.6,164.8z M239.2,164.8c0-0.5-0.1-0.8-0.4-1.1c-0.2-0.2-0.6-0.4-1-0.4h-0.6v2.9h0.5c0.5,0,0.9-0.1,1.1-0.4
		S239.2,165.2,239.2,164.8z"/>
	<path class="st15" d="M242.4,166.6h-2V163h2v0.4h-1.6v1.1h1.5v0.4h-1.5v1.3h1.6V166.6z"/>
	<path class="st15" d="M205.5,170.8c0,0.6-0.1,1-0.4,1.3c-0.3,0.3-0.7,0.5-1.2,0.5c-0.5,0-0.9-0.2-1.2-0.5c-0.3-0.3-0.4-0.8-0.4-1.4
		c0-0.6,0.1-1,0.4-1.4c0.3-0.3,0.7-0.5,1.2-0.5c0.5,0,0.9,0.2,1.2,0.5C205.4,169.8,205.5,170.2,205.5,170.8z M202.7,170.8
		c0,0.5,0.1,0.8,0.3,1.1s0.5,0.4,0.9,0.4c0.4,0,0.7-0.1,0.9-0.4c0.2-0.2,0.3-0.6,0.3-1.1c0-0.5-0.1-0.8-0.3-1.1
		c-0.2-0.2-0.5-0.4-0.9-0.4c-0.4,0-0.7,0.1-0.9,0.4C202.8,169.9,202.7,170.3,202.7,170.8z"/>
	<path class="st15" d="M207.4,172.6H207v-3.2h-1.1V169h2.7v0.4h-1.1V172.6z"/>
	<path class="st15" d="M209.5,171.1v1.5h-0.4V169h1c0.4,0,0.8,0.1,1,0.3c0.2,0.2,0.3,0.4,0.3,0.8c0,0.5-0.2,0.8-0.7,1l1,1.6h-0.5
		l-0.9-1.5H209.5z M209.5,170.7h0.6c0.3,0,0.5-0.1,0.6-0.2c0.1-0.1,0.2-0.3,0.2-0.5c0-0.2-0.1-0.4-0.2-0.5c-0.1-0.1-0.4-0.2-0.7-0.2
		h-0.5V170.7z"/>
	<path class="st15" d="M215.3,170.8c0,0.6-0.1,1-0.4,1.3c-0.3,0.3-0.7,0.5-1.2,0.5c-0.5,0-0.9-0.2-1.2-0.5c-0.3-0.3-0.4-0.8-0.4-1.4
		c0-0.6,0.1-1,0.4-1.4c0.3-0.3,0.7-0.5,1.2-0.5c0.5,0,0.9,0.2,1.2,0.5C215.1,169.8,215.3,170.2,215.3,170.8z M212.4,170.8
		c0,0.5,0.1,0.8,0.3,1.1s0.5,0.4,0.9,0.4c0.4,0,0.7-0.1,0.9-0.4c0.2-0.2,0.3-0.6,0.3-1.1c0-0.5-0.1-0.8-0.3-1.1
		c-0.2-0.2-0.5-0.4-0.9-0.4c-0.4,0-0.7,0.1-0.9,0.4C212.5,169.9,212.4,170.3,212.4,170.8z"/>
	<path class="st15" d="M220.5,170.8c0,0.6-0.1,1-0.4,1.3s-0.7,0.5-1.2,0.5c-0.5,0-0.9-0.2-1.2-0.5c-0.3-0.3-0.4-0.8-0.4-1.4
		c0-0.6,0.1-1,0.4-1.4c0.3-0.3,0.7-0.5,1.2-0.5c0.5,0,0.9,0.2,1.2,0.5C220.3,169.8,220.5,170.2,220.5,170.8z M217.6,170.8
		c0,0.5,0.1,0.8,0.3,1.1c0.2,0.2,0.5,0.4,0.9,0.4c0.4,0,0.7-0.1,0.9-0.4c0.2-0.2,0.3-0.6,0.3-1.1c0-0.5-0.1-0.8-0.3-1.1
		s-0.5-0.4-0.9-0.4c-0.4,0-0.7,0.1-0.9,0.4C217.7,169.9,217.6,170.3,217.6,170.8z"/>
	<path class="st15" d="M221.7,171.1v1.5h-0.4V169h1c0.4,0,0.8,0.1,1,0.3c0.2,0.2,0.3,0.4,0.3,0.8c0,0.5-0.2,0.8-0.7,1l1,1.6h-0.5
		l-0.9-1.5H221.7z M221.7,170.7h0.6c0.3,0,0.5-0.1,0.6-0.2c0.1-0.1,0.2-0.3,0.2-0.5c0-0.2-0.1-0.4-0.2-0.5c-0.1-0.1-0.4-0.2-0.7-0.2
		h-0.5V170.7z"/>
	<path class="st15" d="M225.9,170.7h1.2v1.7c-0.2,0.1-0.4,0.1-0.6,0.1c-0.2,0-0.4,0-0.7,0c-0.5,0-1-0.2-1.3-0.5
		c-0.3-0.3-0.5-0.8-0.5-1.4c0-0.4,0.1-0.7,0.2-1c0.1-0.3,0.4-0.5,0.6-0.6c0.3-0.1,0.6-0.2,1-0.2c0.4,0,0.7,0.1,1.1,0.2l-0.2,0.4
		c-0.3-0.1-0.6-0.2-0.9-0.2c-0.4,0-0.8,0.1-1,0.4s-0.4,0.6-0.4,1.1c0,0.5,0.1,0.8,0.4,1.1s0.6,0.4,1,0.4c0.2,0,0.5,0,0.7-0.1v-1.1
		h-0.8V170.7z"/>
	<path class="st15" d="M230.2,172.6l-0.4-1.1h-1.4l-0.4,1.1h-0.4l1.4-3.6h0.3l1.4,3.6H230.2z M229.7,171.1l-0.4-1.1
		c-0.1-0.1-0.1-0.3-0.2-0.5c0,0.2-0.1,0.3-0.2,0.5l-0.4,1.1H229.7z"/>
	<path class="st15" d="M233.9,172.6h-0.5l-2-3h0c0,0.4,0,0.7,0,1v2h-0.4V169h0.5l1.9,3h0c0,0,0-0.2,0-0.4c0-0.2,0-0.4,0-0.5v-2h0.4
		V172.6z"/>
	<path class="st15" d="M234.9,172.6V169h0.4v3.6H234.9z"/>
	<path class="st15" d="M238.3,171.6c0,0.3-0.1,0.6-0.3,0.7c-0.2,0.2-0.5,0.3-0.9,0.3c-0.4,0-0.7-0.1-1-0.2v-0.4
		c0.1,0.1,0.3,0.1,0.5,0.1c0.2,0,0.3,0.1,0.5,0.1c0.3,0,0.5-0.1,0.6-0.2c0.1-0.1,0.2-0.3,0.2-0.4c0-0.1,0-0.2-0.1-0.3
		c0-0.1-0.1-0.2-0.2-0.2c-0.1-0.1-0.3-0.1-0.5-0.2c-0.3-0.1-0.6-0.3-0.7-0.4c-0.1-0.2-0.2-0.4-0.2-0.6c0-0.3,0.1-0.5,0.3-0.7
		c0.2-0.2,0.5-0.2,0.8-0.2c0.4,0,0.7,0.1,1,0.2l-0.1,0.4c-0.3-0.1-0.6-0.2-0.9-0.2c-0.2,0-0.4,0-0.5,0.1c-0.1,0.1-0.2,0.2-0.2,0.4
		c0,0.1,0,0.2,0.1,0.3c0,0.1,0.1,0.2,0.2,0.2c0.1,0.1,0.3,0.1,0.5,0.2c0.4,0.1,0.6,0.3,0.8,0.4C238.3,171.2,238.3,171.4,238.3,171.6
		z"/>
	<path class="st15" d="M240.6,172.6l-1.2-3.2h0c0,0.3,0,0.5,0,0.9v2.3h-0.4V169h0.6l1.1,2.9h0l1.1-2.9h0.6v3.6h-0.4v-2.3
		c0-0.3,0-0.5,0-0.9h0l-1.2,3.2H240.6z"/>
	<path class="st15" d="M246.7,170.8c0,0.6-0.1,1-0.4,1.3s-0.7,0.5-1.2,0.5c-0.5,0-0.9-0.2-1.2-0.5c-0.3-0.3-0.4-0.8-0.4-1.4
		c0-0.6,0.1-1,0.4-1.4c0.3-0.3,0.7-0.5,1.2-0.5c0.5,0,0.9,0.2,1.2,0.5C246.5,169.8,246.7,170.2,246.7,170.8z M243.8,170.8
		c0,0.5,0.1,0.8,0.3,1.1c0.2,0.2,0.5,0.4,0.9,0.4c0.4,0,0.7-0.1,0.9-0.4c0.2-0.2,0.3-0.6,0.3-1.1c0-0.5-0.1-0.8-0.3-1.1
		s-0.5-0.4-0.9-0.4c-0.4,0-0.7,0.1-0.9,0.4C243.9,169.9,243.8,170.3,243.8,170.8z"/>
</g>
<rect x="20.5" y="46.4" class="st16" width="56" height="9.2"/>
<rect x="20.5" y="67" class="st16" width="56" height="9.2"/>
<g>
	<path class="st15" d="M27.3,51.2v1.5h-0.4v-3.6h1c0.4,0,0.8,0.1,1,0.3c0.2,0.2,0.3,0.4,0.3,0.8c0,0.5-0.2,0.8-0.7,1l1,1.6h-0.5
		L28,51.2H27.3z M27.3,50.8h0.6c0.3,0,0.5-0.1,0.6-0.2c0.1-0.1,0.2-0.3,0.2-0.5c0-0.2-0.1-0.4-0.2-0.5c-0.1-0.1-0.4-0.2-0.7-0.2
		h-0.5V50.8z"/>
	<path class="st15" d="M31.9,52.6h-2v-3.6h2v0.4h-1.6v1.1h1.5V51h-1.5v1.3h1.6V52.6z"/>
	<path class="st15" d="M33.8,52.6h-0.4v-3.2h-1.1v-0.4h2.7v0.4h-1.1V52.6z"/>
	<path class="st15" d="M35.9,51.2v1.5h-0.4v-3.6h1c0.4,0,0.8,0.1,1,0.3c0.2,0.2,0.3,0.4,0.3,0.8c0,0.5-0.2,0.8-0.7,1l1,1.6h-0.5
		l-0.9-1.5H35.9z M35.9,50.8h0.6c0.3,0,0.5-0.1,0.6-0.2c0.1-0.1,0.2-0.3,0.2-0.5c0-0.2-0.1-0.4-0.2-0.5c-0.1-0.1-0.4-0.2-0.7-0.2
		h-0.5V50.8z"/>
	<path class="st15" d="M40.8,52.6l-0.4-1.1h-1.4l-0.4,1.1h-0.4l1.4-3.6h0.3l1.4,3.6H40.8z M40.2,51.1L39.8,50
		c-0.1-0.1-0.1-0.3-0.2-0.5c0,0.2-0.1,0.3-0.2,0.5l-0.4,1.1H40.2z"/>
	<path class="st15" d="M43.7,51.7c0,0.3-0.1,0.6-0.3,0.7s-0.5,0.3-0.9,0.3c-0.4,0-0.7-0.1-1-0.2v-0.4c0.1,0.1,0.3,0.1,0.5,0.1
		s0.3,0.1,0.5,0.1c0.3,0,0.5-0.1,0.6-0.2c0.1-0.1,0.2-0.3,0.2-0.4c0-0.1,0-0.2-0.1-0.3c0-0.1-0.1-0.2-0.2-0.2
		c-0.1-0.1-0.3-0.1-0.5-0.2c-0.3-0.1-0.6-0.3-0.7-0.4c-0.1-0.2-0.2-0.4-0.2-0.6c0-0.3,0.1-0.5,0.3-0.7s0.5-0.2,0.8-0.2
		c0.4,0,0.7,0.1,1,0.2l-0.1,0.4c-0.3-0.1-0.6-0.2-0.9-0.2c-0.2,0-0.4,0-0.5,0.1S42,49.8,42,49.9c0,0.1,0,0.2,0.1,0.3
		c0,0.1,0.1,0.2,0.2,0.2c0.1,0.1,0.3,0.1,0.5,0.2c0.4,0.1,0.6,0.3,0.8,0.4C43.7,51.3,43.7,51.4,43.7,51.7z"/>
	<path class="st15" d="M46.7,52.6l-0.4-1.1h-1.4l-0.4,1.1H44l1.4-3.6h0.3l1.4,3.6H46.7z M46.1,51.1L45.7,50
		c-0.1-0.1-0.1-0.3-0.2-0.5c0,0.2-0.1,0.3-0.2,0.5L45,51.1H46.1z"/>
	<path class="st15" d="M50.5,50.8c0,0.6-0.2,1-0.5,1.4c-0.3,0.3-0.8,0.5-1.4,0.5h-1v-3.6h1.1c0.6,0,1,0.2,1.3,0.5
		S50.5,50.3,50.5,50.8z M50.1,50.8c0-0.5-0.1-0.8-0.4-1.1c-0.2-0.2-0.6-0.4-1-0.4h-0.6v2.9h0.5c0.5,0,0.9-0.1,1.1-0.4
		C49.9,51.7,50.1,51.3,50.1,50.8z"/>
	<path class="st15" d="M54.4,50.9c0,0.6-0.1,1-0.4,1.3c-0.3,0.3-0.7,0.5-1.2,0.5c-0.5,0-0.9-0.2-1.2-0.5c-0.3-0.3-0.4-0.8-0.4-1.4
		c0-0.6,0.1-1,0.4-1.4c0.3-0.3,0.7-0.5,1.2-0.5c0.5,0,0.9,0.2,1.2,0.5S54.4,50.3,54.4,50.9z M51.5,50.9c0,0.5,0.1,0.9,0.3,1.1
		c0.2,0.2,0.5,0.4,0.9,0.4c0.4,0,0.7-0.1,0.9-0.4s0.3-0.6,0.3-1.1c0-0.5-0.1-0.8-0.3-1.1c-0.2-0.2-0.5-0.4-0.9-0.4
		c-0.4,0-0.7,0.1-0.9,0.4C51.6,50,51.5,50.4,51.5,50.9z"/>
</g>
<g>
	<path class="st15" d="M27.3,72v1.5h-0.4v-3.6h1c0.4,0,0.8,0.1,1,0.3c0.2,0.2,0.3,0.4,0.3,0.8c0,0.5-0.2,0.8-0.7,1l1,1.6h-0.5L28,72
		H27.3z M27.3,71.7h0.6c0.3,0,0.5-0.1,0.6-0.2c0.1-0.1,0.2-0.3,0.2-0.5c0-0.2-0.1-0.4-0.2-0.5c-0.1-0.1-0.4-0.2-0.7-0.2h-0.5V71.7z"
		/>
	<path class="st15" d="M31.9,73.5h-2v-3.6h2v0.4h-1.6v1.1h1.5v0.4h-1.5v1.3h1.6V73.5z"/>
	<path class="st15" d="M34.7,72.5c0,0.3-0.1,0.6-0.3,0.7s-0.5,0.3-0.9,0.3c-0.4,0-0.7-0.1-1-0.2V73c0.1,0.1,0.3,0.1,0.5,0.1
		s0.3,0.1,0.5,0.1c0.3,0,0.5-0.1,0.6-0.2c0.1-0.1,0.2-0.3,0.2-0.4c0-0.1,0-0.2-0.1-0.3c0-0.1-0.1-0.2-0.2-0.2
		c-0.1-0.1-0.3-0.1-0.5-0.2c-0.3-0.1-0.6-0.3-0.7-0.4c-0.1-0.2-0.2-0.4-0.2-0.6c0-0.3,0.1-0.5,0.3-0.7s0.5-0.2,0.8-0.2
		c0.4,0,0.7,0.1,1,0.2l-0.1,0.4c-0.3-0.1-0.6-0.2-0.9-0.2c-0.2,0-0.4,0-0.5,0.1s-0.2,0.2-0.2,0.4c0,0.1,0,0.2,0.1,0.3
		c0,0.1,0.1,0.2,0.2,0.2c0.1,0.1,0.3,0.1,0.5,0.2c0.4,0.1,0.6,0.3,0.8,0.4C34.7,72.1,34.7,72.3,34.7,72.5z"/>
	<path class="st15" d="M37.7,71c0,0.4-0.1,0.6-0.4,0.8c-0.2,0.2-0.6,0.3-1.1,0.3h-0.4v1.4h-0.4v-3.6h0.9
		C37.3,69.9,37.7,70.3,37.7,71z M35.9,71.7h0.4c0.4,0,0.6-0.1,0.8-0.2s0.2-0.3,0.2-0.6c0-0.2-0.1-0.4-0.2-0.5s-0.4-0.2-0.7-0.2h-0.5
		V71.7z"/>
	<path class="st15" d="M41.2,69.9v2.3c0,0.4-0.1,0.7-0.4,1s-0.6,0.3-1,0.3s-0.8-0.1-1-0.4c-0.2-0.2-0.4-0.6-0.4-1v-2.3h0.4v2.3
		c0,0.3,0.1,0.5,0.2,0.7s0.4,0.2,0.7,0.2c0.3,0,0.5-0.1,0.7-0.2c0.2-0.2,0.2-0.4,0.2-0.7v-2.3H41.2z"/>
	<path class="st15" d="M44.1,73.5h-2v-3.6h2v0.4h-1.6v1.1H44v0.4h-1.5v1.3h1.6V73.5z"/>
	<path class="st15" d="M46.9,72.5c0,0.3-0.1,0.6-0.3,0.7s-0.5,0.3-0.9,0.3c-0.4,0-0.7-0.1-1-0.2V73c0.1,0.1,0.3,0.1,0.5,0.1
		s0.3,0.1,0.5,0.1c0.3,0,0.5-0.1,0.6-0.2c0.1-0.1,0.2-0.3,0.2-0.4c0-0.1,0-0.2-0.1-0.3c0-0.1-0.1-0.2-0.2-0.2
		c-0.1-0.1-0.3-0.1-0.5-0.2c-0.3-0.1-0.6-0.3-0.7-0.4c-0.1-0.2-0.2-0.4-0.2-0.6c0-0.3,0.1-0.5,0.3-0.7s0.5-0.2,0.8-0.2
		c0.4,0,0.7,0.1,1,0.2l-0.1,0.4c-0.3-0.1-0.6-0.2-0.9-0.2c-0.2,0-0.4,0-0.5,0.1s-0.2,0.2-0.2,0.4c0,0.1,0,0.2,0.1,0.3
		c0,0.1,0.1,0.2,0.2,0.2c0.1,0.1,0.3,0.1,0.5,0.2c0.4,0.1,0.6,0.3,0.8,0.4C46.8,72.1,46.9,72.3,46.9,72.5z"/>
	<path class="st15" d="M48.7,73.5h-0.4v-3.2h-1.1v-0.4h2.7v0.4h-1.1V73.5z"/>
	<path class="st15" d="M52.6,73.5l-0.4-1.1h-1.4l-0.4,1.1h-0.4l1.4-3.6h0.3l1.4,3.6H52.6z M52.1,72l-0.4-1.1
		c-0.1-0.1-0.1-0.3-0.2-0.5c0,0.2-0.1,0.3-0.2,0.5L50.9,72H52.1z"/>
	<path class="st15" d="M57.7,71.7c0,0.6-0.2,1-0.5,1.4c-0.3,0.3-0.8,0.5-1.4,0.5h-1v-3.6H56c0.6,0,1,0.2,1.3,0.5
		S57.7,71.1,57.7,71.7z M57.3,71.7c0-0.5-0.1-0.8-0.4-1.1c-0.2-0.2-0.6-0.4-1-0.4h-0.6v2.9h0.5c0.5,0,0.9-0.1,1.1-0.4
		C57.1,72.5,57.3,72.2,57.3,71.7z"/>
	<path class="st15" d="M60.5,73.5h-2v-3.6h2v0.4h-1.6v1.1h1.5v0.4h-1.5v1.3h1.6V73.5z"/>
	<path class="st15" d="M64.1,73.5h-0.5l-2-3h0c0,0.4,0,0.7,0,1v2h-0.4v-3.6h0.5l1.9,3h0c0,0,0-0.2,0-0.4c0-0.2,0-0.4,0-0.5v-2h0.4
		V73.5z"/>
	<path class="st15" d="M66.2,73.5h-0.4v-3.2h-1.1v-0.4h2.7v0.4h-1.1V73.5z"/>
	<path class="st15" d="M68.2,72v1.5h-0.4v-3.6h1c0.4,0,0.8,0.1,1,0.3c0.2,0.2,0.3,0.4,0.3,0.8c0,0.5-0.2,0.8-0.7,1l1,1.6h-0.5L69,72
		H68.2z M68.2,71.7h0.6c0.3,0,0.5-0.1,0.6-0.2c0.1-0.1,0.2-0.3,0.2-0.5c0-0.2-0.1-0.4-0.2-0.5c-0.1-0.1-0.4-0.2-0.7-0.2h-0.5V71.7z"
		/>
	<path class="st15" d="M74,71.7c0,0.6-0.1,1-0.4,1.3c-0.3,0.3-0.7,0.5-1.2,0.5c-0.5,0-0.9-0.2-1.2-0.5c-0.3-0.3-0.4-0.8-0.4-1.4
		c0-0.6,0.1-1,0.4-1.4c0.3-0.3,0.7-0.5,1.2-0.5c0.5,0,0.9,0.2,1.2,0.5S74,71.1,74,71.7z M71.2,71.7c0,0.5,0.1,0.9,0.3,1.1
		c0.2,0.2,0.5,0.4,0.9,0.4c0.4,0,0.7-0.1,0.9-0.4s0.3-0.6,0.3-1.1c0-0.5-0.1-0.8-0.3-1.1c-0.2-0.2-0.5-0.4-0.9-0.4
		c-0.4,0-0.7,0.1-0.9,0.4C71.3,70.9,71.2,71.2,71.2,71.7z"/>
	<path class="st15" d="M29.7,77.7c0,0.6-0.2,1-0.5,1.4c-0.3,0.3-0.8,0.5-1.4,0.5h-1v-3.6h1.1c0.6,0,1,0.2,1.3,0.5
		S29.7,77.1,29.7,77.7z M29.3,77.7c0-0.5-0.1-0.8-0.4-1.1c-0.2-0.2-0.6-0.4-1-0.4h-0.6v2.9h0.5c0.5,0,0.9-0.1,1.1-0.4
		C29.1,78.5,29.3,78.2,29.3,77.7z"/>
	<path class="st15" d="M32.5,79.5h-2v-3.6h2v0.4h-1.6v1.1h1.5v0.4h-1.5v1.3h1.6V79.5z"/>
	<path class="st15" d="M33.3,79.5v-3.6h0.4v3.2h1.6v0.4H33.3z"/>
	<path class="st15" d="M39.4,77c0,0.4-0.1,0.6-0.4,0.8c-0.2,0.2-0.6,0.3-1.1,0.3h-0.4v1.4h-0.4v-3.6h0.9C39,75.9,39.4,76.3,39.4,77z
		 M37.6,77.7h0.4c0.4,0,0.6-0.1,0.8-0.2S39,77.3,39,77c0-0.2-0.1-0.4-0.2-0.5s-0.4-0.2-0.7-0.2h-0.5V77.7z"/>
	<path class="st15" d="M40.2,79.5v-3.6h0.4v3.2h1.6v0.4H40.2z"/>
	<path class="st15" d="M45,79.5l-0.4-1.1h-1.4l-0.4,1.1h-0.4l1.4-3.6H44l1.4,3.6H45z M44.4,78L44,76.9c-0.1-0.1-0.1-0.3-0.2-0.5
		c0,0.2-0.1,0.3-0.2,0.5L43.3,78H44.4z"/>
	<path class="st15" d="M48.1,79.5h-2.5v-0.3l1.9-2.9h-1.8v-0.4H48v0.3l-1.9,2.9h1.9V79.5z"/>
	<path class="st15" d="M51.9,77.7c0,0.6-0.1,1-0.4,1.3c-0.3,0.3-0.7,0.5-1.2,0.5c-0.5,0-0.9-0.2-1.2-0.5c-0.3-0.3-0.4-0.8-0.4-1.4
		c0-0.6,0.1-1,0.4-1.4c0.3-0.3,0.7-0.5,1.2-0.5c0.5,0,0.9,0.2,1.2,0.5S51.9,77.1,51.9,77.7z M49,77.7c0,0.5,0.1,0.9,0.3,1.1
		c0.2,0.2,0.5,0.4,0.9,0.4c0.4,0,0.7-0.1,0.9-0.4s0.3-0.6,0.3-1.1c0-0.5-0.1-0.8-0.3-1.1c-0.2-0.2-0.5-0.4-0.9-0.4
		c-0.4,0-0.7,0.1-0.9,0.4C49.1,76.9,49,77.2,49,77.7z"/>
</g>
</svg>
