<?xml version="1.0" encoding="utf-8"?>
<!-- Generator: Adobe Illustrator 25.0.0, SVG Export Plug-In . SVG Version: 6.00 Build 0)  -->
<svg version="1.1" id="Layer_1" xmlns="http://www.w3.org/2000/svg" xmlns:xlink="http://www.w3.org/1999/xlink" x="0px" y="0px"
	 viewBox="0 0 1374.4 900" style="enable-background:new 0 0 1374.4 900;" xml:space="preserve">
<style type="text/css">
	.st0{fill:#030420;}
	.st1{fill:#7095F1;}
	.st2{fill:#B7A1FF;}
	.st3{fill:#87E0D4;}
	.st4{fill:#1EBF70;}
	.st5{fill:#755285;}
	.st6{fill:#87E089;}
	.st7{fill:#2E2F46;}
	.st8{fill:#C7F64A;}
	.st9{fill:#FFFFFF;}
	.st10{fill:#F2F2F2;}
	.st11{enable-background:new    ;}
	.st12{fill:none;stroke:#030420;stroke-miterlimit:10;}
</style>
<g id="Pedidos_exploratórios">
	<g id="p_706.9986308165106">
		<path class="st0" d="M597.8,653.5c-76.6,0-148.5-29.8-202.7-84c-54.2-54.2-84-126.2-84-202.7c0-76.6,29.8-148.6,84-202.7
			c54.1-54.1,126.1-83.9,202.7-83.9c76.6,0,148.6,29.8,202.7,84s84,126.1,84,202.7c0,76.6-29.8,148.6-84,202.7
			C746.4,623.7,674.4,653.5,597.8,653.5z M597.8,81.2c-157.5,0-285.7,128.1-285.7,285.6c0,157.5,128.2,285.7,285.7,285.7
			s285.7-128.1,285.7-285.6C883.5,209.4,755.3,81.2,597.8,81.2z"/>
	</g>
</g>
<g id="Respondido">
	<g id="p_557.9476016495668">
		<path class="st1" d="M461.5,520.2c-75.7,0-137-61.3-137-137s61.3-137,137-137l0,0c75.7,0,137,61.3,137,137
			C598.6,458.9,537.2,520.2,461.5,520.2L461.5,520.2z"/>
	</g>
</g>
<g id="Sem_resposta">
	<g id="p_710.1719904261832">
		<path class="st2" d="M740.7,515.8c-73.2,0-132.5-59.3-132.5-132.5s59.3-132.5,132.5-132.5s132.5,59.3,132.5,132.5
			C873.3,456.4,813.9,515.8,740.7,515.8C740.8,515.8,740.8,515.8,740.7,515.8z"/>
	</g>
</g>
<g id="Site_com_problema">
	<g id="p_705.4095388193854">
		<path class="st3" d="M604.8,643.2c-45.2,0-81.8-36.6-81.8-81.8s36.6-81.8,81.8-81.8s81.8,36.6,81.8,81.8
			C686.6,606.5,650,643.1,604.8,643.2L604.8,643.2z"/>
	</g>
</g>
<g id="Indicação_de_outro_órgão">
	<g id="p_510.993936970466">
		<path class="st4" d="M604.5,292.5c-35.2,0-63.7-28.5-63.7-63.7s28.5-63.7,63.7-63.7l0,0c35.2,0,63.7,28.5,63.7,63.7
			S639.7,292.5,604.5,292.5z"/>
	</g>
</g>
<g id="Resposta_insatisfatória">
	<g id="p_413.271730337416">
		<path class="st5" d="M483,237.7c-31.7,0-57.4-25.7-57.4-57.4s25.7-57.4,57.4-57.4l0,0l0,0c31.7,0,57.4,25.7,57.4,57.4
			S514.7,237.7,483,237.7z"/>
	</g>
</g>
<g id="Pedido_em_duplicidade">
	<g id="p_549.7749246847181">
		<path class="st6" d="M725.4,241.6c-30.1,0-54.4-24.4-54.4-54.4s24.4-54.4,54.4-54.4s54.4,24.4,54.4,54.4l0,0
			C779.8,217.2,755.5,241.6,725.4,241.6L725.4,241.6z"/>
	</g>
</g>
<g id="Sem_e-SIC">
	<g id="p_612.6856447562853">
		<path class="st7" d="M475.6,605c-20.9,0-37.7-17-37.7-37.8c0-20.9,17-37.7,37.8-37.7s37.7,16.9,37.7,37.8
			C513.4,588.1,496.5,605,475.6,605L475.6,605z"/>
	</g>
</g>
<g id="Indeferido">
	<g id="p_724.0371442255536">
		<path class="st8" d="M716,565.5c-11.6,0-21-9.4-21.1-20.9c0-11.6,9.4-21,20.9-21c11.6,0,21,9.4,21.1,20.9l0,0
			C737,556.1,727.6,565.5,716,565.5z"/>
	</g>
</g>
<g>
	<g>
		<path class="st0" d="M452.6,389.4h-3.7v-10l0-1.7l0.1-1.8c-0.6,0.6-1,1-1.3,1.2l-2,1.6l-1.8-2.2l5.6-4.5h3V389.4z"/>
		<path class="st0" d="M459.1,389.4l6.5-14.2h-8.6V372h12.5v2.3l-6.6,15H459.1z"/>
		<path class="st0" d="M480.4,389.4h-3.7v-10l0-1.7l0.1-1.8c-0.6,0.6-1,1-1.3,1.2l-2,1.6l-1.8-2.2l5.6-4.5h3V389.4z"/>
		<path class="st0" d="M442.5,391.8v-1.2h41.6v1.2H442.5z"/>
	</g>
</g>
<g>
	<g>
		<path class="st0" d="M731.8,389.4h-3.7v-10l0-1.7l0.1-1.8c-0.6,0.6-1,1-1.3,1.2l-2,1.6l-1.8-2.2l5.6-4.5h3V389.4z"/>
		<path class="st0" d="M736.5,382c0-3.4,0.7-6,2.2-7.7c1.5-1.7,3.6-2.5,6.5-2.5c1,0,1.8,0.1,2.3,0.2v2.9c-0.7-0.2-1.4-0.2-2.1-0.2
			c-1.3,0-2.3,0.2-3.1,0.6c-0.8,0.4-1.4,0.9-1.8,1.7c-0.4,0.7-0.6,1.8-0.7,3.2h0.2c0.8-1.3,2-2,3.8-2c1.6,0,2.8,0.5,3.6,1.5
			s1.3,2.3,1.3,4c0,1.9-0.5,3.3-1.6,4.4c-1,1.1-2.5,1.6-4.3,1.6c-1.3,0-2.4-0.3-3.4-0.9s-1.7-1.5-2.2-2.6
			C736.8,385,736.5,383.6,736.5,382z M742.8,386.7c0.8,0,1.4-0.3,1.8-0.8c0.4-0.5,0.6-1.3,0.6-2.2c0-0.8-0.2-1.5-0.6-2
			c-0.4-0.5-1-0.7-1.8-0.7c-0.7,0-1.4,0.2-1.9,0.7c-0.5,0.5-0.8,1-0.8,1.7c0,0.9,0.2,1.7,0.7,2.4C741.4,386.4,742,386.7,742.8,386.7
			z"/>
		<path class="st0" d="M762.6,380.7c0,3-0.5,5.3-1.5,6.7c-1,1.5-2.5,2.2-4.6,2.2c-2,0-3.5-0.8-4.5-2.3c-1-1.5-1.5-3.7-1.5-6.7
			c0-3.1,0.5-5.3,1.5-6.8c1-1.5,2.5-2.2,4.6-2.2c2,0,3.5,0.8,4.5,2.3C762.1,375.5,762.6,377.8,762.6,380.7z M754.1,380.7
			c0,2.1,0.2,3.7,0.6,4.6c0.4,0.9,1,1.4,1.9,1.4c0.9,0,1.5-0.5,1.9-1.4c0.4-0.9,0.6-2.5,0.6-4.6c0-2.1-0.2-3.7-0.6-4.6
			c-0.4-0.9-1-1.4-1.8-1.4c-0.9,0-1.5,0.5-1.9,1.4C754.3,377,754.1,378.6,754.1,380.7z"/>
		<path class="st0" d="M721.8,391.8v-1.2h41.6v1.2H721.8z"/>
	</g>
</g>
<g>
	<g>
		<path class="st0" d="M594,560.1c0-3.4,0.7-6,2.2-7.7c1.5-1.7,3.6-2.5,6.5-2.5c1,0,1.8,0.1,2.3,0.2v2.9c-0.7-0.2-1.4-0.2-2.1-0.2
			c-1.3,0-2.3,0.2-3.1,0.6s-1.4,0.9-1.8,1.7c-0.4,0.7-0.6,1.8-0.7,3.2h0.2c0.8-1.3,2-2,3.8-2c1.6,0,2.8,0.5,3.6,1.5
			c0.9,1,1.3,2.3,1.3,4c0,1.9-0.5,3.3-1.6,4.4c-1,1.1-2.5,1.6-4.3,1.6c-1.3,0-2.4-0.3-3.4-0.9c-1-0.6-1.7-1.5-2.2-2.6
			C594.2,563.1,594,561.7,594,560.1z M600.3,564.8c0.8,0,1.4-0.3,1.8-0.8c0.4-0.5,0.6-1.3,0.6-2.2c0-0.8-0.2-1.5-0.6-2
			c-0.4-0.5-1-0.7-1.8-0.7c-0.7,0-1.4,0.2-1.9,0.7c-0.5,0.5-0.8,1-0.8,1.7c0,0.9,0.2,1.7,0.7,2.4
			C598.9,564.5,599.5,564.8,600.3,564.8z"/>
		<path class="st0" d="M617.1,567.5h-3.7v-10l0-1.7l0.1-1.8c-0.6,0.6-1,1-1.3,1.2l-2,1.6l-1.8-2.2l5.6-4.5h3V567.5z"/>
		<path class="st0" d="M593.1,569.9v-1.2h27.8v1.2H593.1z"/>
	</g>
</g>
<g>
	<g>
		<path class="st0" d="M603,221.4c0,1.1-0.3,2-1,2.8c-0.7,0.8-1.6,1.3-2.8,1.6v0.1c1.4,0.2,2.5,0.6,3.2,1.3c0.7,0.7,1.1,1.6,1.1,2.7
			c0,1.7-0.6,3-1.8,3.9c-1.2,0.9-2.9,1.4-5.2,1.4c-1.9,0-3.6-0.3-5-0.9v-3.1c0.7,0.3,1.4,0.6,2.2,0.8s1.6,0.3,2.4,0.3
			c1.2,0,2.1-0.2,2.7-0.6c0.6-0.4,0.9-1.1,0.9-2c0-0.8-0.3-1.4-1-1.7c-0.7-0.3-1.7-0.5-3.2-0.5h-1.3v-2.8h1.3c1.3,0,2.3-0.2,3-0.5
			c0.6-0.4,0.9-1,0.9-1.8c0-1.3-0.8-2-2.5-2c-0.6,0-1.1,0.1-1.7,0.3c-0.6,0.2-1.2,0.5-2,1l-1.7-2.5c1.6-1.1,3.5-1.7,5.7-1.7
			c1.8,0,3.2,0.4,4.3,1.1C602.4,219.1,603,220.1,603,221.4z"/>
		<path class="st0" d="M607.1,234.9l6.5-14.2h-8.6v-3.1h12.5v2.3l-6.6,15H607.1z"/>
		<path class="st0" d="M590.5,237.4v-1.2h27.8v1.2H590.5z"/>
	</g>
</g>
<g>
	<g>
		<path class="st9" d="M481.5,172.9c0,1.1-0.3,2-1,2.8c-0.7,0.8-1.6,1.3-2.8,1.6v0.1c1.4,0.2,2.5,0.6,3.2,1.3
			c0.7,0.7,1.1,1.6,1.1,2.7c0,1.7-0.6,3-1.8,3.9c-1.2,0.9-2.9,1.4-5.2,1.4c-1.9,0-3.6-0.3-5-0.9v-3.1c0.7,0.3,1.4,0.6,2.2,0.8
			s1.6,0.3,2.4,0.3c1.2,0,2.1-0.2,2.7-0.6c0.6-0.4,0.9-1.1,0.9-2c0-0.8-0.3-1.4-1-1.7c-0.7-0.3-1.7-0.5-3.2-0.5h-1.3v-2.8h1.3
			c1.3,0,2.3-0.2,3-0.5c0.6-0.4,0.9-1,0.9-1.8c0-1.3-0.8-2-2.5-2c-0.6,0-1.1,0.1-1.7,0.3c-0.6,0.2-1.2,0.5-2,1l-1.7-2.5
			c1.6-1.1,3.5-1.7,5.7-1.7c1.8,0,3.2,0.4,4.3,1.1C480.9,170.6,481.5,171.6,481.5,172.9z"/>
		<path class="st9" d="M495.9,177.7c0,3-0.5,5.3-1.5,6.7c-1,1.5-2.5,2.2-4.6,2.2c-2,0-3.5-0.8-4.5-2.3c-1-1.5-1.5-3.7-1.5-6.7
			c0-3.1,0.5-5.3,1.5-6.8c1-1.5,2.5-2.2,4.6-2.2c2,0,3.5,0.8,4.5,2.3C495.4,172.5,495.9,174.8,495.9,177.7z M487.4,177.7
			c0,2.1,0.2,3.7,0.6,4.6c0.4,0.9,1,1.4,1.9,1.4c0.9,0,1.5-0.5,1.9-1.4c0.4-0.9,0.6-2.5,0.6-4.6c0-2.1-0.2-3.7-0.6-4.6
			c-0.4-0.9-1-1.4-1.8-1.4c-0.9,0-1.5,0.5-1.9,1.4C487.6,174,487.4,175.6,487.4,177.7z"/>
		<path class="st9" d="M469,188.8v-1.2h27.8v1.2H469z"/>
	</g>
</g>
<g>
	<g>
		<path class="st0" d="M724.6,193.3h-12.1v-2.6l4.4-4.4c1.3-1.3,2.1-2.2,2.5-2.7c0.4-0.5,0.7-1,0.9-1.4c0.2-0.4,0.3-0.9,0.3-1.4
			c0-0.7-0.2-1.2-0.6-1.6s-0.9-0.5-1.5-0.5c-0.7,0-1.3,0.2-2,0.5s-1.3,0.7-2,1.3l-2-2.4c0.9-0.7,1.6-1.2,2.1-1.5
			c0.6-0.3,1.2-0.5,1.8-0.7s1.4-0.2,2.2-0.2c1.1,0,2,0.2,2.9,0.6c0.8,0.4,1.5,1,1.9,1.7c0.5,0.7,0.7,1.5,0.7,2.4
			c0,0.8-0.1,1.5-0.4,2.2c-0.3,0.7-0.7,1.4-1.3,2.2c-0.6,0.7-1.6,1.8-3.1,3.1L717,190v0.2h7.6V193.3z"/>
		<path class="st0" d="M728,193.3l6.5-14.2H726v-3.1h12.5v2.3l-6.6,15H728z"/>
		<path class="st0" d="M711.5,195.7v-1.2h27.8v1.2H711.5z"/>
	</g>
</g>
<g>
	<g>
		<path class="st10" d="M474.4,571.8h-2.8v-7.6l0-1.2l0-1.4c-0.5,0.5-0.8,0.8-1,0.9l-1.5,1.2l-1.3-1.7l4.2-3.3h2.3V571.8z"/>
		<path class="st10" d="M486.6,561.7c0,0.8-0.2,1.5-0.7,2.1c-0.5,0.6-1.2,1-2.1,1.2v0.1c1.1,0.1,1.9,0.5,2.4,1
			c0.5,0.5,0.8,1.2,0.8,2.1c0,1.3-0.5,2.2-1.4,2.9c-0.9,0.7-2.2,1-3.9,1c-1.4,0-2.7-0.2-3.8-0.7V569c0.5,0.3,1.1,0.5,1.7,0.6
			c0.6,0.2,1.2,0.2,1.8,0.2c0.9,0,1.6-0.2,2-0.5s0.7-0.8,0.7-1.5c0-0.6-0.2-1-0.8-1.3c-0.5-0.3-1.3-0.4-2.4-0.4h-1v-2.1h1
			c1,0,1.8-0.1,2.2-0.4c0.5-0.3,0.7-0.7,0.7-1.4c0-1-0.6-1.5-1.9-1.5c-0.4,0-0.9,0.1-1.3,0.2c-0.4,0.1-0.9,0.4-1.5,0.7l-1.3-1.9
			c1.2-0.9,2.6-1.3,4.3-1.3c1.4,0,2.4,0.3,3.2,0.8C486.2,560,486.6,560.7,486.6,561.7z"/>
		<path class="st10" d="M466.8,573.7v-0.9h20.9v0.9H466.8z"/>
	</g>
</g>
<g>
	<g>
		<path class="st0" d="M717.2,548h-1.6v2.7H713V548h-5.6v-1.9l5.7-8.4h2.5v8.2h1.6V548z M713,545.8v-2.2c0-0.4,0-0.9,0-1.6
			c0-0.7,0.1-1.1,0.1-1.2H713c-0.2,0.5-0.5,1-0.8,1.4l-2.4,3.6H713z"/>
		<path class="st0" d="M707.1,552.5v-0.9h10.4v0.9H707.1z"/>
	</g>
</g>
<g id="Pedidos_Google">
	<g id="p_939.1026008473722">
		<path class="st0" d="M1098.3,572L1098.3,572c-113.1,0-205.1-92-205.1-205.1c0-113.1,92-205.1,205.1-205.1h0.1
			c113.1,0,205.1,92,205.1,205.1c0,54.8-21.4,106.3-60.1,145C1204.6,550.6,1153.1,572,1098.3,572z M1098.3,162.8
			c-112.5,0-204.1,91.6-204.1,204.1c0,112.5,91.6,204.1,204.1,204.1c112.6-0.1,204.2-91.7,204.2-204.1
			c0-112.5-91.6-204.1-204.1-204.1H1098.3z"/>
	</g>
</g>
<g id="Respondido-2">
	<g id="p_837.7020816179811">
		<path class="st1" d="M1010.8,475.9c-53.3-0.5-96.1-44.2-95.6-97.6c0.5-52.6,43-95.1,95.6-95.6l0,0c53.3-0.5,97,42.3,97.6,95.6
			c0.5,53.3-42.3,97-95.6,97.6C1012.1,475.9,1011.5,475.9,1010.8,475.9z"/>
	</g>
</g>
<g id="Sem_resposta-2">
	<g id="p_940.2164058449428">
		<path class="st2" d="M1204.8,467c-48.4,0-87.7-39.2-87.7-87.6s39.2-87.7,87.6-87.7s87.7,39.2,87.7,87.6l0,0
			C1292.4,427.7,1253.2,467,1204.8,467z"/>
	</g>
</g>
<g id="Resposta_insatisfatória-2">
	<g id="p_942.4396690975328">
		<path class="st5" d="M1115.1,560.7c-31.2,0.4-56.8-24.5-57.2-55.7s24.5-56.8,55.7-57.2c0.5,0,1,0,1.5,0l0,0
			c31.2,0.4,56.1,26,55.7,57.2C1170.3,535.6,1145.7,560.3,1115.1,560.7z"/>
	</g>
</g>
<g id="Site_com_problema-2">
	<g id="p_805.6622192262683">
		<path class="st3" d="M1114.5,314.3c-24.5,0-44.5-19.9-44.5-44.4s19.9-44.5,44.4-44.5s44.5,19.9,44.5,44.4l0,0
			C1159,294.4,1139.1,314.3,1114.5,314.3z"/>
	</g>
</g>
<g id="Indeferido-2">
	<g id="p_734.3045558666563">
		<path class="st8" d="M1026.3,273.8c-23.1,0-41.9-18.8-41.9-41.9s18.8-41.9,41.9-41.9c23.1,0,41.9,18.8,41.9,41.9l0,0
			C1068.2,255.1,1049.4,273.8,1026.3,273.8L1026.3,273.8z"/>
	</g>
</g>
<g id="Indicação_de_outro_órgão-2">
	<g id="p_875.1859680659007">
		<path class="st4" d="M1028,526.4c-11.6,0-21-9.4-21-21c0-11.6,9.4-21,21-21s21,9.4,21,21l0,0C1049,517,1039.6,526.4,1028,526.4z"
			/>
	</g>
</g>
<g id="Sem_e-SIC-2">
	<g id="p_827.0549477661632">
		<path class="st7" d="M1183.5,284c-8.2,0-14.8-6.7-14.8-14.9s6.7-14.8,14.9-14.8c8.2,0,14.8,6.7,14.8,14.8
			C1198.4,277.3,1191.8,284,1183.5,284C1183.6,284,1183.5,284,1183.5,284z"/>
	</g>
</g>
<g id="Pedido_em_duplicidade-2">
	<g id="p_956.3618255763646">
		<path class="st6" d="M1195,505.9c-8.2,0-14.8-6.6-14.8-14.8s6.6-14.8,14.8-14.8c8.2,0,14.8,6.6,14.8,14.8l0,0
			C1209.8,499.3,1203.2,505.9,1195,505.9z"/>
	</g>
</g>
<g>
	<g>
		<path class="st0" d="M1003.8,367.9c1.7,0,3,0.4,4,1.1c1,0.8,1.5,1.8,1.5,3.1c0,0.9-0.2,1.7-0.7,2.4c-0.5,0.7-1.3,1.3-2.4,1.9
			c1.3,0.7,2.2,1.4,2.8,2.2c0.6,0.8,0.8,1.6,0.8,2.5c0,1.4-0.6,2.6-1.7,3.4c-1.1,0.9-2.6,1.3-4.4,1.3c-1.9,0-3.4-0.4-4.5-1.2
			s-1.6-2-1.6-3.4c0-1,0.3-1.9,0.8-2.6c0.5-0.8,1.4-1.4,2.5-2c-1-0.6-1.7-1.3-2.1-2c-0.4-0.7-0.7-1.5-0.7-2.3c0-1.2,0.5-2.2,1.5-3
			C1000.8,368.3,1002.2,367.9,1003.8,367.9z M1001.1,380.8c0,0.7,0.2,1.2,0.7,1.6c0.5,0.4,1.1,0.6,1.9,0.6c0.9,0,1.6-0.2,2-0.6
			s0.7-0.9,0.7-1.5c0-0.5-0.2-1-0.7-1.5s-1.2-1-2.2-1.5C1002,378.7,1001.1,379.6,1001.1,380.8z M1003.8,370.5
			c-0.6,0-1.1,0.2-1.5,0.5c-0.4,0.3-0.6,0.8-0.6,1.3c0,0.5,0.2,0.9,0.5,1.3s0.9,0.8,1.7,1.2c0.8-0.4,1.3-0.7,1.6-1.1
			c0.3-0.4,0.5-0.8,0.5-1.3c0-0.5-0.2-1-0.6-1.3C1004.9,370.7,1004.4,370.5,1003.8,370.5z"/>
		<path class="st0" d="M1018,374.4c1.7,0,3,0.5,4,1.4c1,0.9,1.5,2.2,1.5,3.9c0,1.9-0.6,3.4-1.8,4.5s-2.9,1.6-5.1,1.6
			c-1.9,0-3.5-0.3-4.7-0.9v-3.2c0.6,0.3,1.4,0.6,2.2,0.8s1.6,0.3,2.4,0.3c2.2,0,3.4-0.9,3.4-2.8c0-1.8-1.2-2.6-3.5-2.6
			c-0.4,0-0.9,0-1.4,0.1c-0.5,0.1-0.9,0.2-1.2,0.3l-1.5-0.8l0.7-8.8h9.4v3.1h-6.2l-0.3,3.4l0.4-0.1
			C1016.7,374.4,1017.3,374.4,1018,374.4z"/>
		<path class="st0" d="M996.9,387.9v-1.2h27.8v1.2H996.9z"/>
	</g>
</g>
<g>
	<g>
		<path class="st0" d="M1193.5,385.5l6.5-14.2h-8.6v-3.1h12.5v2.3l-6.6,15H1193.5z"/>
		<path class="st0" d="M1217.7,376.8c0,3-0.5,5.3-1.5,6.7c-1,1.5-2.5,2.2-4.6,2.2c-2,0-3.5-0.8-4.5-2.3c-1-1.5-1.5-3.7-1.5-6.7
			c0-3.1,0.5-5.3,1.5-6.8c1-1.5,2.5-2.2,4.6-2.2c2,0,3.5,0.8,4.5,2.3C1217.2,371.6,1217.7,373.8,1217.7,376.8z M1209.2,376.8
			c0,2.1,0.2,3.7,0.6,4.6c0.4,0.9,1,1.4,1.9,1.4c0.9,0,1.5-0.5,1.9-1.4c0.4-0.9,0.6-2.5,0.6-4.6c0-2.1-0.2-3.7-0.6-4.6
			c-0.4-0.9-1-1.4-1.8-1.4c-0.9,0-1.5,0.5-1.9,1.4C1209.4,373.1,1209.2,374.6,1209.2,376.8z"/>
		<path class="st0" d="M1190.8,387.9v-1.2h27.8v1.2H1190.8z"/>
	</g>
</g>
<g>
	<g>
		<path class="st9" d="M1114.5,510.4h-12.1v-2.6l4.4-4.4c1.3-1.3,2.1-2.2,2.5-2.7s0.7-1,0.9-1.4c0.2-0.4,0.3-0.9,0.3-1.4
			c0-0.7-0.2-1.2-0.6-1.6c-0.4-0.3-0.9-0.5-1.5-0.5c-0.7,0-1.3,0.2-2,0.5c-0.6,0.3-1.3,0.7-2,1.3l-2-2.4c0.9-0.7,1.6-1.2,2.1-1.5
			c0.6-0.3,1.2-0.5,1.8-0.7s1.4-0.2,2.2-0.2c1.1,0,2,0.2,2.9,0.6c0.8,0.4,1.5,1,1.9,1.7c0.5,0.7,0.7,1.5,0.7,2.4
			c0,0.8-0.1,1.5-0.4,2.2c-0.3,0.7-0.7,1.4-1.3,2.2c-0.6,0.7-1.6,1.8-3.1,3.1l-2.2,2.1v0.2h7.6V510.4z"/>
		<path class="st9" d="M1128.3,500.5c0,3.4-0.7,6-2.2,7.7c-1.4,1.7-3.6,2.5-6.5,2.5c-1,0-1.8-0.1-2.3-0.2v-2.9
			c0.7,0.2,1.4,0.2,2.1,0.2c1.2,0,2.2-0.2,3-0.5c0.8-0.4,1.4-0.9,1.8-1.7c0.4-0.8,0.7-1.8,0.7-3.2h-0.1c-0.5,0.7-1,1.3-1.6,1.6
			s-1.4,0.5-2.3,0.5c-1.5,0-2.7-0.5-3.6-1.5c-0.9-1-1.3-2.3-1.3-4c0-1.9,0.5-3.3,1.6-4.4c1.1-1.1,2.5-1.6,4.3-1.6
			c1.3,0,2.4,0.3,3.4,0.9s1.7,1.5,2.2,2.6C1128.1,497.5,1128.3,498.9,1128.3,500.5z M1122.1,495.8c-0.8,0-1.4,0.3-1.8,0.8
			c-0.4,0.5-0.6,1.3-0.6,2.3c0,0.8,0.2,1.5,0.6,2c0.4,0.5,1,0.7,1.8,0.7c0.7,0,1.4-0.2,1.9-0.7s0.8-1,0.8-1.7c0-0.9-0.2-1.7-0.7-2.4
			C1123.5,496.1,1122.8,495.8,1122.1,495.8z"/>
		<path class="st9" d="M1101.4,512.8v-1.2h27.8v1.2H1101.4z"/>
	</g>
</g>
<g>
	<g>
		<path class="st0" d="M1112.5,276h-3.7v-10l0-1.7l0.1-1.8c-0.6,0.6-1,1-1.3,1.2l-2,1.6l-1.8-2.2l5.6-4.5h3V276z"/>
		<path class="st0" d="M1123.3,258.4c1.7,0,3,0.4,4,1.1c1,0.8,1.5,1.8,1.5,3.1c0,0.9-0.2,1.7-0.7,2.4c-0.5,0.7-1.3,1.3-2.4,1.9
			c1.3,0.7,2.2,1.4,2.8,2.2c0.6,0.8,0.8,1.6,0.8,2.5c0,1.4-0.6,2.6-1.7,3.4c-1.1,0.9-2.6,1.3-4.4,1.3c-1.9,0-3.4-0.4-4.5-1.2
			s-1.6-2-1.6-3.4c0-1,0.3-1.9,0.8-2.6c0.5-0.8,1.4-1.4,2.5-2c-1-0.6-1.7-1.3-2.1-2c-0.4-0.7-0.7-1.5-0.7-2.3c0-1.2,0.5-2.2,1.5-3
			C1120.3,258.8,1121.7,258.4,1123.3,258.4z M1120.6,271.4c0,0.7,0.2,1.2,0.7,1.6c0.5,0.4,1.1,0.6,1.9,0.6c0.9,0,1.6-0.2,2-0.6
			s0.7-0.9,0.7-1.5c0-0.5-0.2-1-0.7-1.5s-1.2-1-2.2-1.5C1121.5,269.2,1120.6,270.2,1120.6,271.4z M1123.3,261.1
			c-0.6,0-1.1,0.2-1.5,0.5c-0.4,0.3-0.6,0.8-0.6,1.3c0,0.5,0.2,0.9,0.5,1.3s0.9,0.8,1.7,1.2c0.8-0.4,1.3-0.7,1.6-1.1
			c0.3-0.4,0.5-0.8,0.5-1.3c0-0.5-0.2-1-0.6-1.3C1124.4,261.3,1123.9,261.1,1123.3,261.1z"/>
		<path class="st0" d="M1102.5,278.5v-1.2h27.8v1.2H1102.5z"/>
	</g>
</g>
<g>
	<g>
		<path class="st0" d="M1025,236.5h-2.8V229l0-1.2l0-1.4c-0.5,0.5-0.8,0.8-1,0.9l-1.5,1.2l-1.3-1.7l4.2-3.3h2.3V236.5z"/>
		<path class="st0" d="M1028.5,231c0-2.6,0.5-4.5,1.6-5.8c1.1-1.3,2.7-1.9,4.9-1.9c0.7,0,1.3,0,1.8,0.1v2.2
			c-0.5-0.1-1.1-0.2-1.6-0.2c-0.9,0-1.7,0.1-2.3,0.4c-0.6,0.3-1,0.7-1.3,1.3s-0.5,1.4-0.5,2.4h0.1c0.6-1,1.5-1.5,2.8-1.5
			c1.2,0,2.1,0.4,2.7,1.1c0.7,0.7,1,1.7,1,3c0,1.4-0.4,2.5-1.2,3.3c-0.8,0.8-1.9,1.2-3.3,1.2c-1,0-1.8-0.2-2.5-0.7s-1.3-1.1-1.7-2
			S1028.5,232.2,1028.5,231z M1033.2,234.5c0.6,0,1-0.2,1.4-0.6s0.5-1,0.5-1.7c0-0.6-0.1-1.1-0.4-1.5s-0.7-0.5-1.3-0.5
			c-0.6,0-1,0.2-1.4,0.5c-0.4,0.4-0.6,0.8-0.6,1.3c0,0.7,0.2,1.3,0.6,1.8S1032.7,234.5,1033.2,234.5z"/>
		<path class="st0" d="M1017.4,238.3v-0.9h20.9v0.9H1017.4z"/>
	</g>
</g>
<g>
	<g>
		<path class="st0" d="M1032.7,507.3h-1.6v2.7h-2.7v-2.7h-5.6v-1.9l5.7-8.4h2.5v8.2h1.6V507.3z M1028.5,505.2V503c0-0.4,0-0.9,0-1.6
			c0-0.7,0.1-1.1,0.1-1.2h-0.1c-0.2,0.5-0.5,1-0.8,1.4l-2.4,3.6H1028.5z"/>
		<path class="st0" d="M1022.6,511.9V511h10.4v0.9H1022.6z"/>
	</g>
</g>
<g>
	<g>
		<path class="st10" d="M1188.4,273.8h-9.1v-1.9l3.3-3.3c1-1,1.6-1.7,1.9-2.1s0.5-0.7,0.6-1.1s0.2-0.7,0.2-1c0-0.5-0.1-0.9-0.4-1.2
			s-0.7-0.4-1.2-0.4c-0.5,0-1,0.1-1.5,0.3s-1,0.6-1.5,1l-1.5-1.8c0.6-0.5,1.2-0.9,1.6-1.2c0.4-0.2,0.9-0.4,1.4-0.5
			c0.5-0.1,1.1-0.2,1.7-0.2c0.8,0,1.5,0.1,2.2,0.4s1.1,0.7,1.5,1.3c0.3,0.5,0.5,1.1,0.5,1.8c0,0.6-0.1,1.2-0.3,1.7
			c-0.2,0.5-0.5,1.1-1,1.6s-1.2,1.3-2.3,2.4l-1.7,1.6v0.1h5.7V273.8z"/>
		<path class="st10" d="M1178.5,275.6v-0.9h10.4v0.9H1178.5z"/>
	</g>
</g>
<g>
	<g>
		<path class="st0" d="M1199.8,495.7h-9.1v-1.9l3.3-3.3c1-1,1.6-1.7,1.9-2.1s0.5-0.7,0.6-1.1s0.2-0.7,0.2-1c0-0.5-0.1-0.9-0.4-1.2
			c-0.3-0.3-0.7-0.4-1.2-0.4c-0.5,0-1,0.1-1.5,0.3c-0.5,0.2-1,0.6-1.5,1l-1.5-1.8c0.6-0.5,1.2-0.9,1.6-1.2c0.4-0.2,0.9-0.4,1.4-0.5
			c0.5-0.1,1.1-0.2,1.7-0.2c0.8,0,1.5,0.1,2.2,0.4s1.1,0.7,1.5,1.3c0.3,0.5,0.5,1.1,0.5,1.8c0,0.6-0.1,1.2-0.3,1.7
			c-0.2,0.5-0.5,1.1-1,1.6s-1.2,1.3-2.3,2.4l-1.7,1.6v0.1h5.7V495.7z"/>
		<path class="st0" d="M1189.9,497.5v-0.9h10.4v0.9H1189.9z"/>
	</g>
</g>
<g id="Pedidos_específicos">
	<g id="p_942.7097395324444">
		<path class="st0" d="M909.5,842.5c-67.4,0-122.3-54.9-122.3-122.3s54.9-122.3,122.3-122.3s122.3,54.9,122.3,122.3
			S976.9,842.5,909.5,842.5z M909.5,598.9c-66.9,0-121.3,54.4-121.3,121.3c0,66.9,54.4,121.3,121.3,121.3s121.3-54.4,121.3-121.3
			C1030.8,653.3,976.4,598.9,909.5,598.9z"/>
	</g>
</g>
<g id="Respondido-3">
	<g id="p_874.2028532027925">
		<path class="st1" d="M860.4,767.4c-33.7,1.1-61.9-25.4-63-59.1c-1.1-33.7,25.4-61.9,59.1-63c1.3,0,2.6,0,3.8,0l0,0
			c33.7,0.4,60.7,28.1,60.3,61.9C920.3,740.3,893.5,767.1,860.4,767.4L860.4,767.4z"/>
	</g>
</g>
<g id="Sem_resposta-3">
	<g id="p_928.8475218150546">
		<path class="st2" d="M975.7,750.8c-24.5,0-44.5-19.9-44.5-44.4s19.9-44.5,44.4-44.5s44.4,19.9,44.5,44.4
			C1020.1,730.9,1000.3,750.8,975.7,750.8L975.7,750.8z"/>
	</g>
</g>
<g id="Resposta_insatisfatória-3">
	<g id="p_948.0804371111049">
		<path class="st5" d="M932.7,828.5c-21.6,0.3-39.5-16.9-39.8-38.6c-0.3-21.6,16.9-39.5,38.6-39.8c0.4,0,0.8,0,1.3,0l0,0
			c21.6,0.3,38.9,18.2,38.6,39.8C970.9,811.1,953.9,828.1,932.7,828.5z"/>
	</g>
</g>
<g id="Site_com_problema-3">
	<g id="p_858.4261941276254">
		<path class="st3" d="M929.2,670.2c-8.2,0-14.8-6.6-14.8-14.8s6.6-14.8,14.8-14.8s14.8,6.6,14.8,14.8
			C944,663.5,937.4,670.1,929.2,670.2L929.2,670.2z"/>
	</g>
</g>
<g id="Indicação_de_outro_órgão-3">
	<g id="p_829.0360772584445">
		<path class="st4" d="M900.3,646c-5.8,0-10.5-4.7-10.5-10.5s4.7-10.5,10.5-10.5s10.5,4.7,10.5,10.5l0,0
			C910.8,641.3,906.1,646,900.3,646L900.3,646z"/>
	</g>
</g>
<g id="Indeferido-3">
	<g id="p_867.4537013999949">
		<path class="st8" d="M962,653.6c-5.8,0-10.5-4.7-10.5-10.5s4.7-10.5,10.5-10.5s10.5,4.7,10.5,10.5l0,0
			C972.5,648.9,967.8,653.6,962,653.6z"/>
	</g>
</g>
<g>
	<g>
		<path class="st0" d="M858.8,699c0,1.1-0.3,2-1,2.8c-0.7,0.8-1.6,1.3-2.8,1.6v0.1c1.4,0.2,2.5,0.6,3.2,1.3c0.7,0.7,1.1,1.6,1.1,2.7
			c0,1.7-0.6,3-1.8,3.9c-1.2,0.9-2.9,1.4-5.2,1.4c-1.9,0-3.6-0.3-5-0.9v-3.1c0.7,0.3,1.4,0.6,2.2,0.8s1.6,0.3,2.4,0.3
			c1.2,0,2.1-0.2,2.7-0.6c0.6-0.4,0.9-1.1,0.9-2c0-0.8-0.3-1.4-1-1.7c-0.7-0.3-1.7-0.5-3.2-0.5H850v-2.8h1.3c1.3,0,2.3-0.2,3-0.5
			c0.6-0.4,0.9-1,0.9-1.8c0-1.3-0.8-2-2.5-2c-0.6,0-1.1,0.1-1.7,0.3c-0.6,0.2-1.2,0.5-2,1l-1.7-2.5c1.6-1.1,3.5-1.7,5.7-1.7
			c1.8,0,3.2,0.4,4.3,1.1C858.3,696.7,858.8,697.7,858.8,699z"/>
		<path class="st0" d="M873.8,708.9h-2.1v3.6h-3.6v-3.6h-7.4v-2.6l7.6-11.2h3.4V706h2.1V708.9z M868.1,706v-2.9c0-0.5,0-1.2,0.1-2.1
			c0-0.9,0.1-1.5,0.1-1.6h-0.1c-0.3,0.6-0.6,1.3-1.1,1.9l-3.2,4.8H868.1z"/>
		<path class="st0" d="M846.4,714.9v-1.2h27.8v1.2H846.4z"/>
	</g>
</g>
<g>
	<g>
		<path class="st0" d="M973.7,712.5H970v-10l0-1.7l0.1-1.8c-0.6,0.6-1,1-1.3,1.2l-2,1.6l-1.8-2.2l5.6-4.5h3V712.5z"/>
		<path class="st0" d="M984.5,694.9c1.7,0,3,0.4,4,1.1c1,0.8,1.5,1.8,1.5,3.1c0,0.9-0.2,1.7-0.7,2.4c-0.5,0.7-1.3,1.3-2.4,1.9
			c1.3,0.7,2.2,1.4,2.8,2.2c0.6,0.8,0.8,1.6,0.8,2.5c0,1.4-0.6,2.6-1.7,3.4c-1.1,0.9-2.6,1.3-4.4,1.3c-1.9,0-3.4-0.4-4.5-1.2
			c-1.1-0.8-1.6-2-1.6-3.4c0-1,0.3-1.9,0.8-2.6c0.5-0.8,1.4-1.4,2.5-2c-1-0.6-1.7-1.3-2.1-2c-0.4-0.7-0.7-1.5-0.7-2.3
			c0-1.2,0.5-2.2,1.5-3C981.5,695.3,982.8,694.9,984.5,694.9z M981.8,707.9c0,0.7,0.2,1.2,0.7,1.6c0.5,0.4,1.1,0.6,1.9,0.6
			c0.9,0,1.6-0.2,2-0.6s0.7-0.9,0.7-1.5c0-0.5-0.2-1-0.7-1.5s-1.2-1-2.2-1.5C982.6,705.7,981.8,706.7,981.8,707.9z M984.4,697.6
			c-0.6,0-1.1,0.2-1.5,0.5c-0.4,0.3-0.6,0.8-0.6,1.3c0,0.5,0.2,0.9,0.5,1.3s0.9,0.8,1.7,1.2c0.8-0.4,1.3-0.7,1.6-1.1
			s0.5-0.8,0.5-1.3c0-0.5-0.2-1-0.6-1.3C985.6,697.7,985.1,697.6,984.4,697.6z"/>
		<path class="st0" d="M963.6,714.9v-1.2h27.8v1.2H963.6z"/>
	</g>
</g>
<g>
	<g>
		<path class="st9" d="M930.8,795.4h-3.7v-10l0-1.7l0.1-1.8c-0.6,0.6-1,1-1.3,1.2l-2,1.6l-1.8-2.2l5.6-4.5h3V795.4z"/>
		<path class="st9" d="M948.1,791.8H946v3.6h-3.6v-3.6H935v-2.6l7.6-11.2h3.4V789h2.1V791.8z M942.4,789V786c0-0.5,0-1.2,0.1-2.1
			c0-0.9,0.1-1.5,0.1-1.6h-0.1c-0.3,0.6-0.6,1.3-1.1,1.9l-3.2,4.8H942.4z"/>
		<path class="st9" d="M920.7,797.8v-1.2h27.8v1.2H920.7z"/>
	</g>
</g>
<g>
	<g>
		<path class="st0" d="M934,660h-9.1V658l3.3-3.3c1-1,1.6-1.7,1.9-2.1s0.5-0.7,0.6-1.1s0.2-0.7,0.2-1c0-0.5-0.1-0.9-0.4-1.2
			c-0.3-0.3-0.7-0.4-1.2-0.4c-0.5,0-1,0.1-1.5,0.3s-1,0.6-1.5,1l-1.5-1.8c0.6-0.5,1.2-0.9,1.6-1.2c0.4-0.2,0.9-0.4,1.4-0.5
			c0.5-0.1,1.1-0.2,1.7-0.2c0.8,0,1.5,0.1,2.2,0.4s1.1,0.7,1.5,1.3c0.3,0.5,0.5,1.1,0.5,1.8c0,0.6-0.1,1.2-0.3,1.7
			c-0.2,0.5-0.5,1.1-1,1.6s-1.2,1.3-2.3,2.4l-1.7,1.6v0.1h5.7V660z"/>
		<path class="st0" d="M924.2,661.8v-0.9h10.4v0.9H924.2z"/>
	</g>
</g>
<g>
	<g>
		<path class="st0" d="M904.2,640.1h-2.8v-7.6l0-1.2l0-1.4c-0.5,0.5-0.8,0.8-1,0.9l-1.5,1.2l-1.3-1.7l4.2-3.3h2.3V640.1z"/>
		<path class="st0" d="M896.7,642v-0.9h10.4v0.9H896.7z"/>
	</g>
</g>
<g>
	<g>
		<path class="st0" d="M966,647.8h-2.8v-7.6l0-1.2l0-1.4c-0.5,0.5-0.8,0.8-1,0.9l-1.5,1.2l-1.3-1.7l4.2-3.3h2.3V647.8z"/>
		<path class="st0" d="M958.4,649.6v-0.9h10.4v0.9H958.4z"/>
	</g>
</g>
<g class="st11">
	<path class="st0" d="M42.9,362.7c0,0.9-0.3,1.7-1,2.2s-1.6,0.8-2.8,0.8c-1.3,0-2.2-0.2-2.9-0.5V364c0.4,0.2,0.9,0.3,1.4,0.4
		s1,0.2,1.5,0.2c0.8,0,1.5-0.2,1.9-0.5c0.4-0.3,0.6-0.8,0.6-1.3c0-0.4-0.1-0.7-0.2-0.9c-0.1-0.2-0.4-0.5-0.7-0.7s-0.9-0.4-1.6-0.7
		c-1-0.4-1.7-0.8-2.1-1.3c-0.4-0.5-0.6-1.1-0.6-1.9c0-0.8,0.3-1.5,0.9-2s1.4-0.7,2.5-0.7c1.1,0,2,0.2,2.9,0.6l-0.4,1.1
		c-0.9-0.4-1.7-0.6-2.6-0.6c-0.7,0-1.2,0.1-1.5,0.4c-0.4,0.3-0.6,0.7-0.6,1.2c0,0.4,0.1,0.7,0.2,0.9c0.1,0.2,0.4,0.5,0.7,0.7
		c0.3,0.2,0.8,0.4,1.5,0.7c1.1,0.4,1.9,0.8,2.3,1.3C42.7,361.3,42.9,361.9,42.9,362.7z"/>
	<path class="st0" d="M45.1,365.5v-10.7h1.2v10.7H45.1z"/>
	<path class="st0" d="M52.6,365.5h-1.2v-9.6H48v-1.1h8v1.1h-3.4V365.5z"/>
	<path class="st0" d="M57.6,365.5v-10.7h1.2v10.7H57.6z"/>
	<path class="st0" d="M71.1,360.1c0,1.7-0.4,3.1-1.3,4c-0.9,1-2.1,1.5-3.6,1.5c-1.6,0-2.8-0.5-3.7-1.4c-0.9-1-1.3-2.3-1.3-4.1
		c0-1.7,0.4-3.1,1.3-4.1c0.9-1,2.1-1.4,3.7-1.4c1.5,0,2.7,0.5,3.6,1.5C70.6,357.1,71.1,358.4,71.1,360.1z M62.5,360.1
		c0,1.5,0.3,2.6,0.9,3.3c0.6,0.8,1.5,1.1,2.7,1.1c1.2,0,2.1-0.4,2.7-1.1s0.9-1.8,0.9-3.3c0-1.4-0.3-2.5-0.9-3.3
		c-0.6-0.7-1.5-1.1-2.7-1.1c-1.2,0-2.1,0.4-2.7,1.1C62.9,357.6,62.5,358.7,62.5,360.1z"/>
	<path class="st0" d="M86.7,365.5h-1.2l-2.2-7.2c-0.1-0.3-0.2-0.7-0.3-1.2c-0.1-0.5-0.2-0.8-0.2-0.9c-0.1,0.6-0.3,1.4-0.5,2.1
		l-2.1,7.1h-1.2l-2.8-10.7h1.3l1.7,6.6c0.2,0.9,0.4,1.8,0.5,2.5c0.1-0.9,0.3-1.8,0.6-2.6l1.9-6.5h1.3l2,6.6c0.2,0.8,0.4,1.6,0.6,2.6
		c0.1-0.7,0.3-1.5,0.5-2.5l1.7-6.6h1.3L86.7,365.5z"/>
	<path class="st0" d="M97.2,365.5h-6v-10.7h6v1.1h-4.7v3.4h4.4v1.1h-4.4v3.9h4.7V365.5z"/>
	<path class="st0" d="M99.6,354.8h3c1.4,0,2.4,0.2,3.1,0.6c0.6,0.4,1,1.1,1,2c0,0.6-0.2,1.2-0.5,1.6c-0.4,0.4-0.9,0.7-1.5,0.8v0.1
		c1.6,0.3,2.4,1.1,2.4,2.6c0,1-0.3,1.7-1,2.2s-1.6,0.8-2.7,0.8h-3.7V354.8z M100.8,359.4h2.1c0.9,0,1.5-0.1,1.9-0.4
		c0.4-0.3,0.6-0.7,0.6-1.4c0-0.6-0.2-1-0.6-1.3c-0.4-0.3-1.1-0.4-2.1-0.4h-1.8V359.4z M100.8,360.4v4h2.2c0.9,0,1.5-0.2,2-0.5
		c0.4-0.3,0.7-0.9,0.7-1.6c0-0.7-0.2-1.2-0.7-1.5c-0.4-0.3-1.1-0.5-2-0.5H100.8z"/>
	<path class="st0" d="M117.8,355.8c-1.2,0-2.1,0.4-2.8,1.2c-0.7,0.8-1,1.9-1,3.2c0,1.4,0.3,2.5,1,3.2c0.7,0.8,1.6,1.1,2.8,1.1
		c0.7,0,1.6-0.1,2.6-0.4v1.1c-0.7,0.3-1.7,0.4-2.7,0.4c-1.6,0-2.8-0.5-3.7-1.4c-0.9-1-1.3-2.3-1.3-4.1c0-1.1,0.2-2.1,0.6-2.9
		c0.4-0.8,1-1.5,1.8-1.9s1.7-0.7,2.8-0.7c1.1,0,2.1,0.2,2.9,0.6l-0.5,1.1C119.4,355.9,118.6,355.8,117.8,355.8z"/>
	<path class="st0" d="M132,360.1c0,1.7-0.4,3.1-1.3,4c-0.9,1-2.1,1.5-3.6,1.5c-1.6,0-2.8-0.5-3.7-1.4c-0.9-1-1.3-2.3-1.3-4.1
		c0-1.7,0.4-3.1,1.3-4.1c0.9-1,2.1-1.4,3.7-1.4c1.5,0,2.7,0.5,3.6,1.5C131.5,357.1,132,358.4,132,360.1z M123.4,360.1
		c0,1.5,0.3,2.6,0.9,3.3c0.6,0.8,1.5,1.1,2.7,1.1c1.2,0,2.1-0.4,2.7-1.1s0.9-1.8,0.9-3.3c0-1.4-0.3-2.5-0.9-3.3
		c-0.6-0.7-1.5-1.1-2.7-1.1c-1.2,0-2.1,0.4-2.7,1.1C123.7,357.6,123.4,358.7,123.4,360.1z"/>
	<path class="st0" d="M142.7,365.5h-1.4l-5.9-9h-0.1c0.1,1.1,0.1,2,0.1,2.9v6.1h-1.1v-10.7h1.4l5.8,9h0.1c0-0.1,0-0.6-0.1-1.3
		c0-0.7,0-1.2,0-1.5v-6.1h1.2V365.5z"/>
	<path class="st0" d="M156.3,357.9c0,1.1-0.4,1.9-1.1,2.5c-0.7,0.6-1.8,0.9-3.2,0.9h-1.3v4.2h-1.2v-10.7h2.8
		C155,354.8,156.3,355.8,156.3,357.9z M150.8,360.2h1.1c1.1,0,1.9-0.2,2.4-0.5s0.7-0.9,0.7-1.7c0-0.7-0.2-1.2-0.7-1.6
		s-1.2-0.5-2.2-0.5h-1.4V360.2z"/>
	<path class="st0" d="M159.8,361.1v4.5h-1.2v-10.7h2.9c1.3,0,2.3,0.3,2.9,0.8s0.9,1.3,0.9,2.3c0,1.4-0.7,2.4-2.2,2.9l2.9,4.8h-1.5
		l-2.6-4.5H159.8z M159.8,360h1.7c0.9,0,1.5-0.2,1.9-0.5c0.4-0.3,0.6-0.9,0.6-1.6c0-0.7-0.2-1.2-0.6-1.5c-0.4-0.3-1.1-0.5-2-0.5
		h-1.6V360z"/>
	<path class="st0" d="M177.2,360.1c0,1.7-0.4,3.1-1.3,4c-0.9,1-2.1,1.5-3.6,1.5c-1.6,0-2.8-0.5-3.7-1.4c-0.9-1-1.3-2.3-1.3-4.1
		c0-1.7,0.4-3.1,1.3-4.1c0.9-1,2.1-1.4,3.7-1.4c1.5,0,2.7,0.5,3.6,1.5C176.7,357.1,177.2,358.4,177.2,360.1z M168.6,360.1
		c0,1.5,0.3,2.6,0.9,3.3c0.6,0.8,1.5,1.1,2.7,1.1c1.2,0,2.1-0.4,2.7-1.1s0.9-1.8,0.9-3.3c0-1.4-0.3-2.5-0.9-3.3
		c-0.6-0.7-1.5-1.1-2.7-1.1c-1.2,0-2.1,0.4-2.7,1.1C168.9,357.6,168.6,358.7,168.6,360.1z"/>
	<path class="st0" d="M179.5,354.8h3c1.4,0,2.4,0.2,3.1,0.6c0.6,0.4,1,1.1,1,2c0,0.6-0.2,1.2-0.5,1.6c-0.4,0.4-0.9,0.7-1.5,0.8v0.1
		c1.6,0.3,2.4,1.1,2.4,2.6c0,1-0.3,1.7-1,2.2s-1.6,0.8-2.7,0.8h-3.7V354.8z M180.8,359.4h2.1c0.9,0,1.5-0.1,1.9-0.4
		c0.4-0.3,0.6-0.7,0.6-1.4c0-0.6-0.2-1-0.6-1.3c-0.4-0.3-1.1-0.4-2.1-0.4h-1.8V359.4z M180.8,360.4v4h2.2c0.9,0,1.5-0.2,2-0.5
		c0.4-0.3,0.7-0.9,0.7-1.6c0-0.7-0.2-1.2-0.7-1.5c-0.4-0.3-1.1-0.5-2-0.5H180.8z"/>
	<path class="st0" d="M189.3,365.5v-10.7h1.2v9.6h4.7v1.1H189.3z"/>
	<path class="st0" d="M203,365.5h-6v-10.7h6v1.1h-4.7v3.4h4.4v1.1h-4.4v3.9h4.7V365.5z"/>
	<path class="st0" d="M210.1,365.5l-3.6-9.5h-0.1c0.1,0.8,0.1,1.6,0.1,2.7v6.8h-1.1v-10.7h1.9l3.4,8.8h0.1l3.4-8.8h1.9v10.7h-1.2
		v-6.9c0-0.8,0-1.7,0.1-2.6h-0.1l-3.7,9.5H210.1z"/>
	<path class="st0" d="M225.7,365.5l-1.3-3.4H220l-1.3,3.4h-1.3l4.2-10.8h1l4.2,10.8H225.7z M223.9,361l-1.2-3.3
		c-0.2-0.4-0.3-0.9-0.5-1.5c-0.1,0.5-0.3,1-0.5,1.5l-1.3,3.3H223.9z"/>
</g>
<g>
	<path class="st0" d="M254.1,352.1c1.3,0,2.3,0.3,3.1,0.9c0.8,0.6,1.2,1.4,1.2,2.3c0,0.7-0.2,1.3-0.6,1.8c-0.4,0.5-1,1-1.8,1.4
		c1,0.5,1.7,1.1,2.1,1.7c0.4,0.6,0.6,1.2,0.6,1.9c0,1.1-0.4,2-1.3,2.6c-0.9,0.7-2,1-3.4,1c-1.5,0-2.6-0.3-3.4-0.9
		c-0.8-0.6-1.2-1.5-1.2-2.6c0-0.8,0.2-1.4,0.6-2c0.4-0.6,1-1.1,1.9-1.6c-0.8-0.5-1.3-1-1.6-1.5s-0.5-1.1-0.5-1.8
		c0-1,0.4-1.7,1.2-2.3C251.8,352.4,252.9,352.1,254.1,352.1z M252.1,362c0,0.5,0.2,0.9,0.5,1.2c0.4,0.3,0.9,0.4,1.5,0.4
		c0.7,0,1.2-0.2,1.6-0.4c0.3-0.3,0.5-0.7,0.5-1.2c0-0.4-0.2-0.8-0.5-1.1c-0.3-0.4-0.9-0.7-1.7-1.1
		C252.7,360.3,252.1,361.1,252.1,362z M254.1,354.1c-0.5,0-0.9,0.1-1.2,0.4c-0.3,0.2-0.4,0.6-0.4,1c0,0.4,0.1,0.7,0.3,1
		c0.2,0.3,0.7,0.6,1.3,0.9c0.6-0.3,1-0.6,1.2-0.9c0.2-0.3,0.4-0.6,0.4-1c0-0.4-0.2-0.7-0.5-1C255,354.2,254.6,354.1,254.1,354.1z"/>
	<path class="st0" d="M267.1,365.5h-2.8v-7.7l0-1.3l0-1.4c-0.5,0.5-0.8,0.8-1,0.9l-1.5,1.2l-1.4-1.7l4.3-3.4h2.3V365.5z"/>
	<path class="st0" d="M248.8,367.4v-0.9H270v0.9H248.8z"/>
</g>
<rect x="0.6" y="332.5" class="st3" width="78.9" height="8.5"/>
<g class="st11">
	<path class="st0" d="M41.7,304.3c0,0.9-0.3,1.7-1,2.2s-1.6,0.8-2.8,0.8c-1.3,0-2.2-0.2-2.9-0.5v-1.2c0.4,0.2,0.9,0.3,1.4,0.4
		s1,0.2,1.5,0.2c0.8,0,1.5-0.2,1.9-0.5c0.4-0.3,0.6-0.8,0.6-1.3c0-0.4-0.1-0.7-0.2-0.9c-0.1-0.2-0.4-0.5-0.7-0.7s-0.9-0.4-1.6-0.7
		c-1-0.4-1.7-0.8-2.1-1.3c-0.4-0.5-0.6-1.1-0.6-1.9c0-0.8,0.3-1.5,0.9-2s1.4-0.7,2.5-0.7c1.1,0,2,0.2,2.9,0.6l-0.4,1.1
		c-0.9-0.4-1.7-0.6-2.6-0.6c-0.7,0-1.2,0.1-1.5,0.4c-0.4,0.3-0.6,0.7-0.6,1.2c0,0.4,0.1,0.7,0.2,0.9c0.1,0.2,0.4,0.5,0.7,0.7
		c0.3,0.2,0.8,0.4,1.5,0.7c1.1,0.4,1.9,0.8,2.3,1.3C41.5,303,41.7,303.6,41.7,304.3z"/>
	<path class="st0" d="M43.9,307.2v-10.7h1.2v10.7H43.9z"/>
	<path class="st0" d="M56.5,307.2h-1.4l-5.9-9h-0.1c0.1,1.1,0.1,2,0.1,2.9v6.1h-1.1v-10.7h1.4l5.8,9h0.1c0-0.1,0-0.6-0.1-1.3
		c0-0.7,0-1.2,0-1.5v-6.1h1.2V307.2z"/>
	<path class="st0" d="M64.6,302.7v4.5h-1.2v-10.7h2.9c1.3,0,2.3,0.3,2.9,0.8s0.9,1.3,0.9,2.3c0,1.4-0.7,2.4-2.2,2.9l2.9,4.8h-1.5
		l-2.6-4.5H64.6z M64.6,301.7h1.7c0.9,0,1.5-0.2,1.9-0.5c0.4-0.3,0.6-0.9,0.6-1.6c0-0.7-0.2-1.2-0.6-1.5c-0.4-0.3-1.1-0.5-2-0.5
		h-1.6V301.7z"/>
	<path class="st0" d="M78.6,307.2h-6v-10.7h6v1.1h-4.7v3.4h4.4v1.1h-4.4v3.9h4.7V307.2z"/>
	<path class="st0" d="M87,304.3c0,0.9-0.3,1.7-1,2.2s-1.6,0.8-2.8,0.8c-1.3,0-2.2-0.2-2.9-0.5v-1.2c0.4,0.2,0.9,0.3,1.4,0.4
		s1,0.2,1.5,0.2c0.8,0,1.5-0.2,1.9-0.5c0.4-0.3,0.6-0.8,0.6-1.3c0-0.4-0.1-0.7-0.2-0.9c-0.1-0.2-0.4-0.5-0.7-0.7s-0.9-0.4-1.6-0.7
		c-1-0.4-1.7-0.8-2.1-1.3c-0.4-0.5-0.6-1.1-0.6-1.9c0-0.8,0.3-1.5,0.9-2s1.4-0.7,2.5-0.7c1.1,0,2,0.2,2.9,0.6l-0.4,1.1
		c-0.9-0.4-1.7-0.6-2.6-0.6c-0.7,0-1.2,0.1-1.5,0.4c-0.4,0.3-0.6,0.7-0.6,1.2c0,0.4,0.1,0.7,0.2,0.9c0.1,0.2,0.4,0.5,0.7,0.7
		c0.3,0.2,0.8,0.4,1.5,0.7c1.1,0.4,1.9,0.8,2.3,1.3C86.8,303,87,303.6,87,304.3z"/>
	<path class="st0" d="M96,299.6c0,1.1-0.4,1.9-1.1,2.5c-0.7,0.6-1.8,0.9-3.2,0.9h-1.3v4.2h-1.2v-10.7h2.8
		C94.6,296.5,96,297.5,96,299.6z M90.4,301.9h1.1c1.1,0,1.9-0.2,2.4-0.5s0.7-0.9,0.7-1.7c0-0.7-0.2-1.2-0.7-1.6s-1.2-0.5-2.2-0.5
		h-1.4V301.9z"/>
	<path class="st0" d="M106.3,296.5v6.9c0,1.2-0.4,2.2-1.1,2.9s-1.8,1-3,1s-2.3-0.4-3-1.1c-0.7-0.7-1.1-1.7-1.1-2.9v-6.9h1.2v7
		c0,0.9,0.2,1.6,0.7,2.1s1.2,0.7,2.2,0.7c0.9,0,1.6-0.2,2.1-0.7c0.5-0.5,0.7-1.2,0.7-2.1v-7H106.3z"/>
	<path class="st0" d="M115.1,307.2h-6v-10.7h6v1.1h-4.7v3.4h4.4v1.1h-4.4v3.9h4.7V307.2z"/>
	<path class="st0" d="M123.5,304.3c0,0.9-0.3,1.7-1,2.2s-1.6,0.8-2.8,0.8c-1.3,0-2.2-0.2-2.9-0.5v-1.2c0.4,0.2,0.9,0.3,1.4,0.4
		s1,0.2,1.5,0.2c0.8,0,1.5-0.2,1.9-0.5c0.4-0.3,0.6-0.8,0.6-1.3c0-0.4-0.1-0.7-0.2-0.9c-0.1-0.2-0.4-0.5-0.7-0.7s-0.9-0.4-1.6-0.7
		c-1-0.4-1.7-0.8-2.1-1.3c-0.4-0.5-0.6-1.1-0.6-1.9c0-0.8,0.3-1.5,0.9-2s1.4-0.7,2.5-0.7c1.1,0,2,0.2,2.9,0.6l-0.4,1.1
		c-0.9-0.4-1.7-0.6-2.6-0.6c-0.7,0-1.2,0.1-1.5,0.4c-0.4,0.3-0.6,0.7-0.6,1.2c0,0.4,0.1,0.7,0.2,0.9c0.1,0.2,0.4,0.5,0.7,0.7
		c0.3,0.2,0.8,0.4,1.5,0.7c1.1,0.4,1.9,0.8,2.3,1.3C123.3,303,123.5,303.6,123.5,304.3z"/>
	<path class="st0" d="M129,307.2h-1.2v-9.6h-3.4v-1.1h8v1.1H129V307.2z"/>
	<path class="st0" d="M140.7,307.2l-1.3-3.4h-4.3l-1.3,3.4h-1.3l4.2-10.8h1l4.2,10.8H140.7z M139,302.7l-1.2-3.3
		c-0.2-0.4-0.3-0.9-0.5-1.5c-0.1,0.5-0.3,1-0.5,1.5l-1.3,3.3H139z"/>
</g>
<g>
	<path class="st0" d="M168.7,307.2h-9.3v-2l3.3-3.4c1-1,1.6-1.7,1.9-2.1s0.5-0.8,0.7-1.1c0.1-0.3,0.2-0.7,0.2-1
		c0-0.5-0.1-0.9-0.4-1.2c-0.3-0.3-0.7-0.4-1.2-0.4c-0.5,0-1,0.1-1.5,0.4s-1,0.6-1.5,1l-1.5-1.8c0.7-0.6,1.2-1,1.6-1.2
		c0.4-0.2,0.9-0.4,1.4-0.5c0.5-0.1,1.1-0.2,1.7-0.2c0.8,0,1.6,0.2,2.2,0.5s1.1,0.7,1.5,1.3s0.5,1.2,0.5,1.9c0,0.6-0.1,1.2-0.3,1.7
		c-0.2,0.5-0.5,1.1-1,1.6c-0.5,0.6-1.2,1.4-2.4,2.4l-1.7,1.6v0.1h5.8V307.2z"/>
	<path class="st0" d="M179.6,304.4H178v2.8h-2.7v-2.8h-5.7v-2l5.8-8.6h2.6v8.3h1.6V304.4z M175.2,302.3V300c0-0.4,0-0.9,0-1.6
		c0-0.7,0.1-1.1,0.1-1.2h-0.1c-0.2,0.5-0.5,1-0.8,1.5l-2.4,3.7H175.2z"/>
	<path class="st0" d="M185.2,293.7c1.3,0,2.3,0.3,3.1,0.9c0.8,0.6,1.2,1.4,1.2,2.3c0,0.7-0.2,1.3-0.6,1.8c-0.4,0.5-1,1-1.8,1.4
		c1,0.5,1.7,1.1,2.1,1.7c0.4,0.6,0.6,1.2,0.6,1.9c0,1.1-0.4,2-1.3,2.6c-0.9,0.7-2,1-3.4,1c-1.5,0-2.6-0.3-3.4-0.9
		c-0.8-0.6-1.2-1.5-1.2-2.6c0-0.8,0.2-1.4,0.6-2c0.4-0.6,1-1.1,1.9-1.6c-0.8-0.5-1.3-1-1.6-1.5s-0.5-1.1-0.5-1.8
		c0-1,0.4-1.7,1.2-2.3C182.9,294,183.9,293.7,185.2,293.7z M183.1,303.7c0,0.5,0.2,0.9,0.5,1.2c0.4,0.3,0.9,0.4,1.5,0.4
		c0.7,0,1.2-0.2,1.6-0.4c0.3-0.3,0.5-0.7,0.5-1.2c0-0.4-0.2-0.8-0.5-1.1c-0.3-0.4-0.9-0.7-1.7-1.1
		C183.8,302,183.1,302.8,183.1,303.7z M185.2,295.8c-0.5,0-0.9,0.1-1.2,0.4c-0.3,0.2-0.4,0.6-0.4,1c0,0.4,0.1,0.7,0.3,1
		c0.2,0.3,0.7,0.6,1.3,0.9c0.6-0.3,1-0.6,1.2-0.9c0.2-0.3,0.4-0.6,0.4-1c0-0.4-0.2-0.7-0.5-1C186,295.9,185.6,295.8,185.2,295.8z"/>
	<path class="st0" d="M158.6,309.1v-0.9h31.9v0.9H158.6z"/>
</g>
<rect x="0.6" y="275" class="st2" width="77.8" height="8.5"/>
<g class="st11">
	<path class="st0" d="M41.7,709.5c0,0.9-0.3,1.7-1,2.2s-1.6,0.8-2.8,0.8c-1.3,0-2.2-0.2-2.9-0.5v-1.2c0.4,0.2,0.9,0.3,1.4,0.4
		s1,0.2,1.5,0.2c0.8,0,1.5-0.2,1.9-0.5c0.4-0.3,0.6-0.8,0.6-1.3c0-0.4-0.1-0.7-0.2-0.9c-0.1-0.2-0.4-0.5-0.7-0.7s-0.9-0.4-1.6-0.7
		c-1-0.4-1.7-0.8-2.1-1.3c-0.4-0.5-0.6-1.1-0.6-1.9c0-0.8,0.3-1.5,0.9-2s1.4-0.7,2.5-0.7c1.1,0,2,0.2,2.9,0.6l-0.4,1.1
		c-0.9-0.4-1.7-0.6-2.6-0.6c-0.7,0-1.2,0.1-1.5,0.4c-0.4,0.3-0.6,0.7-0.6,1.2c0,0.4,0.1,0.7,0.2,0.9c0.1,0.2,0.4,0.5,0.7,0.7
		c0.3,0.2,0.8,0.4,1.5,0.7c1.1,0.4,1.9,0.8,2.3,1.3C41.5,708.2,41.7,708.8,41.7,709.5z"/>
	<path class="st0" d="M43.9,712.4v-10.7h1.2v10.7H43.9z"/>
	<path class="st0" d="M56.5,712.4h-1.4l-5.9-9h-0.1c0.1,1.1,0.1,2,0.1,2.9v6.1h-1.1v-10.7h1.4l5.8,9h0.1c0-0.1,0-0.6-0.1-1.3
		c0-0.7,0-1.2,0-1.5v-6.1h1.2V712.4z"/>
	<path class="st0" d="M69.3,712.4h-6v-10.7h6v1.1h-4.7v3.4H69v1.1h-4.4v3.9h4.7V712.4z"/>
	<path class="st0" d="M70.8,708.9v-1.1h3.6v1.1H70.8z"/>
	<path class="st0" d="M82.5,709.5c0,0.9-0.3,1.7-1,2.2s-1.6,0.8-2.8,0.8c-1.3,0-2.2-0.2-2.9-0.5v-1.2c0.4,0.2,0.9,0.3,1.4,0.4
		s1,0.2,1.5,0.2c0.8,0,1.5-0.2,1.9-0.5c0.4-0.3,0.6-0.8,0.6-1.3c0-0.4-0.1-0.7-0.2-0.9c-0.1-0.2-0.4-0.5-0.7-0.7s-0.9-0.4-1.6-0.7
		c-1-0.4-1.7-0.8-2.1-1.3c-0.4-0.5-0.6-1.1-0.6-1.9c0-0.8,0.3-1.5,0.9-2s1.4-0.7,2.5-0.7c1.1,0,2,0.2,2.9,0.6l-0.4,1.1
		c-0.9-0.4-1.7-0.6-2.6-0.6c-0.7,0-1.2,0.1-1.5,0.4c-0.4,0.3-0.6,0.7-0.6,1.2c0,0.4,0.1,0.7,0.2,0.9c0.1,0.2,0.4,0.5,0.7,0.7
		c0.3,0.2,0.8,0.4,1.5,0.7c1.1,0.4,1.9,0.8,2.3,1.3C82.3,708.2,82.5,708.8,82.5,709.5z"/>
	<path class="st0" d="M84.7,712.4v-10.7H86v10.7H84.7z"/>
	<path class="st0" d="M93.5,702.6c-1.2,0-2.1,0.4-2.8,1.2c-0.7,0.8-1,1.9-1,3.2c0,1.4,0.3,2.5,1,3.2c0.7,0.8,1.6,1.1,2.8,1.1
		c0.7,0,1.6-0.1,2.6-0.4v1.1c-0.7,0.3-1.7,0.4-2.7,0.4c-1.6,0-2.8-0.5-3.7-1.4c-0.9-1-1.3-2.3-1.3-4.1c0-1.1,0.2-2.1,0.6-2.9
		c0.4-0.8,1-1.5,1.8-1.9s1.7-0.7,2.8-0.7c1.1,0,2.1,0.2,2.9,0.6l-0.5,1.1C95.1,702.8,94.3,702.6,93.5,702.6z"/>
</g>
<g>
	<path class="st0" d="M118.8,712.4H116v-7.7l0-1.3l0-1.4c-0.5,0.5-0.8,0.8-1,0.9l-1.5,1.2l-1.4-1.7l4.3-3.4h2.3V712.4z"/>
	<path class="st0" d="M127.3,703.9c1.3,0,2.3,0.4,3.1,1.1c0.8,0.7,1.1,1.7,1.1,3c0,1.5-0.5,2.6-1.4,3.4c-0.9,0.8-2.2,1.2-3.9,1.2
		c-1.5,0-2.7-0.2-3.6-0.7v-2.4c0.5,0.3,1,0.5,1.7,0.6c0.6,0.2,1.2,0.2,1.8,0.2c1.7,0,2.6-0.7,2.6-2.1c0-1.3-0.9-2-2.7-2
		c-0.3,0-0.7,0-1.1,0.1c-0.4,0.1-0.7,0.1-0.9,0.2l-1.1-0.6l0.5-6.8h7.2v2.4h-4.7l-0.2,2.6l0.3-0.1
		C126.3,703.9,126.8,703.9,127.3,703.9z"/>
	<path class="st0" d="M111.1,714.2v-0.9h21.2v0.9H111.1z"/>
</g>
<rect x="0.6" y="680.9" class="st7" width="77.8" height="7"/>
<g class="st11">
	<path class="st0" d="M37,475.8v4.5h-1.2v-10.7h2.9c1.3,0,2.3,0.3,2.9,0.8s0.9,1.3,0.9,2.3c0,1.4-0.7,2.4-2.2,2.9l2.9,4.8h-1.5
		l-2.6-4.5H37z M37,474.7h1.7c0.9,0,1.5-0.2,1.9-0.5c0.4-0.3,0.6-0.9,0.6-1.6c0-0.7-0.2-1.2-0.6-1.5c-0.4-0.3-1.1-0.5-2-0.5H37
		V474.7z"/>
	<path class="st0" d="M50.9,480.2h-6v-10.7h6v1.1h-4.7v3.4h4.4v1.1h-4.4v3.9h4.7V480.2z"/>
	<path class="st0" d="M59.4,477.4c0,0.9-0.3,1.7-1,2.2s-1.6,0.8-2.8,0.8c-1.3,0-2.2-0.2-2.9-0.5v-1.2c0.4,0.2,0.9,0.3,1.4,0.4
		s1,0.2,1.5,0.2c0.8,0,1.5-0.2,1.9-0.5c0.4-0.3,0.6-0.8,0.6-1.3c0-0.4-0.1-0.7-0.2-0.9c-0.1-0.2-0.4-0.5-0.7-0.7s-0.9-0.4-1.6-0.7
		c-1-0.4-1.7-0.8-2.1-1.3c-0.4-0.5-0.6-1.1-0.6-1.9c0-0.8,0.3-1.5,0.9-2s1.4-0.7,2.5-0.7c1.1,0,2,0.2,2.9,0.6l-0.4,1.1
		c-0.9-0.4-1.7-0.6-2.6-0.6c-0.7,0-1.2,0.1-1.5,0.4c-0.4,0.3-0.6,0.7-0.6,1.2c0,0.4,0.1,0.7,0.2,0.9c0.1,0.2,0.4,0.5,0.7,0.7
		c0.3,0.2,0.8,0.4,1.5,0.7c1.1,0.4,1.9,0.8,2.3,1.3C59.2,476.1,59.4,476.7,59.4,477.4z"/>
	<path class="st0" d="M68.3,472.7c0,1.1-0.4,1.9-1.1,2.5c-0.7,0.6-1.8,0.9-3.2,0.9h-1.3v4.2h-1.2v-10.7h2.8
		C67,469.5,68.3,470.6,68.3,472.7z M62.8,475h1.1c1.1,0,1.9-0.2,2.4-0.5s0.7-0.9,0.7-1.7c0-0.7-0.2-1.2-0.7-1.6s-1.2-0.5-2.2-0.5
		h-1.4V475z"/>
	<path class="st0" d="M78.7,469.5v6.9c0,1.2-0.4,2.2-1.1,2.9s-1.8,1-3,1s-2.3-0.4-3-1.1c-0.7-0.7-1.1-1.7-1.1-2.9v-6.9h1.2v7
		c0,0.9,0.2,1.6,0.7,2.1s1.2,0.7,2.2,0.7c0.9,0,1.6-0.2,2.1-0.7c0.5-0.5,0.7-1.2,0.7-2.1v-7H78.7z"/>
	<path class="st0" d="M87.5,480.2h-6v-10.7h6v1.1h-4.7v3.4h4.4v1.1h-4.4v3.9h4.7V480.2z"/>
	<path class="st0" d="M95.9,477.4c0,0.9-0.3,1.7-1,2.2s-1.6,0.8-2.8,0.8c-1.3,0-2.2-0.2-2.9-0.5v-1.2c0.4,0.2,0.9,0.3,1.4,0.4
		s1,0.2,1.5,0.2c0.8,0,1.5-0.2,1.9-0.5c0.4-0.3,0.6-0.8,0.6-1.3c0-0.4-0.1-0.7-0.2-0.9c-0.1-0.2-0.4-0.5-0.7-0.7s-0.9-0.4-1.6-0.7
		c-1-0.4-1.7-0.8-2.1-1.3c-0.4-0.5-0.6-1.1-0.6-1.9c0-0.8,0.3-1.5,0.9-2s1.4-0.7,2.5-0.7c1.1,0,2,0.2,2.9,0.6l-0.4,1.1
		c-0.9-0.4-1.7-0.6-2.6-0.6c-0.7,0-1.2,0.1-1.5,0.4c-0.4,0.3-0.6,0.7-0.6,1.2c0,0.4,0.1,0.7,0.2,0.9c0.1,0.2,0.4,0.5,0.7,0.7
		c0.3,0.2,0.8,0.4,1.5,0.7c1.1,0.4,1.9,0.8,2.3,1.3C95.7,476.1,95.9,476.7,95.9,477.4z"/>
	<path class="st0" d="M101.4,480.2h-1.2v-9.6h-3.4v-1.1h8v1.1h-3.4V480.2z"/>
	<path class="st0" d="M113.1,480.2l-1.3-3.4h-4.3l-1.3,3.4h-1.3l4.2-10.8h1l4.2,10.8H113.1z M111.4,475.7l-1.2-3.3
		c-0.2-0.4-0.3-0.9-0.5-1.5c-0.1,0.5-0.3,1-0.5,1.5l-1.3,3.3H111.4z"/>
	<path class="st0" d="M119.8,480.2v-10.7h1.2v10.7H119.8z"/>
	<path class="st0" d="M132.3,480.2h-1.4l-5.9-9H125c0.1,1.1,0.1,2,0.1,2.9v6.1h-1.1v-10.7h1.4l5.8,9h0.1c0-0.1,0-0.6-0.1-1.3
		c0-0.7,0-1.2,0-1.5v-6.1h1.2V480.2z"/>
	<path class="st0" d="M141.3,477.4c0,0.9-0.3,1.7-1,2.2s-1.6,0.8-2.8,0.8c-1.3,0-2.2-0.2-2.9-0.5v-1.2c0.4,0.2,0.9,0.3,1.4,0.4
		s1,0.2,1.5,0.2c0.8,0,1.5-0.2,1.9-0.5c0.4-0.3,0.6-0.8,0.6-1.3c0-0.4-0.1-0.7-0.2-0.9c-0.1-0.2-0.4-0.5-0.7-0.7s-0.9-0.4-1.6-0.7
		c-1-0.4-1.7-0.8-2.1-1.3c-0.4-0.5-0.6-1.1-0.6-1.9c0-0.8,0.3-1.5,0.9-2s1.4-0.7,2.5-0.7c1.1,0,2,0.2,2.9,0.6l-0.4,1.1
		c-0.9-0.4-1.7-0.6-2.6-0.6c-0.7,0-1.2,0.1-1.5,0.4c-0.4,0.3-0.6,0.7-0.6,1.2c0,0.4,0.1,0.7,0.2,0.9c0.1,0.2,0.4,0.5,0.7,0.7
		c0.3,0.2,0.8,0.4,1.5,0.7c1.1,0.4,1.9,0.8,2.3,1.3C141.1,476.1,141.3,476.7,141.3,477.4z"/>
	<path class="st0" d="M150.2,480.2l-1.3-3.4h-4.3l-1.3,3.4H142l4.2-10.8h1l4.2,10.8H150.2z M148.5,475.7l-1.2-3.3
		c-0.2-0.4-0.3-0.9-0.5-1.5c-0.1,0.5-0.3,1-0.5,1.5l-1.3,3.3H148.5z"/>
	<path class="st0" d="M156.3,480.2H155v-9.6h-3.4v-1.1h8v1.1h-3.4V480.2z"/>
	<path class="st0" d="M161.3,480.2v-10.7h1.2v10.7H161.3z"/>
	<path class="st0" d="M171.5,477.4c0,0.9-0.3,1.7-1,2.2s-1.6,0.8-2.8,0.8c-1.3,0-2.2-0.2-2.9-0.5v-1.2c0.4,0.2,0.9,0.3,1.4,0.4
		s1,0.2,1.5,0.2c0.8,0,1.5-0.2,1.9-0.5c0.4-0.3,0.6-0.8,0.6-1.3c0-0.4-0.1-0.7-0.2-0.9c-0.1-0.2-0.4-0.5-0.7-0.7s-0.9-0.4-1.6-0.7
		c-1-0.4-1.7-0.8-2.1-1.3c-0.4-0.5-0.6-1.1-0.6-1.9c0-0.8,0.3-1.5,0.9-2s1.4-0.7,2.5-0.7c1.1,0,2,0.2,2.9,0.6l-0.4,1.1
		c-0.9-0.4-1.7-0.6-2.6-0.6c-0.7,0-1.2,0.1-1.5,0.4c-0.4,0.3-0.6,0.7-0.6,1.2c0,0.4,0.1,0.7,0.2,0.9c0.1,0.2,0.4,0.5,0.7,0.7
		c0.3,0.2,0.8,0.4,1.5,0.7c1.1,0.4,1.9,0.8,2.3,1.3C171.3,476.1,171.5,476.7,171.5,477.4z"/>
	<path class="st0" d="M174.9,480.2h-1.2v-10.7h6v1.1h-4.7v3.9h4.4v1.1h-4.4V480.2z"/>
	<path class="st0" d="M188.2,480.2l-1.3-3.4h-4.3l-1.3,3.4H180l4.2-10.8h1l4.2,10.8H188.2z M186.4,475.7l-1.2-3.3
		c-0.2-0.4-0.3-0.9-0.5-1.5c-0.1,0.5-0.3,1-0.5,1.5l-1.3,3.3H186.4z"/>
	<path class="st0" d="M195.5,470.5c-1.2,0-2.1,0.4-2.8,1.2c-0.7,0.8-1,1.9-1,3.2c0,1.4,0.3,2.5,1,3.2c0.7,0.8,1.6,1.1,2.8,1.1
		c0.7,0,1.6-0.1,2.6-0.4v1.1c-0.7,0.3-1.7,0.4-2.7,0.4c-1.6,0-2.8-0.5-3.7-1.4c-0.9-1-1.3-2.3-1.3-4.1c0-1.1,0.2-2.1,0.6-2.9
		c0.4-0.8,1-1.5,1.8-1.9s1.7-0.7,2.8-0.7c1.1,0,2.1,0.2,2.9,0.6l-0.5,1.1C197.1,470.7,196.3,470.5,195.5,470.5z"/>
	<path class="st0" d="M203.7,480.2h-1.2v-9.6h-3.4v-1.1h8v1.1h-3.4V480.2z"/>
	<path class="st0" d="M218,474.9c0,1.7-0.4,3.1-1.3,4c-0.9,1-2.1,1.5-3.6,1.5c-1.6,0-2.8-0.5-3.7-1.4c-0.9-1-1.3-2.3-1.3-4.1
		c0-1.7,0.4-3.1,1.3-4.1c0.9-1,2.1-1.4,3.7-1.4c1.5,0,2.7,0.5,3.6,1.5C217.6,471.8,218,473.2,218,474.9z M209.5,474.9
		c0,1.5,0.3,2.6,0.9,3.3c0.6,0.8,1.5,1.1,2.7,1.1c1.2,0,2.1-0.4,2.7-1.1s0.9-1.8,0.9-3.3c0-1.4-0.3-2.5-0.9-3.3
		c-0.6-0.7-1.5-1.1-2.7-1.1c-1.2,0-2.1,0.4-2.7,1.1C209.8,472.4,209.5,473.4,209.5,474.9z M212,468.5c0.2-0.3,0.5-0.7,0.8-1.1
		c0.3-0.4,0.5-0.8,0.6-1.1h1.5v0.2c-0.2,0.3-0.5,0.7-1,1.2s-0.8,0.8-1.1,1.1H212V468.5z"/>
	<path class="st0" d="M221.6,475.8v4.5h-1.2v-10.7h2.9c1.3,0,2.3,0.3,2.9,0.8s0.9,1.3,0.9,2.3c0,1.4-0.7,2.4-2.2,2.9l2.9,4.8h-1.5
		l-2.6-4.5H221.6z M221.6,474.7h1.7c0.9,0,1.5-0.2,1.9-0.5c0.4-0.3,0.6-0.9,0.6-1.6c0-0.7-0.2-1.2-0.6-1.5c-0.4-0.3-1.1-0.5-2-0.5
		h-1.6V474.7z"/>
	<path class="st0" d="M229.6,480.2v-10.7h1.2v10.7H229.6z"/>
	<path class="st0" d="M240.6,480.2l-1.3-3.4h-4.3l-1.3,3.4h-1.3l4.2-10.8h1l4.2,10.8H240.6z M238.8,475.7l-1.2-3.3
		c-0.2-0.4-0.3-0.9-0.5-1.5c-0.1,0.5-0.3,1-0.5,1.5l-1.3,3.3H238.8z"/>
</g>
<g>
	<path class="st0" d="M267.5,480.2l5-10.9h-6.5V467h9.5v1.8l-5,11.5H267.5z"/>
	<path class="st0" d="M285.6,469.9c0,0.8-0.3,1.5-0.8,2.1c-0.5,0.6-1.2,1-2.1,1.2v0.1c1.1,0.1,1.9,0.5,2.4,1
		c0.6,0.5,0.8,1.2,0.8,2.1c0,1.3-0.5,2.3-1.4,3c-0.9,0.7-2.2,1.1-4,1.1c-1.4,0-2.7-0.2-3.8-0.7v-2.4c0.5,0.3,1.1,0.5,1.7,0.6
		c0.6,0.2,1.2,0.2,1.8,0.2c0.9,0,1.6-0.2,2.1-0.5s0.7-0.8,0.7-1.5c0-0.6-0.3-1.1-0.8-1.3c-0.5-0.3-1.3-0.4-2.4-0.4h-1v-2.2h1
		c1,0,1.8-0.1,2.3-0.4c0.5-0.3,0.7-0.7,0.7-1.4c0-1-0.6-1.5-1.9-1.5c-0.4,0-0.9,0.1-1.3,0.2c-0.5,0.1-1,0.4-1.5,0.8l-1.3-1.9
		c1.2-0.9,2.7-1.3,4.3-1.3c1.4,0,2.5,0.3,3.3,0.8C285.2,468.2,285.6,468.9,285.6,469.9z"/>
	<path class="st0" d="M265.4,482.1v-0.9h21.2v0.9H265.4z"/>
</g>
<rect x="0.6" y="449.6" class="st5" width="77.8" height="8.5"/>
<g class="st11">
	<path class="st0" d="M37,417.5v4.5h-1.2v-10.7h2.9c1.3,0,2.3,0.3,2.9,0.8s0.9,1.3,0.9,2.3c0,1.4-0.7,2.4-2.2,2.9l2.9,4.8h-1.5
		l-2.6-4.5H37z M37,416.4h1.7c0.9,0,1.5-0.2,1.9-0.5c0.4-0.3,0.6-0.9,0.6-1.6c0-0.7-0.2-1.2-0.6-1.5c-0.4-0.3-1.1-0.5-2-0.5H37
		V416.4z"/>
	<path class="st0" d="M50.9,421.9h-6v-10.7h6v1.1h-4.7v3.4h4.4v1.1h-4.4v3.9h4.7V421.9z"/>
	<path class="st0" d="M59.4,419.1c0,0.9-0.3,1.7-1,2.2s-1.6,0.8-2.8,0.8c-1.3,0-2.2-0.2-2.9-0.5v-1.2c0.4,0.2,0.9,0.3,1.4,0.4
		s1,0.2,1.5,0.2c0.8,0,1.5-0.2,1.9-0.5c0.4-0.3,0.6-0.8,0.6-1.3c0-0.4-0.1-0.7-0.2-0.9c-0.1-0.2-0.4-0.5-0.7-0.7s-0.9-0.4-1.6-0.7
		c-1-0.4-1.7-0.8-2.1-1.3c-0.4-0.5-0.6-1.1-0.6-1.9c0-0.8,0.3-1.5,0.9-2s1.4-0.7,2.5-0.7c1.1,0,2,0.2,2.9,0.6l-0.4,1.1
		c-0.9-0.4-1.7-0.6-2.6-0.6c-0.7,0-1.2,0.1-1.5,0.4c-0.4,0.3-0.6,0.7-0.6,1.2c0,0.4,0.1,0.7,0.2,0.9c0.1,0.2,0.4,0.5,0.7,0.7
		c0.3,0.2,0.8,0.4,1.5,0.7c1.1,0.4,1.9,0.8,2.3,1.3C59.2,417.8,59.4,418.3,59.4,419.1z"/>
	<path class="st0" d="M68.3,414.3c0,1.1-0.4,1.9-1.1,2.5c-0.7,0.6-1.8,0.9-3.2,0.9h-1.3v4.2h-1.2v-10.7h2.8
		C67,411.2,68.3,412.3,68.3,414.3z M62.8,416.6h1.1c1.1,0,1.9-0.2,2.4-0.5s0.7-0.9,0.7-1.7c0-0.7-0.2-1.2-0.7-1.6s-1.2-0.5-2.2-0.5
		h-1.4V416.6z"/>
	<path class="st0" d="M79.9,416.6c0,1.7-0.4,3.1-1.3,4c-0.9,1-2.1,1.5-3.6,1.5c-1.6,0-2.8-0.5-3.7-1.4c-0.9-1-1.3-2.3-1.3-4.1
		c0-1.7,0.4-3.1,1.3-4.1c0.9-1,2.1-1.4,3.7-1.4c1.5,0,2.7,0.5,3.6,1.5C79.4,413.5,79.9,414.8,79.9,416.6z M71.3,416.6
		c0,1.5,0.3,2.6,0.9,3.3c0.6,0.8,1.5,1.1,2.7,1.1c1.2,0,2.1-0.4,2.7-1.1s0.9-1.8,0.9-3.3c0-1.4-0.3-2.5-0.9-3.3
		c-0.6-0.7-1.5-1.1-2.7-1.1c-1.2,0-2.1,0.4-2.7,1.1C71.7,414,71.3,415.1,71.3,416.6z"/>
	<path class="st0" d="M90.6,421.9h-1.4l-5.9-9h-0.1c0.1,1.1,0.1,2,0.1,2.9v6.1h-1.1v-10.7h1.4l5.8,9h0.1c0-0.1,0-0.6-0.1-1.3
		c0-0.7,0-1.2,0-1.5v-6.1h1.2V421.9z"/>
	<path class="st0" d="M102.1,416.5c0,1.8-0.5,3.1-1.4,4.1c-1,0.9-2.3,1.4-4.1,1.4h-3v-10.7h3.3c1.7,0,3,0.5,3.9,1.4
		C101.7,413.5,102.1,414.8,102.1,416.5z M100.8,416.5c0-1.4-0.4-2.4-1.1-3.2c-0.7-0.7-1.7-1.1-3.1-1.1h-1.8v8.6h1.5
		c1.5,0,2.6-0.4,3.3-1.1C100.4,419,100.8,417.9,100.8,416.5z"/>
	<path class="st0" d="M104.5,421.9v-10.7h1.2v10.7H104.5z"/>
	<path class="st0" d="M117.2,416.5c0,1.8-0.5,3.1-1.4,4.1c-1,0.9-2.3,1.4-4.1,1.4h-3v-10.7h3.3c1.7,0,3,0.5,3.9,1.4
		C116.8,413.5,117.2,414.8,117.2,416.5z M115.9,416.5c0-1.4-0.4-2.4-1.1-3.2c-0.7-0.7-1.7-1.1-3.1-1.1h-1.8v8.6h1.5
		c1.5,0,2.6-0.4,3.3-1.1C115.5,419,115.9,417.9,115.9,416.5z"/>
	<path class="st0" d="M128.9,416.6c0,1.7-0.4,3.1-1.3,4c-0.9,1-2.1,1.5-3.6,1.5c-1.6,0-2.8-0.5-3.7-1.4c-0.9-1-1.3-2.3-1.3-4.1
		c0-1.7,0.4-3.1,1.3-4.1c0.9-1,2.1-1.4,3.7-1.4c1.5,0,2.7,0.5,3.6,1.5C128.5,413.5,128.9,414.8,128.9,416.6z M120.4,416.6
		c0,1.5,0.3,2.6,0.9,3.3c0.6,0.8,1.5,1.1,2.7,1.1c1.2,0,2.1-0.4,2.7-1.1s0.9-1.8,0.9-3.3c0-1.4-0.3-2.5-0.9-3.3
		c-0.6-0.7-1.5-1.1-2.7-1.1c-1.2,0-2.1,0.4-2.7,1.1C120.7,414,120.4,415.1,120.4,416.6z"/>
</g>
<g>
	<path class="st0" d="M154.7,421.9h-9.3v-2l3.3-3.4c1-1,1.6-1.7,1.9-2.1s0.5-0.8,0.7-1.1c0.1-0.3,0.2-0.7,0.2-1
		c0-0.5-0.1-0.9-0.4-1.2c-0.3-0.3-0.7-0.4-1.2-0.4c-0.5,0-1,0.1-1.5,0.4s-1,0.6-1.5,1l-1.5-1.8c0.7-0.6,1.2-1,1.6-1.2
		c0.4-0.2,0.9-0.4,1.4-0.5c0.5-0.1,1.1-0.2,1.7-0.2c0.8,0,1.6,0.2,2.2,0.5s1.1,0.7,1.5,1.3s0.5,1.2,0.5,1.9c0,0.6-0.1,1.2-0.3,1.7
		c-0.2,0.5-0.5,1.1-1,1.6c-0.5,0.6-1.2,1.4-2.4,2.4l-1.7,1.6v0.1h5.8V421.9z"/>
	<path class="st0" d="M165.2,414.3c0,2.6-0.6,4.6-1.7,5.9c-1.1,1.3-2.8,1.9-5,1.9c-0.8,0-1.4,0-1.8-0.1v-2.3c0.5,0.1,1,0.2,1.6,0.2
		c0.9,0,1.7-0.1,2.3-0.4c0.6-0.3,1.1-0.7,1.4-1.3c0.3-0.6,0.5-1.4,0.6-2.4h-0.1c-0.4,0.6-0.8,1-1.2,1.2c-0.5,0.2-1,0.3-1.7,0.3
		c-1.2,0-2.1-0.4-2.7-1.1c-0.7-0.7-1-1.8-1-3.1c0-1.4,0.4-2.5,1.2-3.4c0.8-0.8,1.9-1.2,3.3-1.2c1,0,1.8,0.2,2.6,0.7s1.3,1.1,1.7,2
		S165.2,413.1,165.2,414.3z M160.4,410.7c-0.6,0-1,0.2-1.4,0.6c-0.3,0.4-0.5,1-0.5,1.7c0,0.6,0.1,1.2,0.4,1.5
		c0.3,0.4,0.7,0.6,1.4,0.6c0.6,0,1.1-0.2,1.5-0.6c0.4-0.4,0.6-0.8,0.6-1.3c0-0.7-0.2-1.3-0.6-1.8C161.5,411,161,410.7,160.4,410.7z"
		/>
	<path class="st0" d="M175.8,415.3c0,2.3-0.4,4-1.1,5.1s-1.9,1.7-3.5,1.7c-1.5,0-2.7-0.6-3.5-1.7c-0.8-1.2-1.2-2.8-1.2-5.1
		c0-2.3,0.4-4.1,1.1-5.2s1.9-1.7,3.5-1.7c1.5,0,2.7,0.6,3.5,1.7C175.4,411.3,175.8,413,175.8,415.3z M169.3,415.3
		c0,1.6,0.1,2.8,0.4,3.5c0.3,0.7,0.8,1.1,1.4,1.1c0.7,0,1.1-0.4,1.4-1.1s0.4-1.9,0.4-3.5c0-1.6-0.1-2.8-0.4-3.5
		c-0.3-0.7-0.8-1.1-1.4-1.1c-0.7,0-1.1,0.4-1.4,1.1C169.5,412.5,169.3,413.7,169.3,415.3z"/>
	<path class="st0" d="M144.6,423.8v-0.9h31.9v0.9H144.6z"/>
</g>
<rect x="0.6" y="392" class="st1" width="77.8" height="8.5"/>
<g class="st11">
	<path class="st0" d="M41.7,592.5c0,0.9-0.3,1.7-1,2.2s-1.6,0.8-2.8,0.8c-1.3,0-2.2-0.2-2.9-0.5v-1.2c0.4,0.2,0.9,0.3,1.4,0.4
		s1,0.2,1.5,0.2c0.8,0,1.5-0.2,1.9-0.5c0.4-0.3,0.6-0.8,0.6-1.3c0-0.4-0.1-0.7-0.2-0.9c-0.1-0.2-0.4-0.5-0.7-0.7s-0.9-0.4-1.6-0.7
		c-1-0.4-1.7-0.8-2.1-1.3c-0.4-0.5-0.6-1.1-0.6-1.9c0-0.8,0.3-1.5,0.9-2s1.4-0.7,2.5-0.7c1.1,0,2,0.2,2.9,0.6l-0.4,1.1
		c-0.9-0.4-1.7-0.6-2.6-0.6c-0.7,0-1.2,0.1-1.5,0.4c-0.4,0.3-0.6,0.7-0.6,1.2c0,0.4,0.1,0.7,0.2,0.9c0.1,0.2,0.4,0.5,0.7,0.7
		c0.3,0.2,0.8,0.4,1.5,0.7c1.1,0.4,1.9,0.8,2.3,1.3C41.5,591.2,41.7,591.8,41.7,592.5z"/>
	<path class="st0" d="M53.2,590c0,1.7-0.4,3.1-1.3,4c-0.9,1-2.1,1.5-3.6,1.5c-1.6,0-2.8-0.5-3.7-1.4c-0.9-1-1.3-2.3-1.3-4.1
		c0-1.7,0.4-3.1,1.3-4.1c0.9-1,2.1-1.4,3.7-1.4c1.5,0,2.7,0.5,3.6,1.5C52.8,586.9,53.2,588.3,53.2,590z M44.7,590
		c0,1.5,0.3,2.6,0.9,3.3c0.6,0.8,1.5,1.1,2.7,1.1c1.2,0,2.1-0.4,2.7-1.1s0.9-1.8,0.9-3.3c0-1.4-0.3-2.5-0.9-3.3
		c-0.6-0.7-1.5-1.1-2.7-1.1c-1.2,0-2.1,0.4-2.7,1.1C45,587.5,44.7,588.5,44.7,590z"/>
	<path class="st0" d="M55.6,595.3v-10.7h1.2v9.6h4.7v1.1H55.6z"/>
	<path class="st0" d="M63.4,595.3v-10.7h1.2v10.7H63.4z"/>
	<path class="st0" d="M72.2,585.6c-1.2,0-2.1,0.4-2.8,1.2c-0.7,0.8-1,1.9-1,3.2c0,1.4,0.3,2.5,1,3.2c0.7,0.8,1.6,1.1,2.8,1.1
		c0.7,0,1.6-0.1,2.6-0.4v1.1c-0.7,0.3-1.7,0.4-2.7,0.4c-1.6,0-2.8-0.5-3.7-1.4c-0.9-1-1.3-2.3-1.3-4.1c0-1.1,0.2-2.1,0.6-2.9
		c0.4-0.8,1-1.5,1.8-1.9s1.7-0.7,2.8-0.7c1.1,0,2.1,0.2,2.9,0.6l-0.5,1.1C73.8,585.8,73,585.6,72.2,585.6z"/>
	<path class="st0" d="M77.1,595.3v-10.7h1.2v10.7H77.1z"/>
	<path class="st0" d="M84.5,595.3h-1.2v-9.6h-3.4v-1.1h8v1.1h-3.4V595.3z"/>
	<path class="st0" d="M97.6,584.6v6.9c0,1.2-0.4,2.2-1.1,2.9s-1.8,1-3,1s-2.3-0.4-3-1.1c-0.7-0.7-1.1-1.7-1.1-2.9v-6.9h1.2v7
		c0,0.9,0.2,1.6,0.7,2.1s1.2,0.7,2.2,0.7c0.9,0,1.6-0.2,2.1-0.7c0.5-0.5,0.7-1.2,0.7-2.1v-7H97.6z"/>
	<path class="st0" d="M109,589.9c0,1.8-0.5,3.1-1.4,4.1c-1,0.9-2.3,1.4-4.1,1.4h-3v-10.7h3.3c1.7,0,3,0.5,3.9,1.4
		C108.5,586.9,109,588.2,109,589.9z M107.7,589.9c0-1.4-0.4-2.4-1.1-3.2c-0.7-0.7-1.7-1.1-3.1-1.1h-1.8v8.6h1.5
		c1.5,0,2.6-0.4,3.3-1.1C107.3,592.4,107.7,591.4,107.7,589.9z"/>
	<path class="st0" d="M121.3,595.3h-6v-10.7h6v1.1h-4.7v3.4h4.4v1.1h-4.4v3.9h4.7V595.3z"/>
	<path class="st0" d="M132,595.3h-1.4l-5.9-9h-0.1c0.1,1.1,0.1,2,0.1,2.9v6.1h-1.1v-10.7h1.4l5.8,9h0.1c0-0.1,0-0.6-0.1-1.3
		c0-0.7,0-1.2,0-1.5v-6.1h1.2V595.3z"/>
	<path class="st0" d="M147.4,589.9c0,1.8-0.5,3.1-1.4,4.1c-1,0.9-2.3,1.4-4.1,1.4h-3v-10.7h3.3c1.7,0,3,0.5,3.9,1.4
		C146.9,586.9,147.4,588.2,147.4,589.9z M146.1,589.9c0-1.4-0.4-2.4-1.1-3.2c-0.7-0.7-1.7-1.1-3.1-1.1h-1.8v8.6h1.5
		c1.5,0,2.6-0.4,3.3-1.1C145.7,592.4,146.1,591.4,146.1,589.9z"/>
	<path class="st0" d="M157.9,584.6v6.9c0,1.2-0.4,2.2-1.1,2.9s-1.8,1-3,1s-2.3-0.4-3-1.1c-0.7-0.7-1.1-1.7-1.1-2.9v-6.9h1.2v7
		c0,0.9,0.2,1.6,0.7,2.1s1.2,0.7,2.2,0.7c0.9,0,1.6-0.2,2.1-0.7c0.5-0.5,0.7-1.2,0.7-2.1v-7H157.9z"/>
	<path class="st0" d="M167.5,587.8c0,1.1-0.4,1.9-1.1,2.5c-0.7,0.6-1.8,0.9-3.2,0.9h-1.3v4.2h-1.2v-10.7h2.8
		C166.1,584.6,167.5,585.7,167.5,587.8z M161.9,590.1h1.1c1.1,0,1.9-0.2,2.4-0.5s0.7-0.9,0.7-1.7c0-0.7-0.2-1.2-0.7-1.6
		s-1.2-0.5-2.2-0.5h-1.4V590.1z"/>
	<path class="st0" d="M169.7,595.3v-10.7h1.2v9.6h4.7v1.1H169.7z"/>
	<path class="st0" d="M177.5,595.3v-10.7h1.2v10.7H177.5z"/>
	<path class="st0" d="M186.3,585.6c-1.2,0-2.1,0.4-2.8,1.2c-0.7,0.8-1,1.9-1,3.2c0,1.4,0.3,2.5,1,3.2c0.7,0.8,1.6,1.1,2.8,1.1
		c0.7,0,1.6-0.1,2.6-0.4v1.1c-0.7,0.3-1.7,0.4-2.7,0.4c-1.6,0-2.8-0.5-3.7-1.4c-0.9-1-1.3-2.3-1.3-4.1c0-1.1,0.2-2.1,0.6-2.9
		c0.4-0.8,1-1.5,1.8-1.9s1.7-0.7,2.8-0.7c1.1,0,2.1,0.2,2.9,0.6l-0.5,1.1C187.9,585.8,187.1,585.6,186.3,585.6z"/>
	<path class="st0" d="M191.1,595.3v-10.7h1.2v10.7H191.1z"/>
	<path class="st0" d="M203.9,589.9c0,1.8-0.5,3.1-1.4,4.1c-1,0.9-2.3,1.4-4.1,1.4h-3v-10.7h3.3c1.7,0,3,0.5,3.9,1.4
		C203.4,586.9,203.9,588.2,203.9,589.9z M202.6,589.9c0-1.4-0.4-2.4-1.1-3.2c-0.7-0.7-1.7-1.1-3.1-1.1h-1.8v8.6h1.5
		c1.5,0,2.6-0.4,3.3-1.1C202.2,592.4,202.6,591.4,202.6,589.9z"/>
	<path class="st0" d="M213,595.3l-1.3-3.4h-4.3l-1.3,3.4h-1.3l4.2-10.8h1l4.2,10.8H213z M211.3,590.8l-1.2-3.3
		c-0.2-0.4-0.3-0.9-0.5-1.5c-0.1,0.5-0.3,1-0.5,1.5l-1.3,3.3H211.3z"/>
	<path class="st0" d="M224.3,589.9c0,1.8-0.5,3.1-1.4,4.1c-1,0.9-2.3,1.4-4.1,1.4h-3v-10.7h3.3c1.7,0,3,0.5,3.9,1.4
		C223.8,586.9,224.3,588.2,224.3,589.9z M223,589.9c0-1.4-0.4-2.4-1.1-3.2c-0.7-0.7-1.7-1.1-3.1-1.1H217v8.6h1.5
		c1.5,0,2.6-0.4,3.3-1.1C222.6,592.4,223,591.4,223,589.9z"/>
</g>
<g>
	<path class="st0" d="M257.7,595.3h-9.3v-2l3.3-3.4c1-1,1.6-1.7,1.9-2.1s0.5-0.8,0.7-1.1c0.1-0.3,0.2-0.7,0.2-1
		c0-0.5-0.1-0.9-0.4-1.2c-0.3-0.3-0.7-0.4-1.2-0.4c-0.5,0-1,0.1-1.5,0.4s-1,0.6-1.5,1l-1.5-1.8c0.7-0.6,1.2-1,1.6-1.2
		c0.4-0.2,0.9-0.4,1.4-0.5c0.5-0.1,1.1-0.2,1.7-0.2c0.8,0,1.6,0.2,2.2,0.5s1.1,0.7,1.5,1.3s0.5,1.2,0.5,1.9c0,0.6-0.1,1.2-0.3,1.7
		c-0.2,0.5-0.5,1.1-1,1.6c-0.5,0.6-1.2,1.4-2.4,2.4l-1.7,1.6v0.1h5.8V595.3z"/>
	<path class="st0" d="M268.2,587.7c0,2.6-0.6,4.6-1.7,5.9c-1.1,1.3-2.8,1.9-5,1.9c-0.8,0-1.4,0-1.8-0.1v-2.3c0.5,0.1,1,0.2,1.6,0.2
		c0.9,0,1.7-0.1,2.3-0.4c0.6-0.3,1.1-0.7,1.4-1.3c0.3-0.6,0.5-1.4,0.6-2.4h-0.1c-0.4,0.6-0.8,1-1.2,1.2c-0.5,0.2-1,0.3-1.7,0.3
		c-1.2,0-2.1-0.4-2.7-1.1c-0.7-0.7-1-1.8-1-3.1c0-1.4,0.4-2.5,1.2-3.4c0.8-0.8,1.9-1.2,3.3-1.2c1,0,1.8,0.2,2.6,0.7s1.3,1.1,1.7,2
		S268.2,586.5,268.2,587.7z M263.4,584.2c-0.6,0-1,0.2-1.4,0.6c-0.3,0.4-0.5,1-0.5,1.7c0,0.6,0.1,1.2,0.4,1.5
		c0.3,0.4,0.7,0.6,1.4,0.6c0.6,0,1.1-0.2,1.5-0.6c0.4-0.4,0.6-0.8,0.6-1.3c0-0.7-0.2-1.3-0.6-1.8C264.5,584.4,264,584.2,263.4,584.2
		z"/>
	<path class="st0" d="M247.6,597.2v-0.9h21.2v0.9H247.6z"/>
</g>
<rect x="0.6" y="566.2" class="st6" width="77.8" height="8.5"/>
<g class="st11">
	<path class="st0" d="M35.7,537v-10.7H37V537H35.7z"/>
	<path class="st0" d="M48.3,537h-1.4l-5.9-9h-0.1c0.1,1.1,0.1,2,0.1,2.9v6.1h-1.1v-10.7h1.4l5.8,9h0.1c0-0.1,0-0.6-0.1-1.3
		c0-0.7,0-1.2,0-1.5v-6.1h1.2V537z"/>
	<path class="st0" d="M59.7,531.6c0,1.8-0.5,3.1-1.4,4.1c-1,0.9-2.3,1.4-4.1,1.4h-3v-10.7h3.3c1.7,0,3,0.5,3.9,1.4
		C59.3,528.6,59.7,529.9,59.7,531.6z M58.4,531.6c0-1.4-0.4-2.4-1.1-3.2c-0.7-0.7-1.7-1.1-3.1-1.1h-1.8v8.6H54
		c1.5,0,2.6-0.4,3.3-1.1C58.1,534.1,58.4,533.1,58.4,531.6z"/>
	<path class="st0" d="M62.1,537v-10.7h1.2V537H62.1z"/>
	<path class="st0" d="M70.9,527.3c-1.2,0-2.1,0.4-2.8,1.2c-0.7,0.8-1,1.9-1,3.2c0,1.4,0.3,2.5,1,3.2c0.7,0.8,1.6,1.1,2.8,1.1
		c0.7,0,1.6-0.1,2.6-0.4v1.1c-0.7,0.3-1.7,0.4-2.7,0.4c-1.6,0-2.8-0.5-3.7-1.4c-0.9-1-1.3-2.3-1.3-4.1c0-1.1,0.2-2.1,0.6-2.9
		c0.4-0.8,1-1.5,1.8-1.9s1.7-0.7,2.8-0.7c1.1,0,2.1,0.2,2.9,0.6l-0.5,1.1C72.5,527.5,71.7,527.3,70.9,527.3z"/>
	<path class="st0" d="M82.5,537l-1.3-3.4h-4.3l-1.3,3.4h-1.3l4.2-10.8h1l4.2,10.8H82.5z M80.8,532.5l-1.2-3.3
		c-0.2-0.4-0.3-0.9-0.5-1.5c-0.1,0.5-0.3,1-0.5,1.5l-1.3,3.3H80.8z"/>
	<path class="st0" d="M89.9,527.3c-1.2,0-2.1,0.4-2.8,1.2c-0.7,0.8-1,1.9-1,3.2c0,1.4,0.3,2.5,1,3.2c0.7,0.8,1.6,1.1,2.8,1.1
		c0.7,0,1.6-0.1,2.6-0.4v1.1c-0.7,0.3-1.7,0.4-2.7,0.4c-1.6,0-2.8-0.5-3.7-1.4c-0.9-1-1.3-2.3-1.3-4.1c0-1.1,0.2-2.1,0.6-2.9
		c0.4-0.8,1-1.5,1.8-1.9s1.7-0.7,2.8-0.7c1.1,0,2.1,0.2,2.9,0.6l-0.5,1.1C91.5,527.5,90.7,527.3,89.9,527.3z"/>
	<path class="st0" d="M94.7,537v-10.7H96V537H94.7z"/>
	<path class="st0" d="M108.2,531.7c0,1.7-0.4,3.1-1.3,4c-0.9,1-2.1,1.5-3.6,1.5c-1.6,0-2.8-0.5-3.7-1.4c-0.9-1-1.3-2.3-1.3-4.1
		c0-1.7,0.4-3.1,1.3-4.1c0.9-1,2.1-1.4,3.7-1.4c1.5,0,2.7,0.5,3.6,1.5C107.8,528.6,108.2,530,108.2,531.7z M99.7,531.7
		c0,1.5,0.3,2.6,0.9,3.3c0.6,0.8,1.5,1.1,2.7,1.1c1.2,0,2.1-0.4,2.7-1.1s0.9-1.8,0.9-3.3c0-1.4-0.3-2.5-0.9-3.3
		c-0.6-0.7-1.5-1.1-2.7-1.1c-1.2,0-2.1,0.4-2.7,1.1C100,529.1,99.7,530.2,99.7,531.7z M102.3,525.3c0.2-0.3,0.5-0.7,0.8-1.1
		c0.3-0.4,0.5-0.8,0.6-1.1h1.5v0.2c-0.2,0.3-0.5,0.7-1,1.2s-0.8,0.8-1.1,1.1h-0.8V525.3z"/>
	<path class="st0" d="M119,537h-1.4l-5.9-9h-0.1c0.1,1.1,0.1,2,0.1,2.9v6.1h-1.1v-10.7h1.4l5.8,9h0.1c0-0.1,0-0.6-0.1-1.3
		c0-0.7,0-1.2,0-1.5v-6.1h1.2V537z"/>
	<path class="st0" d="M134.3,531.6c0,1.8-0.5,3.1-1.4,4.1c-1,0.9-2.3,1.4-4.1,1.4h-3v-10.7h3.3c1.7,0,3,0.5,3.9,1.4
		C133.9,528.6,134.3,529.9,134.3,531.6z M133,531.6c0-1.4-0.4-2.4-1.1-3.2c-0.7-0.7-1.7-1.1-3.1-1.1H127v8.6h1.5
		c1.5,0,2.6-0.4,3.3-1.1C132.7,534.1,133,533.1,133,531.6z"/>
	<path class="st0" d="M142.7,537h-6v-10.7h6v1.1H138v3.4h4.4v1.1H138v3.9h4.7V537z"/>
	<path class="st0" d="M158.3,531.7c0,1.7-0.4,3.1-1.3,4c-0.9,1-2.1,1.5-3.6,1.5c-1.6,0-2.8-0.5-3.7-1.4c-0.9-1-1.3-2.3-1.3-4.1
		c0-1.7,0.4-3.1,1.3-4.1c0.9-1,2.1-1.4,3.7-1.4c1.5,0,2.7,0.5,3.6,1.5C157.8,528.6,158.3,530,158.3,531.7z M149.7,531.7
		c0,1.5,0.3,2.6,0.9,3.3c0.6,0.8,1.5,1.1,2.7,1.1c1.2,0,2.1-0.4,2.7-1.1s0.9-1.8,0.9-3.3c0-1.4-0.3-2.5-0.9-3.3
		c-0.6-0.7-1.5-1.1-2.7-1.1c-1.2,0-2.1,0.4-2.7,1.1C150,529.1,149.7,530.2,149.7,531.7z"/>
	<path class="st0" d="M164,537h-1.2v-9.6h-3.4v-1.1h8v1.1H164V537z"/>
	<path class="st0" d="M170.2,532.6v4.5H169v-10.7h2.9c1.3,0,2.3,0.3,2.9,0.8s0.9,1.3,0.9,2.3c0,1.4-0.7,2.4-2.2,2.9l2.9,4.8H175
		l-2.6-4.5H170.2z M170.2,531.5h1.7c0.9,0,1.5-0.2,1.9-0.5c0.4-0.3,0.6-0.9,0.6-1.6c0-0.7-0.2-1.2-0.6-1.5c-0.4-0.3-1.1-0.5-2-0.5
		h-1.6V531.5z"/>
	<path class="st0" d="M187.5,531.7c0,1.7-0.4,3.1-1.3,4c-0.9,1-2.1,1.5-3.6,1.5c-1.6,0-2.8-0.5-3.7-1.4c-0.9-1-1.3-2.3-1.3-4.1
		c0-1.7,0.4-3.1,1.3-4.1c0.9-1,2.1-1.4,3.7-1.4c1.5,0,2.7,0.5,3.6,1.5C187.1,528.6,187.5,530,187.5,531.7z M179,531.7
		c0,1.5,0.3,2.6,0.9,3.3c0.6,0.8,1.5,1.1,2.7,1.1c1.2,0,2.1-0.4,2.7-1.1s0.9-1.8,0.9-3.3c0-1.4-0.3-2.5-0.9-3.3
		c-0.6-0.7-1.5-1.1-2.7-1.1c-1.2,0-2.1,0.4-2.7,1.1C179.3,529.1,179,530.2,179,531.7z"/>
	<path class="st0" d="M203.1,531.7c0,1.7-0.4,3.1-1.3,4c-0.9,1-2.1,1.5-3.6,1.5c-1.6,0-2.8-0.5-3.7-1.4c-0.9-1-1.3-2.3-1.3-4.1
		c0-1.7,0.4-3.1,1.3-4.1c0.9-1,2.1-1.4,3.7-1.4c1.5,0,2.7,0.5,3.6,1.5C202.7,528.6,203.1,530,203.1,531.7z M194.6,531.7
		c0,1.5,0.3,2.6,0.9,3.3c0.6,0.8,1.5,1.1,2.7,1.1c1.2,0,2.1-0.4,2.7-1.1s0.9-1.8,0.9-3.3c0-1.4-0.3-2.5-0.9-3.3
		c-0.6-0.7-1.5-1.1-2.7-1.1c-1.2,0-2.1,0.4-2.7,1.1C194.9,529.1,194.6,530.2,194.6,531.7z"/>
	<path class="st0" d="M206.7,532.6v4.5h-1.2v-10.7h2.9c1.3,0,2.3,0.3,2.9,0.8s0.9,1.3,0.9,2.3c0,1.4-0.7,2.4-2.2,2.9l2.9,4.8h-1.5
		l-2.6-4.5H206.7z M206.7,531.5h1.7c0.9,0,1.5-0.2,1.9-0.5c0.4-0.3,0.6-0.9,0.6-1.6c0-0.7-0.2-1.2-0.6-1.5c-0.4-0.3-1.1-0.5-2-0.5
		h-1.6V531.5z"/>
	<path class="st0" d="M219.5,531.4h3.6v5.2c-0.6,0.2-1.1,0.3-1.7,0.4c-0.6,0.1-1.3,0.1-2,0.1c-1.6,0-2.9-0.5-3.8-1.4
		c-0.9-1-1.4-2.3-1.4-4.1c0-1.1,0.2-2.1,0.7-2.9c0.4-0.8,1.1-1.5,1.9-1.9c0.8-0.4,1.8-0.7,3-0.7c1.1,0,2.2,0.2,3.2,0.6l-0.5,1.1
		c-1-0.4-1.9-0.6-2.8-0.6c-1.3,0-2.3,0.4-3.1,1.2s-1.1,1.9-1.1,3.2c0,1.4,0.4,2.5,1.1,3.3s1.7,1.1,3.1,1.1c0.7,0,1.5-0.1,2.2-0.3
		v-3.3h-2.4V531.4z"/>
	<path class="st0" d="M232.4,537l-1.3-3.4h-4.3l-1.3,3.4h-1.3l4.2-10.8h1l4.2,10.8H232.4z M230.7,532.5l-1.2-3.3
		c-0.2-0.4-0.3-0.9-0.5-1.5c-0.1,0.5-0.3,1-0.5,1.5l-1.3,3.3H230.7z"/>
	<path class="st0" d="M243.5,537h-1.4l-5.9-9h-0.1c0.1,1.1,0.1,2,0.1,2.9v6.1h-1.1v-10.7h1.4l5.8,9h0.1c0-0.1,0-0.6-0.1-1.3
		c0-0.7,0-1.2,0-1.5v-6.1h1.2V537z"/>
	<path class="st0" d="M246.5,537v-10.7h1.2V537H246.5z"/>
	<path class="st0" d="M256.7,534.2c0,0.9-0.3,1.7-1,2.2s-1.6,0.8-2.8,0.8c-1.3,0-2.2-0.2-2.9-0.5v-1.2c0.4,0.2,0.9,0.3,1.4,0.4
		s1,0.2,1.5,0.2c0.8,0,1.5-0.2,1.9-0.5c0.4-0.3,0.6-0.8,0.6-1.3c0-0.4-0.1-0.7-0.2-0.9c-0.1-0.2-0.4-0.5-0.7-0.7s-0.9-0.4-1.6-0.7
		c-1-0.4-1.7-0.8-2.1-1.3c-0.4-0.5-0.6-1.1-0.6-1.9c0-0.8,0.3-1.5,0.9-2s1.4-0.7,2.5-0.7c1.1,0,2,0.2,2.9,0.6l-0.4,1.1
		c-0.9-0.4-1.7-0.6-2.6-0.6c-0.7,0-1.2,0.1-1.5,0.4c-0.4,0.3-0.6,0.7-0.6,1.2c0,0.4,0.1,0.7,0.2,0.9c0.1,0.2,0.4,0.5,0.7,0.7
		c0.3,0.2,0.8,0.4,1.5,0.7c1.1,0.4,1.9,0.8,2.3,1.3C256.5,532.9,256.7,533.5,256.7,534.2z"/>
	<path class="st0" d="M263.6,537l-3.6-9.5h-0.1c0.1,0.8,0.1,1.6,0.1,2.7v6.8h-1.1v-10.7h1.9l3.4,8.8h0.1l3.4-8.8h1.9V537h-1.2v-6.9
		c0-0.8,0-1.7,0.1-2.6h-0.1l-3.7,9.5H263.6z"/>
	<path class="st0" d="M281.7,531.7c0,1.7-0.4,3.1-1.3,4c-0.9,1-2.1,1.5-3.6,1.5c-1.6,0-2.8-0.5-3.7-1.4c-0.9-1-1.3-2.3-1.3-4.1
		c0-1.7,0.4-3.1,1.3-4.1c0.9-1,2.1-1.4,3.7-1.4c1.5,0,2.7,0.5,3.6,1.5C281.3,528.6,281.7,530,281.7,531.7z M273.2,531.7
		c0,1.5,0.3,2.6,0.9,3.3c0.6,0.8,1.5,1.1,2.7,1.1c1.2,0,2.1-0.4,2.7-1.1s0.9-1.8,0.9-3.3c0-1.4-0.3-2.5-0.9-3.3
		c-0.6-0.7-1.5-1.1-2.7-1.1c-1.2,0-2.1,0.4-2.7,1.1C273.5,529.1,273.2,530.2,273.2,531.7z"/>
</g>
<g>
	<path class="st0" d="M318.4,534.3h-1.6v2.8H314v-2.8h-5.7v-2l5.8-8.6h2.6v8.3h1.6V534.3z M314,532.1v-2.3c0-0.4,0-0.9,0-1.6
		c0-0.7,0.1-1.1,0.1-1.2h-0.1c-0.2,0.5-0.5,1-0.8,1.5l-2.4,3.7H314z"/>
	<path class="st0" d="M328.7,537h-9.3v-2l3.3-3.4c1-1,1.6-1.7,1.9-2.1s0.5-0.8,0.7-1.1c0.1-0.3,0.2-0.7,0.2-1c0-0.5-0.1-0.9-0.4-1.2
		c-0.3-0.3-0.7-0.4-1.2-0.4c-0.5,0-1,0.1-1.5,0.4s-1,0.6-1.5,1l-1.5-1.8c0.7-0.6,1.2-1,1.6-1.2c0.4-0.2,0.9-0.4,1.4-0.5
		c0.5-0.1,1.1-0.2,1.7-0.2c0.8,0,1.6,0.2,2.2,0.5s1.1,0.7,1.5,1.3s0.5,1.2,0.5,1.9c0,0.6-0.1,1.2-0.3,1.7c-0.2,0.5-0.5,1.1-1,1.6
		c-0.5,0.6-1.2,1.4-2.4,2.4l-1.7,1.6v0.1h5.8V537z"/>
	<path class="st0" d="M308,538.9V538h21.2v0.9H308z"/>
</g>
<rect x="0.6" y="508.6" class="st4" width="77.8" height="8.5"/>
<g class="st11">
	<path class="st0" d="M44.3,647.1c0,1.8-0.5,3.1-1.4,4.1c-1,0.9-2.3,1.4-4.1,1.4h-3v-10.7H39c1.7,0,3,0.5,3.9,1.4
		C43.8,644.1,44.3,645.4,44.3,647.1z M42.9,647.1c0-1.4-0.4-2.4-1.1-3.2c-0.7-0.7-1.7-1.1-3.1-1.1H37v8.6h1.5c1.5,0,2.6-0.4,3.3-1.1
		C42.6,649.6,42.9,648.5,42.9,647.1z"/>
	<path class="st0" d="M52.6,652.5h-6v-10.7h6v1.1h-4.7v3.4h4.4v1.1h-4.4v3.9h4.7V652.5z"/>
	<path class="st0" d="M63.3,652.5h-1.4l-5.9-9H56c0.1,1.1,0.1,2,0.1,2.9v6.1H55v-10.7h1.4l5.8,9h0.1c0-0.1,0-0.6-0.1-1.3
		c0-0.7,0-1.2,0-1.5v-6.1h1.2V652.5z"/>
	<path class="st0" d="M72.3,652.5h-6v-10.7h6v1.1h-4.7v3.4H72v1.1h-4.4v3.9h4.7V652.5z"/>
	<path class="st0" d="M79.3,646.9H83v5.2c-0.6,0.2-1.1,0.3-1.7,0.4c-0.6,0.1-1.3,0.1-2,0.1c-1.6,0-2.9-0.5-3.8-1.4
		c-0.9-1-1.4-2.3-1.4-4.1c0-1.1,0.2-2.1,0.7-2.9c0.4-0.8,1.1-1.5,1.9-1.9c0.8-0.4,1.8-0.7,3-0.7c1.1,0,2.2,0.2,3.2,0.6l-0.5,1.1
		c-1-0.4-1.9-0.6-2.8-0.6c-1.3,0-2.3,0.4-3.1,1.2s-1.1,1.9-1.1,3.2c0,1.4,0.4,2.5,1.1,3.3s1.7,1.1,3.1,1.1c0.7,0,1.5-0.1,2.2-0.3
		V648h-2.4V646.9z"/>
	<path class="st0" d="M92.3,652.5l-1.3-3.4h-4.3l-1.3,3.4h-1.3l4.2-10.8h1l4.2,10.8H92.3z M90.6,648l-1.2-3.3
		c-0.2-0.4-0.3-0.9-0.5-1.5c-0.1,0.5-0.3,1-0.5,1.5l-1.3,3.3H90.6z"/>
	<path class="st0" d="M103.6,647.1c0,1.8-0.5,3.1-1.4,4.1c-1,0.9-2.3,1.4-4.1,1.4h-3v-10.7h3.3c1.7,0,3,0.5,3.9,1.4
		C103.1,644.1,103.6,645.4,103.6,647.1z M102.3,647.1c0-1.4-0.4-2.4-1.1-3.2c-0.7-0.7-1.7-1.1-3.1-1.1h-1.8v8.6h1.5
		c1.5,0,2.6-0.4,3.3-1.1C101.9,649.6,102.3,648.5,102.3,647.1z"/>
	<path class="st0" d="M115.3,647.2c0,1.7-0.4,3.1-1.3,4c-0.9,1-2.1,1.5-3.6,1.5c-1.6,0-2.8-0.5-3.7-1.4c-0.9-1-1.3-2.3-1.3-4.1
		c0-1.7,0.4-3.1,1.3-4.1c0.9-1,2.1-1.4,3.7-1.4c1.5,0,2.7,0.5,3.6,1.5C114.8,644.1,115.3,645.4,115.3,647.2z M106.7,647.2
		c0,1.5,0.3,2.6,0.9,3.3c0.6,0.8,1.5,1.1,2.7,1.1c1.2,0,2.1-0.4,2.7-1.1s0.9-1.8,0.9-3.3c0-1.4-0.3-2.5-0.9-3.3
		c-0.6-0.7-1.5-1.1-2.7-1.1c-1.2,0-2.1,0.4-2.7,1.1C107.1,644.6,106.7,645.7,106.7,647.2z"/>
</g>
<g>
	<path class="st0" d="M139.9,652.5h-9.3v-2l3.3-3.4c1-1,1.6-1.7,1.9-2.1s0.5-0.8,0.7-1.1c0.1-0.3,0.2-0.7,0.2-1
		c0-0.5-0.1-0.9-0.4-1.2c-0.3-0.3-0.7-0.4-1.2-0.4c-0.5,0-1,0.1-1.5,0.4s-1,0.6-1.5,1l-1.5-1.8c0.7-0.6,1.2-1,1.6-1.2
		c0.4-0.2,0.9-0.4,1.4-0.5c0.5-0.1,1.1-0.2,1.7-0.2c0.8,0,1.6,0.2,2.2,0.5s1.1,0.7,1.5,1.3s0.5,1.2,0.5,1.9c0,0.6-0.1,1.2-0.3,1.7
		c-0.2,0.5-0.5,1.1-1,1.6c-0.5,0.6-1.2,1.4-2.4,2.4l-1.7,1.6v0.1h5.8V652.5z"/>
	<path class="st0" d="M148.1,652.5h-2.8v-7.7l0-1.3l0-1.4c-0.5,0.5-0.8,0.8-1,0.9l-1.5,1.2l-1.4-1.7l4.3-3.4h2.3V652.5z"/>
	<path class="st0" d="M129.8,654.4v-0.9h21.2v0.9H129.8z"/>
</g>
<rect x="0.6" y="624.9" class="st8" width="77.8" height="8"/>
<g class="st11">
	<path d="M793.7,67.3c0,1-0.4,1.8-1.1,2.3c-0.7,0.6-1.7,0.8-2.9,0.8c-1.3,0-2.4-0.2-3.1-0.5v-1.3c0.5,0.2,1,0.4,1.5,0.5
		c0.5,0.1,1.1,0.2,1.6,0.2c0.9,0,1.5-0.2,2-0.5c0.4-0.3,0.7-0.8,0.7-1.4c0-0.4-0.1-0.7-0.2-1c-0.2-0.2-0.4-0.5-0.8-0.7
		c-0.4-0.2-0.9-0.5-1.7-0.7c-1.1-0.4-1.8-0.8-2.3-1.3c-0.5-0.5-0.7-1.2-0.7-2c0-0.9,0.3-1.6,1-2.1c0.7-0.5,1.5-0.8,2.6-0.8
		c1.1,0,2.2,0.2,3.1,0.6l-0.4,1.1c-0.9-0.4-1.8-0.6-2.7-0.6c-0.7,0-1.2,0.1-1.6,0.4c-0.4,0.3-0.6,0.7-0.6,1.2c0,0.4,0.1,0.7,0.2,1
		s0.4,0.5,0.7,0.7c0.3,0.2,0.9,0.4,1.6,0.7c1.2,0.4,2,0.9,2.4,1.4C793.5,65.9,793.7,66.5,793.7,67.3z"/>
	<path d="M805.8,64.6c0,1.8-0.5,3.2-1.4,4.3s-2.2,1.6-3.8,1.6c-1.7,0-3-0.5-3.9-1.5c-0.9-1-1.4-2.5-1.4-4.3c0-1.8,0.5-3.3,1.4-4.3
		c0.9-1,2.2-1.5,3.9-1.5c1.6,0,2.9,0.5,3.8,1.5C805.4,61.4,805.8,62.8,805.8,64.6z M796.8,64.6c0,1.5,0.3,2.7,1,3.5
		c0.7,0.8,1.6,1.2,2.8,1.2c1.3,0,2.2-0.4,2.8-1.2c0.6-0.8,1-2,1-3.5c0-1.5-0.3-2.7-1-3.5c-0.6-0.8-1.6-1.2-2.8-1.2
		c-1.3,0-2.2,0.4-2.9,1.2C797.1,62,796.8,63.1,796.8,64.6z"/>
	<path d="M808.3,70.3V59h1.3v10.1h5v1.2H808.3z"/>
	<path d="M816.6,70.3V59h1.3v11.3H816.6z"/>
	<path d="M825.8,60c-1.2,0-2.2,0.4-2.9,1.2s-1.1,2-1.1,3.4c0,1.5,0.3,2.6,1,3.4c0.7,0.8,1.7,1.2,3,1.2c0.8,0,1.7-0.1,2.7-0.4V70
		c-0.8,0.3-1.8,0.4-2.9,0.4c-1.7,0-3-0.5-3.9-1.5c-0.9-1-1.4-2.4-1.4-4.3c0-1.2,0.2-2.2,0.7-3.1c0.4-0.9,1.1-1.6,1.9-2
		s1.8-0.7,2.9-0.7c1.2,0,2.2,0.2,3.1,0.7l-0.6,1.1C827.5,60.2,826.7,60,825.8,60z"/>
	<path d="M831,70.3V59h1.3v11.3H831z"/>
	<path d="M838.9,70.3h-1.3V60.2H834V59h8.5v1.2h-3.6V70.3z"/>
	<path d="M852.7,59v7.3c0,1.3-0.4,2.3-1.2,3c-0.8,0.7-1.8,1.1-3.2,1.1c-1.4,0-2.4-0.4-3.2-1.1c-0.7-0.7-1.1-1.8-1.1-3.1V59h1.3v7.4
		c0,0.9,0.3,1.7,0.8,2.2c0.5,0.5,1.3,0.8,2.3,0.8c1,0,1.7-0.3,2.2-0.8c0.5-0.5,0.8-1.2,0.8-2.2V59H852.7z"/>
	<path d="M864.7,64.5c0,1.9-0.5,3.3-1.5,4.3c-1,1-2.5,1.5-4.4,1.5h-3.1V59h3.5c1.8,0,3.1,0.5,4.1,1.5
		C864.3,61.4,864.7,62.8,864.7,64.5z M863.3,64.6c0-1.5-0.4-2.6-1.1-3.3s-1.8-1.1-3.3-1.1H857v9h1.6c1.6,0,2.7-0.4,3.5-1.2
		S863.3,66.1,863.3,64.6z"/>
	<path d="M873.6,70.3h-6.3V59h6.3v1.2h-5v3.6h4.7V65h-4.7v4.2h5V70.3z"/>
	<path d="M882.5,67.3c0,1-0.4,1.8-1.1,2.3c-0.7,0.6-1.7,0.8-2.9,0.8c-1.3,0-2.4-0.2-3.1-0.5v-1.3c0.5,0.2,1,0.4,1.5,0.5
		c0.5,0.1,1.1,0.2,1.6,0.2c0.9,0,1.5-0.2,2-0.5c0.4-0.3,0.7-0.8,0.7-1.4c0-0.4-0.1-0.7-0.2-1c-0.2-0.2-0.4-0.5-0.8-0.7
		s-0.9-0.5-1.7-0.7c-1.1-0.4-1.8-0.8-2.3-1.3c-0.5-0.5-0.7-1.2-0.7-2c0-0.9,0.3-1.6,1-2.1c0.7-0.5,1.5-0.8,2.6-0.8
		c1.1,0,2.2,0.2,3.1,0.6l-0.4,1.1c-0.9-0.4-1.8-0.6-2.7-0.6c-0.7,0-1.2,0.1-1.6,0.4c-0.4,0.3-0.6,0.7-0.6,1.2c0,0.4,0.1,0.7,0.2,1
		s0.4,0.5,0.7,0.7c0.3,0.2,0.9,0.4,1.6,0.7c1.2,0.4,2,0.9,2.4,1.4C882.2,65.9,882.5,66.5,882.5,67.3z"/>
</g>
<g class="st11">
	<path d="M793.6,89.3h-6.3V78h6.3v1.2h-5v3.6h4.7V84h-4.7v4.2h5V89.3z"/>
	<path d="M803.6,89.3h-1.5l-3-5l-3.1,5h-1.4l3.8-5.9l-3.5-5.4h1.5l2.8,4.5L802,78h1.4l-3.5,5.4L803.6,89.3z"/>
	<path d="M812.4,81.3c0,1.1-0.4,2-1.2,2.6c-0.8,0.6-1.9,0.9-3.4,0.9h-1.3v4.5h-1.3V78h2.9C811,78,812.4,79.1,812.4,81.3z
		 M806.6,83.7h1.2c1.2,0,2-0.2,2.5-0.6c0.5-0.4,0.8-1,0.8-1.8c0-0.7-0.2-1.3-0.7-1.7s-1.3-0.5-2.3-0.5h-1.5V83.7z"/>
	<path d="M814.8,89.3V78h1.3v10.1h5v1.2H814.8z"/>
	<path d="M832.8,83.7c0,1.8-0.5,3.2-1.4,4.3s-2.2,1.6-3.8,1.6c-1.7,0-3-0.5-3.9-1.5c-0.9-1-1.4-2.5-1.4-4.3c0-1.8,0.5-3.3,1.4-4.3
		c0.9-1,2.2-1.5,3.9-1.5c1.6,0,2.9,0.5,3.8,1.5C832.4,80.4,832.8,81.8,832.8,83.7z M823.8,83.7c0,1.5,0.3,2.7,1,3.5
		c0.7,0.8,1.6,1.2,2.8,1.2c1.3,0,2.2-0.4,2.8-1.2c0.6-0.8,1-2,1-3.5c0-1.5-0.3-2.7-1-3.5c-0.6-0.8-1.6-1.2-2.8-1.2
		c-1.3,0-2.2,0.4-2.9,1.2C824.2,81,823.8,82.1,823.8,83.7z"/>
	<path d="M836.7,84.6v4.7h-1.3V78h3.1c1.4,0,2.4,0.3,3.1,0.8s1,1.3,1,2.4c0,1.5-0.8,2.5-2.3,3l3.1,5.1h-1.6l-2.7-4.7H836.7z
		 M836.7,83.5h1.8c0.9,0,1.6-0.2,2-0.6c0.4-0.4,0.6-0.9,0.6-1.7c0-0.7-0.2-1.3-0.7-1.6c-0.4-0.3-1.1-0.5-2.1-0.5h-1.7V83.5z"/>
	<path d="M852.3,89.3l-1.4-3.6h-4.5l-1.4,3.6h-1.3l4.5-11.4h1.1l4.5,11.4H852.3z M850.5,84.5l-1.3-3.5c-0.2-0.4-0.3-1-0.5-1.6
		c-0.1,0.5-0.3,1-0.5,1.6l-1.3,3.5H850.5z"/>
	<path d="M858.7,89.3h-1.3V79.2h-3.6V78h8.5v1.2h-3.6V89.3z"/>
	<path d="M873.8,83.7c0,1.8-0.5,3.2-1.4,4.3s-2.2,1.6-3.8,1.6c-1.7,0-3-0.5-3.9-1.5c-0.9-1-1.4-2.5-1.4-4.3c0-1.8,0.5-3.3,1.4-4.3
		c0.9-1,2.2-1.5,3.9-1.5c1.6,0,2.9,0.5,3.8,1.5C873.3,80.4,873.8,81.8,873.8,83.7z M864.8,83.7c0,1.5,0.3,2.7,1,3.5
		c0.7,0.8,1.6,1.2,2.8,1.2c1.3,0,2.2-0.4,2.8-1.2c0.6-0.8,1-2,1-3.5c0-1.5-0.3-2.7-1-3.5c-0.6-0.8-1.6-1.2-2.8-1.2
		c-1.3,0-2.2,0.4-2.9,1.2C865.1,81,864.8,82.1,864.8,83.7z"/>
	<path d="M877.6,84.6v4.7h-1.3V78h3.1c1.4,0,2.4,0.3,3.1,0.8s1,1.3,1,2.4c0,1.5-0.8,2.5-2.3,3l3.1,5.1h-1.6l-2.7-4.7H877.6z
		 M877.6,83.5h1.8c0.9,0,1.6-0.2,2-0.6s0.7-0.9,0.7-1.7c0-0.7-0.2-1.3-0.7-1.6c-0.4-0.3-1.1-0.5-2.1-0.5h-1.7V83.5z"/>
	<path d="M886.1,89.3V78h1.3v11.3H886.1z"/>
	<path d="M897.6,89.3l-1.4-3.6h-4.5l-1.4,3.6H889l4.5-11.4h1.1l4.5,11.4H897.6z M895.8,84.5l-1.3-3.5c-0.2-0.4-0.3-1-0.5-1.6
		c-0.1,0.5-0.3,1-0.5,1.6l-1.3,3.5H895.8z"/>
	<path d="M906.9,86.3c0,1-0.4,1.8-1.1,2.3c-0.7,0.6-1.7,0.8-2.9,0.8c-1.3,0-2.4-0.2-3.1-0.5v-1.3c0.5,0.2,1,0.4,1.5,0.5
		c0.5,0.1,1.1,0.2,1.6,0.2c0.9,0,1.5-0.2,2-0.5c0.4-0.3,0.7-0.8,0.7-1.4c0-0.4-0.1-0.7-0.2-1c-0.2-0.2-0.4-0.5-0.8-0.7
		s-0.9-0.5-1.7-0.7c-1.1-0.4-1.8-0.8-2.3-1.3c-0.5-0.5-0.7-1.2-0.7-2c0-0.9,0.3-1.6,1-2.1c0.7-0.5,1.5-0.8,2.6-0.8
		c1.1,0,2.2,0.2,3.1,0.6l-0.4,1.1c-0.9-0.4-1.8-0.6-2.7-0.6c-0.7,0-1.2,0.1-1.6,0.4c-0.4,0.3-0.6,0.7-0.6,1.2c0,0.4,0.1,0.7,0.2,1
		s0.4,0.5,0.7,0.7c0.3,0.2,0.9,0.4,1.6,0.7c1.2,0.4,2,0.9,2.4,1.4C906.7,84.9,906.9,85.5,906.9,86.3z"/>
</g>
<g>
	<path class="st0" d="M794.3,101c1.6,0,2.8,0.4,3.8,1.3c0.9,0.9,1.4,2.1,1.4,3.6c0,1.8-0.6,3.2-1.7,4.2s-2.7,1.5-4.8,1.5
		c-1.8,0-3.3-0.3-4.4-0.9v-3c0.6,0.3,1.3,0.6,2,0.8c0.8,0.2,1.5,0.3,2.2,0.3c2.1,0,3.1-0.9,3.1-2.6c0-1.6-1.1-2.5-3.3-2.5
		c-0.4,0-0.8,0-1.3,0.1c-0.5,0.1-0.9,0.2-1.2,0.3l-1.4-0.7l0.6-8.3h8.8V98h-5.8l-0.3,3.2l0.4-0.1C793,101,793.6,101,794.3,101z"/>
	<path class="st0" d="M812.6,103.2c0,2.8-0.5,4.9-1.4,6.3c-0.9,1.4-2.4,2-4.3,2c-1.9,0-3.3-0.7-4.2-2.1s-1.4-3.5-1.4-6.2
		c0-2.9,0.5-5,1.4-6.3c0.9-1.4,2.4-2,4.3-2c1.9,0,3.3,0.7,4.3,2.1C812.2,98.4,812.6,100.5,812.6,103.2z M804.7,103.2
		c0,2,0.2,3.4,0.5,4.3c0.3,0.9,0.9,1.3,1.7,1.3c0.8,0,1.4-0.4,1.7-1.3c0.4-0.9,0.5-2.3,0.5-4.3c0-2-0.2-3.4-0.5-4.3
		c-0.4-0.9-0.9-1.3-1.7-1.3c-0.8,0-1.4,0.4-1.7,1.3C804.9,99.8,804.7,101.3,804.7,103.2z"/>
	<path class="st0" d="M825.1,98.8c0,1-0.3,1.9-0.9,2.6c-0.6,0.7-1.5,1.2-2.6,1.5v0.1c1.3,0.2,2.3,0.6,3,1.2c0.7,0.6,1,1.5,1,2.6
		c0,1.6-0.6,2.8-1.7,3.7s-2.8,1.3-4.9,1.3c-1.8,0-3.3-0.3-4.7-0.9v-2.9c0.6,0.3,1.3,0.6,2.1,0.8c0.8,0.2,1.5,0.3,2.2,0.3
		c1.1,0,2-0.2,2.5-0.6c0.5-0.4,0.8-1,0.8-1.9c0-0.8-0.3-1.3-0.9-1.6s-1.6-0.5-3-0.5h-1.2v-2.6h1.3c1.3,0,2.2-0.2,2.8-0.5
		c0.6-0.3,0.9-0.9,0.9-1.7c0-1.2-0.8-1.8-2.3-1.8c-0.5,0-1.1,0.1-1.6,0.3c-0.6,0.2-1.2,0.5-1.8,0.9l-1.6-2.4
		c1.5-1.1,3.3-1.6,5.3-1.6c1.7,0,3,0.3,4,1S825.1,97.5,825.1,98.8z"/>
	<path class="st0" d="M787.4,113.7v-1.1h39v1.1H787.4z"/>
</g>
<line class="st12" x1="771.1" y1="69.5" x2="728.5" y2="112.1"/>
<g class="st11">
	<path d="M1269.9,146.8c0,1-0.4,1.8-1.1,2.3c-0.7,0.6-1.7,0.8-2.9,0.8c-1.3,0-2.4-0.2-3.1-0.5v-1.3c0.5,0.2,1,0.4,1.5,0.5
		c0.5,0.1,1.1,0.2,1.6,0.2c0.9,0,1.5-0.2,2-0.5c0.4-0.3,0.7-0.8,0.7-1.4c0-0.4-0.1-0.7-0.2-1c-0.2-0.2-0.4-0.5-0.8-0.7
		s-0.9-0.5-1.7-0.7c-1.1-0.4-1.8-0.8-2.3-1.3s-0.7-1.2-0.7-2c0-0.9,0.3-1.6,1-2.1c0.7-0.5,1.5-0.8,2.6-0.8c1.1,0,2.2,0.2,3.1,0.6
		l-0.4,1.1c-0.9-0.4-1.8-0.6-2.7-0.6c-0.7,0-1.2,0.1-1.6,0.4c-0.4,0.3-0.6,0.7-0.6,1.2c0,0.4,0.1,0.7,0.2,1s0.4,0.5,0.7,0.7
		c0.3,0.2,0.9,0.4,1.6,0.7c1.2,0.4,2,0.9,2.4,1.4C1269.7,145.4,1269.9,146,1269.9,146.8z"/>
	<path d="M1282,144.1c0,1.8-0.5,3.2-1.4,4.3s-2.2,1.6-3.8,1.6c-1.7,0-3-0.5-3.9-1.5c-0.9-1-1.4-2.5-1.4-4.3c0-1.8,0.5-3.3,1.4-4.3
		c0.9-1,2.2-1.5,3.9-1.5c1.6,0,2.9,0.5,3.8,1.5C1281.6,140.9,1282,142.3,1282,144.1z M1273,144.1c0,1.5,0.3,2.7,1,3.5
		s1.6,1.2,2.8,1.2c1.3,0,2.2-0.4,2.8-1.2c0.6-0.8,1-2,1-3.5c0-1.5-0.3-2.7-1-3.5c-0.6-0.8-1.6-1.2-2.8-1.2c-1.3,0-2.2,0.4-2.9,1.2
		C1273.3,141.5,1273,142.6,1273,144.1z"/>
	<path d="M1284.6,149.8v-11.3h1.3v10.1h5v1.2H1284.6z"/>
	<path d="M1292.8,149.8v-11.3h1.3v11.3H1292.8z"/>
	<path d="M1302,139.5c-1.2,0-2.2,0.4-2.9,1.2s-1.1,2-1.1,3.4c0,1.5,0.3,2.6,1,3.4c0.7,0.8,1.7,1.2,3,1.2c0.8,0,1.7-0.1,2.7-0.4v1.2
		c-0.8,0.3-1.8,0.4-2.9,0.4c-1.7,0-3-0.5-3.9-1.5c-0.9-1-1.4-2.4-1.4-4.3c0-1.2,0.2-2.2,0.7-3.1s1.1-1.6,1.9-2
		c0.8-0.5,1.8-0.7,2.9-0.7c1.2,0,2.2,0.2,3.1,0.7l-0.6,1.1C1303.8,139.7,1302.9,139.5,1302,139.5z"/>
	<path d="M1307.2,149.8v-11.3h1.3v11.3H1307.2z"/>
	<path d="M1315.1,149.8h-1.3v-10.1h-3.6v-1.2h8.5v1.2h-3.6V149.8z"/>
	<path d="M1328.9,138.5v7.3c0,1.3-0.4,2.3-1.2,3c-0.8,0.7-1.8,1.1-3.2,1.1c-1.4,0-2.4-0.4-3.2-1.1s-1.1-1.8-1.1-3.1v-7.3h1.3v7.4
		c0,0.9,0.3,1.7,0.8,2.2c0.5,0.5,1.3,0.8,2.3,0.8c1,0,1.7-0.3,2.2-0.8c0.5-0.5,0.8-1.2,0.8-2.2v-7.4H1328.9z"/>
	<path d="M1341,144c0,1.9-0.5,3.3-1.5,4.3c-1,1-2.5,1.5-4.4,1.5h-3.1v-11.3h3.5c1.8,0,3.1,0.5,4.1,1.5
		C1340.5,140.9,1341,142.3,1341,144z M1339.6,144.1c0-1.5-0.4-2.6-1.1-3.3s-1.8-1.1-3.3-1.1h-1.9v9h1.6c1.6,0,2.7-0.4,3.5-1.2
		C1339.2,146.7,1339.6,145.6,1339.6,144.1z"/>
	<path d="M1349.8,149.8h-6.3v-11.3h6.3v1.2h-5v3.6h4.7v1.2h-4.7v4.2h5V149.8z"/>
	<path d="M1358.7,146.8c0,1-0.4,1.8-1.1,2.3c-0.7,0.6-1.7,0.8-2.9,0.8c-1.3,0-2.4-0.2-3.1-0.5v-1.3c0.5,0.2,1,0.4,1.5,0.5
		c0.5,0.1,1.1,0.2,1.6,0.2c0.9,0,1.5-0.2,2-0.5c0.4-0.3,0.7-0.8,0.7-1.4c0-0.4-0.1-0.7-0.2-1c-0.2-0.2-0.4-0.5-0.8-0.7
		c-0.4-0.2-0.9-0.5-1.7-0.7c-1.1-0.4-1.8-0.8-2.3-1.3c-0.5-0.5-0.7-1.2-0.7-2c0-0.9,0.3-1.6,1-2.1c0.7-0.5,1.5-0.8,2.6-0.8
		c1.1,0,2.2,0.2,3.1,0.6l-0.4,1.1c-0.9-0.4-1.8-0.6-2.7-0.6c-0.7,0-1.2,0.1-1.6,0.4c-0.4,0.3-0.6,0.7-0.6,1.2c0,0.4,0.1,0.7,0.2,1
		s0.4,0.5,0.7,0.7s0.9,0.4,1.6,0.7c1.2,0.4,2,0.9,2.4,1.4C1358.5,145.4,1358.7,146,1358.7,146.8z"/>
</g>
<g class="st11">
</g>
<g class="st11">
	<path d="M1270.6,166.7l-1.4-3.6h-4.5l-1.4,3.6h-1.3l4.5-11.4h1.1l4.5,11.4H1270.6z M1268.8,161.9l-1.3-3.5c-0.2-0.4-0.3-1-0.5-1.6
		c-0.1,0.5-0.3,1-0.5,1.6l-1.3,3.5H1268.8z"/>
	<path d="M1280,155.3h1.4l-4.1,11.3h-1.3l-4.1-11.3h1.4l2.6,7.3c0.3,0.8,0.5,1.7,0.7,2.5c0.2-0.8,0.4-1.7,0.7-2.5L1280,155.3z"/>
	<path d="M1290.1,166.7l-1.4-3.6h-4.5l-1.4,3.6h-1.3l4.5-11.4h1.1l4.4,11.4H1290.1z M1288.3,161.9l-1.3-3.5c-0.2-0.4-0.3-1-0.5-1.6
		c-0.1,0.5-0.3,1-0.5,1.6l-1.3,3.5H1288.3z"/>
	<path d="M1301.8,166.7h-1.5l-6.2-9.5h-0.1c0.1,1.1,0.1,2.1,0.1,3.1v6.4h-1.2v-11.3h1.5l6.2,9.5h0.1c0-0.1,0-0.6-0.1-1.3
		s0-1.3,0-1.6v-6.5h1.2V166.7z"/>
	<path d="M1311.8,166.7h-7.8v-1l6-9.1h-5.8v-1.2h7.4v1l-6,9.1h6.2V166.7z"/>
	<path d="M1321.1,166.7l-1.4-3.6h-4.5l-1.4,3.6h-1.3l4.5-11.4h1.1l4.5,11.4H1321.1z M1319.3,161.9l-1.3-3.5c-0.2-0.4-0.3-1-0.5-1.6
		c-0.1,0.5-0.3,1-0.5,1.6l-1.3,3.5H1319.3z"/>
	<path d="M1333.1,160.9c0,1.9-0.5,3.3-1.5,4.3c-1,1-2.5,1.5-4.4,1.5h-3.1v-11.3h3.5c1.8,0,3.1,0.5,4.1,1.5
		C1332.6,157.8,1333.1,159.1,1333.1,160.9z M1331.7,160.9c0-1.5-0.4-2.6-1.1-3.3s-1.8-1.1-3.3-1.1h-1.9v9h1.6c1.6,0,2.7-0.4,3.5-1.2
		S1331.7,162.5,1331.7,160.9z"/>
	<path d="M1342.7,166.7l-1.4-3.6h-4.5l-1.4,3.6h-1.3l4.5-11.4h1.1l4.4,11.4H1342.7z M1340.9,161.9l-1.3-3.5c-0.2-0.4-0.3-1-0.5-1.6
		c-0.1,0.5-0.3,1-0.5,1.6l-1.3,3.5H1340.9z"/>
	<path d="M1352,163.7c0,1-0.4,1.8-1.1,2.3c-0.7,0.6-1.7,0.8-2.9,0.8c-1.3,0-2.4-0.2-3.1-0.5V165c0.5,0.2,1,0.4,1.5,0.5
		c0.5,0.1,1.1,0.2,1.6,0.2c0.9,0,1.5-0.2,2-0.5c0.4-0.3,0.7-0.8,0.7-1.4c0-0.4-0.1-0.7-0.2-1c-0.2-0.2-0.4-0.5-0.8-0.7
		s-0.9-0.5-1.7-0.7c-1.1-0.4-1.8-0.8-2.3-1.3c-0.5-0.5-0.7-1.2-0.7-2c0-0.9,0.3-1.6,1-2.1c0.7-0.5,1.5-0.8,2.6-0.8
		c1.1,0,2.2,0.2,3.1,0.6l-0.4,1.1c-0.9-0.4-1.8-0.6-2.7-0.6c-0.7,0-1.2,0.1-1.6,0.4c-0.4,0.3-0.6,0.7-0.6,1.2c0,0.4,0.1,0.7,0.2,1
		s0.4,0.5,0.7,0.7s0.9,0.4,1.6,0.7c1.2,0.4,2,0.9,2.4,1.4C1351.8,162.2,1352,162.9,1352,163.7z"/>
</g>
<g>
	<path class="st0" d="M1275.9,190.9h-11.4v-2.4l4.1-4.1c1.2-1.2,2-2.1,2.4-2.6s0.6-0.9,0.8-1.3s0.2-0.8,0.2-1.3
		c0-0.7-0.2-1.1-0.5-1.5c-0.4-0.3-0.8-0.5-1.4-0.5c-0.6,0-1.2,0.1-1.8,0.4c-0.6,0.3-1.2,0.7-1.9,1.2l-1.9-2.2c0.8-0.7,1.5-1.2,2-1.4
		c0.5-0.3,1.1-0.5,1.7-0.7s1.3-0.2,2.1-0.2c1,0,1.9,0.2,2.7,0.6c0.8,0.4,1.4,0.9,1.8,1.6c0.4,0.7,0.6,1.4,0.6,2.3
		c0,0.7-0.1,1.5-0.4,2.1c-0.3,0.7-0.7,1.3-1.2,2c-0.6,0.7-1.5,1.7-2.9,2.9l-2.1,2v0.2h7.1V190.9z"/>
	<path class="st0" d="M1288.9,190.9h-11.4v-2.4l4.1-4.1c1.2-1.2,2-2.1,2.4-2.6s0.6-0.9,0.8-1.3s0.2-0.8,0.2-1.3
		c0-0.7-0.2-1.1-0.5-1.5c-0.4-0.3-0.8-0.5-1.4-0.5c-0.6,0-1.2,0.1-1.8,0.4c-0.6,0.3-1.2,0.7-1.9,1.2l-1.9-2.2c0.8-0.7,1.5-1.2,2-1.4
		c0.5-0.3,1.1-0.5,1.7-0.7s1.3-0.2,2.1-0.2c1,0,1.9,0.2,2.7,0.6c0.8,0.4,1.4,0.9,1.8,1.6c0.4,0.7,0.6,1.4,0.6,2.3
		c0,0.7-0.1,1.5-0.4,2.1c-0.3,0.7-0.7,1.3-1.2,2c-0.6,0.7-1.5,1.7-2.9,2.9l-2.1,2v0.2h7.1V190.9z"/>
	<path class="st0" d="M1290.5,184c0-3.2,0.7-5.6,2-7.2c1.4-1.6,3.4-2.4,6.1-2.4c0.9,0,1.7,0.1,2.2,0.2v2.7c-0.7-0.1-1.3-0.2-2-0.2
		c-1.2,0-2.1,0.2-2.9,0.5c-0.7,0.4-1.3,0.9-1.7,1.6c-0.4,0.7-0.6,1.7-0.7,3h0.1c0.7-1.3,1.9-1.9,3.5-1.9c1.5,0,2.6,0.5,3.4,1.4
		c0.8,0.9,1.2,2.2,1.2,3.8c0,1.7-0.5,3.1-1.5,4.1c-1,1-2.3,1.5-4.1,1.5c-1.2,0-2.2-0.3-3.1-0.8c-0.9-0.6-1.6-1.4-2.1-2.4
		C1290.7,186.8,1290.5,185.5,1290.5,184z M1296.3,188.4c0.7,0,1.3-0.2,1.7-0.7c0.4-0.5,0.6-1.2,0.6-2.1c0-0.8-0.2-1.4-0.6-1.9
		s-0.9-0.7-1.7-0.7c-0.7,0-1.3,0.2-1.8,0.7c-0.5,0.5-0.7,1-0.7,1.6c0,0.9,0.2,1.6,0.7,2.2C1295,188.1,1295.6,188.4,1296.3,188.4z"/>
	<path class="st0" d="M1263.6,193.2V192h39v1.1H1263.6z"/>
</g>
<line class="st12" x1="1247.4" y1="149.1" x2="1204.8" y2="191.6"/>
<g class="st11">
	<path d="M1084.6,622.4c0,1-0.4,1.8-1.1,2.3c-0.7,0.6-1.7,0.8-2.9,0.8c-1.3,0-2.4-0.2-3.1-0.5v-1.3c0.5,0.2,1,0.4,1.5,0.5
		c0.5,0.1,1.1,0.2,1.6,0.2c0.9,0,1.5-0.2,2-0.5c0.4-0.3,0.7-0.8,0.7-1.4c0-0.4-0.1-0.7-0.2-1c-0.2-0.2-0.4-0.5-0.8-0.7
		s-0.9-0.5-1.7-0.7c-1.1-0.4-1.8-0.8-2.3-1.3c-0.5-0.5-0.7-1.2-0.7-2c0-0.9,0.3-1.6,1-2.1c0.7-0.5,1.5-0.8,2.6-0.8
		c1.1,0,2.2,0.2,3.1,0.6l-0.4,1.1c-0.9-0.4-1.8-0.6-2.7-0.6c-0.7,0-1.2,0.1-1.6,0.4c-0.4,0.3-0.6,0.7-0.6,1.2c0,0.4,0.1,0.7,0.2,1
		s0.4,0.5,0.7,0.7c0.3,0.2,0.9,0.4,1.6,0.7c1.2,0.4,2,0.9,2.4,1.4C1084.4,621,1084.6,621.7,1084.6,622.4z"/>
	<path d="M1096.8,619.8c0,1.8-0.5,3.2-1.4,4.3s-2.2,1.6-3.8,1.6c-1.7,0-3-0.5-3.9-1.5c-0.9-1-1.4-2.5-1.4-4.3c0-1.8,0.5-3.3,1.4-4.3
		c0.9-1,2.2-1.5,3.9-1.5c1.6,0,2.9,0.5,3.8,1.5C1096.3,616.5,1096.8,618,1096.8,619.8z M1087.7,619.8c0,1.5,0.3,2.7,1,3.5
		c0.7,0.8,1.6,1.2,2.8,1.2c1.3,0,2.2-0.4,2.8-1.2c0.6-0.8,1-2,1-3.5c0-1.5-0.3-2.7-1-3.5c-0.6-0.8-1.6-1.2-2.8-1.2
		c-1.3,0-2.2,0.4-2.9,1.2C1088.1,617.1,1087.7,618.3,1087.7,619.8z"/>
	<path d="M1099.3,625.5v-11.3h1.3v10.1h5v1.2H1099.3z"/>
	<path d="M1107.5,625.5v-11.3h1.3v11.3H1107.5z"/>
	<path d="M1116.8,615.2c-1.2,0-2.2,0.4-2.9,1.2s-1.1,2-1.1,3.4c0,1.5,0.3,2.6,1,3.4c0.7,0.8,1.7,1.2,3,1.2c0.8,0,1.7-0.1,2.7-0.4
		v1.2c-0.8,0.3-1.8,0.4-2.9,0.4c-1.7,0-3-0.5-3.9-1.5c-0.9-1-1.4-2.4-1.4-4.3c0-1.2,0.2-2.2,0.7-3.1s1.1-1.6,1.9-2
		c0.8-0.5,1.8-0.7,2.9-0.7c1.2,0,2.2,0.2,3.1,0.7l-0.6,1.1C1118.5,615.4,1117.6,615.2,1116.8,615.2z"/>
	<path d="M1121.9,625.5v-11.3h1.3v11.3H1121.9z"/>
	<path d="M1129.8,625.5h-1.3v-10.1h-3.6v-1.2h8.5v1.2h-3.6V625.5z"/>
	<path d="M1143.7,614.1v7.3c0,1.3-0.4,2.3-1.2,3c-0.8,0.7-1.8,1.1-3.2,1.1s-2.4-0.4-3.2-1.1c-0.7-0.7-1.1-1.8-1.1-3.1v-7.3h1.3v7.4
		c0,0.9,0.3,1.7,0.8,2.2s1.3,0.8,2.3,0.8c1,0,1.7-0.3,2.2-0.8c0.5-0.5,0.8-1.2,0.8-2.2v-7.4H1143.7z"/>
	<path d="M1155.7,619.7c0,1.9-0.5,3.3-1.5,4.3c-1,1-2.5,1.5-4.4,1.5h-3.1v-11.3h3.5c1.8,0,3.1,0.5,4.1,1.5
		C1155.2,616.6,1155.7,617.9,1155.7,619.7z M1154.3,619.7c0-1.5-0.4-2.6-1.1-3.3s-1.8-1.1-3.3-1.1h-1.9v9h1.6c1.6,0,2.7-0.4,3.5-1.2
		C1153.9,622.4,1154.3,621.2,1154.3,619.7z"/>
	<path d="M1164.5,625.5h-6.3v-11.3h6.3v1.2h-5v3.6h4.7v1.2h-4.7v4.2h5V625.5z"/>
	<path d="M1173.4,622.4c0,1-0.4,1.8-1.1,2.3c-0.7,0.6-1.7,0.8-2.9,0.8c-1.3,0-2.4-0.2-3.1-0.5v-1.3c0.5,0.2,1,0.4,1.5,0.5
		c0.5,0.1,1.1,0.2,1.6,0.2c0.9,0,1.5-0.2,2-0.5c0.4-0.3,0.7-0.8,0.7-1.4c0-0.4-0.1-0.7-0.2-1c-0.2-0.2-0.4-0.5-0.8-0.7
		c-0.4-0.2-0.9-0.5-1.7-0.7c-1.1-0.4-1.8-0.8-2.3-1.3c-0.5-0.5-0.7-1.2-0.7-2c0-0.9,0.3-1.6,1-2.1c0.7-0.5,1.5-0.8,2.6-0.8
		c1.1,0,2.2,0.2,3.1,0.6l-0.4,1.1c-0.9-0.4-1.8-0.6-2.7-0.6c-0.7,0-1.2,0.1-1.6,0.4c-0.4,0.3-0.6,0.7-0.6,1.2c0,0.4,0.1,0.7,0.2,1
		s0.4,0.5,0.7,0.7c0.3,0.2,0.9,0.4,1.6,0.7c1.2,0.4,2,0.9,2.4,1.4C1173.2,621,1173.4,621.7,1173.4,622.4z"/>
</g>
<g class="st11">
	<path d="M1084.5,644.5h-6.3v-11.3h6.3v1.2h-5v3.6h4.7v1.2h-4.7v4.2h5V644.5z"/>
	<path d="M1093.4,641.5c0,1-0.4,1.8-1.1,2.3c-0.7,0.6-1.7,0.8-2.9,0.8c-1.3,0-2.4-0.2-3.1-0.5v-1.3c0.5,0.2,1,0.4,1.5,0.5
		c0.5,0.1,1.1,0.2,1.6,0.2c0.9,0,1.5-0.2,2-0.5c0.4-0.3,0.7-0.8,0.7-1.4c0-0.4-0.1-0.7-0.2-1c-0.2-0.2-0.4-0.5-0.8-0.7
		c-0.4-0.2-0.9-0.5-1.7-0.7c-1.1-0.4-1.8-0.8-2.3-1.3c-0.5-0.5-0.7-1.2-0.7-2c0-0.9,0.3-1.6,1-2.1c0.7-0.5,1.5-0.8,2.6-0.8
		c1.1,0,2.2,0.2,3.1,0.6l-0.4,1.1c-0.9-0.4-1.8-0.6-2.7-0.6c-0.7,0-1.2,0.1-1.6,0.4c-0.4,0.3-0.6,0.7-0.6,1.2c0,0.4,0.1,0.7,0.2,1
		s0.4,0.5,0.7,0.7c0.3,0.2,0.9,0.4,1.6,0.7c1.2,0.4,2,0.9,2.4,1.4C1093.2,640.1,1093.4,640.7,1093.4,641.5z"/>
	<path d="M1102.9,636.5c0,1.1-0.4,2-1.2,2.6c-0.8,0.6-1.9,0.9-3.4,0.9h-1.3v4.5h-1.3v-11.3h2.9
		C1101.5,633.2,1102.9,634.3,1102.9,636.5z M1097.1,638.9h1.2c1.2,0,2-0.2,2.5-0.6c0.5-0.4,0.8-1,0.8-1.8c0-0.7-0.2-1.3-0.7-1.7
		s-1.3-0.5-2.3-0.5h-1.5V638.9z"/>
	<path d="M1111.6,644.5h-6.3v-11.3h6.3v1.2h-5v3.6h4.7v1.2h-4.7v4.2h5V644.5z"/>
	<path d="M1119,634.2c-1.2,0-2.2,0.4-2.9,1.2s-1.1,2-1.1,3.4c0,1.5,0.3,2.6,1,3.4c0.7,0.8,1.7,1.2,3,1.2c0.8,0,1.7-0.1,2.7-0.4v1.2
		c-0.8,0.3-1.8,0.4-2.9,0.4c-1.7,0-3-0.5-3.9-1.5c-0.9-1-1.4-2.4-1.4-4.3c0-1.2,0.2-2.2,0.7-3.1s1.1-1.6,1.9-2
		c0.8-0.5,1.8-0.7,2.9-0.7c1.2,0,2.2,0.2,3.1,0.7l-0.6,1.1C1120.7,634.4,1119.8,634.2,1119,634.2z"/>
	<path d="M1123.9,632.1c0.2-0.3,0.5-0.7,0.8-1.2c0.3-0.5,0.5-0.8,0.7-1.2h1.6v0.2c-0.2,0.3-0.6,0.7-1,1.2c-0.4,0.5-0.8,0.9-1.2,1.1
		h-0.9V632.1z M1124.1,644.5v-11.3h1.3v11.3H1124.1z"/>
	<path d="M1129.8,644.5h-1.3v-11.3h6.3v1.2h-5v4.1h4.7v1.2h-4.7V644.5z"/>
	<path d="M1136.7,644.5v-11.3h1.3v11.3H1136.7z"/>
	<path d="M1146,634.2c-1.2,0-2.2,0.4-2.9,1.2s-1.1,2-1.1,3.4c0,1.5,0.3,2.6,1,3.4c0.7,0.8,1.7,1.2,3,1.2c0.8,0,1.7-0.1,2.7-0.4v1.2
		c-0.8,0.3-1.8,0.4-2.9,0.4c-1.7,0-3-0.5-3.9-1.5c-0.9-1-1.4-2.4-1.4-4.3c0-1.2,0.2-2.2,0.7-3.1s1.1-1.6,1.9-2
		c0.8-0.5,1.8-0.7,2.9-0.7c1.2,0,2.2,0.2,3.1,0.7l-0.6,1.1C1147.7,634.4,1146.8,634.2,1146,634.2z"/>
	<path d="M1158.2,644.5l-1.4-3.6h-4.5l-1.4,3.6h-1.3l4.5-11.4h1.1l4.5,11.4H1158.2z M1156.4,639.7l-1.3-3.5c-0.2-0.4-0.3-1-0.5-1.6
		c-0.1,0.5-0.3,1-0.5,1.6l-1.3,3.5H1156.4z"/>
	<path d="M1167.5,641.5c0,1-0.4,1.8-1.1,2.3c-0.7,0.6-1.7,0.8-2.9,0.8c-1.3,0-2.4-0.2-3.1-0.5v-1.3c0.5,0.2,1,0.4,1.5,0.5
		c0.5,0.1,1.1,0.2,1.6,0.2c0.9,0,1.5-0.2,2-0.5c0.4-0.3,0.7-0.8,0.7-1.4c0-0.4-0.1-0.7-0.2-1c-0.2-0.2-0.4-0.5-0.8-0.7
		c-0.4-0.2-0.9-0.5-1.7-0.7c-1.1-0.4-1.8-0.8-2.3-1.3c-0.5-0.5-0.7-1.2-0.7-2c0-0.9,0.3-1.6,1-2.1c0.7-0.5,1.5-0.8,2.6-0.8
		c1.1,0,2.2,0.2,3.1,0.6l-0.4,1.1c-0.9-0.4-1.8-0.6-2.7-0.6c-0.7,0-1.2,0.1-1.6,0.4c-0.4,0.3-0.6,0.7-0.6,1.2c0,0.4,0.1,0.7,0.2,1
		s0.4,0.5,0.7,0.7c0.3,0.2,0.9,0.4,1.6,0.7c1.2,0.4,2,0.9,2.4,1.4C1167.3,640.1,1167.5,640.7,1167.5,641.5z"/>
</g>
<g>
	<path class="st0" d="M1080.9,666.5l6.1-13.4h-8v-2.9h11.7v2.2l-6.2,14.1H1080.9z"/>
	<path class="st0" d="M1103.6,658.4c0,2.8-0.5,4.9-1.4,6.3c-0.9,1.4-2.4,2-4.3,2c-1.9,0-3.3-0.7-4.2-2.1s-1.4-3.5-1.4-6.2
		c0-2.9,0.5-5,1.4-6.3c0.9-1.4,2.4-2,4.3-2c1.9,0,3.3,0.7,4.3,2.1C1103.1,653.6,1103.6,655.7,1103.6,658.4z M1095.6,658.4
		c0,2,0.2,3.4,0.5,4.3s0.9,1.3,1.7,1.3c0.8,0,1.4-0.4,1.7-1.3s0.5-2.3,0.5-4.3c0-2-0.2-3.4-0.5-4.3c-0.4-0.9-0.9-1.3-1.7-1.3
		c-0.8,0-1.4,0.4-1.7,1.3C1095.8,655,1095.6,656.4,1095.6,658.4z"/>
	<path class="st0" d="M1078.4,668.8v-1.1h26v1.1H1078.4z"/>
</g>
<line class="st12" x1="1062.1" y1="624.7" x2="1019.5" y2="667.3"/>
</svg>
