<?xml version="1.0" encoding="utf-8"?>
<svg viewBox="91.43 85.652 663.542 672.858" xmlns="http://www.w3.org/2000/svg">
  <defs>
    <style>.cls-1{fill:#030321;}.cls-15,.cls-2,.cls-3,.cls-32{fill:none;stroke-miterlimit:10;}.cls-15,.cls-2,.cls-32{stroke:#fff;}.cls-2{stroke-width:0.25px;}.cls-3{stroke:#000;}.cls-17,.cls-4{fill:#f93543;}.cls-18,.cls-5{fill:#df4c46;}.cls-19,.cls-6{fill:#f67f47;}.cls-20,.cls-7{fill:#f6a020;}.cls-21,.cls-8{fill:#ffd37c;}.cls-22,.cls-9{fill:#edd38c;}.cls-10,.cls-24{fill:#ffe0d2;}.cls-11,.cls-25{fill:#ecfdb2;}.cls-12,.cls-16,.cls-28,.cls-29,.cls-30{fill:#fff;}.cls-13,.cls-26{fill:#3a5cdb;}.cls-14,.cls-27{fill:#9ce79b;}.cls-16{font-size:22.79px;}.cls-16,.cls-29,.cls-30{font-family:OpenSans-Bold, Open Sans;font-weight:700;}.cls-16,.cls-29{text-decoration:underline;}.cls-17,.cls-18,.cls-19,.cls-20,.cls-21,.cls-22,.cls-24,.cls-25,.cls-26,.cls-27,.cls-28,.cls-30{font-size:22px;}.cls-17,.cls-18,.cls-19,.cls-20,.cls-21,.cls-22,.cls-24,.cls-25,.cls-26,.cls-27,.cls-28{font-family:OpenSans, Open Sans;}.cls-17,.cls-18,.cls-19,.cls-20,.cls-21,.cls-24,.cls-25,.cls-26,.cls-27,.cls-28,.cls-30{letter-spacing:0.04em;}.cls-18,.cls-19,.cls-20,.cls-21,.cls-22,.cls-23,.cls-28{isolation:isolate;}.cls-29{font-size:21.96px;}.cls-31{opacity:0.28;}.cls-32{stroke-width:0.54px;}</style>
  </defs>
  <rect id="backgorund" class="cls-1" x="-685.339" y="-596.905" width="2215.043" height="1970.573" style=""/>
  <line class="cls-2" x1="368.86" y1="694.15" x2="653.17" y2="694.15"/>
  <line class="cls-2" x1="368.86" y1="650.1" x2="653.17" y2="650.1"/>
  <line class="cls-2" x1="368.86" y1="606.05" x2="653.17" y2="606.05"/>
  <line class="cls-2" x1="368.86" y1="562" x2="653.17" y2="562"/>
  <line class="cls-2" x1="368.86" y1="517.69" x2="653.17" y2="517.69"/>
  <line class="cls-2" x1="368.86" y1="473.15" x2="653.17" y2="473.15"/>
  <line class="cls-2" x1="368.86" y1="429.1" x2="653.17" y2="429.1"/>
  <line class="cls-2" x1="368.86" y1="385.05" x2="653.17" y2="385.05"/>
  <line class="cls-2" x1="368.86" y1="341" x2="653.17" y2="341"/>
  <line class="cls-2" x1="368.86" y1="296.17" x2="653.17" y2="296.17"/>
  <line class="cls-2" x1="368.86" y1="249.31" x2="653.17" y2="249.31"/>
  <line class="cls-3" x1="391.86" y1="218.63" x2="406.93" y2="218.63"/>
  <rect class="cls-4" x="402.47" y="230.32" width="104.85" height="44.05"/>
  <rect class="cls-5" x="477.06" y="275.15" width="102.23" height="44.05"/>
  <rect class="cls-6" x="573.03" y="319.97" width="34.08" height="44.05"/>
  <rect class="cls-7" x="600.85" y="364.02" width="32.77" height="44.05"/>
  <rect class="cls-8" x="627.36" y="408.07" width="22.28" height="44.05"/>
  <rect class="cls-9" x="643.38" y="452.13" width="13.11" height="44.05"/>
  <rect class="cls-10" x="650.22" y="496.66" width="9.17" height="44.05"/>
  <rect class="cls-11" x="653.14" y="540.98" width="7.86" height="44.05"/>
  <rect class="cls-12" x="661.75" y="585.03" width="2.62" height="44.05"/>
  <rect class="cls-13" x="666.11" y="629.08" width="2.62" height="44.05"/>
  <rect class="cls-14" x="671.47" y="673.13" width="2.62" height="44.05"/>
  <polyline class="cls-15" points="738.2 197.71 738.2 168.62 401.86 168.62 401.86 197.71"/>
  <text class="cls-16" transform="matrix(1, 0, 0, 1, 688.799988, 259.390015)" style="white-space: pre;">31,6%</text>
  <text class="cls-16" transform="matrix(1, 0, 0, 1, 688.799988, 303.049988)" style="white-space: pre;">30%</text>
  <text class="cls-16" transform="matrix(1, 0, 0, 1, 688.799988, 347.940002)" style="white-space: pre;">10,3%</text>
  <text class="cls-16" transform="matrix(1, 0, 0, 1, 688.799988, 391.880005)" style="white-space: pre;">9,9%</text>
  <text class="cls-16" transform="matrix(1, 0, 0, 1, 688.799988, 433.690002)" style="white-space: pre;">6,7%</text>
  <text class="cls-16" transform="matrix(1, 0, 0, 1, 688.799988, 479.470001)" style="white-space: pre;">3,9%</text>
  <text class="cls-16" transform="matrix(1, 0, 0, 1, 688.799988, 520.309998)" style="white-space: pre;">2,8%</text>
  <text class="cls-16" transform="matrix(1, 0, 0, 1, 688.799988, 567.190002)" style="white-space: pre;">2,4%</text>
  <text class="cls-16" transform="matrix(1, 0, 0, 1, 688.799988, 615.200012)" style="white-space: pre;">0,8%</text>
  <text class="cls-16" transform="matrix(1, 0, 0, 1, 688.799988, 659.01001)" style="white-space: pre;">0,8%</text>
  <text class="cls-16" transform="matrix(1, 0, 0, 1, 688.799988, 699.549988)" style="white-space: pre;">0,8%</text>
  <path d="M 153.686 253.177 L 153.686 259.387 L 150.416 259.387 L 150.416 243.677 L 159.416 243.677 L 159.416 246.407 L 153.686 246.407 L 153.686 250.457 L 159.016 250.457 L 159.016 253.177 L 153.686 253.177 ZM 173.068 259.387 L 163.368 259.387 L 163.368 243.677 L 166.698 243.677 L 166.698 256.637 L 173.068 256.637 L 173.068 259.387 ZM 186.134 243.677 L 189.454 243.677 L 189.454 253.847 C 189.454 255.007 189.194 256.024 188.674 256.897 C 188.154 257.77 187.404 258.44 186.424 258.907 C 185.444 259.367 184.284 259.597 182.944 259.597 C 180.924 259.597 179.354 259.08 178.234 258.047 C 177.121 257.014 176.564 255.597 176.564 253.797 L 176.564 243.677 L 179.884 243.677 L 179.884 253.297 C 179.884 254.504 180.127 255.39 180.614 255.957 C 181.101 256.524 181.907 256.807 183.034 256.807 C 184.121 256.807 184.907 256.524 185.394 255.957 C 185.887 255.384 186.134 254.49 186.134 253.277 L 186.134 243.677 ZM 201.569 251.467 L 206.869 259.387 L 203.069 259.387 L 199.419 253.447 L 195.769 259.387 L 192.199 259.387 L 197.409 251.287 L 192.529 243.677 L 196.209 243.677 L 199.589 249.337 L 202.909 243.677 L 206.499 243.677 L 201.569 251.467 ZM 223.98 251.517 C 223.98 254.117 223.337 256.114 222.05 257.507 C 220.757 258.9 218.907 259.597 216.5 259.597 C 214.1 259.597 212.253 258.9 210.96 257.507 C 209.673 256.114 209.03 254.107 209.03 251.487 C 209.03 248.874 209.677 246.88 210.97 245.507 C 212.263 244.127 214.117 243.437 216.53 243.437 C 218.943 243.437 220.787 244.13 222.06 245.517 C 223.34 246.91 223.98 248.91 223.98 251.517 Z M 212.52 251.517 C 212.52 253.27 212.853 254.59 213.52 255.477 C 214.187 256.364 215.18 256.807 216.5 256.807 C 219.16 256.807 220.49 255.044 220.49 251.517 C 220.49 247.977 219.17 246.207 216.53 246.207 C 215.203 246.207 214.203 246.654 213.53 247.547 C 212.857 248.434 212.52 249.757 212.52 251.517 ZM 247.74 251.387 C 247.74 253.967 247.003 255.947 245.53 257.327 C 244.057 258.7 241.93 259.387 239.15 259.387 L 234.71 259.387 L 234.71 243.677 L 239.64 243.677 C 242.2 243.677 244.19 244.357 245.61 245.717 C 247.03 247.07 247.74 248.96 247.74 251.387 Z M 244.28 251.467 C 244.28 248.094 242.79 246.407 239.81 246.407 L 238.04 246.407 L 238.04 256.637 L 239.47 256.637 C 242.677 256.637 244.28 254.914 244.28 251.467 ZM 260.912 256.637 L 260.912 259.387 L 251.872 259.387 L 251.872 243.677 L 260.912 243.677 L 260.912 246.407 L 255.202 246.407 L 255.202 249.857 L 260.512 249.857 L 260.512 252.587 L 255.202 252.587 L 255.202 256.637 L 260.912 256.637 ZM 274.994 246.407 L 274.994 251.077 L 276.084 251.077 C 277.111 251.077 277.877 250.874 278.384 250.467 C 278.891 250.06 279.144 249.47 279.144 248.697 C 279.144 247.917 278.931 247.34 278.504 246.967 C 278.084 246.594 277.417 246.407 276.504 246.407 L 274.994 246.407 Z M 282.514 248.577 C 282.514 250.27 281.984 251.564 280.924 252.457 C 279.871 253.35 278.371 253.797 276.424 253.797 L 274.994 253.797 L 274.994 259.387 L 271.664 259.387 L 271.664 243.677 L 276.674 243.677 C 278.581 243.677 280.031 244.087 281.024 244.907 C 282.017 245.727 282.514 246.95 282.514 248.577 ZM 295.396 256.637 L 295.396 259.387 L 286.356 259.387 L 286.356 243.677 L 295.396 243.677 L 295.396 246.407 L 289.686 246.407 L 289.686 249.857 L 294.996 249.857 L 294.996 252.587 L 289.686 252.587 L 289.686 256.637 L 295.396 256.637 ZM 308.824 255.027 C 308.824 256.447 308.314 257.564 307.294 258.377 C 306.274 259.19 304.854 259.597 303.034 259.597 C 301.354 259.597 299.871 259.284 298.584 258.657 L 298.584 255.567 C 299.644 256.034 300.541 256.364 301.274 256.557 C 302.008 256.75 302.678 256.847 303.284 256.847 C 304.018 256.847 304.581 256.71 304.974 256.437 C 305.361 256.157 305.554 255.74 305.554 255.187 C 305.554 254.88 305.468 254.607 305.294 254.367 C 305.128 254.127 304.878 253.897 304.544 253.677 C 304.211 253.45 303.531 253.094 302.504 252.607 C 301.544 252.154 300.824 251.72 300.344 251.307 C 299.864 250.894 299.481 250.41 299.194 249.857 C 298.908 249.304 298.764 248.66 298.764 247.927 C 298.764 246.534 299.234 245.44 300.174 244.647 C 301.121 243.854 302.424 243.457 304.084 243.457 C 304.898 243.457 305.678 243.554 306.424 243.747 C 307.164 243.94 307.938 244.214 308.744 244.567 L 307.674 247.147 C 306.834 246.807 306.141 246.567 305.594 246.427 C 305.048 246.294 304.508 246.227 303.974 246.227 C 303.348 246.227 302.864 246.374 302.524 246.667 C 302.191 246.96 302.024 247.344 302.024 247.817 C 302.024 248.11 302.091 248.367 302.224 248.587 C 302.364 248.807 302.581 249.017 302.874 249.217 C 303.174 249.424 303.878 249.79 304.984 250.317 C 306.451 251.024 307.458 251.727 308.004 252.427 C 308.551 253.134 308.824 254 308.824 255.027 ZM 321.819 255.027 C 321.819 256.447 321.309 257.564 320.289 258.377 C 319.269 259.19 317.849 259.597 316.029 259.597 C 314.349 259.597 312.866 259.284 311.579 258.657 L 311.579 255.567 C 312.639 256.034 313.536 256.364 314.269 256.557 C 315.002 256.75 315.672 256.847 316.279 256.847 C 317.012 256.847 317.576 256.71 317.969 256.437 C 318.356 256.157 318.549 255.74 318.549 255.187 C 318.549 254.88 318.462 254.607 318.289 254.367 C 318.122 254.127 317.872 253.897 317.539 253.677 C 317.206 253.45 316.526 253.094 315.499 252.607 C 314.539 252.154 313.819 251.72 313.339 251.307 C 312.859 250.894 312.476 250.41 312.189 249.857 C 311.902 249.304 311.759 248.66 311.759 247.927 C 311.759 246.534 312.229 245.44 313.169 244.647 C 314.116 243.854 315.419 243.457 317.079 243.457 C 317.892 243.457 318.672 243.554 319.419 243.747 C 320.159 243.94 320.932 244.214 321.739 244.567 L 320.669 247.147 C 319.829 246.807 319.136 246.567 318.589 246.427 C 318.042 246.294 317.502 246.227 316.969 246.227 C 316.342 246.227 315.859 246.374 315.519 246.667 C 315.186 246.96 315.019 247.344 315.019 247.817 C 315.019 248.11 315.086 248.367 315.219 248.587 C 315.359 248.807 315.576 249.017 315.869 249.217 C 316.169 249.424 316.872 249.79 317.979 250.317 C 319.446 251.024 320.452 251.727 320.999 252.427 C 321.546 253.134 321.819 254 321.819 255.027 ZM 339.794 251.517 C 339.794 254.117 339.151 256.114 337.864 257.507 C 336.571 258.9 334.721 259.597 332.314 259.597 C 329.914 259.597 328.067 258.9 326.774 257.507 C 325.487 256.114 324.844 254.107 324.844 251.487 C 324.844 248.874 325.491 246.88 326.784 245.507 C 328.077 244.127 329.931 243.437 332.344 243.437 C 334.757 243.437 336.601 244.13 337.874 245.517 C 339.154 246.91 339.794 248.91 339.794 251.517 Z M 328.334 251.517 C 328.334 253.27 328.667 254.59 329.334 255.477 C 330.001 256.364 330.994 256.807 332.314 256.807 C 334.974 256.807 336.304 255.044 336.304 251.517 C 336.304 247.977 334.984 246.207 332.344 246.207 C 331.017 246.207 330.017 246.654 329.344 247.547 C 328.671 248.434 328.334 249.757 328.334 251.517 ZM 357.13 259.387 L 353.54 259.387 L 352.4 255.647 L 346.68 255.647 L 345.54 259.387 L 341.95 259.387 L 347.49 243.617 L 351.56 243.617 L 357.13 259.387 Z M 347.51 252.857 L 351.61 252.857 C 350.557 249.47 349.963 247.554 349.83 247.107 C 349.697 246.667 349.6 246.317 349.54 246.057 C 349.307 246.97 348.63 249.237 347.51 252.857 ZM 369.256 255.027 C 369.256 256.447 368.746 257.564 367.726 258.377 C 366.706 259.19 365.286 259.597 363.466 259.597 C 361.786 259.597 360.302 259.284 359.016 258.657 L 359.016 255.567 C 360.076 256.034 360.972 256.364 361.706 256.557 C 362.439 256.75 363.109 256.847 363.716 256.847 C 364.449 256.847 365.012 256.71 365.406 256.437 C 365.792 256.157 365.986 255.74 365.986 255.187 C 365.986 254.88 365.899 254.607 365.726 254.367 C 365.559 254.127 365.309 253.897 364.976 253.677 C 364.642 253.45 363.962 253.094 362.936 252.607 C 361.976 252.154 361.256 251.72 360.776 251.307 C 360.296 250.894 359.912 250.41 359.626 249.857 C 359.339 249.304 359.196 248.66 359.196 247.927 C 359.196 246.534 359.666 245.44 360.606 244.647 C 361.552 243.854 362.856 243.457 364.516 243.457 C 365.329 243.457 366.109 243.554 366.856 243.747 C 367.596 243.94 368.369 244.214 369.176 244.567 L 368.106 247.147 C 367.266 246.807 366.572 246.567 366.026 246.427 C 365.479 246.294 364.939 246.227 364.406 246.227 C 363.779 246.227 363.296 246.374 362.956 246.667 C 362.622 246.96 362.456 247.344 362.456 247.817 C 362.456 248.11 362.522 248.367 362.656 248.587 C 362.796 248.807 363.012 249.017 363.306 249.217 C 363.606 249.424 364.309 249.79 365.416 250.317 C 366.882 251.024 367.889 251.727 368.436 252.427 C 368.982 253.134 369.256 254 369.256 255.027 Z" transform="matrix(1, 0, 0, 1, 0, 0)" style="white-space: pre;"/>
  <path d="M 8.04 -12.93 L 8.04 0 L 4.71 0 L 4.71 -12.93 L 0.44 -12.93 L 0.44 -15.71 L 12.3 -15.71 L 12.3 -12.93 L 8.04 -12.93 ZM 24.638 -2.75 L 24.638 0 L 15.598 0 L 15.598 -15.71 L 24.638 -15.71 L 24.638 -12.98 L 18.928 -12.98 L 18.928 -9.53 L 24.238 -9.53 L 24.238 -6.8 L 18.928 -6.8 L 18.928 -2.75 L 24.638 -2.75 ZM 38.496 0 L 28.796 0 L 28.796 -15.71 L 32.126 -15.71 L 32.126 -2.75 L 38.496 -2.75 L 38.496 0 ZM 51.142 -2.75 L 51.142 0 L 42.102 0 L 42.102 -15.71 L 51.142 -15.71 L 51.142 -12.98 L 45.432 -12.98 L 45.432 -9.53 L 50.742 -9.53 L 50.742 -6.8 L 45.432 -6.8 L 45.432 -2.75 L 51.142 -2.75 ZM 65.001 0 L 61.951 0 L 58.161 -12.32 L 58.071 -12.32 C 58.205 -9.813 58.271 -8.14 58.271 -7.3 L 58.271 0 L 55.301 0 L 55.301 -15.71 L 59.831 -15.71 L 63.551 -3.7 L 63.611 -3.7 L 67.551 -15.71 L 72.091 -15.71 L 72.091 0 L 68.981 0 L 68.981 -7.43 C 68.981 -7.783 68.988 -8.19 69.001 -8.65 C 69.008 -9.103 69.055 -10.32 69.141 -12.3 L 69.051 -12.3 L 65.001 0 ZM 85.96 -2.75 L 85.96 0 L 76.92 0 L 76.92 -15.71 L 85.96 -15.71 L 85.96 -12.98 L 80.25 -12.98 L 80.25 -9.53 L 85.56 -9.53 L 85.56 -6.8 L 80.25 -6.8 L 80.25 -2.75 L 85.96 -2.75 ZM 103.149 -8 C 103.149 -5.42 102.412 -3.44 100.939 -2.06 C 99.466 -0.687 97.339 0 94.559 0 L 90.119 0 L 90.119 -15.71 L 95.049 -15.71 C 97.609 -15.71 99.599 -15.03 101.019 -13.67 C 102.439 -12.317 103.149 -10.427 103.149 -8 Z M 99.689 -7.92 C 99.689 -11.293 98.199 -12.98 95.219 -12.98 L 93.449 -12.98 L 93.449 -2.75 L 94.879 -2.75 C 98.086 -2.75 99.689 -4.473 99.689 -7.92 ZM 110.611 0 L 107.281 0 L 107.281 -15.71 L 110.611 -15.71 L 110.611 0 ZM 122.112 -13.16 C 120.859 -13.16 119.889 -12.69 119.202 -11.75 C 118.516 -10.803 118.172 -9.49 118.172 -7.81 C 118.172 -4.31 119.486 -2.56 122.112 -2.56 C 123.212 -2.56 124.546 -2.833 126.112 -3.38 L 126.112 -0.59 C 124.826 -0.057 123.389 0.21 121.802 0.21 C 119.516 0.21 117.766 -0.48 116.552 -1.86 C 115.346 -3.247 114.742 -5.237 114.742 -7.83 C 114.742 -9.463 115.039 -10.893 115.632 -12.12 C 116.226 -13.347 117.079 -14.29 118.192 -14.95 C 119.306 -15.603 120.612 -15.93 122.112 -15.93 C 123.639 -15.93 125.172 -15.56 126.712 -14.82 L 125.632 -12.12 C 125.046 -12.4 124.456 -12.643 123.862 -12.85 C 123.269 -13.057 122.686 -13.16 122.112 -13.16 ZM 133.668 0 L 130.338 0 L 130.338 -15.71 L 133.668 -15.71 L 133.668 0 ZM 152.43 -15.71 L 152.43 0 L 148.2 0 L 141.36 -11.88 L 141.27 -11.88 C 141.403 -9.78 141.47 -8.283 141.47 -7.39 L 141.47 0 L 138.5 0 L 138.5 -15.71 L 142.7 -15.71 L 149.52 -3.94 L 149.59 -3.94 C 149.483 -5.98 149.43 -7.423 149.43 -8.27 L 149.43 -15.71 L 152.43 -15.71 ZM 170.462 0 L 166.872 0 L 165.732 -3.74 L 160.012 -3.74 L 158.872 0 L 155.282 0 L 160.822 -15.77 L 164.892 -15.77 L 170.462 0 Z M 160.842 -6.53 L 164.942 -6.53 C 163.888 -9.917 163.295 -11.833 163.162 -12.28 C 163.028 -12.72 162.932 -13.07 162.872 -13.33 C 162.638 -12.417 161.962 -10.15 160.842 -6.53 Z" transform="matrix(1, 0, 0, 1, 200.8300018310547, 303.04998779296875)" style="white-space: pre;"/>
  <text class="cls-19" style="font-weight: 700; white-space: pre;" x="165.663" y="346.646">TEMP. CORPORAL</text>
  <text class="cls-20" style="font-weight: 700; white-space: pre;" transform="matrix(1, 0, 0, 1, 91.43, 391.929993)">EVOLUÇÃO DA COVID-19</text>
  <text class="cls-21" style="font-weight: 700; white-space: pre;" x="159.033" y="433.69">RASTR. CONTATOS</text>
  <text class="cls-22" style="font-weight: 700; white-space: pre;" x="135.956" y="479.471">FORN. INFORMAÇÕES</text>
  <g class="cls-23">
    <text class="cls-24" style="font-weight: 700; white-space: pre;" x="197.344" y="523.185">ID.DE PESSOAS</text>
  </g>
  <g class="cls-23">
    <text class="cls-25" style="font-weight: 700; white-space: pre;" transform="translate(156.6 556.5)"><tspan>DIGITALIZAÇÃO DE</tspan><tspan x="-17.61" y="22">SERVIÇOS PÚBLICOS</tspan></text>
  </g>
  <text class="cls-26" style="font-weight: 700; white-space: pre;" transform="matrix(1, 0, 0, 1, 167.539993, 655.840027)">NÃO INFORMADO</text>
  <g class="cls-23">
    <text class="cls-27" style="font-weight: 700; white-space: pre;" transform="translate(158.02 700.15)">ARMAZENAMENTO</text>
  </g>
  <text class="cls-28" style="font-weight: 700; white-space: pre; font-size: 22px;" x="165.656" y="613.903">USO DE MÁSCARA</text>
  <rect class="cls-1" x="507.78" y="152" width="125.59" height="33.24"/>
  <text class="cls-29" transform="matrix(1, 0, 0, 1, 518.630005, 174.100006)" style="white-space: pre;">TOTAL 253</text>
  <text class="cls-30" style="white-space: pre;" transform="matrix(1, 0, 0, 1, 144.240005, 172.910004)">FUNCIONALIDADE</text>
  <g class="cls-31">
    <path class="cls-12" d="M358.94,187.9v-3.83l-4,3.83v-6.55h-2.88v6.55l-4-3.83v3.83l5.43,5Z"/>
  </g>
</svg>