<svg width="136" height="33" viewBox="0 0 136 33" fill="none" xmlns="http://www.w3.org/2000/svg">
<g clip-path="url(#clip0)">
<path d="M135.8 0H0V18H135.8V0Z" fill="#BFBD41"/>
<path d="M12.8223 9.42832C12.68 10.6456 12.2294 11.5863 11.4706 12.2502C10.717 12.9089 9.71317 13.2383 8.45899 13.2383C7.09942 13.2383 6.0086 12.7508 5.18653 11.776C4.36973 10.8011 3.96133 9.49683 3.96133 7.86324V6.75661C3.96133 5.68687 4.15104 4.74623 4.53046 3.9347C4.91514 3.12317 5.45792 2.50135 6.15878 2.06924C6.85965 1.63186 7.67117 1.41317 8.59337 1.41317C9.81593 1.41317 10.7961 1.7557 11.5338 2.44075C12.2716 3.12054 12.7011 4.06381 12.8223 5.27056H11.2967C11.165 4.35364 10.8778 3.68966 10.4351 3.27863C9.99773 2.8676 9.38381 2.66208 8.59337 2.66208C7.62375 2.66208 6.86228 3.02042 6.30897 3.73709C5.76092 4.45376 5.4869 5.47344 5.4869 6.79613V7.91066C5.4869 9.15957 5.74775 10.1529 6.26944 10.8907C6.79114 11.6284 7.52099 11.9973 8.45899 11.9973C9.30214 11.9973 9.94767 11.8076 10.3956 11.4282C10.8488 11.0435 11.1492 10.3769 11.2967 9.42832H12.8223ZM23.7542 7.69724C23.7542 8.82495 23.5645 9.81038 23.1851 10.6535C22.8056 11.4914 22.2681 12.1317 21.5725 12.5743C20.8769 13.017 20.0654 13.2383 19.138 13.2383C18.2316 13.2383 17.428 13.017 16.7271 12.5743C16.0262 12.1264 15.4808 11.4914 15.0909 10.6693C14.7062 9.84199 14.5086 8.88555 14.498 7.8V6.97003C14.498 5.8634 14.6904 4.88588 15.075 4.03746C15.4597 3.18905 16.0025 2.54088 16.7034 2.09296C17.4095 1.63976 18.2158 1.41317 19.1221 1.41317C20.0443 1.41317 20.8559 1.63713 21.5567 2.08505C22.2629 2.5277 22.8056 3.17324 23.1851 4.02165C23.5645 4.8648 23.7542 5.84759 23.7542 6.97003V7.69724ZM22.2444 6.95422C22.2444 5.58938 21.9704 4.54335 21.4224 3.81614C20.8743 3.08365 20.1076 2.71741 19.1221 2.71741C18.1631 2.71741 17.4069 3.08365 16.8536 3.81614C16.3055 4.54335 16.0236 5.55512 16.0078 6.85146V7.69724C16.0078 9.01993 16.2844 10.0607 16.8378 10.8195C17.3963 11.5731 18.1631 11.9499 19.138 11.9499C20.1181 11.9499 20.8769 11.5942 21.4145 10.8828C21.952 10.1661 22.2286 9.14113 22.2444 7.8079V6.95422ZM27.991 1.57126L31.7535 10.9618L35.5161 1.57126H37.4843V13.0802H35.9666V8.59835L36.1089 3.7608L32.3306 13.0802H31.1686L27.3982 3.78452L27.5483 8.59835V13.0802H26.0307V1.57126H27.991ZM41.6816 8.57464V13.0802H40.1639V1.57126H44.4086C45.6681 1.57126 46.6535 1.89271 47.3649 2.53561C48.0816 3.17851 48.4399 4.02956 48.4399 5.08876C48.4399 6.20593 48.0895 7.06752 47.3886 7.67353C46.693 8.27427 45.6944 8.57464 44.3928 8.57464H41.6816ZM41.6816 7.33363H44.4086C45.2201 7.33363 45.842 7.14393 46.2741 6.76451C46.7062 6.37983 46.9222 5.82651 46.9222 5.10457C46.9222 4.41951 46.7062 3.87147 46.2741 3.46043C45.842 3.0494 45.2491 2.83598 44.4956 2.82017H41.6816V7.33363ZM55.6409 10.0765H50.8192L49.7362 13.0802H48.1712L52.5661 1.57126H53.894L58.2968 13.0802H56.7396L55.6409 10.0765ZM51.2776 8.82758H55.1903L53.23 3.44462L51.2776 8.82758ZM64.0671 8.42445H61.3638V13.0802H59.8382V1.57126H63.6482C64.9445 1.57126 65.9405 1.86636 66.6361 2.45656C67.3369 3.04676 67.6874 3.90572 67.6874 5.03343C67.6874 5.7501 67.4924 6.37456 67.1024 6.90679C66.7177 7.43903 66.1802 7.83689 65.4899 8.10037L68.1932 12.9853V13.0802H66.5649L64.0671 8.42445ZM61.3638 7.18345H63.6956C64.4491 7.18345 65.0472 6.98847 65.4899 6.59852C65.9378 6.20856 66.1618 5.68687 66.1618 5.03343C66.1618 4.32202 65.9484 3.77661 65.5215 3.3972C65.0999 3.01778 64.4887 2.82544 63.6877 2.82017H61.3638V7.18345ZM77.1411 2.82017H73.4418V13.0802H71.9321V2.82017H68.2407V1.57126H77.1411V2.82017ZM80.4768 13.0802H78.9592V1.57126H80.4768V13.0802ZM84.7848 11.8392H90.2389V13.0802H83.2592V1.57126H84.7848V11.8392ZM100.815 13.0802H99.2895V7.76048H93.4876V13.0802H91.97V1.57126H93.4876V6.51947H99.2895V1.57126H100.815V13.0802ZM110.008 10.0765H105.186L104.103 13.0802H102.538L106.933 1.57126H108.261L112.664 13.0802H111.107L110.008 10.0765ZM105.645 8.82758H109.557L107.597 3.44462L105.645 8.82758ZM118.434 8.42445H115.731V13.0802H114.205V1.57126H118.015C119.312 1.57126 120.308 1.86636 121.003 2.45656C121.704 3.04676 122.054 3.90572 122.054 5.03343C122.054 5.7501 121.859 6.37456 121.47 6.90679C121.085 7.43903 120.547 7.83689 119.857 8.10037L122.56 12.9853V13.0802H120.932L118.434 8.42445ZM115.731 7.18345H118.063C118.816 7.18345 119.414 6.98847 119.857 6.59852C120.305 6.20856 120.529 5.68687 120.529 5.03343C120.529 4.32202 120.315 3.77661 119.889 3.3972C119.467 3.01778 118.856 2.82544 118.055 2.82017H115.731V7.18345Z" fill="#494A69"/>
<path d="M119 14.3V33L102.9 16.9L119 14.3Z" fill="#BFBD41"/>
</g>
<defs>
<clipPath id="clip0">
<rect width="135.8" height="33" fill="white"/>
</clipPath>
</defs>
</svg>
