<?xml version="1.0" encoding="utf-8"?>
<svg viewBox="-39.297 -88.789 946.111 2081.339" xmlns="http://www.w3.org/2000/svg">
  <defs>
    <style>.cls-1{fill:#030321;}.cls-16,.cls-2{fill:none;stroke:#fff;stroke-miterlimit:10;}.cls-2{stroke-width:0.54px;}.cls-11,.cls-3,.cls-7{isolation:isolate;}.cls-3,.cls-4,.cls-7{font-size:22px;}.cls-14,.cls-18,.cls-19,.cls-3,.cls-4,.cls-7,.cls-9{fill:#fff;}.cls-14,.cls-19,.cls-3,.cls-7{font-family:OpenSans, Open Sans;}.cls-3{letter-spacing:0.04em;}.cls-18,.cls-4{font-family:OpenSans-Bold, Open Sans;font-weight:700;}.cls-5{fill:#1c4ef0;}.cls-6{fill:#f8ee5c;}.cls-7{letter-spacing:0.04em;}.cls-8{fill:#24a122;}.cls-10{fill:#83e084;}.cls-12{fill:#df4c46;}.cls-13{fill:#8550a5;}.cls-14,.cls-19{font-size:26px;}.cls-14{letter-spacing:0.04em;}.cls-15{fill:#3a5cdb;}.cls-16{stroke-width:0.29px;}.cls-17{opacity:0.44;}.cls-18{font-size:32px;}.cls-19{letter-spacing:0.04em;}</style>
  </defs>
  <rect id="backgorund" class="cls-1" x="-1429.078" y="-1210.18" width="3298.133" height="4179.413" style=""/>
  <text class="cls-3" style="font-size: 31.9px; font-weight: 700; white-space: pre;" x="32.56" y="100.766">EMPRESA PRIVADA </text>
  <text class="cls-4" style="white-space: pre; font-size: 42.1px;" x="37.567" y="30.31">148</text>
  <rect class="cls-5" x="37.562" y="42.172" width="111.81" height="12.08"/>
  <text class="cls-3" style="font-size: 28.4px; font-weight: 700; white-space: pre;" x="34.394" y="234.18">EMPRESA PÚBLICA </text>
  <text class="cls-4" style="white-space: pre; font-size: 49.6px;" x="34.38" y="177.504">8</text>
  <rect class="cls-6" x="34.38" y="191.344" width="111.81" height="12.08"/>
  <text class="cls-7" style="font-weight: 700; white-space: pre;" y="-60.232"><tspan x="46.519" y="365.375" style="font-size: 23.9px; word-spacing: 0px; letter-spacing: 0.96px;">INICIATIVA </tspan><tspan style="font-size: 29.3px; letter-spacing: 1.17px; word-spacing: 0px;" x="46.519" y="391.775">PÚBLICO-PRIVADA </tspan></text>
  <text class="cls-4" style="white-space: pre; font-size: 51.6px;" x="39.033" y="311.804">5</text>
  <rect class="cls-8" x="43.33" y="327.609" width="111.81" height="12.08"/>
  <path d="M 419.339 110.471 L 414.499 110.471 L 414.499 87.631 L 419.339 87.631 L 419.339 110.471 ZM 446.231 87.631 L 446.231 110.471 L 440.071 110.471 L 430.141 93.191 L 430.001 93.191 C 430.194 96.244 430.291 98.421 430.291 99.721 L 430.291 110.471 L 425.971 110.471 L 425.971 87.631 L 432.071 87.631 L 442.001 104.741 L 442.111 104.741 C 441.951 101.768 441.871 99.668 441.871 98.441 L 441.871 87.631 L 446.231 87.631 ZM 466.343 104.131 C 466.343 106.191 465.599 107.814 464.113 109.001 C 462.633 110.188 460.569 110.781 457.923 110.781 C 455.483 110.781 453.326 110.324 451.453 109.411 L 451.453 104.911 C 452.993 105.598 454.296 106.081 455.363 106.361 C 456.429 106.641 457.406 106.781 458.293 106.781 C 459.359 106.781 460.176 106.578 460.743 106.171 C 461.309 105.764 461.593 105.161 461.593 104.361 C 461.593 103.914 461.466 103.518 461.213 103.171 C 460.966 102.818 460.599 102.481 460.113 102.161 C 459.633 101.834 458.646 101.318 457.153 100.611 C 455.759 99.958 454.713 99.328 454.013 98.721 C 453.313 98.114 452.756 97.411 452.343 96.611 C 451.923 95.811 451.713 94.874 451.713 93.801 C 451.713 91.781 452.399 90.191 453.773 89.031 C 455.139 87.878 457.033 87.301 459.453 87.301 C 460.639 87.301 461.773 87.441 462.853 87.721 C 463.926 88.001 465.053 88.398 466.233 88.911 L 464.673 92.671 C 463.453 92.171 462.443 91.824 461.643 91.631 C 460.849 91.431 460.066 91.331 459.293 91.331 C 458.379 91.331 457.676 91.544 457.183 91.971 C 456.696 92.398 456.453 92.954 456.453 93.641 C 456.453 94.068 456.553 94.441 456.753 94.761 C 456.946 95.081 457.259 95.388 457.693 95.681 C 458.126 95.981 459.149 96.514 460.763 97.281 C 462.896 98.301 464.359 99.324 465.153 100.351 C 465.946 101.378 466.343 102.638 466.343 104.131 ZM 480.175 91.661 L 480.175 110.471 L 475.325 110.471 L 475.325 91.661 L 469.125 91.661 L 469.125 87.631 L 486.375 87.631 L 486.375 91.661 L 480.175 91.661 ZM 495.614 110.471 L 490.774 110.471 L 490.774 87.631 L 495.614 87.631 L 495.614 110.471 ZM 511.056 91.661 L 511.056 110.471 L 506.206 110.471 L 506.206 91.661 L 500.006 91.661 L 500.006 87.631 L 517.256 87.631 L 517.256 91.661 L 511.056 91.661 ZM 535.414 87.631 L 540.244 87.631 L 540.244 102.411 C 540.244 104.098 539.868 105.574 539.114 106.841 C 538.354 108.114 537.261 109.091 535.834 109.771 C 534.408 110.444 532.721 110.781 530.774 110.781 C 527.834 110.781 525.554 110.028 523.934 108.521 C 522.308 107.021 521.494 104.961 521.494 102.341 L 521.494 87.631 L 526.324 87.631 L 526.324 101.611 C 526.324 103.371 526.678 104.664 527.384 105.491 C 528.091 106.311 529.264 106.721 530.904 106.721 C 532.484 106.721 533.631 106.308 534.344 105.481 C 535.058 104.654 535.414 103.354 535.414 101.581 L 535.414 87.631 ZM 551.558 110.471 L 546.718 110.471 L 546.718 87.631 L 551.558 87.631 L 551.558 110.471 ZM 567.89 91.331 C 566.064 91.331 564.65 92.014 563.65 93.381 C 562.65 94.754 562.15 96.664 562.15 99.111 C 562.15 104.204 564.064 106.751 567.89 106.751 C 569.49 106.751 571.434 106.351 573.72 105.551 L 573.72 109.611 C 571.84 110.391 569.747 110.781 567.44 110.781 C 564.114 110.781 561.57 109.774 559.81 107.761 C 558.05 105.748 557.17 102.854 557.17 99.081 C 557.17 96.708 557.604 94.628 558.47 92.841 C 559.33 91.054 560.57 89.684 562.19 88.731 C 563.81 87.778 565.71 87.301 567.89 87.301 C 570.11 87.301 572.34 87.838 574.58 88.911 L 573.01 92.841 C 572.157 92.441 571.3 92.088 570.44 91.781 C 569.574 91.481 568.724 91.331 567.89 91.331 Z M 570.29 114.381 C 570.29 115.714 569.897 116.678 569.11 117.271 C 568.33 117.864 567.117 118.161 565.47 118.161 C 564.657 118.161 563.897 118.051 563.19 117.831 L 563.19 115.201 C 563.47 115.274 563.847 115.348 564.32 115.421 C 564.794 115.494 565.16 115.531 565.42 115.531 C 566.167 115.531 566.54 115.208 566.54 114.561 C 566.54 113.701 565.677 113.141 563.95 112.881 L 565.17 110.471 L 568.19 110.471 L 567.76 111.421 C 568.534 111.674 569.15 112.064 569.61 112.591 C 570.064 113.118 570.29 113.714 570.29 114.381 ZM 598.658 110.471 L 593.438 110.471 L 591.778 105.031 L 583.458 105.031 L 581.798 110.471 L 576.578 110.471 L 584.638 87.531 L 590.558 87.531 L 598.658 110.471 Z M 584.668 100.971 L 590.628 100.971 C 589.094 96.044 588.231 93.258 588.038 92.611 C 587.844 91.964 587.708 91.454 587.628 91.081 C 587.281 92.414 586.294 95.711 584.668 100.971 Z M 585.058 84.161 C 584.738 84.161 584.428 84.298 584.128 84.571 C 583.834 84.851 583.621 85.271 583.488 85.831 L 581.158 85.831 C 581.271 84.318 581.701 83.134 582.448 82.281 C 583.188 81.428 584.174 81.001 585.408 81.001 C 585.834 81.001 586.254 81.088 586.668 81.261 C 587.074 81.434 587.478 81.621 587.878 81.821 C 588.284 82.028 588.678 82.214 589.058 82.381 C 589.444 82.548 589.828 82.631 590.208 82.631 C 590.528 82.631 590.834 82.494 591.128 82.221 C 591.428 81.948 591.644 81.531 591.778 80.971 L 594.108 80.971 C 593.994 82.484 593.561 83.668 592.808 84.521 C 592.048 85.374 591.064 85.801 589.858 85.801 C 589.431 85.801 589.011 85.714 588.598 85.541 C 588.191 85.368 587.784 85.181 587.378 84.981 C 586.978 84.774 586.588 84.588 586.208 84.421 C 585.821 84.248 585.438 84.161 585.058 84.161 ZM 623.142 99.021 C 623.142 102.801 622.206 105.708 620.332 107.741 C 618.452 109.768 615.762 110.781 612.262 110.781 C 608.762 110.781 606.076 109.768 604.202 107.741 C 602.329 105.708 601.392 102.791 601.392 98.991 C 601.392 95.184 602.332 92.278 604.212 90.271 C 606.092 88.271 608.789 87.271 612.302 87.271 C 615.809 87.271 618.492 88.281 620.352 90.301 C 622.212 92.321 623.142 95.228 623.142 99.021 Z M 606.472 99.021 C 606.472 101.568 606.956 103.488 607.922 104.781 C 608.889 106.074 610.336 106.721 612.262 106.721 C 616.129 106.721 618.062 104.154 618.062 99.021 C 618.062 93.874 616.142 91.301 612.302 91.301 C 610.376 91.301 608.922 91.948 607.942 93.241 C 606.962 94.541 606.472 96.468 606.472 99.021 ZM 656.899 98.831 C 656.899 102.591 655.829 105.471 653.689 107.471 C 651.549 109.471 648.455 110.471 644.409 110.471 L 637.949 110.471 L 637.949 87.631 L 645.119 87.631 C 648.845 87.631 651.739 88.614 653.799 90.581 C 655.865 92.548 656.899 95.298 656.899 98.831 Z M 651.869 98.951 C 651.869 94.044 649.702 91.591 645.369 91.591 L 642.789 91.591 L 642.789 106.471 L 644.869 106.471 C 649.535 106.471 651.869 103.964 651.869 98.951 ZM 675.663 106.471 L 675.663 110.471 L 662.513 110.471 L 662.513 87.631 L 675.663 87.631 L 675.663 91.591 L 667.353 91.591 L 667.353 96.611 L 675.083 96.611 L 675.083 100.581 L 667.353 100.581 L 667.353 106.471 L 675.663 106.471 ZM 703.653 106.471 L 703.653 110.471 L 690.503 110.471 L 690.503 87.631 L 703.653 87.631 L 703.653 91.591 L 695.343 91.591 L 695.343 96.611 L 703.073 96.611 L 703.073 100.581 L 695.343 100.581 L 695.343 106.471 L 703.653 106.471 ZM 729.562 87.631 L 729.562 110.471 L 723.402 110.471 L 713.472 93.191 L 713.332 93.191 C 713.525 96.244 713.622 98.421 713.622 99.721 L 713.622 110.471 L 709.302 110.471 L 709.302 87.631 L 715.402 87.631 L 725.332 104.741 L 725.442 104.741 C 725.282 101.768 725.202 99.668 725.202 98.441 L 725.202 87.631 L 729.562 87.631 ZM 749.674 104.131 C 749.674 106.191 748.93 107.814 747.444 109.001 C 745.964 110.188 743.9 110.781 741.254 110.781 C 738.814 110.781 736.657 110.324 734.784 109.411 L 734.784 104.911 C 736.324 105.598 737.627 106.081 738.694 106.361 C 739.76 106.641 740.737 106.781 741.624 106.781 C 742.69 106.781 743.507 106.578 744.074 106.171 C 744.64 105.764 744.924 105.161 744.924 104.361 C 744.924 103.914 744.797 103.518 744.544 103.171 C 744.297 102.818 743.93 102.481 743.444 102.161 C 742.964 101.834 741.977 101.318 740.484 100.611 C 739.09 99.958 738.044 99.328 737.344 98.721 C 736.644 98.114 736.087 97.411 735.674 96.611 C 735.254 95.811 735.044 94.874 735.044 93.801 C 735.044 91.781 735.73 90.191 737.104 89.031 C 738.47 87.878 740.364 87.301 742.784 87.301 C 743.97 87.301 745.104 87.441 746.184 87.721 C 747.257 88.001 748.384 88.398 749.564 88.911 L 748.004 92.671 C 746.784 92.171 745.774 91.824 744.974 91.631 C 744.18 91.431 743.397 91.331 742.624 91.331 C 741.71 91.331 741.007 91.544 740.514 91.971 C 740.027 92.398 739.784 92.954 739.784 93.641 C 739.784 94.068 739.884 94.441 740.084 94.761 C 740.277 95.081 740.59 95.388 741.024 95.681 C 741.457 95.981 742.48 96.514 744.094 97.281 C 746.227 98.301 747.69 99.324 748.484 100.351 C 749.277 101.378 749.674 102.638 749.674 104.131 ZM 759.536 110.471 L 754.696 110.471 L 754.696 87.631 L 759.536 87.631 L 759.536 110.471 ZM 786.428 87.631 L 786.428 110.471 L 780.268 110.471 L 770.338 93.191 L 770.198 93.191 C 770.392 96.244 770.488 98.421 770.488 99.721 L 770.488 110.471 L 766.168 110.471 L 766.168 87.631 L 772.268 87.631 L 782.198 104.741 L 782.308 104.741 C 782.148 101.768 782.068 99.668 782.068 98.441 L 782.068 87.631 L 786.428 87.631 ZM 813.79 99.021 C 813.79 102.801 812.853 105.708 810.98 107.741 C 809.1 109.768 806.41 110.781 802.91 110.781 C 799.41 110.781 796.723 109.768 794.85 107.741 C 792.977 105.708 792.04 102.791 792.04 98.991 C 792.04 95.184 792.98 92.278 794.86 90.271 C 796.74 88.271 799.437 87.271 802.95 87.271 C 806.457 87.271 809.14 88.281 811 90.301 C 812.86 92.321 813.79 95.228 813.79 99.021 Z M 797.12 99.021 C 797.12 101.568 797.603 103.488 798.57 104.781 C 799.537 106.074 800.983 106.721 802.91 106.721 C 806.777 106.721 808.71 104.154 808.71 99.021 C 808.71 93.874 806.79 91.301 802.95 91.301 C 801.023 91.301 799.57 91.948 798.59 93.241 C 797.61 94.541 797.12 96.468 797.12 99.021 Z" transform="matrix(1, 0, 0, 1, 3.578613042831421, 12.720624923706055)" style="white-space: pre;"/>
  <path d="M 428.859 136.131 C 428.859 138.191 428.116 139.814 426.629 141.001 C 425.149 142.188 423.086 142.781 420.439 142.781 C 417.999 142.781 415.842 142.324 413.969 141.411 L 413.969 136.911 C 415.509 137.598 416.812 138.081 417.879 138.361 C 418.946 138.641 419.922 138.781 420.809 138.781 C 421.876 138.781 422.692 138.578 423.259 138.171 C 423.826 137.764 424.109 137.161 424.109 136.361 C 424.109 135.914 423.982 135.518 423.729 135.171 C 423.482 134.818 423.116 134.481 422.629 134.161 C 422.149 133.834 421.162 133.318 419.669 132.611 C 418.276 131.958 417.229 131.328 416.529 130.721 C 415.829 130.114 415.272 129.411 414.859 128.611 C 414.439 127.811 414.229 126.874 414.229 125.801 C 414.229 123.781 414.916 122.191 416.289 121.031 C 417.656 119.878 419.549 119.301 421.969 119.301 C 423.156 119.301 424.289 119.441 425.369 119.721 C 426.442 120.001 427.569 120.398 428.749 120.911 L 427.189 124.671 C 425.969 124.171 424.959 123.824 424.159 123.631 C 423.366 123.431 422.582 123.331 421.809 123.331 C 420.896 123.331 420.192 123.544 419.699 123.971 C 419.212 124.398 418.969 124.954 418.969 125.641 C 418.969 126.068 419.069 126.441 419.269 126.761 C 419.462 127.081 419.776 127.388 420.209 127.681 C 420.642 127.981 421.666 128.514 423.279 129.281 C 425.412 130.301 426.876 131.324 427.669 132.351 C 428.462 133.378 428.859 134.638 428.859 136.131 ZM 447.641 119.631 L 452.471 119.631 L 452.471 134.411 C 452.471 136.098 452.095 137.574 451.341 138.841 C 450.581 140.114 449.488 141.091 448.061 141.771 C 446.635 142.444 444.948 142.781 443.001 142.781 C 440.061 142.781 437.781 142.028 436.161 140.521 C 434.535 139.021 433.721 136.961 433.721 134.341 L 433.721 119.631 L 438.551 119.631 L 438.551 133.611 C 438.551 135.371 438.905 136.664 439.611 137.491 C 440.318 138.311 441.491 138.721 443.131 138.721 C 444.711 138.721 445.858 138.308 446.571 137.481 C 447.285 136.654 447.641 135.354 447.641 133.581 L 447.641 119.631 ZM 463.785 123.591 L 463.785 130.381 L 465.375 130.381 C 466.868 130.381 467.985 130.084 468.725 129.491 C 469.465 128.904 469.835 128.048 469.835 126.921 C 469.835 125.788 469.525 124.951 468.905 124.411 C 468.285 123.864 467.312 123.591 465.985 123.591 L 463.785 123.591 Z M 474.725 126.751 C 474.725 129.211 473.955 131.091 472.415 132.391 C 470.882 133.691 468.698 134.341 465.865 134.341 L 463.785 134.341 L 463.785 142.471 L 458.945 142.471 L 458.945 119.631 L 466.235 119.631 C 469.008 119.631 471.115 120.228 472.555 121.421 C 474.002 122.608 474.725 124.384 474.725 126.751 ZM 493.066 138.471 L 493.066 142.471 L 479.916 142.471 L 479.916 119.631 L 493.066 119.631 L 493.066 123.591 L 484.756 123.591 L 484.756 128.611 L 492.486 128.611 L 492.486 132.581 L 484.756 132.581 L 484.756 138.471 L 493.066 138.471 ZM 503.555 123.591 L 503.555 129.771 L 505.115 129.771 C 506.648 129.771 507.778 129.514 508.505 129.001 C 509.238 128.494 509.605 127.691 509.605 126.591 C 509.605 125.511 509.232 124.741 508.485 124.281 C 507.738 123.821 506.585 123.591 505.025 123.591 L 503.555 123.591 Z M 506.135 133.701 L 503.555 133.701 L 503.555 142.471 L 498.715 142.471 L 498.715 119.631 L 505.365 119.631 C 508.472 119.631 510.768 120.194 512.255 121.321 C 513.748 122.454 514.495 124.171 514.495 126.471 C 514.495 127.818 514.125 129.014 513.385 130.061 C 512.645 131.108 511.598 131.928 510.245 132.521 C 513.678 137.654 515.918 140.971 516.965 142.471 L 511.585 142.471 L 506.135 133.701 ZM 525.557 142.471 L 520.717 142.471 L 520.717 119.631 L 525.557 119.631 L 525.557 142.471 ZM 552.919 131.021 C 552.919 134.801 551.982 137.708 550.109 139.741 C 548.229 141.768 545.539 142.781 542.039 142.781 C 538.539 142.781 535.852 141.768 533.979 139.741 C 532.106 137.708 531.169 134.791 531.169 130.991 C 531.169 127.184 532.109 124.278 533.989 122.271 C 535.869 120.271 538.566 119.271 542.079 119.271 C 545.586 119.271 548.269 120.281 550.129 122.301 C 551.989 124.321 552.919 127.228 552.919 131.021 Z M 536.249 131.021 C 536.249 133.568 536.732 135.488 537.699 136.781 C 538.666 138.074 540.112 138.721 542.039 138.721 C 545.906 138.721 547.839 136.154 547.839 131.021 C 547.839 125.874 545.919 123.301 542.079 123.301 C 540.152 123.301 538.699 123.948 537.719 125.241 C 536.739 126.541 536.249 128.468 536.249 131.021 ZM 563.374 123.591 L 563.374 129.771 L 564.934 129.771 C 566.467 129.771 567.597 129.514 568.324 129.001 C 569.057 128.494 569.424 127.691 569.424 126.591 C 569.424 125.511 569.051 124.741 568.304 124.281 C 567.557 123.821 566.404 123.591 564.844 123.591 L 563.374 123.591 Z M 565.954 133.701 L 563.374 133.701 L 563.374 142.471 L 558.534 142.471 L 558.534 119.631 L 565.184 119.631 C 568.291 119.631 570.587 120.194 572.074 121.321 C 573.567 122.454 574.314 124.171 574.314 126.471 C 574.314 127.818 573.944 129.014 573.204 130.061 C 572.464 131.108 571.417 131.928 570.064 132.521 C 573.497 137.654 575.737 140.971 576.784 142.471 L 571.404 142.471 L 565.954 133.701 ZM 594.567 123.591 L 594.567 130.381 L 596.157 130.381 C 597.65 130.381 598.767 130.084 599.507 129.491 C 600.247 128.904 600.617 128.048 600.617 126.921 C 600.617 125.788 600.307 124.951 599.687 124.411 C 599.067 123.864 598.094 123.591 596.767 123.591 L 594.567 123.591 Z M 605.507 126.751 C 605.507 129.211 604.737 131.091 603.197 132.391 C 601.664 133.691 599.48 134.341 596.647 134.341 L 594.567 134.341 L 594.567 142.471 L 589.727 142.471 L 589.727 119.631 L 597.017 119.631 C 599.79 119.631 601.897 120.228 603.337 121.421 C 604.784 122.608 605.507 124.384 605.507 126.751 ZM 624.458 119.631 L 629.288 119.631 L 629.288 134.411 C 629.288 136.098 628.911 137.574 628.158 138.841 C 627.398 140.114 626.304 141.091 624.878 141.771 C 623.451 142.444 621.764 142.781 619.818 142.781 C 616.878 142.781 614.598 142.028 612.978 140.521 C 611.351 139.021 610.538 136.961 610.538 134.341 L 610.538 119.631 L 615.368 119.631 L 615.368 133.611 C 615.368 135.371 615.721 136.664 616.428 137.491 C 617.134 138.311 618.308 138.721 619.948 138.721 C 621.528 138.721 622.674 138.308 623.388 137.481 C 624.101 136.654 624.458 135.354 624.458 133.581 L 624.458 119.631 Z M 620.398 117.801 L 617.228 117.801 L 617.228 117.381 C 619.014 115.294 620.238 113.724 620.898 112.671 L 626.238 112.671 L 626.238 113.001 C 625.698 113.541 624.774 114.348 623.468 115.421 C 622.161 116.488 621.138 117.281 620.398 117.801 ZM 635.761 142.471 L 635.761 119.631 L 642.861 119.631 C 646.101 119.631 648.455 120.091 649.921 121.011 C 651.381 121.931 652.111 123.398 652.111 125.411 C 652.111 126.771 651.791 127.891 651.151 128.771 C 650.511 129.644 649.661 130.168 648.601 130.341 L 648.601 130.501 C 650.048 130.828 651.091 131.431 651.731 132.311 C 652.371 133.198 652.691 134.374 652.691 135.841 C 652.691 137.928 651.938 139.554 650.431 140.721 C 648.931 141.888 646.888 142.471 644.301 142.471 L 635.761 142.471 Z M 640.601 123.591 L 640.601 128.671 L 643.411 128.671 C 644.725 128.671 645.675 128.468 646.261 128.061 C 646.855 127.654 647.151 126.984 647.151 126.051 C 647.151 125.178 646.828 124.551 646.181 124.171 C 645.541 123.784 644.531 123.591 643.151 123.591 L 640.601 123.591 Z M 643.601 132.521 L 640.601 132.521 L 640.601 138.471 L 643.761 138.471 C 645.095 138.471 646.078 138.214 646.711 137.701 C 647.345 137.194 647.661 136.414 647.661 135.361 C 647.661 133.468 646.308 132.521 643.601 132.521 ZM 672.238 142.471 L 658.138 142.471 L 658.138 119.631 L 662.978 119.631 L 662.978 138.471 L 672.238 138.471 L 672.238 142.471 ZM 681.934 142.471 L 677.094 142.471 L 677.094 119.631 L 681.934 119.631 L 681.934 142.471 ZM 698.266 123.331 C 696.439 123.331 695.026 124.014 694.026 125.381 C 693.026 126.754 692.526 128.664 692.526 131.111 C 692.526 136.204 694.439 138.751 698.266 138.751 C 699.866 138.751 701.809 138.351 704.096 137.551 L 704.096 141.611 C 702.216 142.391 700.122 142.781 697.816 142.781 C 694.489 142.781 691.946 141.774 690.186 139.761 C 688.426 137.748 687.546 134.854 687.546 131.081 C 687.546 128.708 687.979 126.628 688.846 124.841 C 689.706 123.054 690.946 121.684 692.566 120.731 C 694.186 119.778 696.086 119.301 698.266 119.301 C 700.486 119.301 702.716 119.838 704.956 120.911 L 703.386 124.841 C 702.532 124.441 701.676 124.088 700.816 123.781 C 699.949 123.481 699.099 123.331 698.266 123.331 ZM 729.033 142.471 L 723.813 142.471 L 722.153 137.031 L 713.833 137.031 L 712.173 142.471 L 706.953 142.471 L 715.013 119.531 L 720.933 119.531 L 729.033 142.471 Z M 715.043 132.971 L 721.003 132.971 C 719.47 128.044 718.607 125.258 718.413 124.611 C 718.22 123.964 718.083 123.454 718.003 123.081 C 717.657 124.414 716.67 127.711 715.043 132.971 Z" transform="matrix(1, 0, 0, 1, 3.578613042831421, 12.720624923706055)" style="white-space: pre;"/>
  <text class="cls-4" style="white-space: pre; font-size: 42.3px;" x="411.615" y="30.308">13</text>
  <rect class="cls-9" x="405.52" y="69.625" width="111.81" height="12.08"/>
  <text class="cls-7" style="font-size: 39.4px; font-weight: 700; white-space: pre;" x="419.624" y="337.193">ORGÃO PÚBLICO </text>
  <text class="cls-4" style="white-space: pre; font-size: 45.5px;" x="419.625" y="253.938">60</text>
  <rect class="cls-10" x="415.188" y="267.781" width="111.81" height="12.08"/>
  <rect class="cls-12" x="415.188" y="460.11" width="111.81" height="12.08"/>
  <text class="cls-7" style="font-size: 29.6px; font-weight: 700; white-space: pre;" x="48.097" y="516.616">NÃO INFORMADA </text>
  <text class="cls-4" style="white-space: pre; font-size: 45.7px;" x="46.532" y="459.086">6</text>
  <rect class="cls-13" x="47" y="472.922" width="111.81" height="12.08"/>
  <text class="cls-14" transform="matrix(1, 0, 0, 1, 41.09, 1085.920044)" style="white-space: pre;">GO</text>
  <g id="GO">
    <g id="cicles">
      <circle class="cls-15" cx="168.58" cy="1194.75" r="6.31"/>
      <circle class="cls-15" cx="151.69" cy="1152.46" r="6.31"/>
      <circle class="cls-15" cx="137.2" cy="1161.74" r="6.31"/>
      <circle class="cls-15" cx="154.08" cy="1204.04" r="6.31"/>
      <circle class="cls-15" cx="138.79" cy="1196.14" r="6.31"/>
      <circle class="cls-15" cx="167.78" cy="1177.56" r="6.31"/>
      <circle class="cls-12" cx="153.29" cy="1186.85" r="6.31"/>
      <circle class="cls-15" cx="166.98" cy="1160.36" r="6.31"/>
      <circle class="cls-10" cx="138" cy="1178.94" r="6.31"/>
      <circle class="cls-10" cx="122.71" cy="1171.03" r="6.31"/>
      <circle class="cls-10" cx="123.5" cy="1188.22" r="6.31"/>
      <circle class="cls-10" cx="136.4" cy="1144.55" r="6.31"/>
      <circle class="cls-10" cx="152.49" cy="1169.65" r="6.31"/>
    </g>
  </g>
  <rect class="cls-16" x="31.63" y="1055.71" width="234.21" height="234.21"/>
  <g class="cls-17">
    <text class="cls-18" transform="translate(210.94 1278.76)" style="white-space: pre;">13</text>
  </g>
  <text class="cls-19" transform="matrix(1, 0, 0, 1, 275.299988, 1554.219971)" style="white-space: pre;">CE</text>
  <g id="CE">
    <g id="cicles-2" data-name="cicles">
      <circle class="cls-10" cx="372.91" cy="1655.35" r="6.31"/>
      <circle class="cls-15" cx="373.89" cy="1625.55" r="6.31"/>
      <circle class="cls-10" cx="382" cy="1640.73" r="6.31"/>
      <circle class="cls-15" cx="390.12" cy="1655.92" r="6.31"/>
      <circle class="cls-15" cx="391.09" cy="1626.12" r="6.31"/>
      <circle class="cls-10" cx="364.8" cy="1640.17" r="6.31"/>
      <circle class="cls-10" cx="399.21" cy="1641.3" r="6.31"/>
    </g>
  </g>
  <rect class="cls-16" x="265.84" y="1524.13" width="234.21" height="234.21"/>
  <g class="cls-17">
    <text class="cls-18" transform="translate(459.12 1740.01)" style="white-space: pre;">7</text>
  </g>
  <g id="RO" transform="matrix(1, 0, 0, 1, -185.840027, -246.400024)">
    <g id="cicles-3" data-name="cicles">
      <circle class="cls-15" cx="620.38" cy="2104.99" r="6.31"/>
      <circle class="cls-15" cx="611.77" cy="2119.9" r="6.31"/>
    </g>
  </g>
  <text class="cls-14" transform="matrix(1, 0, 0, 1, 271.690002, 852.919983)" style="white-space: pre;">PR</text>
  <g id="PR">
    <g id="cicles-4" data-name="cicles">
      <circle class="cls-15" cx="361.45" cy="919.71" r="6.31"/>
      <circle class="cls-12" cx="369.95" cy="904.74" r="6.31"/>
      <circle class="cls-12" cx="379.1" cy="979.2" r="6.31"/>
      <circle class="cls-6" cx="352.95" cy="934.68" r="6.31"/>
      <circle class="cls-15" cx="413.31" cy="949.14" r="6.31"/>
      <circle class="cls-15" cx="378.66" cy="919.58" r="6.31"/>
      <circle class="cls-15" cx="361.67" cy="949.52" r="6.31"/>
      <circle class="cls-15" cx="353.18" cy="964.49" r="6.31"/>
      <circle class="cls-15" cx="387.16" cy="904.61" r="6.31"/>
      <circle class="cls-15" cx="413.09" cy="919.33" r="6.31"/>
      <circle class="cls-15" cx="395.88" cy="919.45" r="6.31"/>
      <circle class="cls-15" cx="370.17" cy="934.55" r="6.31"/>
      <circle class="cls-10" cx="404.6" cy="934.3" r="6.31"/>
      <circle class="cls-10" cx="404.82" cy="964.1" r="6.31"/>
      <circle class="cls-10" cx="387.38" cy="934.42" r="6.31"/>
      <circle class="cls-10" cx="387.6" cy="964.24" r="6.31"/>
      <circle class="cls-10" cx="396.1" cy="949.26" r="6.31"/>
      <circle class="cls-15" cx="370.39" cy="964.36" r="6.31"/>
      <circle class="cls-15" cx="396.32" cy="979.07" r="6.31"/>
      <circle class="cls-9" cx="378.89" cy="949.39" r="6.31"/>
    </g>
  </g>
  <rect class="cls-16" x="265.84" y="821.5" width="234.21" height="234.21"/>
  <g class="cls-17">
    <text class="cls-18" transform="translate(440.85 1044.55)" style="white-space: pre;">20</text>
  </g>
  <g id="PA" transform="matrix(1, 0, 0, 1, -18.380005, -744.730103)">
    <g id="cicles-5" data-name="cicles">
      <circle class="cls-15" cx="383.18" cy="2578.08" r="6.31"/>
    </g>
  </g>
  <text class="cls-19" transform="matrix(1, 0, 0, 1, 507.450012, 851.710022)" style="white-space: pre;">RS</text>
  <g id="RS">
    <g id="cicles-6" data-name="cicles">
      <circle class="cls-15" cx="641.93" cy="956.01" r="6.31"/>
      <circle class="cls-10" cx="638.56" cy="939.13" r="6.31"/>
      <circle class="cls-15" cx="609.32" cy="944.99" r="6.31"/>
      <circle class="cls-15" cx="625.63" cy="950.5" r="6.31"/>
      <circle class="cls-15" cx="580.09" cy="950.84" r="6.31"/>
      <circle class="cls-15" cx="602.56" cy="911.23" r="6.31"/>
      <circle class="cls-15" cx="596.4" cy="956.35" r="6.31"/>
      <circle class="cls-15" cx="589.63" cy="922.59" r="6.31"/>
      <circle class="cls-9" cx="622.25" cy="933.62" r="6.31"/>
      <circle class="cls-15" cx="612.7" cy="961.86" r="6.31"/>
      <circle class="cls-15" cx="635.17" cy="922.25" r="6.31"/>
      <circle class="cls-6" cx="618.86" cy="916.74" r="6.31"/>
      <circle class="cls-15" cx="593.02" cy="939.48" r="6.31"/>
      <circle class="cls-10" cx="605.94" cy="928.11" r="6.31"/>
      <circle class="cls-15" cx="631.79" cy="905.37" r="6.31"/>
    </g>
  </g>
  <rect class="cls-16" x="500.05" y="821.5" width="234.21" height="234.21"/>
  <g class="cls-17">
    <text class="cls-18" transform="translate(671.04 1044.55)" style="white-space: pre;">15</text>
  </g>
  <text class="cls-14" transform="matrix(1, 0, 0, 1, 39.029999, 1554.150024)" style="white-space: pre;">SE</text>
  <g id="SE">
    <g id="cicles-7" data-name="cicles">
      <circle class="cls-15" cx="165.2" cy="1650.19" r="6.31"/>
      <circle class="cls-10" cx="135.67" cy="1654.32" r="6.31"/>
      <circle class="cls-9" cx="151.63" cy="1660.78" r="6.31"/>
      <circle class="cls-15" cx="133.28" cy="1637.27" r="6.31"/>
      <circle class="cls-15" cx="162.81" cy="1633.14" r="6.31"/>
      <circle class="cls-10" cx="146.85" cy="1626.68" r="6.31"/>
      <circle class="cls-15" cx="149.24" cy="1643.73" r="6.31"/>
    </g>
  </g>
  <rect class="cls-16" x="31.63" y="1524.06" width="234.21" height="234.21"/>
  <g class="cls-17">
    <text class="cls-18" transform="translate(229.21 1739.93)" style="white-space: pre;">7</text>
  </g>
  <g id="TO" transform="matrix(1, 0, 0, 1, -270.37561, -734.449951)">
    <g id="cicles-8" data-name="cicles">
      <circle class="cls-10" cx="615.24" cy="2580.42" r="6.31"/>
    </g>
  </g>
  <text class="cls-19" transform="matrix(1, 0, 0, 1, 508.130005, 620.51001)" style="white-space: pre;">BRASIL</text>
  <g id="BR">
    <g id="cicles-9" data-name="cicles">
      <circle class="cls-15" cx="624.48" cy="740.39" r="6.31"/>
      <circle class="cls-12" cx="580.83" cy="699.78" r="6.31"/>
      <circle class="cls-15" cx="652.98" cy="731.64" r="6.31"/>
      <circle class="cls-15" cx="654.6" cy="686.13" r="6.31"/>
      <circle class="cls-15" cx="619.43" cy="723.94" r="6.31"/>
      <circle class="cls-15" cx="649.55" cy="669.67" r="6.31"/>
      <circle class="cls-8" cx="647.93" cy="715.19" r="6.31"/>
      <circle class="cls-8" cx="637.83" cy="682.28" r="6.31"/>
      <circle class="cls-10" cx="614.38" cy="707.48" r="6.31"/>
      <circle class="cls-10" cx="585.88" cy="716.23" r="6.31"/>
      <circle class="cls-10" cx="631.15" cy="711.34" r="6.31"/>
      <circle class="cls-10" cx="626.1" cy="694.88" r="6.31"/>
      <circle class="cls-15" cx="621.06" cy="678.42" r="6.31"/>
      <circle class="cls-6" cx="597.6" cy="703.63" r="6.31"/>
      <circle class="cls-15" cx="659.65" cy="702.59" r="6.31"/>
      <circle class="cls-15" cx="642.88" cy="698.73" r="6.31"/>
      <circle class="cls-6" cx="592.55" cy="687.17" r="6.31"/>
      <circle class="cls-15" cx="602.66" cy="720.08" r="6.31"/>
      <circle class="cls-15" cx="636.2" cy="727.79" r="6.31"/>
      <circle class="cls-15" cx="607.7" cy="736.54" r="6.31"/>
      <circle class="cls-9" cx="604.28" cy="674.57" r="6.31"/>
      <circle class="cls-15" cx="609.33" cy="691.02" r="6.31"/>
    </g>
  </g>
  <rect class="cls-16" x="500.05" y="587.73" width="234.21" height="233.77"/>
  <g class="cls-17">
    <text class="cls-18" transform="translate(671.04 810.78)" style="white-space: pre;">22</text>
  </g>
  <g id="MA" transform="matrix(1, 0, 0, 1, -273.37561, -452.790039)">
    <g id="cicles-10" data-name="cicles">
      <circle class="cls-15" cx="618.24" cy="2345.77" r="6.31"/>
    </g>
  </g>
  <text class="cls-19" transform="matrix(1, 0, 0, 1, 42.23, 852.919983)" style="white-space: pre;">RJ</text>
  <g id="RJ">
    <g id="cicles-11" data-name="cicles">
      <circle class="cls-15" cx="183.1" cy="963.65" r="6.31"/>
      <circle class="cls-15" cx="112.72" cy="937.64" r="6.31"/>
      <circle class="cls-10" cx="129.91" cy="936.7" r="6.31"/>
      <circle class="cls-15" cx="128.28" cy="906.93" r="6.31"/>
      <circle class="cls-15" cx="131.54" cy="966.47" r="6.31"/>
      <circle class="cls-15" cx="158.13" cy="979.94" r="6.31"/>
      <circle class="cls-10" cx="145.47" cy="905.99" r="6.31"/>
      <circle class="cls-12" cx="148.72" cy="965.53" r="6.31"/>
      <circle class="cls-12" cx="137.69" cy="921.34" r="6.31"/>
      <circle class="cls-12" cx="165.91" cy="964.58" r="6.31"/>
      <circle class="cls-12" cx="120.5" cy="922.28" r="6.31"/>
      <circle class="cls-12" cx="122.13" cy="952.05" r="6.31"/>
      <circle class="cls-10" cx="154.87" cy="920.4" r="6.31"/>
      <circle class="cls-15" cx="190.88" cy="948.29" r="6.31"/>
      <circle class="cls-10" cx="147.1" cy="935.75" r="6.31"/>
      <circle class="cls-10" cx="181.48" cy="933.88" r="6.31"/>
      <circle class="cls-15" cx="173.69" cy="949.23" r="6.31"/>
      <circle class="cls-15" cx="172.07" cy="919.46" r="6.31"/>
      <circle class="cls-15" cx="164.28" cy="934.81" r="6.31"/>
      <circle class="cls-9" cx="156.5" cy="950.17" r="6.31"/>
      <circle class="cls-9" cx="139.32" cy="951.11" r="6.31"/>
      <circle class="cls-15" cx="162.66" cy="905.05" r="6.31"/>
    </g>
  </g>
  <rect class="cls-16" x="31.63" y="821.5" width="234.21" height="234.21"/>
  <g class="cls-17">
    <text class="cls-18" transform="translate(210.94 1044.55)" style="white-space: pre;">22</text>
  </g>
  <g id="cicles-12" data-name="cicles" transform="matrix(1, 0, 0, 1, 172.914383, -184.925049)">
    <circle class="cls-15" cx="137.23" cy="2115.43" r="6.31"/>
    <circle class="cls-10" cx="153.59" cy="2120.79" r="6.31"/>
    <circle class="cls-15" cx="142.97" cy="2099.2" r="6.31"/>
    <circle class="cls-9" cx="159.33" cy="2104.56" r="6.31"/>
  </g>
  <g id="AL" transform="matrix(1, 0, 0, 1, -14.079987, -173.687256)">
    <g id="cicles-13" data-name="cicles">
      <circle class="cls-15" cx="390.77" cy="2114.36" r="6.31"/>
      <circle class="cls-15" cx="373.56" cy="2114.73" r="6.31"/>
      <circle class="cls-9" cx="381.85" cy="2099.64" r="6.31"/>
    </g>
  </g>
  <text class="cls-14" style="white-space: pre;" transform="matrix(1, 0, 0, 1, 276.440002, 1790.5)">OUTROS</text>
  <g id="AM">
    <g id="cicles-14" data-name="cicles">
      <circle class="cls-15" cx="392.15" cy="1865.79" r="6.31"/>
      <circle class="cls-10" cx="375.08" cy="1867.98" r="6.31"/>
      <circle class="cls-10" cx="373.34" cy="1885.1" r="6.31"/>
      <circle class="cls-15" cx="390.42" cy="1882.92" r="6.31"/>
    </g>
  </g>
  <rect class="cls-16" x="265.84" y="1758.34" width="234.21" height="234.21"/>
  <g class="cls-17" transform="matrix(1, 0, 0, 1, -15.189998, 0)">
    <text class="cls-18" transform="translate(459.12 1976.8)" style="white-space: pre;">24</text>
  </g>
  <g id="MS" transform="matrix(1, 0, 0, 1, -212.72998, -48.150024)">
    <g id="cicles-15" data-name="cicles">
      <circle class="cls-15" cx="626.04" cy="1880.05" r="6.31"/>
      <circle class="cls-10" cx="612.01" cy="1870.08" r="6.31"/>
      <circle class="cls-10" cx="602.09" cy="1884.15" r="6.31"/>
      <circle class="cls-10" cx="616.12" cy="1894.12" r="6.31"/>
    </g>
  </g>
  <rect class="cls-16" x="499.66" y="1758.34" width="234.21" height="234.21"/>
  <g id="MT" transform="matrix(1, 0, 0, 1, 289.23999, -741.220093)">
    <g id="cicles-16" data-name="cicles">
      <circle class="cls-15" cx="148.38" cy="2574.57" r="6.31"/>
    </g>
  </g>
  <text class="cls-14" transform="matrix(1, 0, 0, 1, 42.580002, 618.710022)" style="font-weight: 700; white-space: pre;"> SP</text>
  <circle class="cls-15" cx="193.95" cy="673.62" r="6.31"/>
  <circle class="cls-15" cx="194.31" cy="735.67" r="6.31"/>
  <circle class="cls-15" cx="181.48" cy="661.76" r="6.31"/>
  <circle class="cls-15" cx="173.77" cy="757.27" r="6.31"/>
  <circle class="cls-15" cx="90.89" cy="719.57" r="6.31"/>
  <circle class="cls-6" cx="165.34" cy="728.68" r="6.31"/>
  <circle class="cls-15" cx="103.36" cy="731.43" r="6.31"/>
  <circle class="cls-15" cx="189.91" cy="690.34" r="6.31"/>
  <circle class="cls-10" cx="94.92" cy="702.84" r="6.31"/>
  <circle class="cls-15" cx="181.84" cy="723.81" r="6.31"/>
  <circle class="cls-15" cx="160.94" cy="683.36" r="6.31"/>
  <circle class="cls-15" cx="198.35" cy="718.94" r="6.31"/>
  <circle class="cls-15" cx="140.4" cy="704.96" r="6.31"/>
  <circle class="cls-15" cx="202.39" cy="702.2" r="6.31"/>
  <circle class="cls-15" cx="119.86" cy="726.56" r="6.31"/>
  <circle class="cls-12" cx="127.94" cy="693.1" r="6.31"/>
  <circle class="cls-15" cx="132.33" cy="738.41" r="6.31"/>
  <circle class="cls-15" cx="152.87" cy="716.82" r="6.31"/>
  <circle class="cls-15" cx="131.96" cy="676.37" r="6.31"/>
  <circle class="cls-10" cx="148.46" cy="671.5" r="6.31"/>
  <circle class="cls-15" cx="136.37" cy="721.69" r="6.31"/>
  <circle class="cls-10" cx="185.89" cy="707.08" r="6.31"/>
  <circle class="cls-10" cx="169.37" cy="711.95" r="6.31"/>
  <circle class="cls-10" cx="156.9" cy="700.09" r="6.31"/>
  <circle class="cls-10" cx="123.91" cy="709.83" r="6.31"/>
  <circle class="cls-10" cx="148.83" cy="733.54" r="6.31"/>
  <circle class="cls-10" cx="177.44" cy="678.49" r="6.31"/>
  <circle class="cls-13" cx="169.01" cy="649.89" r="6.31"/>
  <circle class="cls-13" cx="152.5" cy="654.77" r="6.31"/>
  <circle class="cls-13" cx="136" cy="659.64" r="6.31"/>
  <circle class="cls-13" cx="164.97" cy="666.63" r="6.31"/>
  <circle class="cls-15" cx="111.43" cy="697.97" r="6.31"/>
  <circle class="cls-15" cx="144.43" cy="688.23" r="6.31"/>
  <circle class="cls-15" cx="119.49" cy="664.5" r="6.31"/>
  <circle class="cls-6" cx="107.39" cy="714.7" r="6.31"/>
  <circle class="cls-15" cx="161.3" cy="745.41" r="6.31"/>
  <circle class="cls-15" cx="173.41" cy="695.22" r="6.31"/>
  <circle class="cls-10" cx="177.81" cy="740.54" r="6.31"/>
  <circle class="cls-15" cx="115.46" cy="681.24" r="6.31"/>
  <circle class="cls-9" cx="144.8" cy="750.28" r="6.31"/>
  <circle class="cls-9" cx="98.95" cy="686.1" r="6.31"/>
  <circle class="cls-9" cx="115.83" cy="743.29" r="6.31"/>
  <rect class="cls-16" x="31.63" y="587.29" width="234.21" height="234.21"/>
  <g class="cls-17">
    <text class="cls-18" transform="translate(210.94 810.34)" style="white-space: pre;">42</text>
  </g>
  <text class="cls-14" transform="matrix(1, 0, 0, 1, 276.790009, 1085.800049)" style="white-space: pre;">MG</text>
  <g id="MG">
    <g id="cicles-17" data-name="cicles">
      <circle class="cls-15" cx="359.48" cy="1177.82" r="6.31"/>
      <circle class="cls-15" cx="384.62" cy="1201.35" r="6.31"/>
      <circle class="cls-15" cx="363.38" cy="1161.06" r="6.31"/>
      <circle class="cls-15" cx="404.99" cy="1179.58" r="6.31"/>
      <circle class="cls-12" cx="367.3" cy="1144.29" r="6.31"/>
      <circle class="cls-15" cx="375.95" cy="1172.82" r="6.31"/>
      <circle class="cls-8" cx="396.33" cy="1151.05" r="6.31"/>
      <circle class="cls-10" cx="392.42" cy="1167.82" r="6.31"/>
      <circle class="cls-15" cx="379.86" cy="1156.06" r="6.31"/>
      <circle class="cls-15" cx="388.52" cy="1184.58" r="6.31"/>
      <circle class="cls-10" cx="372.05" cy="1189.58" r="6.31"/>
      <circle class="cls-15" cx="408.89" cy="1162.82" r="6.31"/>
    </g>
  </g>
  <rect class="cls-16" x="265.84" y="1055.71" width="234.21" height="234.21"/>
  <g class="cls-17">
    <text class="cls-18" transform="translate(440.85 1271.59)" style="white-space: pre;">12</text>
  </g>
  <text class="cls-14" transform="matrix(1, 0, 0, 1, 511, 1556.290039)" style="white-space: pre;">DF</text>
  <g id="DF">
    <g id="cicles-18" data-name="cicles">
      <circle class="cls-15" cx="617.63" cy="1628.29" r="6.31"/>
      <circle class="cls-10" cx="629.37" cy="1640.89" r="6.31"/>
      <circle class="cls-9" cx="624.32" cy="1657.35" r="6.31"/>
      <circle class="cls-15" cx="612.59" cy="1644.75" r="6.31"/>
      <circle class="cls-15" cx="600.86" cy="1632.15" r="6.31"/>
      <circle class="cls-15" cx="607.54" cy="1661.2" r="6.31"/>
    </g>
  </g>
  <rect class="cls-16" x="500.05" y="1524.13" width="234.21" height="234.21"/>
  <g class="cls-17">
    <text class="cls-18" transform="translate(689.31 1742.59)" style="white-space: pre;">6</text>
  </g>
  <g id="AC" transform="matrix(1, 0, 0, 1, 267.819977, -431.470093)">
    <g id="cicles-19" data-name="cicles">
      <circle class="cls-15" cx="144.01" cy="2348.17" r="6.31"/>
      <circle class="cls-15" cx="157.18" cy="2337.07" r="6.31"/>
    </g>
  </g>
  <text class="cls-14" transform="matrix(1, 0, 0, 1, 274.269989, 617.5)" style="white-space: pre;">SC</text>
  <g id="SC">
    <g id="cicles-20" data-name="cicles">
      <circle class="cls-15" cx="394.08" cy="670.25" r="6.31"/>
      <circle class="cls-10" cx="339.85" cy="695.04" r="6.31"/>
      <circle class="cls-15" cx="418.37" cy="687.53" r="6.31"/>
      <circle class="cls-6" cx="405.58" cy="731.24" r="6.31"/>
      <circle class="cls-6" cx="371.31" cy="727.98" r="6.31"/>
      <circle class="cls-10" cx="401.24" cy="685.9" r="6.31"/>
      <circle class="cls-15" cx="395.6" cy="745.26" r="6.31"/>
      <circle class="cls-15" cx="361.33" cy="742.01" r="6.31"/>
      <circle class="cls-15" cx="408.4" cy="701.55" r="6.31"/>
      <circle class="cls-12" cx="391.26" cy="699.93" r="6.31"/>
      <circle class="cls-15" cx="398.42" cy="715.58" r="6.31"/>
      <circle class="cls-15" cx="415.55" cy="717.21" r="6.31"/>
      <circle class="cls-10" cx="347.01" cy="710.7" r="6.31"/>
      <circle class="cls-10" cx="378.46" cy="743.63" r="6.31"/>
      <circle class="cls-10" cx="384.1" cy="684.28" r="6.31"/>
      <circle class="cls-10" cx="337.04" cy="724.73" r="6.31"/>
      <circle class="cls-15" cx="364.15" cy="712.33" r="6.31"/>
      <circle class="cls-8" cx="388.44" cy="729.61" r="6.31"/>
      <circle class="cls-8" cx="349.83" cy="681.02" r="6.31"/>
      <circle class="cls-15" cx="381.28" cy="713.96" r="6.31"/>
      <circle class="cls-15" cx="376.94" cy="668.62" r="6.31"/>
      <circle class="cls-15" cx="374.13" cy="698.3" r="6.31"/>
      <circle class="cls-15" cx="366.97" cy="682.65" r="6.31"/>
      <circle class="cls-15" cx="356.99" cy="696.68" r="6.31"/>
      <circle class="cls-15" cx="354.17" cy="726.35" r="6.31"/>
    </g>
  </g>
  <rect class="cls-16" x="265.84" y="587.29" width="234.21" height="234.21"/>
  <g class="cls-17">
    <text class="cls-18" transform="translate(440.85 810.34)" style="white-space: pre;">25</text>
  </g>
  <text class="cls-19" transform="matrix(1, 0, 0, 1, 505.899994, 1319.930054)" style="white-space: pre;">BA</text>
  <g id="BA">
    <g id="cicles-21" data-name="cicles">
      <circle class="cls-10" cx="628.28" cy="1427.73" r="6.31"/>
      <circle class="cls-10" cx="630.05" cy="1397.97" r="6.31"/>
      <circle class="cls-15" cx="637.76" cy="1413.36" r="6.31"/>
      <circle class="cls-10" cx="612.87" cy="1396.94" r="6.31"/>
      <circle class="cls-13" cx="620.58" cy="1412.34" r="6.31"/>
      <circle class="cls-13" cx="603.39" cy="1411.31" r="6.31"/>
      <circle class="cls-15" cx="611.1" cy="1426.71" r="6.31"/>
    </g>
  </g>
  <rect class="cls-16" x="500.05" y="1289.85" width="234.21" height="234.21"/>
  <g class="cls-17">
    <text class="cls-18" transform="translate(689.31 1505.72)" style="white-space: pre;">7</text>
  </g>
  <text class="cls-14" transform="matrix(1, 0, 0, 1, 276.450012, 1320.01001)" style="white-space: pre;">PE</text>
  <g id="PE">
    <g id="cicles-22" data-name="cicles">
      <circle class="cls-15" cx="392.4" cy="1430.77" r="6.31"/>
      <circle class="cls-15" cx="405.3" cy="1403.89" r="6.31"/>
      <circle class="cls-15" cx="389.77" cy="1396.45" r="6.31"/>
      <circle class="cls-15" cx="374.25" cy="1389" r="6.31"/>
      <circle class="cls-15" cx="361.36" cy="1415.89" r="6.31"/>
      <circle class="cls-10" cx="375.57" cy="1406.17" r="6.31"/>
      <circle class="cls-10" cx="376.88" cy="1423.33" r="6.31"/>
      <circle class="cls-12" cx="391.09" cy="1413.61" r="6.31"/>
    </g>
  </g>
  <rect class="cls-16" x="265.84" y="1289.92" width="234.21" height="234.21"/>
  <g class="cls-17">
    <text class="cls-18" transform="translate(459.12 1505.8)" style="white-space: pre;">8</text>
  </g>
  <text class="cls-14" transform="matrix(1, 0, 0, 1, 39.700001, 1320.01001)" style="white-space: pre;">ES</text>
  <g id="ES">
    <g id="cicles-23" data-name="cicles">
      <circle class="cls-15" cx="169.27" cy="1418.94" r="6.31"/>
      <circle class="cls-15" cx="127.58" cy="1400.59" r="6.31"/>
      <circle class="cls-15" cx="152.11" cy="1417.55" r="6.31"/>
      <circle class="cls-15" cx="161.9" cy="1403.39" r="6.31"/>
      <circle class="cls-15" cx="144.74" cy="1401.99" r="6.31"/>
      <circle class="cls-15" cx="154.52" cy="1387.83" r="6.31"/>
      <circle class="cls-15" cx="134.95" cy="1416.15" r="6.31"/>
      <circle class="cls-15" cx="142.32" cy="1431.71" r="6.31"/>
    </g>
  </g>
  <g class="cls-17">
    <text class="cls-18" transform="translate(229.21 1505.8)" style="white-space: pre;">8</text>
  </g>
  <rect class="cls-16" x="31.63" y="1289.92" width="234.21" height="234.21"/>
  <text class="cls-14" transform="matrix(1, 0, 0, 1, 509.100006, 1085.719971)" style="white-space: pre;">PB</text>
  <g id="PB">
    <g id="cicles-24" data-name="cicles">
      <circle class="cls-15" cx="625.86" cy="1153.35" r="6.31"/>
      <circle class="cls-10" cx="596.59" cy="1159" r="6.31"/>
      <circle class="cls-15" cx="616.13" cy="1181.53" r="6.31"/>
      <circle class="cls-15" cx="619.39" cy="1198.43" r="6.31"/>
      <circle class="cls-15" cx="612.86" cy="1164.63" r="6.31"/>
      <circle class="cls-15" cx="599.86" cy="1175.9" r="6.31"/>
      <circle class="cls-10" cx="629.13" cy="1170.25" r="6.31"/>
      <circle class="cls-15" cx="603.12" cy="1192.81" r="6.31"/>
      <circle class="cls-15" cx="632.4" cy="1187.15" r="6.31"/>
    </g>
  </g>
  <g class="cls-17">
    <text class="cls-18" transform="translate(689.31 1271.51)" style="white-space: pre;">9</text>
  </g>
  <rect class="cls-16" x="500.05" y="1055.63" width="234.21" height="234.21"/>
  <text class="cls-14" transform="matrix(1, 0, 0, 1, 40.060001, 1790.5)" style="white-space: pre;">PI</text>
  <g id="PI">
    <g id="cicles-25" data-name="cicles">
      <circle class="cls-15" cx="154.93" cy="1885.05" r="6.31"/>
      <circle class="cls-10" cx="139.66" cy="1892.98" r="6.31"/>
      <circle class="cls-9" cx="170.21" cy="1877.11" r="6.31"/>
      <circle class="cls-15" cx="140.42" cy="1875.79" r="6.31"/>
      <circle class="cls-15" cx="141.19" cy="1858.59" r="6.31"/>
      <circle class="cls-15" cx="155.7" cy="1867.85" r="6.31"/>
    </g>
  </g>
  <rect class="cls-16" x="31.63" y="1758.34" width="234.21" height="234.21"/>
  <g class="cls-17">
    <text class="cls-18" transform="translate(229.21 1976.8)" style="white-space: pre;">6</text>
  </g>
  <g id="AP" transform="matrix(1, 0, 0, 1, -37.315613, -472.03006)">
    <g id="cicles-26" data-name="cicles">
      <circle class="cls-15" cx="382.18" cy="2345.53" r="6.31"/>
    </g>
  </g>
  <text class="cls-4" style="white-space: pre; font-size: 45.5px;" x="419.63" y="445.979">13</text>
  <path d="M -758.362 1048.28 L -763.202 1048.28 L -763.202 1025.44 L -758.362 1025.44 L -758.362 1048.28 ZM -732.35 1025.44 L -732.35 1048.28 L -738.51 1048.28 L -748.44 1031 L -748.58 1031 C -748.386 1034.053 -748.29 1036.23 -748.29 1037.53 L -748.29 1048.28 L -752.61 1048.28 L -752.61 1025.44 L -746.51 1025.44 L -736.58 1042.55 L -736.47 1042.55 C -736.63 1039.577 -736.71 1037.477 -736.71 1036.25 L -736.71 1025.44 L -732.35 1025.44 ZM -713.118 1041.94 C -713.118 1044 -713.861 1045.623 -715.348 1046.81 C -716.828 1047.997 -718.891 1048.59 -721.538 1048.59 C -723.978 1048.59 -726.135 1048.133 -728.008 1047.22 L -728.008 1042.72 C -726.468 1043.407 -725.165 1043.89 -724.098 1044.17 C -723.031 1044.45 -722.055 1044.59 -721.168 1044.59 C -720.101 1044.59 -719.285 1044.387 -718.718 1043.98 C -718.151 1043.573 -717.868 1042.97 -717.868 1042.17 C -717.868 1041.723 -717.995 1041.327 -718.248 1040.98 C -718.495 1040.627 -718.861 1040.29 -719.348 1039.97 C -719.828 1039.643 -720.815 1039.127 -722.308 1038.42 C -723.701 1037.767 -724.748 1037.137 -725.448 1036.53 C -726.148 1035.923 -726.705 1035.22 -727.118 1034.42 C -727.538 1033.62 -727.748 1032.683 -727.748 1031.61 C -727.748 1029.59 -727.061 1028 -725.688 1026.84 C -724.321 1025.687 -722.428 1025.11 -720.008 1025.11 C -718.821 1025.11 -717.688 1025.25 -716.608 1025.53 C -715.535 1025.81 -714.408 1026.207 -713.228 1026.72 L -714.788 1030.48 C -716.008 1029.98 -717.018 1029.633 -717.818 1029.44 C -718.611 1029.24 -719.395 1029.14 -720.168 1029.14 C -721.081 1029.14 -721.785 1029.353 -722.278 1029.78 C -722.765 1030.207 -723.008 1030.763 -723.008 1031.45 C -723.008 1031.877 -722.908 1032.25 -722.708 1032.57 C -722.515 1032.89 -722.201 1033.197 -721.768 1033.49 C -721.335 1033.79 -720.311 1034.323 -718.698 1035.09 C -716.565 1036.11 -715.101 1037.133 -714.308 1038.16 C -713.515 1039.187 -713.118 1040.447 -713.118 1041.94 ZM -700.166 1029.47 L -700.166 1048.28 L -705.016 1048.28 L -705.016 1029.47 L -711.216 1029.47 L -711.216 1025.44 L -693.966 1025.44 L -693.966 1029.47 L -700.166 1029.47 ZM -685.607 1048.28 L -690.447 1048.28 L -690.447 1025.44 L -685.607 1025.44 L -685.607 1048.28 ZM -671.045 1029.47 L -671.045 1048.28 L -675.895 1048.28 L -675.895 1029.47 L -682.095 1029.47 L -682.095 1025.44 L -664.845 1025.44 L -664.845 1029.47 L -671.045 1029.47 ZM -647.567 1025.44 L -642.737 1025.44 L -642.737 1040.22 C -642.737 1041.907 -643.113 1043.383 -643.867 1044.65 C -644.627 1045.923 -645.72 1046.9 -647.147 1047.58 C -648.573 1048.253 -650.26 1048.59 -652.207 1048.59 C -655.147 1048.59 -657.427 1047.837 -659.047 1046.33 C -660.673 1044.83 -661.487 1042.77 -661.487 1040.15 L -661.487 1025.44 L -656.657 1025.44 L -656.657 1039.42 C -656.657 1041.18 -656.303 1042.473 -655.597 1043.3 C -654.89 1044.12 -653.717 1044.53 -652.077 1044.53 C -650.497 1044.53 -649.35 1044.117 -648.637 1043.29 C -647.923 1042.463 -647.567 1041.163 -647.567 1039.39 L -647.567 1025.44 ZM -632.303 1048.28 L -637.143 1048.28 L -637.143 1025.44 L -632.303 1025.44 L -632.303 1048.28 ZM -616.851 1029.14 C -618.677 1029.14 -620.091 1029.823 -621.091 1031.19 C -622.091 1032.563 -622.591 1034.473 -622.591 1036.92 C -622.591 1042.013 -620.677 1044.56 -616.851 1044.56 C -615.251 1044.56 -613.307 1044.16 -611.021 1043.36 L -611.021 1047.42 C -612.901 1048.2 -614.994 1048.59 -617.301 1048.59 C -620.627 1048.59 -623.171 1047.583 -624.931 1045.57 C -626.691 1043.557 -627.571 1040.663 -627.571 1036.89 C -627.571 1034.517 -627.137 1032.437 -626.271 1030.65 C -625.411 1028.863 -624.171 1027.493 -622.551 1026.54 C -620.931 1025.587 -619.031 1025.11 -616.851 1025.11 C -614.631 1025.11 -612.401 1025.647 -610.161 1026.72 L -611.731 1030.65 C -612.584 1030.25 -613.441 1029.897 -614.301 1029.59 C -615.167 1029.29 -616.017 1029.14 -616.851 1029.14 Z M -614.451 1052.19 C -614.451 1053.523 -614.844 1054.487 -615.631 1055.08 C -616.411 1055.673 -617.624 1055.97 -619.271 1055.97 C -620.084 1055.97 -620.844 1055.86 -621.551 1055.64 L -621.551 1053.01 C -621.271 1053.083 -620.894 1053.157 -620.421 1053.23 C -619.947 1053.303 -619.581 1053.34 -619.321 1053.34 C -618.574 1053.34 -618.201 1053.017 -618.201 1052.37 C -618.201 1051.51 -619.064 1050.95 -620.791 1050.69 L -619.571 1048.28 L -616.551 1048.28 L -616.981 1049.23 C -616.207 1049.483 -615.591 1049.873 -615.131 1050.4 C -614.677 1050.927 -614.451 1051.523 -614.451 1052.19 ZM -586.963 1048.28 L -592.183 1048.28 L -593.843 1042.84 L -602.163 1042.84 L -603.823 1048.28 L -609.043 1048.28 L -600.983 1025.34 L -595.063 1025.34 L -586.963 1048.28 Z M -600.953 1038.78 L -594.993 1038.78 C -596.527 1033.853 -597.39 1031.067 -597.583 1030.42 C -597.777 1029.773 -597.913 1029.263 -597.993 1028.89 C -598.34 1030.223 -599.327 1033.52 -600.953 1038.78 Z M -600.563 1021.97 C -600.883 1021.97 -601.193 1022.107 -601.493 1022.38 C -601.787 1022.66 -602 1023.08 -602.133 1023.64 L -604.463 1023.64 C -604.35 1022.127 -603.92 1020.943 -603.173 1020.09 C -602.433 1019.237 -601.447 1018.81 -600.213 1018.81 C -599.787 1018.81 -599.367 1018.897 -598.953 1019.07 C -598.547 1019.243 -598.143 1019.43 -597.743 1019.63 C -597.337 1019.837 -596.943 1020.023 -596.563 1020.19 C -596.177 1020.357 -595.793 1020.44 -595.413 1020.44 C -595.093 1020.44 -594.787 1020.303 -594.493 1020.03 C -594.193 1019.757 -593.977 1019.34 -593.843 1018.78 L -591.513 1018.78 C -591.627 1020.293 -592.06 1021.477 -592.813 1022.33 C -593.573 1023.183 -594.557 1023.61 -595.763 1023.61 C -596.19 1023.61 -596.61 1023.523 -597.023 1023.35 C -597.43 1023.177 -597.837 1022.99 -598.243 1022.79 C -598.643 1022.583 -599.033 1022.397 -599.413 1022.23 C -599.8 1022.057 -600.183 1021.97 -600.563 1021.97 ZM -563.358 1036.83 C -563.358 1040.61 -564.295 1043.517 -566.168 1045.55 C -568.048 1047.577 -570.738 1048.59 -574.238 1048.59 C -577.738 1048.59 -580.425 1047.577 -582.298 1045.55 C -584.172 1043.517 -585.108 1040.6 -585.108 1036.8 C -585.108 1032.993 -584.168 1030.087 -582.288 1028.08 C -580.408 1026.08 -577.712 1025.08 -574.198 1025.08 C -570.692 1025.08 -568.008 1026.09 -566.148 1028.11 C -564.288 1030.13 -563.358 1033.037 -563.358 1036.83 Z M -580.028 1036.83 C -580.028 1039.377 -579.545 1041.297 -578.578 1042.59 C -577.612 1043.883 -576.165 1044.53 -574.238 1044.53 C -570.372 1044.53 -568.438 1041.963 -568.438 1036.83 C -568.438 1031.683 -570.358 1029.11 -574.198 1029.11 C -576.125 1029.11 -577.578 1029.757 -578.558 1031.05 C -579.538 1032.35 -580.028 1034.277 -580.028 1036.83 ZM -545.472 1029.4 L -545.472 1036.19 L -543.882 1036.19 C -542.389 1036.19 -541.272 1035.893 -540.532 1035.3 C -539.792 1034.713 -539.422 1033.857 -539.422 1032.73 C -539.422 1031.597 -539.732 1030.76 -540.352 1030.22 C -540.972 1029.673 -541.946 1029.4 -543.272 1029.4 L -545.472 1029.4 Z M -534.532 1032.56 C -534.532 1035.02 -535.302 1036.9 -536.842 1038.2 C -538.376 1039.5 -540.559 1040.15 -543.392 1040.15 L -545.472 1040.15 L -545.472 1048.28 L -550.312 1048.28 L -550.312 1025.44 L -543.022 1025.44 C -540.249 1025.44 -538.142 1026.037 -536.702 1027.23 C -535.256 1028.417 -534.532 1030.193 -534.532 1032.56 ZM -525.382 1029.4 L -525.382 1035.58 L -523.822 1035.58 C -522.288 1035.58 -521.158 1035.323 -520.432 1034.81 C -519.698 1034.303 -519.332 1033.5 -519.332 1032.4 C -519.332 1031.32 -519.705 1030.55 -520.452 1030.09 C -521.198 1029.63 -522.352 1029.4 -523.912 1029.4 L -525.382 1029.4 Z M -522.802 1039.51 L -525.382 1039.51 L -525.382 1048.28 L -530.222 1048.28 L -530.222 1025.44 L -523.572 1025.44 C -520.465 1025.44 -518.168 1026.003 -516.682 1027.13 C -515.188 1028.263 -514.442 1029.98 -514.442 1032.28 C -514.442 1033.627 -514.812 1034.823 -515.552 1035.87 C -516.292 1036.917 -517.338 1037.737 -518.692 1038.33 C -515.258 1043.463 -513.018 1046.78 -511.972 1048.28 L -517.352 1048.28 L -522.802 1039.51 ZM -504.26 1048.28 L -509.1 1048.28 L -509.1 1025.44 L -504.26 1025.44 L -504.26 1048.28 ZM -489.808 1039.03 L -485.478 1025.44 L -480.588 1025.44 L -488.358 1048.28 L -493.638 1048.28 L -501.388 1025.44 L -496.498 1025.44 L -492.198 1039.03 C -491.958 1039.83 -491.711 1040.763 -491.458 1041.83 C -491.204 1042.903 -491.044 1043.647 -490.978 1044.06 C -490.864 1043.1 -490.474 1041.423 -489.808 1039.03 ZM -458.514 1048.28 L -463.734 1048.28 L -465.394 1042.84 L -473.714 1042.84 L -475.374 1048.28 L -480.594 1048.28 L -472.534 1025.34 L -466.614 1025.34 L -458.514 1048.28 Z M -472.504 1038.78 L -466.544 1038.78 C -468.077 1033.853 -468.941 1031.067 -469.134 1030.42 C -469.327 1029.773 -469.464 1029.263 -469.544 1028.89 C -469.891 1030.223 -470.877 1033.52 -472.504 1038.78 ZM -436.689 1036.64 C -436.689 1040.4 -437.759 1043.28 -439.899 1045.28 C -442.039 1047.28 -445.132 1048.28 -449.179 1048.28 L -455.639 1048.28 L -455.639 1025.44 L -448.469 1025.44 C -444.742 1025.44 -441.849 1026.423 -439.789 1028.39 C -437.722 1030.357 -436.689 1033.107 -436.689 1036.64 Z M -441.719 1036.76 C -441.719 1031.853 -443.886 1029.4 -448.219 1029.4 L -450.799 1029.4 L -450.799 1044.28 L -448.719 1044.28 C -444.052 1044.28 -441.719 1041.773 -441.719 1036.76 ZM -412.755 1048.28 L -417.975 1048.28 L -419.635 1042.84 L -427.955 1042.84 L -429.615 1048.28 L -434.835 1048.28 L -426.775 1025.34 L -420.855 1025.34 L -412.755 1048.28 Z M -426.745 1038.78 L -420.785 1038.78 C -422.319 1033.853 -423.182 1031.067 -423.375 1030.42 C -423.569 1029.773 -423.705 1029.263 -423.785 1028.89 C -424.132 1030.223 -425.119 1033.52 -426.745 1038.78 Z" transform="matrix(1, 0, 0, 1, 1190.773681640625, -542.359375)" style="fill: rgb(255, 255, 255); white-space: pre;"/>
  <path d="M -749.722 1073.94 C -749.722 1076 -750.465 1077.623 -751.952 1078.81 C -753.432 1079.997 -755.495 1080.59 -758.142 1080.59 C -760.582 1080.59 -762.739 1080.133 -764.612 1079.22 L -764.612 1074.72 C -763.072 1075.407 -761.769 1075.89 -760.702 1076.17 C -759.635 1076.45 -758.659 1076.59 -757.772 1076.59 C -756.705 1076.59 -755.889 1076.387 -755.322 1075.98 C -754.755 1075.573 -754.472 1074.97 -754.472 1074.17 C -754.472 1073.723 -754.599 1073.327 -754.852 1072.98 C -755.099 1072.627 -755.465 1072.29 -755.952 1071.97 C -756.432 1071.643 -757.419 1071.127 -758.912 1070.42 C -760.305 1069.767 -761.352 1069.137 -762.052 1068.53 C -762.752 1067.923 -763.309 1067.22 -763.722 1066.42 C -764.142 1065.62 -764.352 1064.683 -764.352 1063.61 C -764.352 1061.59 -763.665 1060 -762.292 1058.84 C -760.925 1057.687 -759.032 1057.11 -756.612 1057.11 C -755.425 1057.11 -754.292 1057.25 -753.212 1057.53 C -752.139 1057.81 -751.012 1058.207 -749.832 1058.72 L -751.392 1062.48 C -752.612 1061.98 -753.622 1061.633 -754.422 1061.44 C -755.215 1061.24 -755.999 1061.14 -756.772 1061.14 C -757.685 1061.14 -758.389 1061.353 -758.882 1061.78 C -759.369 1062.207 -759.612 1062.763 -759.612 1063.45 C -759.612 1063.877 -759.512 1064.25 -759.312 1064.57 C -759.119 1064.89 -758.805 1065.197 -758.372 1065.49 C -757.939 1065.79 -756.915 1066.323 -755.302 1067.09 C -753.169 1068.11 -751.705 1069.133 -750.912 1070.16 C -750.119 1071.187 -749.722 1072.447 -749.722 1073.94 ZM -739.73 1057.44 L -735.4 1057.44 L -743.91 1080.28 L -748.24 1080.28 L -739.73 1057.44 ZM -719.292 1071.25 L -719.292 1080.28 L -724.052 1080.28 L -724.052 1057.44 L -710.962 1057.44 L -710.962 1061.4 L -719.292 1061.4 L -719.292 1067.3 L -711.542 1067.3 L -711.542 1071.25 L -719.292 1071.25 ZM -701.652 1080.28 L -706.492 1080.28 L -706.492 1057.44 L -701.652 1057.44 L -701.652 1080.28 ZM -675.64 1057.44 L -675.64 1080.28 L -681.8 1080.28 L -691.73 1063 L -691.87 1063 C -691.676 1066.053 -691.58 1068.23 -691.58 1069.53 L -691.58 1080.28 L -695.9 1080.28 L -695.9 1057.44 L -689.8 1057.44 L -679.87 1074.55 L -679.76 1074.55 C -679.92 1071.577 -680 1069.477 -680 1068.25 L -680 1057.44 L -675.64 1057.44 ZM -656.408 1073.94 C -656.408 1076 -657.151 1077.623 -658.638 1078.81 C -660.118 1079.997 -662.181 1080.59 -664.828 1080.59 C -667.268 1080.59 -669.425 1080.133 -671.298 1079.22 L -671.298 1074.72 C -669.758 1075.407 -668.455 1075.89 -667.388 1076.17 C -666.321 1076.45 -665.345 1076.59 -664.458 1076.59 C -663.391 1076.59 -662.575 1076.387 -662.008 1075.98 C -661.441 1075.573 -661.158 1074.97 -661.158 1074.17 C -661.158 1073.723 -661.285 1073.327 -661.538 1072.98 C -661.785 1072.627 -662.151 1072.29 -662.638 1071.97 C -663.118 1071.643 -664.105 1071.127 -665.598 1070.42 C -666.991 1069.767 -668.038 1069.137 -668.738 1068.53 C -669.438 1067.923 -669.995 1067.22 -670.408 1066.42 C -670.828 1065.62 -671.038 1064.683 -671.038 1063.61 C -671.038 1061.59 -670.351 1060 -668.978 1058.84 C -667.611 1057.687 -665.718 1057.11 -663.298 1057.11 C -662.111 1057.11 -660.978 1057.25 -659.898 1057.53 C -658.825 1057.81 -657.698 1058.207 -656.518 1058.72 L -658.078 1062.48 C -659.298 1061.98 -660.308 1061.633 -661.108 1061.44 C -661.901 1061.24 -662.685 1061.14 -663.458 1061.14 C -664.371 1061.14 -665.075 1061.353 -665.568 1061.78 C -666.055 1062.207 -666.298 1062.763 -666.298 1063.45 C -666.298 1063.877 -666.198 1064.25 -665.998 1064.57 C -665.805 1064.89 -665.491 1065.197 -665.058 1065.49 C -664.625 1065.79 -663.601 1066.323 -661.988 1067.09 C -659.855 1068.11 -658.391 1069.133 -657.598 1070.16 C -656.805 1071.187 -656.408 1072.447 -656.408 1073.94 ZM -629.854 1080.28 L -643.954 1080.28 L -643.954 1057.44 L -639.114 1057.44 L -639.114 1076.28 L -629.854 1076.28 L -629.854 1080.28 ZM -612.119 1057.44 L -607.289 1057.44 L -607.289 1072.22 C -607.289 1073.907 -607.666 1075.383 -608.419 1076.65 C -609.179 1077.923 -610.272 1078.9 -611.699 1079.58 C -613.126 1080.253 -614.812 1080.59 -616.759 1080.59 C -619.699 1080.59 -621.979 1079.837 -623.599 1078.33 C -625.226 1076.83 -626.039 1074.77 -626.039 1072.15 L -626.039 1057.44 L -621.209 1057.44 L -621.209 1071.42 C -621.209 1073.18 -620.856 1074.473 -620.149 1075.3 C -619.442 1076.12 -618.269 1076.53 -616.629 1076.53 C -615.049 1076.53 -613.902 1076.117 -613.189 1075.29 C -612.476 1074.463 -612.119 1073.163 -612.119 1071.39 L -612.119 1057.44 ZM -591.995 1061.14 C -593.822 1061.14 -595.235 1061.823 -596.235 1063.19 C -597.235 1064.563 -597.735 1066.473 -597.735 1068.92 C -597.735 1074.013 -595.822 1076.56 -591.995 1076.56 C -590.395 1076.56 -588.452 1076.16 -586.165 1075.36 L -586.165 1079.42 C -588.045 1080.2 -590.139 1080.59 -592.445 1080.59 C -595.772 1080.59 -598.315 1079.583 -600.075 1077.57 C -601.835 1075.557 -602.715 1072.663 -602.715 1068.89 C -602.715 1066.517 -602.282 1064.437 -601.415 1062.65 C -600.555 1060.863 -599.315 1059.493 -597.695 1058.54 C -596.075 1057.587 -594.175 1057.11 -591.995 1057.11 C -589.775 1057.11 -587.545 1057.647 -585.305 1058.72 L -586.875 1062.65 C -587.729 1062.25 -588.585 1061.897 -589.445 1061.59 C -590.312 1061.29 -591.162 1061.14 -591.995 1061.14 ZM -576.468 1061.4 L -576.468 1067.58 L -574.908 1067.58 C -573.374 1067.58 -572.244 1067.323 -571.518 1066.81 C -570.784 1066.303 -570.418 1065.5 -570.418 1064.4 C -570.418 1063.32 -570.791 1062.55 -571.538 1062.09 C -572.284 1061.63 -573.438 1061.4 -574.998 1061.4 L -576.468 1061.4 Z M -573.888 1071.51 L -576.468 1071.51 L -576.468 1080.28 L -581.308 1080.28 L -581.308 1057.44 L -574.658 1057.44 C -571.551 1057.44 -569.254 1058.003 -567.768 1059.13 C -566.274 1060.263 -565.528 1061.98 -565.528 1064.28 C -565.528 1065.627 -565.898 1066.823 -566.638 1067.87 C -567.378 1068.917 -568.424 1069.737 -569.778 1070.33 C -566.344 1075.463 -564.104 1078.78 -563.058 1080.28 L -568.438 1080.28 L -573.888 1071.51 ZM -540.986 1080.28 L -546.206 1080.28 L -547.866 1074.84 L -556.186 1074.84 L -557.846 1080.28 L -563.066 1080.28 L -555.006 1057.34 L -549.086 1057.34 L -540.986 1080.28 Z M -554.976 1070.78 L -549.016 1070.78 C -550.549 1065.853 -551.413 1063.067 -551.606 1062.42 C -551.799 1061.773 -551.936 1061.263 -552.016 1060.89 C -552.363 1062.223 -553.349 1065.52 -554.976 1070.78 ZM -529.301 1061.47 L -529.301 1080.28 L -534.151 1080.28 L -534.151 1061.47 L -540.351 1061.47 L -540.351 1057.44 L -523.101 1057.44 L -523.101 1061.47 L -529.301 1061.47 ZM -514.743 1080.28 L -519.583 1080.28 L -519.583 1057.44 L -514.743 1057.44 L -514.743 1080.28 ZM -500.29 1071.03 L -495.96 1057.44 L -491.07 1057.44 L -498.84 1080.28 L -504.12 1080.28 L -511.87 1057.44 L -506.98 1057.44 L -502.68 1071.03 C -502.44 1071.83 -502.194 1072.763 -501.94 1073.83 C -501.687 1074.903 -501.527 1075.647 -501.46 1076.06 C -501.347 1075.1 -500.957 1073.423 -500.29 1071.03 ZM -467.467 1068.83 C -467.467 1072.61 -468.403 1075.517 -470.277 1077.55 C -472.157 1079.577 -474.847 1080.59 -478.347 1080.59 C -481.847 1080.59 -484.533 1079.577 -486.407 1077.55 C -488.28 1075.517 -489.217 1072.6 -489.217 1068.8 C -489.217 1064.993 -488.277 1062.087 -486.397 1060.08 C -484.517 1058.08 -481.82 1057.08 -478.307 1057.08 C -474.8 1057.08 -472.117 1058.09 -470.257 1060.11 C -468.397 1062.13 -467.467 1065.037 -467.467 1068.83 Z M -484.137 1068.83 C -484.137 1071.377 -483.653 1073.297 -482.687 1074.59 C -481.72 1075.883 -480.273 1076.53 -478.347 1076.53 C -474.48 1076.53 -472.547 1073.963 -472.547 1068.83 C -472.547 1063.683 -474.467 1061.11 -478.307 1061.11 C -480.233 1061.11 -481.687 1061.757 -482.667 1063.05 C -483.647 1064.35 -484.137 1066.277 -484.137 1068.83 ZM -449.252 1073.94 C -449.252 1076 -449.995 1077.623 -451.482 1078.81 C -452.962 1079.997 -455.025 1080.59 -457.672 1080.59 C -460.112 1080.59 -462.269 1080.133 -464.142 1079.22 L -464.142 1074.72 C -462.602 1075.407 -461.299 1075.89 -460.232 1076.17 C -459.165 1076.45 -458.189 1076.59 -457.302 1076.59 C -456.235 1076.59 -455.419 1076.387 -454.852 1075.98 C -454.285 1075.573 -454.002 1074.97 -454.002 1074.17 C -454.002 1073.723 -454.129 1073.327 -454.382 1072.98 C -454.629 1072.627 -454.995 1072.29 -455.482 1071.97 C -455.962 1071.643 -456.949 1071.127 -458.442 1070.42 C -459.835 1069.767 -460.882 1069.137 -461.582 1068.53 C -462.282 1067.923 -462.839 1067.22 -463.252 1066.42 C -463.672 1065.62 -463.882 1064.683 -463.882 1063.61 C -463.882 1061.59 -463.195 1060 -461.822 1058.84 C -460.455 1057.687 -458.562 1057.11 -456.142 1057.11 C -454.955 1057.11 -453.822 1057.25 -452.742 1057.53 C -451.669 1057.81 -450.542 1058.207 -449.362 1058.72 L -450.922 1062.48 C -452.142 1061.98 -453.152 1061.633 -453.952 1061.44 C -454.745 1061.24 -455.529 1061.14 -456.302 1061.14 C -457.215 1061.14 -457.919 1061.353 -458.412 1061.78 C -458.899 1062.207 -459.142 1062.763 -459.142 1063.45 C -459.142 1063.877 -459.042 1064.25 -458.842 1064.57 C -458.649 1064.89 -458.335 1065.197 -457.902 1065.49 C -457.469 1065.79 -456.445 1066.323 -454.832 1067.09 C -452.699 1068.11 -451.235 1069.133 -450.442 1070.16 C -449.649 1071.187 -449.252 1072.447 -449.252 1073.94 Z" transform="matrix(1, 0, 0, 1, 1190.773681640625, -542.359375)" style="fill: rgb(255, 255, 255); white-space: pre;"/>
</svg>