<svg width="56" height="56" fill="none" xmlns="http://www.w3.org/2000/svg"><g clip-path="url(#clip0)"><path opacity=".6" d="M55.1 27.5C55.1 42.6 42.7 55 27.6 55 12.4 55.1 0 42.7 0 27.5S12.4 0 27.5 0c15.3 0 27.6 12.3 27.6 27.5zm-1.7 0c0-14.3-11.5-25.8-25.8-25.8S1.7 13.3 1.7 27.5c0 14.2 11.6 25.8 25.8 25.8 14.3.1 25.9-11.6 25.9-25.8zM40.6 40.4c0 3.4-2.8 6.1-6.2 6.1-3.4 0-6.1-2.8-6.1-6.1 0-.9.3-1.8.6-2.7l-9-6.6c-1 1.1-2.3 1.6-3.8 1.6-2.9 0-5.2-2.2-5.2-5.2s2.3-5.2 5.2-5.2c1.4 0 2.8.6 3.7 1.5l9.1-6.6c-.4-.8-.6-1.6-.6-2.6 0-3.4 2.8-6.1 6.1-6.1 3.4 0 6.1 2.8 6.1 6.1 0 3.4-2.8 6.1-6.1 6.1-1.8 0-3.4-.8-4.6-2.1l-9.1 6.6c.3.7.5 1.5.5 2.2 0 .8-.3 1.5-.4 2.2l9.2 6.5c1-1.1 2.7-1.9 4.4-1.9 3.5.1 6.2 2.8 6.2 6.2zM30 14.7c0 2.4 1.9 4.4 4.4 4.4 2.4 0 4.4-2 4.4-4.4 0-2.4-2-4.4-4.4-4.4-2.5 0-4.4 2-4.4 4.4zm8.9 25.7c0-2.4-2-4.4-4.5-4.4-2.4 0-4.4 2-4.4 4.4 0 2.4 2 4.4 4.4 4.4 2.5 0 4.5-2 4.5-4.4z" fill="#fff"/></g><defs><clipPath id="clip0"><path fill="#fff" d="M0 0h55.1v55.1H0z"/></clipPath></defs></svg>