<svg id="Layer_1" data-name="Layer 1" xmlns="http://www.w3.org/2000/svg" viewBox="0 0 768 1683.1"><defs><style>.cls-1{fill:#030321;}.cls-15,.cls-2{fill:none;}.cls-2{stroke:#fff;stroke-miterlimit:10;stroke-width:0.54px;}.cls-3{opacity:0.8;}.cls-23,.cls-4,.cls-5,.cls-6{font-size:20px;}.cls-23,.cls-4,.cls-5,.cls-6,.cls-7{fill:#fff;}.cls-10,.cls-11,.cls-12,.cls-13,.cls-14,.cls-4,.cls-5,.cls-6,.cls-8,.cls-9{font-family:OpenSans, Open Sans;}.cls-23,.cls-4{letter-spacing:0.04em;}.cls-13,.cls-14,.cls-5,.cls-9{letter-spacing:0.04em;}.cls-10,.cls-11,.cls-12,.cls-13,.cls-14,.cls-8,.cls-9{font-size:24px;}.cls-17,.cls-8{fill:#ecfdb2;}.cls-10,.cls-11,.cls-12,.cls-8{letter-spacing:0.04em;}.cls-22,.cls-9{fill:#edd38c;}.cls-10,.cls-18{fill:#f6a020;}.cls-11,.cls-20{fill:#f67f47;}.cls-12,.cls-19{fill:#f93543;}.cls-13,.cls-21{fill:#ffd37c;}.cls-14,.cls-16{fill:#df5245;}.cls-15{stroke:#b2b2b2;stroke-width:0.33px;}.cls-23{font-family:OpenSans-Bold, Open Sans;font-weight:700;}.cls-24{opacity:0.28;}</style></defs><rect id="backgorund" class="cls-1" x="-2.71" y="-1.55" width="773.41" height="1903.41"/><line class="cls-2" x1="-8.54" y1="1668.61" x2="768" y2="1668.61"/><g class="cls-3"><text class="cls-4" transform="translate(415.42 558.46)">AVISU</text></g><g class="cls-3"><text class="cls-4" transform="translate(415.42 594.21)">AGLOMERAÇÕES</text></g><g class="cls-3"><text class="cls-4" transform="translate(415.42 629.96)">ALÔ SAÚDE FLORIPA</text></g><g class="cls-3"><text class="cls-4" transform="translate(415.42 665.71)">ATENDE EM CASA</text></g><g class="cls-3"><text class="cls-5" transform="translate(415.42 701.46)">CEARÁAPP</text></g><g class="cls-3"><text class="cls-5" transform="translate(415.42 737.21)">COLAB</text></g><g class="cls-3"><text class="cls-5" transform="translate(415.42 772.96)">COMBATE CORONAVÍRUS</text></g><g class="cls-3"><text class="cls-5" transform="translate(415.42 808.72)">CORONAVÍRUS - SUS</text></g><g class="cls-3"><text class="cls-5" transform="translate(415.42 844.47)">COVID MONITOR</text></g><g class="cls-3"><text class="cls-5" transform="translate(415.42 880.22)">COVIDPR</text></g><g class="cls-3"><text class="cls-4" transform="translate(415.42 915.97)">DADOS DO BEM</text></g><g class="cls-3"><text class="cls-6" transform="translate(415.42 950.72)">DISTANCIAMENTO CONTROLADO RS</text></g><g class="cls-3"><path class="cls-7" d="M428.83,971.19a7.22,7.22,0,0,1-1.92,5.41,7.65,7.65,0,0,1-5.55,1.87h-4V964.19h4.39A7.06,7.06,0,0,1,427,966,6.93,6.93,0,0,1,428.83,971.19Zm-1.76.06a5.74,5.74,0,0,0-1.41-4.21,5.67,5.67,0,0,0-4.18-1.41h-2.43V977h2a6.18,6.18,0,0,0,4.49-1.46A5.76,5.76,0,0,0,427.07,971.25Z"/><path class="cls-7" d="M436.48,971.33l3.83-7.14h1.8l-4.78,8.74v5.54h-1.69V973l-4.78-8.82h1.83Z"/><path class="cls-7" d="M451,965.47A4.67,4.67,0,0,0,447.3,967a6.25,6.25,0,0,0-1.37,4.29,6.42,6.42,0,0,0,1.32,4.33,4.69,4.69,0,0,0,3.76,1.53,12.8,12.8,0,0,0,3.42-.54v1.46a10.59,10.59,0,0,1-3.68.56,6.23,6.23,0,0,1-4.89-1.92,7.89,7.89,0,0,1-1.72-5.44,8.61,8.61,0,0,1,.83-3.87,5.9,5.9,0,0,1,2.39-2.55,7.28,7.28,0,0,1,3.69-.9,8.89,8.89,0,0,1,3.94.82l-.71,1.42A7.71,7.71,0,0,0,451,965.47Z"/><path class="cls-7" d="M470.81,971.31a7.83,7.83,0,0,1-1.74,5.39,6.14,6.14,0,0,1-4.84,2,6.24,6.24,0,0,1-4.89-1.93,7.9,7.9,0,0,1-1.72-5.45,7.8,7.8,0,0,1,1.72-5.4,6.26,6.26,0,0,1,4.91-1.92,6.1,6.1,0,0,1,4.82,1.95A7.82,7.82,0,0,1,470.81,971.31Zm-11.43,0a6.79,6.79,0,0,0,1.24,4.4,5.09,5.09,0,0,0,7.21,0,6.88,6.88,0,0,0,1.21-4.41,6.78,6.78,0,0,0-1.21-4.37,4.35,4.35,0,0,0-3.58-1.49,4.45,4.45,0,0,0-3.63,1.5A6.72,6.72,0,0,0,459.38,971.31Z"/><path class="cls-7" d="M483,964.19h1.79l-5.16,14.28H478l-5.14-14.28h1.76l3.3,9.24a24.87,24.87,0,0,1,.9,3.1,26.34,26.34,0,0,1,.92-3.16Z"/><path class="cls-7" d="M487.57,978.47V964.19h1.67v14.28Z"/><path class="cls-7" d="M505.42,971.19a7.18,7.18,0,0,1-1.93,5.41,7.62,7.62,0,0,1-5.55,1.87h-4V964.19h4.4a7,7,0,0,1,5.19,1.85A6.93,6.93,0,0,1,505.42,971.19Zm-1.77.06a5.78,5.78,0,0,0-1.4-4.21,5.69,5.69,0,0,0-4.19-1.41h-2.42V977h2a6.15,6.15,0,0,0,4.48-1.46A5.76,5.76,0,0,0,503.65,971.25Z"/><path class="cls-7" d="M514.29,973.85v-1.48h4.82v1.48Z"/><path class="cls-7" d="M540.17,971.19a7.22,7.22,0,0,1-1.92,5.41,7.65,7.65,0,0,1-5.55,1.87h-4V964.19h4.39a7.06,7.06,0,0,1,5.2,1.85A6.93,6.93,0,0,1,540.17,971.19Zm-1.76.06A5.74,5.74,0,0,0,537,967a5.67,5.67,0,0,0-4.18-1.41H530.4V977h2a6.17,6.17,0,0,0,4.48-1.46A5.76,5.76,0,0,0,538.41,971.25Z"/><path class="cls-7" d="M547.82,971.33l3.83-7.14h1.8l-4.78,8.74v5.54H547V973l-4.78-8.82H544Z"/><path class="cls-7" d="M567.43,978.47h-1.9l-7.84-12h-.08c.11,1.4.16,2.69.16,3.86v8.12h-1.54V964.19h1.88l7.82,11.94H566c0-.18,0-.74-.09-1.7s-.06-1.63,0-2v-8.2h1.56Z"/><path class="cls-7" d="M581.19,978.47l-1.79-4.54h-5.74l-1.77,4.54H570.2l5.67-14.34h1.41l5.63,14.34Zm-2.31-6L577.22,968c-.22-.56-.44-1.25-.67-2.06a17.13,17.13,0,0,1-.62,2.06l-1.68,4.42Z"/><path class="cls-7" d="M592,978.47l-4.87-12.66h-.08c.09,1,.14,2.2.14,3.58v9.08h-1.54V964.19h2.51L592.74,976h.08l4.58-11.78h2.49v14.28h-1.67v-9.2c0-1,0-2.2.14-3.44h-.08l-4.9,12.64Z"/><path class="cls-7" d="M604.63,978.47V964.19h1.67v14.28Z"/><path class="cls-7" d="M617.17,965.47a4.68,4.68,0,0,0-3.73,1.57,6.3,6.3,0,0,0-1.37,4.29,6.42,6.42,0,0,0,1.32,4.33,4.69,4.69,0,0,0,3.76,1.53,12.93,12.93,0,0,0,3.43-.54v1.46a10.67,10.67,0,0,1-3.68.56,6.23,6.23,0,0,1-4.89-1.92,7.84,7.84,0,0,1-1.72-5.44,8.48,8.48,0,0,1,.83-3.87,5.9,5.9,0,0,1,2.39-2.55,7.25,7.25,0,0,1,3.68-.9,8.83,8.83,0,0,1,3.94.82l-.7,1.42A7.76,7.76,0,0,0,617.17,965.47Z"/><path class="cls-7" d="M423.53,986.47A4.67,4.67,0,0,0,419.8,988a6.25,6.25,0,0,0-1.37,4.29,6.42,6.42,0,0,0,1.32,4.33,4.69,4.69,0,0,0,3.76,1.53,12.8,12.8,0,0,0,3.42-.54v1.46a10.59,10.59,0,0,1-3.68.56,6.23,6.23,0,0,1-4.89-1.92,7.89,7.89,0,0,1-1.72-5.44,8.61,8.61,0,0,1,.83-3.87,5.9,5.9,0,0,1,2.39-2.55,7.28,7.28,0,0,1,3.69-.9,8.89,8.89,0,0,1,3.94.82l-.71,1.42A7.71,7.71,0,0,0,423.53,986.47Z"/><path class="cls-7" d="M443.31,992.31a7.83,7.83,0,0,1-1.74,5.39,6.14,6.14,0,0,1-4.84,2,6.24,6.24,0,0,1-4.89-1.93,7.9,7.9,0,0,1-1.72-5.45,7.8,7.8,0,0,1,1.72-5.4,6.26,6.26,0,0,1,4.91-1.92,6.1,6.1,0,0,1,4.82,1.95A7.82,7.82,0,0,1,443.31,992.31Zm-11.43,0a6.79,6.79,0,0,0,1.24,4.4,5.09,5.09,0,0,0,7.21,0,6.88,6.88,0,0,0,1.21-4.41,6.78,6.78,0,0,0-1.21-4.37,4.35,4.35,0,0,0-3.58-1.49,4.45,4.45,0,0,0-3.63,1.5A6.72,6.72,0,0,0,431.88,992.31Z"/><path class="cls-7" d="M458.51,999.47h-1.9l-7.84-12h-.08c.11,1.4.16,2.69.16,3.86v8.12h-1.54V985.19h1.88L457,997.13h.08c0-.18,0-.74-.09-1.7s-.06-1.63-.05-2v-8.2h1.56Z"/><path class="cls-7" d="M467.67,999.47H466v-12.8h-4.54v-1.48h10.75v1.48h-4.54Z"/><path class="cls-7" d="M484.19,999.47l-1.79-4.54h-5.75l-1.76,4.54H473.2l5.67-14.34h1.4l5.64,14.34Zm-2.31-6L480.21,989c-.21-.56-.43-1.25-.66-2.06a19.17,19.17,0,0,1-.62,2.06l-1.69,4.42Z"/><path class="cls-7" d="M494.83,986.47A4.67,4.67,0,0,0,491.1,988a6.25,6.25,0,0,0-1.37,4.29,6.42,6.42,0,0,0,1.32,4.33,4.69,4.69,0,0,0,3.76,1.53,12.8,12.8,0,0,0,3.42-.54v1.46a10.59,10.59,0,0,1-3.68.56,6.23,6.23,0,0,1-4.89-1.92,7.89,7.89,0,0,1-1.72-5.44,8.61,8.61,0,0,1,.83-3.87,5.9,5.9,0,0,1,2.39-2.55,7.28,7.28,0,0,1,3.69-.9,8.89,8.89,0,0,1,3.94.82l-.71,1.42A7.71,7.71,0,0,0,494.83,986.47Z"/><path class="cls-7" d="M506.58,999.47h-1.67v-12.8h-4.54v-1.48h10.75v1.48h-4.54Z"/><path class="cls-7" d="M524.51,999.47h-1.66v-12.8H518.3v-1.48h10.75v1.48h-4.54Z"/><path class="cls-7" d="M533.68,993.53v5.94H532V985.19H536a6.21,6.21,0,0,1,3.9,1,3.64,3.64,0,0,1,1.26,3,3.79,3.79,0,0,1-2.89,3.82l3.9,6.42h-2l-3.48-5.94Zm0-1.42H536a4,4,0,0,0,2.59-.7,2.61,2.61,0,0,0,.82-2.1,2.38,2.38,0,0,0-.84-2,4.6,4.6,0,0,0-2.69-.62h-2.17Z"/><path class="cls-7" d="M554.25,999.47l-1.79-4.54h-5.74L545,999.47h-1.69l5.67-14.34h1.41L556,999.47Zm-2.31-6L550.28,989c-.22-.56-.44-1.25-.67-2.06A17.13,17.13,0,0,1,549,989l-1.68,4.42Z"/><path class="cls-7" d="M564.89,986.47a4.67,4.67,0,0,0-3.73,1.57,6.3,6.3,0,0,0-1.37,4.29,6.42,6.42,0,0,0,1.32,4.33,4.69,4.69,0,0,0,3.76,1.53,12.8,12.8,0,0,0,3.42-.54v1.46a10.57,10.57,0,0,1-3.67.56,6.21,6.21,0,0,1-4.89-1.92,7.84,7.84,0,0,1-1.73-5.44,8.61,8.61,0,0,1,.83-3.87,5.92,5.92,0,0,1,2.4-2.55,7.25,7.25,0,0,1,3.68-.9,8.86,8.86,0,0,1,3.94.82l-.7,1.42A7.76,7.76,0,0,0,564.89,986.47Z"/><path class="cls-7" d="M572.23,999.47V985.19h1.66v14.28Z"/><path class="cls-7" d="M589.83,999.47h-1.9l-7.84-12H580c.11,1.4.16,2.69.16,3.86v8.12h-1.54V985.19h1.88l7.82,11.94h.08c0-.18,0-.74-.09-1.7s-.06-1.63-.05-2v-8.2h1.56Z"/><path class="cls-7" d="M600.88,992h4.88v6.94a15.34,15.34,0,0,1-2.32.55,18,18,0,0,1-2.72.19,6.65,6.65,0,0,1-5.08-1.93,7.59,7.59,0,0,1-1.81-5.41,8.14,8.14,0,0,1,.9-3.9,6.07,6.07,0,0,1,2.58-2.56,8.4,8.4,0,0,1,4-.88,10.86,10.86,0,0,1,4.28.84l-.65,1.46a9.69,9.69,0,0,0-3.73-.82,5.37,5.37,0,0,0-4.09,1.55,6,6,0,0,0-1.47,4.31,6.18,6.18,0,0,0,1.41,4.39,5.52,5.52,0,0,0,4.17,1.49,12.32,12.32,0,0,0,2.91-.34v-4.4h-3.21Z"/></g><g class="cls-3"><text class="cls-4" transform="translate(415.42 1023.22)">ISUS</text></g><g class="cls-3"><text class="cls-5" transform="translate(415.42 1058.97)">KEYAPP</text></g><g class="cls-3"><text class="cls-4" transform="translate(415.42 1094.72)">MAIS SAÚDE CIDADÃO</text></g><g class="cls-3"><text class="cls-4" transform="translate(415.42 1130.47)">MEU INFO SÁUDE</text></g><g class="cls-3"><text class="cls-4" transform="translate(415.42 1166.22)">MINHA SAÚDE</text></g><g class="cls-3"><text class="cls-4" transform="translate(415.42 1201.98)">MONITORA COVID-19</text></g><g class="cls-3"><text class="cls-5" transform="translate(415.42 1237.73)">PRONTO MOBILE</text></g><g class="cls-3"><text class="cls-4" transform="translate(415.42 1273.48)">SASI</text></g><g class="cls-3"><path class="cls-7" d="M425.48,1293.43a3.5,3.5,0,0,1-1.37,2.94,6,6,0,0,1-3.73,1.05,9.29,9.29,0,0,1-3.92-.65v-1.6a10.92,10.92,0,0,0,4,.8,4.16,4.16,0,0,0,2.51-.63,2.07,2.07,0,0,0,.84-1.75,2.25,2.25,0,0,0-.3-1.22,2.65,2.65,0,0,0-1-.87,14.09,14.09,0,0,0-2.13-.91,6.89,6.89,0,0,1-2.86-1.69,3.73,3.73,0,0,1-.86-2.55,3.17,3.17,0,0,1,1.25-2.63,5.19,5.19,0,0,1,3.29-1,9.79,9.79,0,0,1,3.94.78l-.52,1.44a9.06,9.06,0,0,0-3.46-.74,3.35,3.35,0,0,0-2.07.57,1.86,1.86,0,0,0-.74,1.57,2.41,2.41,0,0,0,.27,1.21,2.63,2.63,0,0,0,.93.87,11.17,11.17,0,0,0,2,.88,7.8,7.8,0,0,1,3.1,1.72A3.34,3.34,0,0,1,425.48,1293.43Z"/><path class="cls-7" d="M438.23,1297.23l-1.79-4.54H430.7l-1.77,4.54h-1.69l5.67-14.34h1.4l5.64,14.34Zm-2.31-6-1.66-4.42c-.22-.56-.44-1.25-.67-2.06a17.69,17.69,0,0,1-.62,2.06l-1.69,4.42Z"/><path class="cls-7" d="M453.93,1297.23H452l-7.84-12h-.08c.11,1.4.16,2.69.16,3.86v8.12h-1.54V1283h1.88l7.82,11.93h.08c0-.17,0-.74-.09-1.69s-.06-1.64-.05-2V1283h1.56Z"/><path class="cls-7" d="M463.09,1297.23h-1.67v-12.8h-4.54V1283h10.75v1.48h-4.54Z"/><path class="cls-7" d="M479.61,1297.23l-1.79-4.54h-5.75l-1.76,4.54h-1.69l5.67-14.34h1.4l5.64,14.34Zm-2.31-6-1.67-4.42c-.21-.56-.43-1.25-.66-2.06a19.87,19.87,0,0,1-.62,2.06l-1.69,4.42Z"/><path class="cls-7" d="M490.13,1297.23V1283h1.67v14.28Z"/><path class="cls-7" d="M504.62,1293.43a3.47,3.47,0,0,1-1.37,2.94,6,6,0,0,1-3.73,1.05,9.32,9.32,0,0,1-3.92-.65v-1.6a10,10,0,0,0,1.92.58,9.76,9.76,0,0,0,2.06.22,4.16,4.16,0,0,0,2.51-.63,2.06,2.06,0,0,0,.85-1.75,2.25,2.25,0,0,0-.3-1.22,2.73,2.73,0,0,0-1-.87,13.84,13.84,0,0,0-2.14-.91,7,7,0,0,1-2.86-1.69,3.72,3.72,0,0,1-.85-2.55,3.17,3.17,0,0,1,1.24-2.63,5.2,5.2,0,0,1,3.3-1,9.78,9.78,0,0,1,3.93.78l-.52,1.44a9,9,0,0,0-3.45-.74,3.35,3.35,0,0,0-2.07.57,1.85,1.85,0,0,0-.75,1.57,2.31,2.31,0,0,0,.28,1.21,2.51,2.51,0,0,0,.92.87,11.17,11.17,0,0,0,2,.88,7.73,7.73,0,0,1,3.1,1.72A3.34,3.34,0,0,1,504.62,1293.43Z"/><path class="cls-7" d="M517.37,1297.23l-1.78-4.54h-5.75l-1.77,4.54h-1.68l5.67-14.34h1.4l5.64,14.34Zm-2.3-6-1.67-4.42c-.22-.56-.44-1.25-.67-2.06a19.64,19.64,0,0,1-.61,2.06l-1.69,4.42Z"/><path class="cls-7" d="M521.87,1283h4a7.62,7.62,0,0,1,4.13.85,3,3,0,0,1,1.28,2.69,3.11,3.11,0,0,1-.71,2.09,3.44,3.44,0,0,1-2.08,1.07v.1q3.27.55,3.27,3.42a3.64,3.64,0,0,1-1.3,3,5.53,5.53,0,0,1-3.63,1.08h-5Zm1.67,6.11h2.75a4.49,4.49,0,0,0,2.54-.55,2.15,2.15,0,0,0,.77-1.86,1.88,1.88,0,0,0-.86-1.73,5.38,5.38,0,0,0-2.75-.53h-2.45Zm0,1.41v5.34h3a4.27,4.27,0,0,0,2.62-.67,2.46,2.46,0,0,0,.87-2.09,2.19,2.19,0,0,0-.89-2,4.8,4.8,0,0,0-2.74-.63Z"/><path class="cls-7" d="M543.69,1297.23h-8V1283h8v1.48h-6.33V1289h5.94v1.47h-5.94v5.25h6.33Z"/><path class="cls-7" d="M547.67,1297.23V1283h1.66v12.77h6.33v1.51Z"/><path class="cls-7" d="M423.53,1305.23a4.67,4.67,0,0,0-3.73,1.57,6.25,6.25,0,0,0-1.37,4.29,6.42,6.42,0,0,0,1.32,4.33,4.69,4.69,0,0,0,3.76,1.53,12.8,12.8,0,0,0,3.42-.54v1.46a10.61,10.61,0,0,1-3.68.55,6.23,6.23,0,0,1-4.89-1.91,7.91,7.91,0,0,1-1.72-5.44,8.61,8.61,0,0,1,.83-3.87,6,6,0,0,1,2.39-2.56,7.28,7.28,0,0,1,3.69-.89,8.89,8.89,0,0,1,3.94.82l-.71,1.42A7.57,7.57,0,0,0,423.53,1305.23Z"/><path class="cls-7" d="M443.31,1311.07a7.83,7.83,0,0,1-1.74,5.39,6.13,6.13,0,0,1-4.84,2,6.23,6.23,0,0,1-4.89-1.92,7.92,7.92,0,0,1-1.72-5.45,7.78,7.78,0,0,1,1.72-5.4,6.26,6.26,0,0,1,4.91-1.92,6.1,6.1,0,0,1,4.82,2A7.82,7.82,0,0,1,443.31,1311.07Zm-11.43,0a6.81,6.81,0,0,0,1.24,4.4,4.42,4.42,0,0,0,3.61,1.5,4.36,4.36,0,0,0,3.6-1.5,8.55,8.55,0,0,0,0-8.77,4.35,4.35,0,0,0-3.58-1.49,4.45,4.45,0,0,0-3.63,1.5A6.72,6.72,0,0,0,431.88,1311.07Z"/><path class="cls-7" d="M458.51,1318.23h-1.9l-7.84-12h-.08c.11,1.4.16,2.69.16,3.86v8.12h-1.54V1304h1.88l7.82,11.93h.08c0-.17,0-.74-.09-1.69s-.06-1.64-.05-2V1304h1.56Z"/><path class="cls-7" d="M467.67,1318.23H466v-12.8h-4.54V1304h10.75v1.48h-4.54Z"/><path class="cls-7" d="M476.84,1312.29v5.94h-1.67V1304h3.94a6.2,6.2,0,0,1,3.89,1,3.63,3.63,0,0,1,1.26,3,3.79,3.79,0,0,1-2.88,3.83l3.89,6.42h-2l-3.47-5.94Zm0-1.42h2.28a4,4,0,0,0,2.59-.7,2.61,2.61,0,0,0,.83-2.1,2.38,2.38,0,0,0-.84-2,4.54,4.54,0,0,0-2.69-.62h-2.17Z"/><path class="cls-7" d="M497.41,1318.23l-1.79-4.54h-5.75l-1.76,4.54h-1.69l5.67-14.34h1.4l5.64,14.34Zm-2.31-6-1.67-4.42c-.21-.56-.43-1.25-.66-2.06a19.87,19.87,0,0,1-.62,2.06l-1.69,4.42Z"/><path class="cls-7" d="M520.37,1311.07a7.83,7.83,0,0,1-1.74,5.39,6.12,6.12,0,0,1-4.84,2,6.23,6.23,0,0,1-4.89-1.92,8,8,0,0,1-1.72-5.45,7.78,7.78,0,0,1,1.73-5.4,6.24,6.24,0,0,1,4.9-1.92,6.14,6.14,0,0,1,4.83,2A7.81,7.81,0,0,1,520.37,1311.07Zm-11.42,0a6.75,6.75,0,0,0,1.24,4.4,4.41,4.41,0,0,0,3.6,1.5,4.36,4.36,0,0,0,3.6-1.5,8.52,8.52,0,0,0,0-8.77,4.36,4.36,0,0,0-3.59-1.49,4.43,4.43,0,0,0-3.62,1.5A6.67,6.67,0,0,0,509,1311.07Z"/><path class="cls-7" d="M536.54,1305.23a4.71,4.71,0,0,0-3.74,1.57,6.29,6.29,0,0,0-1.36,4.29,6.42,6.42,0,0,0,1.32,4.33,4.68,4.68,0,0,0,3.76,1.53,12.8,12.8,0,0,0,3.42-.54v1.46a10.61,10.61,0,0,1-3.68.55,6.23,6.23,0,0,1-4.89-1.91,7.91,7.91,0,0,1-1.72-5.44,8.61,8.61,0,0,1,.83-3.87,6,6,0,0,1,2.39-2.56,7.28,7.28,0,0,1,3.69-.89,8.89,8.89,0,0,1,3.94.82l-.71,1.42A7.57,7.57,0,0,0,536.54,1305.23Z"/><path class="cls-7" d="M556.32,1311.07a7.83,7.83,0,0,1-1.74,5.39,6.13,6.13,0,0,1-4.84,2,6.23,6.23,0,0,1-4.89-1.92,7.92,7.92,0,0,1-1.72-5.45,7.78,7.78,0,0,1,1.72-5.4,6.26,6.26,0,0,1,4.91-1.92,6.1,6.1,0,0,1,4.82,2A7.82,7.82,0,0,1,556.32,1311.07Zm-11.43,0a6.81,6.81,0,0,0,1.24,4.4,4.42,4.42,0,0,0,3.61,1.5,4.36,4.36,0,0,0,3.6-1.5,8.55,8.55,0,0,0,0-8.77,4.35,4.35,0,0,0-3.58-1.49,4.45,4.45,0,0,0-3.63,1.5A6.72,6.72,0,0,0,544.89,1311.07Z"/><path class="cls-7" d="M562,1312.29v5.94h-1.67V1304h3.93a6.21,6.21,0,0,1,3.9,1,3.63,3.63,0,0,1,1.26,3,3.79,3.79,0,0,1-2.88,3.83l3.89,6.42h-2l-3.47-5.94Zm0-1.42h2.28a4,4,0,0,0,2.59-.7,2.61,2.61,0,0,0,.82-2.1,2.38,2.38,0,0,0-.83-2,4.56,4.56,0,0,0-2.7-.62H562Z"/><path class="cls-7" d="M586,1311.07a7.83,7.83,0,0,1-1.74,5.39,7.07,7.07,0,0,1-9.73,0,7.92,7.92,0,0,1-1.73-5.45,7.78,7.78,0,0,1,1.73-5.4,6.26,6.26,0,0,1,4.9-1.92,6.14,6.14,0,0,1,4.83,2A7.82,7.82,0,0,1,586,1311.07Zm-11.43,0a6.75,6.75,0,0,0,1.24,4.4,4.41,4.41,0,0,0,3.6,1.5,4.36,4.36,0,0,0,3.6-1.5,8.52,8.52,0,0,0,0-8.77,4.36,4.36,0,0,0-3.59-1.49,4.44,4.44,0,0,0-3.62,1.5A6.67,6.67,0,0,0,574.56,1311.07Z"/><path class="cls-7" d="M601.19,1318.23h-1.91l-7.83-12h-.08c.1,1.4.16,2.69.16,3.86v8.12H590V1304h1.88l7.82,11.93h.08c0-.17,0-.74-.09-1.69s-.07-1.64,0-2V1304h1.56Z"/><path class="cls-7" d="M615,1318.23l-1.79-4.54h-5.75l-1.76,4.54H604l5.67-14.34H611l5.64,14.34Zm-2.31-6-1.67-4.42c-.21-.56-.43-1.25-.66-2.06a19.87,19.87,0,0,1-.62,2.06l-1.69,4.42Z"/><path class="cls-7" d="M627.64,1304h1.79l-5.17,14.28h-1.64L617.48,1304h1.76l3.3,9.24a24.87,24.87,0,0,1,.9,3.1,26.34,26.34,0,0,1,.92-3.16Z"/><path class="cls-7" d="M632,1302.56c.32-.4.65-.89,1-1.46a15.06,15.06,0,0,0,.85-1.49h2v.2a15.25,15.25,0,0,1-1.29,1.56,14.63,14.63,0,0,1-1.48,1.44H632Zm.22,15.67V1304h1.66v14.28Z"/><path class="cls-7" d="M640.28,1312.29v5.94h-1.67V1304h3.93a6.21,6.21,0,0,1,3.9,1,3.63,3.63,0,0,1,1.26,3,3.79,3.79,0,0,1-2.88,3.83l3.89,6.42h-2l-3.47-5.94Zm0-1.42h2.28a4,4,0,0,0,2.59-.7,2.61,2.61,0,0,0,.83-2.1,2.38,2.38,0,0,0-.84-2,4.54,4.54,0,0,0-2.69-.62h-2.17Z"/><path class="cls-7" d="M662.66,1304v9.24a5,5,0,0,1-1.48,3.84,5.71,5.71,0,0,1-4.07,1.39,5.44,5.44,0,0,1-4-1.4,5.23,5.23,0,0,1-1.42-3.87V1304h1.67v9.32a3.67,3.67,0,0,0,1,2.74,4,4,0,0,0,2.89,1,3.81,3.81,0,0,0,2.79-1,3.7,3.7,0,0,0,1-2.76V1304Z"/><path class="cls-7" d="M675.35,1314.43a3.5,3.5,0,0,1-1.37,2.94,6,6,0,0,1-3.73,1.05,9.29,9.29,0,0,1-3.92-.65v-1.6a9.8,9.8,0,0,0,1.92.58,9.69,9.69,0,0,0,2.06.22,4.16,4.16,0,0,0,2.51-.63,2.07,2.07,0,0,0,.84-1.75,2.25,2.25,0,0,0-.3-1.22,2.65,2.65,0,0,0-1-.87,13.65,13.65,0,0,0-2.13-.91,6.89,6.89,0,0,1-2.86-1.69,3.73,3.73,0,0,1-.86-2.55,3.17,3.17,0,0,1,1.25-2.63,5.19,5.19,0,0,1,3.29-1,9.79,9.79,0,0,1,3.94.78l-.52,1.44a9.05,9.05,0,0,0-3.45-.74,3.31,3.31,0,0,0-2.07.57,1.85,1.85,0,0,0-.75,1.57,2.48,2.48,0,0,0,.27,1.22,2.7,2.7,0,0,0,.93.86,11.17,11.17,0,0,0,2,.88,7.73,7.73,0,0,1,3.1,1.72A3.34,3.34,0,0,1,675.35,1314.43Z"/></g><g class="cls-3"><text class="cls-4" transform="translate(415.42 1344.98)">SAÚDE APARECIDA</text></g><g class="cls-3"><text class="cls-4" transform="translate(415.42 1380.73)">SAÚDE DIGITAL MG COVID-19</text></g><g class="cls-3"><text class="cls-4" transform="translate(415.42 1416.48)">SAÚDE ONLINE PR</text></g><g class="cls-3"><text class="cls-4" transform="translate(415.42 1452.23)">SAÚDE SANTO ANDRÉ</text></g><g class="cls-3"><text class="cls-4" transform="translate(415.42 1487.98)">SIMOT</text></g><g class="cls-3"><text class="cls-4" transform="translate(415.42 1523.73)">TELEMEDICINA PARANÁ</text></g><g class="cls-3"><text class="cls-5" transform="translate(415.42 1559.48)">E-SAÚDE SP</text></g><text class="cls-8" transform="translate(371.24 46.44) rotate(90)">DIGITALIZAÇÃO DE SERVIÇOS PÚBLICOS</text><text class="cls-9" transform="translate(331.25 104.3) rotate(90)">FORNECIMENTO DE INFORMAÇÕES</text><text class="cls-10" transform="translate(293.93 229.14) rotate(90)">EVOLUÇÃO DA COVID-19</text><text class="cls-11" transform="translate(261.6 76.29) rotate(90)">MONITORAMENTO DE TEMPERATURA</text><text class="cls-12" transform="translate(227.28 13.4) rotate(90)">MONITORAMENTO DO FLUXO DE PESSOAS</text><text class="cls-13" transform="translate(191.95 149.09) rotate(90)">RASTREAMENTO DE CONTATOS</text><text class="cls-14" transform="translate(156.63 348.49) rotate(90)">TELEMEDICINA</text><line class="cls-15" x1="376.46" y1="540.97" x2="376.46" y2="1572.49"/><line class="cls-15" x1="340.37" y1="540.97" x2="340.37" y2="1572.49"/><line class="cls-15" x1="268.19" y1="540.97" x2="268.19" y2="1572.49"/><line class="cls-15" x1="232.1" y1="540.97" x2="232.1" y2="1572.49"/><line class="cls-15" x1="196" y1="540.97" x2="196" y2="1572.49"/><line class="cls-15" x1="159.91" y1="540.97" x2="159.91" y2="1572.49"/><line class="cls-15" x1="407.22" y1="553.68" x2="111.23" y2="553.68"/><line class="cls-15" x1="407.22" y1="589.23" x2="111.23" y2="589.23"/><line class="cls-15" x1="407.22" y1="624.77" x2="111.23" y2="624.77"/><line class="cls-15" x1="407.22" y1="660.31" x2="111.23" y2="660.31"/><line class="cls-15" x1="407.22" y1="695.85" x2="111.23" y2="695.85"/><line class="cls-15" x1="407.22" y1="731.4" x2="111.23" y2="731.4"/><line class="cls-15" x1="407.22" y1="766.94" x2="111.23" y2="766.94"/><line class="cls-15" x1="407.22" y1="802.48" x2="111.23" y2="802.48"/><line class="cls-15" x1="407.22" y1="838.02" x2="111.23" y2="838.02"/><line class="cls-15" x1="407.22" y1="873.57" x2="111.23" y2="873.57"/><line class="cls-15" x1="407.22" y1="909.11" x2="111.23" y2="909.11"/><line class="cls-15" x1="407.22" y1="944.65" x2="111.23" y2="944.65"/><line class="cls-15" x1="407.22" y1="980.19" x2="111.23" y2="980.19"/><line class="cls-15" x1="407.22" y1="1015.74" x2="111.23" y2="1015.74"/><line class="cls-15" x1="407.22" y1="1051.28" x2="111.23" y2="1051.28"/><line class="cls-15" x1="407.22" y1="1086.82" x2="111.23" y2="1086.82"/><line class="cls-15" x1="407.22" y1="1122.36" x2="111.23" y2="1122.36"/><line class="cls-15" x1="407.22" y1="1157.91" x2="111.23" y2="1157.91"/><line class="cls-15" x1="407.22" y1="1193.45" x2="111.23" y2="1193.45"/><line class="cls-15" x1="407.22" y1="1228.99" x2="111.23" y2="1228.99"/><line class="cls-15" x1="407.22" y1="1264.53" x2="111.23" y2="1264.53"/><line class="cls-15" x1="407.22" y1="1300.08" x2="111.23" y2="1300.08"/><line class="cls-15" x1="407.22" y1="1335.62" x2="111.23" y2="1335.62"/><line class="cls-15" x1="407.22" y1="1371.16" x2="111.23" y2="1371.16"/><line class="cls-15" x1="407.22" y1="1406.7" x2="111.23" y2="1406.7"/><line class="cls-15" x1="407.22" y1="1442.25" x2="111.23" y2="1442.25"/><line class="cls-15" x1="407.22" y1="1477.79" x2="111.23" y2="1477.79"/><line class="cls-15" x1="407.22" y1="1513.33" x2="111.23" y2="1513.33"/><line class="cls-15" x1="407.22" y1="1548.87" x2="111.23" y2="1548.87"/><line class="cls-15" x1="304.28" y1="540.97" x2="304.28" y2="1572.49"/><path class="cls-16" d="M171.61,623.79v4.47a9.16,9.16,0,0,1-9.36,8.94h-4.67a9.16,9.16,0,0,1-9.36-8.94v-4.47a9.16,9.16,0,0,1,9.36-8.94h4.67A9.16,9.16,0,0,1,171.61,623.79Z"/><path class="cls-16" d="M171.61,659.33v4.47a9.16,9.16,0,0,1-9.36,8.94h-4.67a9.16,9.16,0,0,1-9.36-8.94v-4.47a9.16,9.16,0,0,1,9.36-8.94h4.67A9.16,9.16,0,0,1,171.61,659.33Z"/><path class="cls-16" d="M171.61,552.7v4.47a9.16,9.16,0,0,1-9.36,9h-4.67a9.16,9.16,0,0,1-9.36-9V552.7a9.16,9.16,0,0,1,9.36-8.94h4.67A9.16,9.16,0,0,1,171.61,552.7Z"/><path class="cls-16" d="M171.61,730.42v4.47a9.16,9.16,0,0,1-9.36,8.94h-4.67a9.16,9.16,0,0,1-9.36-8.94v-4.47a9.16,9.16,0,0,1,9.36-8.95h4.67A9.16,9.16,0,0,1,171.61,730.42Z"/><path class="cls-16" d="M171.61,837v4.47a9.16,9.16,0,0,1-9.36,9h-4.67a9.16,9.16,0,0,1-9.36-9V837a9.16,9.16,0,0,1,9.36-8.94h4.67A9.16,9.16,0,0,1,171.61,837Z"/><path class="cls-16" d="M171.61,872.59v4.47a9.16,9.16,0,0,1-9.36,8.94h-4.67a9.16,9.16,0,0,1-9.36-8.94v-4.47a9.16,9.16,0,0,1,9.36-9h4.67A9.16,9.16,0,0,1,171.61,872.59Z"/><path class="cls-16" d="M171.61,908.13v4.47a9.16,9.16,0,0,1-9.36,8.94h-4.67a9.16,9.16,0,0,1-9.36-8.94v-4.47a9.16,9.16,0,0,1,9.36-8.94h4.67A9.16,9.16,0,0,1,171.61,908.13Z"/><path class="cls-16" d="M171.61,1547.89v4.47a9.16,9.16,0,0,1-9.36,9h-4.67a9.16,9.16,0,0,1-9.36-9v-4.47a9.16,9.16,0,0,1,9.36-8.94h4.67A9.16,9.16,0,0,1,171.61,1547.89Z"/><path class="cls-16" d="M171.61,1050.3v4.47a9.16,9.16,0,0,1-9.36,8.94h-4.67a9.16,9.16,0,0,1-9.36-8.94v-4.47a9.16,9.16,0,0,1,9.36-8.94h4.67A9.16,9.16,0,0,1,171.61,1050.3Z"/><path class="cls-16" d="M171.61,1085.84v4.47a9.16,9.16,0,0,1-9.36,8.94h-4.67a9.16,9.16,0,0,1-9.36-8.94v-4.47a9.16,9.16,0,0,1,9.36-8.94h4.67A9.16,9.16,0,0,1,171.61,1085.84Z"/><path class="cls-16" d="M171.61,1156.93v4.47a9.16,9.16,0,0,1-9.36,8.94h-4.67a9.16,9.16,0,0,1-9.36-8.94v-4.47a9.16,9.16,0,0,1,9.36-9h4.67A9.16,9.16,0,0,1,171.61,1156.93Z"/><path class="cls-16" d="M171.61,1192.47v4.47a9.16,9.16,0,0,1-9.36,8.94h-4.67a9.16,9.16,0,0,1-9.36-8.94v-4.47a9.16,9.16,0,0,1,9.36-8.94h4.67A9.16,9.16,0,0,1,171.61,1192.47Z"/><path class="cls-16" d="M171.61,1228v4.47a9.16,9.16,0,0,1-9.36,8.94h-4.67a9.16,9.16,0,0,1-9.36-8.94V1228a9.16,9.16,0,0,1,9.36-8.94h4.67A9.16,9.16,0,0,1,171.61,1228Z"/><path class="cls-16" d="M171.61,1299.1v4.47a9.16,9.16,0,0,1-9.36,8.94h-4.67a9.16,9.16,0,0,1-9.36-8.94v-4.47a9.16,9.16,0,0,1,9.36-8.95h4.67A9.16,9.16,0,0,1,171.61,1299.1Z"/><path class="cls-16" d="M171.61,1263.55V1268a9.16,9.16,0,0,1-9.36,9h-4.67a9.16,9.16,0,0,1-9.36-9v-4.47a9.16,9.16,0,0,1,9.36-8.94h4.67A9.16,9.16,0,0,1,171.61,1263.55Z"/><path class="cls-16" d="M171.61,1370.18v4.47a9.16,9.16,0,0,1-9.36,8.94h-4.67a9.16,9.16,0,0,1-9.36-8.94v-4.47a9.16,9.16,0,0,1,9.36-8.94h4.67A9.16,9.16,0,0,1,171.61,1370.18Z"/><path class="cls-16" d="M171.61,1405.72v4.47a9.16,9.16,0,0,1-9.36,9h-4.67a9.16,9.16,0,0,1-9.36-9v-4.47a9.16,9.16,0,0,1,9.36-8.94h4.67A9.16,9.16,0,0,1,171.61,1405.72Z"/><path class="cls-16" d="M171.61,1512.35v4.47a9.16,9.16,0,0,1-9.36,8.94h-4.67a9.16,9.16,0,0,1-9.36-8.94v-4.47a9.16,9.16,0,0,1,9.36-8.94h4.67A9.16,9.16,0,0,1,171.61,1512.35Z"/><path class="cls-17" d="M388.15,1121.38v4.47a9.16,9.16,0,0,1-9.35,9h-4.68a9.16,9.16,0,0,1-9.36-9v-4.47a9.16,9.16,0,0,1,9.36-8.94h4.68A9.15,9.15,0,0,1,388.15,1121.38Z"/><path class="cls-17" d="M388.15,693.62v4.47A9.15,9.15,0,0,1,378.8,707h-4.68a9.16,9.16,0,0,1-9.36-8.94v-4.47a9.16,9.16,0,0,1,9.36-8.94h4.68A9.15,9.15,0,0,1,388.15,693.62Z"/><path class="cls-17" d="M388.15,1334.64v4.47a9.15,9.15,0,0,1-9.35,8.94h-4.68a9.16,9.16,0,0,1-9.36-8.94v-4.47a9.16,9.16,0,0,1,9.36-8.94h4.68A9.15,9.15,0,0,1,388.15,1334.64Z"/><path class="cls-17" d="M388.15,1441.27v4.47a9.15,9.15,0,0,1-9.35,8.94h-4.68a9.16,9.16,0,0,1-9.36-8.94v-4.47a9.16,9.16,0,0,1,9.36-9h4.68A9.16,9.16,0,0,1,388.15,1441.27Z"/><path class="cls-18" d="M316,766v4.47a9.16,9.16,0,0,1-9.36,8.94h-4.67a9.16,9.16,0,0,1-9.36-8.94V766a9.16,9.16,0,0,1,9.36-8.94h4.67A9.16,9.16,0,0,1,316,766Z"/><path class="cls-18" d="M314.27,943.67v4.47a9.16,9.16,0,0,1-9.36,8.94h-4.68a9.16,9.16,0,0,1-9.36-8.94v-4.47a9.16,9.16,0,0,1,9.36-8.94h4.68A9.16,9.16,0,0,1,314.27,943.67Z"/><path class="cls-19" d="M243.79,588.25v4.47a9.16,9.16,0,0,1-9.36,8.94h-4.67a9.16,9.16,0,0,1-9.36-8.94v-4.47a9.16,9.16,0,0,1,9.36-9h4.67A9.16,9.16,0,0,1,243.79,588.25Z"/><path class="cls-20" d="M279.88,1476.81v4.47a9.16,9.16,0,0,1-9.36,8.94h-4.67a9.16,9.16,0,0,1-9.36-8.94v-4.47a9.16,9.16,0,0,1,9.36-8.94h4.67A9.16,9.16,0,0,1,279.88,1476.81Z"/><path class="cls-21" d="M207.7,801.5V806a9.16,9.16,0,0,1-9.36,8.94h-4.67a9.16,9.16,0,0,1-9.36-8.94V801.5a9.16,9.16,0,0,1,9.36-8.94h4.67A9.16,9.16,0,0,1,207.7,801.5Z"/><path class="cls-22" d="M352.06,1014.76v4.47a9.15,9.15,0,0,1-9.35,8.94H338a9.16,9.16,0,0,1-9.36-8.94v-4.47a9.16,9.16,0,0,1,9.36-9h4.68A9.16,9.16,0,0,1,352.06,1014.76Z"/><text class="cls-23" transform="translate(33.39 476.49)">FUNÇÃO<tspan x="-23.25" y="24">PRINCIPAL</tspan></text><g class="cls-24"><path class="cls-7" d="M117,510.54h-4.58l4.58,4.77h-7.83v3.44H117l-4.58,4.78H117L123,517Z"/></g><text class="cls-23" transform="translate(412.66 454.57)">APPS<tspan x="0" y="24">GOOGLE </tspan><tspan x="0" y="48">PLAY</tspan></text><g class="cls-24"><path class="cls-7" d="M426.14,517.61V513l-4.78,4.59v-7.84h-3.44v7.84L413.14,513v4.59l6.5,5.92Z"/></g></svg>