<svg id="Layer_1" data-name="Layer 1" xmlns="http://www.w3.org/2000/svg" viewBox="0 0 768 901.76"><defs><style>.cls-1{fill:#030420;}.cls-2{font-size:20px;}.cls-10,.cls-11,.cls-2{fill:#fff;}.cls-10,.cls-2{font-family:OpenSans, Open Sans;}.cls-3,.cls-4{font-size:24.3px;font-family:OpenSans-Bold, Open Sans;font-weight:700;text-decoration:underline;}.cls-3,.cls-5{fill:#1c4ef0;}.cls-4,.cls-6{fill:#83e084;}.cls-7,.cls-8,.cls-9{fill:none;stroke-miterlimit:10;}.cls-7{stroke:#83e084;stroke-width:1.07px;}.cls-8,.cls-9{stroke:#fff;}.cls-8{stroke-width:0.75px;}.cls-9{stroke-width:0.54px;}.cls-10{font-size:24px;letter-spacing:0.04em;}.cls-12{fill:#1a5dff;}</style></defs><rect class="cls-1" x="-17.38" y="-355.19" width="800.77" height="1439.37"/><text class="cls-2" transform="translate(36.53 789.25)">RESPONDIDO</text><text class="cls-3" transform="translate(144.02 395.08)">130</text><text class="cls-4" transform="translate(151.48 268.42)">41</text><rect class="cls-5" x="70.35" y="373.32" width="62.09" height="388.52"/><rect class="cls-6" x="70.35" y="250.78" width="62.09" height="122.53"/><rect class="cls-5" x="373.82" y="717.01" width="62.09" height="44.83"/><rect class="cls-6" x="373.82" y="672.18" width="62.09" height="44.83"/><text class="cls-2" transform="translate(356.48 786.25)">RESPOSTA <tspan x="-27.67" y="24">INSATISFATÓRIA</tspan></text><text class="cls-3" transform="translate(341.48 742.55)">15</text><text class="cls-4" transform="translate(341.48 669.22)">15</text><rect class="cls-5" x="202.14" y="660.22" width="62.09" height="101.61"/><rect class="cls-6" x="202.14" y="651.26" width="62.09" height="8.97"/><text class="cls-2" transform="translate(186.5 787.07)">INDICAÇÃO <tspan x="3.45" y="24">DE OUTRO </tspan><tspan x="18.1" y="48">ÓRGÃO</tspan></text><text class="cls-3" transform="translate(165.87 680.01)">34</text><text class="cls-4" transform="translate(183.02 642.88)">3</text><rect class="cls-5" x="524.7" y="684.13" width="62.09" height="77.7"/><rect class="cls-6" x="524.7" y="681.14" width="62.09" height="2.99"/><text class="cls-2" transform="translate(501.82 786.25)">PEDIDO EM <tspan x="-10.21" y="24">DUPLICIDADE</tspan></text><text class="cls-3" transform="translate(488.91 704.86)">26</text><text class="cls-4" transform="translate(506.45 675.75)">1</text><text class="cls-2" transform="translate(634.78 786.25)">INDEFERIDO</text><rect class="cls-5" x="651.79" y="752.48" width="62.09" height="8.29"/><rect class="cls-6" x="651.79" y="748.82" width="62.09" height="2.99"/><text class="cls-3" transform="translate(627.61 760.71)">3</text><text class="cls-4" transform="translate(630.47 733.45)">1</text><path class="cls-7" d="M641.51,726.18a22.71,22.71,0,0,1,22.71,22.71"/><line class="cls-8" x1="22.79" y1="762.14" x2="745.21" y2="762.14"/><line class="cls-9" x1="-8.54" y1="883.48" x2="768" y2="883.48"/><text class="cls-10" transform="translate(119.57 171.41)">ATRASADO</text><rect class="cls-6" x="90.9" y="120.51" width="107.52" height="12.19"/><path class="cls-11" d="M330.72,166.36v7.12h-2V156.35h4.72a7.43,7.43,0,0,1,4.68,1.21,4.35,4.35,0,0,1,1.51,3.63,4.54,4.54,0,0,1-3.46,4.59l4.67,7.7h-2.36l-4.17-7.12Zm0-1.71h2.74a4.74,4.74,0,0,0,3.11-.84,3.11,3.11,0,0,0,1-2.51,2.85,2.85,0,0,0-1-2.45,5.47,5.47,0,0,0-3.23-.75h-2.6Z"/><path class="cls-11" d="M354.18,173.48h-9.6V156.35h9.6v1.77h-7.59v5.52h7.13v1.76h-7.13v6.3h7.59Z"/><path class="cls-11" d="M368.66,168.92a4.21,4.21,0,0,1-1.64,3.53,7.14,7.14,0,0,1-4.48,1.27,11.07,11.07,0,0,1-4.7-.79V171a11.9,11.9,0,0,0,2.3.7,11.65,11.65,0,0,0,2.47.26,5.06,5.06,0,0,0,3-.75,2.5,2.5,0,0,0,1-2.11,2.7,2.7,0,0,0-.36-1.46,3.33,3.33,0,0,0-1.2-1.05,17,17,0,0,0-2.56-1.09,8.21,8.21,0,0,1-3.43-2,4.44,4.44,0,0,1-1-3.06,3.81,3.81,0,0,1,1.49-3.15,6.26,6.26,0,0,1,4-1.18,11.8,11.8,0,0,1,4.72.94l-.63,1.74a10.58,10.58,0,0,0-4.14-.89,4,4,0,0,0-2.48.68,2.22,2.22,0,0,0-.9,1.88,2.87,2.87,0,0,0,.33,1.46,3,3,0,0,0,1.12,1,13.38,13.38,0,0,0,2.39,1.05,9.41,9.41,0,0,1,3.73,2.07A4.05,4.05,0,0,1,368.66,168.92Z"/><path class="cls-11" d="M384.06,161.34a4.78,4.78,0,0,1-1.79,4,8,8,0,0,1-5.1,1.41h-2v6.73h-2V156.35h4.46Q384.06,156.35,384.06,161.34ZM375.15,165H377a6.75,6.75,0,0,0,3.85-.85,3.16,3.16,0,0,0,1.19-2.74,3,3,0,0,0-1.12-2.53,5.84,5.84,0,0,0-3.49-.84h-2.23Z"/><path class="cls-11" d="M403.56,164.89a9.41,9.41,0,0,1-2.09,6.47,7.36,7.36,0,0,1-5.81,2.36,7.45,7.45,0,0,1-5.87-2.32,9.51,9.51,0,0,1-2.06-6.53,9.38,9.38,0,0,1,2.07-6.49,7.51,7.51,0,0,1,5.88-2.3,7.33,7.33,0,0,1,5.79,2.34A9.41,9.41,0,0,1,403.56,164.89Zm-13.71,0a8.07,8.07,0,0,0,1.49,5.28,6.1,6.1,0,0,0,8.64,0,8.26,8.26,0,0,0,1.46-5.29,8.14,8.14,0,0,0-1.45-5.24,5.24,5.24,0,0,0-4.31-1.79,5.31,5.31,0,0,0-4.34,1.8A8,8,0,0,0,389.85,164.89Z"/><path class="cls-11" d="M418.07,168.92a4.19,4.19,0,0,1-1.65,3.53,7.13,7.13,0,0,1-4.47,1.27,11.15,11.15,0,0,1-4.71-.79V171a12.22,12.22,0,0,0,2.31.7A11.59,11.59,0,0,0,412,172a5,5,0,0,0,3-.75,2.48,2.48,0,0,0,1-2.11,2.7,2.7,0,0,0-.35-1.46,3.33,3.33,0,0,0-1.2-1.05,18,18,0,0,0-2.56-1.09,8.19,8.19,0,0,1-3.44-2,4.49,4.49,0,0,1-1-3.06,3.79,3.79,0,0,1,1.5-3.15,6.23,6.23,0,0,1,4-1.18,11.77,11.77,0,0,1,4.72.94l-.62,1.74a10.58,10.58,0,0,0-4.14-.89,4,4,0,0,0-2.49.68,2.24,2.24,0,0,0-.89,1.88,2.87,2.87,0,0,0,.33,1.46,3,3,0,0,0,1.11,1,13.21,13.21,0,0,0,2.4,1.05,9.43,9.43,0,0,1,3.72,2.07A4,4,0,0,1,418.07,168.92Z"/><path class="cls-11" d="M427.85,173.48h-2V158.12H420.4v-1.77h12.9v1.77h-5.45Z"/><path class="cls-11" d="M447.67,173.48,445.53,168h-6.9l-2.12,5.45h-2l6.8-17.2H443l6.77,17.2Zm-2.77-7.24-2-5.31c-.26-.67-.52-1.49-.8-2.47a22,22,0,0,1-.74,2.47l-2,5.31Z"/><path class="cls-11" d="M342.16,202.28h-2.28l-9.41-14.38h-.09c.12,1.69.19,3.24.19,4.64v9.74h-1.85V185.15H331l9.38,14.32h.09c0-.21-.05-.89-.1-2s-.08-2-.06-2.46v-9.83h1.87Z"/><path class="cls-11" d="M362.79,193.69a9.41,9.41,0,0,1-2.09,6.47,8.44,8.44,0,0,1-11.67,0,11.27,11.27,0,0,1,0-13,7.54,7.54,0,0,1,5.89-2.3,7.35,7.35,0,0,1,5.79,2.34A9.41,9.41,0,0,1,362.79,193.69Zm-13.71,0a8.13,8.13,0,0,0,1.49,5.28,6.1,6.1,0,0,0,8.64,0,10.25,10.25,0,0,0,0-10.53,5.22,5.22,0,0,0-4.3-1.79,5.31,5.31,0,0,0-4.35,1.8A8,8,0,0,0,349.08,193.69Z"/><path class="cls-11" d="M385.73,190.14a4.78,4.78,0,0,1-1.79,4,8,8,0,0,1-5.1,1.4h-2v6.74h-2V185.15h4.46Q385.73,185.15,385.73,190.14Zm-8.91,3.69h1.8a6.73,6.73,0,0,0,3.85-.85,3.16,3.16,0,0,0,1.19-2.74,3,3,0,0,0-1.12-2.53,5.84,5.84,0,0,0-3.49-.84h-2.23Z"/><path class="cls-11" d="M392.29,195.16v7.12h-2V185.15H395a7.43,7.43,0,0,1,4.68,1.21A4.35,4.35,0,0,1,401.2,190a4.54,4.54,0,0,1-3.46,4.59l4.68,7.7h-2.37l-4.17-7.12Zm0-1.71H395a4.73,4.73,0,0,0,3.1-.84,3.11,3.11,0,0,0,1-2.51,2.85,2.85,0,0,0-1-2.45,5.47,5.47,0,0,0-3.23-.75h-2.61Z"/><path class="cls-11" d="M417,202.28l-2.14-5.45h-6.89l-2.12,5.45h-2l6.81-17.2h1.68l6.77,17.2ZM414.21,195l-2-5.31a26,26,0,0,1-.8-2.47,24.28,24.28,0,0,1-.74,2.47l-2,5.31Z"/><path class="cls-11" d="M432.8,202.28H421v-1.56l9.13-13.78h-8.85v-1.79h11.28v1.56l-9.13,13.77h9.39Z"/><path class="cls-11" d="M452,193.69a9.36,9.36,0,0,1-2.09,6.47,7.34,7.34,0,0,1-5.8,2.36,7.44,7.44,0,0,1-5.87-2.32,11.27,11.27,0,0,1,0-13,7.55,7.55,0,0,1,5.89-2.3,7.35,7.35,0,0,1,5.79,2.34A9.41,9.41,0,0,1,452,193.69Zm-13.71,0a8.13,8.13,0,0,0,1.49,5.28,6.11,6.11,0,0,0,8.65,0,8.26,8.26,0,0,0,1.46-5.29,8.14,8.14,0,0,0-1.46-5.24,5.22,5.22,0,0,0-4.3-1.79,5.31,5.31,0,0,0-4.35,1.8A8,8,0,0,0,438.32,193.69Z"/><rect class="cls-12" x="297.68" y="120.51" width="107.52" height="12.19"/></svg>